<svg xmlns="http://www.w3.org/2000/svg" width="86" height="86" fill="none" viewBox="0 0 86 86">
    <circle cx="43" cy="43" r="43" fill="#F89920" opacity=".05"/>
    <path fill="#F89920" d="M35.457 60.096V47.228C34 46.5 33.03 44.8 33.03 43.101v-9.712c0-1.7.971-3.156 2.428-4.127v-.729c0-2.67-2.185-4.855-4.856-4.855-2.67 0-4.855 2.185-4.855 4.855 0 2.671 2.185 4.856 4.855 4.856h-4.855c-1.214 0-2.428 1.214-2.428 2.428v9.712c0 1.214 1.214 2.428 2.427 2.428v12.14h9.712zM59.736 33.39h-4.855c2.67 0 4.855-2.186 4.855-4.857 0-2.67-2.185-4.855-4.855-4.855-2.671 0-4.856 2.185-4.856 4.855v.729c1.456.971 2.428 2.428 2.428 4.127v9.712c0 1.7-.972 3.399-2.428 4.127v12.868h9.711v-12.14c1.214 0 2.428-1.213 2.428-2.427v-9.712c0-1.214-1.214-2.428-2.428-2.428zM47.597 26.105c.014.647-.1 1.29-.338 1.892-.237.602-.592 1.15-1.044 1.612-.452.463-.992.83-1.588 1.082-.596.25-1.237.38-1.884.38-.646 0-1.287-.129-1.883-.38-.596-.25-1.136-.617-1.589-1.08-.452-.462-.807-1.01-1.045-1.612-.238-.601-.353-1.244-.338-1.891.028-1.269.551-2.476 1.458-3.364.907-.887 2.126-1.384 3.395-1.384 1.269 0 2.488.496 3.395 1.383.908.887 1.432 2.094 1.46 3.363z"/>
    <path fill="#F89920" d="M47.597 30.961h-9.712c-1.214 0-2.428 1.214-2.428 2.428v9.712c0 1.214 1.214 2.428 2.428 2.428v14.567h9.712V45.53c1.214 0 2.428-1.214 2.428-2.428v-9.712c0-1.214-1.214-2.428-2.428-2.428z"/>
</svg>
