<svg xmlns="http://www.w3.org/2000/svg" width="86" height="86" fill="none" viewBox="0 0 86 86">
    <circle cx="43" cy="43" r="43" fill="#F89920" opacity=".05"/>
    <path fill="#F89920" d="M34.212 44.404l6.459 6.463-2.582 2.585 2.586 2.586-2.585 2.584-4.523-4.523-5.17 5.17-2.585-2.584 5.17-5.173-4.523-4.521 2.584-2.585 2.585 2.583 2.582-2.585h.002zM26.81 25.385l6.48.006 21.599 21.6 2.586-2.585 2.584 2.585-4.522 4.523 5.17 5.17-2.585 2.585-5.17-5.17-4.524 4.523-2.585-2.584 2.585-2.586-21.613-21.613-.005-6.453zm26.423 0l6.475.006.004 6.439-7.408 7.406-6.462-6.461 7.39-7.39z"/>
</svg>
