<svg xmlns="http://www.w3.org/2000/svg" width="86" height="86" fill="none" viewBox="0 0 86 86">
    <circle cx="43" cy="43" r="43" fill="#F89920" opacity=".05"/>
    <path fill="#F89920" d="M62.702 28.171c-.202-.485-.587-.87-1.073-1.072-.238-.102-.495-.156-.754-.16h-9.932c-.527 0-1.032.21-1.404.582-.373.373-.582.878-.582 1.405s.21 1.032.582 1.405c.372.372.877.581 1.404.581h5.145L44.984 42.016 38.45 35.46c-.184-.186-.404-.334-.646-.435-.242-.1-.502-.153-.764-.153s-.522.052-.764.153c-.242.1-.461.249-.646.435L23.711 47.379c-.186.184-.334.404-.434.646-.101.242-.153.502-.153.764s.052.522.152.764c.101.242.25.461.435.646.185.186.405.334.647.435.242.1.501.152.764.152.262 0 .521-.051.763-.152s.462-.249.647-.435l10.507-10.527 6.535 6.554c.185.187.404.334.647.435.242.101.501.153.763.153.263 0 .522-.052.764-.153.242-.1.462-.248.647-.435l12.493-12.513v5.144c0 .527.21 1.032.582 1.405.373.372.878.582 1.405.582.526 0 1.032-.21 1.404-.582.373-.373.582-.878.582-1.405v-9.931c-.003-.26-.057-.516-.16-.755z"/>
</svg>
