<svg xmlns="http://www.w3.org/2000/svg" width="86" height="86" fill="none" viewBox="0 0 86 86">
    <circle cx="43" cy="43" r="43" fill="#F89920" opacity=".05"/>
    <path fill="#F89920" d="M56.674 25.085c-1.32.002-2.584.526-3.517 1.46-.933.932-1.458 2.197-1.459 3.517 0 .71.155 1.385.426 2l-3.891 4.377c-1.322-.912-2.89-1.401-4.497-1.401-1.473 0-2.834.43-4.019 1.127l-4.526-4.525-.046.046c.39-.792.63-1.674.63-2.62 0-1.18-.351-2.335-1.007-3.317-.656-.982-1.589-1.747-2.68-2.2-1.091-.451-2.292-.57-3.45-.34-1.159.231-2.223.8-3.058 1.635s-1.403 1.9-1.634 3.057c-.23 1.159-.112 2.36.34 3.45.452 1.092 1.217 2.024 2.2 2.68.981.657 2.136 1.007 3.317 1.007.945 0 1.825-.239 2.62-.63l-.047.047 4.527 4.524c-.731 1.214-1.121 2.603-1.129 4.02 0 1.985.757 3.78 1.96 5.178l-5.129 5.128c-.574-.23-1.188-.35-1.807-.353-2.743 0-4.976 2.232-4.976 4.977 0 2.744 2.233 4.976 4.976 4.976s4.976-2.232 4.976-4.977c0-.638-.131-1.245-.352-1.809l5.649-5.649c.838.299 1.726.492 2.665.492 4.391 0 7.962-3.571 7.962-7.962 0-1.266-.324-2.447-.852-3.511l4.214-4.744c.51.175 1.047.293 1.614.293 2.745 0 4.977-2.231 4.977-4.976s-2.232-4.977-4.977-4.977zM43.736 46.981c-2.195 0-3.98-1.786-3.98-3.981 0-2.196 1.785-3.981 3.98-3.981 2.196 0 3.981 1.785 3.981 3.98 0 2.196-1.785 3.982-3.98 3.982z"/>
</svg>
