<svg xmlns="http://www.w3.org/2000/svg" width="86" height="86" fill="none" viewBox="0 0 86 86">
    <circle cx="43" cy="43" r="43" fill="#F89920" opacity=".05"/>
    <path fill="#F89920" d="M54.424 38.606H44.087v3.845c0 2.726-2.196 4.943-4.896 4.943-2.7 0-4.896-2.217-4.896-4.943v-8.349l-4.413 2.678c-1.313.79-2.115 2.224-2.115 3.762v3.248l-5.44 3.172c-1.04.604-1.401 1.95-.796 3l5.44 9.516c.599 1.05 1.931 1.407 2.972.803l7.031-4.099h9.29c2.4 0 4.352-1.97 4.352-4.394h1.088c1.203 0 2.176-.981 2.176-2.197v-4.394h.544c.904 0 1.632-.734 1.632-1.648v-3.295c0-.913-.727-1.648-1.632-1.648zm10.044-2.568l-5.44-9.515c-.599-1.05-1.931-1.408-2.972-.804l-7.031 4.1h-6.95c-.816 0-1.612.233-2.306.665l-2.278 1.435c-.639.398-1.02 1.105-1.02 1.86v8.672c0 1.517 1.217 2.746 2.72 2.746 1.503 0 2.72-1.229 2.72-2.746v-6.042h12.513c2.101 0 3.808 1.724 3.808 3.845v1.957l5.44-3.172c1.04-.611 1.395-1.95.796-3z"/>
</svg>
