<svg xmlns="http://www.w3.org/2000/svg" id="prefix__Layer_2" width="272.341" height="238.448" data-name="Layer 2" viewBox="0 0 272.341 238.448">
    <defs>
        <clipPath id="prefix__clip-path">
            <path id="prefix__Path_473" d="M302.615 319.707l25.59-2.647 2.618 11.778H289.31z" class="prefix__cls-1" data-name="Path 473" transform="translate(-289.31 -317.06)"/>
        </clipPath>
        <clipPath id="prefix__clip-path-2">
            <path id="prefix__Path_480" d="M195.685 251.19l25.583-2.64 2.625 11.771H182.38z" class="prefix__cls-1" data-name="Path 480" transform="translate(-182.38 -248.55)"/>
        </clipPath>
        <style>
            .prefix__cls-1{fill:none}.prefix__cls-2{fill:#f5b640}.prefix__cls-3{fill:#fff}.prefix__cls-4{fill:#c7e7e0}.prefix__cls-5{fill:#eac08e}.prefix__cls-6{fill:#4db054}.prefix__cls-7{fill:#2e2625}
        </style>
    </defs>
    <g id="prefix__OBJECTS">
        <path id="prefix__Path_448" d="M24.317 244.351h140.868L142.749 22.54H1.88z" class="prefix__cls-2" data-name="Path 448" transform="translate(-.539 -6.431)"/>
        <path id="prefix__Path_449" d="M33.3 244.351h140.872L151.736 22.54H10.86z" class="prefix__cls-3" data-name="Path 449" transform="translate(-3.112 -6.431)"/>
        <path id="prefix__Path_450" d="M324.99 293.947c6.984-11.229 10.4-23.542 11.365-36.712.449-6.157.171-12.506-2.14-18.227s-6.9-10.772-12.841-12.442c-8.126-2.269-17.585 3.018-19.911 11.129a73.137 73.137 0 0 0-4.994-21.916c-2.754-7.063-7.241-13.69-13.712-17.642-3.567-2.183-7.912-3.5-11.971-2.461-4.38 1.127-7.648 4.751-10.216 8.475a61.987 61.987 0 0 0-10.615 40.086c-3.374-2.69-8.5-2.718-12.342-.749a16.624 16.624 0 0 0-7.847 9.873 29.76 29.76 0 0 0-.756 12.841c1.227 9.51 5.244 20.353 11.414 27.694" class="prefix__cls-3" data-name="Path 450" transform="translate(-65.532 -55.948)"/>
        <path id="prefix__Path_451" d="M164.838 313.932h43.432l-4.808-48.882H160.03z" class="prefix__cls-4" data-name="Path 451" transform="translate(-45.864 -75.934)"/>
        <path id="prefix__Path_452" d="M169.9 89.488s-13-10.888-12.672-12.435S164.3 80.3 164.3 80.3s-6.906-5.971-6.085-7.056c1.02-1.37 7.847 4.708 7.847 4.708s-5.957-6.421-5.186-7.412 7.6 4.937 7.6 4.937-5.921-6.278-4.994-7.455 11.079 6.656 11.079 6.656z" class="prefix__cls-5" data-name="Path 452" transform="translate(-45.059 -19.431)"/>
        <path id="prefix__Path_453" d="M189.7 40.452l8.061 5.771 1.427-2.012a4.994 4.994 0 0 0-1.156-6.927 4.994 4.994 0 0 0-6.92 1.156z" class="prefix__cls-6" data-name="Path 453" transform="translate(-54.367 -10.396)"/>
        <path id="prefix__Rectangle_249" d="M0 0H3.196V9.931H0z" class="prefix__cls-3" data-name="Rectangle 249" transform="rotate(-54.48 98.425 -113.302)"/>
        <path id="prefix__Path_454" d="M147.25 93.021l3.888-1.869 6.542-3.139 12.492-17.493 1.52-2.126 12.07-16.894-8.083-5.771L149.6 82.242l-1.477 6.763z" class="prefix__cls-2" data-name="Path 454" transform="translate(-42.201 -13.077)"/>
        <path id="prefix__Path_455" d="M147.25 107.635l3.888-1.869 6.542-3.139a3.377 3.377 0 0 0-4.109-3.253s0-3.16-3.974-2.518l-1.47 6.763z" class="prefix__cls-3" data-name="Path 455" transform="translate(-42.201 -27.705)"/>
        <path id="prefix__Path_456" d="M147.25 110.406l3.888-1.869-3.011-2.147z" class="prefix__cls-7" data-name="Path 456" transform="translate(-42.201 -30.462)"/>
        <path id="prefix__Path_457" d="M179.38 77.895l1.52-2.126-1.256-4.309z" class="prefix__cls-7" data-name="Path 457" transform="translate(-51.41 -20.451)"/>
        <path id="prefix__Path_458" d="M179.673 74.786s-2.276-6.071-1.049-6.492 7.077 8.154 7.077 8.154L175 89.6" class="prefix__cls-5" data-name="Path 458" transform="translate(-50.155 -19.54)"/>
        <path id="prefix__Path_459" d="M184.913 79.73L172.2 91.187l1.983 1.691z" class="prefix__cls-7" data-name="Path 459" transform="translate(-49.352 -22.822)"/>
        <path id="prefix__Path_460" d="M264.267 34.376s-10.259 6.421-15.224 3.681-2.725-30.127-2.725-30.127h19.875c.321 0 2.24 9.617 2.24 9.617s4.808.321 5.286 4.487-4.644 4.009-4.644 4.009l4.487 25.64H255.77l1.43-15.695" class="prefix__cls-5" data-name="Path 460" transform="translate(-70.45 -2.244)"/>
        <path id="prefix__Path_461" d="M306.13 320.409l-.093-.828a15.88 15.88 0 0 0-1.9-6.114 4.074 4.074 0 0 0-1.056-1.177 1.912 1.912 0 0 0-1.748-.271 1.948 1.948 0 0 0-1.127 1.862 3.86 3.86 0 0 0 .642 1.869 11.415 11.415 0 0 0 4.544 4.28zm-4.2-7.6a1.206 1.206 0 0 1 .656.221 3.146 3.146 0 0 1 .8.927 14 14 0 0 1 1.648 4.844 10.529 10.529 0 0 1-3.41-3.5 3.09 3.09 0 0 1-.521-1.427 1.056 1.056 0 0 1 .556-1.006.713.713 0 0 1 .269-.068z" class="prefix__cls-7" data-name="Path 461" transform="translate(-86.038 -89.366)"/>
        <path id="prefix__Path_462" d="M302.74 321.946a9.985 9.985 0 0 0 1.662-.135l.813-.143-.564-.606a14.218 14.218 0 0 0-4.637-3.346 3.566 3.566 0 0 0-1.427-.285 1.634 1.634 0 0 0-1.234 2.747 3.467 3.467 0 0 0 1.477 1.006 10.173 10.173 0 0 0 3.91.762zm.621-.913a9.4 9.4 0 0 1-4.159-.671 2.6 2.6 0 0 1-1.113-.713.877.877 0 0 1-.143-.956.892.892 0 0 1 .713-.35 2.69 2.69 0 0 1 1.042.228 12.371 12.371 0 0 1 3.7 2.461z" class="prefix__cls-7" data-name="Path 462" transform="translate(-85.095 -90.946)"/>
        <path id="prefix__Path_463" d="M173.17 88.038S197.04 110 205.865 110c6.842 0 13.983-7.947 17.871-13.077 1.8-2.376 2.911-4.145 2.961-4.23l3.046 22.9h42.8l-1.462-7.2 4.559 6.906 17.764 26.9 18.27-11.543s-37.657-64.263-41.824-69.071-18.434-3.685-18.434-3.685c-12.342 13.141-15.695-.164-15.695-.164s-7.526-1.277-13.94.642c-3.317 1-8.047 8.382-11.842 15.274-3.567 6.421-6.271 12.456-6.271 12.456l-17.307-14.271z" class="prefix__cls-6" data-name="Path 463" transform="translate(-49.63 -16.398)"/>
        <path id="prefix__Path_464" d="M192.468 209.434h31.575l-5.45-42.961 10.173 1.427 20.753 2.9 19.262 87.506h32.189l-24.384-120.37h-42.8s-35.292-5.957-42.947 0c-8.622 6.749 1.629 71.498 1.629 71.498z" class="prefix__cls-2" data-name="Path 464" transform="translate(-53.705 -38.745)"/>
        <path id="prefix__Path_465" d="M245.4 180.632l20.753 2.9-.8-3.845z" class="prefix__cls-7" data-name="Path 465" transform="translate(-70.331 -51.47)"/>
        <path id="prefix__Path_466" d="M303.92 94.77l4.6 24.377 4.559 6.9z" class="prefix__cls-7" data-name="Path 466" transform="translate(-87.103 -27.132)"/>
        <path id="prefix__Path_467" d="M244.05 106.946c1.8-2.376 2.911-4.145 2.961-4.23L245.584 92.3z" class="prefix__cls-7" data-name="Path 467" transform="translate(-69.944 -26.424)"/>
        <path id="prefix__Path_468" d="M359.827 161.19s9.36 11.75 8.718 13.2-6.249-4.651-6.249-4.651 5.508 7.277 4.487 8.176c-1.284 1.12-6.735-6.249-6.735-6.249s4.487 7.526 3.524 8.333-6.421-6.421-6.421-6.421 4.487 7.377 3.36 8.333-9.453-8.811-9.453-8.811.963 6.421-.321 6.57-5.308-9.4-5.308-9.4z" class="prefix__cls-5" data-name="Path 468" transform="translate(-98.999 -46.168)"/>
        <path id="prefix__Path_469" d="M326.721 307.74l4.1 18.427H289.31l13.3-9.132-1.848-9.3z" class="prefix__cls-5" data-name="Path 469" transform="translate(-82.916 -88.169)"/>
        <path id="prefix__Path_470" d="M302.615 319.707l25.59-2.647 2.618 11.778H289.31z" class="prefix__cls-7" data-name="Path 470" transform="translate(-82.916 -90.84)"/>
        <path id="prefix__Path_471" d="M331.324 307.74l-25.24 3.588-.713-3.588z" class="prefix__cls-7" data-name="Path 471" transform="translate(-87.518 -88.169)"/>
        <g id="prefix__Group_129" data-name="Group 129" transform="translate(206.395 226.22)">
            <path id="prefix__Path_472" d="M333.022 332.721a14.132 14.132 0 0 1 1.355-5.094 8.432 8.432 0 0 1 3.5-3.717 9 9 0 0 1 3.952-.949v-.892a9.859 9.859 0 0 0-4.345 1.049 9.381 9.381 0 0 0-3.874 4.109 15.06 15.06 0 0 0-1.427 5.408z" class="prefix__cls-3" data-name="Path 472" transform="translate(-301.596 -318.496)"/>
        </g>
        <path id="prefix__Path_474" d="M199.2 251.889l-.086-.828a15.824 15.824 0 0 0-1.9-6.107 3.974 3.974 0 0 0-1.049-1.184 1.776 1.776 0 0 0-2.854 1.591 3.86 3.86 0 0 0 .642 1.869 11.536 11.536 0 0 0 4.537 4.28zm-4.2-7.6a1.184 1.184 0 0 1 .656.221 3.068 3.068 0 0 1 .806.927 14.148 14.148 0 0 1 1.619 4.815 10.551 10.551 0 0 1-3.417-3.5 2.975 2.975 0 0 1-.514-1.427 1.063 1.063 0 0 1 .556-1.013.792.792 0 0 1 .292-.021z" class="prefix__cls-7" data-name="Path 474" transform="translate(-55.398 -69.729)"/>
        <path id="prefix__Path_475" d="M195.821 253.429a9.835 9.835 0 0 0 1.655-.136l.82-.143-.564-.6a14.2 14.2 0 0 0-4.632-3.35 3.646 3.646 0 0 0-1.427-.278 1.727 1.727 0 0 0-1.427.763 1.762 1.762 0 0 0 .193 1.983 3.51 3.51 0 0 0 1.477 1 10.145 10.145 0 0 0 3.909.763zm.606-.885a9.438 9.438 0 0 1-4.166-.671 2.747 2.747 0 0 1-1.113-.713.906.906 0 0 1-.136-.963.863.863 0 0 1 .713-.35 2.725 2.725 0 0 1 1.049.228 12.371 12.371 0 0 1 3.653 2.468z" class="prefix__cls-7" data-name="Path 475" transform="translate(-54.46 -71.311)"/>
        <path id="prefix__Path_476" d="M219.791 239.22l4.1 18.427H182.38l13.3-9.132-1.848-9.3z" class="prefix__cls-5" data-name="Path 476" transform="translate(-52.27 -68.531)"/>
        <path id="prefix__Path_477" d="M195.685 251.19l25.583-2.64 2.625 11.771H182.38z" class="prefix__cls-7" data-name="Path 477" transform="translate(-52.27 -71.205)"/>
        <path id="prefix__Path_478" d="M224.394 239.22l-25.24 3.588-.713-3.588z" class="prefix__cls-7" data-name="Path 478" transform="translate(-56.872 -68.531)"/>
        <g id="prefix__Group_130" data-name="Group 130" transform="translate(130.11 177.345)">
            <path id="prefix__Path_479" d="M226.089 264.174a14.268 14.268 0 0 1 1.348-5.094 8.511 8.511 0 0 1 3.5-3.717 8.924 8.924 0 0 1 3.952-.942v-.892a9.859 9.859 0 0 0-4.345 1.042 9.381 9.381 0 0 0-3.874 4.109 15.1 15.1 0 0 0-1.427 5.408z" class="prefix__cls-3" data-name="Path 479" transform="translate(-194.664 -249.977)"/>
        </g>
        <path id="prefix__Path_481" d="M215.85 92.686l1.605 1.284 4.666-13.74c-3.539 6.442-6.271 12.456-6.271 12.456z" class="prefix__cls-7" data-name="Path 481" transform="translate(-61.862 -22.965)"/>
        <path id="prefix__Path_482" d="M345.45 170.272l16.016-6.984-1.634-2.1z" class="prefix__cls-7" data-name="Path 482" transform="translate(-99.005 -46.168)"/>
        <path id="prefix__Rectangle_250" d="M0 0H0.892V46.507H0z" class="prefix__cls-7" data-name="Rectangle 250" transform="rotate(-11.84 946.204 -940.864)"/>
        <path id="prefix__Rectangle_251" d="M0 0H0.892V44.274H0z" class="prefix__cls-7" data-name="Rectangle 251" transform="rotate(-8.11 973.12 -1037.093)"/>
        <path id="prefix__Rectangle_252" d="M0 0H28.422V0.892H0z" class="prefix__cls-7" data-name="Rectangle 252" transform="translate(217.053 210.304)"/>
        <path id="prefix__Rectangle_253" d="M0 0H27.751V0.892H0z" class="prefix__cls-7" data-name="Rectangle 253" transform="translate(141.568 162.235)"/>
        <path id="prefix__Path_483" d="M308.112 166.527l.87-.193-2.482-11.414h-.357c-4.173 0-7.462-11.571-8.375-16.03l-.878.178a65.157 65.157 0 0 0 2.383 8.261c1.99 5.351 4.173 8.19 6.506 8.461z" class="prefix__cls-7" data-name="Path 483" transform="translate(-85.088 -39.777)"/>
        <path id="prefix__Path_484" d="M261.17 51.571l7.1-6.221a38.568 38.568 0 0 1-6.82 3.16z" class="prefix__cls-7" data-name="Path 484" transform="translate(-74.851 -12.968)"/>
        <path id="prefix__Path_485" d="M249.361 29.8l.671-.585c-.849-.984-1.612-2.347-1.334-2.732.528-.713 1.848.171 1.862.185l.863.614L250 18.06l-.878.143 1.141 7.3a1.819 1.819 0 0 0-2.269.464c-.392.556-.264 1.37.414 2.49a10.079 10.079 0 0 0 .956 1.348z" class="prefix__cls-7" data-name="Path 485" transform="translate(-71.011 -5.147)"/>
        <path id="prefix__Path_486" d="M255.424 39.282a2.682 2.682 0 0 0 2.533-2.732h-.892a1.819 1.819 0 0 1-.478 1.256 1.791 1.791 0 0 1-1.227.571z" class="prefix__cls-7" data-name="Path 486" transform="translate(-73.185 -10.446)"/>
        <path id="prefix__Path_487" d="M257.75 22.783c0 .749.25 1.363.564 1.363s.556-.614.556-1.363-.25-1.363-.556-1.363-.564.606-.564 1.363z" class="prefix__cls-7" data-name="Path 487" transform="translate(-73.871 -6.11)"/>
        <path id="prefix__Path_488" d="M256.82 27.251a4.28 4.28 0 1 0-4.28-4.28 4.28 4.28 0 0 0 4.28 4.28zm0-7.69a3.4 3.4 0 1 1-3.4 3.4 3.4 3.4 0 0 1 3.4-3.401z" class="prefix__cls-7" data-name="Path 488" transform="translate(-72.377 -5.328)"/>
        <path id="prefix__Path_489" d="M244.8 27.371c1.334 0 2.047-2.212 2.047-4.28s-.713-4.28-2.047-4.28-2.047 2.212-2.047 4.28.718 4.28 2.047 4.28zm0-7.7c.464 0 1.156 1.355 1.156 3.4s-.713 3.4-1.156 3.4-1.156-1.363-1.156-3.4.713-3.417 1.156-3.417z" class="prefix__cls-7" data-name="Path 489" transform="translate(-69.571 -5.362)"/>
        <path id="prefix__Rectangle_254" d="M0 0H3.767V0.892H0z" class="prefix__cls-7" data-name="Rectangle 254" transform="translate(176.831 16.373)"/>
        <path id="prefix__Rectangle_255" d="M0 0H9.816V0.892H0z" class="prefix__cls-7" data-name="Rectangle 255" transform="rotate(-8.86 199.832 -1206.576)"/>
        <path id="prefix__Path_490" d="M247.088 8.457a7.241 7.241 0 0 1-4.352 0A3.51 3.51 0 0 1 240.41 6a3.175 3.175 0 0 1 1.769-3.253 5.244 5.244 0 0 1 3.867-.185 14.361 14.361 0 0 1 3.524 1.5A2.814 2.814 0 0 1 251 .4a6.228 6.228 0 0 1 4.28-.121 18.606 18.606 0 0 1 8 4.28s.478-3.046 2.4-2.725c2.7.449 1.919 16.665 0 17.122s-2.247-4.994-2.247-4.994a8.322 8.322 0 0 1-7.462-5.75 13.062 13.062 0 0 1-6.478 3.032c-1.993.273-3.369-1.182-2.405-2.787z" class="prefix__cls-7" data-name="Path 490" transform="translate(-68.894 .04)"/>
        <path id="prefix__Path_491" d="M278.325 27.059l.885-.15-.21-1.291a1.648 1.648 0 0 1 .977.193l.442-.778a2.461 2.461 0 0 0-2.1-.15l-.328.128z" class="prefix__cls-7" data-name="Path 491" transform="translate(-79.671 -7.055)"/>
        <path id="prefix__Path_492" d="M207.028 124.38c2.183-3.075 4.8-4.8 7.783-5.144 5.515-.635 10.487 3.7 10.537 3.745l.592-.671c-.214-.185-5.322-4.637-11.229-3.959-3.246.371-6.071 2.226-8.411 5.507z" class="prefix__cls-7" data-name="Path 492" transform="translate(-59.125 -33.87)"/>
        <path id="prefix__Path_493" d="M339.638 115.415l.064-.892c-.078 0-7.847-.606-10.651-5.465-1.577-2.747-1.277-6.378.892-10.78l-.8-.4c-2.311 4.687-2.6 8.6-.863 11.628 1.256 2.19 3.624 3.909 6.849 4.994a20.429 20.429 0 0 0 4.509.913z" class="prefix__cls-7" data-name="Path 493" transform="translate(-93.764 -28.023)"/>
        <path id="prefix__Path_494" d="M202.128 313.822h43.432l-4.808-48.882H197.32z" class="prefix__cls-6" data-name="Path 494" transform="translate(-56.551 -75.902)"/>
        <path id="prefix__Path_495" d="M210.3 289.547H223l-1.405-14.3h-12.7z" class="prefix__cls-3" data-name="Path 495" transform="translate(-59.867 -78.857)"/>
        <path id="prefix__Path_496" d="M148.463 142.84H89.65l.778 7.862h58.806z" class="prefix__cls-4" data-name="Path 496" transform="translate(-25.693 -40.909)"/>
        <path id="prefix__Path_497" d="M87.58 121.76l.77 7.826h50.473l-.77-7.826z" class="prefix__cls-4" data-name="Path 497" transform="translate(-25.1 -34.867)"/>
        <path id="prefix__Path_498" d="M133.593 200.35H95.94l.778 7.862h37.653z" class="prefix__cls-4" data-name="Path 498" transform="translate(-27.496 -57.391)"/>
        <path id="prefix__Path_499" d="M93.87 179.27l.77 7.833h57.529l-.77-7.833z" class="prefix__cls-4" data-name="Path 499" transform="translate(-26.903 -51.35)"/>
        <path id="prefix__Path_500" d="M47.824 144.66h20.347l-2.254-22.9H45.57z" class="prefix__cls-6" data-name="Path 500" transform="translate(-13.06 -34.867)"/>
        <path id="prefix__Path_501" d="M53.884 202.17h20.347l-2.254-22.9H51.63z" class="prefix__cls-2" data-name="Path 501" transform="translate(-14.797 -51.35)"/>
        <path id="prefix__Rectangle_256" d="M0 0H26.61V0.892H0z" class="prefix__cls-7" data-name="Rectangle 256" transform="translate(117.255 220.099)"/>
        <path id="prefix__Rectangle_257" d="M0 0H11.857V0.892H0z" class="prefix__cls-7" data-name="Rectangle 257" transform="translate(166.173 200.609)"/>
        <path id="prefix__Rectangle_258" d="M0 0H11.857V0.892H0z" class="prefix__cls-7" data-name="Rectangle 258" transform="translate(166.651 205.417)"/>
        <path id="prefix__Path_502" d="M60.479 87.15H40.14l2.247-22.9h20.346z" class="prefix__cls-2" data-name="Path 502" transform="translate(-11.504 -18.385)"/>
        <path id="prefix__Path_503" d="M49.688 83.53L45.7 69.07l.863-.214 3.4 12.3A128.868 128.868 0 0 1 65.5 58.54l.671.585a128.227 128.227 0 0 0-15.98 23.414z" class="prefix__cls-7" data-name="Path 503" transform="translate(-13.097 -16.749)"/>
        <path id="prefix__Path_504" d="M56.974 140.041L53 125.58l.856-.235 3.4 12.3A129.255 129.255 0 0 1 72.8 115.05l.713.585a127.906 127.906 0 0 0-16.016 23.414z" class="prefix__cls-7" data-name="Path 504" transform="translate(-15.19 -32.944)"/>
        <path id="prefix__Path_505" d="M121.15 85.36H83.81l.77 7.84h37.34z" class="prefix__cls-4" data-name="Path 505" transform="translate(-24.02 -24.435)"/>
        <path id="prefix__Path_506" d="M81.74 64.25l.77 7.847h47.27l-.77-7.847z" class="prefix__cls-4" data-name="Path 506" transform="translate(-23.426 -18.385)"/>
        <path id="prefix__Path_507" d="M351.162 223.571a5.115 5.115 0 0 1-4.623 1.662 4.423 4.423 0 0 1-2.29-7.641 4.937 4.937 0 0 1 4.452-1.127c3.517.856 4.944 4.288 2.461 7.106z" class="prefix__cls-2" data-name="Path 507" transform="translate(-98.246 -61.97)"/>
        <path id="prefix__Path_508" d="M130.865 244.413a7.205 7.205 0 0 1-6.556 2.354 6.549 6.549 0 0 1-5.108-4.637 6.463 6.463 0 0 1 1.862-6.192 7 7 0 0 1 6.314-1.605c5.029 1.212 7.023 6.085 3.488 10.08z" class="prefix__cls-6" data-name="Path 508" transform="translate(-34.113 -67.075)"/>
        <path id="prefix__Path_509" d="M94.231 303.151c7.491-8.86 12.5-20.361 12.427-31.96a22.679 22.679 0 0 0-1.484-8.761 11.05 11.05 0 0 0-6.1-6.207c-3.845-1.391-8.268.157-11.329 2.854S83 264.67 80.926 269.186a94.927 94.927 0 0 0-3.11-19.94c-1.876-6.513-5.3-12.784-10.7-16.908s-12.927-5.757-19.155-3.068c-7.405 3.2-11.372 11.707-11.579 19.776a49 49 0 0 0 5.408 23.464 38.837 38.837 0 0 0-15.338-9.481 14.268 14.268 0 0 0-9.36.285 9.867 9.867 0 0 0-5.429 7.291 20.928 20.928 0 0 0 .713 9.353c2.283 8.361 8.34 17.378 14.7 23.264" class="prefix__cls-6" data-name="Path 509" transform="translate(-3.265 -65.303)"/>
        <path id="prefix__Path_510" d="M94.008 314.651a26.667 26.667 0 0 0 .885-22.187 14.539 14.539 0 0 0-4.223-5.814 9.324 9.324 0 0 0-2-1.2 26.853 26.853 0 0 0-9.37-18.34l-.578.713a25.932 25.932 0 0 1 9.017 17.314 7.483 7.483 0 0 0-4.052-.157 5.928 5.928 0 0 0-4.53 5.45 4.794 4.794 0 0 0 1.717 3.57 4.2 4.2 0 0 0 3.346 1.042 5.194 5.194 0 0 0 3.688-3 10.765 10.765 0 0 0 .828-4.6v-.97a8.561 8.561 0 0 1 1.427.885 13.633 13.633 0 0 1 3.952 5.472 26.1 26.1 0 0 1-.849 21.4zm-6.2-28.579c0 .449.036.906.036 1.363a9.988 9.988 0 0 1-.713 4.216 4.28 4.28 0 0 1-3.046 2.49 3.275 3.275 0 0 1-2.625-.835 3.881 3.881 0 0 1-1.427-2.918 4.994 4.994 0 0 1 3.881-4.573 6.692 6.692 0 0 1 3.895.257z" class="prefix__cls-7" data-name="Path 510" transform="translate(-22.561 -76.524)"/>
        <path id="prefix__Path_511" d="M83.157 270.729a4.63 4.63 0 0 1-4.195 1.505 4.18 4.18 0 0 1-3.267-2.968 4.116 4.116 0 0 1 1.191-3.959 4.452 4.452 0 0 1 4.038-1.027c3.218.777 4.495 3.888 2.233 6.449z" class="prefix__cls-3" data-name="Path 511" transform="translate(-21.662 -75.677)"/>
        <path id="prefix__Path_512" d="M100.409 322.35a39.687 39.687 0 0 0 14.668-28.672l-.778-.328c-7.041 7.534-10.922 17.778-14.589 28.536zm13.69-27.445a38.866 38.866 0 0 1-13.027 25.725c3.332-9.7 6.949-18.812 13.027-25.761z" class="prefix__cls-7" data-name="Path 512" transform="translate(-28.577 -84.045)"/>
        <path id="prefix__Path_513" d="M89.2 328.11l.514-.713c-4.195-5.586-8.425-10.858-14-13.947l-.644.55a24.57 24.57 0 0 0 14.13 14.11zm-12.753-13.148c4.459 2.8 8.069 7.091 11.586 11.714a23.792 23.792 0 0 1-11.586-11.714z" class="prefix__cls-7" data-name="Path 513" transform="translate(-21.515 -89.805)"/>
        <path id="prefix__Path_514" d="M279.175 325.209l.77-.364c-1.184-7.748-2.575-15.2-6.456-21.2l-.813.185a27.494 27.494 0 0 0 6.499 21.379zm-5.75-19.975c3.025 5.229 4.337 11.529 5.393 18.12a26.724 26.724 0 0 1-5.393-18.106z" class="prefix__cls-7" data-name="Path 514" transform="translate(-78.089 -86.997)"/>
        <path id="prefix__Path_515" d="M281.691 319.605a40.821 40.821 0 0 0-3.068-35.035l-.763.457a39.893 39.893 0 0 1 3 34.243z" class="prefix__cls-7" data-name="Path 515" transform="translate(-79.634 -81.528)"/>
        <path id="prefix__Rectangle_259" d="M0 0H272.341V0.892H0z" class="prefix__cls-7" data-name="Rectangle 259" transform="translate(0 237.556)"/>
    </g>
</svg>
