<svg xmlns="http://www.w3.org/2000/svg" width="165" height="49" fill="none" viewBox="0 0 165 49">
    <path fill="#2BA4DC" d="M116.576 48.795H10c-5.523 0-10-4.477-10-10V10C0 4.477 4.477 0 10 0h106.576v48.795z"/>
    <path fill="#fff" d="M26.784 19.325h1.372l3.92 9.94h-1.652l-1.05-2.702h-3.836l-1.036 2.702h-1.666l3.948-9.94zm2.282 6.076l-1.596-4.27-1.652 4.27h3.248zm8.201 4.004c-.588 0-1.106-.14-1.554-.42-.448-.28-.803-.644-1.064-1.092v4.354h-1.54V21.943h1.358v1.316c.28-.439.64-.788 1.078-1.05.448-.261.952-.392 1.512-.392.504 0 .966.103 1.386.308.42.206.784.48 1.092.826.308.346.546.747.714 1.204.177.457.266.938.266 1.442 0 .532-.08 1.031-.238 1.498-.159.457-.383.859-.672 1.204-.29.336-.635.607-1.036.812-.392.196-.826.294-1.302.294zm-.504-1.316c.327 0 .62-.07.882-.21.27-.14.5-.327.686-.56.196-.233.345-.5.448-.798.103-.299.154-.607.154-.924 0-.336-.06-.653-.182-.952-.112-.299-.27-.56-.476-.784-.196-.224-.434-.401-.714-.532-.28-.13-.583-.196-.91-.196-.196 0-.401.038-.616.112-.215.075-.415.177-.602.308-.187.13-.35.285-.49.462-.14.168-.238.355-.294.56v1.918c.093.224.215.434.364.63.15.196.313.364.49.504.187.14.387.252.602.336.215.084.434.126.658.126zm9.295 1.316c-.588 0-1.106-.14-1.554-.42-.448-.28-.803-.644-1.064-1.092v4.354H41.9V21.943h1.358v1.316c.28-.439.64-.788 1.078-1.05.448-.261.952-.392 1.512-.392.504 0 .966.103 1.386.308.42.206.784.48 1.092.826.308.346.546.747.714 1.204.178.457.266.938.266 1.442 0 .532-.08 1.031-.238 1.498-.158.457-.383.859-.672 1.204-.29.336-.635.607-1.036.812-.392.196-.826.294-1.302.294zm-.504-1.316c.327 0 .62-.07.882-.21.27-.14.5-.327.686-.56.196-.233.346-.5.448-.798.103-.299.154-.607.154-.924 0-.336-.06-.653-.182-.952-.112-.299-.27-.56-.476-.784-.196-.224-.434-.401-.714-.532-.28-.13-.583-.196-.91-.196-.196 0-.401.038-.616.112-.215.075-.415.177-.602.308-.187.13-.35.285-.49.462-.14.168-.238.355-.294.56v1.918c.093.224.215.434.364.63.15.196.313.364.49.504.187.14.387.252.602.336.215.084.434.126.658.126zm5.151-9.044h1.54v8.106c0 .27.07.486.21.644.14.15.336.224.588.224.103 0 .22-.018.35-.056.14-.037.27-.08.392-.126l.224 1.204c-.224.103-.49.182-.798.238-.308.066-.583.098-.826.098-.532 0-.947-.144-1.246-.434-.29-.29-.434-.7-.434-1.232v-8.666zm4.299 11.942c.14.028.275.052.406.07.14.019.252.028.336.028.121 0 .224-.028.308-.084.093-.047.186-.135.28-.266.093-.13.186-.317.28-.56.102-.233.219-.537.35-.91l-3.01-7.322h1.582l2.268 5.964 2.016-5.964h1.456l-3.318 9.016c-.15.42-.411.77-.784 1.05-.364.29-.836.434-1.414.434-.112 0-.229-.01-.35-.028-.122-.01-.257-.037-.406-.084v-1.344zm17.046-1.722h-1.54v-4.102c0-.69-.112-1.19-.336-1.498-.215-.317-.537-.476-.966-.476-.224 0-.448.042-.672.126-.224.084-.434.205-.63.364-.196.15-.373.332-.532.546-.15.205-.266.434-.35.686v4.354h-1.54v-7.322h1.4v1.47c.28-.494.686-.882 1.218-1.162.532-.29 1.12-.434 1.764-.434.439 0 .798.08 1.078.238.28.159.5.378.658.658.168.27.285.588.35.952.066.355.098.733.098 1.134v4.466zm5.078.14c-.579 0-1.102-.103-1.568-.308-.458-.205-.85-.48-1.176-.826-.327-.345-.579-.747-.756-1.204-.178-.466-.266-.952-.266-1.456s.088-.985.266-1.442c.177-.466.429-.872.756-1.218.336-.345.732-.62 1.19-.826.466-.205.984-.308 1.554-.308.569 0 1.082.103 1.54.308.466.206.863.48 1.19.826.336.346.592.752.77 1.218.177.457.266.938.266 1.442s-.089.99-.266 1.456c-.178.457-.434.859-.77 1.204-.327.345-.724.62-1.19.826-.458.205-.971.308-1.54.308zm-2.184-3.78c0 .355.056.681.168.98.112.299.266.56.462.784.196.215.424.387.686.518.27.122.56.182.868.182.308 0 .592-.06.854-.182.27-.13.504-.308.7-.532.196-.224.35-.485.462-.784.112-.299.168-.625.168-.98 0-.345-.056-.667-.168-.966-.112-.308-.266-.574-.462-.798-.196-.224-.43-.396-.7-.518-.262-.13-.546-.196-.854-.196-.299 0-.584.066-.854.196-.262.13-.49.308-.686.532-.196.224-.355.49-.476.798-.112.299-.168.62-.168.966zm16.184-3.682h1.47l-3.08 7.322h-1.274l-1.358-3.402-1.358 3.402h-1.274l-3.094-7.322h1.47l2.366 5.838 1.064-2.716-1.274-3.108h1.26l.84 2.296.826-2.296h1.26l-1.26 3.108 1.064 2.716 2.352-5.838z"/>
    <path stroke="#2BA4DC" stroke-width="3" d="M163.5 38.795c0 4.695-3.806 8.5-8.5 8.5h-36.924V1.5H154c5.247 0 9.5 4.253 9.5 9.5v27.795z"/>
    <path fill="#2BA4DC" d="M144.179 22.538h-11.462v2.41h11.462l-5.133 5.172 1.691 1.704 8.019-8.08-8.019-8.081-1.691 1.703 5.133 5.172z"/>
</svg>
