<svg xmlns="http://www.w3.org/2000/svg" xmlns:xlink="http://www.w3.org/1999/xlink" viewBox="0 0 139.15 122.67"><defs><style>.cls-1{isolation:isolate;}.cls-2{fill:#b2ebf2;}.cls-11,.cls-12,.cls-14,.cls-16,.cls-17,.cls-3,.cls-4,.cls-5,.cls-6{mix-blend-mode:overlay;}.cls-3{fill:url(#linear-gradient);}.cls-4{fill:url(#linear-gradient-2);}.cls-5{fill:url(#linear-gradient-3);}.cls-6{fill:url(#linear-gradient-4);}.cls-7{fill:#fff;}.cls-8{fill:#3fccdf;}.cls-9{fill:#f77048;}.cls-10{fill:#a5b7c5;}.cls-11{fill:url(#linear-gradient-5);}.cls-12{fill:url(#linear-gradient-6);}.cls-13{opacity:0.1;}.cls-14,.cls-16{opacity:0.5;}.cls-14{fill:url(#linear-gradient-7);}.cls-15{fill:#1f4b6f;}.cls-16{fill:url(#linear-gradient-8);}.cls-17{fill:url(#linear-gradient-9);}.cls-18{fill:#faa991;}.cls-19{fill:#fcc6b6;}.cls-20{fill:#0e1d73;}</style><linearGradient id="linear-gradient" x1="76.34" y1="42.15" x2="111.32" y2="86" gradientUnits="userSpaceOnUse"><stop offset="0" stop-color="#fff"/><stop offset="0.01" stop-color="#f9f9f9"/><stop offset="0.18" stop-color="#b8b8b8"/><stop offset="0.34" stop-color="gray"/><stop offset="0.49" stop-color="#525252"/><stop offset="0.64" stop-color="#2e2e2e"/><stop offset="0.78" stop-color="#151515"/><stop offset="0.9" stop-color="#050505"/><stop offset="1"/></linearGradient><linearGradient id="linear-gradient-2" x1="66.23" y1="41.05" x2="19.15" y2="99.7" xlink:href="#linear-gradient"/><linearGradient id="linear-gradient-3" x1="62.38" y1="12.96" x2="82.43" y2="12.96" xlink:href="#linear-gradient"/><linearGradient id="linear-gradient-4" x1="62.08" y1="34.58" x2="92.5" y2="34.58" xlink:href="#linear-gradient"/><linearGradient id="linear-gradient-5" x1="-207.16" y1="187.13" x2="-178.09" y2="187.13" gradientTransform="matrix(-0.99, 0.14, 0.14, 0.99, -100.57, -46.59)" gradientUnits="userSpaceOnUse"><stop offset="0" stop-color="#fff"/><stop offset="0.26" stop-color="#c2c2c2"/><stop offset="0.85" stop-color="#292929"/><stop offset="1"/></linearGradient><linearGradient id="linear-gradient-6" x1="179.7" y1="61.37" x2="208.7" y2="61.37" gradientTransform="translate(-50.22 -36.63) rotate(27.88)" xlink:href="#linear-gradient-5"/><linearGradient id="linear-gradient-7" x1="78.2" y1="36.72" x2="89.51" y2="36.72" gradientTransform="matrix(1, 0, -0.23, 0.9, 23.14, 9.77)" xlink:href="#linear-gradient-5"/><linearGradient id="linear-gradient-8" x1="6.61" y1="-11.21" x2="20.34" y2="-11.21" gradientTransform="translate(25.29 39.88) rotate(-8.04)" xlink:href="#linear-gradient-5"/><linearGradient id="linear-gradient-9" x1="52.67" y1="48.7" x2="21.1" y2="99.1" xlink:href="#linear-gradient"/></defs><title>fgjx</title><g class="cls-1"><g id="Layer_2" data-name="Layer 2"><g id="Layer_1-2" data-name="Layer 1"><path class="cls-2" d="M133.28,38c-12.62,7.53-23.93,21-7.76,44.73,6.62,9.67,1.4,21.72-9,30-11.91,9.57-30.66,14.22-46,4.52-2-1.28-3.85-2.45-5.59-3.52-2.88-1.77-5.46-3.31-7.83-4.59h0a34.44,34.44,0,0,0-11.71-4.15c-4-.57-8.21-.23-13.6,1.07-.46.1-1,.24-1.47.37-.87.2-1.77.47-2.71.74-.74.2-1.47.4-2.21.53a22,22,0,0,1-4.22.47,21.43,21.43,0,0,1-4.68-.3C2.28,105.69-7.73,91.23,7.94,73.32A2.68,2.68,0,0,0,8.21,73c11.32-13.39-6-19.35-2.08-35.89C10.35,19.25,29,12.62,44.4,16.87A30.64,30.64,0,0,1,58,24.61a31.84,31.84,0,0,0,4.12,3.61C71.75,35.49,79,31.7,87.35,26.08h0c5.16-3.48,10.68-7.63,17.45-10.31a38.72,38.72,0,0,1,10.58-2.65C137.3,11,145.94,30.5,133.28,38Z"/><path class="cls-2" d="M84.51,13A12.94,12.94,0,1,1,64.59,2,13,13,0,0,1,82.43,5.89,13,13,0,0,1,84.51,13Z"/><path class="cls-3" d="M133.28,38c-12.62,7.53-23.93,21-7.76,44.73,6.62,9.67,1.4,21.72-9,30-5.52-6.93-6.36-17.45-13.39-23-3.91-3.08-8.77-3.92-13.82-3.88a91,91,0,0,0-10.48.8c-6.76.74-13.56,1.14-20.39,1.24-5.72.07-11.55,0-17.07-1.51S30.54,82,27.19,77.33c-2-2.84-3.25-6.42-2.44-9.84s3.61-6.16,6.79-7.73S38.27,57.62,41.75,57C49.86,55.67,58,54.3,66.06,53l4.32-.7c6.39-1.07,12.89-2.18,18.78-4.86s11.31-7.13,13.66-13.19c2.27-5.89,1.67-12.28,2-18.44a38.72,38.72,0,0,1,10.58-2.65C137.3,11,145.94,30.5,133.28,38Z"/><path class="cls-4" d="M89.33,85.94a27.45,27.45,0,0,1-.1,3.28c-.44,5-2.31,10-5.93,13.49a23.12,23.12,0,0,1-7.23,4.42,36,36,0,0,1-19,2.07h0a34.44,34.44,0,0,0-11.71-4.15,28.8,28.8,0,0,1-4-2.78C31.81,94.51,27,81.59,16.14,75.79A30.1,30.1,0,0,0,8.21,73c11.32-13.39-6-19.35-2.08-35.89C10.35,19.25,29,12.62,44.4,16.87A38.92,38.92,0,0,0,44,23.3C44.8,36.19,54.48,46.87,66,53h0a43.17,43.17,0,0,0,4.18,2c3.89,1.64,8,3,11.09,5.79,3.71,3.45,5.25,8.61,6.36,13.56A57.39,57.39,0,0,1,89.33,85.94Z"/><path class="cls-5" d="M66.76,11.78c.47-3.34-.93-6.52-2.17-9.74A13,13,0,0,1,82.43,5.89c-.1,0-.17.14-.27.2a10.18,10.18,0,0,0-3.11,8.21,12.37,12.37,0,0,0,2.78,6.56,12.84,12.84,0,0,1-10.25,5.05,13,13,0,0,1-9.2-3.81C63.48,18.51,66.23,15.47,66.76,11.78Z"/><path class="cls-6" d="M92.47,34.92a8.69,8.69,0,0,1-1.67,5.15c-1.57,1.84-4.19,2.38-6.56,2.68A29.15,29.15,0,0,1,74,42.52a14.42,14.42,0,0,1-8.5-5.39,17.85,17.85,0,0,1-2.21-4.46,25.44,25.44,0,0,1-1.2-4.45C71.75,35.49,79,31.7,87.35,26.08h0c.34.23.67.5,1,.74a12.73,12.73,0,0,1,3,2.67A9,9,0,0,1,92.47,34.92Z"/><path class="cls-7" d="M125.52,34c-5.23,2.58-8.74,4.89-10.45,6.87a29.48,29.48,0,0,0-5.36,9.57L93.28,113.76l-28.36,0c-13.22-8.2-19.58-11-33.18-7.67l13.7-55.33q3.21-9.65,6.32-12.29c1.91-2,5.8-3.68,11.62-4.92Z"/><path class="cls-8" d="M55.84,43.57H72.92L71.73,48.4H54.65Z"/><path class="cls-8" d="M52.72,56.25h30l-1.08,4.4h-30Z"/><path class="cls-8" d="M50.63,64.77H91.45l-1.08,4.41H49.54Z"/><path class="cls-8" d="M48.51,73.37H84.07L83,77.78H47.43Z"/><path class="cls-8" d="M46.21,82.74H87L86,87.15H45.13Z"/><path class="cls-9" d="M60,106.44h0a10.4,10.4,0,0,1,4.58-4h0c1.56-.75,2.61-1.22,3.16-1.41l-.06,0q.71-.35,9.17-3.31h0c1.35-.52,2.11-.82,2.26-.91h0a.45.45,0,0,0-.19.62l0-.07a.36.36,0,0,0,0,.11.53.53,0,0,1,.22-.7h0a.61.61,0,0,0,.19-.12h0a.37.37,0,0,0,0,.49h0a.4.4,0,0,0,.2.19h0a3,3,0,0,0-.75,0h0a21.17,21.17,0,0,0-4,.81h0C72,98.9,70.43,100,70,101.48v-.06c-.22,1.18.37,1.9,1.78,2.17h0l.52.07h0q2.9.28,13.87-5.68a.53.53,0,1,1,.51.92h0Q75.38,105,72.17,104.71h0a5.4,5.4,0,0,1-.6-.09h0c-2.1-.39-3-1.53-2.62-3.4,0,0,0,0,0-.06h0q.87-2.75,5.52-4h0a21.62,21.62,0,0,1,4.24-.84h0a3.74,3.74,0,0,1,1.1,0h0a.67.67,0,0,1,.43.33h0a.58.58,0,0,1-.17.78h0a1.91,1.91,0,0,1-.41.28l.23-.7s0,.07,0,.11l0-.06a.51.51,0,0,1-.27.68h0c-.2.11-1,.44-2.42,1h0q-8.4,2.94-9.06,3.26l-.06,0h0c-.51.17-1.52.62-3,1.35h0a9.41,9.41,0,0,0-4.13,3.6.52.52,0,0,1-.72.18A.54.54,0,0,1,60,106.44Z"/><path class="cls-10" d="M102.57,120.06a7.37,7.37,0,0,1,3.07-1.9,54.76,54.76,0,0,1,8.65-2.49,26.89,26.89,0,0,1,4.65-.64c2.41,0,7-3.32,9.38-5.17.94-.75,1.55-1.26,1.55-1.26s-7.31-3.48-14.53-2.09c-6,1.16-10.84,9.73-12.3,12.6C102.73,119.71,102.57,120.06,102.57,120.06Z"/><path class="cls-7" d="M102.21,120.35a.45.45,0,0,0,.64.06h0c.89-.77,1.83-1.51,2.77-2.24.43-.33.86-.66,1.3-1,1.4-1,2.83-2,4.3-2.92a40.21,40.21,0,0,1,4.57-2.46c.44-.19.87-.38,1.31-.55a16.82,16.82,0,0,1,3.61-1,.15.15,0,0,0,.13-.16.16.16,0,0,0-.17-.14,16.12,16.12,0,0,0-2.85.64c-.75.24-1.48.51-2.21.8a39.56,39.56,0,0,0-4.69,2.36c-1.52.87-3,1.82-4.43,2.82-1.18.82-2.33,1.66-3.47,2.54l-.76.6A.46.46,0,0,0,102.21,120.35Z"/><path class="cls-11" d="M102.21,120.35a.45.45,0,0,0,.64.06h0c.89-.77,1.83-1.51,2.77-2.24a54.76,54.76,0,0,1,8.65-2.49c.15-.21.29-.42.43-.64a24.46,24.46,0,0,1,2.4-3.78,6.72,6.72,0,0,1,.61-.58l.11-.08a9.19,9.19,0,0,1,5-1.57,10,10,0,0,1,5.43.84c.94-.75,1.55-1.26,1.55-1.26s-7.31-3.48-14.53-2.09c-6,1.16-10.84,9.73-12.3,12.6l-.76.6A.46.46,0,0,0,102.21,120.35Z"/><path class="cls-10" d="M102.53,119.94a7.4,7.4,0,0,0-2.23-2.82A54.07,54.07,0,0,0,93,111.83a26.45,26.45,0,0,0-4.13-2.2c-2.25-.84-5.41-5.49-7-8l-1-1.71s8-.77,14.34,3c5.22,3.14,6.82,12.82,7.21,16C102.5,119.56,102.53,119.94,102.53,119.94Z"/><path class="cls-7" d="M102.76,120.34a.45.45,0,0,1-.62-.16h0c-.57-1-1.2-2-1.83-3l-.88-1.37c-1-1.43-2-2.84-3-4.2a39.43,39.43,0,0,0-3.44-3.88l-1-1a17.15,17.15,0,0,0-3-2.17.15.15,0,0,1,.14-.26,15.78,15.78,0,0,1,2.46,1.57c.62.48,1.21,1,1.79,1.51a38.16,38.16,0,0,1,3.59,3.82C98,112.51,99,113.9,100,115.33c.82,1.17,1.62,2.35,2.38,3.57l.51.82A.45.45,0,0,1,102.76,120.34Z"/><path class="cls-12" d="M102.76,120.34a.45.45,0,0,1-.62-.16h0c-.57-1-1.2-2-1.83-3A54.07,54.07,0,0,0,93,111.83c-.06-.25-.13-.5-.18-.75a24.47,24.47,0,0,0-1-4.37,5.79,5.79,0,0,0-.37-.75.41.41,0,0,1-.07-.11,9.26,9.26,0,0,0-4.2-3.2,9.85,9.85,0,0,0-5.38-1.06l-1-1.71s8-.77,14.34,3c5.22,3.14,6.82,12.82,7.21,16l.51.82A.45.45,0,0,1,102.76,120.34Z"/><path class="cls-9" d="M112,92.1a8.07,8.07,0,0,1,.15,5.59,23.7,23.7,0,0,1,4.76-4.34c-2.18-4.45-7-4.36-7.48-7.59-.25-1.79,6.06-4,8.22.74a8.87,8.87,0,0,1,0,6.32c1.4-.95,2.92-1.87,4.52-2.84-1-4.21-5.21-5-5-7.88.12-1.58,5.92-2.28,6.89,2.16a7.57,7.57,0,0,1-1,5.19q1.72-1,3.57-2.19c1.52-3.85-.74-7.25,1.39-9.26,1.27-1.19,6.51,2.54,4,6.88a8.5,8.5,0,0,1-4.88,3.52c-1.2.75-2.36,1.46-3.49,2.14a6.46,6.46,0,0,1,3.35,0c4.36,1.31,3.22,7,1.63,7-2.84,0-3.35-4.21-7.46-5.57a54.43,54.43,0,0,0-4.72,3.17,9,9,0,0,1,6.46.28c4.63,2.38,2.15,8.58.36,8.25-3.27-.61-2.87-5.64-7.51-8a15.88,15.88,0,0,0-4.54,5.71c1.09-.72,3.65-2.12,6.31-1.53,4.82,1.06,4.06,7.34,2.34,7.47-3.14.24-4-4.48-8.84-5.48a15.59,15.59,0,0,0-.86,2.85,37.41,37.41,0,0,1-1.36,5,6.85,6.85,0,0,1,4.63-1.19c4,.65,3.72,5.91,2.3,6.1-2.52.34-3.48-3.3-7.23-4.07a40.69,40.69,0,0,1-3,6.34,4.67,4.67,0,0,1,2.64-.42c3.13.5,2.87,4.56,1.77,4.71-1.84.24-2.61-2.27-5.16-3-.7,1.11-1.19,1.75-1.25,1.83a.62.62,0,0,1-.82.14l-.05,0a.62.62,0,0,1-.11-.87,32.78,32.78,0,0,0,2.24-3.54c-1.8-2.55-4.77-1.91-5.41-3.82-.35-1.05,3.18-3.07,5-.48a5.35,5.35,0,0,1,.73,3.69,40.17,40.17,0,0,0,3.07-7.45c-2.32-3.38-6.23-2.52-7.06-5-.45-1.36,4.13-4,6.5-.61a6.4,6.4,0,0,1,1,4c.12-.49.23-1,.33-1.48a15.52,15.52,0,0,1,2.38-5.76c-2-4.38-6.72-4.29-7.15-7.38C103.93,89.69,109.91,87.62,112,92.1Z"/><g class="cls-13"><path d="M32.24,27.39l-1.18,2.46-.67,1.42a3.66,3.66,0,0,0,.18,3.45,3.57,3.57,0,0,0,1.56,1.41l5,2.39a3.78,3.78,0,0,0,2.55.24,3.72,3.72,0,0,0,2.33-2l1.82-3.87,2.92.19h0c-.42,1-.85,1.89-1.24,2.66-1,2-1.68,3.43-.82,4.39a.58.58,0,0,0,.32.69l.91.44a.73.73,0,0,0,.35.05.61.61,0,0,0,.17-1.16l-.91-.43a.66.66,0,0,0-.34,0,.56.56,0,0,0-.26.11c-.53-.74,0-1.86,1-3.86.39-.79.84-1.7,1.26-2.74a.16.16,0,0,0,0-.1h0a.52.52,0,0,0,.22-.85L43.5,28.07l-2.81-3a.57.57,0,0,0-.35-.18L38,24.73l-5.64-.4-1.83-.11a.51.51,0,0,0-.41.87Z"/><path d="M63.85,102.91,63.18,100l-.74-3.08a19.89,19.89,0,0,0-3-7L58.13,88,43.26,65.58c.1-.13.13-.23.2-.33l0-.2,0-.17,0-.2-.07-.2a1,1,0,0,0-.2-.37l-.17-.2a3.66,3.66,0,0,0-.33-.37c-.54-.47-.91-.7-1.11-.7,0,0,0,.1,0,.2v.07L38,57.72l-3.55-5.39-.6-.87-1-1.48-2.11-3.21c-3.65-5.46-13,.77-9.38,6.23l2.18,3.31.77,1.14h0a5.77,5.77,0,0,0-2.48.8,1.13,1.13,0,0,0-.57.57,1,1,0,0,0,0,.64h-.14l-1,0c-.2,0-.3,0-.33.07a1.07,1.07,0,0,0-.67.4,3.07,3.07,0,0,0-.67,2.31,2.38,2.38,0,0,0,.7,1.17c-.06,1.24.14,2,.54,2.34a2.51,2.51,0,0,0,1,.54l.61.17a2.83,2.83,0,0,1-.14.77c-.17.06-.33.06-.5.13C18.55,68,17.45,68.5,17.25,69h0v0a.1.1,0,0,0,0,.07v.07a17,17,0,0,0-1,5.72v.94c0,2.17.24,5.89.7,11.18l.51.1a14.37,14.37,0,0,0-.24,3.38,68.84,68.84,0,0,0,1.31,8.87l-2,8.57a21.43,21.43,0,0,0,4.68.3,60,60,0,0,0,3.15-9,22.43,22.43,0,0,0,.47-2.45c.33.91.7,1.81,1,2.72l-.44,8.26c.74-.13,1.47-.33,2.21-.53.94-.27,1.84-.54,2.71-.74a58.94,58.94,0,0,0,1.17-8.17,25.72,25.72,0,0,0-.77-8.1,32.9,32.9,0,0,0-1.07-3.51c.07,0,.14,0,.2-.07a65.08,65.08,0,0,1-1.2-7.57c0-.46-.07-.87-.07-1.23a6.59,6.59,0,0,1,0-.77,5.29,5.29,0,0,0,3.18,1.17,4.75,4.75,0,0,0,2.21-.57,10.11,10.11,0,0,0,2.48-2.11L44,87.08l6,9a22.44,22.44,0,0,0,5.25,5.53l1.14.8L58,103.51l4.72,3.42a1.11,1.11,0,0,0,1.24.06,1.15,1.15,0,0,0,.57-1c0-.13,0-.23,0-.36ZM24.45,66.52a7.09,7.09,0,0,0,.73-4.18A1.74,1.74,0,0,0,26,62a2.2,2.2,0,0,0,.44-.63,3.73,3.73,0,0,0,.17-.64l.63.94-.4,1.77-.67,3-1.07.1a7.21,7.21,0,0,0-.77.06A.48.48,0,0,0,24.45,66.52Zm8.6,7.06L28.8,69.87a9.75,9.75,0,0,0,1.14-4.05l4.35,6.56Z"/></g><polygon class="cls-8" points="97.47 48.06 96.24 49.81 90.29 58.25 90.29 55.47 87.24 57.02 93.14 48.64 94.42 46.83 97.47 48.06"/><polygon class="cls-8" points="103.44 57.02 101.17 55.47 99.73 58.25 98.11 49.81 97.77 48.06 101.47 46.83 101.81 48.63 103.44 57.02"/><path class="cls-9" d="M106.56,43a9.37,9.37,0,0,1-4.74,5.66A6.69,6.69,0,0,1,101,49a10.46,10.46,0,0,1-2.92.79c-.3,0-.63,0-.92,0a9,9,0,0,1-.91,0,6.81,6.81,0,0,1-3.12-1.17,4.93,4.93,0,0,1-1.36-1.55,4.76,4.76,0,0,1-.66-2.15,5.84,5.84,0,0,1,.17-2,9,9,0,0,1,3.4-4.79,9.91,9.91,0,0,1,6-2.11A6.25,6.25,0,0,1,105.43,38a4.88,4.88,0,0,1,1,1.73A5.59,5.59,0,0,1,106.56,43Z"/><path class="cls-7" d="M104,43a6.66,6.66,0,0,1-6.25,4.59c-2.81,0-4.55-2.05-3.9-4.59a6.64,6.64,0,0,1,6.25-4.58C102.91,38.39,104.65,40.44,104,43Z"/><path class="cls-9" d="M99.91,40.63l.15,1.43a.18.18,0,0,0,.19.15h1.67c.23,0,.26.28,0,.41l-1.57.88a.28.28,0,0,0-.16.25l.15,1.42a.29.29,0,0,1-.44.25l-1.12-.88a.25.25,0,0,0-.29,0L97,45.42c-.23.13-.44,0-.32-.25l.88-1.42a.17.17,0,0,0,0-.25l-1.11-.88c-.16-.13,0-.41.24-.41h1.66a.35.35,0,0,0,.28-.15l.88-1.43C99.57,40.43,99.89,40.43,99.91,40.63Z"/><path class="cls-14" d="M101.49,42.08a4.45,4.45,0,0,0-.67,1.47c-.2,1.13.65,2,.83,3.13A3.56,3.56,0,0,1,101,49a10.46,10.46,0,0,1-2.92.79c-.3,0-.63,0-.92,0a9,9,0,0,1-.91,0,6.81,6.81,0,0,1-3.12-1.17,4.93,4.93,0,0,1-1.36-1.55,12.55,12.55,0,0,0,3.55-1.17c1.6-.86,3-2.56,2.59-3.92S96,40.27,95.21,39.25a2.77,2.77,0,0,1-.52-1.06,9.91,9.91,0,0,1,6-2.11A6.25,6.25,0,0,1,105.43,38l-.31.22A17.33,17.33,0,0,0,101.49,42.08Z"/><path class="cls-15" d="M44.69,26.79l-.78,1.6-1.82,3.87A3.6,3.6,0,0,1,37.21,34L32.16,31.6a3.61,3.61,0,0,1-1.56-1.4,3.68,3.68,0,0,1-.18-3.46l.67-1.42,1.18-2.45L33,21.41v0l.08-.14,5.33,2.54,2.78,1.32Z"/><path class="cls-9" d="M47.25,28.58a.31.31,0,0,1-.19,0l-.23,0-2.92-.2-4.62-.31-2.08-.14a.57.57,0,0,1-.35-.18L36,26.88,33.52,24.2l-1.25-1.33-2.16-2.31a.51.51,0,0,1,.41-.87l1.83.12,5.64.4,2.38.15a.57.57,0,0,1,.35.18l2.81,3,3.94,4.19A.51.51,0,0,1,47.25,28.58Z"/><path class="cls-15" d="M47.25,28.58a.2.2,0,0,1,0,.11c-.42,1-.87,1.94-1.26,2.74-1,2-1.49,3.12-1,3.85a1.24,1.24,0,0,0,.3.31.2.2,0,0,1,0,.28.22.22,0,0,1-.14.09.18.18,0,0,1-.15-.05,1.5,1.5,0,0,1-.29-.27c-.86-1-.17-2.36.82-4.39.39-.78.82-1.66,1.24-2.66,0,0,0,0,0-.06a.22.22,0,0,1,.28-.11A.23.23,0,0,1,47.25,28.58Z"/><path class="cls-9" d="M46.82,36.47a.6.6,0,0,1-.46.34.63.63,0,0,1-.35-.05l-.91-.44a.58.58,0,0,1-.32-.68.27.27,0,0,1,0-.12.62.62,0,0,1,.47-.34.57.57,0,0,1,.34,0l.91.43A.61.61,0,0,1,46.82,36.47Z"/><path class="cls-16" d="M43.53,23.55a9,9,0,0,0-2.39,1.56,6,6,0,0,0-1.85,3,.61.61,0,0,0,0,.18c-.4,2,.41,4,.52,6A3.72,3.72,0,0,1,37.21,34L32.16,31.6a3.61,3.61,0,0,1-1.56-1.4l.19-.12a6.4,6.4,0,0,0,2.51-3.69,7.62,7.62,0,0,0,.22-2.19,8.57,8.57,0,0,0-.38-2.29,2.7,2.7,0,0,0-.18-.5v0a15.08,15.08,0,0,0-.6-1.58l5.64.4,2.38.15a.57.57,0,0,1,.35.18Z"/><path class="cls-9" d="M26.16,62l2.43-11,1.42.29c.08,1.86.13,3.66.15,5.41.07,4.72-.44,7.71-1.52,9a3.57,3.57,0,0,1-1.91,1.24,7,7,0,0,1-2.52.14,27.28,27.28,0,0,1-5.05-1.11,5.62,5.62,0,0,1-1.61-.77,1,1,0,0,1-.33-.4v-.21c.12-.52,1.27-1.09,3.44-1.7A20.62,20.62,0,0,1,26.16,62"/><path class="cls-15" d="M21.45,48.48l2.19,3.3L50.08,91.61a21.53,21.53,0,0,0,5.28,5.49l1.11.83L58,99l4.72,3.43a1.19,1.19,0,0,0,1.84-1.28L63.2,95.46l-.73-3.08a20.34,20.34,0,0,0-3-7L33.93,47l-1-1.48-2.13-3.21C27.19,36.79,17.82,43,21.45,48.48Z"/><path class="cls-9" d="M63.22,95.48A8,8,0,0,0,58,99l4.74,3.42a1.16,1.16,0,0,0,1.83-1.22Z"/><path class="cls-7" d="M33,45.47a11.78,11.78,0,0,0-5.36,2,10.72,10.72,0,0,0-3.95,4.31L25.14,54a10.46,10.46,0,0,1,3.93-4.24,12,12,0,0,1,4.37-1.9c.37,0,.69-.09,1.07-.09L33.93,47Z"/><path class="cls-17" d="M21.45,48.48l2.19,3.3L50.08,91.61a21.53,21.53,0,0,0,5.28,5.49l1.11.83a12.3,12.3,0,0,0,.15-3.73,20.76,20.76,0,0,0-4.56-9.78C45.92,76.49,36.86,70.75,32.6,61.7a12.19,12.19,0,0,1-1.34-4.48A13.7,13.7,0,0,1,32,52.34a23.7,23.7,0,0,1,1.42-4.44c.14-.35.36-.68.49-.95l-1-1.48-2.13-3.21C27.19,36.79,17.82,43,21.45,48.48Z"/><path class="cls-15" d="M24.75,115.77l2,.63c2.21-8.26,4.42-16.51,4.76-22.6s-1.21-10-2.76-14l-6.12.91a17.51,17.51,0,0,0,.3,5.72A66.74,66.74,0,0,0,25.82,95Z"/><path class="cls-15" d="M13.67,115.09l1.84,1c3.68-7.71,7.36-15.42,8.8-21.35s.63-10.07-.17-14.21L18,80.29A17.51,17.51,0,0,0,17.2,86a69.16,69.16,0,0,0,1.32,8.88Z"/><path class="cls-9" d="M17,82.49l.56.1a33.27,33.27,0,0,0,6.42.65,22.74,22.74,0,0,0,5.92-1.13,57.88,57.88,0,0,1-1.3-8.8,26.2,26.2,0,0,1,.71-6.67q-3.47-2.9-5.63-3.17a14.34,14.34,0,0,0-6.37,1,16.68,16.68,0,0,0-1,5.89q-.11,2.84.72,12.11"/><path class="cls-9" d="M28.1,64.69l5,4.38,8-7.9,1,1c-2.69,4.74-5.38,9.47-8.19,11a4.71,4.71,0,0,1-2.21.56A5.31,5.31,0,0,1,27.2,71C26.21,69,27.15,66.84,28.1,64.69Z"/><path class="cls-18" d="M20.2,64.15a3.46,3.46,0,0,0,.94-1.27,6.55,6.55,0,0,0,.21-2l2.1.25A4.5,4.5,0,0,0,23.31,63a2.44,2.44,0,0,0,.86,1.18,6.37,6.37,0,0,1-1.93.45h0A6.59,6.59,0,0,1,20.2,64.15Z"/><path class="cls-19" d="M19.8,56.21l.52,4.8c1.13.77,2.25,1.54,3.14,1.52a1.21,1.21,0,0,0,1-.53c.91-1.21,1.1-4.75.21-6.1a1.64,1.64,0,0,0-1.5-.71A10.48,10.48,0,0,0,19.8,56.21Z"/><path class="cls-19" d="M41.12,61.22l0-.18a8,8,0,0,1-.21-.95,1,1,0,0,1,0-.38c0-.07,0-.09.12-.07l.09,0,.35.22c.1,0,.15.06.17.05a.22.22,0,0,0,.2-.11.83.83,0,0,0,.08-.48A2.33,2.33,0,0,0,41.8,59l-.17-.54c0-.1,0-.16,0-.19.19,0,.57.23,1.11.72a3.89,3.89,0,0,1,.34.36l.14.19a2.08,2.08,0,0,1,.22.38l.06.2,0,.19,0,.18-.05.18a1.33,1.33,0,0,1-.19.35l-.13.17a3.28,3.28,0,0,1-.31.34q-.36.33-.78.66l-1-1"/><path class="cls-8" d="M24.81,115.34a4.48,4.48,0,0,0-.61,1.19,3.08,3.08,0,0,0,0,1.21l6.22.17c.39-.26.77-.51.2-.9A21.45,21.45,0,0,0,27,115.6a2.91,2.91,0,0,1-1,.29h-.11A2.5,2.5,0,0,1,24.81,115.34Z"/><path class="cls-8" d="M13.75,114.72a4.21,4.21,0,0,0-.61,1.19,3,3,0,0,0,0,1.22l6.22.16c.38-.25.77-.51.2-.9A21.81,21.81,0,0,0,16,115a3,3,0,0,1-1,.29h-.11A2.5,2.5,0,0,1,13.75,114.72Z"/><path class="cls-20" d="M21.29,54.93h-.12l-1.05,0a2,2,0,0,0-.33,0,1.36,1.36,0,0,0-.67.4,3.1,3.1,0,0,0-.68,2.33,2.44,2.44,0,0,0,.71,1.18c-.06,1.21.13,2,.55,2.33a2.5,2.5,0,0,0,1,.53,14.77,14.77,0,0,0,1.91.42A1.48,1.48,0,0,0,22.93,61s-.07-.14-.22-.31c0,0-.31-.25-.89-.69a2.3,2.3,0,0,1-.32-.34,1,1,0,0,1-.17-.84c.06-.17.2-.2.43-.1a2.48,2.48,0,0,1,.34.25l.55.5c.14.11.21.15.23.13a.19.19,0,0,0,0-.15,4,4,0,0,1-.09-.93A.58.58,0,0,1,23.1,58a.89.89,0,0,1,.41-.09,8,8,0,0,0,1.56,0,1.64,1.64,0,0,0,.9-.37,1.88,1.88,0,0,0,.45-.64,3.58,3.58,0,0,0,.2-.7,4.31,4.31,0,0,0,0-1.56,2.88,2.88,0,0,0-.24-.7,1.81,1.81,0,0,0-.49-.62,2.18,2.18,0,0,0-1.49-.35,5.81,5.81,0,0,0-2.47.79,1.38,1.38,0,0,0-.58.57,1.17,1.17,0,0,0,0,.64"/></g></g></g></svg>