<?xml version="1.0" encoding="UTF-8"?>
<svg xmlns="http://www.w3.org/2000/svg" xmlns:xlink="http://www.w3.org/1999/xlink" width="24pt" height="24pt" viewBox="0 0 24 24" version="1.1">
<g id="surface1">
<path style=" stroke:none;fill-rule:nonzero;fill:rgb(0%,0%,0%);fill-opacity:1;" d="M 19.332031 2 L 16 2 L 16 0.667969 C 16 0.296875 15.703125 0 15.332031 0 L 8.667969 0 C 8.296875 0 8 0.296875 8 0.667969 L 8 2 L 4.667969 2 C 3.5625 2 2.667969 2.894531 2.667969 4 L 2.667969 22 C 2.667969 23.105469 3.5625 24 4.667969 24 L 19.332031 24 C 20.4375 24 21.332031 23.105469 21.332031 22 L 21.332031 4 C 21.332031 2.894531 20.4375 2 19.332031 2 Z M 9.332031 1.332031 L 14.667969 1.332031 L 14.667969 2.667969 L 9.332031 2.667969 Z M 19.332031 22 L 4.667969 22 L 4.667969 4 L 19.332031 4 Z M 19.332031 22 "/>
<path style=" stroke:none;fill-rule:nonzero;fill:rgb(0%,0%,0%);fill-opacity:1;" d="M 9.527344 5.839844 L 7.644531 7.722656 L 6.699219 6.78125 L 5.757812 7.722656 L 7.644531 9.609375 L 10.472656 6.78125 Z M 9.527344 5.839844 "/>
<path style=" stroke:none;fill-rule:nonzero;fill:rgb(0%,0%,0%);fill-opacity:1;" d="M 11.332031 6 L 18 6 L 18 7.332031 L 11.332031 7.332031 Z M 11.332031 6 "/>
<path style=" stroke:none;fill-rule:nonzero;fill:rgb(0%,0%,0%);fill-opacity:1;" d="M 11.332031 8.667969 L 15.332031 8.667969 L 15.332031 10 L 11.332031 10 Z M 11.332031 8.667969 "/>
<path style=" stroke:none;fill-rule:nonzero;fill:rgb(0%,0%,0%);fill-opacity:1;" d="M 9.527344 11.171875 L 7.644531 13.058594 L 6.699219 12.113281 L 5.757812 13.058594 L 7.644531 14.941406 L 10.472656 12.113281 Z M 9.527344 11.171875 "/>
<path style=" stroke:none;fill-rule:nonzero;fill:rgb(0%,0%,0%);fill-opacity:1;" d="M 11.332031 11.332031 L 18 11.332031 L 18 12.667969 L 11.332031 12.667969 Z M 11.332031 11.332031 "/>
<path style=" stroke:none;fill-rule:nonzero;fill:rgb(0%,0%,0%);fill-opacity:1;" d="M 11.332031 14 L 15.332031 14 L 15.332031 15.332031 L 11.332031 15.332031 Z M 11.332031 14 "/>
<path style=" stroke:none;fill-rule:nonzero;fill:rgb(0%,0%,0%);fill-opacity:1;" d="M 9.527344 16.503906 L 7.644531 18.390625 L 6.699219 17.449219 L 5.757812 18.390625 L 7.644531 20.277344 L 10.472656 17.449219 Z M 9.527344 16.503906 "/>
<path style=" stroke:none;fill-rule:nonzero;fill:rgb(0%,0%,0%);fill-opacity:1;" d="M 11.332031 16.667969 L 18 16.667969 L 18 18 L 11.332031 18 Z M 11.332031 16.667969 "/>
<path style=" stroke:none;fill-rule:nonzero;fill:rgb(0%,0%,0%);fill-opacity:1;" d="M 11.332031 19.332031 L 15.332031 19.332031 L 15.332031 20.667969 L 11.332031 20.667969 Z M 11.332031 19.332031 "/>
</g>
</svg>
