<svg xmlns="http://www.w3.org/2000/svg" xmlns:xlink="http://www.w3.org/1999/xlink" width="193" height="285" viewBox="0 0 193 285"><defs><clipPath id="a"><rect width="193" height="285" transform="translate(286.009)" fill="#fff"/></clipPath></defs><g transform="translate(-286.009)"><g transform="translate(0)" clip-path="url(#a)"><g transform="translate(285.596 -26.906)"><rect width="152.708" height="160.902" transform="matrix(0.731, 0.682, -0.682, 0.731, 109.735, 178.296)" fill="#f83c1e"/><rect width="196.882" height="160.902" transform="matrix(0.731, 0.682, -0.682, 0.731, 169.699, 24.537)" fill="#2c99b0"/><path d="M109.734,159.409a3.741,3.741,0,0,1,1.883-4.944,74.211,74.211,0,0,0,29.2-23.5,3.741,3.741,0,0,1,4.5-1.2,18.945,18.945,0,0,0,17-33.8,3.741,3.741,0,0,1,1.166-6.917A41.15,41.15,0,1,0,123.946,22.5a3.739,3.739,0,0,1-4.886.857A73.939,73.939,0,0,0,7.481,86.984q0,1.457.056,2.906a3.741,3.741,0,1,1-7.476.289Q0,88.585,0,86.985a81.426,81.426,0,0,1,120.217-71.57,48.632,48.632,0,1,1,52.009,78.974,26.43,26.43,0,0,1-27.114,43.263,81.669,81.669,0,0,1-30.435,23.64,3.738,3.738,0,0,1-4.944-1.882Z" transform="matrix(0.999, -0.035, 0.035, 0.999, 0.19, 7.699)" fill="#d0e215"/><path d="M1.223,142.5A3.562,3.562,0,1,1,5.9,137.123,74.084,74.084,0,1,0,20.783,15.243,3.562,3.562,0,0,1,17.532,8.9,81.232,81.232,0,1,1,1.223,142.5Z" transform="translate(142.178 0)" fill="#e95272"/><rect width="152.708" height="58.661" transform="matrix(0.731, 0.682, -0.682, 0.731, 147.307, 174.3)" fill="#f6b800"/><circle cx="29.687" cy="29.687" r="29.687" transform="translate(0.757 126.596)" fill="#423783"/><circle cx="3.325" cy="3.325" r="3.325" transform="translate(55.849 182.514)" fill="#2c99b0"/><path d="M37.88,20.337A2.019,2.019,0,1,1,39.9,22.355,2.019,2.019,0,0,1,37.88,20.337Zm-17.931,0a2.019,2.019,0,1,1,2.019,2.019A2.019,2.019,0,0,1,19.95,20.337Zm-17.931,0a2.019,2.019,0,1,1,2.019,2.019A2.019,2.019,0,0,1,2.019,20.337Zm53.766-.01A2.019,2.019,0,1,1,57.8,22.346,2.019,2.019,0,0,1,55.784,20.327ZM0,5.375A4.037,4.037,0,1,1,4.037,9.412,4.037,4.037,0,0,1,0,5.375ZM34.309,4.059A4.037,4.037,0,1,1,38.346,8.1a4.037,4.037,0,0,1-4.037-4.037Zm-18.168,0A4.037,4.037,0,1,1,20.178,8.1,4.037,4.037,0,0,1,16.14,4.059Zm37.625-.022A4.037,4.037,0,1,1,57.8,8.075a4.037,4.037,0,0,1-4.037-4.037Z" transform="translate(167.323 128.384) rotate(-45)" fill="#ffeaab"/></g></g></g></svg>