<svg xmlns="http://www.w3.org/2000/svg" width="146" height="110" viewBox="0 0 146 110"><g transform="translate(-1170.5 -2746)"><line x2="27" transform="translate(1289.5 2755.5)" fill="none" stroke="#302ea7" stroke-width="5"/><line x2="27" transform="translate(1170.5 2847.5)" fill="none" stroke="#302ea7" stroke-width="5"/><path d="M102.435,2a9.571,9.571,0,0,0-9.248,7.174H35.478A19.168,19.168,0,0,0,16.927,23.708a9.547,9.547,0,0,0-.458,18.654A19.171,19.171,0,0,0,35.478,59.391H78.522a14.3,14.3,0,0,1,13.7,10.079,9.546,9.546,0,0,0,.486,18.262,14.294,14.294,0,0,1-14.189,12.311H20.813a9.565,9.565,0,1,0,0,4.783H78.522A19.17,19.17,0,0,0,97.531,87.8a9.551,9.551,0,0,0-.467-18.663A19.151,19.151,0,0,0,78.522,54.609H35.478a14.3,14.3,0,0,1-14.189-12.3,9.559,9.559,0,0,0,.486-18.281,14.308,14.308,0,0,1,13.7-10.07h57.7A9.563,9.563,0,1,0,102.435,2Z" transform="translate(1187 2744)" fill="#302ea7"/></g></svg>