<svg xmlns="http://www.w3.org/2000/svg" width="215" height="141" fill="none" viewBox="0 0 215 141">
    <rect width="215" height="98" fill="#F89920" rx="12"/>
    <path fill="#fff" d="M43.825 40.436v-3.852h8.136V62h-4.32V40.436h-3.816zm12.444 8.676c0 4.056.72 7.236 2.16 9.54 1.44 2.28 3.84 3.42 7.2 3.42 3.36 0 5.76-1.152 7.2-3.456 1.44-2.304 2.16-5.472 2.16-9.504 0-4.008-.72-7.152-2.16-9.432-1.44-2.304-3.84-3.456-7.2-3.456-3.36 0-5.76 1.14-7.2 3.42-1.44 2.28-2.16 5.436-2.16 9.468zm14.616 0c0 2.928-.36 5.172-1.08 6.732-.72 1.56-2.113 2.34-4.177 2.34-2.087 0-3.492-.78-4.212-2.34-.72-1.56-1.08-3.804-1.08-6.732 0-2.904.36-5.124 1.08-6.66.72-1.536 2.125-2.304 4.213-2.304 2.063 0 3.456.78 4.175 2.34.72 1.536 1.08 3.744 1.08 6.624zm10.945 10.08c.432 1.104.648 2.244.648 3.42 0 1.344-.348 2.436-1.044 3.276-.696.864-1.752 1.296-3.168 1.296v-1.656c.6 0 1.044-.156 1.332-.468.288-.312.432-.84.432-1.584v-.324h-2.088v-3.96h3.888zm3.83-10.08c0 4.056.72 7.236 2.16 9.54 1.44 2.28 3.84 3.42 7.2 3.42 3.36 0 5.759-1.152 7.199-3.456 1.44-2.304 2.16-5.472 2.16-9.504 0-4.008-.72-7.152-2.16-9.432-1.44-2.304-3.84-3.456-7.2-3.456-3.36 0-5.76 1.14-7.2 3.42-1.44 2.28-2.16 5.436-2.16 9.468zm14.615 0c0 2.928-.36 5.172-1.08 6.732-.72 1.56-2.112 2.34-4.176 2.34-2.088 0-3.492-.78-4.212-2.34-.72-1.56-1.08-3.804-1.08-6.732 0-2.904.36-5.124 1.08-6.66.72-1.536 2.124-2.304 4.212-2.304 2.064 0 3.456.78 4.176 2.34.72 1.536 1.08 3.744 1.08 6.624zm7.814 0c0 4.056.72 7.236 2.16 9.54 1.44 2.28 3.84 3.42 7.2 3.42 3.36 0 5.76-1.152 7.2-3.456 1.44-2.304 2.16-5.472 2.16-9.504 0-4.008-.72-7.152-2.16-9.432-1.44-2.304-3.84-3.456-7.2-3.456-3.36 0-5.76 1.14-7.2 3.42-1.44 2.28-2.16 5.436-2.16 9.468zm14.616 0c0 2.928-.36 5.172-1.08 6.732-.72 1.56-2.112 2.34-4.176 2.34-2.088 0-3.492-.78-4.212-2.34-.72-1.56-1.08-3.804-1.08-6.732 0-2.904.36-5.124 1.08-6.66.72-1.536 2.124-2.304 4.212-2.304 2.064 0 3.456.78 4.176 2.34.72 1.536 1.08 3.744 1.08 6.624zm7.813 0c0 4.056.72 7.236 2.16 9.54 1.44 2.28 3.84 3.42 7.2 3.42 3.36 0 5.76-1.152 7.2-3.456 1.44-2.304 2.16-5.472 2.16-9.504 0-4.008-.72-7.152-2.16-9.432-1.44-2.304-3.84-3.456-7.2-3.456-3.36 0-5.76 1.14-7.2 3.42-1.44 2.28-2.16 5.436-2.16 9.468zm14.616 0c0 2.928-.36 5.172-1.08 6.732-.72 1.56-2.112 2.34-4.176 2.34-2.088 0-3.492-.78-4.212-2.34-.72-1.56-1.08-3.804-1.08-6.732 0-2.904.36-5.124 1.08-6.66.72-1.536 2.124-2.304 4.212-2.304 2.064 0 3.456.78 4.176 2.34.72 1.536 1.08 3.744 1.08 6.624zm25.418 1.8h-7.2v7.272h-3.996v-7.272h-7.164v-3.78h7.164v-7.308h3.996v7.308h7.2v3.78z"/>
    <path fill="#000" d="M31.552 129.068V134H29.5v-12.708h4.32c1.464 0 2.562.348 3.294 1.044.744.696 1.116 1.65 1.116 2.862 0 1.2-.378 2.148-1.134 2.844-.756.684-1.848 1.026-3.276 1.026h-2.268zm2.052-1.674c1.692 0 2.538-.732 2.538-2.196 0-.72-.204-1.266-.612-1.638-.396-.384-1.038-.576-1.926-.576h-2.052v4.41h2.052zm15.641 1.17c0 .336-.024.63-.072.882h-7.632c.036 1.02.318 1.776.846 2.268.528.492 1.182.738 1.962.738.684 0 1.26-.174 1.728-.522.48-.348.774-.81.882-1.386h2.196c-.132.696-.408 1.314-.828 1.854s-.966.966-1.638 1.278c-.672.3-1.422.45-2.25.45-.96 0-1.812-.204-2.556-.612-.732-.408-1.308-.996-1.728-1.764-.42-.768-.63-1.674-.63-2.718 0-1.032.21-1.932.63-2.7.42-.768.996-1.356 1.728-1.764.744-.408 1.596-.612 2.556-.612.972 0 1.818.204 2.538.612.732.396 1.29.948 1.674 1.656.396.696.594 1.476.594 2.34zm-2.07-.054c.024-.648-.09-1.188-.342-1.62-.24-.444-.576-.768-1.008-.972-.42-.216-.882-.324-1.386-.324-.804 0-1.476.246-2.016.738s-.834 1.218-.882 2.178h5.634zm8.587-4.554c.96 0 1.824.204 2.592.612.768.408 1.368.996 1.8 1.764.432.768.648 1.668.648 2.7 0 1.044-.216 1.95-.648 2.718-.432.768-1.032 1.356-1.8 1.764-.768.408-1.632.612-2.592.612-.96 0-1.824-.204-2.592-.612-.756-.408-1.356-.996-1.8-1.764-.432-.78-.648-1.686-.648-2.718s.216-1.932.648-2.7c.444-.768 1.044-1.356 1.8-1.764.768-.408 1.632-.612 2.592-.612zm0 1.782c-.528 0-1.014.12-1.458.36-.444.24-.804.612-1.08 1.116-.264.492-.396 1.098-.396 1.818 0 .732.132 1.344.396 1.836.276.492.636.858 1.08 1.098.444.24.93.36 1.458.36.528 0 1.014-.12 1.458-.36.444-.24.798-.606 1.062-1.098.276-.492.414-1.104.414-1.836 0-.72-.138-1.326-.414-1.818-.264-.504-.618-.876-1.062-1.116-.444-.24-.93-.36-1.458-.36zm12.701-1.782c.864 0 1.632.204 2.304.612.684.408 1.218.996 1.602 1.764.384.768.576 1.668.576 2.7 0 1.044-.192 1.95-.576 2.718-.384.768-.918 1.356-1.602 1.764-.672.408-1.44.612-2.304.612-.9 0-1.668-.222-2.304-.666-.636-.444-1.08-1.032-1.332-1.764v7.02h-2.052v-14.634h2.052v2.304c.252-.732.696-1.32 1.332-1.764.636-.444 1.404-.666 2.304-.666zm-.63 1.8c-.576 0-1.092.138-1.548.414-.456.264-.816.648-1.08 1.152-.264.492-.396 1.062-.396 1.71 0 .66.132 1.236.396 1.728s.624.876 1.08 1.152c.456.264.972.396 1.548.396.912 0 1.644-.288 2.196-.864.552-.588.828-1.392.828-2.412 0-1.008-.276-1.806-.828-2.394-.552-.588-1.284-.882-2.196-.882zm9.14-5.076V134h-2.051v-13.32h2.052zm11.7 7.884c0 .336-.024.63-.072.882h-7.632c.036 1.02.318 1.776.846 2.268.528.492 1.182.738 1.962.738.684 0 1.26-.174 1.728-.522.48-.348.774-.81.882-1.386h2.196c-.132.696-.408 1.314-.828 1.854s-.966.966-1.638 1.278c-.672.3-1.422.45-2.25.45-.96 0-1.812-.204-2.556-.612-.732-.408-1.308-.996-1.728-1.764-.42-.768-.63-1.674-.63-2.718 0-1.032.21-1.932.63-2.7.42-.768.996-1.356 1.728-1.764.744-.408 1.596-.612 2.556-.612.972 0 1.818.204 2.538.612.732.396 1.29.948 1.674 1.656.396.696.594 1.476.594 2.34zm-2.07-.054c.024-.648-.09-1.188-.342-1.62-.24-.444-.576-.768-1.008-.972-.42-.216-.882-.324-1.386-.324-.804 0-1.476.246-2.016.738s-.834 1.218-.882 2.178h5.634zm10.322-7.218V134h-2.052v-12.708h2.052zm14.885 2.628c1.176 0 2.112.372 2.808 1.116.708.744 1.062 1.806 1.062 3.186V134h-2.052v-5.562c0-.864-.216-1.53-.648-1.998-.432-.48-1.026-.72-1.782-.72-.804 0-1.446.258-1.926.774-.468.504-.702 1.248-.702 2.232V134h-2.052v-5.562c0-.864-.216-1.53-.648-1.998-.432-.48-1.026-.72-1.782-.72-.804 0-1.446.258-1.926.774-.468.504-.702 1.248-.702 2.232V134h-2.052v-9.918h2.052v2.07c.252-.72.672-1.272 1.26-1.656.588-.384 1.278-.576 2.07-.576.828 0 1.542.204 2.142.612.612.408 1.056.996 1.332 1.764.288-.744.75-1.326 1.386-1.746.636-.42 1.356-.63 2.16-.63zm11.954.036c.864 0 1.632.204 2.304.612.684.408 1.218.996 1.602 1.764.384.768.576 1.668.576 2.7 0 1.044-.192 1.95-.576 2.718-.384.768-.918 1.356-1.602 1.764-.672.408-1.44.612-2.304.612-.9 0-1.668-.222-2.304-.666-.636-.444-1.08-1.032-1.332-1.764v7.02h-2.052v-14.634h2.052v2.304c.252-.732.696-1.32 1.332-1.764.636-.444 1.404-.666 2.304-.666zm-.63 1.8c-.576 0-1.092.138-1.548.414-.456.264-.816.648-1.08 1.152-.264.492-.396 1.062-.396 1.71 0 .66.132 1.236.396 1.728s.624.876 1.08 1.152c.456.264.972.396 1.548.396.912 0 1.644-.288 2.196-.864.552-.588.828-1.392.828-2.412 0-1.008-.276-1.806-.828-2.394-.552-.588-1.284-.882-2.196-.882zm11.066-1.8c.9 0 1.668.222 2.304.666.636.444 1.086 1.032 1.35 1.764v-2.304h2.052V134h-2.052v-2.304c-.264.732-.714 1.32-1.35 1.764-.636.444-1.404.666-2.304.666-.864 0-1.638-.204-2.322-.612-.672-.408-1.2-.996-1.584-1.764-.384-.768-.576-1.674-.576-2.718 0-1.032.192-1.932.576-2.7.384-.768.912-1.356 1.584-1.764.684-.408 1.458-.612 2.322-.612zm.63 1.8c-.912 0-1.644.294-2.196.882-.54.576-.81 1.374-.81 2.394s.27 1.824.81 2.412c.552.576 1.284.864 2.196.864.576 0 1.092-.132 1.548-.396.456-.276.816-.66 1.08-1.152.264-.492.396-1.068.396-1.728 0-.648-.132-1.218-.396-1.71-.264-.504-.624-.888-1.08-1.152-.456-.276-.972-.414-1.548-.414zm11.949-1.8c1.284 0 2.346.342 3.186 1.026.84.672 1.362 1.59 1.566 2.754h-2.178c-.12-.624-.414-1.11-.882-1.458-.456-.36-1.032-.54-1.728-.54-.792 0-1.452.282-1.98.846-.528.552-.792 1.368-.792 2.448 0 1.08.264 1.902.792 2.466.528.564 1.188.846 1.98.846.696 0 1.272-.18 1.728-.54.468-.36.762-.852.882-1.476h2.178c-.204 1.164-.726 2.088-1.566 2.772-.84.684-1.902 1.026-3.186 1.026-.96 0-1.812-.204-2.556-.612-.732-.408-1.308-.996-1.728-1.764-.42-.768-.63-1.674-.63-2.718 0-1.032.21-1.932.63-2.7.42-.768.996-1.356 1.728-1.764.744-.408 1.596-.612 2.556-.612zm11.72 8.262V134h-1.26c-1.056 0-1.86-.252-2.412-.756-.54-.516-.81-1.368-.81-2.556v-4.86h-1.422v-1.746h1.422v-2.466h2.07v2.466h2.394v1.746h-2.394v4.896c0 .564.102.954.306 1.17.216.216.588.324 1.116.324h.99zm11.139-3.654c0 .336-.024.63-.072.882h-7.632c.036 1.02.318 1.776.846 2.268.528.492 1.182.738 1.962.738.684 0 1.26-.174 1.728-.522.48-.348.774-.81.882-1.386h2.196c-.132.696-.408 1.314-.828 1.854s-.966.966-1.638 1.278c-.672.3-1.422.45-2.25.45-.96 0-1.812-.204-2.556-.612-.732-.408-1.308-.996-1.728-1.764-.42-.768-.63-1.674-.63-2.718 0-1.032.21-1.932.63-2.7.42-.768.996-1.356 1.728-1.764.744-.408 1.596-.612 2.556-.612.972 0 1.818.204 2.538.612.732.396 1.29.948 1.674 1.656.396.696.594 1.476.594 2.34zm-2.07-.054c.024-.648-.09-1.188-.342-1.62-.24-.444-.576-.768-1.008-.972-.42-.216-.882-.324-1.386-.324-.804 0-1.476.246-2.016.738s-.834 1.218-.882 2.178h5.634zm8.029-4.554c.9 0 1.668.222 2.304.666.636.444 1.08 1.032 1.332 1.764v-5.706h2.07V134h-2.07v-2.304c-.252.732-.696 1.32-1.332 1.764-.636.444-1.404.666-2.304.666-.864 0-1.638-.204-2.322-.612-.672-.408-1.2-.996-1.584-1.764-.384-.768-.576-1.674-.576-2.718 0-1.032.192-1.932.576-2.7.384-.768.912-1.356 1.584-1.764.684-.408 1.458-.612 2.322-.612zm.63 1.8c-.912 0-1.644.294-2.196.882-.54.576-.81 1.374-.81 2.394s.27 1.824.81 2.412c.552.576 1.284.864 2.196.864.576 0 1.092-.132 1.548-.396.456-.276.816-.66 1.08-1.152.264-.492.396-1.068.396-1.728 0-.648-.132-1.218-.396-1.71-.264-.504-.624-.888-1.08-1.152-.456-.276-.972-.414-1.548-.414z"/>
</svg>
