<svg xmlns="http://www.w3.org/2000/svg" width="189" height="168" fill="none" viewBox="0 0 189 168">
    <rect width="150" height="98" x="19.5" fill="#F89920" rx="12"/>
    <path fill="#fff" d="M64.23 58.796c3.887-2.664 6.995-5.268 9.323-7.812 2.352-2.568 3.528-4.944 3.528-7.128 0-1.296-.324-2.328-.972-3.096-.624-.768-1.644-1.152-3.06-1.152-1.464 0-2.568.48-3.312 1.44-.744.936-1.164 2.28-1.26 4.032h-3.996c.168-2.904 1.056-5.124 2.664-6.66 1.632-1.536 3.708-2.304 6.228-2.304 2.472 0 4.404.66 5.796 1.98 1.416 1.296 2.124 3.096 2.124 5.4 0 1.848-.576 3.72-1.728 5.616-1.128 1.896-2.568 3.648-4.32 5.256-1.752 1.584-3.564 2.952-5.436 4.104h12.06v3.348H64.23v-3.024zm20.857-9.684c0 4.056.72 7.236 2.16 9.54 1.44 2.28 3.84 3.42 7.2 3.42 3.36 0 5.76-1.152 7.2-3.456 1.44-2.304 2.16-5.472 2.16-9.504 0-4.008-.72-7.152-2.16-9.432-1.44-2.304-3.84-3.456-7.2-3.456-3.36 0-5.76 1.14-7.2 3.42-1.44 2.28-2.16 5.436-2.16 9.468zm14.616 0c0 2.928-.36 5.172-1.08 6.732-.72 1.56-2.112 2.34-4.176 2.34-2.088 0-3.492-.78-4.212-2.34-.72-1.56-1.08-3.804-1.08-6.732 0-2.904.36-5.124 1.08-6.66.72-1.536 2.124-2.304 4.212-2.304 2.064 0 3.456.78 4.176 2.34.72 1.536 1.08 3.744 1.08 6.624zm25.418 1.8h-7.2v7.272h-3.996v-7.272h-7.164v-3.78h7.164v-7.308h3.996v7.308h7.2v3.78z"/>
    <path fill="#000" d="M9.814 130.616c0 .624-.15 1.206-.45 1.746-.3.528-.756.954-1.368 1.278-.612.324-1.362.486-2.25.486-.864 0-1.638-.15-2.322-.45-.684-.312-1.23-.744-1.638-1.296-.408-.552-.642-1.188-.702-1.908H3.28c.06.552.294 1.026.702 1.422.42.396.978.594 1.674.594.624 0 1.104-.168 1.44-.504.348-.336.522-.768.522-1.296 0-.456-.126-.828-.378-1.116-.252-.3-.564-.534-.936-.702-.372-.168-.882-.36-1.53-.576-.792-.252-1.44-.504-1.944-.756-.492-.252-.912-.618-1.26-1.098-.348-.48-.522-1.11-.522-1.89 0-.684.168-1.284.504-1.8.336-.516.816-.912 1.44-1.188.624-.288 1.344-.432 2.16-.432 1.296 0 2.322.312 3.078.936.768.624 1.206 1.44 1.314 2.448H7.33c-.084-.48-.312-.888-.684-1.224-.36-.348-.858-.522-1.494-.522-.576 0-1.038.15-1.386.45-.348.288-.522.708-.522 1.26 0 .432.12.792.36 1.08.24.276.54.498.9.666.372.156.876.342 1.512.558.804.252 1.458.51 1.962.774.516.252.948.624 1.296 1.116.36.492.54 1.14.54 1.944zm11.27-2.052c0 .336-.024.63-.072.882H13.38c.036 1.02.318 1.776.846 2.268.528.492 1.182.738 1.962.738.684 0 1.26-.174 1.728-.522.48-.348.774-.81.882-1.386h2.196c-.132.696-.408 1.314-.828 1.854s-.966.966-1.638 1.278c-.672.3-1.422.45-2.25.45-.96 0-1.812-.204-2.556-.612-.732-.408-1.308-.996-1.728-1.764-.42-.768-.63-1.674-.63-2.718 0-1.032.21-1.932.63-2.7.42-.768.996-1.356 1.728-1.764.744-.408 1.596-.612 2.556-.612.972 0 1.818.204 2.538.612.732.396 1.29.948 1.674 1.656.396.696.594 1.476.594 2.34zm-2.07-.054c.024-.648-.09-1.188-.342-1.62-.24-.444-.576-.768-1.008-.972-.42-.216-.882-.324-1.386-.324-.804 0-1.476.246-2.016.738s-.834 1.218-.882 2.178h5.634zm7.31-4.554c1.163 0 2.093.3 2.79.9.707.588 1.14 1.38 1.295 2.376h-1.944c-.084-.54-.318-.972-.702-1.296-.372-.336-.87-.504-1.494-.504-.516 0-.918.126-1.206.378-.276.24-.414.57-.414.99 0 .312.102.564.306.756.204.192.456.342.756.45.312.108.75.228 1.314.36.744.168 1.344.342 1.8.522.468.18.864.468 1.188.864.336.384.504.912.504 1.584 0 .828-.318 1.5-.954 2.016-.624.516-1.47.774-2.538.774-1.236 0-2.238-.288-3.006-.864-.756-.576-1.212-1.38-1.368-2.412h1.998c.06.54.3.978.72 1.314.42.336.972.504 1.656.504.492 0 .876-.126 1.152-.378.288-.264.432-.594.432-.99 0-.348-.108-.624-.324-.828-.216-.204-.486-.36-.81-.468-.324-.12-.768-.24-1.332-.36-.72-.168-1.308-.336-1.764-.504-.444-.168-.828-.438-1.152-.81-.312-.384-.468-.9-.468-1.548 0-.84.312-1.518.936-2.034.636-.528 1.512-.792 2.628-.792zm9.509 0c1.164 0 2.094.3 2.79.9.708.588 1.14 1.38 1.296 2.376h-1.944c-.084-.54-.318-.972-.702-1.296-.372-.336-.87-.504-1.494-.504-.516 0-.918.126-1.206.378-.276.24-.414.57-.414.99 0 .312.102.564.306.756.204.192.456.342.756.45.312.108.75.228 1.314.36.744.168 1.344.342 1.8.522.468.18.864.468 1.188.864.336.384.504.912.504 1.584 0 .828-.318 1.5-.954 2.016-.624.516-1.47.774-2.538.774-1.236 0-2.238-.288-3.006-.864-.756-.576-1.212-1.38-1.368-2.412h1.998c.06.54.3.978.72 1.314.42.336.972.504 1.656.504.492 0 .876-.126 1.152-.378.288-.264.432-.594.432-.99 0-.348-.108-.624-.324-.828-.216-.204-.486-.36-.81-.468-.324-.12-.768-.24-1.332-.36-.72-.168-1.308-.336-1.764-.504-.444-.168-.828-.438-1.152-.81-.312-.384-.468-.9-.468-1.548 0-.84.312-1.518.936-2.034.636-.528 1.512-.792 2.628-.792zm5.964-2.754c0-.348.12-.636.36-.864.24-.228.558-.342.954-.342.396 0 .714.114.954.342.252.228.378.516.378.864s-.126.63-.378.846c-.24.216-.558.324-.954.324-.396 0-.714-.108-.954-.324-.24-.216-.36-.498-.36-.846zm2.34 2.88V134h-2.052v-9.918h2.052zm7.019-.126c.96 0 1.824.204 2.592.612.768.408 1.368.996 1.8 1.764.432.768.648 1.668.648 2.7 0 1.044-.216 1.95-.648 2.718-.432.768-1.032 1.356-1.8 1.764-.768.408-1.632.612-2.592.612-.96 0-1.824-.204-2.592-.612-.756-.408-1.356-.996-1.8-1.764-.432-.78-.648-1.686-.648-2.718s.216-1.932.648-2.7c.444-.768 1.044-1.356 1.8-1.764.768-.408 1.632-.612 2.592-.612zm0 1.782c-.528 0-1.014.12-1.458.36-.444.24-.804.612-1.08 1.116-.264.492-.396 1.098-.396 1.818 0 .732.132 1.344.396 1.836.276.492.636.858 1.08 1.098.444.24.93.36 1.458.36.528 0 1.014-.12 1.458-.36.444-.24.798-.606 1.062-1.098.276-.492.414-1.104.414-1.836 0-.72-.138-1.326-.414-1.818-.264-.504-.618-.876-1.062-1.116-.444-.24-.93-.36-1.458-.36zm12.557-1.818c1.152 0 2.076.372 2.772 1.116.696.744 1.044 1.806 1.044 3.186V134h-2.052v-5.562c0-.888-.228-1.572-.684-2.052-.456-.492-1.08-.738-1.872-.738-.816 0-1.47.264-1.962.792-.492.516-.738 1.278-.738 2.286V134h-2.052v-9.918h2.052v2.178c.264-.744.708-1.32 1.332-1.728.624-.408 1.344-.612 2.16-.612zm9.473.036c1.164 0 2.094.3 2.79.9.709.588 1.14 1.38 1.296 2.376h-1.944c-.084-.54-.318-.972-.702-1.296-.372-.336-.87-.504-1.494-.504-.516 0-.918.126-1.206.378-.276.24-.413.57-.413.99 0 .312.102.564.305.756.204.192.457.342.757.45.311.108.75.228 1.313.36.744.168 1.344.342 1.8.522.468.18.864.468 1.188.864.337.384.504.912.504 1.584 0 .828-.317 1.5-.953 2.016-.625.516-1.47.774-2.539.774-1.236 0-2.238-.288-3.006-.864-.756-.576-1.212-1.38-1.368-2.412h1.999c.06.54.3.978.72 1.314.42.336.971.504 1.655.504.492 0 .876-.126 1.152-.378.288-.264.432-.594.432-.99 0-.348-.107-.624-.323-.828-.216-.204-.487-.36-.81-.468-.325-.12-.769-.24-1.332-.36-.72-.168-1.309-.336-1.764-.504-.444-.168-.828-.438-1.152-.81-.313-.384-.468-.9-.468-1.548 0-.84.311-1.518.935-2.034.636-.528 1.512-.792 2.628-.792zm16.141-2.79c1.56 0 2.856.396 3.888 1.188 1.032.792 1.728 1.866 2.088 3.222h-2.178c-.3-.768-.78-1.374-1.44-1.818-.648-.456-1.446-.684-2.394-.684-.756 0-1.434.186-2.034.558-.588.372-1.056.906-1.404 1.602-.336.684-.504 1.488-.504 2.412 0 .912.168 1.716.504 2.412.348.684.816 1.212 1.404 1.584.6.372 1.278.558 2.034.558.948 0 1.746-.222 2.394-.666.66-.456 1.14-1.062 1.44-1.818h2.178c-.36 1.356-1.056 2.43-2.088 3.222-1.032.78-2.328 1.17-3.888 1.17-1.2 0-2.262-.27-3.186-.81-.924-.552-1.638-1.314-2.142-2.286-.504-.984-.756-2.106-.756-3.366 0-1.26.252-2.376.756-3.348.504-.984 1.218-1.752 2.142-2.304.924-.552 1.986-.828 3.186-.828zm12.559 2.79c.96 0 1.824.204 2.592.612.768.408 1.368.996 1.8 1.764.432.768.648 1.668.648 2.7 0 1.044-.216 1.95-.648 2.718-.432.768-1.032 1.356-1.8 1.764-.768.408-1.632.612-2.592.612-.96 0-1.824-.204-2.592-.612-.756-.408-1.356-.996-1.8-1.764-.432-.78-.648-1.686-.648-2.718s.216-1.932.648-2.7c.444-.768 1.044-1.356 1.8-1.764.768-.408 1.632-.612 2.592-.612zm0 1.782c-.528 0-1.014.12-1.458.36-.444.24-.804.612-1.08 1.116-.264.492-.396 1.098-.396 1.818 0 .732.132 1.344.396 1.836.276.492.636.858 1.08 1.098.444.24.93.36 1.458.36.528 0 1.014-.12 1.458-.36.444-.24.798-.606 1.062-1.098.276-.492.414-1.104.414-1.836 0-.72-.138-1.326-.414-1.818-.264-.504-.618-.876-1.062-1.116-.444-.24-.93-.36-1.458-.36zm12.557-1.818c1.152 0 2.076.372 2.772 1.116.696.744 1.044 1.806 1.044 3.186V134h-2.052v-5.562c0-.888-.228-1.572-.684-2.052-.456-.492-1.08-.738-1.872-.738-.816 0-1.47.264-1.962.792-.492.516-.738 1.278-.738 2.286V134h-2.052v-9.918h2.052v2.178c.264-.744.708-1.32 1.332-1.728.624-.408 1.344-.612 2.16-.612zm10.194.036c.9 0 1.668.222 2.304.666.636.444 1.08 1.032 1.332 1.764v-5.706h2.07V134h-2.07v-2.304c-.252.732-.696 1.32-1.332 1.764-.636.444-1.404.666-2.304.666-.864 0-1.638-.204-2.322-.612-.672-.408-1.2-.996-1.584-1.764-.384-.768-.576-1.674-.576-2.718 0-1.032.192-1.932.576-2.7.384-.768.912-1.356 1.584-1.764.684-.408 1.458-.612 2.322-.612zm.63 1.8c-.912 0-1.644.294-2.196.882-.54.576-.81 1.374-.81 2.394s.27 1.824.81 2.412c.552.576 1.284.864 2.196.864.576 0 1.092-.132 1.548-.396.456-.276.816-.66 1.08-1.152.264-.492.396-1.068.396-1.728 0-.648-.132-1.218-.396-1.71-.264-.504-.624-.888-1.08-1.152-.456-.276-.972-.414-1.548-.414zm16.682-1.674V134h-2.07v-2.16c-.252.732-.69 1.302-1.314 1.71-.624.396-1.35.594-2.178.594-1.152 0-2.076-.372-2.772-1.116-.696-.744-1.044-1.806-1.044-3.186v-5.76h2.052v5.544c0 .9.228 1.596.684 2.088.456.48 1.08.72 1.872.72.816 0 1.47-.264 1.962-.792s.738-1.296.738-2.304v-5.256h2.07zm6.868-.126c1.284 0 2.346.342 3.186 1.026.84.672 1.362 1.59 1.566 2.754h-2.178c-.12-.624-.414-1.11-.882-1.458-.456-.36-1.032-.54-1.728-.54-.792 0-1.452.282-1.98.846-.528.552-.792 1.368-.792 2.448 0 1.08.264 1.902.792 2.466.528.564 1.188.846 1.98.846.696 0 1.272-.18 1.728-.54.468-.36.762-.852.882-1.476h2.178c-.204 1.164-.726 2.088-1.566 2.772-.84.684-1.902 1.026-3.186 1.026-.96 0-1.812-.204-2.556-.612-.732-.408-1.308-.996-1.728-1.764-.42-.768-.63-1.674-.63-2.718 0-1.032.21-1.932.63-2.7.42-.768.996-1.356 1.728-1.764.744-.408 1.596-.612 2.556-.612zm11.721 8.262V134h-1.26c-1.056 0-1.86-.252-2.412-.756-.54-.516-.81-1.368-.81-2.556v-4.86h-1.422v-1.746h1.422v-2.466h2.07v2.466h2.394v1.746h-2.394v4.896c0 .564.102.954.306 1.17.216.216.588.324 1.116.324h.99zm11.138-3.654c0 .336-.024.63-.072.882h-7.632c.036 1.02.318 1.776.846 2.268.528.492 1.182.738 1.962.738.684 0 1.26-.174 1.728-.522.48-.348.774-.81.882-1.386h2.196c-.132.696-.408 1.314-.828 1.854s-.966.966-1.638 1.278c-.672.3-1.422.45-2.25.45-.96 0-1.812-.204-2.556-.612-.732-.408-1.308-.996-1.728-1.764-.42-.768-.63-1.674-.63-2.718 0-1.032.21-1.932.63-2.7.42-.768.996-1.356 1.728-1.764.744-.408 1.596-.612 2.556-.612.972 0 1.818.204 2.538.612.732.396 1.29.948 1.674 1.656.396.696.594 1.476.594 2.34zm-2.07-.054c.024-.648-.09-1.188-.342-1.62-.24-.444-.576-.768-1.008-.972-.42-.216-.882-.324-1.386-.324-.804 0-1.476.246-2.016.738s-.834 1.218-.882 2.178h5.634zm8.029-4.554c.9 0 1.668.222 2.304.666.636.444 1.08 1.032 1.332 1.764v-5.706h2.07V134h-2.07v-2.304c-.252.732-.696 1.32-1.332 1.764-.636.444-1.404.666-2.304.666-.864 0-1.638-.204-2.322-.612-.672-.408-1.2-.996-1.584-1.764-.384-.768-.576-1.674-.576-2.718 0-1.032.192-1.932.576-2.7.384-.768.912-1.356 1.584-1.764.684-.408 1.458-.612 2.322-.612zm.63 1.8c-.912 0-1.644.294-2.196.882-.54.576-.81 1.374-.81 2.394s.27 1.824.81 2.412c.552.576 1.284.864 2.196.864.576 0 1.092-.132 1.548-.396.456-.276.816-.66 1.08-1.152.264-.492.396-1.068.396-1.728 0-.648-.132-1.218-.396-1.71-.264-.504-.624-.888-1.08-1.152-.456-.276-.972-.414-1.548-.414z"/>
</svg>
