<svg xmlns="http://www.w3.org/2000/svg" width="233" height="195" fill="none" viewBox="0 0 233 195">
    <rect width="204" height="98" x="14.5" fill="#F89920" rx="12"/>
    <path fill="#fff" d="M68.466 35.792c1.68 0 3.12.3 4.32.9 1.2.576 2.1 1.38 2.7 2.412.624 1.032.936 2.184.936 3.456 0 1.608-.456 2.952-1.368 4.032-.888 1.056-2.148 1.692-3.78 1.908v.18c1.752.504 3.12 1.26 4.104 2.268 1.008.984 1.512 2.352 1.512 4.104 0 2.136-.708 3.876-2.124 5.22-1.416 1.32-3.444 1.98-6.084 1.98-2.712 0-4.896-.684-6.552-2.052-1.656-1.392-2.604-3.444-2.844-6.156h4.068c.144 1.44.66 2.592 1.548 3.456.888.84 2.088 1.26 3.6 1.26 1.416 0 2.496-.372 3.24-1.116.768-.744 1.152-1.704 1.152-2.88 0-1.416-.552-2.496-1.656-3.24-1.08-.744-2.652-1.116-4.716-1.116h-.972v-3.384h.972c3.912.048 5.868-1.284 5.868-3.996 0-1.176-.36-2.1-1.08-2.772-.72-.672-1.704-1.008-2.952-1.008s-2.292.384-3.132 1.152c-.84.744-1.344 1.836-1.512 3.276h-4.032c.168-2.496 1.008-4.428 2.52-5.796 1.512-1.392 3.6-2.088 6.264-2.088zm12.447 13.32c0 4.056.72 7.236 2.16 9.54 1.44 2.28 3.84 3.42 7.2 3.42 3.36 0 5.76-1.152 7.2-3.456 1.44-2.304 2.16-5.472 2.16-9.504 0-4.008-.72-7.152-2.16-9.432-1.44-2.304-3.84-3.456-7.2-3.456-3.36 0-5.76 1.14-7.2 3.42-1.44 2.28-2.16 5.436-2.16 9.468zm14.616 0c0 2.928-.36 5.172-1.08 6.732-.72 1.56-2.112 2.34-4.176 2.34-2.088 0-3.492-.78-4.212-2.34-.72-1.56-1.08-3.804-1.08-6.732 0-2.904.36-5.124 1.08-6.66.72-1.536 2.124-2.304 4.212-2.304 2.064 0 3.456.78 4.176 2.34.72 1.536 1.08 3.744 1.08 6.624zm7.814 0c0 4.056.72 7.236 2.16 9.54 1.44 2.28 3.84 3.42 7.2 3.42 3.36 0 5.76-1.152 7.2-3.456 1.44-2.304 2.16-5.472 2.16-9.504 0-4.008-.72-7.152-2.16-9.432-1.44-2.304-3.84-3.456-7.2-3.456-3.36 0-5.76 1.14-7.2 3.42-1.44 2.28-2.16 5.436-2.16 9.468zm14.616 0c0 2.928-.36 5.172-1.08 6.732-.72 1.56-2.112 2.34-4.176 2.34-2.088 0-3.492-.78-4.212-2.34-.72-1.56-1.08-3.804-1.08-6.732 0-2.904.36-5.124 1.08-6.66.72-1.536 2.124-2.304 4.212-2.304 2.064 0 3.456.78 4.176 2.34.72 1.536 1.08 3.744 1.08 6.624zm7.813 0c0 4.056.72 7.236 2.16 9.54 1.44 2.28 3.84 3.42 7.2 3.42 3.36 0 5.76-1.152 7.2-3.456 1.44-2.304 2.16-5.472 2.16-9.504 0-4.008-.72-7.152-2.16-9.432-1.44-2.304-3.84-3.456-7.2-3.456-3.36 0-5.76 1.14-7.2 3.42-1.44 2.28-2.16 5.436-2.16 9.468zm14.616 0c0 2.928-.36 5.172-1.08 6.732-.72 1.56-2.112 2.34-4.176 2.34-2.088 0-3.492-.78-4.212-2.34-.72-1.56-1.08-3.804-1.08-6.732 0-2.904.36-5.124 1.08-6.66.72-1.536 2.124-2.304 4.212-2.304 2.064 0 3.456.78 4.176 2.34.72 1.536 1.08 3.744 1.08 6.624zm25.418 1.8h-7.2v7.272h-3.996v-7.272h-7.164v-3.78h7.164v-7.308h3.996v7.308h7.2v3.78z"/>
    <path fill="#000" d="M3.743 129.068V134H1.691v-12.708h4.32c1.464 0 2.562.348 3.294 1.044.744.696 1.116 1.65 1.116 2.862 0 1.2-.378 2.148-1.134 2.844-.756.684-1.848 1.026-3.276 1.026H3.743zm2.052-1.674c1.692 0 2.538-.732 2.538-2.196 0-.72-.204-1.266-.612-1.638-.396-.384-1.038-.576-1.926-.576H3.743v4.41h2.052zm15.641 1.17c0 .336-.023.63-.072.882h-7.632c.037 1.02.319 1.776.847 2.268.527.492 1.181.738 1.962.738.683 0 1.26-.174 1.727-.522.48-.348.774-.81.883-1.386h2.195c-.131.696-.407 1.314-.828 1.854-.42.54-.966.966-1.637 1.278-.672.3-1.422.45-2.25.45-.96 0-1.813-.204-2.556-.612-.732-.408-1.308-.996-1.728-1.764-.42-.768-.63-1.674-.63-2.718 0-1.032.21-1.932.63-2.7.42-.768.995-1.356 1.728-1.764.744-.408 1.596-.612 2.556-.612.971 0 1.817.204 2.538.612.732.396 1.29.948 1.674 1.656.395.696.593 1.476.593 2.34zm-2.07-.054c.024-.648-.09-1.188-.341-1.62-.24-.444-.576-.768-1.008-.972-.42-.216-.883-.324-1.386-.324-.805 0-1.476.246-2.017.738-.54.492-.834 1.218-.882 2.178h5.634zm8.588-4.554c.96 0 1.824.204 2.592.612.768.408 1.368.996 1.8 1.764.432.768.648 1.668.648 2.7 0 1.044-.216 1.95-.648 2.718-.432.768-1.032 1.356-1.8 1.764-.768.408-1.632.612-2.592.612-.96 0-1.824-.204-2.592-.612-.756-.408-1.356-.996-1.8-1.764-.432-.78-.648-1.686-.648-2.718s.216-1.932.648-2.7c.444-.768 1.044-1.356 1.8-1.764.768-.408 1.632-.612 2.592-.612zm0 1.782c-.528 0-1.014.12-1.458.36-.444.24-.804.612-1.08 1.116-.264.492-.396 1.098-.396 1.818 0 .732.132 1.344.396 1.836.276.492.636.858 1.08 1.098.444.24.93.36 1.458.36.528 0 1.014-.12 1.458-.36.444-.24.798-.606 1.062-1.098.276-.492.414-1.104.414-1.836 0-.72-.138-1.326-.414-1.818-.264-.504-.618-.876-1.062-1.116-.444-.24-.93-.36-1.458-.36zm12.7-1.782c.865 0 1.633.204 2.305.612.684.408 1.218.996 1.602 1.764.384.768.576 1.668.576 2.7 0 1.044-.192 1.95-.576 2.718-.384.768-.918 1.356-1.602 1.764-.672.408-1.44.612-2.304.612-.9 0-1.668-.222-2.304-.666-.636-.444-1.08-1.032-1.332-1.764v7.02h-2.052v-14.634h2.052v2.304c.252-.732.696-1.32 1.332-1.764.636-.444 1.404-.666 2.304-.666zm-.63 1.8c-.575 0-1.091.138-1.547.414-.456.264-.816.648-1.08 1.152-.264.492-.396 1.062-.396 1.71 0 .66.132 1.236.396 1.728s.624.876 1.08 1.152c.456.264.972.396 1.548.396.912 0 1.644-.288 2.196-.864.552-.588.828-1.392.828-2.412 0-1.008-.276-1.806-.828-2.394-.552-.588-1.284-.882-2.196-.882zm9.141-5.076V134h-2.052v-13.32h2.052zm11.7 7.884c0 .336-.025.63-.073.882H53.16c.036 1.02.318 1.776.846 2.268.528.492 1.182.738 1.962.738.684 0 1.26-.174 1.728-.522.48-.348.774-.81.882-1.386h2.196c-.132.696-.408 1.314-.828 1.854s-.966.966-1.638 1.278c-.672.3-1.422.45-2.25.45-.96 0-1.812-.204-2.556-.612-.732-.408-1.308-.996-1.728-1.764-.42-.768-.63-1.674-.63-2.718 0-1.032.21-1.932.63-2.7.42-.768.996-1.356 1.728-1.764.744-.408 1.596-.612 2.556-.612.972 0 1.818.204 2.538.612.732.396 1.29.948 1.674 1.656.396.696.594 1.476.594 2.34zm-2.07-.054c.023-.648-.09-1.188-.343-1.62-.24-.444-.576-.768-1.008-.972-.42-.216-.882-.324-1.386-.324-.804 0-1.476.246-2.016.738s-.834 1.218-.882 2.178h5.634zm7.981-7.308c0-.348.12-.636.36-.864.24-.228.558-.342.954-.342.396 0 .714.114.954.342.252.228.378.516.378.864s-.126.63-.378.846c-.24.216-.558.324-.954.324-.396 0-.714-.108-.954-.324-.24-.216-.36-.498-.36-.846zm2.34 2.88V134h-2.052v-9.918h2.052zm8.027-.162c1.152 0 2.076.372 2.772 1.116.696.744 1.044 1.806 1.044 3.186V134h-2.052v-5.562c0-.888-.228-1.572-.684-2.052-.456-.492-1.08-.738-1.872-.738-.816 0-1.47.264-1.962.792-.492.516-.738 1.278-.738 2.286V134H71.6v-9.918h2.052v2.178c.264-.744.708-1.32 1.332-1.728.624-.408 1.344-.612 2.16-.612zm15.42 8.298V134h-1.26c-1.055 0-1.86-.252-2.411-.756-.54-.516-.81-1.368-.81-2.556v-4.86H86.66v-1.746h1.422v-2.466h2.07v2.466h2.394v1.746h-2.394v4.896c0 .564.102.954.306 1.17.216.216.588.324 1.116.324h.99zm7.467-8.298c1.152 0 2.076.372 2.772 1.116.696.744 1.044 1.806 1.044 3.186V134h-2.052v-5.562c0-.888-.228-1.572-.684-2.052-.456-.492-1.08-.738-1.872-.738-.816 0-1.47.264-1.962.792-.492.516-.738 1.278-.738 2.286V134h-2.052v-13.32h2.052v5.58c.264-.744.708-1.32 1.332-1.728.624-.408 1.344-.612 2.16-.612zm15.432 4.644c0 .336-.024.63-.072.882h-7.632c.036 1.02.318 1.776.846 2.268.528.492 1.182.738 1.962.738.684 0 1.26-.174 1.728-.522.48-.348.774-.81.882-1.386h2.196c-.132.696-.408 1.314-.828 1.854s-.966.966-1.638 1.278c-.672.3-1.422.45-2.25.45-.96 0-1.812-.204-2.556-.612-.732-.408-1.308-.996-1.728-1.764-.42-.768-.63-1.674-.63-2.718 0-1.032.21-1.932.63-2.7.42-.768.996-1.356 1.728-1.764.744-.408 1.596-.612 2.556-.612.972 0 1.818.204 2.538.612.732.396 1.29.948 1.674 1.656.396.696.594 1.476.594 2.34zm-2.07-.054c.024-.648-.09-1.188-.342-1.62-.24-.444-.576-.768-1.008-.972-.42-.216-.882-.324-1.386-.324-.804 0-1.476.246-2.016.738s-.834 1.218-.882 2.178h5.634zm13.94-7.344c1.56 0 2.856.396 3.888 1.188 1.032.792 1.728 1.866 2.088 3.222h-2.178c-.3-.768-.78-1.374-1.44-1.818-.648-.456-1.446-.684-2.394-.684-.756 0-1.434.186-2.034.558-.588.372-1.056.906-1.404 1.602-.336.684-.504 1.488-.504 2.412 0 .912.168 1.716.504 2.412.348.684.816 1.212 1.404 1.584.6.372 1.278.558 2.034.558.948 0 1.746-.222 2.394-.666.66-.456 1.14-1.062 1.44-1.818h2.178c-.36 1.356-1.056 2.43-2.088 3.222-1.032.78-2.328 1.17-3.888 1.17-1.2 0-2.262-.27-3.186-.81-.924-.552-1.638-1.314-2.142-2.286-.504-.984-.756-2.106-.756-3.366 0-1.26.252-2.376.756-3.348.504-.984 1.218-1.752 2.142-2.304.924-.552 1.986-.828 3.186-.828zm12.559 2.79c.96 0 1.824.204 2.592.612.768.408 1.368.996 1.8 1.764.432.768.648 1.668.648 2.7 0 1.044-.216 1.95-.648 2.718-.432.768-1.032 1.356-1.8 1.764-.768.408-1.632.612-2.592.612-.96 0-1.824-.204-2.592-.612-.756-.408-1.356-.996-1.8-1.764-.432-.78-.648-1.686-.648-2.718s.216-1.932.648-2.7c.444-.768 1.044-1.356 1.8-1.764.768-.408 1.632-.612 2.592-.612zm0 1.782c-.528 0-1.014.12-1.458.36-.444.24-.804.612-1.08 1.116-.264.492-.396 1.098-.396 1.818 0 .732.132 1.344.396 1.836.276.492.636.858 1.08 1.098.444.24.93.36 1.458.36.528 0 1.014-.12 1.458-.36.444-.24.798-.606 1.062-1.098.276-.492.414-1.104.414-1.836 0-.72-.138-1.326-.414-1.818-.264-.504-.618-.876-1.062-1.116-.444-.24-.93-.36-1.458-.36zm19.415-1.818c1.176 0 2.112.372 2.808 1.116.708.744 1.062 1.806 1.062 3.186V134h-2.052v-5.562c0-.864-.216-1.53-.648-1.998-.432-.48-1.026-.72-1.782-.72-.804 0-1.446.258-1.926.774-.468.504-.702 1.248-.702 2.232V134h-2.052v-5.562c0-.864-.216-1.53-.648-1.998-.432-.48-1.026-.72-1.782-.72-.804 0-1.446.258-1.926.774-.468.504-.702 1.248-.702 2.232V134h-2.052v-9.918h2.052v2.07c.252-.72.672-1.272 1.26-1.656.588-.384 1.278-.576 2.07-.576.828 0 1.542.204 2.142.612.612.408 1.056.996 1.332 1.764.288-.744.75-1.326 1.386-1.746.636-.42 1.356-.63 2.16-.63zm18.668 0c1.176 0 2.112.372 2.808 1.116.708.744 1.062 1.806 1.062 3.186V134h-2.052v-5.562c0-.864-.216-1.53-.648-1.998-.432-.48-1.026-.72-1.782-.72-.804 0-1.446.258-1.926.774-.468.504-.702 1.248-.702 2.232V134h-2.052v-5.562c0-.864-.216-1.53-.648-1.998-.432-.48-1.026-.72-1.782-.72-.804 0-1.446.258-1.926.774-.468.504-.702 1.248-.702 2.232V134h-2.052v-9.918h2.052v2.07c.252-.72.672-1.272 1.26-1.656.588-.384 1.278-.576 2.07-.576.828 0 1.542.204 2.142.612.612.408 1.056.996 1.332 1.764.288-.744.75-1.326 1.386-1.746.636-.42 1.356-.63 2.16-.63zm15.41.162V134h-2.07v-2.16c-.252.732-.69 1.302-1.314 1.71-.624.396-1.35.594-2.178.594-1.152 0-2.076-.372-2.772-1.116-.696-.744-1.044-1.806-1.044-3.186v-5.76h2.052v5.544c0 .9.228 1.596.684 2.088.456.48 1.08.72 1.872.72.816 0 1.47-.264 1.962-.792s.738-1.296.738-2.304v-5.256h2.07zm8.002-.162c1.152 0 2.076.372 2.772 1.116.696.744 1.044 1.806 1.044 3.186V134h-2.052v-5.562c0-.888-.228-1.572-.684-2.052-.456-.492-1.08-.738-1.872-.738-.816 0-1.47.264-1.962.792-.492.516-.738 1.278-.738 2.286V134h-2.052v-9.918h2.052v2.178c.264-.744.708-1.32 1.332-1.728.624-.408 1.344-.612 2.16-.612zm5.927-2.718c0-.348.12-.636.36-.864.24-.228.558-.342.954-.342.396 0 .714.114.954.342.252.228.378.516.378.864s-.126.63-.378.846c-.24.216-.558.324-.954.324-.396 0-.714-.108-.954-.324-.24-.216-.36-.498-.36-.846zm2.34 2.88V134h-2.052v-9.918h2.052zm7.47 8.136V134h-1.26c-1.056 0-1.86-.252-2.412-.756-.54-.516-.81-1.368-.81-2.556v-4.86h-1.422v-1.746h1.422v-2.466h2.07v2.466h2.394v1.746h-2.394v4.896c0 .564.102.954.306 1.17.216.216.588.324 1.116.324h.99zm3.092-8.136l2.97 7.29 2.754-7.29h2.286l-5.994 14.634h-2.286l2.142-4.95-4.176-9.684h2.304z"/>
</svg>
