<svg xmlns="http://www.w3.org/2000/svg" width="174" height="168" fill="none" viewBox="0 0 174 168">
    <rect width="149" height="98" x="12.5" fill="#F89920" rx="12"/>
    <path fill="#fff" d="M56.214 40.436v-3.852h8.136V62h-4.32V40.436h-3.816zm30.047-.612H73.697v7.56c.576-.744 1.392-1.332 2.448-1.764 1.056-.456 2.22-.684 3.492-.684 1.776 0 3.252.384 4.428 1.152 1.176.744 2.04 1.74 2.592 2.988.576 1.248.864 2.628.864 4.14 0 2.664-.744 4.824-2.232 6.48-1.488 1.632-3.648 2.448-6.48 2.448-2.664 0-4.812-.708-6.444-2.124-1.632-1.416-2.52-3.3-2.664-5.652h4.032c.216 1.296.744 2.316 1.584 3.06.864.744 1.956 1.116 3.276 1.116 1.632 0 2.856-.492 3.672-1.476.816-.984 1.224-2.292 1.224-3.924 0-1.536-.42-2.736-1.26-3.6-.84-.888-2.04-1.332-3.6-1.332-1.104 0-2.076.24-2.916.72-.816.48-1.416 1.116-1.8 1.908h-3.996V36.188h16.344v3.636zm22.465 11.088h-7.2v7.272H97.53v-7.272h-7.164v-3.78h7.164v-7.308h3.996v7.308h7.2v3.78z"/>
    <path fill="#000" d="M7.33 121.166c1.561 0 2.857.396 3.889 1.188 1.032.792 1.728 1.866 2.088 3.222h-2.178c-.3-.768-.78-1.374-1.44-1.818-.648-.456-1.446-.684-2.394-.684-.756 0-1.434.186-2.034.558-.588.372-1.056.906-1.404 1.602-.336.684-.504 1.488-.504 2.412 0 .912.168 1.716.504 2.412.348.684.816 1.212 1.404 1.584.6.372 1.278.558 2.034.558.948 0 1.746-.222 2.394-.666.66-.456 1.14-1.062 1.44-1.818h2.178c-.36 1.356-1.056 2.43-2.088 3.222-1.032.78-2.328 1.17-3.888 1.17-1.2 0-2.262-.27-3.186-.81-.924-.552-1.638-1.314-2.142-2.286-.504-.984-.756-2.106-.756-3.366 0-1.26.252-2.376.756-3.348.504-.984 1.218-1.752 2.142-2.304.924-.552 1.986-.828 3.186-.828zm12.56 2.79c.96 0 1.824.204 2.592.612.768.408 1.368.996 1.8 1.764.432.768.648 1.668.648 2.7 0 1.044-.216 1.95-.648 2.718-.432.768-1.032 1.356-1.8 1.764-.768.408-1.632.612-2.592.612-.96 0-1.824-.204-2.592-.612-.756-.408-1.356-.996-1.8-1.764-.432-.78-.648-1.686-.648-2.718s.216-1.932.648-2.7c.444-.768 1.044-1.356 1.8-1.764.768-.408 1.632-.612 2.592-.612zm0 1.782c-.528 0-1.014.12-1.458.36-.444.24-.804.612-1.08 1.116-.264.492-.396 1.098-.396 1.818 0 .732.132 1.344.396 1.836.276.492.636.858 1.08 1.098.444.24.93.36 1.458.36.528 0 1.014-.12 1.458-.36.444-.24.798-.606 1.062-1.098.276-.492.414-1.104.414-1.836 0-.72-.138-1.326-.414-1.818-.264-.504-.618-.876-1.062-1.116-.444-.24-.93-.36-1.458-.36zm16.157-1.656V134h-2.07v-2.16c-.252.732-.69 1.302-1.314 1.71-.624.396-1.35.594-2.178.594-1.152 0-2.076-.372-2.772-1.116-.696-.744-1.044-1.806-1.044-3.186v-5.76h2.052v5.544c0 .9.228 1.596.684 2.088.456.48 1.08.72 1.872.72.816 0 1.47-.264 1.962-.792s.738-1.296.738-2.304v-5.256h2.07zm8.002-.162c1.152 0 2.076.372 2.772 1.116.696.744 1.044 1.806 1.044 3.186V134h-2.052v-5.562c0-.888-.228-1.572-.684-2.052-.456-.492-1.08-.738-1.872-.738-.816 0-1.47.264-1.962.792-.492.516-.738 1.278-.738 2.286V134h-2.052v-9.918h2.052v2.178c.264-.744.708-1.32 1.332-1.728.624-.408 1.344-.612 2.16-.612zm11.202 8.298V134h-1.26c-1.056 0-1.86-.252-2.413-.756-.54-.516-.81-1.368-.81-2.556v-4.86h-1.422v-1.746h1.423v-2.466h2.07v2.466h2.394v1.746h-2.394v4.896c0 .564.102.954.306 1.17.215.216.587.324 1.115.324h.99zm3.974-6.192c.336-.648.816-1.158 1.44-1.53.624-.384 1.344-.576 2.16-.576v2.232h-.612c-.9 0-1.626.222-2.178.666-.54.432-.81 1.152-.81 2.16V134h-2.052v-9.918h2.052v1.944zm4.85-4.824c0-.348.12-.636.36-.864.24-.228.557-.342.953-.342.396 0 .714.114.954.342.252.228.378.516.378.864s-.126.63-.378.846c-.24.216-.558.324-.954.324-.396 0-.714-.108-.954-.324-.24-.216-.36-.498-.36-.846zm2.34 2.88V134h-2.053v-9.918h2.052zm11.698 4.482c0 .336-.024.63-.072.882H70.41c.036 1.02.318 1.776.846 2.268.528.492 1.182.738 1.962.738.684 0 1.26-.174 1.728-.522.48-.348.774-.81.882-1.386h2.196c-.132.696-.408 1.314-.828 1.854s-.966.966-1.638 1.278c-.672.3-1.422.45-2.25.45-.96 0-1.812-.204-2.556-.612-.732-.408-1.308-.996-1.728-1.764-.42-.768-.63-1.674-.63-2.718 0-1.032.21-1.932.63-2.7.42-.768.996-1.356 1.728-1.764.744-.408 1.596-.612 2.556-.612.972 0 1.818.204 2.538.612.732.396 1.29.948 1.674 1.656.396.696.594 1.476.594 2.34zm-2.07-.054c.024-.648-.09-1.188-.342-1.62-.24-.444-.576-.768-1.008-.972-.42-.216-.882-.324-1.386-.324-.804 0-1.476.246-2.016.738s-.834 1.218-.882 2.178h5.634zm7.31-4.554c1.163 0 2.094.3 2.79.9.707.588 1.14 1.38 1.296 2.376h-1.944c-.085-.54-.319-.972-.703-1.296-.371-.336-.87-.504-1.493-.504-.517 0-.919.126-1.207.378-.275.24-.413.57-.413.99 0 .312.102.564.305.756.205.192.457.342.757.45.311.108.75.228 1.314.36.743.168 1.343.342 1.8.522.468.18.864.468 1.188.864.335.384.503.912.503 1.584 0 .828-.318 1.5-.954 2.016-.623.516-1.47.774-2.537.774-1.237 0-2.239-.288-3.007-.864-.755-.576-1.212-1.38-1.368-2.412h1.998c.06.54.3.978.72 1.314.42.336.973.504 1.657.504.491 0 .875-.126 1.151-.378.288-.264.432-.594.432-.99 0-.348-.108-.624-.324-.828-.215-.204-.485-.36-.81-.468-.324-.12-.767-.24-1.332-.36-.72-.168-1.307-.336-1.763-.504-.445-.168-.829-.438-1.153-.81-.311-.384-.468-.9-.468-1.548 0-.84.313-1.518.937-2.034.636-.528 1.512-.792 2.628-.792zm12.522 2.07c.336-.648.816-1.158 1.44-1.53.624-.384 1.344-.576 2.16-.576v2.232h-.612c-.9 0-1.626.222-2.178.666-.54.432-.81 1.152-.81 2.16V134h-2.052v-9.918h2.052v1.944zm14.354 2.538c0 .336-.024.63-.072.882h-7.632c.036 1.02.318 1.776.846 2.268.528.492 1.182.738 1.962.738.684 0 1.26-.174 1.728-.522.48-.348.774-.81.882-1.386h2.196c-.132.696-.408 1.314-.828 1.854s-.966.966-1.638 1.278c-.672.3-1.422.45-2.25.45-.96 0-1.812-.204-2.556-.612-.732-.408-1.308-.996-1.728-1.764-.42-.768-.63-1.674-.63-2.718 0-1.032.21-1.932.63-2.7.42-.768.996-1.356 1.728-1.764.744-.408 1.596-.612 2.556-.612.972 0 1.818.204 2.538.612.732.396 1.29.948 1.674 1.656.396.696.594 1.476.594 2.34zm-2.07-.054c.024-.648-.09-1.188-.342-1.62-.24-.444-.576-.768-1.008-.972-.42-.216-.882-.324-1.386-.324-.804 0-1.476.246-2.016.738s-.834 1.218-.882 2.178h5.634zm8.029-4.554c.9 0 1.668.222 2.304.666.636.444 1.086 1.032 1.35 1.764v-2.304h2.052V134h-2.052v-2.304c-.264.732-.714 1.32-1.35 1.764-.636.444-1.404.666-2.304.666-.864 0-1.638-.204-2.322-.612-.672-.408-1.2-.996-1.584-1.764-.384-.768-.576-1.674-.576-2.718 0-1.032.192-1.932.576-2.7.384-.768.912-1.356 1.584-1.764.684-.408 1.458-.612 2.322-.612zm.63 1.8c-.912 0-1.644.294-2.196.882-.54.576-.81 1.374-.81 2.394s.27 1.824.81 2.412c.552.576 1.284.864 2.196.864.576 0 1.092-.132 1.548-.396.456-.276.816-.66 1.08-1.152.264-.492.396-1.068.396-1.728 0-.648-.132-1.218-.396-1.71-.264-.504-.624-.888-1.08-1.152-.456-.276-.972-.414-1.548-.414zm11.948-1.8c1.284 0 2.346.342 3.186 1.026.84.672 1.362 1.59 1.566 2.754h-2.178c-.12-.624-.414-1.11-.882-1.458-.456-.36-1.032-.54-1.728-.54-.792 0-1.452.282-1.98.846-.528.552-.792 1.368-.792 2.448 0 1.08.264 1.902.792 2.466.528.564 1.188.846 1.98.846.696 0 1.272-.18 1.728-.54.468-.36.762-.852.882-1.476h2.178c-.204 1.164-.726 2.088-1.566 2.772-.84.684-1.902 1.026-3.186 1.026-.96 0-1.812-.204-2.556-.612-.732-.408-1.308-.996-1.728-1.764-.42-.768-.63-1.674-.63-2.718 0-1.032.21-1.932.63-2.7.42-.768.996-1.356 1.728-1.764.744-.408 1.596-.612 2.556-.612zm12.279-.036c1.152 0 2.076.372 2.772 1.116.696.744 1.044 1.806 1.044 3.186V134h-2.052v-5.562c0-.888-.228-1.572-.684-2.052-.456-.492-1.08-.738-1.872-.738-.816 0-1.47.264-1.962.792-.492.516-.738 1.278-.738 2.286V134h-2.052v-13.32h2.052v5.58c.264-.744.708-1.32 1.332-1.728.624-.408 1.344-.612 2.16-.612zm15.432 4.644c0 .336-.024.63-.072.882h-7.632c.036 1.02.318 1.776.846 2.268.528.492 1.182.738 1.962.738.684 0 1.26-.174 1.728-.522.48-.348.774-.81.882-1.386h2.196c-.132.696-.408 1.314-.828 1.854s-.966.966-1.638 1.278c-.672.3-1.422.45-2.25.45-.96 0-1.812-.204-2.556-.612-.732-.408-1.308-.996-1.728-1.764-.42-.768-.63-1.674-.63-2.718 0-1.032.21-1.932.63-2.7.42-.768.996-1.356 1.728-1.764.744-.408 1.596-.612 2.556-.612.972 0 1.818.204 2.538.612.732.396 1.29.948 1.674 1.656.396.696.594 1.476.594 2.34zm-2.07-.054c.024-.648-.09-1.188-.342-1.62-.24-.444-.576-.768-1.008-.972-.42-.216-.882-.324-1.386-.324-.804 0-1.476.246-2.016.738s-.834 1.218-.882 2.178h5.634zm8.029-4.554c.9 0 1.668.222 2.304.666.636.444 1.08 1.032 1.332 1.764v-5.706h2.07V134h-2.07v-2.304c-.252.732-.696 1.32-1.332 1.764-.636.444-1.404.666-2.304.666-.864 0-1.638-.204-2.322-.612-.672-.408-1.2-.996-1.584-1.764-.384-.768-.576-1.674-.576-2.718 0-1.032.192-1.932.576-2.7.384-.768.912-1.356 1.584-1.764.684-.408 1.458-.612 2.322-.612zm.63 1.8c-.912 0-1.644.294-2.196.882-.54.576-.81 1.374-.81 2.394s.27 1.824.81 2.412c.552.576 1.284.864 2.196.864.576 0 1.092-.132 1.548-.396.456-.276.816-.66 1.08-1.152.264-.492.396-1.068.396-1.728 0-.648-.132-1.218-.396-1.71-.264-.504-.624-.888-1.08-1.152-.456-.276-.972-.414-1.548-.414z"/>
</svg>
