<svg xmlns="http://www.w3.org/2000/svg" width="304" height="304" fill="none" viewBox="0 0 304 304">
    <g clip-path="url(#prefix__clip0)">
        <path fill="#45B14F" d="M0 0H304V304H0z"/>
        <path fill="#fff" d="M186.588 273.808c0 6.336-.96 12.192-2.88 17.568-1.824 5.28-4.416 9.888-7.776 13.824-3.264 3.84-7.152 6.864-11.664 9.072-4.416 2.112-9.264 3.168-14.544 3.168-5.28 0-10.176-1.056-14.688-3.168-4.512-2.208-8.4-5.232-11.664-9.072-3.264-3.936-5.856-8.544-7.776-13.824-1.824-5.376-2.736-11.232-2.736-17.568 0-6.336.912-12.144 2.736-17.424 1.92-5.376 4.512-9.984 7.776-13.824 3.264-3.936 7.152-7.008 11.664-9.216 4.512-2.208 9.408-3.312 14.688-3.312 5.28 0 10.128 1.104 14.544 3.312 4.512 2.208 8.4 5.28 11.664 9.216 3.36 3.84 5.952 8.448 7.776 13.824 1.92 5.28 2.88 11.088 2.88 17.424zm-16.128 0c0-4.32-.528-8.256-1.584-11.808-.96-3.552-2.4-6.624-4.32-9.216-1.824-2.592-4.032-4.56-6.624-5.904-2.496-1.44-5.232-2.16-8.208-2.16-3.168 0-6.048.72-8.64 2.16-2.496 1.344-4.704 3.312-6.624 5.904-1.824 2.592-3.264 5.664-4.32 9.216-.96 3.552-1.44 7.488-1.44 11.808 0 4.32.48 8.256 1.44 11.808 1.056 3.552 2.496 6.624 4.32 9.216 1.92 2.496 4.128 4.464 6.624 5.904 2.592 1.344 5.472 2.016 8.64 2.016 2.976 0 5.712-.672 8.208-2.016 2.592-1.44 4.8-3.408 6.624-5.904 1.92-2.592 3.36-5.664 4.32-9.216 1.056-3.552 1.584-7.488 1.584-11.808zm76.645 8.208c2.976.576 5.712 1.632 8.208 3.168 2.496 1.44 4.608 3.264 6.336 5.472 1.728 2.208 3.072 4.752 4.032 7.632s1.44 6 1.44 9.36c0 4.512-.864 8.544-2.592 12.096-1.632 3.648-4.032 6.768-7.2 9.36-3.072 2.592-6.816 4.56-11.232 5.904-4.416 1.44-9.36 2.16-14.832 2.16-7.296 0-13.728-1.296-19.296-3.888-5.568-2.496-10.032-6.144-13.392-10.944l9.648-10.944c2.304 3.552 5.28 6.336 8.928 8.352 3.648 2.016 8.256 3.024 13.824 3.024 6.336 0 11.184-1.344 14.544-4.032 3.456-2.688 5.184-6.72 5.184-12.096 0-5.568-1.92-9.936-5.76-13.104-3.84-3.168-9.504-4.752-16.992-4.752h-3.888V276.4h4.32c6.432 0 11.376-1.488 14.832-4.464 3.456-3.072 5.184-6.912 5.184-11.52s-1.536-7.968-4.608-10.08c-3.072-2.208-7.056-3.312-11.952-3.312s-9.216 1.056-12.96 3.168c-3.744 2.112-6.72 5.136-8.928 9.072l-9.936-10.8c1.344-2.304 3.168-4.368 5.472-6.192 2.304-1.92 4.896-3.552 7.776-4.896 2.976-1.44 6.144-2.496 9.504-3.168 3.456-.768 7.008-1.152 10.656-1.152 4.704 0 8.976.624 12.816 1.872 3.936 1.248 7.296 2.976 10.08 5.184 2.88 2.208 5.088 4.896 6.624 8.064 1.536 3.168 2.304 6.672 2.304 10.512 0 2.88-.432 5.616-1.296 8.208-.864 2.592-2.112 4.944-3.744 7.056-1.536 2.112-3.408 3.888-5.616 5.328-2.208 1.344-4.704 2.256-7.488 2.736z" opacity=".2"/>
        <path fill="#fff" d="M214.279 56.436V69h-7.02V43.44h5.472l10.26 12.996V43.44h7.02V69h-5.58l-10.152-12.564zm28.66 12.924c-1.704 0-3.204-.264-4.5-.792-1.272-.552-2.352-1.272-3.24-2.16-.864-.912-1.524-1.956-1.98-3.132-.432-1.2-.648-2.448-.648-3.744 0-1.296.216-2.532.648-3.708.456-1.2 1.116-2.244 1.98-3.132.888-.912 1.968-1.632 3.24-2.16 1.296-.552 2.796-.828 4.5-.828 1.68 0 3.168.276 4.464.828 1.296.528 2.376 1.248 3.24 2.16.888.888 1.548 1.932 1.98 3.132.456 1.176.684 2.412.684 3.708 0 1.296-.228 2.544-.684 3.744-.432 1.176-1.092 2.22-1.98 3.132-.864.888-1.944 1.608-3.24 2.16-1.296.528-2.784.792-4.464.792zm-3.348-9.828c0 1.272.312 2.268.936 2.988.624.72 1.428 1.08 2.412 1.08s1.788-.36 2.412-1.08c.624-.72.936-1.716.936-2.988s-.312-2.268-.936-2.988c-.624-.72-1.428-1.08-2.412-1.08s-1.788.36-2.412 1.08c-.624.72-.936 1.716-.936 2.988zm-103.26 44.916c0 1.152-.24 2.148-.72 2.988-.48.816-1.14 1.488-1.98 2.016-.84.528-1.824.924-2.952 1.188-1.104.24-2.28.36-3.528.36h-12.564V85.44h14.832c.888 0 1.692.192 2.412.576.72.384 1.332.888 1.836 1.512.504.6.888 1.296 1.152 2.088.288.768.432 1.56.432 2.376 0 1.2-.312 2.352-.936 3.456-.6 1.08-1.512 1.896-2.736 2.448 1.464.432 2.616 1.188 3.456 2.268.864 1.056 1.296 2.484 1.296 4.284zm-7.128-1.44c0-.624-.168-1.14-.504-1.548-.336-.432-.768-.648-1.296-.648h-5.796v4.284h5.544c.576 0 1.056-.18 1.44-.54.408-.36.612-.876.612-1.548zm-7.596-11.592v3.924h4.788c.48 0 .912-.132 1.296-.396.408-.264.612-.792.612-1.584 0-.696-.168-1.188-.504-1.476-.336-.312-.732-.468-1.188-.468h-5.004zm22.947 19.944c-.936 0-1.812-.156-2.628-.468-.816-.312-1.524-.732-2.124-1.26-.576-.552-1.032-1.2-1.368-1.944-.336-.744-.504-1.548-.504-2.412 0-.96.204-1.836.612-2.628.408-.792.972-1.476 1.692-2.052.72-.576 1.572-1.02 2.556-1.332 1.008-.312 2.112-.468 3.312-.468 1.536 0 2.808.24 3.816.72v-.576c0-.888-.264-1.548-.792-1.98-.504-.432-1.332-.648-2.484-.648-1.08 0-2.076.18-2.988.54-.912.336-1.872.84-2.88 1.512l-1.98-4.248c2.496-1.608 5.34-2.412 8.532-2.412 3.024 0 5.352.672 6.984 2.016 1.632 1.344 2.448 3.36 2.448 6.048v3.672c0 .648.096 1.104.288 1.368.192.24.528.384 1.008.432V111c-.552.12-1.08.204-1.584.252-.48.072-.912.108-1.296.108-1.224 0-2.16-.216-2.808-.648-.624-.456-1.032-1.116-1.224-1.98l-.144-.684c-.84 1.08-1.812 1.908-2.916 2.484-1.104.552-2.28.828-3.528.828zm2.052-4.896c.408 0 .828-.06 1.26-.18.432-.144.816-.324 1.152-.54.264-.192.48-.396.648-.612.168-.24.252-.48.252-.72v-1.404c-.408-.144-.852-.264-1.332-.36-.48-.096-.912-.144-1.296-.144-.84 0-1.536.204-2.088.612-.552.408-.828.924-.828 1.548 0 .528.204.96.612 1.296.432.336.972.504 1.62.504zm26.771-8.568c-1.32 0-2.52.144-3.6.432-1.08.288-1.884.768-2.412 1.44V111h-6.84V92.064h6.264v3.6c.672-1.272 1.5-2.244 2.484-2.916 1.008-.696 2.088-1.044 3.24-1.044.456 0 .744.012.864.036v6.156zm14.976 0c-1.32 0-2.52.144-3.6.432-1.08.288-1.884.768-2.412 1.44V111h-6.84V92.064h6.264v3.6c.672-1.272 1.5-2.244 2.484-2.916 1.008-.696 2.088-1.044 3.24-1.044.456 0 .744.012.864.036v6.156zM190.478 111V92.064h6.84V111h-6.84zm0-20.52v-5.76h6.84v5.76h-6.84zm19.625 20.88c-1.656 0-3.132-.252-4.428-.756-1.296-.528-2.388-1.236-3.276-2.124-.864-.888-1.524-1.908-1.98-3.06-.456-1.152-.684-2.364-.684-3.636 0-1.368.216-2.664.648-3.888.456-1.224 1.116-2.292 1.98-3.204.888-.912 1.968-1.632 3.24-2.16 1.296-.552 2.796-.828 4.5-.828 1.68 0 3.168.276 4.464.828 1.296.528 2.376 1.248 3.24 2.16.888.888 1.548 1.932 1.98 3.132.456 1.176.684 2.412.684 3.708 0 .36-.024.732-.072 1.116-.024.36-.06.684-.108.972h-13.284c.072 1.008.444 1.74 1.116 2.196.672.432 1.404.648 2.196.648.744 0 1.44-.168 2.088-.504.672-.336 1.116-.804 1.332-1.404l5.796 1.656c-.768 1.512-1.956 2.748-3.564 3.708-1.584.96-3.54 1.44-5.868 1.44zm3.024-11.844c-.12-.912-.456-1.632-1.008-2.16-.552-.528-1.26-.792-2.124-.792-.864 0-1.572.264-2.124.792s-.888 1.248-1.008 2.16h6.264zm22.441-1.62c-1.32 0-2.52.144-3.6.432-1.08.288-1.884.768-2.412 1.44V111h-6.84V92.064h6.264v3.6c.672-1.272 1.5-2.244 2.484-2.916 1.008-.696 2.088-1.044 3.24-1.044.456 0 .744.012.864.036v6.156zm9.937 13.464c-1.656 0-3.276-.264-4.86-.792-1.584-.552-2.928-1.344-4.032-2.376l2.34-4.104c1.176.792 2.304 1.404 3.384 1.836 1.104.432 2.112.648 3.024.648.96 0 1.44-.3 1.44-.9 0-.336-.192-.624-.576-.864-.36-.24-1.08-.516-2.16-.828-1.344-.384-2.472-.756-3.384-1.116-.888-.384-1.62-.792-2.196-1.224-.552-.432-.948-.912-1.188-1.44-.24-.528-.36-1.152-.36-1.872 0-.96.192-1.848.576-2.664.384-.816.912-1.524 1.584-2.124.696-.6 1.512-1.056 2.448-1.368.96-.336 2.004-.504 3.132-.504 1.392 0 2.712.18 3.96.54 1.272.36 2.544 1.092 3.816 2.196l-2.592 4.104c-1.176-.768-2.16-1.308-2.952-1.62-.792-.336-1.536-.504-2.232-.504-.408 0-.744.084-1.008.252-.264.144-.396.384-.396.72 0 .36.192.66.576.9.384.216 1.14.468 2.268.756 1.368.36 2.52.744 3.456 1.152.936.384 1.68.816 2.232 1.296.576.456.984.984 1.224 1.584.24.576.36 1.248.36 2.016 0 .984-.18 1.86-.54 2.628-.36.768-.888 1.428-1.584 1.98-.672.552-1.5.972-2.484 1.26-.96.288-2.052.432-3.276.432zM102.435 139.06h1.372l3.92 9.94h-1.652l-1.05-2.702h-3.836L100.153 149h-1.666l3.948-9.94zm2.282 6.076l-1.596-4.27-1.652 4.27h3.248zM115.326 149h-1.54v-4.102c0-.691-.112-1.19-.336-1.498-.215-.317-.537-.476-.966-.476-.224 0-.448.042-.672.126-.224.084-.434.205-.63.364-.196.149-.373.331-.532.546-.149.205-.266.434-.35.686V149h-1.54v-7.322h1.4v1.47c.28-.495.686-.882 1.218-1.162.532-.289 1.12-.434 1.764-.434.439 0 .798.079 1.078.238.28.159.499.378.658.658.168.271.285.588.35.952.065.355.098.733.098 1.134V149zm1.875 1.722c.14.028.276.051.406.07.14.019.252.028.336.028.122 0 .224-.028.308-.084.094-.047.187-.135.28-.266.094-.131.187-.317.28-.56.103-.233.22-.537.35-.91l-3.01-7.322h1.582l2.268 5.964 2.016-5.964h1.456l-3.318 9.016c-.149.42-.41.77-.784 1.05-.364.289-.835.434-1.414.434-.112 0-.228-.009-.35-.028-.121-.009-.256-.037-.406-.084v-1.344zm10.449-1.582c-.579 0-1.102-.103-1.568-.308-.458-.205-.85-.481-1.176-.826-.327-.345-.579-.747-.756-1.204-.178-.467-.266-.952-.266-1.456s.088-.985.266-1.442c.177-.467.429-.873.756-1.218.336-.345.732-.621 1.19-.826.466-.205.984-.308 1.554-.308.569 0 1.082.103 1.54.308.466.205.863.481 1.19.826.336.345.592.751.77 1.218.177.457.266.938.266 1.442s-.089.989-.266 1.456c-.178.457-.434.859-.77 1.204-.327.345-.724.621-1.19.826-.458.205-.971.308-1.54.308zm-2.184-3.78c0 .355.056.681.168.98.112.299.266.56.462.784.196.215.424.387.686.518.27.121.56.182.868.182.308 0 .592-.061.854-.182.27-.131.504-.308.7-.532.196-.224.35-.485.462-.784.112-.299.168-.625.168-.98 0-.345-.056-.667-.168-.966-.112-.308-.266-.574-.462-.798-.196-.224-.43-.397-.7-.518-.262-.131-.546-.196-.854-.196-.299 0-.584.065-.854.196-.262.131-.49.308-.686.532-.196.224-.355.49-.476.798-.112.299-.168.621-.168.966zm13.881 3.64h-1.54v-4.102c0-.691-.112-1.19-.336-1.498-.214-.317-.536-.476-.966-.476-.224 0-.448.042-.672.126-.224.084-.434.205-.63.364-.196.149-.373.331-.532.546-.149.205-.266.434-.35.686V149h-1.54v-7.322h1.4v1.47c.28-.495.686-.882 1.218-1.162.532-.289 1.12-.434 1.764-.434.439 0 .798.079 1.078.238.28.159.5.378.658.658.168.271.285.588.35.952.066.355.098.733.098 1.134V149zm5.106.14c-.569 0-1.087-.098-1.554-.294-.467-.205-.868-.481-1.204-.826-.327-.345-.583-.747-.77-1.204-.177-.457-.266-.943-.266-1.456s.089-.999.266-1.456c.187-.467.443-.873.77-1.218.336-.355.737-.63 1.204-.826.467-.205.989-.308 1.568-.308.569 0 1.083.103 1.54.308.467.205.863.481 1.19.826.327.336.574.733.742 1.19.177.448.266.919.266 1.414 0 .112-.005.219-.014.322-.009.093-.019.173-.028.238h-5.866c.028.327.103.621.224.882.131.261.294.49.49.686.205.187.434.331.686.434.261.103.532.154.812.154.205 0 .406-.023.602-.07.205-.056.392-.131.56-.224.168-.103.317-.224.448-.364.131-.14.233-.294.308-.462l1.316.378c-.252.551-.672 1.003-1.26 1.358-.579.345-1.255.518-2.03.518zm2.226-4.354c-.028-.308-.107-.593-.238-.854-.121-.261-.28-.481-.476-.658-.196-.187-.425-.331-.686-.434-.261-.103-.537-.154-.826-.154-.289 0-.565.051-.826.154-.252.103-.476.247-.672.434-.196.177-.355.397-.476.658s-.196.546-.224.854h4.424zm5.765.546c0-.513.089-.999.266-1.456.177-.457.429-.859.756-1.204.336-.345.737-.616 1.204-.812.467-.205.989-.308 1.568-.308.756 0 1.405.168 1.946.504.551.327.961.765 1.232 1.316l-1.498.476c-.177-.308-.415-.546-.714-.714-.299-.177-.63-.266-.994-.266-.308 0-.597.061-.868.182-.261.121-.49.294-.686.518-.196.215-.35.471-.462.77-.112.299-.168.63-.168.994 0 .355.056.686.168.994.121.299.28.56.476.784.205.224.439.401.7.532.271.121.555.182.854.182.187 0 .373-.023.56-.07.187-.056.355-.131.504-.224.159-.093.294-.201.406-.322.121-.121.21-.252.266-.392l1.512.448c-.243.551-.649 1.003-1.218 1.358-.569.345-1.241.518-2.016.518-.569 0-1.087-.103-1.554-.308-.467-.205-.868-.481-1.204-.826-.327-.355-.583-.761-.77-1.218-.177-.457-.266-.943-.266-1.456zm10.242 3.808c-.354 0-.686-.056-.994-.168-.298-.121-.56-.285-.784-.49-.214-.205-.387-.448-.518-.728-.121-.28-.182-.583-.182-.91 0-.345.075-.658.224-.938.15-.28.36-.523.63-.728.28-.205.607-.364.98-.476.383-.112.803-.168 1.26-.168.346 0 .686.033 1.022.098.336.056.64.135.91.238v-.504c0-.541-.154-.961-.462-1.26-.308-.308-.751-.462-1.33-.462-.392 0-.779.075-1.162.224-.373.14-.76.345-1.162.616l-.476-.98c.943-.635 1.923-.952 2.94-.952 1.008 0 1.792.257 2.352.77.56.513.84 1.251.84 2.212v2.646c0 .327.136.495.406.504V149c-.149.028-.28.047-.392.056-.102.009-.205.014-.308.014-.298 0-.532-.075-.7-.224-.158-.149-.256-.341-.294-.574l-.042-.462c-.326.429-.732.761-1.218.994-.476.224-.989.336-1.54.336zm.42-1.134c.374 0 .724-.065 1.05-.196.336-.14.598-.331.784-.574.196-.168.294-.345.294-.532v-.966c-.261-.103-.541-.182-.84-.238-.289-.056-.574-.084-.854-.084-.55 0-1.003.121-1.358.364-.345.233-.518.546-.518.938 0 .364.136.672.406.924.271.243.616.364 1.036.364zm12.103.994h-1.54v-4.102c0-.691-.112-1.19-.336-1.498-.215-.317-.537-.476-.966-.476-.224 0-.448.042-.672.126-.224.084-.434.205-.63.364-.196.149-.374.331-.532.546-.15.205-.266.434-.35.686V149h-1.54v-7.322h1.4v1.47c.28-.495.686-.882 1.218-1.162.532-.289 1.12-.434 1.764-.434.438 0 .798.079 1.078.238.28.159.499.378.658.658.168.271.284.588.35.952.065.355.098.733.098 1.134V149zm9.194.14c-.56 0-1.068-.131-1.526-.392-.448-.271-.802-.63-1.064-1.078V149h-1.358v-10.22h1.54v4.284c.29-.467.649-.835 1.078-1.106.439-.271.952-.406 1.54-.406.486 0 .929.107 1.33.322.402.205.742.485 1.022.84.29.345.509.751.658 1.218.159.457.238.938.238 1.442 0 .523-.088 1.013-.266 1.47-.177.457-.42.859-.728 1.204-.308.336-.676.602-1.106.798-.42.196-.872.294-1.358.294zm-.406-1.316c.336 0 .644-.065.924-.196.28-.14.518-.322.714-.546.206-.224.364-.481.476-.77.112-.299.168-.611.168-.938 0-.327-.056-.639-.168-.938-.102-.308-.252-.574-.448-.798-.186-.233-.415-.42-.686-.56-.261-.14-.55-.21-.868-.21-.476 0-.9.154-1.274.462-.364.308-.644.681-.84 1.12v1.932c.056.215.154.411.294.588.14.168.304.317.49.448.187.131.388.233.602.308.215.065.42.098.616.098zm8.567 1.316c-.569 0-1.087-.098-1.554-.294-.466-.205-.868-.481-1.204-.826-.326-.345-.583-.747-.77-1.204-.177-.457-.266-.943-.266-1.456s.089-.999.266-1.456c.187-.467.444-.873.77-1.218.336-.355.738-.63 1.204-.826.467-.205.99-.308 1.568-.308.57 0 1.083.103 1.54.308.467.205.864.481 1.19.826.327.336.574.733.742 1.19.178.448.266.919.266 1.414 0 .112-.004.219-.014.322-.009.093-.018.173-.028.238h-5.866c.028.327.103.621.224.882.131.261.294.49.49.686.206.187.434.331.686.434.262.103.532.154.812.154.206 0 .406-.023.602-.07.206-.056.392-.131.56-.224.168-.103.318-.224.448-.364.131-.14.234-.294.308-.462l1.316.378c-.252.551-.672 1.003-1.26 1.358-.578.345-1.255.518-2.03.518zm2.226-4.354c-.028-.308-.107-.593-.238-.854-.121-.261-.28-.481-.476-.658-.196-.187-.424-.331-.686-.434-.261-.103-.536-.154-.826-.154-.289 0-.564.051-.826.154-.252.103-.476.247-.672.434-.196.177-.354.397-.476.658-.121.261-.196.546-.224.854h4.424zm8.187 4.354c-.354 0-.686-.056-.994-.168-.298-.121-.56-.285-.784-.49-.214-.205-.387-.448-.518-.728-.121-.28-.182-.583-.182-.91 0-.345.075-.658.224-.938.15-.28.36-.523.63-.728.28-.205.607-.364.98-.476.383-.112.803-.168 1.26-.168.346 0 .686.033 1.022.098.336.056.64.135.91.238v-.504c0-.541-.154-.961-.462-1.26-.308-.308-.751-.462-1.33-.462-.392 0-.779.075-1.162.224-.373.14-.76.345-1.162.616l-.476-.98c.943-.635 1.923-.952 2.94-.952 1.008 0 1.792.257 2.352.77.56.513.84 1.251.84 2.212v2.646c0 .327.136.495.406.504V149c-.149.028-.28.047-.392.056-.102.009-.205.014-.308.014-.298 0-.532-.075-.7-.224-.158-.149-.256-.341-.294-.574l-.042-.462c-.326.429-.732.761-1.218.994-.476.224-.989.336-1.54.336zm.42-1.134c.374 0 .724-.065 1.05-.196.336-.14.598-.331.784-.574.196-.168.294-.345.294-.532v-.966c-.261-.103-.541-.182-.84-.238-.289-.056-.574-.084-.854-.084-.55 0-1.003.121-1.358.364-.345.233-.518.546-.518.938 0 .364.136.672.406.924.271.243.616.364 1.036.364zm13.154 1.134c-.588 0-1.106-.14-1.554-.42-.448-.28-.803-.644-1.064-1.092v4.354h-1.54v-10.304h1.358v1.316c.28-.439.639-.789 1.078-1.05.448-.261.952-.392 1.512-.392.504 0 .966.103 1.386.308.42.205.784.481 1.092.826.308.345.546.747.714 1.204.177.457.266.938.266 1.442 0 .532-.08 1.031-.238 1.498-.159.457-.383.859-.672 1.204-.29.336-.635.607-1.036.812-.392.196-.826.294-1.302.294zm-.504-1.316c.326 0 .62-.07.882-.21.27-.14.499-.327.686-.56.196-.233.345-.499.448-.798.102-.299.154-.607.154-.924 0-.336-.061-.653-.182-.952-.112-.299-.271-.56-.476-.784-.196-.224-.434-.401-.714-.532-.28-.131-.584-.196-.91-.196-.196 0-.402.037-.616.112-.215.075-.416.177-.602.308-.187.131-.35.285-.49.462-.14.168-.238.355-.294.56v1.918c.093.224.214.434.364.63.149.196.312.364.49.504.186.14.387.252.602.336.214.084.434.126.658.126zm7.083 1.316c-.355 0-.686-.056-.994-.168-.299-.121-.56-.285-.784-.49-.215-.205-.388-.448-.518-.728-.122-.28-.182-.583-.182-.91 0-.345.074-.658.224-.938.149-.28.359-.523.63-.728.28-.205.606-.364.98-.476.382-.112.802-.168 1.26-.168.345 0 .686.033 1.022.098.336.056.639.135.91.238v-.504c0-.541-.154-.961-.462-1.26-.308-.308-.752-.462-1.33-.462-.392 0-.78.075-1.162.224-.374.14-.761.345-1.162.616l-.476-.98c.942-.635 1.922-.952 2.94-.952 1.008 0 1.792.257 2.352.77.56.513.84 1.251.84 2.212v2.646c0 .327.135.495.406.504V149c-.15.028-.28.047-.392.056-.103.009-.206.014-.308.014-.299 0-.532-.075-.7-.224-.159-.149-.257-.341-.294-.574l-.042-.462c-.327.429-.733.761-1.218.994-.476.224-.99.336-1.54.336zm.42-1.134c.373 0 .723-.065 1.05-.196.336-.14.597-.331.784-.574.196-.168.294-.345.294-.532v-.966c-.262-.103-.542-.182-.84-.238-.29-.056-.574-.084-.854-.084-.551 0-1.004.121-1.358.364-.346.233-.518.546-.518.938 0 .364.135.672.406.924.27.243.616.364 1.036.364zm9.652-4.998c-.597.019-1.129.159-1.596.42-.457.252-.784.616-.98 1.092V149h-1.54v-7.322h1.428v1.638c.252-.504.579-.905.98-1.204.411-.308.849-.476 1.316-.504h.224c.065 0 .121.005.168.014v1.386zm5.194 5.614c-.196.093-.466.201-.812.322-.345.112-.714.168-1.106.168-.242 0-.471-.033-.686-.098-.214-.065-.406-.163-.574-.294-.158-.131-.284-.299-.378-.504-.093-.215-.14-.471-.14-.77v-4.578h-.966v-1.19h.966v-2.408h1.54v2.408h1.596v1.19h-1.596v4.088c.019.261.098.453.238.574.15.112.332.168.546.168.215 0 .42-.037.616-.112.196-.075.341-.135.434-.182l.322 1.218zm7.816.518c-.579 0-1.101-.103-1.568-.308-.457-.205-.849-.481-1.176-.826-.327-.345-.579-.747-.756-1.204-.177-.467-.266-.952-.266-1.456s.089-.985.266-1.442c.177-.467.429-.873.756-1.218.336-.345.733-.621 1.19-.826.467-.205.985-.308 1.554-.308.569 0 1.083.103 1.54.308.467.205.863.481 1.19.826.336.345.593.751.77 1.218.177.457.266.938.266 1.442s-.089.989-.266 1.456c-.177.457-.434.859-.77 1.204-.327.345-.723.621-1.19.826-.457.205-.971.308-1.54.308zm-2.184-3.78c0 .355.056.681.168.98.112.299.266.56.462.784.196.215.425.387.686.518.271.121.56.182.868.182.308 0 .593-.061.854-.182.271-.131.504-.308.7-.532.196-.224.35-.485.462-.784.112-.299.168-.625.168-.98 0-.345-.056-.667-.168-.966-.112-.308-.266-.574-.462-.798-.196-.224-.429-.397-.7-.518-.261-.131-.546-.196-.854-.196-.299 0-.583.065-.854.196-.261.131-.49.308-.686.532-.196.224-.355.49-.476.798-.112.299-.168.621-.168.966zm7.627 3.64v-5.95h-.98v-1.19h.98v-.294c0-.905.21-1.619.63-2.142.42-.523.989-.784 1.708-.784.298 0 .592.042.882.126.289.075.564.182.826.322l-.336 1.148c-.14-.084-.308-.154-.504-.21-.187-.056-.369-.084-.546-.084-.364 0-.644.135-.84.406-.187.271-.28.663-.28 1.176v.336h1.876v1.19h-1.876V149h-1.54zM84.864 163.796l6.034-7.35h-5.894v-1.386h7.728v1.204l-5.894 7.35h5.908V165h-7.882v-1.204zM94.088 165v-1.792h1.274V165h-1.274zm2.343-5.04c0-.597.108-1.19.322-1.778.215-.597.528-1.129.938-1.596.42-.476.93-.859 1.526-1.148.598-.289 1.274-.434 2.03-.434.906 0 1.68.201 2.324.602.644.401 1.13.924 1.456 1.568l-1.232.826c-.14-.299-.308-.551-.504-.756-.196-.205-.41-.369-.644-.49-.233-.121-.476-.205-.728-.252-.252-.056-.494-.084-.728-.084-.522 0-.98.107-1.372.322-.392.205-.723.481-.994.826-.26.345-.462.733-.602 1.162-.13.429-.196.859-.196 1.288 0 .485.08.947.238 1.386.16.439.378.826.658 1.162.29.336.63.607 1.022.812.392.196.822.294 1.288.294.243 0 .49-.028.742-.084.262-.065.509-.163.742-.294.243-.14.462-.313.658-.518.206-.205.374-.453.504-.742l1.302.742c-.158.373-.382.705-.672.994-.289.28-.616.518-.98.714-.364.196-.751.345-1.162.448-.401.103-.798.154-1.19.154-.7 0-1.339-.149-1.918-.448-.578-.299-1.078-.686-1.498-1.162-.42-.485-.746-1.031-.98-1.638-.233-.616-.35-1.241-.35-1.876zm13.295 5.18c-.579 0-1.102-.103-1.568-.308-.458-.205-.85-.481-1.176-.826-.327-.345-.579-.747-.756-1.204-.178-.467-.266-.952-.266-1.456s.088-.985.266-1.442c.177-.467.429-.873.756-1.218.336-.345.732-.621 1.19-.826.466-.205.984-.308 1.554-.308.569 0 1.082.103 1.54.308.466.205.863.481 1.19.826.336.345.592.751.77 1.218.177.457.266.938.266 1.442s-.089.989-.266 1.456c-.178.457-.434.859-.77 1.204-.327.345-.724.621-1.19.826-.458.205-.971.308-1.54.308zm-2.184-3.78c0 .355.056.681.168.98.112.299.266.56.462.784.196.215.424.387.686.518.27.121.56.182.868.182.308 0 .592-.061.854-.182.27-.131.504-.308.7-.532.196-.224.35-.485.462-.784.112-.299.168-.625.168-.98 0-.345-.056-.667-.168-.966-.112-.308-.266-.574-.462-.798-.196-.224-.43-.397-.7-.518-.262-.131-.546-.196-.854-.196-.299 0-.584.065-.854.196-.262.131-.49.308-.686.532-.196.224-.355.49-.476.798-.112.299-.168.621-.168.966zm18.516 3.64h-1.54v-4.102c0-.681-.112-1.181-.336-1.498-.224-.317-.551-.476-.98-.476-.439 0-.84.163-1.204.49-.355.317-.612.733-.77 1.246V165h-1.54v-4.102c0-.691-.112-1.19-.336-1.498-.224-.317-.546-.476-.966-.476-.439 0-.84.159-1.204.476-.364.317-.626.733-.784 1.246V165h-1.54v-7.322h1.4v1.47c.289-.513.667-.905 1.134-1.176.476-.28 1.017-.42 1.624-.42.606 0 1.082.159 1.428.476.354.317.574.714.658 1.19.308-.541.695-.952 1.162-1.232.466-.289.998-.434 1.596-.434.429 0 .784.084 1.064.252.289.159.518.373.686.644.168.271.284.588.35.952.065.355.098.733.098 1.134V165zm12.974 0h-1.54v-4.102c0-.681-.112-1.181-.336-1.498-.224-.317-.55-.476-.98-.476-.438 0-.84.163-1.204.49-.354.317-.611.733-.77 1.246V165h-1.54v-4.102c0-.691-.112-1.19-.336-1.498-.224-.317-.546-.476-.966-.476-.438 0-.84.159-1.204.476-.364.317-.625.733-.784 1.246V165h-1.54v-7.322h1.4v1.47c.29-.513.668-.905 1.134-1.176.476-.28 1.018-.42 1.624-.42.607 0 1.083.159 1.428.476.355.317.574.714.658 1.19.308-.541.696-.952 1.162-1.232.467-.289.999-.434 1.596-.434.43 0 .784.084 1.064.252.29.159.518.373.686.644.168.271.285.588.35.952.066.355.098.733.098 1.134V165zm4.029.14c-.766 0-1.344-.247-1.736-.742-.392-.504-.588-1.251-.588-2.24v-4.48h1.54v4.172c0 1.316.466 1.974 1.4 1.974.438 0 .854-.135 1.246-.406s.695-.663.91-1.176v-4.564h1.54v5.502c0 .177.028.303.084.378.065.075.177.117.336.126V165c-.159.028-.29.047-.392.056-.103.009-.201.014-.294.014-.28 0-.518-.075-.714-.224-.196-.159-.299-.359-.308-.602l-.028-.728c-.327.532-.752.938-1.274 1.218-.523.271-1.097.406-1.722.406zm12.843-.14h-1.54v-4.102c0-.691-.112-1.19-.336-1.498-.215-.317-.537-.476-.966-.476-.224 0-.448.042-.672.126-.224.084-.434.205-.63.364-.196.149-.373.331-.532.546-.149.205-.266.434-.35.686V165h-1.54v-7.322h1.4v1.47c.28-.495.686-.882 1.218-1.162.532-.289 1.12-.434 1.764-.434.439 0 .798.079 1.078.238.28.159.499.378.658.658.168.271.285.588.35.952.065.355.098.733.098 1.134V165zm1.788 0v-7.322h1.54V165h-1.54zm0-8.526v-1.694h1.54v1.694h-1.54zm7.464 8.148c-.196.093-.466.201-.812.322-.345.112-.714.168-1.106.168-.242 0-.471-.033-.686-.098-.214-.065-.406-.163-.574-.294-.158-.131-.284-.299-.378-.504-.093-.215-.14-.471-.14-.77v-4.578h-.966v-1.19h.966v-2.408H163v2.408h1.596v1.19H163v4.088c.019.261.098.453.238.574.15.112.332.168.546.168.215 0 .42-.037.616-.112.196-.075.341-.135.434-.182l.322 1.218zm1.319 2.1c.14.028.275.051.406.07.14.019.252.028.336.028.121 0 .224-.028.308-.084.093-.047.186-.135.28-.266.093-.131.186-.317.28-.56.102-.233.219-.537.35-.91l-3.01-7.322h1.582l2.268 5.964 2.016-5.964h1.456l-3.318 9.016c-.15.42-.411.77-.784 1.05-.364.289-.836.434-1.414.434-.112 0-.229-.009-.35-.028-.122-.009-.257-.037-.406-.084v-1.344zm6.664-1.722v-1.792h1.274V165h-1.274zm8.274-7v7h-1.568v-9.94h1.232l5.684 7.168v-7.154h1.582V165h-1.302l-5.628-7zm12.162 7.14c-.578 0-1.101-.103-1.568-.308-.457-.205-.849-.481-1.176-.826-.326-.345-.578-.747-.756-1.204-.177-.467-.266-.952-.266-1.456s.089-.985.266-1.442c.178-.467.43-.873.756-1.218.336-.345.733-.621 1.19-.826.467-.205.985-.308 1.554-.308.57 0 1.083.103 1.54.308.467.205.864.481 1.19.826.336.345.593.751.77 1.218.178.457.266.938.266 1.442s-.088.989-.266 1.456c-.177.457-.434.859-.77 1.204-.326.345-.723.621-1.19.826-.457.205-.97.308-1.54.308zm-2.184-3.78c0 .355.056.681.168.98.112.299.266.56.462.784.196.215.425.387.686.518.271.121.56.182.868.182.308 0 .593-.061.854-.182.271-.131.504-.308.7-.532.196-.224.35-.485.462-.784.112-.299.168-.625.168-.98 0-.345-.056-.667-.168-.966-.112-.308-.266-.574-.462-.798-.196-.224-.429-.397-.7-.518-.261-.131-.546-.196-.854-.196-.298 0-.583.065-.854.196-.261.131-.49.308-.686.532-.196.224-.354.49-.476.798-.112.299-.168.621-.168.966zm10.299-.028c0-.513.089-.999.266-1.456.178-.457.43-.859.756-1.204.336-.345.738-.616 1.204-.812.467-.205.99-.308 1.568-.308.756 0 1.405.168 1.946.504.551.327.962.765 1.232 1.316l-1.498.476c-.177-.308-.415-.546-.714-.714-.298-.177-.63-.266-.994-.266-.308 0-.597.061-.868.182-.261.121-.49.294-.686.518-.196.215-.35.471-.462.77-.112.299-.168.63-.168.994 0 .355.056.686.168.994.122.299.28.56.476.784.206.224.439.401.7.532.271.121.556.182.854.182.187 0 .374-.023.56-.07.187-.056.355-.131.504-.224.159-.093.294-.201.406-.322.122-.121.21-.252.266-.392l1.512.448c-.242.551-.648 1.003-1.218 1.358-.569.345-1.241.518-2.016.518-.569 0-1.087-.103-1.554-.308-.466-.205-.868-.481-1.204-.826-.326-.355-.583-.761-.77-1.218-.177-.457-.266-.943-.266-1.456zm11.518 3.808c-.579 0-1.101-.103-1.568-.308-.457-.205-.849-.481-1.176-.826-.327-.345-.579-.747-.756-1.204-.177-.467-.266-.952-.266-1.456s.089-.985.266-1.442c.177-.467.429-.873.756-1.218.336-.345.733-.621 1.19-.826.467-.205.985-.308 1.554-.308.569 0 1.083.103 1.54.308.467.205.863.481 1.19.826.336.345.593.751.77 1.218.177.457.266.938.266 1.442s-.089.989-.266 1.456c-.177.457-.434.859-.77 1.204-.327.345-.723.621-1.19.826-.457.205-.971.308-1.54.308zm-2.184-3.78c0 .355.056.681.168.98.112.299.266.56.462.784.196.215.425.387.686.518.271.121.56.182.868.182.308 0 .593-.061.854-.182.271-.131.504-.308.7-.532.196-.224.35-.485.462-.784.112-.299.168-.625.168-.98 0-.345-.056-.667-.168-.966-.112-.308-.266-.574-.462-.798-.196-.224-.429-.397-.7-.518-.261-.131-.546-.196-.854-.196-.299 0-.583.065-.854.196-.261.131-.49.308-.686.532-.196.224-.355.49-.476.798-.112.299-.168.621-.168.966zm9.976 3.78c-.588 0-1.176-.093-1.764-.28-.579-.196-1.078-.471-1.498-.826l.616-.98c.439.317.873.56 1.302.728.429.159.868.238 1.316.238.457 0 .817-.089 1.078-.266.271-.177.406-.429.406-.756 0-.308-.149-.532-.448-.672-.299-.14-.765-.294-1.4-.462-.457-.121-.849-.238-1.176-.35-.327-.112-.593-.243-.798-.392-.205-.149-.355-.322-.448-.518-.093-.196-.14-.434-.14-.714 0-.373.07-.705.21-.994.149-.289.35-.532.602-.728.261-.205.565-.359.91-.462.345-.103.719-.154 1.12-.154.551 0 1.064.084 1.54.252.476.168.901.411 1.274.728l-.658.924c-.681-.541-1.405-.812-2.17-.812-.392 0-.723.084-.994.252-.261.159-.392.415-.392.77 0 .149.028.275.084.378.056.103.145.191.266.266.131.075.294.145.49.21.205.056.457.121.756.196.495.121.919.243 1.274.364.364.121.663.266.896.434.233.159.406.35.518.574.112.215.168.476.168.784 0 .7-.266 1.255-.798 1.666-.523.401-1.237.602-2.142.602zm8.359-.518c-.196.093-.466.201-.812.322-.345.112-.714.168-1.106.168-.242 0-.471-.033-.686-.098-.214-.065-.406-.163-.574-.294-.158-.131-.284-.299-.378-.504-.093-.215-.14-.471-.14-.77v-4.578h-.966v-1.19h.966v-2.408h1.54v2.408h1.596v1.19h-1.596v4.088c.019.261.098.453.238.574.15.112.332.168.546.168.215 0 .42-.037.616-.112.196-.075.341-.135.434-.182l.322 1.218zm.997.378v-1.792h1.274V165h-1.274zm8.273-7v7h-1.568v-9.94h1.232l5.684 7.168v-7.154h1.582V165h-1.302l-5.628-7zm12.163 7.14c-.579 0-1.101-.103-1.568-.308-.457-.205-.849-.481-1.176-.826-.327-.345-.579-.747-.756-1.204-.177-.467-.266-.952-.266-1.456s.089-.985.266-1.442c.177-.467.429-.873.756-1.218.336-.345.733-.621 1.19-.826.467-.205.985-.308 1.554-.308.569 0 1.083.103 1.54.308.467.205.863.481 1.19.826.336.345.593.751.77 1.218.177.457.266.938.266 1.442s-.089.989-.266 1.456c-.177.457-.434.859-.77 1.204-.327.345-.723.621-1.19.826-.457.205-.971.308-1.54.308zm-2.184-3.78c0 .355.056.681.168.98.112.299.266.56.462.784.196.215.425.387.686.518.271.121.56.182.868.182.308 0 .593-.061.854-.182.271-.131.504-.308.7-.532.196-.224.35-.485.462-.784.112-.299.168-.625.168-.98 0-.345-.056-.667-.168-.966-.112-.308-.266-.574-.462-.798-.196-.224-.429-.397-.7-.518-.261-.131-.546-.196-.854-.196-.299 0-.583.065-.854.196-.261.131-.49.308-.686.532-.196.224-.355.49-.476.798-.112.299-.168.621-.168.966zM63.316 181.14c-.588 0-1.106-.14-1.554-.42-.448-.28-.802-.644-1.064-1.092v4.354h-1.54v-10.304h1.358v1.316c.28-.439.64-.789 1.078-1.05.448-.261.952-.392 1.512-.392.504 0 .966.103 1.386.308.42.205.784.481 1.092.826.308.345.546.747.714 1.204.178.457.266.938.266 1.442 0 .532-.079 1.031-.238 1.498-.158.457-.382.859-.672 1.204-.289.336-.634.607-1.036.812-.392.196-.826.294-1.302.294zm-.504-1.316c.327 0 .621-.07.882-.21.271-.14.5-.327.686-.56.196-.233.346-.499.448-.798.103-.299.154-.607.154-.924 0-.336-.06-.653-.182-.952-.112-.299-.27-.56-.476-.784-.196-.224-.434-.401-.714-.532-.28-.131-.583-.196-.91-.196-.196 0-.401.037-.616.112-.214.075-.415.177-.602.308-.186.131-.35.285-.49.462-.14.168-.238.355-.294.56v1.918c.094.224.215.434.364.63.15.196.313.364.49.504.187.14.388.252.602.336.215.084.434.126.658.126zm9.253-4.816c-.597.019-1.129.159-1.596.42-.457.252-.784.616-.98 1.092V181h-1.54v-7.322h1.428v1.638c.252-.504.58-.905.98-1.204.411-.308.85-.476 1.316-.504h.224c.066 0 .122.005.168.014v1.386zm4.07 6.132c-.57 0-1.088-.098-1.554-.294-.467-.205-.868-.481-1.204-.826-.327-.345-.584-.747-.77-1.204-.178-.457-.266-.943-.266-1.456s.088-.999.266-1.456c.186-.467.443-.873.77-1.218.336-.355.737-.63 1.204-.826.466-.205.989-.308 1.568-.308.569 0 1.082.103 1.54.308.466.205.863.481 1.19.826.326.336.574.733.742 1.19.177.448.266.919.266 1.414 0 .112-.005.219-.014.322l-.028.238h-5.866c.028.327.102.621.224.882.13.261.294.49.49.686.205.187.434.331.686.434.26.103.532.154.812.154.205 0 .406-.023.602-.07.205-.056.392-.131.56-.224.168-.103.317-.224.448-.364.13-.14.233-.294.308-.462l1.316.378c-.252.551-.672 1.003-1.26 1.358-.58.345-1.256.518-2.03.518zm2.226-4.354c-.028-.308-.108-.593-.238-.854-.122-.261-.28-.481-.476-.658-.196-.187-.425-.331-.686-.434-.262-.103-.537-.154-.826-.154-.29 0-.565.051-.826.154-.252.103-.476.247-.672.434-.196.177-.355.397-.476.658-.122.261-.196.546-.224.854h4.424zm2.712 1.078v-1.386h4.186v1.386h-4.186zm10.078-2.856c-.597.019-1.129.159-1.596.42-.457.252-.784.616-.98 1.092V181h-1.54v-7.322h1.428v1.638c.252-.504.579-.905.98-1.204.411-.308.85-.476 1.316-.504h.224c.066 0 .122.005.168.014v1.386zm4.07 6.132c-.57 0-1.088-.098-1.555-.294-.466-.205-.867-.481-1.203-.826-.327-.345-.584-.747-.77-1.204-.178-.457-.266-.943-.266-1.456s.088-.999.265-1.456c.187-.467.444-.873.77-1.218.337-.355.738-.63 1.204-.826.467-.205.99-.308 1.569-.308.569 0 1.082.103 1.54.308.466.205.863.481 1.19.826.326.336.573.733.742 1.19.177.448.266.919.266 1.414 0 .112-.005.219-.014.322-.01.093-.02.173-.029.238h-5.866c.029.327.103.621.225.882.13.261.293.49.49.686.205.187.434.331.686.434.26.103.531.154.811.154.206 0 .407-.023.603-.07.205-.056.391-.131.56-.224.168-.103.317-.224.448-.364.13-.14.233-.294.308-.462l1.316.378c-.252.551-.672 1.003-1.26 1.358-.58.345-1.256.518-2.03.518zm2.225-4.354c-.028-.308-.107-.593-.237-.854-.122-.261-.28-.481-.477-.658-.195-.187-.424-.331-.686-.434-.26-.103-.536-.154-.826-.154-.289 0-.564.051-.826.154-.252.103-.476.247-.672.434-.195.177-.354.397-.475.658-.122.261-.197.546-.225.854h4.424zm5.569 4.354c-.476 0-.915-.103-1.316-.308-.392-.205-.733-.481-1.022-.826-.28-.345-.5-.747-.658-1.204-.159-.467-.238-.957-.238-1.47 0-.523.084-1.013.252-1.47.177-.457.42-.859.728-1.204s.672-.616 1.092-.812c.42-.196.877-.294 1.372-.294.56 0 1.064.135 1.512.406.448.271.807.621 1.078 1.05v-1.33h1.358v8.414c0 .177.032.299.098.364.074.075.191.121.35.14v1.316c-.14.019-.285.033-.434.042-.14.009-.271.014-.392.014-.318 0-.593-.107-.826-.322-.224-.215-.336-.481-.336-.798v-3.22c-.299.504-.672.882-1.12 1.134-.439.252-.938.378-1.498.378zm.56-1.316c.466 0 .868-.131 1.204-.392.345-.271.63-.607.854-1.008v-1.932c-.047-.224-.14-.434-.28-.63s-.308-.364-.504-.504c-.187-.149-.392-.266-.616-.35-.224-.093-.444-.14-.658-.14-.327 0-.626.07-.896.21-.271.14-.504.327-.7.56-.196.233-.35.504-.462.812-.112.299-.168.607-.168.924 0 .336.056.653.168.952.112.299.266.56.462.784.196.215.429.387.7.518.27.131.569.196.896.196zm7.699 1.316c-.766 0-1.344-.247-1.736-.742-.392-.504-.588-1.251-.588-2.24v-4.48h1.54v4.172c0 1.316.466 1.974 1.4 1.974.438 0 .854-.135 1.246-.406s.695-.663.91-1.176v-4.564h1.54v5.502c0 .177.028.303.084.378.065.075.177.117.336.126V181c-.159.028-.29.047-.392.056-.103.009-.201.014-.294.014-.28 0-.518-.075-.714-.224-.196-.159-.299-.359-.308-.602l-.028-.728c-.327.532-.752.938-1.274 1.218-.523.271-1.097.406-1.722.406zm6.277-.14v-7.322h1.54V181h-1.54zm0-8.526v-1.694h1.54v1.694h-1.54zm6.051 8.666c-.588 0-1.176-.093-1.764-.28-.579-.196-1.078-.471-1.498-.826l.616-.98c.438.317.872.56 1.302.728.429.159.868.238 1.316.238.457 0 .816-.089 1.078-.266.27-.177.406-.429.406-.756 0-.308-.15-.532-.448-.672-.299-.14-.766-.294-1.4-.462-.458-.121-.85-.238-1.176-.35-.327-.112-.593-.243-.798-.392-.206-.149-.355-.322-.448-.518-.094-.196-.14-.434-.14-.714 0-.373.07-.705.21-.994.149-.289.35-.532.602-.728.261-.205.564-.359.91-.462.345-.103.718-.154 1.12-.154.55 0 1.064.084 1.54.252.476.168.9.411 1.274.728l-.658.924c-.682-.541-1.405-.812-2.17-.812-.392 0-.724.084-.994.252-.262.159-.392.415-.392.77 0 .149.028.275.084.378.056.103.144.191.266.266.13.075.294.145.49.21.205.056.457.121.756.196.494.121.919.243 1.274.364.364.121.662.266.896.434.233.159.406.35.518.574.112.215.168.476.168.784 0 .7-.266 1.255-.798 1.666-.523.401-1.237.602-2.142.602zm4.285-.14v-7.322h1.54V181h-1.54zm0-8.526v-1.694h1.54v1.694h-1.54zm7.465 8.148c-.196.093-.467.201-.812.322-.346.112-.714.168-1.106.168-.243 0-.472-.033-.686-.098-.215-.065-.406-.163-.574-.294-.159-.131-.285-.299-.378-.504-.094-.215-.14-.471-.14-.77v-4.578h-.966v-1.19h.966v-2.408h1.54v2.408h1.596v1.19h-1.596v4.088c.018.261.098.453.238.574.149.112.331.168.546.168.214 0 .42-.037.616-.112.196-.075.34-.135.434-.182l.322 1.218zm4.206.518c-.569 0-1.087-.098-1.554-.294-.466-.205-.868-.481-1.204-.826-.326-.345-.583-.747-.77-1.204-.177-.457-.266-.943-.266-1.456s.089-.999.266-1.456c.187-.467.444-.873.77-1.218.336-.355.738-.63 1.204-.826.467-.205.99-.308 1.568-.308.57 0 1.083.103 1.54.308.467.205.864.481 1.19.826.327.336.574.733.742 1.19.178.448.266.919.266 1.414 0 .112-.004.219-.014.322-.009.093-.018.173-.028.238h-5.866c.028.327.103.621.224.882.131.261.294.49.49.686.206.187.434.331.686.434.262.103.532.154.812.154.206 0 .406-.023.602-.07.206-.056.392-.131.56-.224.168-.103.318-.224.448-.364.131-.14.234-.294.308-.462l1.316.378c-.252.551-.672 1.003-1.26 1.358-.578.345-1.255.518-2.03.518zm2.226-4.354c-.028-.308-.107-.593-.238-.854-.121-.261-.28-.481-.476-.658-.196-.187-.424-.331-.686-.434-.261-.103-.536-.154-.826-.154-.289 0-.564.051-.826.154-.252.103-.476.247-.672.434-.196.177-.354.397-.476.658-.121.261-.196.546-.224.854h4.424zM153.122 181l-2.338-3.374-1.218 1.148V181h-1.54v-10.22h1.54v6.482l3.36-3.57h1.68l-2.842 3.066L154.76 181h-1.638zm9.139 0h-1.54v-4.102c0-.691-.112-1.19-.336-1.498-.214-.317-.536-.476-.966-.476-.224 0-.448.042-.672.126-.224.084-.434.205-.63.364-.196.149-.373.331-.532.546-.149.205-.266.434-.35.686V181h-1.54v-7.322h1.4v1.47c.28-.495.686-.882 1.218-1.162.532-.289 1.12-.434 1.764-.434.439 0 .798.079 1.078.238.28.159.5.378.658.658.168.271.285.588.35.952.066.355.098.733.098 1.134V181zm5.078.14c-.579 0-1.101-.103-1.568-.308-.457-.205-.849-.481-1.176-.826-.327-.345-.579-.747-.756-1.204-.177-.467-.266-.952-.266-1.456s.089-.985.266-1.442c.177-.467.429-.873.756-1.218.336-.345.733-.621 1.19-.826.467-.205.985-.308 1.554-.308.569 0 1.083.103 1.54.308.467.205.863.481 1.19.826.336.345.593.751.77 1.218.177.457.266.938.266 1.442s-.089.989-.266 1.456c-.177.457-.434.859-.77 1.204-.327.345-.723.621-1.19.826-.457.205-.971.308-1.54.308zm-2.184-3.78c0 .355.056.681.168.98.112.299.266.56.462.784.196.215.425.387.686.518.271.121.56.182.868.182.308 0 .593-.061.854-.182.271-.131.504-.308.7-.532.196-.224.35-.485.462-.784.112-.299.168-.625.168-.98 0-.345-.056-.667-.168-.966-.112-.308-.266-.574-.462-.798-.196-.224-.429-.397-.7-.518-.261-.131-.546-.196-.854-.196-.299 0-.583.065-.854.196-.261.131-.49.308-.686.532-.196.224-.355.49-.476.798-.112.299-.168.621-.168.966zm16.184-3.682h1.47l-3.08 7.322h-1.274l-1.358-3.402-1.358 3.402h-1.274l-3.094-7.322h1.47l2.366 5.838 1.064-2.716-1.274-3.108h1.26l.84 2.296.826-2.296h1.26l-1.26 3.108 1.064 2.716 2.352-5.838zm2.507-2.898h1.54v8.106c0 .271.07.485.21.644.14.149.336.224.588.224.103 0 .22-.019.35-.056.14-.037.271-.079.392-.126l.224 1.204c-.224.103-.49.182-.798.238-.308.065-.583.098-.826.098-.532 0-.947-.145-1.246-.434-.289-.289-.434-.7-.434-1.232v-8.666zm7.515 10.36c-.569 0-1.087-.098-1.554-.294-.467-.205-.868-.481-1.204-.826-.327-.345-.583-.747-.77-1.204-.177-.457-.266-.943-.266-1.456s.089-.999.266-1.456c.187-.467.443-.873.77-1.218.336-.355.737-.63 1.204-.826.467-.205.989-.308 1.568-.308.569 0 1.083.103 1.54.308.467.205.863.481 1.19.826.327.336.574.733.742 1.19.177.448.266.919.266 1.414 0 .112-.005.219-.014.322-.009.093-.019.173-.028.238h-5.866c.028.327.103.621.224.882.131.261.294.49.49.686.205.187.434.331.686.434.261.103.532.154.812.154.205 0 .406-.023.602-.07.205-.056.392-.131.56-.224.168-.103.317-.224.448-.364.131-.14.233-.294.308-.462l1.316.378c-.252.551-.672 1.003-1.26 1.358-.579.345-1.255.518-2.03.518zm2.226-4.354c-.028-.308-.107-.593-.238-.854-.121-.261-.28-.481-.476-.658-.196-.187-.425-.331-.686-.434-.261-.103-.537-.154-.826-.154-.289 0-.565.051-.826.154-.252.103-.476.247-.672.434-.196.177-.355.397-.476.658s-.196.546-.224.854h4.424zm5.764 4.354c-.494 0-.952-.098-1.372-.294-.42-.205-.784-.481-1.092-.826-.308-.345-.55-.747-.728-1.204-.168-.467-.252-.966-.252-1.498 0-.513.08-.994.238-1.442.168-.457.397-.859.686-1.204.299-.345.644-.616 1.036-.812.402-.205.84-.308 1.316-.308.588 0 1.106.145 1.554.434.448.28.798.639 1.05 1.078v-4.284h1.54v8.4c0 .177.028.303.084.378.066.075.178.117.336.126V181c-.158.028-.289.047-.392.056-.093.009-.172.014-.238.014-.308 0-.56-.079-.756-.238-.196-.159-.303-.364-.322-.616l-.028-.546c-.27.457-.639.817-1.106 1.078-.466.261-.984.392-1.554.392zm.378-1.316c.224 0 .448-.037.672-.112.224-.075.43-.177.616-.308.187-.131.346-.285.476-.462.14-.177.238-.369.294-.574v-1.918c-.084-.233-.205-.448-.364-.644-.149-.196-.322-.364-.518-.504s-.406-.247-.63-.322c-.214-.075-.434-.112-.658-.112-.308 0-.592.07-.854.21-.252.14-.471.327-.658.56-.186.233-.336.499-.448.798-.102.299-.154.607-.154.924 0 .336.056.653.168.952.122.299.285.56.49.784.206.224.439.401.7.532.271.131.56.196.868.196zm8.452 1.246c-.494 0-.947-.098-1.358-.294-.41-.205-.765-.481-1.064-.826-.289-.345-.518-.742-.686-1.19-.158-.448-.238-.919-.238-1.414 0-.523.084-1.013.252-1.47.168-.467.402-.868.7-1.204.299-.345.654-.616 1.064-.812.42-.205.882-.308 1.386-.308.588 0 1.102.14 1.54.42.448.28.817.644 1.106 1.092v-1.386h1.358v7.112c0 .532-.098 1.003-.294 1.414-.196.411-.471.756-.826 1.036-.345.289-.756.509-1.232.658-.476.149-.989.224-1.54.224-.812 0-1.488-.14-2.03-.42-.532-.271-.98-.653-1.344-1.148l.868-.812c.28.392.64.691 1.078.896.448.205.924.308 1.428.308.318 0 .616-.042.896-.126.29-.084.542-.215.756-.392.215-.177.383-.401.504-.672.131-.271.196-.593.196-.966v-1.12c-.261.448-.62.793-1.078 1.036-.457.243-.938.364-1.442.364zm.504-1.246c.234 0 .458-.037.672-.112.215-.084.411-.191.588-.322.187-.14.346-.294.476-.462.131-.177.224-.364.28-.56v-1.918c-.093-.233-.214-.443-.364-.63-.149-.196-.322-.364-.518-.504-.186-.14-.387-.247-.602-.322-.214-.084-.429-.126-.644-.126-.336 0-.639.075-.91.224-.261.14-.485.331-.672.574-.186.233-.331.499-.434.798-.102.299-.154.607-.154.924 0 .336.056.653.168.952.122.289.285.546.49.77.206.215.444.387.714.518.28.131.584.196.91.196zm8.721 1.316c-.569 0-1.087-.098-1.554-.294-.467-.205-.868-.481-1.204-.826-.327-.345-.583-.747-.77-1.204-.177-.457-.266-.943-.266-1.456s.089-.999.266-1.456c.187-.467.443-.873.77-1.218.336-.355.737-.63 1.204-.826.467-.205.989-.308 1.568-.308.569 0 1.083.103 1.54.308.467.205.863.481 1.19.826.327.336.574.733.742 1.19.177.448.266.919.266 1.414 0 .112-.005.219-.014.322-.009.093-.019.173-.028.238h-5.866c.028.327.103.621.224.882.131.261.294.49.49.686.205.187.434.331.686.434.261.103.532.154.812.154.205 0 .406-.023.602-.07.205-.056.392-.131.56-.224.168-.103.317-.224.448-.364.131-.14.233-.294.308-.462l1.316.378c-.252.551-.672 1.003-1.26 1.358-.579.345-1.255.518-2.03.518zm2.226-4.354c-.028-.308-.107-.593-.238-.854-.121-.261-.28-.481-.476-.658-.196-.187-.425-.331-.686-.434-.261-.103-.537-.154-.826-.154-.289 0-.565.051-.826.154-.252.103-.476.247-.672.434-.196.177-.355.397-.476.658s-.196.546-.224.854h4.424zm2.712 4.214v-1.792h1.274V181h-1.274zm5.721-1.75c.159.112.392.224.7.336.317.103.677.154 1.078.154.429 0 .77-.075 1.022-.224.261-.159.457-.387.588-.686.14-.308.229-.686.266-1.134.047-.457.07-.985.07-1.582v-5.054h1.582v5.054c0 .756-.037 1.447-.112 2.072-.075.616-.233 1.143-.476 1.582-.243.439-.597.779-1.064 1.022-.467.243-1.092.364-1.876.364-.84 0-1.559-.205-2.156-.616l.378-1.288zm9.496 1.89c-.766 0-1.344-.247-1.736-.742-.392-.504-.588-1.251-.588-2.24v-4.48h1.54v4.172c0 1.316.466 1.974 1.4 1.974.438 0 .854-.135 1.246-.406s.695-.663.91-1.176v-4.564h1.54v5.502c0 .177.028.303.084.378.065.075.177.117.336.126V181c-.159.028-.29.047-.392.056-.103.009-.201.014-.294.014-.28 0-.518-.075-.714-.224-.196-.159-.299-.359-.308-.602l-.028-.728c-.327.532-.752.938-1.274 1.218-.523.271-1.097.406-1.722.406zm8.937 0c-.588 0-1.176-.093-1.764-.28-.579-.196-1.078-.471-1.498-.826l.616-.98c.439.317.873.56 1.302.728.429.159.868.238 1.316.238.457 0 .817-.089 1.078-.266.271-.177.406-.429.406-.756 0-.308-.149-.532-.448-.672-.299-.14-.765-.294-1.4-.462-.457-.121-.849-.238-1.176-.35-.327-.112-.593-.243-.798-.392-.205-.149-.355-.322-.448-.518-.093-.196-.14-.434-.14-.714 0-.373.07-.705.21-.994.149-.289.35-.532.602-.728.261-.205.565-.359.91-.462.345-.103.719-.154 1.12-.154.551 0 1.064.084 1.54.252.476.168.901.411 1.274.728l-.658.924c-.681-.541-1.405-.812-2.17-.812-.392 0-.723.084-.994.252-.261.159-.392.415-.392.77 0 .149.028.275.084.378.056.103.145.191.266.266.131.075.294.145.49.21.205.056.457.121.756.196.495.121.919.243 1.274.364.364.121.663.266.896.434.233.159.406.35.518.574.112.215.168.476.168.784 0 .7-.266 1.255-.798 1.666-.523.401-1.237.602-2.142.602zm8.359-.518c-.196.093-.466.201-.812.322-.345.112-.714.168-1.106.168-.242 0-.471-.033-.686-.098-.214-.065-.406-.163-.574-.294-.158-.131-.284-.299-.378-.504-.093-.215-.14-.471-.14-.77v-4.578h-.966v-1.19h.966v-2.408h1.54v2.408h1.596v1.19h-1.596v4.088c.019.261.098.453.238.574.15.112.332.168.546.168.215 0 .42-.037.616-.112.196-.075.341-.135.434-.182l.322 1.218zM109.558 197.14c-.355 0-.686-.056-.994-.168-.299-.121-.56-.285-.784-.49-.215-.205-.388-.448-.518-.728-.122-.28-.182-.583-.182-.91 0-.345.074-.658.224-.938.149-.28.359-.523.63-.728.28-.205.606-.364.98-.476.382-.112.802-.168 1.26-.168.345 0 .686.033 1.022.098.336.056.639.135.91.238v-.504c0-.541-.154-.961-.462-1.26-.308-.308-.752-.462-1.33-.462-.392 0-.78.075-1.162.224-.374.14-.761.345-1.162.616l-.476-.98c.942-.635 1.922-.952 2.94-.952 1.008 0 1.792.257 2.352.77.56.513.84 1.251.84 2.212v2.646c0 .327.135.495.406.504V197c-.15.028-.28.047-.392.056-.103.009-.206.014-.308.014-.299 0-.532-.075-.7-.224-.159-.149-.257-.341-.294-.574l-.042-.462c-.327.429-.733.761-1.218.994-.476.224-.99.336-1.54.336zm.42-1.134c.373 0 .723-.065 1.05-.196.336-.14.597-.331.784-.574.196-.168.294-.345.294-.532v-.966c-.262-.103-.542-.182-.84-.238-.29-.056-.574-.084-.854-.084-.551 0-1.004.121-1.358.364-.346.233-.519.546-.519.938 0 .364.136.672.407.924.27.243.616.364 1.036.364zm20.195.994h-1.54v-4.102c0-.681-.112-1.181-.336-1.498-.224-.317-.551-.476-.98-.476-.439 0-.84.163-1.204.49-.355.317-.612.733-.77 1.246V197h-1.54v-4.102c0-.691-.112-1.19-.336-1.498-.224-.317-.546-.476-.966-.476-.439 0-.84.159-1.204.476-.364.317-.626.733-.784 1.246V197h-1.54v-7.322h1.4v1.47c.289-.513.667-.905 1.134-1.176.476-.28 1.017-.42 1.624-.42.606 0 1.082.159 1.428.476.354.317.574.714.658 1.19.308-.541.695-.952 1.162-1.232.466-.289.998-.434 1.596-.434.429 0 .784.084 1.064.252.289.159.518.373.686.644.168.271.284.588.35.952.065.355.098.733.098 1.134V197zm1.774 0v-7.322h1.54V197h-1.54zm0-8.526v-1.694h1.54v1.694h-1.54zm9.957 8.526h-1.54v-4.102c0-.691-.112-1.19-.336-1.498-.215-.317-.537-.476-.966-.476-.224 0-.448.042-.672.126-.224.084-.434.205-.63.364-.196.149-.373.331-.532.546-.149.205-.266.434-.35.686V197h-1.54v-7.322h1.4v1.47c.28-.495.686-.882 1.218-1.162.532-.289 1.12-.434 1.764-.434.439 0 .798.079 1.078.238.28.159.499.378.658.658.168.271.285.588.35.952.065.355.098.733.098 1.134V197zm4.77.14c-.495 0-.952-.098-1.372-.294-.42-.205-.784-.481-1.092-.826-.308-.345-.551-.747-.728-1.204-.168-.467-.252-.966-.252-1.498 0-.513.079-.994.238-1.442.168-.457.396-.859.686-1.204.298-.345.644-.616 1.036-.812.401-.205.84-.308 1.316-.308.588 0 1.106.145 1.554.434.448.28.798.639 1.05 1.078v-4.284h1.54v8.4c0 .177.028.303.084.378.065.075.177.117.336.126V197c-.159.028-.29.047-.392.056-.094.009-.173.014-.238.014-.308 0-.56-.079-.756-.238-.196-.159-.304-.364-.322-.616l-.028-.546c-.271.457-.64.817-1.106 1.078-.467.261-.985.392-1.554.392zm.378-1.316c.224 0 .448-.037.672-.112.224-.075.429-.177.616-.308.186-.131.345-.285.476-.462.14-.177.238-.369.294-.574v-1.918c-.084-.233-.206-.448-.364-.644-.15-.196-.322-.364-.518-.504s-.406-.247-.63-.322c-.215-.075-.434-.112-.658-.112-.308 0-.593.07-.854.21-.252.14-.472.327-.658.56-.187.233-.336.499-.448.798-.103.299-.154.607-.154.924 0 .336.056.653.168.952.121.299.284.56.49.784.205.224.438.401.7.532.27.131.56.196.868.196zm8.214 1.316c-.588 0-1.176-.093-1.764-.28-.579-.196-1.078-.471-1.498-.826l.616-.98c.438.317.872.56 1.302.728.429.159.868.238 1.316.238.457 0 .816-.089 1.078-.266.27-.177.406-.429.406-.756 0-.308-.15-.532-.448-.672-.299-.14-.766-.294-1.4-.462-.458-.121-.85-.238-1.176-.35-.327-.112-.593-.243-.798-.392-.206-.149-.355-.322-.448-.518-.094-.196-.14-.434-.14-.714 0-.373.07-.705.21-.994.149-.289.35-.532.602-.728.261-.205.564-.359.91-.462.345-.103.718-.154 1.12-.154.55 0 1.064.084 1.54.252.476.168.9.411 1.274.728l-.658.924c-.682-.541-1.405-.812-2.17-.812-.392 0-.724.084-.994.252-.262.159-.392.415-.392.77 0 .149.028.275.084.378.056.103.144.191.266.266.13.075.294.145.49.21.205.056.457.121.756.196.494.121.919.243 1.274.364.364.121.662.266.896.434.233.159.406.35.518.574.112.215.168.476.168.784 0 .7-.266 1.255-.798 1.666-.523.401-1.237.602-2.142.602zm7.603 0c-.569 0-1.087-.098-1.554-.294-.467-.205-.868-.481-1.204-.826-.327-.345-.583-.747-.77-1.204-.177-.457-.266-.943-.266-1.456s.089-.999.266-1.456c.187-.467.443-.873.77-1.218.336-.355.737-.63 1.204-.826.467-.205.989-.308 1.568-.308.569 0 1.083.103 1.54.308.467.205.863.481 1.19.826.327.336.574.733.742 1.19.177.448.266.919.266 1.414 0 .112-.005.219-.014.322-.009.093-.019.173-.028.238h-5.866c.028.327.103.621.224.882.131.261.294.49.49.686.205.187.434.331.686.434.261.103.532.154.812.154.205 0 .406-.023.602-.07.205-.056.392-.131.56-.224.168-.103.317-.224.448-.364.131-.14.233-.294.308-.462l1.316.378c-.252.551-.672 1.003-1.26 1.358-.579.345-1.255.518-2.03.518zm2.226-4.354c-.028-.308-.107-.593-.238-.854-.121-.261-.28-.481-.476-.658-.196-.187-.425-.331-.686-.434-.261-.103-.537-.154-.826-.154-.289 0-.565.051-.826.154-.252.103-.476.247-.672.434-.196.177-.355.397-.476.658s-.196.546-.224.854h4.424zm6.801 3.836c-.196.093-.466.201-.812.322-.345.112-.714.168-1.106.168-.242 0-.471-.033-.686-.098-.214-.065-.406-.163-.574-.294-.158-.131-.284-.299-.378-.504-.093-.215-.14-.471-.14-.77v-4.578h-.966v-1.19h.966v-2.408h1.54v2.408h1.596v1.19h-1.596v4.088c.019.261.098.453.238.574.15.112.332.168.546.168.215 0 .42-.037.616-.112.196-.075.341-.135.434-.182l.322 1.218zm8.6 0c-.196.093-.467.201-.812.322-.345.112-.714.168-1.106.168-.243 0-.471-.033-.686-.098-.215-.065-.406-.163-.574-.294-.159-.131-.285-.299-.378-.504-.093-.215-.14-.471-.14-.77v-4.578h-.966v-1.19h.966v-2.408h1.54v2.408h1.596v1.19h-1.596v4.088c.019.261.098.453.238.574.149.112.331.168.546.168.215 0 .42-.037.616-.112.196-.075.341-.135.434-.182l.322 1.218zm4.179.518c-.579 0-1.101-.103-1.568-.308-.457-.205-.849-.481-1.176-.826-.327-.345-.579-.747-.756-1.204-.177-.467-.266-.952-.266-1.456s.089-.985.266-1.442c.177-.467.429-.873.756-1.218.336-.345.733-.621 1.19-.826.467-.205.985-.308 1.554-.308.569 0 1.083.103 1.54.308.467.205.863.481 1.19.826.336.345.593.751.77 1.218.177.457.266.938.266 1.442s-.089.989-.266 1.456c-.177.457-.434.859-.77 1.204-.327.345-.723.621-1.19.826-.457.205-.971.308-1.54.308zm-2.184-3.78c0 .355.056.681.168.98.112.299.266.56.462.784.196.215.425.387.686.518.271.121.56.182.868.182.308 0 .593-.061.854-.182.271-.131.504-.308.7-.532.196-.224.35-.485.462-.784.112-.299.168-.625.168-.98 0-.345-.056-.667-.168-.966-.112-.308-.266-.574-.462-.798-.196-.224-.429-.397-.7-.518-.261-.131-.546-.196-.854-.196-.299 0-.583.065-.854.196-.261.131-.49.308-.686.532-.196.224-.355.49-.476.798-.112.299-.168.621-.168.966zm10.789-6.58h1.54v8.106c0 .271.07.485.21.644.14.149.336.224.588.224.102 0 .219-.019.35-.056.14-.037.27-.079.392-.126l.224 1.204c-.224.103-.49.182-.798.238-.308.065-.584.098-.826.098-.532 0-.948-.145-1.246-.434-.29-.289-.434-.7-.434-1.232v-8.666zm7.515 10.36c-.57 0-1.088-.098-1.554-.294-.467-.205-.868-.481-1.204-.826-.327-.345-.584-.747-.77-1.204-.178-.457-.266-.943-.266-1.456s.088-.999.266-1.456c.186-.467.443-.873.77-1.218.336-.355.737-.63 1.204-.826.466-.205.989-.308 1.568-.308.569 0 1.082.103 1.54.308.466.205.863.481 1.19.826.326.336.574.733.742 1.19.177.448.266.919.266 1.414 0 .112-.005.219-.014.322-.01.093-.019.173-.028.238h-5.866c.028.327.102.621.224.882.13.261.294.49.49.686.205.187.434.331.686.434.261.103.532.154.812.154.205 0 .406-.023.602-.07.205-.056.392-.131.56-.224.168-.103.317-.224.448-.364.13-.14.233-.294.308-.462l1.316.378c-.252.551-.672 1.003-1.26 1.358-.579.345-1.256.518-2.03.518zm2.226-4.354c-.028-.308-.108-.593-.238-.854-.122-.261-.28-.481-.476-.658-.196-.187-.425-.331-.686-.434-.262-.103-.537-.154-.826-.154-.29 0-.565.051-.826.154-.252.103-.476.247-.672.434-.196.177-.355.397-.476.658-.122.261-.196.546-.224.854h4.424zm4.728 4.354c-.355 0-.686-.056-.994-.168-.299-.121-.56-.285-.784-.49-.215-.205-.387-.448-.518-.728-.121-.28-.182-.583-.182-.91 0-.345.075-.658.224-.938.149-.28.359-.523.63-.728.28-.205.607-.364.98-.476.383-.112.803-.168 1.26-.168.345 0 .686.033 1.022.098.336.056.639.135.91.238v-.504c0-.541-.154-.961-.462-1.26-.308-.308-.751-.462-1.33-.462-.392 0-.779.075-1.162.224-.373.14-.761.345-1.162.616l-.476-.98c.943-.635 1.923-.952 2.94-.952 1.008 0 1.792.257 2.352.77.56.513.84 1.251.84 2.212v2.646c0 .327.135.495.406.504V197c-.149.028-.28.047-.392.056-.103.009-.205.014-.308.014-.299 0-.532-.075-.7-.224-.159-.149-.257-.341-.294-.574l-.042-.462c-.327.429-.733.761-1.218.994-.476.224-.989.336-1.54.336zm.42-1.134c.373 0 .723-.065 1.05-.196.336-.14.597-.331.784-.574.196-.168.294-.345.294-.532v-.966c-.261-.103-.541-.182-.84-.238-.289-.056-.574-.084-.854-.084-.551 0-1.003.121-1.358.364-.345.233-.518.546-.518.938 0 .364.135.672.406.924.271.243.616.364 1.036.364zm9.652-4.998c-.597.019-1.129.159-1.596.42-.457.252-.784.616-.98 1.092V197h-1.54v-7.322h1.428v1.638c.252-.504.579-.905.98-1.204.411-.308.85-.476 1.316-.504h.224c.066 0 .122.005.168.014v1.386zm7.687 5.992h-1.54v-4.102c0-.691-.112-1.19-.336-1.498-.215-.317-.537-.476-.966-.476-.224 0-.448.042-.672.126-.224.084-.434.205-.63.364-.196.149-.374.331-.532.546-.15.205-.266.434-.35.686V197h-1.54v-7.322h1.4v1.47c.28-.495.686-.882 1.218-1.162.532-.289 1.12-.434 1.764-.434.438 0 .798.079 1.078.238.28.159.499.378.658.658.168.271.284.588.35.952.065.355.098.733.098 1.134V197zm7.192.14c-.355 0-.686-.056-.994-.168-.299-.121-.56-.285-.784-.49-.215-.205-.387-.448-.518-.728-.121-.28-.182-.583-.182-.91 0-.345.075-.658.224-.938.149-.28.359-.523.63-.728.28-.205.607-.364.98-.476.383-.112.803-.168 1.26-.168.345 0 .686.033 1.022.098.336.056.639.135.91.238v-.504c0-.541-.154-.961-.462-1.26-.308-.308-.751-.462-1.33-.462-.392 0-.779.075-1.162.224-.373.14-.761.345-1.162.616l-.476-.98c.943-.635 1.923-.952 2.94-.952 1.008 0 1.792.257 2.352.77.56.513.84 1.251.84 2.212v2.646c0 .327.135.495.406.504V197c-.149.028-.28.047-.392.056-.103.009-.205.014-.308.014-.299 0-.532-.075-.7-.224-.159-.149-.257-.341-.294-.574l-.042-.462c-.327.429-.733.761-1.218.994-.476.224-.989.336-1.54.336zm.42-1.134c.373 0 .723-.065 1.05-.196.336-.14.597-.331.784-.574.196-.168.294-.345.294-.532v-.966c-.261-.103-.541-.182-.84-.238-.289-.056-.574-.084-.854-.084-.551 0-1.003.121-1.358.364-.345.233-.518.546-.518.938 0 .364.135.672.406.924.271.243.616.364 1.036.364zm12.102.994h-1.54v-4.102c0-.691-.112-1.19-.336-1.498-.214-.317-.536-.476-.966-.476-.224 0-.448.042-.672.126-.224.084-.434.205-.63.364-.196.149-.373.331-.532.546-.149.205-.266.434-.35.686V197h-1.54v-7.322h1.4v1.47c.28-.495.686-.882 1.218-1.162.532-.289 1.12-.434 1.764-.434.439 0 .798.079 1.078.238.28.159.5.378.658.658.168.271.285.588.35.952.066.355.098.733.098 1.134V197zm4.77.14c-.495 0-.952-.098-1.372-.294-.42-.205-.784-.481-1.092-.826-.308-.345-.551-.747-.728-1.204-.168-.467-.252-.966-.252-1.498 0-.513.079-.994.238-1.442.168-.457.397-.859.686-1.204.299-.345.644-.616 1.036-.812.401-.205.84-.308 1.316-.308.588 0 1.106.145 1.554.434.448.28.798.639 1.05 1.078v-4.284h1.54v8.4c0 .177.028.303.084.378.065.075.177.117.336.126V197c-.159.028-.289.047-.392.056-.093.009-.173.014-.238.014-.308 0-.56-.079-.756-.238-.196-.159-.303-.364-.322-.616l-.028-.546c-.271.457-.639.817-1.106 1.078-.467.261-.985.392-1.554.392zm.378-1.316c.224 0 .448-.037.672-.112.224-.075.429-.177.616-.308s.345-.285.476-.462c.14-.177.238-.369.294-.574v-1.918c-.084-.233-.205-.448-.364-.644-.149-.196-.322-.364-.518-.504s-.406-.247-.63-.322c-.215-.075-.434-.112-.658-.112-.308 0-.593.07-.854.21-.252.14-.471.327-.658.56-.187.233-.336.499-.448.798-.103.299-.154.607-.154.924 0 .336.056.653.168.952.121.299.285.56.49.784.205.224.439.401.7.532.271.131.56.196.868.196zm-66.74 13.508c0-.513.088-.999.266-1.456.177-.457.429-.859.756-1.204.336-.345.737-.616 1.204-.812.466-.205.989-.308 1.568-.308.756 0 1.404.168 1.946.504.55.327.961.765 1.232 1.316l-1.498.476c-.178-.308-.416-.546-.714-.714-.299-.177-.63-.266-.994-.266-.308 0-.598.061-.868.182-.262.121-.49.294-.686.518-.196.215-.35.471-.462.77-.112.299-.168.63-.168.994 0 .355.056.686.168.994.121.299.28.56.476.784.205.224.438.401.7.532.27.121.555.182.854.182.186 0 .373-.023.56-.07.186-.056.354-.131.504-.224.158-.093.294-.201.406-.322.121-.121.21-.252.266-.392l1.512.448c-.243.551-.649 1.003-1.218 1.358-.57.345-1.242.518-2.016.518-.57 0-1.088-.103-1.554-.308-.467-.205-.868-.481-1.204-.826-.327-.355-.584-.761-.77-1.218-.178-.457-.266-.943-.266-1.456zm11.518 3.808c-.579 0-1.102-.103-1.568-.308-.458-.205-.85-.481-1.176-.826-.327-.345-.579-.747-.756-1.204-.178-.467-.266-.952-.266-1.456s.088-.985.266-1.442c.177-.467.429-.873.756-1.218.336-.345.732-.621 1.19-.826.466-.205.984-.308 1.554-.308.569 0 1.082.103 1.54.308.466.205.863.481 1.19.826.336.345.592.751.77 1.218.177.457.266.938.266 1.442s-.089.989-.266 1.456c-.178.457-.434.859-.77 1.204-.327.345-.724.621-1.19.826-.458.205-.971.308-1.54.308zm-2.184-3.78c0 .355.056.681.168.98.112.299.266.56.462.784.196.215.424.387.686.518.27.121.56.182.868.182.308 0 .592-.061.854-.182.27-.131.504-.308.7-.532.196-.224.35-.485.462-.784.112-.299.168-.625.168-.98 0-.345-.056-.667-.168-.966-.112-.308-.266-.574-.462-.798-.196-.224-.43-.397-.7-.518-.262-.131-.546-.196-.854-.196-.299 0-.584.065-.854.196-.262.131-.49.308-.686.532-.196.224-.355.49-.476.798-.112.299-.168.621-.168.966zm13.881 3.64h-1.54v-4.102c0-.691-.112-1.19-.336-1.498-.214-.317-.536-.476-.966-.476-.224 0-.448.042-.672.126-.224.084-.434.205-.63.364-.196.149-.373.331-.532.546-.149.205-.266.434-.35.686V213h-1.54v-7.322h1.4v1.47c.28-.495.686-.882 1.218-1.162.532-.289 1.12-.434 1.764-.434.439 0 .798.079 1.078.238.28.159.5.378.658.658.168.271.285.588.35.952.066.355.098.733.098 1.134V213zm5.794-.378c-.196.093-.467.201-.812.322-.346.112-.714.168-1.106.168-.243 0-.472-.033-.686-.098-.215-.065-.406-.163-.574-.294-.159-.131-.285-.299-.378-.504-.094-.215-.14-.471-.14-.77v-4.578h-.966v-1.19h.966v-2.408h1.54v2.408h1.596v1.19h-1.596v4.088c.018.261.098.453.238.574.149.112.331.168.546.168.214 0 .42-.037.616-.112.196-.075.34-.135.434-.182l.322 1.218zm5.182-5.614c-.597.019-1.129.159-1.596.42-.457.252-.784.616-.98 1.092V213h-1.54v-7.322h1.428v1.638c.252-.504.579-.905.98-1.204.411-.308.85-.476 1.316-.504h.224c.066 0 .122.005.168.014v1.386zm1.121 5.992v-7.322h1.54V213h-1.54zm0-8.526v-1.694h1.54v1.694h-1.54zm7.338 8.666c-.56 0-1.068-.131-1.526-.392-.448-.271-.802-.63-1.064-1.078V213h-1.358v-10.22h1.54v4.284c.29-.467.649-.835 1.078-1.106.439-.271.952-.406 1.54-.406.486 0 .929.107 1.33.322.402.205.742.485 1.022.84.29.345.509.751.658 1.218.159.457.238.938.238 1.442 0 .523-.088 1.013-.266 1.47-.177.457-.42.859-.728 1.204-.308.336-.676.602-1.106.798-.42.196-.872.294-1.358.294zm-.406-1.316c.336 0 .644-.065.924-.196.28-.14.518-.322.714-.546.206-.224.364-.481.476-.77.112-.299.168-.611.168-.938 0-.327-.056-.639-.168-.938-.102-.308-.252-.574-.448-.798-.186-.233-.415-.42-.686-.56-.261-.14-.55-.21-.868-.21-.476 0-.9.154-1.274.462-.364.308-.644.681-.84 1.12v1.932c.056.215.154.411.294.588.14.168.304.317.49.448.187.131.388.233.602.308.215.065.42.098.616.098zm7.503 1.316c-.765 0-1.344-.247-1.736-.742-.392-.504-.588-1.251-.588-2.24v-4.48h1.54v4.172c0 1.316.467 1.974 1.4 1.974.439 0 .854-.135 1.246-.406s.696-.663.91-1.176v-4.564h1.54v5.502c0 .177.028.303.084.378.066.075.178.117.336.126V213c-.158.028-.289.047-.392.056-.102.009-.2.014-.294.014-.28 0-.518-.075-.714-.224-.196-.159-.298-.359-.308-.602l-.028-.728c-.326.532-.751.938-1.274 1.218-.522.271-1.096.406-1.722.406zm10.351-.518c-.196.093-.466.201-.812.322-.345.112-.714.168-1.106.168-.242 0-.471-.033-.686-.098-.214-.065-.406-.163-.574-.294-.158-.131-.284-.299-.378-.504-.093-.215-.14-.471-.14-.77v-4.578h-.966v-1.19h.966v-2.408h1.54v2.408h1.596v1.19h-1.596v4.088c.019.261.098.453.238.574.15.112.332.168.546.168.215 0 .42-.037.616-.112.196-.075.341-.135.434-.182l.322 1.218zm4.207.518c-.569 0-1.087-.098-1.554-.294-.466-.205-.868-.481-1.204-.826-.326-.345-.583-.747-.77-1.204-.177-.457-.266-.943-.266-1.456s.089-.999.266-1.456c.187-.467.444-.873.77-1.218.336-.355.738-.63 1.204-.826.467-.205.99-.308 1.568-.308.57 0 1.083.103 1.54.308.467.205.864.481 1.19.826.327.336.574.733.742 1.19.178.448.266.919.266 1.414 0 .112-.004.219-.014.322-.009.093-.018.173-.028.238h-5.866c.028.327.103.621.224.882.131.261.294.49.49.686.206.187.434.331.686.434.262.103.532.154.812.154.206 0 .406-.023.602-.07.206-.056.392-.131.56-.224.168-.103.318-.224.448-.364.131-.14.234-.294.308-.462l1.316.378c-.252.551-.672 1.003-1.26 1.358-.578.345-1.255.518-2.03.518zm2.226-4.354c-.028-.308-.107-.593-.238-.854-.121-.261-.28-.481-.476-.658-.196-.187-.424-.331-.686-.434-.261-.103-.536-.154-.826-.154-.289 0-.564.051-.826.154-.252.103-.476.247-.672.434-.196.177-.354.397-.476.658-.121.261-.196.546-.224.854h4.424zm2.713 4.214v-1.792h1.274V213h-1.274z"/>
    </g>
    <defs>
        <clipPath id="prefix__clip0">
            <path fill="#fff" d="M0 0H304V304H0z"/>
        </clipPath>
    </defs>
</svg>
