<svg xmlns="http://www.w3.org/2000/svg" width="304" height="304" fill="none" viewBox="0 0 304 304">
    <g clip-path="url(#prefix__clip0)">
        <path fill="#2BA4DC" d="M0 0H304V304H0z"/>
        <path fill="#fff" d="M184.338 273.808c0 6.336-.96 12.192-2.88 17.568-1.824 5.28-4.416 9.888-7.776 13.824-3.264 3.84-7.152 6.864-11.664 9.072-4.416 2.112-9.264 3.168-14.544 3.168-5.28 0-10.176-1.056-14.688-3.168-4.512-2.208-8.4-5.232-11.664-9.072-3.264-3.936-5.856-8.544-7.776-13.824-1.824-5.376-2.736-11.232-2.736-17.568 0-6.336.912-12.144 2.736-17.424 1.92-5.376 4.512-9.984 7.776-13.824 3.264-3.936 7.152-7.008 11.664-9.216 4.512-2.208 9.408-3.312 14.688-3.312 5.28 0 10.128 1.104 14.544 3.312 4.512 2.208 8.4 5.28 11.664 9.216 3.36 3.84 5.952 8.448 7.776 13.824 1.92 5.28 2.88 11.088 2.88 17.424zm-16.128 0c0-4.32-.528-8.256-1.584-11.808-.96-3.552-2.4-6.624-4.32-9.216-1.824-2.592-4.032-4.56-6.624-5.904-2.496-1.44-5.232-2.16-8.208-2.16-3.168 0-6.048.72-8.64 2.16-2.496 1.344-4.704 3.312-6.624 5.904-1.824 2.592-3.264 5.664-4.32 9.216-.96 3.552-1.44 7.488-1.44 11.808 0 4.32.48 8.256 1.44 11.808 1.056 3.552 2.496 6.624 4.32 9.216 1.92 2.496 4.128 4.464 6.624 5.904 2.592 1.344 5.472 2.016 8.64 2.016 2.976 0 5.712-.672 8.208-2.016 2.592-1.44 4.8-3.408 6.624-5.904 1.92-2.592 3.36-5.664 4.32-9.216 1.056-3.552 1.584-7.488 1.584-11.808zm70.885 60.48v-22.896h-44.208V297.28l49.248-63.504h10.8v63.216h12.672v14.4h-12.672v22.896h-15.84zm-28.08-37.296h29.808v-39.024l-29.808 39.024z" opacity=".2"/>
        <path fill="#fff" d="M154.219 51.792c-.72-.432-1.464-.816-2.232-1.152-.648-.288-1.38-.552-2.196-.792-.792-.264-1.572-.396-2.34-.396-.624 0-1.128.096-1.512.288-.36.192-.54.516-.54.972 0 .336.108.612.324.828.216.216.528.42.936.612.408.168.9.336 1.476.504.6.168 1.272.372 2.016.612 1.176.36 2.232.756 3.168 1.188.96.432 1.776.948 2.448 1.548.672.576 1.188 1.284 1.548 2.124.36.84.54 1.86.54 3.06 0 1.536-.288 2.832-.864 3.888-.552 1.032-1.296 1.86-2.232 2.484-.912.624-1.956 1.08-3.132 1.368-1.152.264-2.316.396-3.492.396-.936 0-1.896-.072-2.88-.216-.984-.144-1.968-.348-2.952-.612-.96-.264-1.896-.576-2.808-.936-.888-.36-1.716-.768-2.484-1.224l3.024-6.156c.84.528 1.716.996 2.628 1.404.768.36 1.632.684 2.592.972.984.288 1.98.432 2.988.432.768 0 1.296-.096 1.584-.288.312-.216.468-.492.468-.828 0-.36-.156-.66-.468-.9-.288-.264-.696-.492-1.224-.684-.528-.192-1.14-.384-1.836-.576-.672-.192-1.392-.42-2.16-.684-1.128-.384-2.1-.792-2.916-1.224-.816-.456-1.488-.96-2.016-1.512-.528-.576-.924-1.224-1.188-1.944-.24-.72-.36-1.548-.36-2.484 0-1.416.252-2.664.756-3.744.528-1.08 1.236-1.98 2.124-2.7.888-.72 1.896-1.26 3.024-1.62 1.152-.384 2.364-.576 3.636-.576.936 0 1.848.096 2.736.288.888.168 1.74.396 2.556.684.84.264 1.62.564 2.34.9.72.312 1.368.612 1.944.9l-3.024 5.796zm19.027 16.164c-.96.408-1.992.756-3.096 1.044-1.08.264-2.148.396-3.204.396-.768 0-1.5-.096-2.196-.288-.696-.192-1.308-.504-1.836-.936-.504-.432-.912-.996-1.224-1.692-.288-.696-.432-1.56-.432-2.592v-8.676h-2.34v-5.148h2.34v-5.94h6.84v5.94h3.708v5.148h-3.708v6.264c0 .624.132 1.068.396 1.332.264.24.624.36 1.08.36.336 0 .72-.048 1.152-.144.432-.12.864-.276 1.296-.468l1.224 5.4zm7.519 1.404c-.936 0-1.812-.156-2.628-.468-.816-.312-1.524-.732-2.124-1.26-.576-.552-1.032-1.2-1.368-1.944-.336-.744-.504-1.548-.504-2.412 0-.96.204-1.836.612-2.628.408-.792.972-1.476 1.692-2.052.72-.576 1.572-1.02 2.556-1.332 1.008-.312 2.112-.468 3.312-.468 1.536 0 2.808.24 3.816.72v-.576c0-.888-.264-1.548-.792-1.98-.504-.432-1.332-.648-2.484-.648-1.08 0-2.076.18-2.988.54-.912.336-1.872.84-2.88 1.512l-1.98-4.248c2.496-1.608 5.34-2.412 8.532-2.412 3.024 0 5.352.672 6.984 2.016 1.632 1.344 2.448 3.36 2.448 6.048v3.672c0 .648.096 1.104.288 1.368.192.24.528.384 1.008.432V69c-.552.12-1.08.204-1.584.252-.48.072-.912.108-1.296.108-1.224 0-2.16-.216-2.808-.648-.624-.456-1.032-1.116-1.224-1.98l-.144-.684c-.84 1.08-1.812 1.908-2.916 2.484-1.104.552-2.28.828-3.528.828zm2.052-4.896c.408 0 .828-.06 1.26-.18.432-.144.816-.324 1.152-.54.264-.192.48-.396.648-.612.168-.24.252-.48.252-.72v-1.404c-.408-.144-.852-.264-1.332-.36-.48-.096-.912-.144-1.296-.144-.84 0-1.536.204-2.088.612-.552.408-.828.924-.828 1.548 0 .528.204.96.612 1.296.432.336.972.504 1.62.504zm12.896 6.444c1.104.408 2.04.612 2.808.612 1.464 0 2.268-.84 2.412-2.52l-6.876-18.936h7.02l3.6 13.14 2.916-13.14h6.372l-6.408 21.204c-.288.936-.696 1.776-1.224 2.52-.528.768-1.164 1.416-1.908 1.944-.72.552-1.524.972-2.412 1.26-.888.288-1.812.432-2.772.432-1.224 0-2.4-.228-3.528-.684v-5.832zM223.068 69V50.064h6.84V69h-6.84zm0-20.52v-5.76h6.84v5.76h-6.84zM252.413 69h-6.84V58.344c0-.936-.216-1.608-.648-2.016-.408-.432-.888-.648-1.44-.648-.576 0-1.188.252-1.836.756-.648.504-1.128 1.152-1.44 1.944V69h-6.84V50.064h6.156v2.808c.672-1.032 1.608-1.812 2.808-2.34 1.224-.552 2.664-.828 4.32-.828 1.296 0 2.316.24 3.06.72.768.456 1.344 1.032 1.728 1.728.408.696.672 1.44.792 2.232.12.792.18 1.512.18 2.16V69zM97.449 109.956c-.96.408-1.992.756-3.096 1.044-1.08.264-2.147.396-3.203.396-.769 0-1.5-.096-2.197-.288-.696-.192-1.308-.504-1.835-.936-.504-.432-.912-.996-1.224-1.692-.288-.696-.433-1.56-.433-2.592v-8.676h-2.34v-5.148h2.34v-5.94h6.84v5.94h3.709v5.148H92.3v6.264c0 .624.132 1.068.397 1.332.264.24.624.36 1.08.36.335 0 .72-.048 1.151-.144.433-.12.864-.276 1.296-.468l1.225 5.4zM118.433 111h-6.84v-10.656c0-.936-.216-1.608-.648-2.016-.408-.432-.924-.648-1.548-.648-.216 0-.48.072-.792.216-.288.12-.588.3-.9.54-.288.216-.564.492-.828.828-.264.336-.48.708-.648 1.116V111h-6.84V84.72h6.84v10.152c.672-1.032 1.548-1.812 2.628-2.34 1.08-.552 2.292-.828 3.636-.828 1.32 0 2.376.228 3.168.684.792.456 1.392 1.032 1.8 1.728.408.672.672 1.404.792 2.196.12.792.18 1.536.18 2.232V111zm12.64.36c-1.656 0-3.132-.252-4.428-.756-1.296-.528-2.388-1.236-3.276-2.124-.864-.888-1.524-1.908-1.98-3.06-.456-1.152-.684-2.364-.684-3.636 0-1.368.216-2.664.648-3.888.456-1.224 1.116-2.292 1.98-3.204.888-.912 1.968-1.632 3.24-2.16 1.296-.552 2.796-.828 4.5-.828 1.68 0 3.168.276 4.464.828 1.296.528 2.376 1.248 3.24 2.16.888.888 1.548 1.932 1.98 3.132.456 1.176.684 2.412.684 3.708 0 .36-.024.732-.072 1.116-.024.36-.06.684-.108.972h-13.284c.072 1.008.444 1.74 1.116 2.196.672.432 1.404.648 2.196.648.744 0 1.44-.168 2.088-.504.672-.336 1.116-.804 1.332-1.404l5.796 1.656c-.768 1.512-1.956 2.748-3.564 3.708-1.584.96-3.54 1.44-5.868 1.44zm3.024-11.844c-.12-.912-.456-1.632-1.008-2.16-.552-.528-1.26-.792-2.124-.792-.864 0-1.572.264-2.124.792s-.888 1.248-1.008 2.16h6.264zm35.495 9.36c-1.824 1.536-3.924 2.304-6.3 2.304-1.656 0-3.24-.288-4.752-.864-1.512-.6-2.832-1.464-3.96-2.592-1.128-1.128-2.028-2.508-2.7-4.14-.672-1.632-1.008-3.492-1.008-5.58 0-1.8.336-3.468 1.008-5.004.672-1.56 1.596-2.904 2.772-4.032 1.176-1.152 2.556-2.052 4.14-2.7 1.608-.672 3.336-1.008 5.184-1.008 1.152 0 2.256.132 3.312.396 1.056.24 2.028.612 2.916 1.116.912.48 1.728 1.068 2.448 1.764.72.672 1.308 1.44 1.764 2.304l-5.22 3.996c-.504-1.008-1.26-1.812-2.268-2.412-1.008-.624-2.076-.936-3.204-.936-.84 0-1.608.168-2.304.504-.696.336-1.296.804-1.8 1.404-.504.6-.9 1.32-1.188 2.16-.288.816-.432 1.716-.432 2.7 0 1.008.144 1.92.432 2.736.288.816.684 1.524 1.188 2.124.528.576 1.152 1.032 1.872 1.368.72.312 1.524.468 2.412.468 2.04 0 3.84-.84 5.4-2.52h-4.428v-5.04h10.512V111h-5.796v-2.124zm14.373 2.484c-.936 0-1.812-.156-2.628-.468-.816-.312-1.524-.732-2.124-1.26-.576-.552-1.032-1.2-1.368-1.944-.336-.744-.504-1.548-.504-2.412 0-.96.204-1.836.612-2.628.408-.792.972-1.476 1.692-2.052.72-.576 1.572-1.02 2.556-1.332 1.008-.312 2.112-.468 3.312-.468 1.536 0 2.808.24 3.816.72v-.576c0-.888-.264-1.548-.792-1.98-.504-.432-1.332-.648-2.484-.648-1.08 0-2.076.18-2.988.54-.912.336-1.872.84-2.88 1.512l-1.98-4.248c2.496-1.608 5.34-2.412 8.532-2.412 3.024 0 5.352.672 6.984 2.016 1.632 1.344 2.448 3.36 2.448 6.048v3.672c0 .648.096 1.104.288 1.368.192.24.528.384 1.008.432V111c-.552.12-1.08.204-1.584.252-.48.072-.912.108-1.296.108-1.224 0-2.16-.216-2.808-.648-.624-.456-1.032-1.116-1.224-1.98l-.144-.684c-.84 1.08-1.812 1.908-2.916 2.484-1.104.552-2.28.828-3.528.828zm2.052-4.896c.408 0 .828-.06 1.26-.18.432-.144.816-.324 1.152-.54.264-.192.48-.396.648-.612.168-.24.252-.48.252-.72v-1.404c-.408-.144-.852-.264-1.332-.36-.48-.096-.912-.144-1.296-.144-.84 0-1.536.204-2.088.612-.552.408-.828.924-.828 1.548 0 .528.204.96.612 1.296.432.336.972.504 1.62.504zM230.463 111h-6.84v-10.656c0-.936-.192-1.608-.576-2.016-.36-.432-.804-.648-1.332-.648-.552 0-1.14.252-1.764.756-.6.504-1.044 1.152-1.332 1.944V111h-6.84v-10.656c0-.936-.192-1.608-.576-2.016-.36-.432-.804-.648-1.332-.648-.552 0-1.14.252-1.764.756-.6.504-1.044 1.152-1.332 1.944V111h-6.84V92.064h6.156v2.808c.672-1.032 1.596-1.812 2.772-2.34 1.176-.552 2.568-.828 4.176-.828.768 0 1.44.096 2.016.288.576.168 1.068.408 1.476.72.432.312.768.66 1.008 1.044.264.384.468.792.612 1.224.672-1.032 1.584-1.836 2.736-2.412 1.176-.576 2.508-.864 3.996-.864 1.248 0 2.232.24 2.952.72.744.456 1.308 1.032 1.692 1.728.384.696.636 1.44.756 2.232.12.792.18 1.512.18 2.16V111zm12.652.36c-1.656 0-3.132-.252-4.428-.756-1.296-.528-2.388-1.236-3.276-2.124-.864-.888-1.524-1.908-1.98-3.06-.456-1.152-.684-2.364-.684-3.636 0-1.368.216-2.664.648-3.888.456-1.224 1.116-2.292 1.98-3.204.888-.912 1.968-1.632 3.24-2.16 1.296-.552 2.796-.828 4.5-.828 1.68 0 3.168.276 4.464.828 1.296.528 2.376 1.248 3.24 2.16.888.888 1.548 1.932 1.98 3.132.456 1.176.684 2.412.684 3.708 0 .36-.024.732-.072 1.116-.024.36-.06.684-.108.972h-13.284c.072 1.008.444 1.74 1.116 2.196.672.432 1.404.648 2.196.648.744 0 1.44-.168 2.088-.504.672-.336 1.116-.804 1.332-1.404l5.796 1.656c-.768 1.512-1.956 2.748-3.564 3.708-1.584.96-3.54 1.44-5.868 1.44zm3.024-11.844c-.12-.912-.456-1.632-1.008-2.16-.552-.528-1.26-.792-2.124-.792-.864 0-1.572.264-2.124.792s-.888 1.248-1.008 2.16h6.264zM109.589 146v-9.94h3.528c.802 0 1.502.131 2.1.392.606.261 1.11.616 1.512 1.064.41.448.718.975.924 1.582.205.597.308 1.237.308 1.918 0 .756-.117 1.442-.35 2.058-.224.607-.546 1.129-.966 1.568-.42.429-.929.765-1.526 1.008-.598.233-1.265.35-2.002.35h-3.528zm6.776-4.984c0-.523-.075-1.003-.224-1.442-.14-.439-.35-.812-.63-1.12-.28-.317-.621-.565-1.022-.742-.402-.177-.859-.266-1.372-.266h-1.96v7.168h1.96c.522 0 .984-.089 1.386-.266.41-.187.751-.439 1.022-.756.28-.327.49-.709.63-1.148.14-.439.21-.915.21-1.428zm3.049 4.984v-7.322h1.54V146h-1.54zm0-8.526v-1.694h1.54v1.694h-1.54zm6.051 8.666c-.588 0-1.176-.093-1.764-.28-.579-.196-1.078-.471-1.498-.826l.616-.98c.439.317.873.56 1.302.728.429.159.868.238 1.316.238.457 0 .817-.089 1.078-.266.271-.177.406-.429.406-.756 0-.308-.149-.532-.448-.672-.299-.14-.765-.294-1.4-.462-.457-.121-.849-.238-1.176-.35-.327-.112-.593-.243-.798-.392-.205-.149-.355-.322-.448-.518-.093-.196-.14-.434-.14-.714 0-.373.07-.705.21-.994.149-.289.35-.532.602-.728.261-.205.565-.359.91-.462.345-.103.719-.154 1.12-.154.551 0 1.064.084 1.54.252.476.168.901.411 1.274.728l-.658.924c-.681-.541-1.405-.812-2.17-.812-.392 0-.723.084-.994.252-.261.159-.392.415-.392.77 0 .149.028.275.084.378.056.103.145.191.266.266.131.075.294.145.49.21.205.056.457.121.756.196.495.121.919.243 1.274.364.364.121.663.266.896.434.233.159.406.35.518.574.112.215.168.476.168.784 0 .7-.266 1.255-.798 1.666-.523.401-1.237.602-2.142.602zm3.809-3.808c0-.513.089-.999.266-1.456.178-.457.43-.859.756-1.204.336-.345.738-.616 1.204-.812.467-.205.99-.308 1.568-.308.756 0 1.405.168 1.946.504.551.327.962.765 1.232 1.316l-1.498.476c-.177-.308-.415-.546-.714-.714-.298-.177-.63-.266-.994-.266-.308 0-.597.061-.868.182-.261.121-.49.294-.686.518-.196.215-.35.471-.462.77-.112.299-.168.63-.168.994 0 .355.056.686.168.994.122.299.28.56.476.784.206.224.439.401.7.532.271.121.556.182.854.182.187 0 .374-.023.56-.07.187-.056.355-.131.504-.224.159-.093.294-.201.406-.322.122-.121.21-.252.266-.392l1.512.448c-.242.551-.648 1.003-1.218 1.358-.569.345-1.241.518-2.016.518-.569 0-1.087-.103-1.554-.308-.466-.205-.868-.481-1.204-.826-.326-.355-.583-.761-.77-1.218-.177-.457-.266-.943-.266-1.456zm11.518 3.808c-.579 0-1.101-.103-1.568-.308-.457-.205-.849-.481-1.176-.826-.327-.345-.579-.747-.756-1.204-.177-.467-.266-.952-.266-1.456s.089-.985.266-1.442c.177-.467.429-.873.756-1.218.336-.345.733-.621 1.19-.826.467-.205.985-.308 1.554-.308.569 0 1.083.103 1.54.308.467.205.863.481 1.19.826.336.345.593.751.77 1.218.177.457.266.938.266 1.442s-.089.989-.266 1.456c-.177.457-.434.859-.77 1.204-.327.345-.723.621-1.19.826-.457.205-.971.308-1.54.308zm-2.184-3.78c0 .355.056.681.168.98.112.299.266.56.462.784.196.215.425.387.686.518.271.121.56.182.868.182.308 0 .593-.061.854-.182.271-.131.504-.308.7-.532.196-.224.35-.485.462-.784.112-.299.168-.625.168-.98 0-.345-.056-.667-.168-.966-.112-.308-.266-.574-.462-.798-.196-.224-.429-.397-.7-.518-.261-.131-.546-.196-.854-.196-.299 0-.583.065-.854.196-.261.131-.49.308-.686.532-.196.224-.355.49-.476.798-.112.299-.168.621-.168.966zm9.114 3.64l-2.8-7.322h1.582l2.1 6.02 2.114-6.02h1.456l-2.8 7.322h-1.652zm8.616.14c-.57 0-1.088-.098-1.554-.294-.467-.205-.868-.481-1.204-.826-.327-.345-.584-.747-.77-1.204-.178-.457-.266-.943-.266-1.456s.088-.999.266-1.456c.186-.467.443-.873.77-1.218.336-.355.737-.63 1.204-.826.466-.205.989-.308 1.568-.308.569 0 1.082.103 1.54.308.466.205.863.481 1.19.826.326.336.574.733.742 1.19.177.448.266.919.266 1.414 0 .112-.005.219-.014.322-.01.093-.019.173-.028.238h-5.866c.028.327.102.621.224.882.13.261.294.49.49.686.205.187.434.331.686.434.261.103.532.154.812.154.205 0 .406-.023.602-.07.205-.056.392-.131.56-.224.168-.103.317-.224.448-.364.13-.14.233-.294.308-.462l1.316.378c-.252.551-.672 1.003-1.26 1.358-.579.345-1.256.518-2.03.518zm2.226-4.354c-.028-.308-.108-.593-.238-.854-.122-.261-.28-.481-.476-.658-.196-.187-.425-.331-.686-.434-.262-.103-.537-.154-.826-.154-.29 0-.565.051-.826.154-.252.103-.476.247-.672.434-.196.177-.355.397-.476.658-.122.261-.196.546-.224.854h4.424zm6.898-1.778c-.597.019-1.129.159-1.596.42-.457.252-.784.616-.98 1.092V146h-1.54v-7.322h1.428v1.638c.252-.504.579-.905.98-1.204.411-.308.849-.476 1.316-.504h.224c.065 0 .121.005.168.014v1.386zm4.251-4.228h1.54v8.106c0 .271.07.485.21.644.14.149.336.224.588.224.103 0 .22-.019.35-.056.14-.037.271-.079.392-.126l.224 1.204c-.224.103-.49.182-.798.238-.308.065-.583.098-.826.098-.532 0-.947-.145-1.246-.434-.289-.289-.434-.7-.434-1.232v-8.666zM173.91 146v-7.322h1.54V146h-1.54zm0-8.526v-1.694h1.54v1.694h-1.54zm3.811 8.526v-5.95h-.98v-1.19h.98v-.294c0-.905.21-1.619.63-2.142.42-.523.989-.784 1.708-.784.299 0 .593.042.882.126.289.075.565.182.826.322l-.336 1.148c-.14-.084-.308-.154-.504-.21-.187-.056-.369-.084-.546-.084-.364 0-.644.135-.84.406-.187.271-.28.663-.28 1.176v.336h1.876v1.19h-1.876V146h-1.54zm7.519.14c-.569 0-1.087-.098-1.554-.294-.467-.205-.868-.481-1.204-.826-.327-.345-.583-.747-.77-1.204-.177-.457-.266-.943-.266-1.456s.089-.999.266-1.456c.187-.467.443-.873.77-1.218.336-.355.737-.63 1.204-.826.467-.205.989-.308 1.568-.308.569 0 1.083.103 1.54.308.467.205.863.481 1.19.826.327.336.574.733.742 1.19.177.448.266.919.266 1.414 0 .112-.005.219-.014.322-.009.093-.019.173-.028.238h-5.866c.028.327.103.621.224.882.131.261.294.49.49.686.205.187.434.331.686.434.261.103.532.154.812.154.205 0 .406-.023.602-.07.205-.056.392-.131.56-.224.168-.103.317-.224.448-.364.131-.14.233-.294.308-.462l1.316.378c-.252.551-.672 1.003-1.26 1.358-.579.345-1.255.518-2.03.518zm2.226-4.354c-.028-.308-.107-.593-.238-.854-.121-.261-.28-.481-.476-.658-.196-.187-.425-.331-.686-.434-.261-.103-.537-.154-.826-.154-.289 0-.565.051-.826.154-.252.103-.476.247-.672.434-.196.177-.355.397-.476.658s-.196.546-.224.854h4.424zm2.712 1.078v-1.386h4.186v1.386h-4.186zm5.487-.532c0-.513.088-.999.266-1.456.177-.457.429-.859.756-1.204.336-.345.737-.616 1.204-.812.466-.205.989-.308 1.568-.308.756 0 1.404.168 1.946.504.55.327.961.765 1.232 1.316l-1.498.476c-.178-.308-.416-.546-.714-.714-.299-.177-.63-.266-.994-.266-.308 0-.598.061-.868.182-.262.121-.49.294-.686.518-.196.215-.35.471-.462.77-.112.299-.168.63-.168.994 0 .355.056.686.168.994.121.299.28.56.476.784.205.224.438.401.7.532.27.121.555.182.854.182.186 0 .373-.023.56-.07.186-.056.354-.131.504-.224.158-.093.294-.201.406-.322.121-.121.21-.252.266-.392l1.512.448c-.243.551-.649 1.003-1.218 1.358-.57.345-1.242.518-2.016.518-.57 0-1.088-.103-1.554-.308-.467-.205-.868-.481-1.204-.826-.327-.355-.584-.761-.77-1.218-.178-.457-.266-.943-.266-1.456zM210.527 146h-1.54v-4.102c0-.672-.121-1.167-.364-1.484-.233-.327-.574-.49-1.022-.49-.215 0-.429.042-.644.126-.215.084-.42.205-.616.364-.187.149-.355.331-.504.546-.149.205-.261.434-.336.686V146h-1.54v-10.22h1.54v4.368c.28-.504.658-.896 1.134-1.176.485-.28 1.013-.42 1.582-.42.457 0 .831.084 1.12.252.299.159.537.373.714.644.177.271.299.588.364.952.075.355.112.733.112 1.134V146zm3.734.14c-.355 0-.686-.056-.994-.168-.299-.121-.56-.285-.784-.49-.215-.205-.388-.448-.518-.728-.122-.28-.182-.583-.182-.91 0-.345.074-.658.224-.938.149-.28.359-.523.63-.728.28-.205.606-.364.98-.476.382-.112.802-.168 1.26-.168.345 0 .686.033 1.022.098.336.056.639.135.91.238v-.504c0-.541-.154-.961-.462-1.26-.308-.308-.752-.462-1.33-.462-.392 0-.78.075-1.162.224-.374.14-.761.345-1.162.616l-.476-.98c.942-.635 1.922-.952 2.94-.952 1.008 0 1.792.257 2.352.77.56.513.84 1.251.84 2.212v2.646c0 .327.135.495.406.504V146c-.15.028-.28.047-.392.056-.103.009-.206.014-.308.014-.299 0-.532-.075-.7-.224-.159-.149-.257-.341-.294-.574l-.042-.462c-.327.429-.733.761-1.218.994-.476.224-.99.336-1.54.336zm.42-1.134c.373 0 .723-.065 1.05-.196.336-.14.597-.331.784-.574.196-.168.294-.345.294-.532v-.966c-.262-.103-.542-.182-.84-.238-.29-.056-.574-.084-.854-.084-.551 0-1.004.121-1.358.364-.346.233-.518.546-.518.938 0 .364.135.672.406.924.27.243.616.364 1.036.364zm12.102.994h-1.54v-4.102c0-.691-.112-1.19-.336-1.498-.215-.317-.537-.476-.966-.476-.224 0-.448.042-.672.126-.224.084-.434.205-.63.364-.196.149-.373.331-.532.546-.149.205-.266.434-.35.686V146h-1.54v-7.322h1.4v1.47c.28-.495.686-.882 1.218-1.162.532-.289 1.12-.434 1.764-.434.439 0 .798.079 1.078.238.28.159.499.378.658.658.168.271.285.588.35.952.065.355.098.733.098 1.134V146zm4.685.07c-.494 0-.947-.098-1.358-.294-.41-.205-.765-.481-1.064-.826-.289-.345-.518-.742-.686-1.19-.158-.448-.238-.919-.238-1.414 0-.523.084-1.013.252-1.47.168-.467.402-.868.7-1.204.299-.345.654-.616 1.064-.812.42-.205.882-.308 1.386-.308.588 0 1.102.14 1.54.42.448.28.817.644 1.106 1.092v-1.386h1.358v7.112c0 .532-.098 1.003-.294 1.414-.196.411-.471.756-.826 1.036-.345.289-.756.509-1.232.658-.476.149-.989.224-1.54.224-.812 0-1.488-.14-2.03-.42-.532-.271-.98-.653-1.344-1.148l.868-.812c.28.392.64.691 1.078.896.448.205.924.308 1.428.308.318 0 .616-.042.896-.126.29-.084.542-.215.756-.392.215-.177.383-.401.504-.672.131-.271.196-.593.196-.966v-1.12c-.261.448-.62.793-1.078 1.036-.457.243-.938.364-1.442.364zm.504-1.246c.234 0 .458-.037.672-.112.215-.084.411-.191.588-.322.187-.14.346-.294.476-.462.131-.177.224-.364.28-.56v-1.918c-.093-.233-.214-.443-.364-.63-.149-.196-.322-.364-.518-.504-.186-.14-.387-.247-.602-.322-.214-.084-.429-.126-.644-.126-.336 0-.639.075-.91.224-.261.14-.485.331-.672.574-.186.233-.331.499-.434.798-.102.299-.154.607-.154.924 0 .336.056.653.168.952.122.289.285.546.49.77.206.215.444.387.714.518.28.131.584.196.91.196zm5.403 1.176v-7.322h1.54V146h-1.54zm0-8.526v-1.694h1.54v1.694h-1.54zm9.957 8.526h-1.54v-4.102c0-.691-.112-1.19-.336-1.498-.215-.317-.537-.476-.966-.476-.224 0-.448.042-.672.126-.224.084-.434.205-.63.364-.196.149-.374.331-.532.546-.15.205-.266.434-.35.686V146h-1.54v-7.322h1.4v1.47c.28-.495.686-.882 1.218-1.162.532-.289 1.12-.434 1.764-.434.438 0 .798.079 1.078.238.28.159.499.378.658.658.168.271.284.588.35.952.065.355.098.733.098 1.134V146zm4.685.07c-.494 0-.947-.098-1.358-.294-.41-.205-.765-.481-1.064-.826-.289-.345-.518-.742-.686-1.19-.158-.448-.238-.919-.238-1.414 0-.523.084-1.013.252-1.47.168-.467.402-.868.7-1.204.299-.345.654-.616 1.064-.812.42-.205.882-.308 1.386-.308.588 0 1.102.14 1.54.42.448.28.817.644 1.106 1.092v-1.386h1.358v7.112c0 .532-.098 1.003-.294 1.414-.196.411-.471.756-.826 1.036-.345.289-.756.509-1.232.658-.476.149-.989.224-1.54.224-.812 0-1.488-.14-2.03-.42-.532-.271-.98-.653-1.344-1.148l.868-.812c.28.392.64.691 1.078.896.448.205.924.308 1.428.308.318 0 .616-.042.896-.126.29-.084.542-.215.756-.392.215-.177.383-.401.504-.672.131-.271.196-.593.196-.966v-1.12c-.261.448-.62.793-1.078 1.036-.457.243-.938.364-1.442.364zm.504-1.246c.234 0 .458-.037.672-.112.215-.084.411-.191.588-.322.187-.14.346-.294.476-.462.131-.177.224-.364.28-.56v-1.918c-.093-.233-.214-.443-.364-.63-.149-.196-.322-.364-.518-.504-.186-.14-.387-.247-.602-.322-.214-.084-.429-.126-.644-.126-.336 0-.639.075-.91.224-.261.14-.485.331-.672.574-.186.233-.331.499-.434.798-.102.299-.154.607-.154.924 0 .336.056.653.168.952.122.289.285.546.49.77.206.215.444.387.714.518.28.131.584.196.91.196zM72.173 162.14c-.579 0-1.101-.103-1.568-.308-.457-.205-.85-.481-1.176-.826-.327-.345-.579-.747-.756-1.204-.177-.467-.266-.952-.266-1.456s.089-.985.266-1.442c.177-.467.43-.873.756-1.218.336-.345.733-.621 1.19-.826.467-.205.985-.308 1.554-.308.57 0 1.083.103 1.54.308.467.205.863.481 1.19.826.336.345.593.751.77 1.218.177.457.266.938.266 1.442s-.089.989-.266 1.456c-.177.457-.434.859-.77 1.204-.327.345-.723.621-1.19.826-.457.205-.97.308-1.54.308zm-2.184-3.78c0 .355.056.681.168.98.112.299.266.56.462.784.196.215.425.387.686.518.27.121.56.182.868.182.308 0 .593-.061.854-.182.27-.131.504-.308.7-.532.196-.224.35-.485.462-.784.112-.299.168-.625.168-.98 0-.345-.056-.667-.168-.966-.112-.308-.266-.574-.462-.798-.196-.224-.43-.397-.7-.518-.261-.131-.546-.196-.854-.196-.299 0-.583.065-.854.196-.261.131-.49.308-.686.532-.196.224-.355.49-.476.798-.112.299-.168.621-.168.966zm11.474 3.78c-.588 0-1.106-.14-1.554-.42-.448-.28-.803-.644-1.064-1.092v4.354h-1.54v-10.304h1.358v1.316c.28-.439.64-.789 1.078-1.05.448-.261.952-.392 1.512-.392.504 0 .966.103 1.386.308.42.205.784.481 1.092.826.308.345.546.747.714 1.204.177.457.266.938.266 1.442 0 .532-.08 1.031-.238 1.498-.159.457-.383.859-.672 1.204-.29.336-.635.607-1.036.812-.392.196-.826.294-1.302.294zm-.504-1.316c.326 0 .62-.07.882-.21.27-.14.5-.327.686-.56.196-.233.345-.499.448-.798.103-.299.154-.607.154-.924 0-.336-.06-.653-.182-.952-.112-.299-.27-.56-.476-.784-.196-.224-.434-.401-.714-.532-.28-.131-.584-.196-.91-.196-.196 0-.401.037-.616.112-.215.075-.415.177-.602.308s-.35.285-.49.462c-.14.168-.238.355-.294.56v1.918c.093.224.215.434.364.63.15.196.313.364.49.504.186.14.387.252.602.336.215.084.434.126.658.126zm9.295 1.316c-.588 0-1.106-.14-1.554-.42-.448-.28-.803-.644-1.064-1.092v4.354h-1.54v-10.304h1.358v1.316c.28-.439.64-.789 1.078-1.05.448-.261.952-.392 1.512-.392.504 0 .966.103 1.386.308.42.205.784.481 1.092.826.308.345.546.747.714 1.204.177.457.266.938.266 1.442 0 .532-.08 1.031-.238 1.498-.159.457-.383.859-.672 1.204-.29.336-.635.607-1.036.812-.392.196-.826.294-1.302.294zm-.504-1.316c.326 0 .62-.07.882-.21.27-.14.5-.327.686-.56.196-.233.345-.499.448-.798.102-.299.154-.607.154-.924 0-.336-.06-.653-.182-.952-.112-.299-.27-.56-.476-.784-.196-.224-.434-.401-.714-.532-.28-.131-.584-.196-.91-.196-.196 0-.401.037-.616.112-.215.075-.416.177-.602.308-.187.131-.35.285-.49.462-.14.168-.238.355-.294.56v1.918c.093.224.215.434.364.63.15.196.313.364.49.504.187.14.387.252.602.336.215.084.434.126.658.126zm8.427 1.316c-.579 0-1.101-.103-1.568-.308-.457-.205-.85-.481-1.176-.826-.327-.345-.579-.747-.756-1.204-.177-.467-.266-.952-.266-1.456s.089-.985.266-1.442c.177-.467.43-.873.756-1.218.336-.345.733-.621 1.19-.826.467-.205.985-.308 1.554-.308.57 0 1.083.103 1.54.308.467.205.863.481 1.19.826.336.345.593.751.77 1.218.177.457.266.938.266 1.442s-.089.989-.266 1.456c-.177.457-.434.859-.77 1.204-.327.345-.723.621-1.19.826-.457.205-.97.308-1.54.308zm-2.184-3.78c0 .355.056.681.168.98.112.299.266.56.462.784.196.215.425.387.686.518.27.121.56.182.868.182.308 0 .593-.061.854-.182.27-.131.504-.308.7-.532.196-.224.35-.485.462-.784.112-.299.168-.625.168-.98 0-.345-.056-.667-.168-.966-.112-.308-.266-.574-.462-.798-.196-.224-.43-.397-.7-.518-.261-.131-.546-.196-.854-.196-.299 0-.583.065-.854.196-.261.131-.49.308-.686.532-.196.224-.355.49-.476.798-.112.299-.168.621-.168.966zm11.432-2.352c-.598.019-1.13.159-1.596.42-.458.252-.784.616-.98 1.092V162h-1.54v-7.322h1.428v1.638c.252-.504.578-.905.98-1.204.41-.308.849-.476 1.316-.504h.224c.065 0 .121.005.168.014v1.386zm5.194 5.614c-.196.093-.467.201-.812.322-.345.112-.714.168-1.106.168-.243 0-.471-.033-.686-.098-.215-.065-.406-.163-.574-.294-.159-.131-.285-.299-.378-.504-.093-.215-.14-.471-.14-.77v-4.578h-.966v-1.19h.966v-2.408h1.54v2.408h1.596v1.19h-1.596v4.088c.019.261.098.453.238.574.149.112.331.168.546.168.215 0 .42-.037.616-.112.196-.075.341-.135.434-.182l.322 1.218zm3.321.518c-.766 0-1.344-.247-1.736-.742-.392-.504-.588-1.251-.588-2.24v-4.48h1.54v4.172c0 1.316.466 1.974 1.4 1.974.438 0 .854-.135 1.246-.406s.695-.663.91-1.176v-4.564h1.54v5.502c0 .177.028.303.084.378.065.075.177.117.336.126V162c-.159.028-.29.047-.392.056-.103.009-.201.014-.294.014-.28 0-.518-.075-.714-.224-.196-.159-.299-.359-.308-.602l-.028-.728c-.327.532-.752.938-1.274 1.218-.523.271-1.097.406-1.722.406zm12.843-.14h-1.54v-4.102c0-.691-.112-1.19-.336-1.498-.215-.317-.537-.476-.966-.476-.224 0-.448.042-.672.126-.224.084-.434.205-.63.364-.196.149-.373.331-.532.546-.149.205-.266.434-.35.686V162h-1.54v-7.322h1.4v1.47c.28-.495.686-.882 1.218-1.162.532-.289 1.12-.434 1.764-.434.439 0 .798.079 1.078.238.28.159.499.378.658.658.168.271.285.588.35.952.065.355.098.733.098 1.134V162zm1.787 0v-7.322h1.54V162h-1.54zm0-8.526v-1.694h1.54v1.694h-1.54zm7.465 8.148c-.196.093-.467.201-.812.322-.345.112-.714.168-1.106.168-.243 0-.471-.033-.686-.098-.215-.065-.406-.163-.574-.294-.159-.131-.285-.299-.378-.504-.093-.215-.14-.471-.14-.77v-4.578h-.966v-1.19h.966v-2.408h1.54v2.408h1.596v1.19h-1.596v4.088c.019.261.098.453.238.574.149.112.331.168.546.168.215 0 .42-.037.616-.112.196-.075.341-.135.434-.182l.322 1.218zm1.067.378v-7.322h1.54V162h-1.54zm0-8.526v-1.694h1.54v1.694h-1.54zm6.708 8.666c-.569 0-1.087-.098-1.554-.294-.466-.205-.868-.481-1.204-.826-.326-.345-.583-.747-.77-1.204-.177-.457-.266-.943-.266-1.456s.089-.999.266-1.456c.187-.467.444-.873.77-1.218.336-.355.738-.63 1.204-.826.467-.205.99-.308 1.568-.308.57 0 1.083.103 1.54.308.467.205.864.481 1.19.826.327.336.574.733.742 1.19.178.448.266.919.266 1.414 0 .112-.004.219-.014.322-.009.093-.018.173-.028.238h-5.866c.028.327.103.621.224.882.131.261.294.49.49.686.206.187.434.331.686.434.262.103.532.154.812.154.206 0 .406-.023.602-.07.206-.056.392-.131.56-.224.168-.103.318-.224.448-.364.131-.14.234-.294.308-.462l1.316.378c-.252.551-.672 1.003-1.26 1.358-.578.345-1.255.518-2.03.518zm2.226-4.354c-.028-.308-.107-.593-.238-.854-.121-.261-.28-.481-.476-.658-.196-.187-.424-.331-.686-.434-.261-.103-.536-.154-.826-.154-.289 0-.564.051-.826.154-.252.103-.476.247-.672.434-.196.177-.354.397-.476.658-.121.261-.196.546-.224.854h4.424zm5.443 4.354c-.588 0-1.176-.093-1.764-.28-.579-.196-1.078-.471-1.498-.826l.616-.98c.438.317.872.56 1.302.728.429.159.868.238 1.316.238.457 0 .816-.089 1.078-.266.27-.177.406-.429.406-.756 0-.308-.15-.532-.448-.672-.299-.14-.766-.294-1.4-.462-.458-.121-.85-.238-1.176-.35-.327-.112-.593-.243-.798-.392-.206-.149-.355-.322-.448-.518-.094-.196-.14-.434-.14-.714 0-.373.07-.705.21-.994.149-.289.35-.532.602-.728.261-.205.564-.359.91-.462.345-.103.718-.154 1.12-.154.55 0 1.064.084 1.54.252.476.168.9.411 1.274.728l-.658.924c-.682-.541-1.405-.812-2.17-.812-.392 0-.724.084-.994.252-.262.159-.392.415-.392.77 0 .149.028.275.084.378.056.103.144.191.266.266.13.075.294.145.49.21.205.056.457.121.756.196.494.121.919.243 1.274.364.364.121.662.266.896.434.233.159.406.35.518.574.112.215.168.476.168.784 0 .7-.266 1.255-.798 1.666-.523.401-1.237.602-2.142.602zm9.69 0c-.355 0-.686-.056-.994-.168-.299-.121-.56-.285-.784-.49-.215-.205-.388-.448-.518-.728-.122-.28-.182-.583-.182-.91 0-.345.074-.658.224-.938.149-.28.359-.523.63-.728.28-.205.606-.364.98-.476.382-.112.802-.168 1.26-.168.345 0 .686.033 1.022.098.336.056.639.135.91.238v-.504c0-.541-.154-.961-.462-1.26-.308-.308-.752-.462-1.33-.462-.392 0-.78.075-1.162.224-.374.14-.761.345-1.162.616l-.476-.98c.942-.635 1.922-.952 2.94-.952 1.008 0 1.792.257 2.352.77.56.513.84 1.251.84 2.212v2.646c0 .327.135.495.406.504V162c-.15.028-.28.047-.392.056-.103.009-.206.014-.308.014-.299 0-.532-.075-.7-.224-.159-.149-.257-.341-.294-.574l-.042-.462c-.327.429-.733.761-1.218.994-.476.224-.99.336-1.54.336zm.42-1.134c.373 0 .723-.065 1.05-.196.336-.14.597-.331.784-.574.196-.168.294-.345.294-.532v-.966c-.262-.103-.542-.182-.84-.238-.29-.056-.574-.084-.854-.084-.551 0-1.004.121-1.358.364-.346.233-.518.546-.518.938 0 .364.135.672.406.924.27.243.616.364 1.036.364zm12.102.994h-1.54v-4.102c0-.691-.112-1.19-.336-1.498-.214-.317-.536-.476-.966-.476-.224 0-.448.042-.672.126-.224.084-.434.205-.63.364-.196.149-.373.331-.532.546-.149.205-.266.434-.35.686V162h-1.54v-7.322h1.4v1.47c.28-.495.686-.882 1.218-1.162.532-.289 1.12-.434 1.764-.434.439 0 .798.079 1.078.238.28.159.5.378.658.658.168.271.285.588.35.952.066.355.098.733.098 1.134V162zm4.77.14c-.495 0-.952-.098-1.372-.294-.42-.205-.784-.481-1.092-.826-.308-.345-.551-.747-.728-1.204-.168-.467-.252-.966-.252-1.498 0-.513.079-.994.238-1.442.168-.457.396-.859.686-1.204.298-.345.644-.616 1.036-.812.401-.205.84-.308 1.316-.308.588 0 1.106.145 1.554.434.448.28.798.639 1.05 1.078v-4.284h1.54v8.4c0 .177.028.303.084.378.065.075.177.117.336.126V162c-.159.028-.29.047-.392.056-.094.009-.173.014-.238.014-.308 0-.56-.079-.756-.238-.196-.159-.304-.364-.322-.616l-.028-.546c-.271.457-.64.817-1.106 1.078-.467.261-.985.392-1.554.392zm.378-1.316c.224 0 .448-.037.672-.112.224-.075.429-.177.616-.308.186-.131.345-.285.476-.462.14-.177.238-.369.294-.574v-1.918c-.084-.233-.206-.448-.364-.644-.15-.196-.322-.364-.518-.504s-.406-.247-.63-.322c-.215-.075-.434-.112-.658-.112-.308 0-.593.07-.854.21-.252.14-.472.327-.658.56-.187.233-.336.499-.448.798-.103.299-.154.607-.154.924 0 .336.056.653.168.952.121.299.284.56.49.784.205.224.438.401.7.532.27.131.56.196.868.196zm13.129-4.816c-.598.019-1.13.159-1.596.42-.458.252-.784.616-.98 1.092V162h-1.54v-7.322h1.428v1.638c.252-.504.578-.905.98-1.204.41-.308.849-.476 1.316-.504h.224c.065 0 .121.005.168.014v1.386zm4.069 6.132c-.569 0-1.087-.098-1.554-.294-.467-.205-.868-.481-1.204-.826-.327-.345-.583-.747-.77-1.204-.177-.457-.266-.943-.266-1.456s.089-.999.266-1.456c.187-.467.443-.873.77-1.218.336-.355.737-.63 1.204-.826.467-.205.989-.308 1.568-.308.569 0 1.083.103 1.54.308.467.205.863.481 1.19.826.327.336.574.733.742 1.19.177.448.266.919.266 1.414 0 .112-.005.219-.014.322-.009.093-.019.173-.028.238h-5.866c.028.327.103.621.224.882.131.261.294.49.49.686.205.187.434.331.686.434.261.103.532.154.812.154.205 0 .406-.023.602-.07.205-.056.392-.131.56-.224.168-.103.317-.224.448-.364.131-.14.233-.294.308-.462l1.316.378c-.252.551-.672 1.003-1.26 1.358-.579.345-1.255.518-2.03.518zm2.226-4.354c-.028-.308-.107-.593-.238-.854-.121-.261-.28-.481-.476-.658-.196-.187-.425-.331-.686-.434-.261-.103-.537-.154-.826-.154-.289 0-.565.051-.826.154-.252.103-.476.247-.672.434-.196.177-.355.397-.476.658s-.196.546-.224.854h4.424zm5.442 4.354c-.588 0-1.176-.093-1.764-.28-.579-.196-1.078-.471-1.498-.826l.616-.98c.439.317.873.56 1.302.728.429.159.868.238 1.316.238.457 0 .817-.089 1.078-.266.271-.177.406-.429.406-.756 0-.308-.149-.532-.448-.672-.299-.14-.765-.294-1.4-.462-.457-.121-.849-.238-1.176-.35-.327-.112-.593-.243-.798-.392-.205-.149-.355-.322-.448-.518-.093-.196-.14-.434-.14-.714 0-.373.07-.705.21-.994.149-.289.35-.532.602-.728.261-.205.565-.359.91-.462.345-.103.719-.154 1.12-.154.551 0 1.064.084 1.54.252.476.168.901.411 1.274.728l-.658.924c-.681-.541-1.405-.812-2.17-.812-.392 0-.723.084-.994.252-.261.159-.392.415-.392.77 0 .149.028.275.084.378.056.103.145.191.266.266.131.075.294.145.49.21.205.056.457.121.756.196.495.121.919.243 1.274.364.364.121.663.266.896.434.233.159.406.35.518.574.112.215.168.476.168.784 0 .7-.266 1.255-.798 1.666-.523.401-1.237.602-2.142.602zm7.575 0c-.578 0-1.101-.103-1.568-.308-.457-.205-.849-.481-1.176-.826-.326-.345-.578-.747-.756-1.204-.177-.467-.266-.952-.266-1.456s.089-.985.266-1.442c.178-.467.43-.873.756-1.218.336-.345.733-.621 1.19-.826.467-.205.985-.308 1.554-.308.57 0 1.083.103 1.54.308.467.205.864.481 1.19.826.336.345.593.751.77 1.218.178.457.266.938.266 1.442s-.088.989-.266 1.456c-.177.457-.434.859-.77 1.204-.326.345-.723.621-1.19.826-.457.205-.97.308-1.54.308zm-2.184-3.78c0 .355.056.681.168.98.112.299.266.56.462.784.196.215.425.387.686.518.271.121.56.182.868.182.308 0 .593-.061.854-.182.271-.131.504-.308.7-.532.196-.224.35-.485.462-.784.112-.299.168-.625.168-.98 0-.345-.056-.667-.168-.966-.112-.308-.266-.574-.462-.798-.196-.224-.429-.397-.7-.518-.261-.131-.546-.196-.854-.196-.298 0-.583.065-.854.196-.261.131-.49.308-.686.532-.196.224-.354.49-.476.798-.112.299-.168.621-.168.966zm9.57 3.78c-.765 0-1.344-.247-1.736-.742-.392-.504-.588-1.251-.588-2.24v-4.48h1.54v4.172c0 1.316.467 1.974 1.4 1.974.439 0 .854-.135 1.246-.406s.696-.663.91-1.176v-4.564h1.54v5.502c0 .177.028.303.084.378.066.075.178.117.336.126V162c-.158.028-.289.047-.392.056-.102.009-.2.014-.294.014-.28 0-.518-.075-.714-.224-.196-.159-.298-.359-.308-.602l-.028-.728c-.326.532-.751.938-1.274 1.218-.522.271-1.096.406-1.722.406zm10.394-6.132c-.598.019-1.13.159-1.596.42-.458.252-.784.616-.98 1.092V162h-1.54v-7.322h1.428v1.638c.252-.504.578-.905.98-1.204.41-.308.849-.476 1.316-.504h.224c.065 0 .121.005.168.014v1.386zm.275 2.324c0-.513.088-.999.266-1.456.177-.457.429-.859.756-1.204.336-.345.737-.616 1.204-.812.466-.205.989-.308 1.568-.308.756 0 1.404.168 1.946.504.55.327.961.765 1.232 1.316l-1.498.476c-.178-.308-.416-.546-.714-.714-.299-.177-.63-.266-.994-.266-.308 0-.598.061-.868.182-.262.121-.49.294-.686.518-.196.215-.35.471-.462.77-.112.299-.168.63-.168.994 0 .355.056.686.168.994.121.299.28.56.476.784.205.224.438.401.7.532.27.121.555.182.854.182.186 0 .373-.023.56-.07.186-.056.354-.131.504-.224.158-.093.294-.201.406-.322.121-.121.21-.252.266-.392l1.512.448c-.243.551-.649 1.003-1.218 1.358-.57.345-1.242.518-2.016.518-.57 0-1.088-.103-1.554-.308-.467-.205-.868-.481-1.204-.826-.327-.355-.584-.761-.77-1.218-.178-.457-.266-.943-.266-1.456zm11.546 3.808c-.57 0-1.088-.098-1.554-.294-.467-.205-.868-.481-1.204-.826-.327-.345-.584-.747-.77-1.204-.178-.457-.266-.943-.266-1.456s.088-.999.266-1.456c.186-.467.443-.873.77-1.218.336-.355.737-.63 1.204-.826.466-.205.989-.308 1.568-.308.569 0 1.082.103 1.54.308.466.205.863.481 1.19.826.326.336.574.733.742 1.19.177.448.266.919.266 1.414 0 .112-.005.219-.014.322-.01.093-.019.173-.028.238h-5.866c.028.327.102.621.224.882.13.261.294.49.49.686.205.187.434.331.686.434.261.103.532.154.812.154.205 0 .406-.023.602-.07.205-.056.392-.131.56-.224.168-.103.317-.224.448-.364.13-.14.233-.294.308-.462l1.316.378c-.252.551-.672 1.003-1.26 1.358-.579.345-1.256.518-2.03.518zm2.226-4.354c-.028-.308-.108-.593-.238-.854-.122-.261-.28-.481-.476-.658-.196-.187-.425-.331-.686-.434-.262-.103-.537-.154-.826-.154-.29 0-.565.051-.826.154-.252.103-.476.247-.672.434-.196.177-.355.397-.476.658-.122.261-.196.546-.224.854h4.424zm5.442 4.354c-.588 0-1.176-.093-1.764-.28-.579-.196-1.078-.471-1.498-.826l.616-.98c.439.317.873.56 1.302.728.429.159.868.238 1.316.238.457 0 .817-.089 1.078-.266.271-.177.406-.429.406-.756 0-.308-.149-.532-.448-.672-.299-.14-.765-.294-1.4-.462-.457-.121-.849-.238-1.176-.35-.327-.112-.593-.243-.798-.392-.205-.149-.355-.322-.448-.518-.093-.196-.14-.434-.14-.714 0-.373.07-.705.21-.994.149-.289.35-.532.602-.728.261-.205.565-.359.91-.462.345-.103.719-.154 1.12-.154.551 0 1.064.084 1.54.252.476.168.901.411 1.274.728l-.658.924c-.681-.541-1.405-.812-2.17-.812-.392 0-.723.084-.994.252-.261.159-.392.415-.392.77 0 .149.028.275.084.378.056.103.145.191.266.266.131.075.294.145.49.21.205.056.457.121.756.196.495.121.919.243 1.274.364.364.121.663.266.896.434.233.159.406.35.518.574.112.215.168.476.168.784 0 .7-.266 1.255-.798 1.666-.523.401-1.237.602-2.142.602zm4.383 1.218l.336-1.442h-.504v-1.708h1.386v1.708l-.49 1.442h-.728zM60.575 178.14c-.355 0-.686-.056-.994-.168-.299-.121-.56-.285-.784-.49-.215-.205-.387-.448-.518-.728-.121-.28-.182-.583-.182-.91 0-.345.075-.658.224-.938.15-.28.36-.523.63-.728.28-.205.607-.364.98-.476.383-.112.803-.168 1.26-.168.345 0 .686.033 1.022.098.336.056.64.135.91.238v-.504c0-.541-.154-.961-.462-1.26-.308-.308-.751-.462-1.33-.462-.392 0-.78.075-1.162.224-.373.14-.76.345-1.162.616l-.476-.98c.943-.635 1.923-.952 2.94-.952 1.008 0 1.792.257 2.352.77.56.513.84 1.251.84 2.212v2.646c0 .327.135.495.406.504V178c-.15.028-.28.047-.392.056-.103.009-.205.014-.308.014-.299 0-.532-.075-.7-.224-.159-.149-.257-.341-.294-.574l-.042-.462c-.327.429-.733.761-1.218.994-.476.224-.99.336-1.54.336zm.42-1.134c.373 0 .723-.065 1.05-.196.336-.14.597-.331.784-.574.196-.168.294-.345.294-.532v-.966c-.261-.103-.541-.182-.84-.238-.29-.056-.574-.084-.854-.084-.55 0-1.003.121-1.358.364-.345.233-.518.546-.518.938 0 .364.135.672.406.924.27.243.616.364 1.036.364zm12.102.994h-1.54v-4.102c0-.691-.112-1.19-.336-1.498-.214-.317-.536-.476-.966-.476-.224 0-.448.042-.672.126-.224.084-.434.205-.63.364-.196.149-.373.331-.532.546-.149.205-.266.434-.35.686V178h-1.54v-7.322h1.4v1.47c.28-.495.686-.882 1.218-1.162.532-.289 1.12-.434 1.764-.434.44 0 .798.079 1.078.238.28.159.5.378.658.658.168.271.285.588.35.952.066.355.098.733.098 1.134V178zm4.77.14c-.495 0-.952-.098-1.372-.294-.42-.205-.784-.481-1.092-.826-.308-.345-.55-.747-.728-1.204-.168-.467-.252-.966-.252-1.498 0-.513.08-.994.238-1.442.168-.457.397-.859.686-1.204.299-.345.644-.616 1.036-.812.401-.205.84-.308 1.316-.308.588 0 1.106.145 1.554.434.448.28.798.639 1.05 1.078v-4.284h1.54v8.4c0 .177.028.303.084.378.065.075.177.117.336.126V178c-.159.028-.29.047-.392.056-.093.009-.173.014-.238.014-.308 0-.56-.079-.756-.238-.196-.159-.303-.364-.322-.616l-.028-.546c-.27.457-.64.817-1.106 1.078-.467.261-.985.392-1.554.392zm.378-1.316c.224 0 .448-.037.672-.112.224-.075.43-.177.616-.308.187-.131.345-.285.476-.462.14-.177.238-.369.294-.574v-1.918c-.084-.233-.205-.448-.364-.644-.15-.196-.322-.364-.518-.504s-.406-.247-.63-.322c-.215-.075-.434-.112-.658-.112-.308 0-.593.07-.854.21-.252.14-.471.327-.658.56-.187.233-.336.499-.448.798-.103.299-.154.607-.154.924 0 .336.056.653.168.952.121.299.285.56.49.784.205.224.439.401.7.532.27.131.56.196.868.196zm8.537-2.492c0-.513.089-.999.266-1.456.177-.457.43-.859.756-1.204.336-.345.737-.616 1.204-.812.467-.205.99-.308 1.568-.308.756 0 1.405.168 1.946.504.55.327.961.765 1.232 1.316l-1.498.476c-.177-.308-.415-.546-.714-.714-.299-.177-.63-.266-.994-.266-.308 0-.597.061-.868.182-.261.121-.49.294-.686.518-.196.215-.35.471-.462.77-.112.299-.168.63-.168.994 0 .355.056.686.168.994.121.299.28.56.476.784.205.224.439.401.7.532.27.121.555.182.854.182.187 0 .373-.023.56-.07.187-.056.355-.131.504-.224.159-.093.294-.201.406-.322.121-.121.21-.252.266-.392l1.512.448c-.243.551-.649 1.003-1.218 1.358-.57.345-1.241.518-2.016.518-.57 0-1.087-.103-1.554-.308-.467-.205-.868-.481-1.204-.826-.327-.355-.583-.761-.77-1.218-.177-.457-.266-.943-.266-1.456zM98.3 178.14c-.579 0-1.101-.103-1.568-.308-.457-.205-.85-.481-1.176-.826-.327-.345-.579-.747-.756-1.204-.177-.467-.266-.952-.266-1.456s.089-.985.266-1.442c.177-.467.43-.873.756-1.218.336-.345.733-.621 1.19-.826.467-.205.985-.308 1.554-.308.57 0 1.083.103 1.54.308.467.205.863.481 1.19.826.336.345.593.751.77 1.218.177.457.266.938.266 1.442s-.089.989-.266 1.456c-.177.457-.434.859-.77 1.204-.327.345-.723.621-1.19.826-.457.205-.97.308-1.54.308zm-2.184-3.78c0 .355.056.681.168.98.112.299.266.56.462.784.196.215.425.387.686.518.27.121.56.182.868.182.308 0 .593-.061.854-.182.27-.131.504-.308.7-.532.196-.224.35-.485.462-.784.112-.299.168-.625.168-.98 0-.345-.056-.667-.168-.966-.112-.308-.266-.574-.462-.798-.196-.224-.43-.397-.7-.518-.261-.131-.546-.196-.854-.196-.299 0-.583.065-.854.196-.261.131-.49.308-.686.532-.196.224-.355.49-.476.798-.112.299-.168.621-.168.966zm13.882 3.64h-1.54v-4.102c0-.691-.112-1.19-.336-1.498-.215-.317-.537-.476-.966-.476-.224 0-.448.042-.672.126-.224.084-.434.205-.63.364-.196.149-.374.331-.532.546-.15.205-.266.434-.35.686V178h-1.54v-7.322h1.4v1.47c.28-.495.686-.882 1.218-1.162.532-.289 1.12-.434 1.764-.434.438 0 .798.079 1.078.238.28.159.499.378.658.658.168.271.284.588.35.952.065.355.098.733.098 1.134V178zm5.793-.378c-.196.093-.467.201-.812.322-.345.112-.714.168-1.106.168-.243 0-.471-.033-.686-.098-.215-.065-.406-.163-.574-.294-.159-.131-.285-.299-.378-.504-.093-.215-.14-.471-.14-.77v-4.578h-.966v-1.19h.966v-2.408h1.54v2.408h1.596v1.19h-1.596v4.088c.019.261.098.453.238.574.149.112.331.168.546.168.215 0 .42-.037.616-.112.196-.075.341-.135.434-.182l.322 1.218zm1.067.378v-7.322h1.54V178h-1.54zm0-8.526v-1.694h1.54v1.694h-1.54zm9.956 8.526h-1.54v-4.102c0-.691-.112-1.19-.336-1.498-.214-.317-.536-.476-.966-.476-.224 0-.448.042-.672.126-.224.084-.434.205-.63.364-.196.149-.373.331-.532.546-.149.205-.266.434-.35.686V178h-1.54v-7.322h1.4v1.47c.28-.495.686-.882 1.218-1.162.532-.289 1.12-.434 1.764-.434.439 0 .798.079 1.078.238.28.159.5.378.658.658.168.271.285.588.35.952.066.355.098.733.098 1.134V178zm4.042.14c-.766 0-1.344-.247-1.736-.742-.392-.504-.588-1.251-.588-2.24v-4.48h1.54v4.172c0 1.316.466 1.974 1.4 1.974.438 0 .854-.135 1.246-.406s.695-.663.91-1.176v-4.564h1.54v5.502c0 .177.028.303.084.378.065.075.177.117.336.126V178c-.159.028-.29.047-.392.056-.103.009-.201.014-.294.014-.28 0-.518-.075-.714-.224-.196-.159-.299-.359-.308-.602l-.028-.728c-.327.532-.752.938-1.274 1.218-.523.271-1.097.406-1.722.406zm9.567 0c-.579 0-1.101-.103-1.568-.308-.457-.205-.849-.481-1.176-.826-.327-.345-.579-.747-.756-1.204-.177-.467-.266-.952-.266-1.456s.089-.985.266-1.442c.177-.467.429-.873.756-1.218.336-.345.733-.621 1.19-.826.467-.205.985-.308 1.554-.308.569 0 1.083.103 1.54.308.467.205.863.481 1.19.826.336.345.593.751.77 1.218.177.457.266.938.266 1.442s-.089.989-.266 1.456c-.177.457-.434.859-.77 1.204-.327.345-.723.621-1.19.826-.457.205-.971.308-1.54.308zm-2.184-3.78c0 .355.056.681.168.98.112.299.266.56.462.784.196.215.425.387.686.518.271.121.56.182.868.182.308 0 .593-.061.854-.182.271-.131.504-.308.7-.532.196-.224.35-.485.462-.784.112-.299.168-.625.168-.98 0-.345-.056-.667-.168-.966-.112-.308-.266-.574-.462-.798-.196-.224-.429-.397-.7-.518-.261-.131-.546-.196-.854-.196-.299 0-.583.065-.854.196-.261.131-.49.308-.686.532-.196.224-.355.49-.476.798-.112.299-.168.621-.168.966zm9.57 3.78c-.765 0-1.344-.247-1.736-.742-.392-.504-.588-1.251-.588-2.24v-4.48h1.54v4.172c0 1.316.467 1.974 1.4 1.974.439 0 .854-.135 1.246-.406s.695-.663.91-1.176v-4.564h1.54v5.502c0 .177.028.303.084.378.065.075.177.117.336.126V178c-.159.028-.289.047-.392.056-.103.009-.201.014-.294.014-.28 0-.518-.075-.714-.224-.196-.159-.299-.359-.308-.602l-.028-.728c-.327.532-.751.938-1.274 1.218-.523.271-1.097.406-1.722.406zm8.937 0c-.588 0-1.176-.093-1.764-.28-.579-.196-1.078-.471-1.498-.826l.616-.98c.439.317.873.56 1.302.728.429.159.868.238 1.316.238.457 0 .817-.089 1.078-.266.271-.177.406-.429.406-.756 0-.308-.149-.532-.448-.672-.299-.14-.765-.294-1.4-.462-.457-.121-.849-.238-1.176-.35-.327-.112-.593-.243-.798-.392-.205-.149-.355-.322-.448-.518-.093-.196-.14-.434-.14-.714 0-.373.07-.705.21-.994.149-.289.35-.532.602-.728.261-.205.565-.359.91-.462.345-.103.719-.154 1.12-.154.551 0 1.064.084 1.54.252.476.168.901.411 1.274.728l-.658.924c-.681-.541-1.405-.812-2.17-.812-.392 0-.723.084-.994.252-.261.159-.392.415-.392.77 0 .149.028.275.084.378.056.103.145.191.266.266.131.075.294.145.49.21.205.056.457.121.756.196.495.121.919.243 1.274.364.364.121.663.266.896.434.233.159.406.35.518.574.112.215.168.476.168.784 0 .7-.266 1.255-.798 1.666-.523.401-1.237.602-2.142.602zm4.299-10.36h1.54v8.106c0 .271.07.485.21.644.14.149.336.224.588.224.103 0 .22-.019.35-.056.14-.037.271-.079.392-.126l.224 1.204c-.224.103-.49.182-.798.238-.308.065-.583.098-.826.098-.532 0-.947-.145-1.246-.434-.289-.289-.434-.7-.434-1.232v-8.666zm4.299 11.942c.14.028.275.051.406.07.14.019.252.028.336.028.121 0 .224-.028.308-.084.093-.047.187-.135.28-.266.093-.131.187-.317.28-.56.103-.233.219-.537.35-.91l-3.01-7.322h1.582l2.268 5.964 2.016-5.964h1.456l-3.318 9.016c-.149.42-.411.77-.784 1.05-.364.289-.835.434-1.414.434-.112 0-.229-.009-.35-.028-.121-.009-.257-.037-.406-.084v-1.344zm13.798-1.582c-.569 0-1.087-.098-1.554-.294-.466-.205-.868-.481-1.204-.826-.326-.345-.583-.747-.77-1.204-.177-.457-.266-.943-.266-1.456s.089-.999.266-1.456c.187-.467.444-.873.77-1.218.336-.355.738-.63 1.204-.826.467-.205.99-.308 1.568-.308.57 0 1.083.103 1.54.308.467.205.864.481 1.19.826.327.336.574.733.742 1.19.178.448.266.919.266 1.414 0 .112-.004.219-.014.322-.009.093-.018.173-.028.238h-5.866c.028.327.103.621.224.882.131.261.294.49.49.686.206.187.434.331.686.434.262.103.532.154.812.154.206 0 .406-.023.602-.07.206-.056.392-.131.56-.224.168-.103.318-.224.448-.364.131-.14.234-.294.308-.462l1.316.378c-.252.551-.672 1.003-1.26 1.358-.578.345-1.255.518-2.03.518zm2.226-4.354c-.028-.308-.107-.593-.238-.854-.121-.261-.28-.481-.476-.658-.196-.187-.424-.331-.686-.434-.261-.103-.536-.154-.826-.154-.289 0-.564.051-.826.154-.252.103-.476.247-.672.434-.196.177-.354.397-.476.658-.121.261-.196.546-.224.854h4.424zm9.349 4.214h-1.54v-4.102c0-.691-.112-1.19-.336-1.498-.215-.317-.537-.476-.966-.476-.224 0-.448.042-.672.126-.224.084-.434.205-.63.364-.196.149-.374.331-.532.546-.15.205-.266.434-.35.686V178h-1.54v-7.322h1.4v1.47c.28-.495.686-.882 1.218-1.162.532-.289 1.12-.434 1.764-.434.438 0 .798.079 1.078.238.28.159.499.378.658.658.168.271.284.588.35.952.065.355.098.733.098 1.134V178zm4.685.07c-.495 0-.947-.098-1.358-.294-.411-.205-.765-.481-1.064-.826-.289-.345-.518-.742-.686-1.19-.159-.448-.238-.919-.238-1.414 0-.523.084-1.013.252-1.47.168-.467.401-.868.7-1.204.299-.345.653-.616 1.064-.812.42-.205.882-.308 1.386-.308.588 0 1.101.14 1.54.42.448.28.817.644 1.106 1.092v-1.386h1.358v7.112c0 .532-.098 1.003-.294 1.414-.196.411-.471.756-.826 1.036-.345.289-.756.509-1.232.658-.476.149-.989.224-1.54.224-.812 0-1.489-.14-2.03-.42-.532-.271-.98-.653-1.344-1.148l.868-.812c.28.392.639.691 1.078.896.448.205.924.308 1.428.308.317 0 .616-.042.896-.126.289-.084.541-.215.756-.392.215-.177.383-.401.504-.672.131-.271.196-.593.196-.966v-1.12c-.261.448-.621.793-1.078 1.036-.457.243-.938.364-1.442.364zm.504-1.246c.233 0 .457-.037.672-.112.215-.084.411-.191.588-.322.187-.14.345-.294.476-.462.131-.177.224-.364.28-.56v-1.918c-.093-.233-.215-.443-.364-.63-.149-.196-.322-.364-.518-.504-.187-.14-.387-.247-.602-.322-.215-.084-.429-.126-.644-.126-.336 0-.639.075-.91.224-.261.14-.485.331-.672.574-.187.233-.331.499-.434.798-.103.299-.154.607-.154.924 0 .336.056.653.168.952.121.289.285.546.49.77.205.215.443.387.714.518.28.131.583.196.91.196zm7.349 1.316c-.355 0-.686-.056-.994-.168-.299-.121-.56-.285-.784-.49-.215-.205-.388-.448-.518-.728-.122-.28-.182-.583-.182-.91 0-.345.074-.658.224-.938.149-.28.359-.523.63-.728.28-.205.606-.364.98-.476.382-.112.802-.168 1.26-.168.345 0 .686.033 1.022.098.336.056.639.135.91.238v-.504c0-.541-.154-.961-.462-1.26-.308-.308-.752-.462-1.33-.462-.392 0-.78.075-1.162.224-.374.14-.761.345-1.162.616l-.476-.98c.942-.635 1.922-.952 2.94-.952 1.008 0 1.792.257 2.352.77.56.513.84 1.251.84 2.212v2.646c0 .327.135.495.406.504V178c-.15.028-.28.047-.392.056-.103.009-.206.014-.308.014-.299 0-.532-.075-.7-.224-.159-.149-.257-.341-.294-.574l-.042-.462c-.327.429-.733.761-1.218.994-.476.224-.99.336-1.54.336zm.42-1.134c.373 0 .723-.065 1.05-.196.336-.14.597-.331.784-.574.196-.168.294-.345.294-.532v-.966c-.262-.103-.542-.182-.84-.238-.29-.056-.574-.084-.854-.084-.551 0-1.004.121-1.358.364-.346.233-.518.546-.518.938 0 .364.135.672.406.924.27.243.616.364 1.036.364zm8.434 1.064c-.495 0-.947-.098-1.358-.294-.411-.205-.765-.481-1.064-.826-.289-.345-.518-.742-.686-1.19-.159-.448-.238-.919-.238-1.414 0-.523.084-1.013.252-1.47.168-.467.401-.868.7-1.204.299-.345.653-.616 1.064-.812.42-.205.882-.308 1.386-.308.588 0 1.101.14 1.54.42.448.28.817.644 1.106 1.092v-1.386h1.358v7.112c0 .532-.098 1.003-.294 1.414-.196.411-.471.756-.826 1.036-.345.289-.756.509-1.232.658-.476.149-.989.224-1.54.224-.812 0-1.489-.14-2.03-.42-.532-.271-.98-.653-1.344-1.148l.868-.812c.28.392.639.691 1.078.896.448.205.924.308 1.428.308.317 0 .616-.042.896-.126.289-.084.541-.215.756-.392.215-.177.383-.401.504-.672.131-.271.196-.593.196-.966v-1.12c-.261.448-.621.793-1.078 1.036-.457.243-.938.364-1.442.364zm.504-1.246c.233 0 .457-.037.672-.112.215-.084.411-.191.588-.322.187-.14.345-.294.476-.462.131-.177.224-.364.28-.56v-1.918c-.093-.233-.215-.443-.364-.63-.149-.196-.322-.364-.518-.504-.187-.14-.387-.247-.602-.322-.215-.084-.429-.126-.644-.126-.336 0-.639.075-.91.224-.261.14-.485.331-.672.574-.187.233-.331.499-.434.798-.103.299-.154.607-.154.924 0 .336.056.653.168.952.121.289.285.546.49.77.205.215.443.387.714.518.28.131.583.196.91.196zm8.721 1.316c-.57 0-1.088-.098-1.554-.294-.467-.205-.868-.481-1.204-.826-.327-.345-.584-.747-.77-1.204-.178-.457-.266-.943-.266-1.456s.088-.999.266-1.456c.186-.467.443-.873.77-1.218.336-.355.737-.63 1.204-.826.466-.205.989-.308 1.568-.308.569 0 1.082.103 1.54.308.466.205.863.481 1.19.826.326.336.574.733.742 1.19.177.448.266.919.266 1.414 0 .112-.005.219-.014.322-.01.093-.019.173-.028.238h-5.866c.028.327.102.621.224.882.13.261.294.49.49.686.205.187.434.331.686.434.261.103.532.154.812.154.205 0 .406-.023.602-.07.205-.056.392-.131.56-.224.168-.103.317-.224.448-.364.13-.14.233-.294.308-.462l1.316.378c-.252.551-.672 1.003-1.26 1.358-.579.345-1.256.518-2.03.518zm2.226-4.354c-.028-.308-.108-.593-.238-.854-.122-.261-.28-.481-.476-.658-.196-.187-.425-.331-.686-.434-.262-.103-.537-.154-.826-.154-.29 0-.565.051-.826.154-.252.103-.476.247-.672.434-.196.177-.355.397-.476.658-.122.261-.196.546-.224.854h4.424zm14.986-3.108h1.47l-3.08 7.322h-1.274l-1.358-3.402-1.358 3.402h-1.274l-3.094-7.322h1.47l2.366 5.838 1.064-2.716-1.274-3.108h1.26l.84 2.296.826-2.296h1.26l-1.26 3.108 1.064 2.716 2.352-5.838zm2.493 7.322v-7.322h1.54V178h-1.54zm0-8.526v-1.694h1.54v1.694h-1.54zm7.465 8.148c-.196.093-.467.201-.812.322-.345.112-.714.168-1.106.168-.243 0-.471-.033-.686-.098-.215-.065-.406-.163-.574-.294-.159-.131-.285-.299-.378-.504-.093-.215-.14-.471-.14-.77v-4.578h-.966v-1.19h.966v-2.408h1.54v2.408h1.596v1.19h-1.596v4.088c.019.261.098.453.238.574.149.112.331.168.546.168.215 0 .42-.037.616-.112.196-.075.341-.135.434-.182l.322 1.218zm7.632.378h-1.54v-4.102c0-.672-.121-1.167-.364-1.484-.233-.327-.574-.49-1.022-.49-.214 0-.429.042-.644.126-.214.084-.42.205-.616.364-.186.149-.354.331-.504.546-.149.205-.261.434-.336.686V178h-1.54v-10.22h1.54v4.368c.28-.504.658-.896 1.134-1.176.486-.28 1.013-.42 1.582-.42.458 0 .831.084 1.12.252.299.159.537.373.714.644.178.271.299.588.364.952.075.355.112.733.112 1.134V178zM107.64 194.14c-.56 0-1.069-.131-1.526-.392-.448-.271-.803-.63-1.064-1.078V194h-1.358v-10.22h1.54v4.284c.289-.467.648-.835 1.078-1.106.438-.271.952-.406 1.54-.406.485 0 .928.107 1.33.322.401.205.742.485 1.022.84.289.345.508.751.658 1.218.158.457.238.938.238 1.442 0 .523-.089 1.013-.266 1.47-.178.457-.42.859-.728 1.204-.308.336-.677.602-1.106.798-.42.196-.873.294-1.358.294zm-.406-1.316c.336 0 .644-.065.924-.196.28-.14.518-.322.714-.546.205-.224.364-.481.476-.77.112-.299.168-.611.168-.938 0-.327-.056-.639-.168-.938-.103-.308-.252-.574-.448-.798-.187-.233-.416-.42-.686-.56-.262-.14-.551-.21-.868-.21-.476 0-.901.154-1.274.462-.364.308-.644.681-.84 1.12v1.932c.056.215.154.411.294.588.14.168.303.317.49.448.186.131.387.233.602.308.214.065.42.098.616.098zm7.195 1.316c-.355 0-.686-.056-.994-.168-.299-.121-.56-.285-.784-.49-.215-.205-.388-.448-.518-.728-.122-.28-.182-.583-.182-.91 0-.345.074-.658.224-.938.149-.28.359-.523.63-.728.28-.205.606-.364.98-.476.382-.112.802-.168 1.26-.168.345 0 .686.033 1.022.098.336.056.639.135.91.238v-.504c0-.541-.154-.961-.462-1.26-.308-.308-.752-.462-1.33-.462-.392 0-.78.075-1.162.224-.374.14-.761.345-1.162.616l-.476-.98c.942-.635 1.922-.952 2.94-.952 1.008 0 1.792.257 2.352.77.56.513.84 1.251.84 2.212v2.646c0 .327.135.495.406.504V194c-.15.028-.28.047-.392.056-.103.009-.206.014-.308.014-.299 0-.532-.075-.7-.224-.159-.149-.257-.341-.294-.574l-.042-.462c-.327.429-.733.761-1.218.994-.476.224-.99.336-1.54.336zm.42-1.134c.373 0 .723-.065 1.05-.196.336-.14.597-.331.784-.574.196-.168.294-.345.294-.532v-.966c-.262-.103-.542-.182-.84-.238-.29-.056-.574-.084-.854-.084-.551 0-1.004.121-1.358.364-.346.233-.518.546-.518.938 0 .364.135.672.406.924.27.243.616.364 1.036.364zm5.06-2.674c0-.513.089-.999.266-1.456.177-.457.429-.859.756-1.204.336-.345.737-.616 1.204-.812.467-.205.989-.308 1.568-.308.756 0 1.405.168 1.946.504.551.327.961.765 1.232 1.316l-1.498.476c-.177-.308-.415-.546-.714-.714-.299-.177-.63-.266-.994-.266-.308 0-.597.061-.868.182-.261.121-.49.294-.686.518-.196.215-.35.471-.462.77-.112.299-.168.63-.168.994 0 .355.056.686.168.994.121.299.28.56.476.784.205.224.439.401.7.532.271.121.555.182.854.182.187 0 .373-.023.56-.07.187-.056.355-.131.504-.224.159-.093.294-.201.406-.322.121-.121.21-.252.266-.392l1.512.448c-.243.551-.649 1.003-1.218 1.358-.569.345-1.241.518-2.016.518-.569 0-1.087-.103-1.554-.308-.467-.205-.868-.481-1.204-.826-.327-.355-.583-.761-.77-1.218-.177-.457-.266-.943-.266-1.456zM133.301 194l-2.338-3.374-1.218 1.148V194h-1.54v-10.22h1.54v6.482l3.36-3.57h1.68l-2.842 3.066 2.996 4.242h-1.638zm2.135-3.136v-1.386h4.186v1.386h-4.186zm10.037 2.758c-.196.093-.467.201-.812.322-.346.112-.714.168-1.106.168-.243 0-.472-.033-.686-.098-.215-.065-.406-.163-.574-.294-.159-.131-.285-.299-.378-.504-.094-.215-.14-.471-.14-.77v-4.578h-.966v-1.19h.966v-2.408h1.54v2.408h1.596v1.19h-1.596v4.088c.018.261.098.453.238.574.149.112.331.168.546.168.214 0 .42-.037.616-.112.196-.075.34-.135.434-.182l.322 1.218zm4.179.518c-.579 0-1.102-.103-1.568-.308-.458-.205-.85-.481-1.176-.826-.327-.345-.579-.747-.756-1.204-.178-.467-.266-.952-.266-1.456s.088-.985.266-1.442c.177-.467.429-.873.756-1.218.336-.345.732-.621 1.19-.826.466-.205.984-.308 1.554-.308.569 0 1.082.103 1.54.308.466.205.863.481 1.19.826.336.345.592.751.769 1.218.178.457.267.938.267 1.442s-.089.989-.267 1.456c-.177.457-.433.859-.769 1.204-.327.345-.724.621-1.19.826-.458.205-.971.308-1.54.308zm-2.184-3.78c0 .355.056.681.168.98.112.299.266.56.462.784.196.215.424.387.686.518.27.121.56.182.868.182.308 0 .592-.061.854-.182.27-.131.504-.308.7-.532.196-.224.35-.485.462-.784.112-.299.168-.625.168-.98 0-.345-.056-.667-.168-.966-.112-.308-.266-.574-.462-.798-.196-.224-.43-.397-.7-.518-.262-.131-.546-.196-.854-.196-.299 0-.584.065-.854.196-.262.131-.49.308-.686.532-.196.224-.355.49-.476.798-.112.299-.168.621-.168.966zm7.245.504v-1.386h4.186v1.386h-4.186zm9.911 3.276c-.56 0-1.069-.131-1.526-.392-.448-.271-.803-.63-1.064-1.078V194h-1.358v-10.22h1.54v4.284c.289-.467.649-.835 1.078-1.106.439-.271.952-.406 1.54-.406.485 0 .929.107 1.33.322.401.205.742.485 1.022.84.289.345.509.751.658 1.218.159.457.238.938.238 1.442 0 .523-.089 1.013-.266 1.47-.177.457-.42.859-.728 1.204-.308.336-.677.602-1.106.798-.42.196-.873.294-1.358.294zm-.406-1.316c.336 0 .644-.065.924-.196.28-.14.518-.322.714-.546.205-.224.364-.481.476-.77.112-.299.168-.611.168-.938 0-.327-.056-.639-.168-.938-.103-.308-.252-.574-.448-.798-.187-.233-.415-.42-.686-.56-.261-.14-.551-.21-.868-.21-.476 0-.901.154-1.274.462-.364.308-.644.681-.84 1.12v1.932c.056.215.154.411.294.588.14.168.303.317.49.448s.387.233.602.308c.215.065.42.098.616.098zm7.195 1.316c-.355 0-.686-.056-.994-.168-.299-.121-.56-.285-.784-.49-.215-.205-.387-.448-.518-.728-.121-.28-.182-.583-.182-.91 0-.345.075-.658.224-.938.149-.28.359-.523.63-.728.28-.205.607-.364.98-.476.383-.112.803-.168 1.26-.168.345 0 .686.033 1.022.098.336.056.639.135.91.238v-.504c0-.541-.154-.961-.462-1.26-.308-.308-.751-.462-1.33-.462-.392 0-.779.075-1.162.224-.373.14-.761.345-1.162.616l-.476-.98c.943-.635 1.923-.952 2.94-.952 1.008 0 1.792.257 2.352.77.56.513.84 1.251.84 2.212v2.646c0 .327.135.495.406.504V194c-.149.028-.28.047-.392.056-.103.009-.205.014-.308.014-.299 0-.532-.075-.7-.224-.159-.149-.257-.341-.294-.574l-.042-.462c-.327.429-.733.761-1.218.994-.476.224-.989.336-1.54.336zm.42-1.134c.373 0 .723-.065 1.05-.196.336-.14.597-.331.784-.574.196-.168.294-.345.294-.532v-.966c-.261-.103-.541-.182-.84-.238-.289-.056-.574-.084-.854-.084-.551 0-1.003.121-1.358.364-.345.233-.518.546-.518.938 0 .364.135.672.406.924.271.243.616.364 1.036.364zm5.06-2.674c0-.513.089-.999.266-1.456.178-.457.43-.859.756-1.204.336-.345.738-.616 1.204-.812.467-.205.99-.308 1.568-.308.756 0 1.405.168 1.946.504.551.327.962.765 1.232 1.316l-1.498.476c-.177-.308-.415-.546-.714-.714-.298-.177-.63-.266-.994-.266-.308 0-.597.061-.868.182-.261.121-.49.294-.686.518-.196.215-.35.471-.462.77-.112.299-.168.63-.168.994 0 .355.056.686.168.994.122.299.28.56.476.784.206.224.439.401.7.532.271.121.556.182.854.182.187 0 .374-.023.56-.07.187-.056.355-.131.504-.224.159-.093.294-.201.406-.322.122-.121.21-.252.266-.392l1.512.448c-.242.551-.648 1.003-1.218 1.358-.569.345-1.241.518-2.016.518-.569 0-1.087-.103-1.554-.308-.466-.205-.868-.481-1.204-.826-.326-.355-.583-.761-.77-1.218-.177-.457-.266-.943-.266-1.456zM190.286 194l-2.338-3.374-1.218 1.148V194h-1.54v-10.22h1.54v6.482l3.36-3.57h1.68l-2.842 3.066 2.996 4.242h-1.638zm6.033 0v-7.322h1.54V194h-1.54zm0-8.526v-1.694h1.54v1.694h-1.54zm9.956 8.526h-1.54v-4.102c0-.691-.112-1.19-.336-1.498-.215-.317-.537-.476-.966-.476-.224 0-.448.042-.672.126-.224.084-.434.205-.63.364-.196.149-.373.331-.532.546-.149.205-.266.434-.35.686V194h-1.54v-7.322h1.4v1.47c.28-.495.686-.882 1.218-1.162.532-.289 1.12-.434 1.764-.434.439 0 .798.079 1.078.238.28.159.499.378.658.658.168.271.285.588.35.952.065.355.098.733.098 1.134V194zm4.448.14c-.588 0-1.176-.093-1.764-.28-.579-.196-1.078-.471-1.498-.826l.616-.98c.438.317.872.56 1.302.728.429.159.868.238 1.316.238.457 0 .816-.089 1.078-.266.27-.177.406-.429.406-.756 0-.308-.15-.532-.448-.672-.299-.14-.766-.294-1.4-.462-.458-.121-.85-.238-1.176-.35-.327-.112-.593-.243-.798-.392-.206-.149-.355-.322-.448-.518-.094-.196-.14-.434-.14-.714 0-.373.07-.705.21-.994.149-.289.35-.532.602-.728.261-.205.564-.359.91-.462.345-.103.718-.154 1.12-.154.55 0 1.064.084 1.54.252.476.168.9.411 1.274.728l-.658.924c-.682-.541-1.405-.812-2.17-.812-.392 0-.724.084-.994.252-.262.159-.392.415-.392.77 0 .149.028.275.084.378.056.103.144.191.266.266.13.075.294.145.49.21.205.056.457.121.756.196.494.121.919.243 1.274.364.364.121.662.266.896.434.233.159.406.35.518.574.112.215.168.476.168.784 0 .7-.266 1.255-.798 1.666-.523.401-1.237.602-2.142.602zm4.285-.14v-7.322h1.54V194h-1.54zm0-8.526v-1.694h1.54v1.694h-1.54zm6.289 8.596c-.495 0-.948-.098-1.358-.294-.411-.205-.766-.481-1.064-.826-.29-.345-.518-.742-.686-1.19-.159-.448-.238-.919-.238-1.414 0-.523.084-1.013.252-1.47.168-.467.401-.868.7-1.204.298-.345.653-.616 1.064-.812.42-.205.882-.308 1.386-.308.588 0 1.101.14 1.54.42.448.28.816.644 1.106 1.092v-1.386h1.358v7.112c0 .532-.098 1.003-.294 1.414-.196.411-.472.756-.826 1.036-.346.289-.756.509-1.232.658-.476.149-.99.224-1.54.224-.812 0-1.489-.14-2.03-.42-.532-.271-.98-.653-1.344-1.148l.868-.812c.28.392.639.691 1.078.896.448.205.924.308 1.428.308.317 0 .616-.042.896-.126.289-.084.541-.215.756-.392.214-.177.382-.401.504-.672.13-.271.196-.593.196-.966v-1.12c-.262.448-.621.793-1.078 1.036-.458.243-.938.364-1.442.364zm.504-1.246c.233 0 .457-.037.672-.112.214-.084.41-.191.588-.322.186-.14.345-.294.476-.462.13-.177.224-.364.28-.56v-1.918c-.094-.233-.215-.443-.364-.63-.15-.196-.322-.364-.518-.504-.187-.14-.388-.247-.602-.322-.215-.084-.43-.126-.644-.126-.336 0-.64.075-.91.224-.262.14-.486.331-.672.574-.187.233-.332.499-.434.798-.103.299-.154.607-.154.924 0 .336.056.653.168.952.121.289.284.546.49.77.205.215.443.387.714.518.28.131.583.196.91.196zM233.769 194h-1.54v-4.102c0-.672-.121-1.167-.364-1.484-.233-.327-.574-.49-1.022-.49-.214 0-.429.042-.644.126-.214.084-.42.205-.616.364-.186.149-.354.331-.504.546-.149.205-.261.434-.336.686V194h-1.54v-10.22h1.54v4.368c.28-.504.658-.896 1.134-1.176.486-.28 1.013-.42 1.582-.42.458 0 .831.084 1.12.252.299.159.537.373.714.644.178.271.299.588.364.952.075.355.112.733.112 1.134V194zm5.793-.378c-.196.093-.466.201-.812.322-.345.112-.714.168-1.106.168-.242 0-.471-.033-.686-.098-.214-.065-.406-.163-.574-.294-.158-.131-.284-.299-.378-.504-.093-.215-.14-.471-.14-.77v-4.578h-.966v-1.19h.966v-2.408h1.54v2.408h1.596v1.19h-1.596v4.088c.019.261.098.453.238.574.15.112.332.168.546.168.215 0 .42-.037.616-.112.196-.075.341-.135.434-.182l.322 1.218zm1.487.378v-5.95h-.98v-1.19h.98v-.294c0-.905.21-1.619.63-2.142.42-.523.989-.784 1.708-.784.299 0 .593.042.882.126.289.075.565.182.826.322l-.336 1.148c-.14-.084-.308-.154-.504-.21-.187-.056-.369-.084-.546-.084-.364 0-.644.135-.84.406-.187.271-.28.663-.28 1.176v.336h1.876v1.19h-1.876V194h-1.54zm6.824.14c-.765 0-1.344-.247-1.736-.742-.392-.504-.588-1.251-.588-2.24v-4.48h1.54v4.172c0 1.316.467 1.974 1.4 1.974.439 0 .854-.135 1.246-.406s.696-.663.91-1.176v-4.564h1.54v5.502c0 .177.028.303.084.378.066.075.178.117.336.126V194c-.158.028-.289.047-.392.056-.102.009-.2.014-.294.014-.28 0-.518-.075-.714-.224-.196-.159-.298-.359-.308-.602l-.028-.728c-.326.532-.751.938-1.274 1.218-.522.271-1.096.406-1.722.406zm6.292-10.36h1.54v8.106c0 .271.07.485.21.644.14.149.336.224.588.224.102 0 .219-.019.35-.056.14-.037.27-.079.392-.126l.224 1.204c-.224.103-.49.182-.798.238-.308.065-.584.098-.826.098-.532 0-.948-.145-1.246-.434-.29-.289-.434-.7-.434-1.232v-8.666zm-40.091 26.36c-.569 0-1.087-.098-1.554-.294-.467-.205-.868-.481-1.204-.826-.327-.345-.583-.747-.77-1.204-.177-.457-.266-.943-.266-1.456s.089-.999.266-1.456c.187-.467.443-.873.77-1.218.336-.355.737-.63 1.204-.826.467-.205.989-.308 1.568-.308.569 0 1.083.103 1.54.308.467.205.863.481 1.19.826.327.336.574.733.742 1.19.177.448.266.919.266 1.414 0 .112-.005.219-.014.322-.009.093-.019.173-.028.238h-5.866c.028.327.103.621.224.882.131.261.294.49.49.686.205.187.434.331.686.434.261.103.532.154.812.154.205 0 .406-.023.602-.07.205-.056.392-.131.56-.224.168-.103.317-.224.448-.364.131-.14.233-.294.308-.462l1.316.378c-.252.551-.672 1.003-1.26 1.358-.579.345-1.255.518-2.03.518zm2.226-4.354c-.028-.308-.107-.593-.238-.854-.121-.261-.28-.481-.476-.658-.196-.187-.425-.331-.686-.434-.261-.103-.537-.154-.826-.154-.289 0-.565.051-.826.154-.252.103-.476.247-.672.434-.196.177-.355.397-.476.658s-.196.546-.224.854h4.424zm4.649 4.214l-2.8-7.322h1.582l2.1 6.02 2.114-6.02h1.456l-2.8 7.322h-1.652zm8.615.14c-.569 0-1.087-.098-1.554-.294-.466-.205-.868-.481-1.204-.826-.326-.345-.583-.747-.77-1.204-.177-.457-.266-.943-.266-1.456s.089-.999.266-1.456c.187-.467.444-.873.77-1.218.336-.355.738-.63 1.204-.826.467-.205.99-.308 1.568-.308.57 0 1.083.103 1.54.308.467.205.864.481 1.19.826.327.336.574.733.742 1.19.178.448.266.919.266 1.414 0 .112-.004.219-.014.322-.009.093-.018.173-.028.238h-5.866c.028.327.103.621.224.882.131.261.294.49.49.686.206.187.434.331.686.434.262.103.532.154.812.154.206 0 .406-.023.602-.07.206-.056.392-.131.56-.224.168-.103.318-.224.448-.364.131-.14.234-.294.308-.462l1.316.378c-.252.551-.672 1.003-1.26 1.358-.578.345-1.255.518-2.03.518zm2.226-4.354c-.028-.308-.107-.593-.238-.854-.121-.261-.28-.481-.476-.658-.196-.187-.424-.331-.686-.434-.261-.103-.536-.154-.826-.154-.289 0-.564.051-.826.154-.252.103-.476.247-.672.434-.196.177-.354.397-.476.658-.121.261-.196.546-.224.854h4.424zm9.348 4.214h-1.54v-4.102c0-.691-.112-1.19-.336-1.498-.214-.317-.536-.476-.966-.476-.224 0-.448.042-.672.126-.224.084-.434.205-.63.364-.196.149-.373.331-.532.546-.149.205-.266.434-.35.686V210h-1.54v-7.322h1.4v1.47c.28-.495.686-.882 1.218-1.162.532-.289 1.12-.434 1.764-.434.439 0 .798.079 1.078.238.28.159.5.378.658.658.168.271.285.588.35.952.066.355.098.733.098 1.134V210zm5.794-.378c-.196.093-.467.201-.812.322-.346.112-.714.168-1.106.168-.243 0-.472-.033-.686-.098-.215-.065-.406-.163-.574-.294-.159-.131-.285-.299-.378-.504-.094-.215-.14-.471-.14-.77v-4.578h-.966v-1.19h.966v-2.408h1.54v2.408h1.596v1.19h-1.596v4.088c.018.261.098.453.238.574.149.112.331.168.546.168.214 0 .42-.037.616-.112.196-.075.34-.135.434-.182l.322 1.218zm3.726.518c-.588 0-1.176-.093-1.764-.28-.578-.196-1.078-.471-1.498-.826l.616-.98c.439.317.873.56 1.302.728.43.159.868.238 1.316.238.458 0 .817-.089 1.078-.266.271-.177.406-.429.406-.756 0-.308-.149-.532-.448-.672-.298-.14-.765-.294-1.4-.462-.457-.121-.849-.238-1.176-.35-.326-.112-.592-.243-.798-.392-.205-.149-.354-.322-.448-.518-.093-.196-.14-.434-.14-.714 0-.373.07-.705.21-.994.15-.289.35-.532.602-.728.262-.205.565-.359.91-.462.346-.103.719-.154 1.12-.154.551 0 1.064.084 1.54.252.476.168.901.411 1.274.728l-.658.924c-.681-.541-1.404-.812-2.17-.812-.392 0-.723.084-.994.252-.261.159-.392.415-.392.77 0 .149.028.275.084.378.056.103.145.191.266.266.131.075.294.145.49.21.206.056.458.121.756.196.495.121.92.243 1.274.364.364.121.663.266.896.434.234.159.406.35.518.574.112.215.168.476.168.784 0 .7-.266 1.255-.798 1.666-.522.401-1.236.602-2.142.602zm4.216-.14v-1.792h1.274V210h-1.274z"/>
    </g>
    <defs>
        <clipPath id="prefix__clip0">
            <path fill="#fff" d="M0 0H304V304H0z"/>
        </clipPath>
    </defs>
</svg>
