<svg xmlns="http://www.w3.org/2000/svg" width="214" height="180" fill="none" viewBox="0 0 214 180">
    <path fill="#F3F2F7" d="M213.281 179.754l-34.363-37.957c-2.194-2.423-5.017-4.189-8.156-5.103l-15.935-4.641c-3.171-.923-5.924-2.917-7.789-5.642l-18.937-27.672c-1.412-2.064-3.603-3.464-6.07-3.88l-36.063-6.075c-1.937-.326-3.926.107-5.552 1.21l-33.66 22.826-23.529 45.661L0 179.754h213.281z"/>
    <path fill="#D4D1E2" d="M81.343 89.364l7.181 27.538 27.877 12.18 18.83 11.002 19.624 28.198-37.404-25.03-39.235-9.682-8.52-36.306 11.647-7.9z"/>
    <path fill="#4A5BB3" d="M71.456 52.839H54.339c0-4.724 3.831-8.554 8.558-8.554s8.559 3.83 8.559 8.554z"/>
    <path fill="#4A5BB3" d="M58.66 52.839h-9.67c0-2.669 2.165-4.832 4.835-4.832s4.835 2.163 4.835 4.832zM76.702 52.839H64.539c0-3.357 2.723-6.078 6.082-6.078 3.358 0 6.08 2.721 6.08 6.078z"/>
    <path fill="#F89920" d="M176.612 27.674c0 2.477-2.009 4.484-4.486 4.484-2.478 0-4.486-2.007-4.486-4.484 0-2.476 2.008-4.483 4.486-4.483 2.477 0 4.486 2.007 4.486 4.483z"/>
    <path fill="#4A5BB3" d="M189.361 33.016c-1.354 0-2.664.183-3.911.518-.27-3.413-3.121-6.1-6.605-6.1-2.446 0-4.577 1.328-5.727 3.298-1.305-.445-2.703-.69-4.159-.69-2.437 0-4.71.685-6.653 1.86-1.134-.26-2.313-.403-3.526-.403-5.945 0-11.12 3.287-13.81 8.141h56.848c-2.699-3.996-7.271-6.624-12.457-6.624z"/>
    <path fill="#1A304E" d="M111.402 27.402h-10.701l2.77-15.522c.429-1.945 1.351-3.016 3.018-3.016h1.895c1.667 0 3.018 1.35 3.018 3.016v15.522z"/>
    <path fill="#FCD0CD" d="M91.534 111.841h2.346l11.37-33.845h-5.97l-7.746 33.845zM122.053 73.38l.752 32.321h2.346l2.766-32.322h-5.864zM108.397 17.929h-1.842c-.812 0-1.471-.659-1.471-1.47v-5.382h5.941v4.225c0 1.45-1.176 2.627-2.628 2.627z"/>
    <path fill="#F89920" d="M127.917 73.38s-8.551 2.999-14.77 4.096c-6.219 1.097-14.755 1.096-14.755 1.096L96.749 55.48l-.281-2.511c-.222-1.986-.028-3.995.57-5.897l1.55-5.366-2.097-16.891c-.174-1.388.784-2.626 2.117-2.852.139-.027.29-.043.44-.043h16.101c1.551 0 2.75 1.356 2.56 2.895l-3.245 16.685 13.453 31.882z"/>
    <path fill="#1A304E" d="M111.298 11.543c0 .81-1.452 1.467-3.244 1.467-1.79 0-3.242-.657-3.242-1.467s1.452-1.468 3.242-1.468c1.792 0 3.244.658 3.244 1.468z"/>
    <path fill="#FCD0CD" d="M106.007 14.762c0 .46-.373.832-.833.832-.46 0-.833-.372-.833-.832 0-.46.373-.833.833-.833.46 0 .833.373.833.833z"/>
    <path fill="#F89920" d="M116.097 27.434l-1.153-5.515 6.369-1.771-8.754-5.794.298-2.495 16.339 7.563c1.589.52 1.502 2.796-.123 3.194l-12.976 4.818z"/>
    <path fill="#FCD0CD" d="M112.857 11.86l-1.938-.658c-.621-.21-1.301-.152-1.878.16l-1.804.98c-.117.064-.078.24.054.249l2.477.156c.258.016.485.175.587.412.231.531.709.913 1.278 1.02l.925.175.299-2.495z"/>
    <path fill="#F89920" d="M79.44 26.821l-1.57.853 9.9 11.355c.883 1.013 2.473.966 3.294-.099l8.785-11.387-2.71-4.777-9.088 10.873-8.611-6.818z"/>
    <path fill="#EF3363" d="M125.142 105.701h-2.35v2.62h1.666l-.317-1.033 3.198 1.033h2.196v-.508l-4.393-2.112zM93.883 111.841h-2.35v2.62H93.2l-.318-1.033 3.198 1.033h2.197v-.508l-4.394-2.112z"/>
    <path fill="#1A304E" d="M114.965 110.916L74.928 13.201l.93-.381 40.037 97.715-.93.381z"/>
    <path fill="#FCD0CD" d="M77.87 27.674l-.103-.229c-.51-1.128-.609-2.398-.28-3.591.119-.645.501-1.21 1.056-1.56l1.736-1.097c.112-.07.248.05.19.17l-1.072 2.236c-.111.233-.083.508.074.713.352.46.452 1.064.268 1.613l-.299.892-1.57.853z"/>
    <path fill="#fff" d="M103.617 21.92l-1.134 3.63 4.684-2.204 4.15 2.413-.63-3.84h-7.07z"/>
    <path fill="#FCD0CD" d="M109.304 15.088l-3.185.727-1.662 6.107 1.284.71c1.133.626 2.526.544 3.577-.212l.694-.498-.708-6.834z"/>
    <path fill="#fff" d="M107.202 39.765l-.604-.01.268-15.335.603.01-.267 15.335zM105.77 27.023l-.603-.012.016-.804.603.012-.016.804zm-.065 3.216l-.603-.013.016-.803.603.012-.016.804zm-.065 3.215l-.603-.012.016-.804.604.012-.017.804zm-.065 3.215l-.603-.012.016-.804.604.012-.017.804zm-.056 2.77l-.603-.011.007-.36.603.013-.007.359z"/>
    <path fill="#EF3363" d="M68.759 24.812c-5.824 2.333-11.738 1.685-17.886.655-3.384-.568-6.878.54-9.79 2.356-2.924 1.823-5.336 4.315-7.745 6.746-.9.909-4.632 3.77-4.75 5.13l1.244-14.243-8.814-4.17C25.941 15.5 32.311 8.038 40.397 7.42c3.129-.24 6.24.487 9.354.866 3.876.472 7.154-.185 10.714-1.67C67.635 3.626 70.643 0 70.643 0l7.61 18.51c.69 1.677-7.802 5.555-8.559 5.901-.311.142-.623.276-.935.4z"/>
    <path fill="#D4D1E2" d="M46.756 112.82l21.505 24.249-35.195 25.928-2.011 16.757H0l23.227-21.273 23.53-45.661z"/>
    <path fill="#D4D1E2" d="M126.382 179.754l-42.435-18.767-15.686-23.918-38.212 25.526 19.74-5.289 64.728 22.474 11.865-.026z"/>
    <path fill="#EF3363" d="M173.42 112.973l-2.611-1.053 22.047-54.632 2.61 1.053-22.046 54.632zM172.065 116.328l-2.611-1.052 1.354-3.356 2.612 1.053-1.355 3.355zm-2.708 6.711l-2.611-1.053 1.354-3.355 2.612 1.052-1.355 3.356zm-2.708 6.711l-2.611-1.053 1.354-3.355 2.611 1.052-1.354 3.356zm-2.708 6.71l-2.611-1.052 1.354-3.356 2.611 1.053-1.354 3.355zm-2.708 6.711l-2.611-1.053 1.354-3.355 2.611 1.052-1.354 3.356zm-2.708 6.71l-2.611-1.052 1.354-3.355 2.611 1.052-1.354 3.355z"/>
    <path fill="#EF3363" d="M199.493 73.536L193.5 59.452l-14.092 5.988-1.101-2.59 16.683-7.089 7.093 16.673-2.59 1.102z"/>
    <path fill="#4A5BB3" d="M145.661 129.813l-2.611-1.053 21.525-53.338 2.611 1.052-21.525 53.339zM144.307 133.168l-2.611-1.052 1.354-3.356 2.611 1.053-1.354 3.355zm-2.708 6.711l-2.611-1.053 1.354-3.355 2.611 1.052-1.354 3.356zm-2.708 6.71l-2.611-1.052 1.354-3.355 2.611 1.052-1.354 3.355zm-2.708 6.711l-2.611-1.052 1.354-3.356 2.611 1.053-1.354 3.355zm-2.708 6.711l-2.611-1.053 1.354-3.355 2.611 1.052-1.354 3.356zm-2.634 6.526l-2.611-1.053 1.279-3.171 2.612 1.053-1.28 3.171z"/>
    <path fill="#4A5BB3" d="M169.899 87.552l-4.678-9.97-10.29 3.937-1.007-2.628 12.735-4.873 5.79 12.34-2.55 1.194z"/>
    <path fill="#F89920" d="M179.469 151.945l-2.611-1.052 16.487-40.855 2.612 1.052-16.488 40.855z"/>
    <path fill="#F89920" d="M178.115 155.3l-2.611-1.052 1.354-3.356 2.611 1.053-1.354 3.355zm-2.708 6.711l-2.611-1.053 1.354-3.355 2.611 1.052-1.354 3.356zm-2.708 6.711l-2.611-1.053 1.354-3.355 2.611 1.052-1.354 3.356zM198.415 122.7l-4.445-10.45-10.455 4.443-1.102-2.589 13.045-5.544 5.549 13.038-2.592 1.102z"/>
    <path fill="#1A304E" d="M71.013 117.611c-2.452 2.71-6.226 4.35-8.87 5.498-1.883.819-3.5 1.351-4.613 1.681-2.107-1.182-12.216-7.118-13.34-17.357-.466-4.248.822-7.348 3.11-12.667 5.943-13.808 17.34-26.94 21.214-25.05.723.353 1.004 1.14 1.183 1.665 7.067 20.68 4.89 36.065 4.89 36.065-.814 5.753-1.776 8.178-3.574 10.165zM74.072 136.611c-2.2-.493-4.228-2.02-5.647-3.09-1.011-.762-1.789-1.468-2.304-1.965-.005-1.489.114-8.716 5.273-12.428 2.14-1.54 4.196-1.791 7.748-2.178 9.223-1.005 19.738 1.122 19.899 3.775.03.495-.308.885-.535 1.14-8.963 10.072-17.889 13.576-17.889 13.576-3.337 1.31-4.932 1.531-6.545 1.17z"/>
    <path fill="#1A304E" d="M50.722 139.552l-.504-.33c3.257-4.957 5.765-10.407 7.455-16.201l.579.169c-1.707 5.851-4.24 11.356-7.53 16.362z"/>
    <path fill="#4A5BB3" d="M67.363 147.426l-37.997 8.473-13.124-58.78 37.997-8.474 13.124 58.781z"/>
    <path fill="#fff" d="M70.624 149.557l-37.997 8.474-13.124-58.78 37.998-8.474 13.123 58.78z"/>
    <path fill="#D4D1E2" d="M57.45 117.083l-27.522 6.137-.225-1.01 27.521-6.137.226 1.01zM58.036 119.708l-27.521 6.138-.226-1.01 27.521-6.138.226 1.01zM44.697 125.228l-13.641 3.042-.226-1.01 13.641-3.042.226 1.01z"/>
    <path fill="#4A5BB3" d="M43.188 138.726l-9.333 2.081-1.353-6.06 9.333-2.081 1.353 6.06z"/>
    <path fill="#D4D1E2" d="M60.52 130.832l-15.317 3.416-.225-1.01 15.316-3.416.225 1.01zM61.106 133.458l-15.317 3.416-.225-1.01 15.316-3.416.226 1.01z"/>
    <path fill="#1A304E" d="M45.507 149.112l-9.333 2.081-1.353-6.06 9.333-2.081 1.353 6.06z"/>
    <path fill="#D4D1E2" d="M62.568 140.006l-15.317 3.415-.225-1.01 15.316-3.415.226 1.01zM63.154 142.632l-15.317 3.415-.225-1.009 15.316-3.416.226 1.01zM55.37 146.912l-6.991 1.559-.226-1.01 6.992-1.559.226 1.01z"/>
    <path fill="#EF3363" d="M56.547 113.043l-27.52 6.137-2.932-13.13 27.521-6.137 2.931 13.13z"/>
    <path fill="#F89920" d="M74.69 153.74c2.08 1.194 4.549 1.513 6.864.887 2.316-.625 4.288-2.145 5.483-4.223 1.194-2.079 1.514-4.547.887-6.861-.626-2.315-2.146-4.285-4.226-5.479s-4.55-1.513-6.865-.888c-2.316.626-4.287 2.145-5.482 4.224-1.195 2.079-1.514 4.547-.888 6.861s2.147 4.285 4.226 5.479zm-12.957-3.12c-1.253-4.628-.614-9.564 1.775-13.721 2.39-4.158 6.333-7.197 10.964-8.448 4.632-1.252 9.57-.613 13.73 1.775 4.16 2.387 7.2 6.329 8.453 10.957 1.252 4.629.613 9.564-1.776 13.722-2.389 4.158-6.333 7.197-10.964 8.448-4.63 1.252-9.57.613-13.73-1.775-4.16-2.387-7.2-6.329-8.453-10.958z"/>
    <path fill="#fff" d="M77.576 127.896c3.673-.329 7.386.469 10.626 2.33 4.16 2.387 7.201 6.329 8.453 10.957 1.252 4.629.614 9.564-1.776 13.722-2.389 4.158-6.333 7.197-10.964 8.448-4.63 1.252-9.57.613-13.73-1.775-4.16-2.387-7.2-6.329-8.452-10.958l8.73-2.359c.627 2.314 2.147 4.285 4.227 5.479 2.08 1.194 4.55 1.513 6.865.887 2.315-.625 4.287-2.145 5.482-4.223 1.194-2.079 1.514-4.547.888-6.861-.626-2.315-2.147-4.285-4.227-5.479-1.62-.93-3.477-1.33-5.313-1.165l-.809-9.003z"/>
    <path fill="#EF3363" d="M91.955 133.09c2.231 2.22 3.864 5.003 4.7 8.093 1.252 4.629.614 9.564-1.776 13.722-2.389 4.158-6.333 7.197-10.964 8.448-4.63 1.252-9.57.613-13.73-1.775-4.16-2.387-7.2-6.329-8.452-10.958l8.73-2.359c.627 2.314 2.147 4.285 4.227 5.479 2.08 1.194 4.55 1.513 6.865.887 2.315-.625 4.287-2.145 5.482-4.223 1.194-2.079 1.514-4.547.888-6.861-.418-1.545-1.235-2.937-2.35-4.047l6.38-6.406z"/>
    <path fill="#D4D1E2" d="M131.701 109.265h-9.648v-.943h9.648v.943zM99.729 115.405h-9.647v-.944h9.647v.944z"/>
</svg>
