<svg xmlns="http://www.w3.org/2000/svg" width="166" height="166" fill="none" viewBox="0 0 166 166">
    <circle cx="83" cy="83" r="83" fill="#F89920" opacity=".05"/>
    <path fill="#F89920" d="M68.44 116V91.162c-2.811-1.406-4.686-4.687-4.686-7.967V64.449c0-3.28 1.875-6.092 4.687-7.967v-1.406c0-5.155-4.218-9.373-9.373-9.373-5.155 0-9.373 4.218-9.373 9.373 0 5.155 4.218 9.373 9.373 9.373h-9.373c-2.343 0-4.687 2.343-4.687 4.686v18.746c0 2.344 2.344 4.687 4.687 4.687V116h18.746zM115.305 64.45h-9.373c5.155 0 9.373-4.219 9.373-9.374s-4.218-9.373-9.373-9.373c-5.155 0-9.373 4.218-9.373 9.373v1.406c2.812 1.875 4.687 4.687 4.687 7.967v18.746c0 3.28-1.875 6.56-4.687 7.967V116h18.746V92.568c2.343 0 4.686-2.343 4.686-4.687V69.135c0-2.343-2.343-4.686-4.686-4.686zM91.873 50.39c.028 1.248-.193 2.49-.651 3.65-.459 1.162-1.144 2.22-2.017 3.113-.872.893-1.915 1.602-3.065 2.087-1.15.484-2.387.734-3.635.734-1.249 0-2.485-.248-3.636-.732-1.15-.484-2.193-1.193-3.066-2.086-.873-.892-1.56-1.95-2.018-3.111-.459-1.161-.68-2.402-.653-3.65.054-2.45 1.065-4.78 2.816-6.493 1.75-1.713 4.103-2.673 6.552-2.673 2.45 0 4.802.958 6.554 2.67 1.752 1.712 2.763 4.042 2.819 6.49z"/>
    <path fill="#F89920" d="M91.873 59.763H73.127c-2.343 0-4.686 2.343-4.686 4.686v18.746c0 2.343 2.343 4.686 4.686 4.686V116h18.746V87.881c2.343 0 4.686-2.343 4.686-4.686V64.449c0-2.343-2.343-4.686-4.686-4.686z"/>
</svg>
