<svg xmlns="http://www.w3.org/2000/svg" width="166" height="166" fill="none" viewBox="0 0 166 166">
    <circle cx="83" cy="83" r="83" fill="#F89920" opacity=".05"/>
    <path fill="#F89920" d="M66.037 85.71l12.467 12.476-4.984 4.988 4.992 4.992-4.989 4.988-8.731-8.731-9.98 9.98-4.989-4.988 9.98-9.984-8.731-8.728 4.988-4.989L61.05 90.7l4.985-4.988h.003zM51.75 49l12.51.01 41.689 41.693 4.992-4.989 4.988 4.989-8.728 8.731 9.977 9.981-4.988 4.988-9.981-9.98-8.731 8.731-4.989-4.988 4.989-4.992L51.76 61.457 51.75 49zm51.003 0l12.499.01.007 12.43-14.299 14.294-12.474-12.47L102.752 49z"/>
</svg>
