<svg xmlns="http://www.w3.org/2000/svg" width="37.559" height="33.156" viewBox="0 0 37.559 33.156">
    <path id="icons8_school_house" fill="#fff" d="M20.736 3a1.442 1.442 0 0 0-.766.231l-8.649 5.6a1.442 1.442 0 1 0 1.565 2.419l.659-.425v6.248L2.727 23.379a1.442 1.442 0 1 0 1.453 2.489l.715-.417v10.7h12.974V30.39h5.766v5.766H36.61v-10.7l.715.417a1.442 1.442 0 1 0 1.453-2.489L27.96 17.069v-6.09l.642.428a1.442 1.442 0 1 0 1.6-2.4l-8.65-5.766A1.442 1.442 0 0 0 20.736 3zm-4.308 7.208h2.883v2.883h-2.883zm5.766 0h2.883v2.883h-2.883zM10.661 23.182h2.883v2.883h-2.883zm5.766 0h2.883v2.883h-2.882zm5.766 0h2.883v2.883h-2.882zm5.766 0h2.883v2.883H27.96zm-17.3 5.766h2.883v2.883h-2.881zm17.3 0h2.883v2.883H27.96z" transform="translate(-1.973 -3)"/>
</svg>
