<svg xmlns="http://www.w3.org/2000/svg" width="38.783" height="44.072" viewBox="0 0 38.783 44.072">
    <path id="icons8_school_building" fill="#fff" d="M25.155 1a1.763 1.763 0 1 0 0 3.526h5.289a1.763 1.763 0 0 0 0-3.526zm-1.763 5.289a1.757 1.757 0 0 0-1.246.516l-8.815 8.815a1.758 1.758 0 0 0-.516 1.246H7.526A3.525 3.525 0 0 0 4 20.392v21.154a3.525 3.525 0 0 0 3.526 3.526H18.1V38.02a5.289 5.289 0 1 1 10.577 0v7.052h10.581a3.525 3.525 0 0 0 3.526-3.526V20.392a3.525 3.525 0 0 0-3.526-3.526h-5.289a1.758 1.758 0 0 0-.517-1.246l-8.814-8.815a1.757 1.757 0 0 0-1.246-.516zm0 8.814a5.289 5.289 0 1 1-5.292 5.289 5.288 5.288 0 0 1 5.292-5.292zm-14.1 7.052h3.526v3.525H9.289zm24.68 0h3.526v3.525h-3.529zM9.289 29.206h3.526v3.526H9.289zm24.68 0h3.526v3.526h-3.526zm-24.68 7.052h3.526v3.526H9.289zm24.68 0h3.526v3.526h-3.526z" transform="translate(-4 -1)"/>
</svg>
