<svg xmlns="http://www.w3.org/2000/svg" width="29.207" height="35.048" viewBox="0 0 29.207 35.048">
    <path id="icons8_organization" fill="#fff" d="M15.222 3a1.461 1.461 0 0 0-1.46 1.46h-2.921a1.46 1.46 0 1 0 0 2.921h17.525a1.46 1.46 0 1 0 0-2.921h-2.921A1.461 1.461 0 0 0 23.984 3zM6.46 10.3a1.46 1.46 0 1 0 0 2.921v16.065A1.461 1.461 0 0 0 5 30.747v7.3h10.222v-5.84h8.762v5.841h10.223v-7.3a1.461 1.461 0 0 0-1.46-1.46V13.222a1.46 1.46 0 1 0 0-2.921zm2.921 4.381H12.3V17.6H9.381zm5.841 0h2.921V17.6h-2.921zm5.841 0h2.921V17.6h-2.92zm5.841 0h2.921V17.6h-2.92zM9.381 20.524H12.3v2.921H9.381zm5.841 0h2.921v2.921h-2.921zm5.841 0h2.921v2.921h-2.92zm5.841 0h2.921v2.921h-2.92zM9.381 26.365H12.3v2.921H9.381zm5.841 0h2.921v2.921h-2.921zm5.841 0h2.921v2.921h-2.92zm5.841 0h2.921v2.921h-2.92zM9.381 32.207H12.3v2.921H9.381zm17.524 0h2.921v2.921h-2.921z" transform="translate(-5 -3)"/>
</svg>
