<svg xmlns="http://www.w3.org/2000/svg" width="20.011" height="20.008" viewBox="0 0 20.011 20.008">
    <path id="prefix__icons8_instagram_4" d="M8.559 3A5.559 5.559 0 0 0 3 8.558v8.892a5.559 5.559 0 0 0 5.559 5.558h8.894a5.559 5.559 0 0 0 5.559-5.558V8.558A5.559 5.559 0 0 0 17.452 3zm11.117 2.223a1.112 1.112 0 1 1-1.112 1.112 1.112 1.112 0 0 1 1.112-1.112zm-6.67 2.223A5.558 5.558 0 1 1 7.447 13a5.559 5.559 0 0 1 5.558-5.554zm0 2.223A3.335 3.335 0 1 0 16.34 13a3.335 3.335 0 0 0-3.335-3.335z" transform="translate(-3 -3)" style="fill:#fff"/>
</svg>