<svg xmlns="http://www.w3.org/2000/svg" width="494.055" height="526.522" viewBox="0 0 494.055 526.522"><path d="M481.084,245.212c-33.289,49.826-104.3,203.867-86.836,261.107H139.485s-36.824-27.4-72.594-75.046c-6.5-8.668-12.973-18.006-19.161-27.957A350.4,350.4,0,0,1,29.2,369.628C12.588,335.1.755,295.109.285,250.914-1.383,97.843,131.045-44.394,311.275,13S514.344,195.314,481.084,245.212Z" transform="translate(0.116 0.001)" fill="#fcd5d1"/><path d="M266.815,407.862a1.739,1.739,0,0,1-1.426-.656L129.525,238.282a1.754,1.754,0,0,1,2.737-2.2L268.127,405.025a1.739,1.739,0,0,1-.271,2.452A1.781,1.781,0,0,1,266.815,407.862Z" transform="translate(54.969 100.212)" fill="#e03c03"/><path d="M78.4,407.862a1.782,1.782,0,0,1-1.1-.385,1.739,1.739,0,0,1-.271-2.452L212.913,236.086a1.739,1.739,0,0,1,2.452-.271,1.768,1.768,0,0,1,.271,2.466L79.772,407.206A1.739,1.739,0,0,1,78.4,407.862Z" transform="translate(32.627 100.212)" fill="#ff6224"/><path d="M214.268,407.862a1.682,1.682,0,0,1-1.426-.656L77.035,238.282a1.754,1.754,0,0,1,2.737-2.2L215.637,405.025a1.754,1.754,0,0,1-1.426,2.851Z" transform="translate(32.627 100.212)" fill="#ff6224"/><path d="M114.954,242.487H51.827A4.477,4.477,0,0,1,47.35,238h0a4.462,4.462,0,0,1,4.477-4.477h63.128A4.476,4.476,0,0,1,119.431,238h0a4.491,4.491,0,0,1-4.477,4.491Z" transform="translate(20.156 99.399)" fill="#e03c03"/><path d="M277.362,242.487H96.947A4.491,4.491,0,0,1,92.47,238h0a4.477,4.477,0,0,1,4.477-4.477H277.362Z" transform="translate(39.361 99.399)" fill="#ff6224"/><path d="M131.928,297.374A4.89,4.89,0,1,1,130.5,293.9a4.9,4.9,0,0,1,1.432,3.472Z" transform="translate(51.981 124.491)" fill="#e03c03"/><path d="M184.428,297.374A4.89,4.89,0,1,1,183,293.9a4.9,4.9,0,0,1,1.432,3.472Z" transform="translate(74.328 124.491)" fill="#ffc947"/><rect width="74.96" height="58.665" rx="3.99" transform="translate(124.289 140.357)" fill="#20c3c5"/><rect width="74.96" height="58.665" rx="3.99" transform="translate(220.036 107.952)" fill="#ff6224"/><path d="M134.887,119.72H287.944a2.367,2.367,0,0,1,2.367,2.367v4.847H132.52v-4.847a2.367,2.367,0,0,1,2.367-2.367Z" transform="translate(56.408 50.96)" fill="#fff"/><path d="M132.52,124.77H290.311v79.722a4.405,4.405,0,0,1-4.405,4.405H136.925a4.405,4.405,0,0,1-4.405-4.405Z" transform="translate(56.408 53.11)" fill="#383873"/><path d="M238.577,122.57a1.1,1.1,0,0,1-1.1,1.112,1.112,1.112,0,1,1,0-2.21,1.1,1.1,0,0,1,1.1,1.1Z" transform="translate(100.557 51.703)" fill="#ff6224"/><path d="M233.2,122.568a1.112,1.112,0,1,1-1.112-1.1,1.112,1.112,0,0,1,1.112,1.1Z" transform="translate(98.317 51.705)" fill="#ff6224"/><path d="M227.854,122.568a1.112,1.112,0,1,1-1.112-1.1,1.112,1.112,0,0,1,1.112,1.1Z" transform="translate(96.04 51.705)" fill="#ff6224"/><path d="M226.336,133.661h-87.62a1.525,1.525,0,0,1-1.525-1.525h0a1.525,1.525,0,0,1,1.525-1.525h87.62a1.526,1.526,0,0,1,1.525,1.526h0a1.525,1.525,0,0,1-1.525,1.525Z" transform="translate(58.396 55.596)" fill="#20c3c5"/><path d="M226.336,140.457h-87.62a1.511,1.511,0,0,1-1.525-1.525h0a1.511,1.511,0,0,1,1.525-1.511h87.62a1.511,1.511,0,0,1,1.525,1.511h0a1.511,1.511,0,0,1-1.525,1.525Z" transform="translate(58.396 58.494)" fill="#20c3c5"/><path d="M184.536,147.271h-45.82a1.525,1.525,0,0,1-1.525-1.525h0a1.525,1.525,0,0,1,1.525-1.525h45.82a1.525,1.525,0,0,1,1.525,1.525h0A1.525,1.525,0,0,1,184.536,147.271Z" transform="translate(58.396 61.389)" fill="#20c3c5"/><path d="M226.336,160.911h-87.62a1.525,1.525,0,0,1-1.525-1.525h0a1.526,1.526,0,0,1,1.525-1.526h87.62a1.525,1.525,0,0,1,1.525,1.525h0A1.525,1.525,0,0,1,226.336,160.911Z" transform="translate(58.396 67.195)" fill="#ff6224"/><path d="M184.536,167.691h-45.82a1.525,1.525,0,0,1-1.525-1.525h0a1.525,1.525,0,0,1,1.525-1.525h45.82a1.525,1.525,0,0,1,1.525,1.525h0A1.525,1.525,0,0,1,184.536,167.691Z" transform="translate(58.396 70.08)" fill="#ff6224"/><path d="M184.536,174.5h-45.82a1.525,1.525,0,0,1-1.525-1.525h0a1.525,1.525,0,0,1,1.525-1.525h45.82a1.525,1.525,0,0,1,1.525,1.525h0A1.525,1.525,0,0,1,184.536,174.5Z" transform="translate(58.396 72.979)" fill="#20c3c5"/><path d="M210.008,147.271H177.075a1.525,1.525,0,0,1-1.525-1.525h0a1.525,1.525,0,0,1,1.525-1.525h32.932a1.525,1.525,0,0,1,1.525,1.525h0A1.525,1.525,0,0,1,210.008,147.271Z" transform="translate(74.724 61.389)" fill="#fff"/><path d="M237.948,131.858l-23.281,23.281a1.54,1.54,0,0,1-2.153,0h0a1.525,1.525,0,0,1,0-2.167L235.8,129.691a1.54,1.54,0,0,1,2.153,0h0a1.525,1.525,0,0,1,0,2.167Z" transform="translate(90.265 55.018)" fill="#ff6224"/><circle cx="13.729" cy="13.729" r="13.729" transform="translate(298.986 241.108) rotate(-76.66)" fill="#ff6224"/><path d="M224.64,171a7.77,7.77,0,1,1-7.77-7.77,7.77,7.77,0,0,1,7.77,7.77Z" transform="translate(89.004 69.48)" fill="#20c3c5"/><path d="M132.52,177.81v27.757l25.5-25.519" transform="translate(56.408 75.686)" fill="#383873"/><path d="M113.47,202.54h55.985l20.23,38.963H133.714Z" transform="translate(48.3 86.212)" fill="#86bfbc"/><path d="M133.488,237.908l-16.751-32.262a1.012,1.012,0,0,1,.9-1.426h48.472a1.026,1.026,0,0,1,.9.542l16.766,32.262a1.026,1.026,0,0,1-.912,1.426H134.386a1.055,1.055,0,0,1-.9-.542Z" transform="translate(49.652 86.927)" fill="#fff"/><rect width="45.336" height="5.204" transform="translate(182.014 327.715)" fill="#b8e3e2"/><path d="M200.921,229.87H156.185a2.58,2.58,0,0,0-2.595,2.595h0a2.595,2.595,0,0,0,2.595,2.609h44.737a2.595,2.595,0,0,0,2.595-2.609h0a2.58,2.58,0,0,0-2.595-2.595Z" transform="translate(65.377 97.845)" fill="#9fccc9"/><path d="M134.216,241.5,113.972,202.54l-1.012.77a1.654,1.654,0,0,0-.47,2.11l21.727,41.344Z" transform="translate(47.798 86.212)" fill="#b8e3e2"/><rect width="4.99" height="0.87" transform="translate(197.397 330.139)" fill="#9fccc9"/><rect width="4.99" height="0.87" transform="translate(203.669 330.139)" fill="#9fccc9"/><rect width="4.99" height="0.87" transform="translate(209.956 330.139)" fill="#9fccc9"/><path d="M229.242,288.13s-46.433,36.154-53.79,45.336c-2.851,3.479-7.627,9.566-12.631,15.81-8.24,10.265-16.979,20.943-18.02,21.2-1.654.428-15.6-10.179-16.01-12.474-.257-1.426,12.432-23.2,23.409-40.7,6.686-10.635,12.731-19.717,14.855-21.67,5.6-5.2,40.146-23.509,40.146-23.509Z" transform="translate(54.819 115.829)" fill="#383873"/><path d="M137.1,357.238s43.382-61.73,65.152-72.138" transform="translate(58.358 121.354)" fill="none" stroke="#000" stroke-linecap="round" stroke-miterlimit="10" stroke-width="0.82" opacity="0.15"/><path d="M248.531,182.087c-.485,1.126-1.041,2.3-1.668,3.479-3.407,6.487-.9,12.988-4.762,14.656a5.711,5.711,0,0,1-.784.242c-5,1.1-16.509-5.546-17.008-8.868s3.55-9.024,0-9.709-5.46,5.275-5.46,5.275c-2.851.3-3.949-4.591-8.739-4.591a8.4,8.4,0,0,0-1.982.257,14.256,14.256,0,0,0-5.489,3.022,15.5,15.5,0,0,0-1.426,1.426,9.481,9.481,0,0,1-4.063-8c.342-8.411,3.45-14.556,10.92-15.8.841-9.367,8.554-14.356,18.833-14.67,9.01-.285,10.364,7.827,10.578,9.837a22.625,22.625,0,0,0-2.652-9.837c4.519-.2,8.554,3.022,7.456,13.515,1.041-3.122,4.676-5.09,7.485-2.851-2.595,0-5.09,4.362-5.09,4.362a17.55,17.55,0,0,1,5.118,5.56C251.482,172.379,250.841,176.784,248.531,182.087Z" transform="translate(83.917 63.34)" fill="#382424"/><path d="M238.823,190.361l-.128,1.54-.385,5.46s-8.312,7.128-13.03,0a.513.513,0,0,0-.1-.143c-1.426-2.167-2.851-2.937-3.978-3.065-2.609-.328-4.7,2.224-6.872-.527a52.963,52.963,0,0,1-9.481-20.658,8.4,8.4,0,0,1,1.982-.257c4.79,0,5.831,4.89,8.739,4.591,0,0,1.91-5.973,5.46-5.275s-.5,6.373,0,9.709c.228,1.426,2.637,3.621,5.7,5.446,3.55,2.138,7.984,3.821,10.806,3.493l.5-.071A5.7,5.7,0,0,0,238.823,190.361Z" transform="translate(87.195 73.2)" fill="#ffad94"/><path d="M234.881,195.377c-3.735,2.566-10.607,2.98-10.607,2.98l-5.6-.827s-2.352-3.407-1.255-5.3a6.416,6.416,0,0,1,1.426-1.5,40.585,40.585,0,0,1,6.444-4.134,20.944,20.944,0,0,1,7.128-2.523C237.248,183.787,238.631,192.8,234.881,195.377Z" transform="translate(92.42 78.349)" opacity="0.25"/><path d="M240.672,283.954c-8.354,1.611-26.032-3.322-34.5-7.128-2.495-1.112-4.191-2.138-4.6-2.851-1.625-2.851,0-5.047,4.035-14.128q.684-1.54,1.426-3.336c2.723-6.43,2.737-20.144,2.723-31.963,0-10.122-.086-18.847,1.525-20.4,3.493-3.365,20.9-14.356,20.9-14.356l3.464,18.063s1.967,9.167,4.035,21.142C243.509,251.022,247.686,282.6,240.672,283.954Z" transform="translate(85.532 80.785)" fill="#20c3c5"/><path d="M269.076,266.829c0,.841-8.312,20.244-15.3,23.024s-49.028-.285-49.028-.285l-20.8,13.658,4.362,40.959,3.022,28.513.1.927c-6.358,4.149-22.383,5.275-24.108,1.7h0c-1.668-3.607-27.173-80.406-17.108-93.722s74.02-32.719,74.02-32.719a35.061,35.061,0,0,0,5.7,2.851,109.4,109.4,0,0,0,23.053,5.831c2.637.4,4.961.713,6.743.912,2.238.271,3.593.385,3.593.385S269.076,266,269.076,266.829Z" transform="translate(62.944 105.937)" fill="#383873"/><path d="M196.44,363.369H142.365a3.193,3.193,0,0,1,.912-2.851c2.2-2.637,7.684-5.289,12.988-7.57,5.033-2.181,9.865-4.035,11.476-5.332,3.821-3.022,2.053-8.9,1.953-9.252.585,1.2,2.851,1.868,5.7,2.067,5.7.413,14.185-1.012,18.405-3.764l-.1-.927c1.611,3.079,2.381,18.305,2.637,24.778C196.4,362.243,196.44,363.369,196.44,363.369Z" transform="translate(60.577 142.908)" fill="#0c2059"/><path d="M171.232,339.617c-.157,2.58-.527,6.758-1.283,7.884-1.112,1.668-13.03,7.485-14.684,6.929a9.864,9.864,0,0,1-3.165-2.3c5.033-2.181,9.865-4.035,11.476-5.332,3.821-3.022,2.053-8.9,1.953-9.252C166.114,338.733,168.324,339.4,171.232,339.617Z" transform="translate(64.742 143.679)" fill="#2e4780"/><path d="M196.44,355.971H142.365a3.194,3.194,0,0,1,.912-2.851H196.34C196.4,354.845,196.44,355.971,196.44,355.971Z" transform="translate(60.577 150.306)" fill="#2e4780"/><path d="M153.476,344.843a124.436,124.436,0,0,1-7.67,16.566c-1.426,2.281-2.751,3.764-3.692,3.407-3.336-1.255-36.753-29.668-33.56-31.749a5.447,5.447,0,0,1,2.153-.627,64.583,64.583,0,0,1,12.189.5c3.821.385,7.385.827,9.238.827,4.7,0,5.332-1.426,5.332-1.426a8.225,8.225,0,0,0,2.31,2.851C143.939,339.14,152.236,345.157,153.476,344.843Z" transform="translate(46.116 141.461)" fill="#0c2059"/><path d="M135.475,335.22a15.482,15.482,0,0,1-15.924.8,3.165,3.165,0,0,1-.955-3.079c3.821.385,7.385.827,9.238.827,4.7,0,5.332-1.426,5.332-1.426a8.227,8.227,0,0,0,2.31,2.88Z" transform="translate(50.445 141.461)" fill="#2e4780"/><path d="M145.826,361.379c-1.426,2.281-2.751,3.764-3.692,3.407-3.336-1.255-36.753-29.668-33.56-31.749a5.446,5.446,0,0,1,2.153-.627Z" transform="translate(46.124 141.491)" fill="#2e4780"/><path d="M228.54,235.393c-2.609,3.635-7.3,9.2-11.149,8.639l-.47-.086c-7.356-1.3-50.582-12.132-52.635-12.546s-16.623-.542-15.8-2.067,9.153-6.373,11.405-6.259,10.963,2.652,19.688,2.367,31.607,0,31.607,0l1.112-1.91,1.639-2.851C213.386,229.191,223.65,236.091,228.54,235.393Z" transform="translate(63.191 93.934)" fill="#ffad94"/><path d="M204.7,253.16s-2,10.607,5.774,14.142" transform="translate(87.033 107.759)" fill="none" stroke="#000" stroke-linecap="round" stroke-miterlimit="10" stroke-width="0.82" opacity="0.15"/><path d="M217.919,259.14s-51.323,21.9-53.818,28.7,13.059,80.449,13.059,80.449" transform="translate(69.735 110.304)" fill="none" stroke="#000" stroke-linecap="round" stroke-miterlimit="10" stroke-width="0.82" opacity="0.15"/><path d="M259.629,264.232c0,.841-8.312,20.244-15.3,23.024s-49.028-.285-49.028-.285l-20.8,13.658,4.362,40.959s-8.8-46.775-8.8-49.826c0-2.623,58.1-19.317,73.407-36.782,5.988.941,10.336,1.3,10.336,1.3S259.629,263.406,259.629,264.232Z" transform="translate(72.391 108.533)" opacity="0.15"/><path d="M217.711,234.441c-3.607,5.1-9.409,11.591-13.5,17.478q.684-1.54,1.426-3.336c2.723-6.43,2.737-20.144,2.723-31.963l12.446-8.24S223.542,226.186,217.711,234.441Z" transform="translate(86.923 88.698)" opacity="0.25"/><path d="M211.273,242.748c-.527.485-1.083.969-1.625,1.426a3.007,3.007,0,0,1-.642.143c-4.89.684-15.1-6.216-14.641-14.684a11.662,11.662,0,0,1,1.354-3.536c4.177-8.426,16.737-27.187,19.047-26.317,0,0,8.083,1.255,10.265,12.275C227.1,222.4,219.684,234.964,211.273,242.748Z" transform="translate(82.726 85.025)" fill="#169799"/><path d="M235.186,268.063c-1.782-.2-4.106-.513-6.743-.912a109.4,109.4,0,0,1-23.053-5.831c6.273-.214,19.7-4.348,21.385-35.1a152.382,152.382,0,0,0,3.393,17.821C232.164,252.153,234.117,260.706,235.186,268.063Z" transform="translate(87.425 96.292)" opacity="0.25"/><path d="M227.252,185.192a22.81,22.81,0,0,0-1.525,2,40.585,40.585,0,0,0-6.444,4.134,4.633,4.633,0,0,0-2.923-1.711l5.532-6.971A29.738,29.738,0,0,0,227.252,185.192Z" transform="translate(92.094 77.742)" opacity="0.25"/><path d="M209.516,235.393c-2.609,3.635-7.3,9.2-11.149,8.639l-.47-.086c-4.762-6.886-4.947-15.91-4.662-20.415l1.639-2.851C194.361,229.191,204.626,236.091,209.516,235.393Z" transform="translate(82.215 93.934)" opacity="0.25"/><path d="M246.887,174.122c-.485,1.126-1.041,2.3-1.668,3.479a23.438,23.438,0,0,0-2.2,9,13.885,13.885,0,0,0-1.7-1.169,30.3,30.3,0,0,0-7.6,6.2h0c-5.09-1.825-10.692-5.7-11.049-8.012-.5-3.336,3.55-9.024,0-9.709s-5.46,5.275-5.46,5.275c-2.851.3-3.949-4.591-8.739-4.591a8.4,8.4,0,0,0-1.982.257,14.257,14.257,0,0,0-5.489,3.022s5.389-7.57,13.857-6.045c0,0-1.24-2.352-6.929-2.081,11.918-3.878,19.546-2.352,23.21,1.939C234.142,175.22,241.17,179.611,246.887,174.122Z" transform="translate(85.561 71.305)" opacity="0.25"/><path d="M262.629,334.718H221s33-9.709,33-75.146v-2.495c-.342-43.725-9.68-67.846-21.2-74.718a49.9,49.9,0,0,1,14.741-5.589,73.234,73.234,0,0,1,9.181-1.426c28.513-2.851,51.238,8.255,53.946,20.9S296.73,334.718,262.629,334.718Z" transform="translate(94.069 74.445)" fill="#b8e3e2"/><path d="M274.387,257.267c0,65.437-33.032,75.217-33.032,75.217H173.18l2.851-2.01L193.994,318.9l36.04-2.495c1.939-8.041,7.214-8.312,15.254-9.153,4.676-.485,5.132-8.383,3.707-18.819a238.9,238.9,0,0,0-5.161-24.706,152.376,152.376,0,0,1-3.393-17.821,158.613,158.613,0,0,1-1.3-19.218,163.108,163.108,0,0,1,3.35-34.087c.171-.827.342-1.625.513-2.381v-.086a16.88,16.88,0,0,1,2.552-3.792h0a30.294,30.294,0,0,1,7.6-6.2,13.888,13.888,0,0,1,1.7,1.169c10.735,8.169,19.175,32.006,19.5,73.549C274.387,255.6,274.387,256.426,274.387,257.267Z" transform="translate(73.715 76.678)" fill="#86bfbc"/><path d="M250.131,384.115h-49.1a1.768,1.768,0,0,1-1.1-3.165l12.289-9.623a22.482,22.482,0,0,0,8.639-17.735V287h9.4v66.663a22.5,22.5,0,0,0,8.655,17.736l12.273,9.622a1.768,1.768,0,0,1-1.055,3.094Z" transform="translate(84.811 122.162)" fill="#b8e3e2"/><g transform="translate(346.277 252.17)" opacity="0.25"><path d="M261.21,176.88s.356.912.941,2.751" transform="translate(-235.092 -176.88)" fill="none" stroke="#000" stroke-linecap="round" stroke-miterlimit="10" stroke-width="0.82"/><path d="M270.3,182.79a227.776,227.776,0,0,1,5.546,29.269c4.477,34.429,0,82.773-30.01,113.382" transform="translate(-241.634 -174.364)" fill="none" stroke="#000" stroke-linecap="round" stroke-miterlimit="10" stroke-width="0.82" stroke-dasharray="4.15 4.15"/><path d="M245.028,284.32c-.7.67-1.426,1.34-2.138,1.982" transform="translate(-242.89 -131.149)" fill="none" stroke="#000" stroke-linecap="round" stroke-miterlimit="10" stroke-width="0.82"/></g><path d="M223.814,287v18.205a66.727,66.727,0,0,1-9.423,3.978V287Z" transform="translate(91.256 122.162)" opacity="0.15"/><path d="M254.428,290.252c-2.224,6.943-16.067,5.7-17.749,10.821-3.578,10.878-5.546,6.088-19.26,7.485-7.841.784-13.529,5.817-16.965,9.98H173.18l2.851-2.01,17.963-11.576,36.04-2.495c1.939-8.041,7.214-8.311,15.254-9.153,4.676-.485,5.132-8.383,3.707-18.819a238.9,238.9,0,0,0-5.161-24.707,152.384,152.384,0,0,1-3.393-17.821,158.6,158.6,0,0,1-1.3-19.218C244.462,240.54,256.067,285.12,254.428,290.252Z" transform="translate(73.715 90.554)" opacity="0.15"/><path d="M254.032,258.962v-2.495c-.342-43.725-9.68-67.847-21.2-74.718a49.9,49.9,0,0,1,14.741-5.589c-1.91,2.737-3.892,6.857-2.951,11.263,1.668,7.77,20.515,37.723,13.316,85.681-5.218,34.615-3.479,52.621,1.953,61H221S254.032,324.4,254.032,258.962Z" transform="translate(94.069 74.984)" opacity="0.15"/><path d="M85.6,212.6a20.387,20.387,0,0,1-.442,4.277H71.786A41.857,41.857,0,0,1,57.53,201.34c3.593,3.892,9.709,8.654,15.939,10.094C78.943,212.631,82.992,212.1,85.6,212.6Z" transform="translate(24.489 85.702)" opacity="0.25"/><path d="M110.924,182.472c-1.426,5.417-8.34,15.939-14.6,27.216-6.843,12.3-12.959,25.476-10.564,33.845a18.419,18.419,0,0,1,.87,4.747c0,3.635-2.752,2.509-5.532.442a50.372,50.372,0,0,1-5.7-5.189l.214-16.224s-9.2-8.454-1.654-26.93c.485-1.169,1.026-2.381,1.654-3.635,10.393-21.014,25.975-43.054,11.22-49.3C107.232,146.161,114.089,171.067,110.924,182.472Z" transform="translate(30.216 62.741)" fill="#20c3c5"/><g transform="translate(106.184 210.142)" opacity="0.53"><path d="M85.358,147.4a15.155,15.155,0,0,1,9.252,6.658,19.605,19.605,0,0,1,1.426,2.566,24.329,24.329,0,0,1,1.012,2.737,21.786,21.786,0,0,1,.67,2.851l.257,1.426.086,1.426a35.954,35.954,0,0,1-2.637,11.405c-1.426,3.65-2.851,7.214-4.548,10.764-3.236,7.128-6.743,14.028-9.823,21.142a95.132,95.132,0,0,0-4.077,10.863,36.78,36.78,0,0,0-1.226,5.6,12.346,12.346,0,0,0,.385,5.517h0a.57.57,0,0,1-.356.741.585.585,0,0,1-.741-.356h0a13.43,13.43,0,0,1-.371-6.045,37.063,37.063,0,0,1,1.326-5.7,98.972,98.972,0,0,1,4.277-10.92c3.193-7.128,6.786-14.028,10.108-21.057,1.668-3.507,3.279-7.043,4.676-10.664a36.268,36.268,0,0,0,2.751-11.22v-1.426l-.228-1.426a21.273,21.273,0,0,0-.642-2.851,23.1,23.1,0,0,0-.969-2.737,19.077,19.077,0,0,0-1.426-2.552A15.1,15.1,0,0,0,85.358,147.4Z" transform="translate(-74.48 -147.4)"/></g><path d="M97.481,195c-6.23,16.423,0,28.884-9.352,30.666-4.277.813-6.173-2.367-6.957-6.045a33.6,33.6,0,0,1-.314-9.438,31.636,31.636,0,0,1,4.933-8.055A19.717,19.717,0,0,1,97.481,195Z" transform="translate(34.336 83.003)" fill="#169799"/><path d="M86.542,223.9c0,3.821-.9,7.128-2.666,8.768a4.731,4.731,0,0,1-.513.456c-4.419,3.593-7.242-2.965-7.242-2.965s-11.762-5.8-17.607-17.578c-4.462-9.039-5.46-21.627,5.061-37.794,1.54,11.519,7.855,19.36,14.1,26.8h0L80,204.358A31.949,31.949,0,0,1,86.542,223.9Z" transform="translate(23.548 74.401)" fill="#b8e3e2"/><g transform="translate(85.877 249.191)" opacity="0.53"><path d="M61.482,174.79a50.981,50.981,0,0,0-.8,15.069A32.519,32.519,0,0,0,65.3,204.116c2.609,4.277,6.244,7.855,9.538,11.719a28.769,28.769,0,0,1,4.277,6.373,15.14,15.14,0,0,1,1.426,7.641.6.6,0,0,1-.642.542.584.584,0,0,1-.527-.627h0a13.957,13.957,0,0,0-1.183-7.128,28.282,28.282,0,0,0-4.035-6.3c-3.179-3.878-6.786-7.542-9.366-11.961a33,33,0,0,1-4.405-14.485,51.124,51.124,0,0,1,1.1-15.1Z" transform="translate(-60.236 -174.79)"/></g><g transform="translate(115.488 278.003)" opacity="0.25"><path d="M97.349,195c-1.8,2.067-3.45,4.277-5.047,6.458a73.135,73.135,0,0,0-4.434,6.857,43.055,43.055,0,0,0-5.7,15.041h0a.556.556,0,0,1-.656.485.585.585,0,0,1-.5-.656h0A43.568,43.568,0,0,1,87.413,208a81.462,81.462,0,0,1,4.7-6.743A69.484,69.484,0,0,1,97.349,195Z" transform="translate(-81.006 -195)"/></g><path d="M100.908,215.872,96.9,240.379a2.2,2.2,0,0,1-2.138,1.782H69.915a2.2,2.2,0,0,1-2.153-1.782l-3.25-19.959L63.77,215.8a2.2,2.2,0,0,1,2.153-2.58h32.79a2.181,2.181,0,0,1,2.2,2.652Z" transform="translate(27.131 90.758)" fill="#b8e3e2"/><path d="M105.8,221.31H61.11l1.183-6.686a2.951,2.951,0,0,1,2.851-2.424h36.611a2.937,2.937,0,0,1,2.851,2.424Z" transform="translate(26.013 90.324)" fill="#86bfbc"/><path d="M84.971,214.578a33.616,33.616,0,0,0,.285,9.395H79.411a20.384,20.384,0,0,0,.442-4.277,31.949,31.949,0,0,0-6.544-19.531L71,197.456h0a37.067,37.067,0,0,1,2.965-12.916c.342,5.888,1.8,16.138,7.67,17.222,4.477.813,10.293-3.621,14.727-7.912-2.352,4.277-4.6,8.554-6.458,12.731A31.635,31.635,0,0,0,84.971,214.578Z" transform="translate(30.222 78.551)" opacity="0.25"/><path d="M84.5,239.875H69.662a2.2,2.2,0,0,1-2.153-1.782l-3.179-19.5H77.161a36.867,36.867,0,0,0,.271,11.776A17.492,17.492,0,0,0,84.5,239.875Z" transform="translate(27.383 93.044)" opacity="0.25"/><rect width="74.96" height="58.665" rx="3.99" transform="translate(155.055 72.411)" fill="#383873"/><path d="M177.68,59.106a2.694,2.694,0,0,0,2.951-3.022,34.627,34.627,0,0,0-.257-3.678A37.077,37.077,0,0,1,180.1,48.6a5,5,0,0,1,5.46-5.532h.513v2.238h-.642c-1.825,0-2.552,1.3-2.552,3.25a26.384,26.384,0,0,0,.257,3.293c.086,1.126.214,2.153.214,3.193,0,3.379-1.126,4.548-2.98,5.061v.086c1.853.57,3.022,1.739,2.98,5.147,0,1.083-.128,2.167-.214,3.25a27.752,27.752,0,0,0-.257,3.336c0,1.939.642,3.279,2.595,3.279h.6v2.253h-.556c-2.851,0-5.417-1.426-5.417-5.532a37.9,37.9,0,0,1,.271-3.849,37.059,37.059,0,0,0,.257-3.721,2.752,2.752,0,0,0-2.951-3.079Z" transform="translate(75.63 18.323)" fill="#383873"/><path d="M211.127,61.272a2.737,2.737,0,0,0-2.937,3.094,37.086,37.086,0,0,0,.257,3.721,37.921,37.921,0,0,1,.257,3.849c0,4.106-2.552,5.532-5.4,5.532h-.57V75.2h.613c1.939-.214,2.595-1.34,2.595-3.279,0-1.169-.128-2.253-.214-3.336a27.725,27.725,0,0,1-.257-3.25c0-3.407,1.112-4.576,2.98-5.147v-.1c-1.868-.513-3.022-1.682-2.98-5.061a28.278,28.278,0,0,1,.257-3.193c.086-1.041.214-2.124.214-3.293,0-1.953-.741-3.022-2.552-3.25h-.656V43.067h.527A5,5,0,0,1,208.7,48.6a37.06,37.06,0,0,1-.257,3.806,34.634,34.634,0,0,0-.257,3.678,2.68,2.68,0,0,0,2.937,3.022Z" transform="translate(86.293 18.324)" fill="#383873"/><path d="M243.827,87.67a17.578,17.578,0,0,0-20.971,27.415l-2.637-.314a.589.589,0,1,0-.143,1.169l4.02.47a.6.6,0,0,0,.442-.114.585.585,0,0,0,.214-.4l.456-3.892a.57.57,0,0,0-.5-.642.585.585,0,0,0-.656.513l-.3,2.481A16.423,16.423,0,0,1,243.314,88.7a.6.6,0,0,0,.784-.271.585.585,0,0,0-.271-.756Z" transform="translate(92.969 36.534)" fill="#ff6224"/><path d="M225.69,118.352a17.578,17.578,0,0,0,20.971-27.415l2.637.314a.585.585,0,1,0,.143-1.155l-4.02-.485a.57.57,0,0,0-.428.128.627.627,0,0,0-.228.428l-.456,3.892a.582.582,0,1,0,1.155.143l.3-2.481a16.423,16.423,0,0,1-19.531,25.533.585.585,0,0,0-.513,1.041Z" transform="translate(95.965 38.143)" fill="#ff6224"/><path d="M367.655,134.831H262.043a3.493,3.493,0,0,1-3.493-3.493h0a3.493,3.493,0,0,1,3.493-3.479h105.6a3.479,3.479,0,0,1,3.479,3.479h0a3.493,3.493,0,0,1-3.464,3.493Z" transform="translate(110.052 54.425)" fill="#ff6224"/><path d="M329.946,145.451h-67.9a3.493,3.493,0,0,1-3.493-3.479h0a3.493,3.493,0,0,1,3.493-3.493h67.889a3.493,3.493,0,0,1,3.479,3.493h0A3.479,3.479,0,0,1,329.946,145.451Z" transform="translate(110.052 58.945)" fill="#20c3c5"/><path d="M329.946,156.861h-67.9a3.493,3.493,0,0,1-3.493-3.479h0a3.493,3.493,0,0,1,3.493-3.493h67.889a3.493,3.493,0,0,1,3.479,3.493h0a3.479,3.479,0,0,1-3.464,3.479Z" transform="translate(110.052 63.802)" fill="#20c3c5"/><path d="M89.845,94.211h-54.8a3.493,3.493,0,0,1-3.493-3.493h0a3.493,3.493,0,0,1,3.493-3.479h54.8a3.479,3.479,0,0,1,3.479,3.479h0a3.493,3.493,0,0,1-3.479,3.493Z" transform="translate(13.431 37.135)" fill="#20c3c5"/><path d="M69.13,104.831H35.043a3.493,3.493,0,0,1-3.493-3.479h0a3.493,3.493,0,0,1,3.493-3.493H69.13a3.493,3.493,0,0,1,3.479,3.493h0A3.479,3.479,0,0,1,69.13,104.831Z" transform="translate(13.431 41.656)" fill="#ff6224"/><path d="M69.13,116.241H35.043a3.493,3.493,0,0,1-3.493-3.479h0a3.493,3.493,0,0,1,3.493-3.493H69.13a3.493,3.493,0,0,1,3.479,3.493h0a3.479,3.479,0,0,1-3.479,3.479Z" transform="translate(13.431 46.512)" fill="#ff6224"/><path d="M315.75,290.956a169.643,169.643,0,0,1-11.776,26.389c-14.755,26.973-31.906,44.124-32.548,69.272a150.5,150.5,0,0,1-1.041-50.682c2.381-15.155,7.8-31.364,18.876-44.979,30.823-37.908,26.246-72.366,26.246-72.366S330.962,246.861,315.75,290.956Z" transform="translate(114.383 93.044)" fill="#169799"/><g transform="translate(393.544 311.663)" opacity="0.25"><path d="M276.323,357.112a38.889,38.889,0,0,1,0-9.281,57.416,57.416,0,0,1,1.639-9.053,86.243,86.243,0,0,1,6.558-17.108c1.326-2.766,2.923-5.389,4.477-8.012l4.961-7.67a107.638,107.638,0,0,0,8.069-16.238,159.242,159.242,0,0,0,5.774-17.265c1.611-5.845,2.937-11.79,3.978-17.778a163.945,163.945,0,0,0,2.181-18.091,88.222,88.222,0,0,0,.143-9.11,40.32,40.32,0,0,0-.428-4.534,14.043,14.043,0,0,0-1.24-4.362,14.084,14.084,0,0,1,1.312,4.277,40.287,40.287,0,0,1,.5,4.548,88.547,88.547,0,0,1,0,9.124,152.112,152.112,0,0,1-2,18.248c-.969,6.016-2.238,11.99-3.792,17.878a158.835,158.835,0,0,1-5.6,17.421,108.527,108.527,0,0,1-7.984,16.495l-4.919,7.684c-1.525,2.609-3.094,5.2-4.391,7.941a84.68,84.68,0,0,0-6.43,16.894A65.241,65.241,0,0,0,277.506,348a39.08,39.08,0,0,0,0,8.939h0a.6.6,0,0,1-.5.656.585.585,0,0,1-.684-.485Z" transform="translate(-276.045 -218.61)"/></g><path d="M303.974,287.86c-14.755,26.973-31.906,44.124-32.547,69.272a150.507,150.507,0,0,1-1.041-50.682C279.952,302.544,293.353,296.172,303.974,287.86Z" transform="translate(114.383 122.529)" opacity="0.25"/><path d="M281.967,390.449s-10.792-18.434,14.727-41.173,45.464-52.82,41.586-77.156c-24.393,28.356-89.274,68.545-70.983,118.329Z" transform="translate(112.411 115.829)" fill="#20c3c5"/><g transform="translate(384.096 387.949)" opacity="0.25"><path d="M336.013,272.12a83,83,0,0,1-9.21,15.055,130.55,130.55,0,0,1-11.619,13.33,175.058,175.058,0,0,1-13.173,11.79A86.86,86.86,0,0,0,289.85,325a95.519,95.519,0,0,0-16.309,30.979,67.761,67.761,0,0,0-2.98,17.25,39.591,39.591,0,0,0,2.851,17.037.585.585,0,1,1-1.069.47h0a40.46,40.46,0,0,1-2.851-17.55,68.542,68.542,0,0,1,3.151-17.464A96.048,96.048,0,0,1,289.394,324.7a87.212,87.212,0,0,1,12.332-12.688,174.645,174.645,0,0,0,13.258-11.662,130.374,130.374,0,0,0,11.7-13.2A82.389,82.389,0,0,0,336.013,272.12Z" transform="translate(-269.418 -272.12)"/></g><path d="M25.917,274.146S12.6,262.071,5.53,231.69c40.759,34.558,50.739,65.337,50.739,65.337Z" transform="translate(2.355 98.62)" fill="#169799"/><g transform="translate(7.885 330.31)" opacity="0.25"><path d="M5.53,231.69q8.554,12.161,16.609,24.621c2.694,4.149,5.346,8.34,7.9,12.588a131.56,131.56,0,0,1,7.128,13.087.6.6,0,0,1-.3.784.585.585,0,0,1-.77-.3h0a128.15,128.15,0,0,0-6.786-13.1q-3.721-6.415-7.641-12.717Q13.813,244.022,5.53,231.69Z" transform="translate(-5.53 -231.69)"/></g><path d="M57.8,289.081c-7.328-6.6-18.177-13.144-28.513-20.187C15.554,259.513,2.752,249.22.385,236.66c-5.389,45.35,47.36,65.779,47.36,65.779l.114.143,19.146,27.957S74.847,304.478,57.8,289.081Z" transform="translate(0.001 100.735)" fill="#20c3c5"/><g transform="translate(0.386 337.395)" opacity="0.25"><path d="M.27,236.66A34.957,34.957,0,0,0,3.905,251.2a44.337,44.337,0,0,0,8.811,12.146,73.472,73.472,0,0,0,11.947,9.181c4.277,2.751,8.554,5.4,12.674,8.24,8.326,5.7,16.3,12.261,21.869,20.814a52.379,52.379,0,0,1,8.283,28.955.6.6,0,0,1-.585.584.584.584,0,0,1-.585-.584h0a51.323,51.323,0,0,0-7.841-28.513c-5.4-8.554-13.23-15.1-21.47-20.815-4.134-2.851-8.4-5.574-12.588-8.369a74.612,74.612,0,0,1-11.9-9.324,44.793,44.793,0,0,1-8.753-12.3A35.327,35.327,0,0,1,.27,236.66Z" transform="translate(-0.27 -236.66)"/></g><path d="M412.85,375.364H58.378A10.108,10.108,0,0,1,48.27,365.242h0A10.108,10.108,0,0,1,58.378,355.12H412.85a10.122,10.122,0,0,1,10.122,10.122h0A10.122,10.122,0,0,1,412.85,375.364Z" transform="translate(20.547 151.157)" fill="#fcd5d1"/><path d="M166.63,82.56V96.816h8.554v2.851h-5.7v2.851h14.256V99.668h-5.7V96.816h8.554V82.56Zm2.851,2.851h14.256v8.554H169.481Zm22.81,11.405a2.78,2.78,0,0,0-2.851,2.851v19.959a2.78,2.78,0,0,0,2.851,2.851H203.7a2.78,2.78,0,0,0,2.851-2.851V99.668a2.778,2.778,0,0,0-2.851-2.851Zm0,2.851H203.7v19.959H192.292Zm-15.682,5.7a1.426,1.426,0,1,0,1.426,1.426A1.426,1.426,0,0,0,176.61,105.37Zm0,4.277a1.426,1.426,0,1,0,1.426,1.426A1.426,1.426,0,0,0,176.61,109.647Zm0,4.277a1.426,1.426,0,1,0,1.426,1.426A1.426,1.426,0,0,0,176.61,113.924Zm4.277,0a1.426,1.426,0,1,0,1.426,1.426A1.426,1.426,0,0,0,180.886,113.924Zm4.277,0a1.426,1.426,0,1,0,1.426,1.426A1.426,1.426,0,0,0,185.163,113.924Zm11.405,1.426V118.2h2.851V115.35Z" transform="translate(70.927 35.143)" fill="#fff"/><path d="M113.987,105.311a7.128,7.128,0,0,0-6.615,4.163c-3.35.741-5.9,4.505-5.9,8.868a11.548,11.548,0,0,0,.8,4.077h4.277a2.438,2.438,0,1,1,0,1.625h-3.992a5.247,5.247,0,0,0-1.055,3.265,5.916,5.916,0,0,0,3.764,5.3,4.662,4.662,0,0,0,.086,4.277,5.7,5.7,0,0,0,4.505,2.623,5.261,5.261,0,0,0,4.976,3.279c1.426,0,2.965-.656,2.965-3.792V128.135H112.9v3.407a2.438,2.438,0,1,1-1.625,0V126.51h6.515v-6.529H112.9v-4.063h-1.782a2.424,2.424,0,0,1-2.281,1.625,2.452,2.452,0,1,1,0-4.89,2.424,2.424,0,0,1,2.281,1.625h3.422v4.077h3.25v-8.811C117.765,105.6,116.339,105.311,113.987,105.311Zm9.181,0c-2.338,0-3.778.285-3.778,4.277v4.733h6.672a2.443,2.443,0,1,1,0,1.639h-6.729v17.108h3.407a2.438,2.438,0,1,1,0,1.625h-3.407v4.348c0,3.136,1.611,3.792,2.965,3.792a5.261,5.261,0,0,0,4.976-3.279,5.7,5.7,0,0,0,4.505-2.623,4.277,4.277,0,0,0,.556-1.939,5.232,5.232,0,0,0-.7-2.409.84.84,0,0,1,0-.328v-3.265h-7.342v-4.277a2.452,2.452,0,1,1,1.639,0v2.595h7.328v4.534a5.6,5.6,0,0,0,2.438-4.534,5.417,5.417,0,0,0-1.312-3.607,12.688,12.688,0,0,0,1.312-5.36c0-4.362-2.552-8.126-5.9-8.868a7.043,7.043,0,0,0-6.629-4.163Zm-14.356,8.953a.827.827,0,1,0,.813.827.827.827,0,0,0-.813-.827Zm19.546,0a.827.827,0,1,0,.813.827.813.813,0,0,0-.813-.827Zm-3.322,7.342a.813.813,0,0,0-.813.813.827.827,0,1,0,.813-.813Zm-16.281.813a.785.785,0,1,0,.057,0Zm3.25,10.593a.813.813,0,0,0-.813.813.827.827,0,0,0,.813.813.813.813,0,0,0,.813-.813.8.8,0,0,0-.756-.813Zm13.03,0a.813.813,0,0,0-.813.813.827.827,0,1,0,.813-.813Z" transform="translate(43.192 44.826)" fill="#fff"/><path d="M143.945,56.565a4.254,4.254,0,0,0-2.438,7.756l-1.768,6.487h-.071a5.7,5.7,0,0,0-3.479,1.2l-5.3-4.12a4.419,4.419,0,0,0,.228-1.426,4.277,4.277,0,1,0-1.967,3.607l5.289,4.234a5.6,5.6,0,0,0-.47,2.253,5.7,5.7,0,0,0,.969,3.179l-5.061,5.7a4.177,4.177,0,0,0-1.611-.328,4.277,4.277,0,1,0,4.277,4.277A4.162,4.162,0,0,0,132,87.331l5.061-5.7a5.709,5.709,0,0,0,5.2,0l5.061,5.7a4.277,4.277,0,1,0,3.749-2.224,4.177,4.177,0,0,0-1.611.328l-5.061-5.7a5.7,5.7,0,0,0,.969-3.179h0l6.458-1.768a4.277,4.277,0,1,0-.741-2.751L144.572,73.7a5.831,5.831,0,0,0-2.124-2.124l1.768-6.472a4.28,4.28,0,0,0-.314-8.554Z" transform="translate(52.169 24.071)" fill="#fff"/><path d="M195.752,48.46a9.637,9.637,0,1,0,9.623,9.637,9.637,9.637,0,0,0-9.623-9.637Zm-.813,4.02h1.611v1.611c1.426,0,2.381.784,2.381,2a1.725,1.725,0,0,1-1.426,1.711v.1a1.91,1.91,0,0,1,1.839,1.925c0,1.426-1.055,2.281-2.766,2.3v1.6h-1.639V62.061h-2V54.091h2Zm-.314,2.851V57.37h1.312c.912,0,1.426-.371,1.426-1.012s-.456-1.026-1.255-1.026Zm0,3.179v2.267h1.426c.969,0,1.426-.4,1.426-1.155s-.542-1.112-1.525-1.112Z" transform="translate(79.214 20.629)" fill="#ff6224"/></svg>