<svg xmlns="http://www.w3.org/2000/svg" width="20.011" height="20.008" viewBox="0 0 20.011 20.008">
    <path id="prefix__icons8_linkedin_1" d="M20.787 3H5.223A2.223 2.223 0 0 0 3 5.223v15.562a2.223 2.223 0 0 0 2.223 2.223h15.564a2.223 2.223 0 0 0 2.223-2.223V5.223A2.223 2.223 0 0 0 20.787 3zM9.67 18.562h-2.8v-7.781h2.8zM8.218 9.355a1.329 1.329 0 0 1-1.43-1.334 1.359 1.359 0 0 1 1.525-1.334 1.329 1.329 0 0 1 1.43 1.334 1.359 1.359 0 0 1-1.525 1.334zm11.457 9.207h-2.714v-4.253c0-1.176-.724-1.447-.995-1.447s-1.176.181-1.176 1.447v4.253h-2.8v-7.781h2.8v1.086a2.536 2.536 0 0 1 2.442-1.086c1.357 0 2.444 1.086 2.444 3.528z" transform="translate(-3 -3)" style="fill:#fff"/>
</svg>
