<svg xmlns="http://www.w3.org/2000/svg" xmlns:xlink="http://www.w3.org/1999/xlink" width="243" height="285" viewBox="0 0 243 285"><defs><clipPath id="a"><rect width="243" height="285" rx="8" transform="translate(236)" fill="#fff"/></clipPath></defs><g transform="translate(-236)"><g transform="translate(0)" clip-path="url(#a)"><g transform="translate(-17.321 -195.374)"><path d="M5.364,186.47C17.323,99.035,81.4,32.911,166.209,7.583c53.323-15.928,225.533-12.671,307.7,68.573-154.306,96.441-50.467,119.609-171.1,106.938-166.09-17.446-35.728-48.406-142.375,31.352-84.566,63.221,21.449,60.885-79.936,26.6C5.9,215.825,62.387,216.782,5.364,186.47Z" transform="translate(252.837 442.784) rotate(-57.995)" fill="#f8fbfd"/><path d="M.2,30.469C-4.215,9.6,67.165-6.4,94.94,2.53,127.18,12.9,96.649,31.6,77.354,35.076,59.274,38.33,76.074,43.7,61.9,53.608,49.591,62.212,2.514,41.437.2,30.469Z" transform="translate(255.679 155.956)" fill="#f4486d"/><path d="M47.583,45.2C36.819,58.3,29.721,84.564,11.113,71.708-2.69,62.172-3.422,35.1,7.732,19.019S41.195-6.748,56.962,5.6C67.985,13.214,57.687,32.917,47.583,45.2Z" transform="translate(331.486 155.956)" fill="#79cfcd"/><path d="M85.555,110.394C63.963,140.227,38.7,104.456,18.24,85.447S-12.255,19.04,25.289,3.527C51.1-7.138,64.961,8.03,85.42,27.04S105.053,83.457,85.555,110.394Z" transform="translate(408.755 240.08)" fill="#ffd049"/><path d="M110.069,53.171C83.923,66.353,87.674,93.915,65.145,87.566c-16.56-4.666-52.335,17.5-63.92-23.91C-4.338,43.77,10.07,24.179,23.765,22.349S45.279-6.152,53.412,1.316c19.52,17.935,18.936,2.442,34.22,11.031C104.343,21.736,121.869,47.222,110.069,53.171Z" transform="translate(299.577 244.3)" fill="#e6eef2"/><path d="M56.163,10.37c.45,12.547-18.135,35.02-31.367,35.5S.466,36.566.014,24.02,9.924.916,23.158.437,55.709-2.176,56.163,10.37Z" transform="translate(325.948 339.763)" fill="#f4486d"/><path d="M74.423,21.661c18.048,15.894-7.265,50.6-40.009,50.6C19.628,72.257-2.452,57.929.222,41.131c2.321-14.57,28.9-9.846,37.1-22.12C63.6-20.327,63.507,12.047,74.423,21.661Z" transform="translate(340.452 409.384)" fill="#79cfcd"/><path d="M0,18.367C0,9.473,9.5,9.855,16.894,9.855c19.71,0,40.359-20.27,37.731-2.67S33.064,38.5,21.069,38.5,0,27.257,0,18.367Z" transform="translate(285.6 520.934)" fill="#e6eef2"/><path d="M106.218,5.7c32.3-14.393,30.412,20.6,40.222,42.8,25.572,57.848-93.516,73.2-77.035,49.384s-10.8-34.2-39.71-34.2c-49.117,0-32.859-77.629,16.334-61.463C72.527,10.923,73.913,20.1,106.218,5.7Z" transform="translate(438.29 155.165)" fill="#dd234b"/><path d="M1.152,46.91c2.567-22,16.32-38.63,34.525-45C47.122-2.1,84.086-1.281,101.724,19.158c24.6,28.514.938,48.378-24.955,45.19-35.65-4.389-4.5,27-27.394,47.067-18.152,15.9-13.7-13.689-35.463-22.315C-2.1,82.755-.844,64.006,1.152,46.91Z" transform="translate(479.956 327.37)" fill="#dd234b"/><path d="M15.862,15.75c-3.843,3.013-11.591,4.071-14.607.244S1.11,4.9,4.953,1.89a8.819,8.819,0,1,1,10.91,13.86Z" transform="translate(419.04 475.048)" fill="#79cfcd"/><path d="M14.153,4.23C30.119-5.812,50.029,3.165,60.026,19.2s26.4,49.468-6.622,48C27.686,66.054-25.345,29.079,14.153,4.23Z" transform="translate(488.132 299.679)" fill="#e6eef2"/><path d="M3.934,1.16C8.372-1.6,13.907.868,16.686,5.271s7.34,13.58-1.841,13.176C7.7,18.132-7.045,7.982,3.934,1.16Z" transform="translate(488.132 391.979)" fill="#f4486d"/><path d="M29.377,29.383C22.259,35,7.905,36.978,2.327,29.838S2.056,9.147,9.172,3.526a16.312,16.312,0,0,1,22.989,2.75,16.521,16.521,0,0,1-2.784,23.107Z" transform="translate(518.786 352.455)" fill="none"/><path d="M35.085,0C54.556-.019,68.919,18.812,73.907,31.195c4.826,11.983-15.337-2.1-29.4,13.138C27.619,62.636-2.954,40,.23,20.7,2.8,5.114,19.241.011,35.085,0Z" transform="translate(379.218 425.997)" fill="#e6eef2"/><path d="M3.934,1.16C8.372-1.6,13.907.868,16.686,5.271s7.34,13.58-1.841,13.176C7.7,18.132-7.045,7.982,3.934,1.16Z" transform="translate(348.891 404.637)" fill="#79cfcd"/><path d="M3.934,1.16C8.372-1.6,13.907.868,16.686,5.271s7.34,13.58-1.841,13.176C7.7,18.132-7.045,7.982,3.934,1.16Z" transform="translate(520.304 293.614)" fill="#2c3551"/><path d="M10.508,14.425c5.1,0,10.623-7.638,10.623-10.988S14.327,0,9.23,0,0,2.716,0,6.065,5.41,14.425,10.508,14.425Z" transform="translate(373.68 372.2)" fill="#2c3551"/><path d="M7.311,10.037c3.547,0,7.392-5.314,7.392-7.645S9.969,0,6.422,0,0,1.89,0,4.22,3.764,10.037,7.311,10.037Z" transform="translate(288.656 368.154)" fill="#79cfcd"/><path d="M16.13,22.152c7.825,0,16.307-11.729,16.307-16.873S21.994,0,14.168,0,0,4.17,0,9.314,8.3,22.152,16.13,22.152Z" transform="translate(374.709 276.64) rotate(42)" fill="#2c3551"/></g></g></g></svg>