<svg xmlns="http://www.w3.org/2000/svg" xmlns:xlink="http://www.w3.org/1999/xlink" width="174" height="285" viewBox="0 0 174 285"><defs><clipPath id="a"><rect width="174" height="285" transform="translate(305)" fill="#fff"/></clipPath><clipPath id="b"><path d="M444.1-923.288a23.285,23.285,0,0,1,23.55,23.011v204.028a23.285,23.285,0,0,1-23.55,23.011q-13.006,0-23.55,15.341V-900.276A23.285,23.285,0,0,1,444.1-923.288Z" transform="translate(-420.548 923.288)" fill="#75cbb3"/></clipPath><clipPath id="c"><path d="M444.1-1200a23.289,23.289,0,0,1,23.55,23.018v204.1a23.289,23.289,0,0,1-23.55,23.018q-13.006,0-23.55,23.018v-250.133A23.289,23.289,0,0,1,444.1-1200Z" transform="translate(-420.548 1200)" fill="#f2f2f2"/></clipPath><clipPath id="d"><path d="M66.7-430.137a23.284,23.284,0,0,1,23.55,23.009v111.213A23.284,23.284,0,0,1,66.7-272.906H43.151V-407.128A23.284,23.284,0,0,1,66.7-430.137Z" transform="translate(-43.151 430.137)" fill="#dc2249"/></clipPath><clipPath id="e"><path d="M263.121-808.583H169.178v-216.125h38.36v-1.319h55.583Zm0,.751v6.76H169.178v-6.76Zm0,8.012v6.134H169.178v-6.134Zm0,8.137v5.383H169.178v-5.383Zm0,8.137v4.507H169.178v-4.507Zm0,7.761v4.381H169.178v-4.381Zm0,8.387v3.13H169.178v-3.13Zm-.53,7.887a22.542,22.542,0,0,1-.794,2.754H170.5a22.533,22.533,0,0,1-.794-2.754ZM259.1-751.5a23.181,23.181,0,0,1-1.659,2.128H174.861a23.18,23.18,0,0,1-1.66-2.128Zm-9.87,8.137a23.787,23.787,0,0,1-9.592,2H192.664a23.787,23.787,0,0,1-9.592-2Z" transform="translate(-169.178 1026.027)" fill="#7a4865"/></clipPath><clipPath id="f"><path d="M169.178-1026.2h93.943V-940.7a23.249,23.249,0,0,1-23.486,23.006,23.249,23.249,0,0,0-23.486,23.006v27.773c0,25.412-21.03,46.012-46.971,46.012Z" transform="translate(-169.178 1026.205)" fill="#f6cb51"/></clipPath><clipPath id="g"><rect width="96.503" height="208.056" fill="none"/></clipPath><clipPath id="h"><path d="M169.178-821.16h93.943v-205.552H169.178Z" transform="translate(-169.178 1026.712)" fill="none"/></clipPath><clipPath id="i"><path d="M719.7-716.941v132.225a23.289,23.289,0,0,1-23.55,23.018q-13.006,0-23.55,23.018V-736.567A23.4,23.4,0,0,0,695.9-716.941Z" transform="translate(-672.603 736.567)" fill="#3d2c42"/></clipPath><clipPath id="j"><path d="M696.129-556.849a23.263,23.263,0,0,1,23.526,22.99v111.118a23.263,23.263,0,0,1-23.526,22.99,23.263,23.263,0,0,1-23.526-22.99V-533.859A23.263,23.263,0,0,1,696.129-556.849Z" transform="translate(-672.602 556.849)" fill="#dc2249"/></clipPath><clipPath id="k"><rect width="49.659" height="159.735" fill="#dc2249"/></clipPath><clipPath id="l"><path d="M672.6-399.618h47.1V-556.849H672.6Z" transform="translate(-672.603 556.849)" fill="#dc2249"/></clipPath><clipPath id="m"><path d="M98.616-597.951a4.065,4.065,0,0,1-4.1-4.034,4.065,4.065,0,0,1,4.1-4.034,4.065,4.065,0,0,1,4.1,4.034A4.065,4.065,0,0,1,98.616-597.951Zm0,19.594a4.065,4.065,0,0,1-4.1-4.034,4.065,4.065,0,0,1,4.1-4.034,4.065,4.065,0,0,1,4.1,4.034A4.065,4.065,0,0,1,98.616-578.357Zm0-58.78a4.065,4.065,0,0,1-4.1-4.034,4.065,4.065,0,0,1,4.1-4.034,4.065,4.065,0,0,1,4.1,4.034A4.065,4.065,0,0,1,98.616-637.138Zm0,19.594a4.065,4.065,0,0,1-4.1-4.034,4.065,4.065,0,0,1,4.1-4.034,4.065,4.065,0,0,1,4.1,4.034A4.065,4.065,0,0,1,98.616-617.544Z" transform="translate(-94.52 645.205)" fill="#75cbb3"/></clipPath><clipPath id="n"><path d="M472.126-930.337c24.7,0,44.729-19.581,44.729-43.735s-20.026-43.736-44.729-43.736S427.4-998.227,427.4-974.072,447.423-930.337,472.126-930.337Z" transform="translate(-427.397 1017.808)" fill="#75cbb3"/></clipPath><clipPath id="o"><rect width="140.275" height="284.668" fill="#7a4865"/></clipPath><clipPath id="p"><path d="M427.4-930.179h89.591v-87.629H427.4Z" transform="translate(-427.397 1017.808)" fill="none"/></clipPath><clipPath id="q"><path d="M641.247-1026.205v261.356a23.288,23.288,0,0,1-23.542,23.026H570.623a23.288,23.288,0,0,1-23.542-23.026v-261.356Z" transform="translate(-547.081 1026.205)" fill="#f2f2f2"/></clipPath><clipPath id="r"><path d="M427.4-930.179h89.591v-87.629H427.4Z" transform="translate(-427.397 1017.808)" fill="#f2f2f2"/></clipPath><clipPath id="s"><path d="M547.081-899.21H591.81v74.427H547.081Z" transform="translate(-547.081 899.21)" fill="none"/></clipPath><clipPath id="u"><path d="M889.292-524.316a1.136,1.136,0,0,1-1.152-1.12,1.136,1.136,0,0,1,1.152-1.12,1.136,1.136,0,0,1,1.152,1.12A1.136,1.136,0,0,1,889.292-524.316Zm0-7.84a1.136,1.136,0,0,1-1.152-1.12,1.136,1.136,0,0,1,1.152-1.12,1.136,1.136,0,0,1,1.152,1.12,1.136,1.136,0,0,1-1.152,1.12Zm0-7.839a1.136,1.136,0,0,1-1.152-1.12,1.136,1.136,0,0,1,1.152-1.12,1.136,1.136,0,0,1,1.152,1.12A1.136,1.136,0,0,1,889.292-540Zm0-7.84a1.136,1.136,0,0,1-1.152-1.12,1.136,1.136,0,0,1,1.152-1.12,1.136,1.136,0,0,1,1.152,1.12,1.136,1.136,0,0,1-1.152,1.12Zm0-7.839a1.136,1.136,0,0,1-1.152-1.12,1.136,1.136,0,0,1,1.152-1.12,1.136,1.136,0,0,1,1.152,1.12A1.136,1.136,0,0,1,889.292-555.674Zm0-7.84a1.136,1.136,0,0,1-1.152-1.12,1.136,1.136,0,0,1,1.152-1.12,1.136,1.136,0,0,1,1.152,1.12A1.136,1.136,0,0,1,889.292-563.514Zm-7.563,39.2a1.136,1.136,0,0,1-1.152-1.12,1.136,1.136,0,0,1,1.152-1.12,1.136,1.136,0,0,1,1.152,1.12,1.136,1.136,0,0,1-1.151,1.12Zm0-7.84a1.136,1.136,0,0,1-1.152-1.12,1.136,1.136,0,0,1,1.152-1.12,1.136,1.136,0,0,1,1.152,1.12,1.136,1.136,0,0,1-1.151,1.12Zm0-7.839a1.136,1.136,0,0,1-1.152-1.12,1.136,1.136,0,0,1,1.152-1.12,1.136,1.136,0,0,1,1.152,1.12A1.136,1.136,0,0,1,881.73-540Zm0-7.84a1.136,1.136,0,0,1-1.152-1.12,1.136,1.136,0,0,1,1.152-1.12,1.136,1.136,0,0,1,1.152,1.12,1.136,1.136,0,0,1-1.151,1.12Zm0-7.839a1.136,1.136,0,0,1-1.152-1.12,1.136,1.136,0,0,1,1.152-1.12,1.136,1.136,0,0,1,1.152,1.12,1.136,1.136,0,0,1-1.151,1.12Zm0-7.84a1.136,1.136,0,0,1-1.152-1.12,1.136,1.136,0,0,1,1.152-1.12,1.136,1.136,0,0,1,1.152,1.12,1.136,1.136,0,0,1-1.151,1.12Zm-7.563,39.2a1.136,1.136,0,0,1-1.152-1.12,1.136,1.136,0,0,1,1.152-1.12,1.136,1.136,0,0,1,1.152,1.12,1.136,1.136,0,0,1-1.151,1.12Zm0-7.84a1.136,1.136,0,0,1-1.152-1.12,1.136,1.136,0,0,1,1.152-1.12,1.136,1.136,0,0,1,1.152,1.12,1.136,1.136,0,0,1-1.151,1.12Zm0-7.839a1.136,1.136,0,0,1-1.152-1.12,1.136,1.136,0,0,1,1.152-1.12,1.136,1.136,0,0,1,1.152,1.12,1.136,1.136,0,0,1-1.151,1.12Zm0-7.84a1.136,1.136,0,0,1-1.152-1.12,1.136,1.136,0,0,1,1.152-1.12,1.136,1.136,0,0,1,1.152,1.12,1.136,1.136,0,0,1-1.151,1.12Zm0-7.84a1.136,1.136,0,0,1-1.152-1.12,1.136,1.136,0,0,1,1.152-1.12,1.136,1.136,0,0,1,1.152,1.12,1.136,1.136,0,0,1-1.151,1.12Zm0-7.839a1.136,1.136,0,0,1-1.152-1.12,1.136,1.136,0,0,1,1.152-1.12,1.136,1.136,0,0,1,1.152,1.12,1.136,1.136,0,0,1-1.151,1.12Zm-7.892,39.2a1.136,1.136,0,0,1-1.152-1.12,1.136,1.136,0,0,1,1.152-1.12,1.136,1.136,0,0,1,1.152,1.12,1.136,1.136,0,0,1-1.151,1.12Zm0-7.84a1.136,1.136,0,0,1-1.152-1.12,1.136,1.136,0,0,1,1.152-1.12,1.136,1.136,0,0,1,1.152,1.12,1.136,1.136,0,0,1-1.151,1.12Zm0-7.839a1.136,1.136,0,0,1-1.152-1.12,1.136,1.136,0,0,1,1.152-1.12,1.136,1.136,0,0,1,1.152,1.12,1.136,1.136,0,0,1-1.151,1.12Zm0-7.84a1.136,1.136,0,0,1-1.152-1.12,1.136,1.136,0,0,1,1.152-1.12,1.136,1.136,0,0,1,1.152,1.12,1.136,1.136,0,0,1-1.151,1.12Zm0-7.84a1.136,1.136,0,0,1-1.152-1.12,1.136,1.136,0,0,1,1.152-1.12,1.136,1.136,0,0,1,1.152,1.12,1.136,1.136,0,0,1-1.151,1.12Zm0-7.839a1.136,1.136,0,0,1-1.152-1.12,1.136,1.136,0,0,1,1.152-1.12,1.136,1.136,0,0,1,1.152,1.12,1.136,1.136,0,0,1-1.151,1.12Zm-7.562,39.2a1.136,1.136,0,0,1-1.152-1.12,1.136,1.136,0,0,1,1.152-1.12,1.136,1.136,0,0,1,1.152,1.12,1.136,1.136,0,0,1-1.151,1.12Zm0-7.84a1.136,1.136,0,0,1-1.152-1.12,1.136,1.136,0,0,1,1.152-1.12,1.136,1.136,0,0,1,1.152,1.12,1.136,1.136,0,0,1-1.151,1.12Zm0-7.839a1.136,1.136,0,0,1-1.152-1.12,1.136,1.136,0,0,1,1.152-1.12,1.136,1.136,0,0,1,1.152,1.12,1.136,1.136,0,0,1-1.151,1.12Zm0-7.84a1.136,1.136,0,0,1-1.152-1.12,1.136,1.136,0,0,1,1.152-1.12,1.136,1.136,0,0,1,1.152,1.12,1.136,1.136,0,0,1-1.151,1.12Zm0-7.84a1.136,1.136,0,0,1-1.152-1.12,1.136,1.136,0,0,1,1.152-1.12,1.136,1.136,0,0,1,1.152,1.12,1.136,1.136,0,0,1-1.151,1.12Zm0-7.839a1.136,1.136,0,0,1-1.152-1.12,1.136,1.136,0,0,1,1.152-1.12,1.136,1.136,0,0,1,1.152,1.12,1.136,1.136,0,0,1-1.151,1.12Zm-7.561,39.2a1.136,1.136,0,0,1-1.152-1.12,1.136,1.136,0,0,1,1.152-1.12,1.136,1.136,0,0,1,1.152,1.12,1.136,1.136,0,0,1-1.152,1.12Zm0-7.84a1.136,1.136,0,0,1-1.152-1.12,1.136,1.136,0,0,1,1.152-1.12,1.136,1.136,0,0,1,1.152,1.12,1.136,1.136,0,0,1-1.152,1.12Zm0-7.839a1.136,1.136,0,0,1-1.152-1.12,1.136,1.136,0,0,1,1.152-1.12,1.136,1.136,0,0,1,1.152,1.12,1.136,1.136,0,0,1-1.152,1.12Zm0-7.84a1.136,1.136,0,0,1-1.152-1.12,1.136,1.136,0,0,1,1.152-1.12,1.136,1.136,0,0,1,1.152,1.12,1.136,1.136,0,0,1-1.152,1.12Zm0-7.839a1.136,1.136,0,0,1-1.152-1.12,1.136,1.136,0,0,1,1.152-1.12,1.136,1.136,0,0,1,1.152,1.12,1.136,1.136,0,0,1-1.152,1.12Zm0-7.84a1.136,1.136,0,0,1-1.152-1.12,1.136,1.136,0,0,1,1.152-1.12,1.136,1.136,0,0,1,1.152,1.12,1.136,1.136,0,0,1-1.152,1.12Zm38.14,86.39a1.136,1.136,0,0,1-1.152-1.12,1.136,1.136,0,0,1,1.152-1.12,1.136,1.136,0,0,1,1.152,1.12A1.136,1.136,0,0,1,889.292-477.123Zm0-7.84a1.136,1.136,0,0,1-1.152-1.12,1.136,1.136,0,0,1,1.152-1.12,1.136,1.136,0,0,1,1.152,1.12A1.136,1.136,0,0,1,889.292-484.963Zm0-7.84a1.136,1.136,0,0,1-1.152-1.12,1.136,1.136,0,0,1,1.152-1.12,1.136,1.136,0,0,1,1.152,1.12A1.136,1.136,0,0,1,889.292-492.8Zm0-7.84a1.136,1.136,0,0,1-1.152-1.12,1.136,1.136,0,0,1,1.152-1.12,1.136,1.136,0,0,1,1.152,1.12A1.136,1.136,0,0,1,889.292-500.642Zm0-7.839a1.136,1.136,0,0,1-1.152-1.12,1.136,1.136,0,0,1,1.152-1.12,1.136,1.136,0,0,1,1.152,1.12A1.136,1.136,0,0,1,889.292-508.481Zm0-7.84a1.136,1.136,0,0,1-1.152-1.12,1.136,1.136,0,0,1,1.152-1.12,1.136,1.136,0,0,1,1.152,1.12A1.136,1.136,0,0,1,889.292-516.321Zm-7.562,39.2a1.136,1.136,0,0,1-1.152-1.12,1.136,1.136,0,0,1,1.152-1.12,1.136,1.136,0,0,1,1.152,1.12A1.136,1.136,0,0,1,881.73-477.123Zm0-7.84a1.136,1.136,0,0,1-1.152-1.12,1.136,1.136,0,0,1,1.152-1.12,1.136,1.136,0,0,1,1.152,1.12A1.136,1.136,0,0,1,881.73-484.963Zm0-7.84a1.136,1.136,0,0,1-1.152-1.12,1.136,1.136,0,0,1,1.152-1.12,1.136,1.136,0,0,1,1.152,1.12A1.136,1.136,0,0,1,881.73-492.8Zm0-7.84a1.136,1.136,0,0,1-1.152-1.12,1.136,1.136,0,0,1,1.152-1.12,1.136,1.136,0,0,1,1.152,1.12A1.136,1.136,0,0,1,881.73-500.642Zm0-7.839a1.136,1.136,0,0,1-1.152-1.12,1.136,1.136,0,0,1,1.152-1.12,1.136,1.136,0,0,1,1.152,1.12A1.136,1.136,0,0,1,881.73-508.481Zm0-7.84a1.136,1.136,0,0,1-1.152-1.12,1.136,1.136,0,0,1,1.152-1.12,1.136,1.136,0,0,1,1.152,1.12A1.136,1.136,0,0,1,881.73-516.321Zm-7.562,39.2a1.136,1.136,0,0,1-1.152-1.12,1.136,1.136,0,0,1,1.152-1.12,1.136,1.136,0,0,1,1.152,1.12A1.136,1.136,0,0,1,874.168-477.123Zm0-7.84a1.136,1.136,0,0,1-1.152-1.12,1.136,1.136,0,0,1,1.152-1.12,1.136,1.136,0,0,1,1.152,1.12A1.136,1.136,0,0,1,874.168-484.963Zm0-7.84a1.136,1.136,0,0,1-1.152-1.12,1.136,1.136,0,0,1,1.152-1.12,1.136,1.136,0,0,1,1.152,1.12A1.136,1.136,0,0,1,874.168-492.8Zm0-7.84a1.136,1.136,0,0,1-1.152-1.12,1.136,1.136,0,0,1,1.152-1.12,1.136,1.136,0,0,1,1.152,1.12A1.136,1.136,0,0,1,874.168-500.642Zm0-7.839a1.136,1.136,0,0,1-1.152-1.12,1.136,1.136,0,0,1,1.152-1.12,1.136,1.136,0,0,1,1.152,1.12A1.136,1.136,0,0,1,874.168-508.481Zm0-7.84a1.136,1.136,0,0,1-1.152-1.12,1.136,1.136,0,0,1,1.152-1.12,1.136,1.136,0,0,1,1.152,1.12A1.136,1.136,0,0,1,874.168-516.321Zm-7.892,39.2a1.136,1.136,0,0,1-1.152-1.12,1.136,1.136,0,0,1,1.152-1.12,1.136,1.136,0,0,1,1.152,1.12A1.136,1.136,0,0,1,866.276-477.123Zm0-7.84a1.136,1.136,0,0,1-1.152-1.12,1.136,1.136,0,0,1,1.152-1.12,1.136,1.136,0,0,1,1.152,1.12A1.136,1.136,0,0,1,866.276-484.963Zm0-7.84a1.136,1.136,0,0,1-1.152-1.12,1.136,1.136,0,0,1,1.152-1.12,1.136,1.136,0,0,1,1.152,1.12A1.136,1.136,0,0,1,866.276-492.8Zm0-7.84a1.136,1.136,0,0,1-1.152-1.12,1.136,1.136,0,0,1,1.152-1.12,1.136,1.136,0,0,1,1.152,1.12A1.136,1.136,0,0,1,866.276-500.642Zm0-7.839a1.136,1.136,0,0,1-1.152-1.12,1.136,1.136,0,0,1,1.152-1.12,1.136,1.136,0,0,1,1.152,1.12A1.136,1.136,0,0,1,866.276-508.481Zm0-7.84a1.136,1.136,0,0,1-1.152-1.12,1.136,1.136,0,0,1,1.152-1.12,1.136,1.136,0,0,1,1.152,1.12A1.136,1.136,0,0,1,866.276-516.321Zm-7.563,39.2a1.136,1.136,0,0,1-1.152-1.12,1.136,1.136,0,0,1,1.152-1.12,1.136,1.136,0,0,1,1.152,1.12A1.136,1.136,0,0,1,858.713-477.123Zm0-7.84a1.136,1.136,0,0,1-1.152-1.12,1.136,1.136,0,0,1,1.152-1.12,1.136,1.136,0,0,1,1.152,1.12A1.136,1.136,0,0,1,858.713-484.963Zm0-7.84a1.136,1.136,0,0,1-1.152-1.12,1.136,1.136,0,0,1,1.152-1.12,1.136,1.136,0,0,1,1.152,1.12A1.136,1.136,0,0,1,858.713-492.8Zm0-7.84a1.136,1.136,0,0,1-1.152-1.12,1.136,1.136,0,0,1,1.152-1.12,1.136,1.136,0,0,1,1.152,1.12A1.136,1.136,0,0,1,858.713-500.642Zm0-7.839a1.136,1.136,0,0,1-1.152-1.12,1.136,1.136,0,0,1,1.152-1.12,1.136,1.136,0,0,1,1.152,1.12A1.136,1.136,0,0,1,858.713-508.481Zm0-7.84a1.136,1.136,0,0,1-1.152-1.12,1.136,1.136,0,0,1,1.152-1.12,1.136,1.136,0,0,1,1.152,1.12A1.136,1.136,0,0,1,858.713-516.321Zm-7.562,39.2a1.136,1.136,0,0,1-1.152-1.12,1.136,1.136,0,0,1,1.152-1.12,1.136,1.136,0,0,1,1.152,1.12,1.136,1.136,0,0,1-1.152,1.12Zm0-7.84a1.136,1.136,0,0,1-1.152-1.12,1.136,1.136,0,0,1,1.152-1.12,1.136,1.136,0,0,1,1.152,1.12,1.136,1.136,0,0,1-1.152,1.12Zm0-7.84a1.136,1.136,0,0,1-1.152-1.12,1.136,1.136,0,0,1,1.152-1.12,1.136,1.136,0,0,1,1.152,1.12,1.136,1.136,0,0,1-1.152,1.12Zm0-7.84a1.136,1.136,0,0,1-1.152-1.12,1.136,1.136,0,0,1,1.152-1.12,1.136,1.136,0,0,1,1.152,1.12,1.136,1.136,0,0,1-1.152,1.12Zm0-7.839A1.136,1.136,0,0,1,850-509.6a1.136,1.136,0,0,1,1.152-1.12,1.136,1.136,0,0,1,1.152,1.12,1.136,1.136,0,0,1-1.152,1.12Zm0-7.84a1.136,1.136,0,0,1-1.152-1.12,1.136,1.136,0,0,1,1.152-1.12,1.136,1.136,0,0,1,1.152,1.12,1.136,1.136,0,0,1-1.152,1.12Z" transform="translate(-850 565.754)" fill="#dc2249"/></clipPath><clipPath id="v"><path d="M388.088-609.928c31.628,0,57.267-25.07,57.267-55.995s-25.639-55.995-57.267-55.995-57.267,25.07-57.267,55.995S356.461-609.928,388.088-609.928Z" transform="translate(-330.822 721.918)" fill="#f2f2f2"/></clipPath><clipPath id="w"><path d="M486.068-641.35c13.866,0,25.1-10.991,25.1-24.55s-11.243-24.544-25.1-24.542-25.1,10.991-25.1,24.55S472.207-641.348,486.068-641.35Z" transform="translate(-460.964 690.441)" fill="#75cbb3"/></clipPath><clipPath id="x"><path d="M264.622-848.26a17.852,17.852,0,0,0,18.046-17.651,17.852,17.852,0,0,0-18.046-17.651,17.852,17.852,0,0,0-18.046,17.651A17.852,17.852,0,0,0,264.622-848.26Z" transform="translate(-246.575 883.561)" fill="none"/></clipPath><clipPath id="y"><path d="M717.361-775.657a17.852,17.852,0,0,0,18.046-17.651,17.852,17.852,0,0,0-18.046-17.651,17.852,17.852,0,0,0-18.046,17.651,17.852,17.852,0,0,0,18.046,17.651Z" transform="translate(-699.315 810.959)" fill="#7a4865"/></clipPath><clipPath id="z"><path d="M194.327-906.159a6.584,6.584,0,0,0,6.655-6.51,6.584,6.584,0,0,0-6.655-6.51,6.584,6.584,0,0,0-6.655,6.51A6.584,6.584,0,0,0,194.327-906.159Z" transform="translate(-187.671 919.178)" fill="none"/></clipPath><clipPath id="aa"><path d="M208.831-743a8.736,8.736,0,0,0,8.831-8.638,8.736,8.736,0,0,0-8.831-8.638A8.736,8.736,0,0,0,200-751.636,8.736,8.736,0,0,0,208.831-743Z" transform="translate(-200 760.274)" fill="#f2f2f2"/></clipPath></defs><g transform="translate(-305)" clip-path="url(#a)"><g transform="translate(305.217 -86.019)"><g transform="translate(141.042 101.149)" clip-path="url(#b)"><path d="M417.123-926.712h49.659v267.893H417.123Z" transform="translate(-418.403 925.46)" fill="#75cbb3"/></g><g transform="translate(141.042)" clip-path="url(#c)"><path d="M417.123-1203.424h49.659V-927.77H417.123Z" transform="translate(-418.403 1202.172)" fill="#f2f2f2"/></g><g transform="translate(0 281.413)" clip-path="url(#d)"><path d="M39.726-433.562H89.385v159.735H39.726Z" transform="translate(-41.006 432.31)" fill="#dc2249"/></g><g transform="translate(47.099 63.593)" clip-path="url(#e)"><path d="M165.753-1029.452h96.5V-742.28h-96.5Z" transform="translate(-167.033 1028.2)" fill="#7a4865"/></g><g transform="translate(47.099 63.529)" clip-path="url(#f)"><g transform="translate(-1.28 -1.437)" clip-path="url(#g)"><g transform="translate(1.28 1.252)" clip-path="url(#h)"><path d="M165.753-1029.629h96.5v207.805h-96.5Z" transform="translate(-167.033 1028.563)" fill="#f6ca51"/></g></g></g><g transform="translate(235.241 169.402)" clip-path="url(#i)"><path d="M669.178-739.992h49.659V-539.6H669.178Z" transform="translate(-670.458 738.74)" fill="#3d2b41"/></g><g transform="translate(235.241 235.095)" clip-path="url(#j)"><g transform="translate(-1.28 -1.252)" clip-path="url(#k)"><g transform="translate(1.28 1.252)" clip-path="url(#l)"><path d="M669.178-560.274H718.79v159.6H669.178Z" transform="translate(-670.458 559.022)" fill="#dc2249"/></g></g></g><g transform="translate(19.198 202.798)" clip-path="url(#m)"><path d="M91.1-648.63h10.751v69.352H91.1Z" transform="translate(-92.376 647.378)" fill="#75cbb3"/></g><g transform="translate(143.602 66.598)" clip-path="url(#n)"><g transform="translate(-1.28 -3.255)" clip-path="url(#o)"><g transform="translate(1.28 3.255)" clip-path="url(#p)"><path d="M423.973-1021.233H515.99v89.975H423.973Z" transform="translate(-425.252 1019.981)" fill="#74cab3"/></g><g transform="translate(46.009 0.185)" clip-path="url(#q)"><g transform="translate(-44.729 3.07)" clip-path="url(#r)"><path d="M543.657-1029.629h96.726v286.886H543.657Z" transform="translate(-500.208 1025.308)" fill="#f2f2f2"/></g></g><g transform="translate(46.009 46.607)" clip-path="url(#s)"><g transform="translate(-44.729 -43.352)" clip-path="url(#p)"><path d="M543.657-902.635h47.289V-825.7H543.657Z" transform="translate(-500.208 944.735)" fill="#7a4764"/></g></g></g></g><g transform="translate(301.539 231.84)" clip-path="url(#u)"><path d="M846.575-569.178h43v91.134h-43Z" transform="translate(-847.855 567.926)" fill="#dc2249"/></g><g transform="translate(107.51 174.757)" clip-path="url(#v)"><path d="M327.4-725.342H444.49v114.493H327.4Z" transform="translate(-328.677 724.09)" fill="#f2f2f2"/></g><g transform="translate(156.147 186.263)" clip-path="url(#w)"><path d="M457.54-693.866h52.766v51.6H457.54Z" transform="translate(-458.819 692.614)" fill="#75cbb3"/></g><g transform="translate(76.025 115.67)" clip-path="url(#x)"><path d="M243.151-886.986H281.8v37.806H243.151Z" transform="translate(-244.431 885.734)" fill="#7a4764"/></g><g transform="translate(245.224 142.209)" clip-path="url(#y)"><path d="M695.89-814.383h38.652v37.806H695.89Z" transform="translate(-697.17 813.131)" fill="#7a4865"/></g><g transform="translate(54.011 102.651)" clip-path="url(#z)"><path d="M184.247-922.6h15.87v15.523h-15.87Z" transform="translate(-185.526 921.351)" fill="#7a4764"/></g><g transform="translate(58.618 160.736)" clip-path="url(#aa)"><path d="M196.575-763.7H216.8v19.779H196.575Z" transform="translate(-197.855 762.447)" fill="#f2f2f2"/></g></g></g></svg>