<svg xmlns="http://www.w3.org/2000/svg" width="31" height="32" fill="none" viewBox="0 0 31 32">
    <path fill="#fff" d="M25.005 6.174l-23.57 8.485c-.237.086-.446.237-.6.436-.156.199-.25.438-.275.689-.025.25.022.504.135.729.114.225.289.414.505.544l5.714 3.429 10.057-4.572L12.4 25.971l3.429 5.714c.129.218.317.393.543.508.225.114.479.161.73.137.252-.025.49-.12.69-.276.199-.156.35-.365.434-.603l8.486-23.57c.085-.239.102-.496.047-.743-.056-.247-.18-.474-.359-.653-.179-.179-.405-.303-.652-.358-.247-.055-.505-.039-.743.047z"/>
</svg>
