<svg xmlns="http://www.w3.org/2000/svg" id="prefix__Layer_2" width="461.659" height="294.96" data-name="Layer 2" viewBox="0 0 461.659 294.96">
    <defs>
        <style>
            .prefix__cls-1{fill:#e7e3ff}.prefix__cls-2{fill:#f4b5b7}.prefix__cls-3{fill:#4056e3}.prefix__cls-4{fill:#5265ff}.prefix__cls-5{fill:#f2a61c}.prefix__cls-6{fill:#060606}.prefix__cls-7,.prefix__cls-8{fill:none;stroke-miterlimit:10}.prefix__cls-7{stroke:#ef7353;stroke-width:.69px}.prefix__cls-8{stroke:#060606;stroke-width:1.38px}.prefix__cls-9{fill:#ef7353}.prefix__cls-10{fill:#db8b00}
        </style>
    </defs>
    <g id="prefix__OBJECTS">
        <path id="prefix__Path_1843" d="M124.63 302.661c-2.9 7.085-15.73 19.416-16.677 17.781s5.007-20.186 9.109-21.494 7.568 3.713 7.568 3.713z" class="prefix__cls-1" data-name="Path 1843" transform="translate(-34.376 -95.216)"/>
        <path id="prefix__Path_1844" d="M156.078 311.043c-.252 7.651-7.978 23.66-9.422 22.482s-2.344-20.67 1.049-23.32 8.373.838 8.373.838z" class="prefix__cls-1" data-name="Path 1844" transform="translate(-46.334 -98.557)"/>
        <path id="prefix__Path_1845" d="M53.717 248.129l-4.974 3.471-2.643-3.1 4.564-3.427z" class="prefix__cls-2" data-name="Path 1845" transform="translate(-14.694 -78.113)"/>
        <path id="prefix__Path_1846" d="M44.591 251.113c1.785 2.521 0 4.49-2.132 5.62s-4.49 1.219-4.612.988 1.206-.913 1.206-.913-1.833.279-2.9.307c-.552 0 1.778-1.5 1.7-1.662s-2.48.913-2.657.572c-.354-.436 2.044-2.044 2.044-2.044s-2.228.681-2.044.061 4.244-2.078 4.244-2.078-1.955.211-1.567-.572 4.633-3.25 6.718-.279z" class="prefix__cls-2" data-name="Path 1846" transform="translate(-11.209 -79.584)"/>
        <path id="prefix__Path_1847" d="M187.337 71.37l-2.33-5.6-3.9 1.2 2.01 5.348z" class="prefix__cls-2" data-name="Path 1847" transform="translate(-57.726 -20.963)"/>
        <path id="prefix__Path_1848" d="M181.509 63.19c2.868-1.172 2.4-3.795 1.219-5.886s-3.127-3.447-3.359-3.311.531 1.417.531 1.417-1.4-1.219-2.282-1.812c-.456-.307.681 2.214.545 2.316s-1.6-2.105-1.928-1.914c-.538.184.613 2.786.613 2.786s-1.526-1.744-1.683-1.145 2.459 4.033 2.459 4.033-1.533-1.233-1.628-.361 2.141 5.253 5.513 3.877z" class="prefix__cls-2" data-name="Path 1848" transform="translate(-55.83 -17.075)"/>
        <path id="prefix__Path_1849" d="M170.507 232.73s36.454 29.478 32.476 44.364c-2.418 8.959-42.92 17.134-42.92 17.134l-1.873-7.937 22.073-9.17-20.581-22.747-1.622-19.484z" class="prefix__cls-3" data-name="Path 1849" transform="translate(-50.379 -74.179)"/>
        <path id="prefix__Path_1850" d="M138.539 235.11s-9.735 19.477-1.621 28.136 16.235 25.432 16.235 25.432l-23.9-8.175-1.873 7.937s33.123 24.26 45.29 10.723c11.806-13.169-18.435-61.886-18.435-61.886z" class="prefix__cls-4" data-name="Path 1850" transform="translate(-40.601 -74.938)"/>
        <path id="prefix__Path_1851" d="M141.593 137.271c2.936 5.45 1.213 9.858-2.534 11.874s-8.1.872-11.03-4.578-1.887-10.655 1.86-12.672 8.775-.074 11.704 5.376z" class="prefix__cls-2" data-name="Path 1851" transform="translate(-40.269 -41.792)"/>
        <path id="prefix__Path_1852" d="M97.011 142.707c7.494-7.01 27.033-13.019 32.544-20.029s8.509-22.025 8.509-30.037.5-21.528.5-21.528l8.38-1.7s4.006 27.305 3.5 37.817-2.8 24.28-6.07 36.884c-2.309 8.911-.232 45.052-.232 45.052s-14.007 25.207-35.017 12.61c0 0-10.035-23.579-12.372-25.445-3.706-2.97-4.667 2.1-15.669 6.533-9.633 3.9-28.014 13.305-28.014 13.305l-4.2-6.3s19.5-16.4 28.007-25.888S89.5 149.7 97.011 142.707z" class="prefix__cls-5" data-name="Path 1852" transform="translate(-15.58 -22.123)"/>
        <path id="prefix__Path_1853" d="M139.96 162.358c-1.908-.681-5.9-9.061-5.9-9.061l6.642-3.147 5.218 5.28s3.365 3.829.967 6.131-4.127 1.853-6.927.797z" class="prefix__cls-2" data-name="Path 1853" transform="translate(-42.73 -47.858)"/>
        <path id="prefix__Path_1854" d="M128.043 135.142s3.052.681 2.984-1.076 5.348-.2 6.131-2.909-.191-6.813-2.316-6.649-4.891 5.13-7.085 3.495-8.523 3.481-7.794 6.547 1.519 9.354 5.757 10.505 5.041-3.011 3.788-5.232a13.332 13.332 0 0 1-1.465-4.68z" class="prefix__cls-6" data-name="Path 1854" transform="translate(-38.218 -39.684)"/>
        <circle id="prefix__Ellipse_75" cx="2.098" cy="2.098" r="2.098" class="prefix__cls-2" data-name="Ellipse 75" transform="translate(87.604 98.749)"/>
        <circle id="prefix__Ellipse_76" cx="2.098" cy="2.098" r="2.098" class="prefix__cls-2" data-name="Ellipse 76" transform="translate(97.904 93.047)"/>
        <ellipse id="prefix__Ellipse_77" cx=".613" cy=".763" class="prefix__cls-6" data-name="Ellipse 77" rx=".613" ry=".763" transform="rotate(-25.41 264.9 -159.929)"/>
        <ellipse id="prefix__Ellipse_78" cx=".613" cy=".763" class="prefix__cls-6" data-name="Ellipse 78" rx=".613" ry=".763" transform="rotate(-25.41 262.108 -169.279)"/>
        <path id="prefix__Path_1855" d="M143.24 143.91s1.69.681 1.69 1.158a1.445 1.445 0 0 1-.538.906" class="prefix__cls-7" data-name="Path 1855" transform="translate(-45.656 -45.869)"/>
        <path id="prefix__Path_1856" d="M143.3 149.892l2.97-1.982s.409 1.444-.286 2.187-2.684-.205-2.684-.205z" class="prefix__cls-1" data-name="Path 1856" transform="translate(-45.675 -47.144)"/>
        <path id="prefix__Path_1857" d="M141.38 273.984a8.434 8.434 0 0 0 4.987-5.184" class="prefix__cls-8" data-name="Path 1857" transform="translate(-45.063 -85.676)"/>
        <path id="prefix__Path_1858" d="M187.26 249.13s4.019 2.139 6.438 1.363" class="prefix__cls-8" data-name="Path 1858" transform="translate(-59.687 -79.407)"/>
        <path id="prefix__Line_33" d="M0 0L4.128 7.174" class="prefix__cls-8" data-name="Line 33" transform="translate(121.142 176.154)"/>
        <path id="prefix__Path_1859" d="M588.793 135.1l-2.739-5.416-3.795 1.485 2.4 5.184z" class="prefix__cls-2" data-name="Path 1859" transform="translate(-185.587 -41.334)"/>
        <path id="prefix__Path_1860" d="M582.422 127.412c2.773-1.363 2.119-3.958.784-5.961s-3.406-3.2-3.59-3.052.627 1.363.627 1.363-1.478-1.11-2.4-1.642c-.477-.273.852 2.16.715 2.275s-1.758-1.982-2.044-1.764c-.518.218.824 2.725.824 2.725s-1.655-1.628-1.764-1.022 2.725 3.842 2.725 3.842-1.621-1.11-1.655-.238 2.522 5.096 5.778 3.474z" class="prefix__cls-2" data-name="Path 1860" transform="translate(-183.454 -37.642)"/>
        <path id="prefix__Path_1861" d="M519.86 147.527l1.908-5.757 3.979.906-1.615 5.484z" class="prefix__cls-2" data-name="Path 1861" transform="translate(-165.698 -45.187)"/>
        <path id="prefix__Path_1862" d="M524.043 138.887c-2.95-.954-2.684-3.6-1.655-5.777s2.868-3.665 3.1-3.549-.416 1.451-.416 1.451 1.3-1.315 2.139-1.976c.429-.341-.531 2.262-.375 2.35s1.444-2.214 1.785-2.044c.552.143-.409 2.82-.409 2.82s1.4-1.846 1.594-1.26-2.153 4.2-2.153 4.2 1.437-1.363 1.6-.484-1.753 5.393-5.21 4.269z" class="prefix__cls-2" data-name="Path 1862" transform="translate(-166.277 -41.119)"/>
        <path id="prefix__Path_1863" d="M543.975 270.259s-23.04 30.262-12.522 33.232 36.836-8.359 36.836-8.359L550.167 284.3l7.494-18.81z" class="prefix__cls-3" data-name="Path 1863" transform="translate(-168.517 -84.621)"/>
        <path id="prefix__Path_1864" d="M601.52 292.968l4.394-2.2a3.44 3.44 0 0 1 4.714 1.724s10.457 14.947 6.5 15.24-14.014-9.027-14.014-9.027z" class="prefix__cls-1" data-name="Path 1864" transform="translate(-191.726 -92.561)"/>
        <path id="prefix__Path_1865" d="M592.689 304.93s6.472 11.459 4.244 13.033S586.81 307.7 586.81 307.7z" class="prefix__cls-1" data-name="Path 1865" transform="translate(-187.038 -97.192)"/>
        <path id="prefix__Path_1866" d="M556 288.151l21.031-3.665 2.507 5.45s-50.148 18.231-54 7.283c-3.161-9 26.815-32.905 26.815-32.905l16.35-2.044s15.573 22.148-12.703 25.881z" class="prefix__cls-4" data-name="Path 1866" transform="translate(-167.431 -83.595)"/>
        <path id="prefix__Path_1867" d="M535.838 173.17s-3.495 6.465-3.311 9.027 2.282 5.45 5.021 4.544-1.71-13.571-1.71-13.571z" class="prefix__cls-6" data-name="Path 1867" transform="translate(-169.733 -55.196)"/>
        <path id="prefix__Path_1868" d="M559.012 136.012l5.488-1.812s8.291 18.8 6 38.641c-.974 8.489-9.674 21.283-10.219 24.641s3.536 23.967 3.536 23.967c-8.264 6.86-23.054 11.363-28.8 9.388-1.683-.572-4.088-2.943-8.175-17.3-.368-1.281-2.725-6.3-3.147-7.726s-18.176-18.081-19.1-30.194c-1.226-16.514 8.407-32.83 8.407-32.83l6.881 2.2s-9.115 22.55-3.6 27.305c6.383 5.5 16.623 11.384 23.946 7.235 23.824-13.444 18.783-43.515 18.783-43.515z" class="prefix__cls-9" data-name="Path 1868" transform="translate(-160.8 -42.774)"/>
        <path id="prefix__Path_1869" d="M538.312 177.093c-.552 6.131 2.773 9.538 7.01 9.912s7.787-2.391 8.332-8.557-2.466-10.539-6.7-10.9-8.097 3.38-8.642 9.545z" class="prefix__cls-2" data-name="Path 1869" transform="translate(-171.56 -53.396)"/>
        <path id="prefix__Path_1870" d="M553.809 198.321c1.1-1.717-.681-10.791-.681-10.791l-7.208 1.444-1.056 8.761s-.375 3.672 2.923 4.088 4.435-.988 6.022-3.502z" class="prefix__cls-2" data-name="Path 1870" transform="translate(-173.664 -59.773)"/>
        <circle id="prefix__Ellipse_79" cx="2.098" cy="2.098" r="2.098" class="prefix__cls-2" data-name="Ellipse 79" transform="translate(377.454 121.946)"/>
        <circle id="prefix__Ellipse_80" cx="2.098" cy="2.098" r="2.098" class="prefix__cls-2" data-name="Ellipse 80" transform="translate(365.736 120.774)"/>
        <ellipse id="prefix__Ellipse_81" cx=".763" cy=".613" class="prefix__cls-6" data-name="Ellipse 81" rx=".763" ry=".613" transform="rotate(-87.84 251.358 -131.271)"/>
        <ellipse id="prefix__Ellipse_82" cx=".763" cy=".613" class="prefix__cls-6" data-name="Ellipse 82" rx=".763" ry=".613" transform="rotate(-87.84 248.99 -129.28)"/>
        <path id="prefix__Path_1871" d="M544.349 182.86s-1.274 1.308-1.1 1.73.852.62.852.62" class="prefix__cls-7" data-name="Path 1871" transform="translate(-173.149 -58.284)"/>
        <path id="prefix__Path_1872" d="M545.9 188.927l-3.515-.647s.191 1.485 1.131 1.894 2.384-1.247 2.384-1.247z" class="prefix__cls-1" data-name="Path 1872" transform="translate(-172.876 -60.012)"/>
        <path id="prefix__Path_1873" d="M541.4 169.352c1.206.5 3.181 5.035 5.893 6.813s1.274 6.131 3.795 6.969 11.479-1.437 9.64-5.743 4.088-6.043 3.182-9.136-5 .375-8.175-1.73-11-3.161-12.9-1.969-4.169-.981-5.791 2.418-.436 6.7.484 6.52 2.672-4.632 3.872-4.142z" class="prefix__cls-6" data-name="Path 1873" transform="translate(-170.919 -52.291)"/>
        <path id="prefix__Path_1874" d="M252.112 274.522l-3.243-3.72a3.447 3.447 0 0 0-5.021-.2s-15.369 9.81-11.827 11.581 16.4-2.984 16.4-2.984z" class="prefix__cls-1" data-name="Path 1874" transform="translate(-73.785 -85.935)"/>
        <path id="prefix__Path_1875" d="M286.345 335l-4.285 2.418a3.44 3.44 0 0 0-1.2 4.871s6.554 17.032 9.006 13.9.341-16.664.341-16.664z" class="prefix__cls-1" data-name="Path 1875" transform="translate(-89.344 -106.777)"/>
        <path id="prefix__Path_1876" d="M320.441 114.955l-4.455-4.115-3.045 2.711 4.06 4.019z" class="prefix__cls-2" data-name="Path 1876" transform="translate(-99.745 -35.329)"/>
        <path id="prefix__Path_1877" d="M311.889 110.042c2.119-2.255.606-4.449-1.363-5.859s-4.285-1.819-4.435-1.608 1.07 1.07 1.07 1.07a27.951 27.951 0 0 0-2.827-.681c-.538-.089 1.553 1.73 1.465 1.88s-2.337-1.247-2.555-.933c-.416.388 1.724 2.275 1.724 2.275s-2.119-.947-2.01-.341 3.924 2.643 3.924 2.643-1.908-.484-1.635.347 4.153 3.865 6.642 1.207z" class="prefix__cls-2" data-name="Path 1877" transform="translate(-96.562 -32.678)"/>
        <path id="prefix__Path_1878" d="M297.213 240.2l-17.913-2.34-5.263 5.14s-6.043 9.946-2.916 18.68a147.332 147.332 0 0 1 4.183 14.307l-16.255-12.208-4.769 6.07s18.966 23.878 30.882 20.779c8.965-2.337 5.45-22.3 5.45-22.3s5.225 15.213 6.254 18.714c-2.957 3.863-19.757 17.631-19.757 17.631l4.428 3.972s29.71-13.142 29.526-21.078c-.517-21.946-13.85-47.367-13.85-47.367z" class="prefix__cls-6" data-name="Path 1878" transform="translate(-81.048 -75.815)"/>
        <path id="prefix__Path_1879" d="M284 155.344c6.962-3.406 10.219-16.187 10.382-19.144.47-7.494-5.484-17.277-5.484-17.277l4.96-3.733s11.03 15.526 12.433 23.463-11.582 39.609-12.263 45.168c-1.778 14.708-2.091 24.989-1.635 22.645-7.766 4.837-19.852 5.545-28.245.47a47.852 47.852 0 0 0-3.406-15.669c-3.27-7.937-16.923-7.937-23.463-14.94s-8.856-22.414-8.856-22.414l5.838-1.635s5.716 15.063 11.786 15.063S273.363 160.5 284 155.344z" class="prefix__cls-4" data-name="Path 1879" transform="translate(-72.806 -36.715)"/>
        <path id="prefix__Path_1880" d="M273.834 163.4c1.594 5.975 5.866 8.012 9.974 6.915s6.506-4.905 4.912-10.9-5.927-9.054-10.035-7.964-6.445 5.965-4.851 11.949z" class="prefix__cls-2" data-name="Path 1880" transform="translate(-87.12 -48.203)"/>
        <path id="prefix__Path_1881" d="M287.068 179.578c-1.744-1.056-4.128-9.994-4.128-9.994l7.112-1.873 4.8 7.4s1.948 3.134-.831 4.953-4.421 1.06-6.953-.486z" class="prefix__cls-2" data-name="Path 1881" transform="translate(-90.183 -53.455)"/>
        <path id="prefix__Path_1882" d="M272.464 161.533s2.337-3.965 2.337-6.3c0 0 12.6 9.64 13.775 3.5a9.541 9.541 0 0 0-7.235-11.438c-4.2-.7-7.705 0-10.505 5.6s1.628 8.638 1.628 8.638z" class="prefix__cls-6" data-name="Path 1882" transform="translate(-86.029 -46.877)"/>
        <circle id="prefix__Ellipse_83" cx="2.098" cy="2.098" r="2.098" class="prefix__cls-2" data-name="Ellipse 83" transform="translate(196.013 109.99)"/>
        <ellipse id="prefix__Ellipse_84" cx=".613" cy=".763" class="prefix__cls-6" data-name="Ellipse 84" rx=".613" ry=".763" transform="rotate(-17.82 455.7 -557.815)"/>
        <ellipse id="prefix__Ellipse_85" cx=".613" cy=".763" class="prefix__cls-6" data-name="Ellipse 85" rx=".613" ry=".763" transform="rotate(-17.82 456.915 -544.02)"/>
        <path id="prefix__Path_1883" d="M280.408 168.07s-.749 1.669-.443 2a1.54 1.54 0 0 0 1.015.3" class="prefix__cls-7" data-name="Path 1883" transform="translate(-89.212 -53.57)"/>
        <path id="prefix__Path_1884" d="M283.685 173.14l-3.515.593s.681 1.363 1.7 1.4 1.815-1.993 1.815-1.993z" class="prefix__cls-1" data-name="Path 1884" transform="translate(-89.3 -55.186)"/>
        <path id="prefix__Path_1885" d="M281.006 138.031s-3.032-1.4-2.568-6.07 3.5-4.673 3.5-7.937 0-5.607 6.3-7.494c0 0-3.733 3.733-.232 6.54s-2.1 5.368 0 8.856-1.867 5.137-3.965 5.6a16.044 16.044 0 0 1-3.035.505z" class="prefix__cls-6" data-name="Path 1885" transform="translate(-88.733 -37.142)"/>
        <path id="prefix__Path_1886" d="M229.248 168.739l-.818-6.016 3.972-.933.961 5.634z" class="prefix__cls-2" data-name="Path 1886" transform="translate(-72.809 -51.568)"/>
        <path id="prefix__Path_1887" d="M229.546 158.669c-3.066.443-3.992-2.044-4.026-4.462s.961-4.551 1.226-4.551.259 1.485.259 1.485.593-1.751 1.056-2.725c.238-.5.518 2.262.681 2.275s.327-2.623.681-2.623c.559-.123.879 2.725.879 2.725s.436-2.275.872-1.839-.089 4.728-.089 4.728.681-1.839 1.226-1.138.839 5.614-2.765 6.125z" class="prefix__cls-2" data-name="Path 1887" transform="translate(-71.881 -47.193)"/>
        <path id="prefix__Path_1888" d="M440.431 312.68c4.673 6.07 8.856 23.34 7 23.34s-14.94-14.47-14.007-18.673 7.007-4.667 7.007-4.667z" class="prefix__cls-1" data-name="Path 1888" transform="translate(-138.134 -99.662)"/>
        <path id="prefix__Path_1889" d="M446.38 298.176s-6.07 8.856-6.07 10.267 1.519 8.018 7 6.54c12.086-3.27 15.989-9.224 15.989-9.224s-1.979-9.45-16.919-7.583z" class="prefix__cls-10" data-name="Path 1889" transform="translate(-140.343 -94.962)"/>
        <path id="prefix__Path_1890" d="M398.033 310.62c-4.673 6.07-8.856 23.347-7 23.347s14.94-14.477 14.007-18.673-7.007-4.674-7.007-4.674z" class="prefix__cls-1" data-name="Path 1890" transform="translate(-124.492 -99.006)"/>
        <path id="prefix__Path_1891" d="M388.083 296.116s6.07 8.856 6.07 10.273-1.4 7.494-7 6.533-15.989-9.217-15.989-9.217 1.999-9.456 16.919-7.589z" class="prefix__cls-10" data-name="Path 1891" transform="translate(-118.302 -94.305)"/>
        <path id="prefix__Path_1892" d="M359.684 76.394l-2.194-5.661 3.638-1.833 2.255 5.253z" class="prefix__cls-2" data-name="Path 1892" transform="translate(-113.945 -21.961)"/>
        <path id="prefix__Path_1893" d="M358.065 66.511c-2.882 1.145-4.367-1.07-4.96-3.406s-.123-4.653.129-4.714.606 1.363.606 1.363.164-1.846.388-2.889c.116-.538 1.035 2.085 1.213 2.044s-.3-2.63.068-2.725c.511-.238 1.485 2.439 1.485 2.439s-.109-2.316.422-2 1.015 4.619 1.015 4.619.252-1.948.927-1.363 2.087 5.297-1.293 6.632z" class="prefix__cls-2" data-name="Path 1893" transform="translate(-112.456 -17.903)"/>
        <path id="prefix__Path_1894" d="M480.937 83.91l-2.33-5.6-3.9 1.2 2.017 5.348z" class="prefix__cls-2" data-name="Path 1894" transform="translate(-151.307 -24.96)"/>
        <path id="prefix__Path_1895" d="M475.109 75.73c2.868-1.165 2.4-3.788 1.219-5.886s-3.127-3.406-3.352-3.311.525 1.417.525 1.417-1.4-1.213-2.282-1.812c-.456-.307.681 2.221.545 2.323s-1.6-2.105-1.928-1.914c-.538.177.613 2.786.613 2.786s-1.526-1.744-1.683-1.145 2.466 4.033 2.466 4.033-1.533-1.233-1.635-.361 2.14 5.246 5.512 3.87z" class="prefix__cls-2" data-name="Path 1895" transform="translate(-149.411 -21.072)"/>
        <path id="prefix__Path_1896" d="M395.885 221s-32.7 53.186-25.207 58.827c16.807 12.6 39.8-33.736 39.8-33.736s12.726 41.087 28.484 36.884c7.732-2.044-5.607-51.824-5.607-51.824z" class="prefix__cls-5" data-name="Path 1896" transform="translate(-117.793 -70.441)"/>
        <path id="prefix__Path_1897" d="M443.57 80.054l-6.533.933s4.224 24.7 2.337 28.477c-2.432 4.871-42.77 11.581-59.27-7.494-4.66-5.375-17.277-29.88-17.277-29.88l-5.137 2.8s3.972 51.36 27.08 61.866c-.116 21.909 3.406 31.583 4.019 40.065 12.263 12.992 28.613 13.06 41.775 7.869 0 0 1.894-20.928 4.633-36.734 3.883-3.556 15.07-16.909 18.905-23.108 9.082-14.669-10.532-44.794-10.532-44.794z" class="prefix__cls-1" data-name="Path 1897" transform="translate(-114.009 -22.978)"/>
        <path id="prefix__Path_1898" d="M443.426 114.434c-.034 6.193-3.652 9.238-7.9 9.217s-7.535-3.1-7.494-9.292 3.44-10.26 7.7-10.219 7.722 4.108 7.694 10.294z" class="prefix__cls-2" data-name="Path 1898" transform="translate(-136.428 -33.193)"/>
        <path id="prefix__Path_1899" d="M431.836 136.107c-1.328-1.54 1.546-10.267 1.546-10.267l7.337.409-.334 6.615s1.124 4.973-2.078 5.845-4.516-.341-6.471-2.602z" class="prefix__cls-2" data-name="Path 1899" transform="translate(-137.53 -40.11)"/>
        <circle id="prefix__Ellipse_86" cx="2.098" cy="2.098" r="2.098" class="prefix__cls-2" data-name="Ellipse 86" transform="translate(289.953 78.706)"/>
        <circle id="prefix__Ellipse_87" cx="2.098" cy="2.098" r="2.098" class="prefix__cls-2" data-name="Ellipse 87" transform="translate(304.314 78.706)"/>
        <ellipse id="prefix__Ellipse_88" cx=".763" cy=".613" class="prefix__cls-6" data-name="Ellipse 88" rx=".763" ry=".613" transform="rotate(-86.85 191.506 -116.416)"/>
        <ellipse id="prefix__Ellipse_89" cx=".763" cy=".613" class="prefix__cls-6" data-name="Ellipse 89" rx=".763" ry=".613" transform="rotate(-86.85 193.622 -118.706)"/>
        <path id="prefix__Path_1900" d="M440.57 119.08s1.151 1.424.933 1.819a1.57 1.57 0 0 1-.906.545" class="prefix__cls-7" data-name="Path 1900" transform="translate(-140.426 -37.955)"/>
        <path id="prefix__Path_1901" d="M437.33 125.02l3.556-.32s-.334 1.465-1.3 1.785-2.256-1.465-2.256-1.465z" class="prefix__cls-1" data-name="Path 1901" transform="translate(-139.393 -39.746)"/>
        <path id="prefix__Path_1902" d="M426.057 108.323l1.363 2.568s2.146-5.45 2.916-5.947c1.873-1.288 6.465-.92 7.821-.238 2.337 1.172 3.27 5.607 3.27 5.607s1.4-2.221.818-6.54c-.191-1.363 2.568-5.716-.933-7.351s-4.667 1.751-6.888 1.751-2.8-1.982-5.137.116-5.716 1.867-5.716 3.972 2.486 6.062 2.486 6.062z" class="prefix__cls-6" data-name="Path 1902" transform="translate(-135.007 -30.591)"/>
        <path id="prefix__Line_34" d="M0 10.233L0.497 0" class="prefix__cls-8" data-name="Line 34" transform="translate(292.678 165.431)"/>
        <path id="prefix__Path_1903" d="M397.89 237.279s7.371-2.105 7.9-5.259" class="prefix__cls-8" data-name="Path 1903" transform="translate(-126.822 -73.953)"/>
        <path id="prefix__Path_1904" d="M454.29 240.51s6.813 6.322 7.371 3.161" class="prefix__cls-8" data-name="Path 1904" transform="translate(-144.799 -76.659)"/>
        <path id="prefix__Line_35" d="M9.585 0L0 1.553" data-name="Line 35" transform="translate(385.227 203.48)" style="stroke-width:1.31px;stroke:#060606;fill:none;stroke-miterlimit:10"/>
        <path id="prefix__Path_1905" d="M85.35 50.313l6.683-4.013v7.576l-3.563.892z" class="prefix__cls-9" data-name="Path 1905" transform="translate(-27.204 -14.757)"/>
        <path id="prefix__Path_1906" d="M246.387 95.105l-3.107-4.633 5.409-.273.77 2.514z" class="prefix__cls-4" data-name="Path 1906" transform="translate(-77.542 -28.75)"/>
        <path id="prefix__Path_1907" d="M418.337 372.9l-3.107-4.626 5.409-.272.77 2.514z" class="prefix__cls-4" data-name="Path 1907" transform="translate(-132.349 -117.295)"/>
        <path id="prefix__Path_1908" d="M141.28 6.847V0l5.7 2.282v5.7z" class="prefix__cls-4" data-name="Path 1908" transform="translate(-45.031)"/>
        <path id="prefix__Path_1909" d="M322.426 5.262L318.27 4.24l2.241-3.12 3.461.852z" class="prefix__cls-5" data-name="Path 1909" transform="translate(-101.444 -.357)"/>
        <path id="prefix__Path_1910" d="M497.066 290.452l-4.156-1.022 2.241-3.12 3.461.858z" class="prefix__cls-5" data-name="Path 1910" transform="translate(-157.108 -91.257)"/>
        <path id="prefix__Path_1911" d="M233.09 38.747l1.71-5.137 5.137 3.427-1.71 3.992z" class="prefix__cls-5" data-name="Path 1911" transform="translate(-74.294 -10.713)"/>
        <path id="prefix__Path_1912" d="M306.49 69.464l1.138-6.274 4.564 2.282z" class="prefix__cls-9" data-name="Path 1912" transform="translate(-97.689 -20.141)"/>
        <path id="prefix__Path_1913" d="M495.37 408.273l6.683-4.013v7.576l-3.563.892z" class="prefix__cls-9" data-name="Path 1913" transform="translate(-157.892 -128.852)"/>
        <path id="prefix__Path_1914" d="M570.51 374.657V369.2l4.544 1.819v4.544z" class="prefix__cls-4" data-name="Path 1914" transform="translate(-181.842 -117.677)"/>
        <path id="prefix__Path_1915" d="M603.97 427.21l1.717-5.13 5.13 3.42-1.71 3.992z" class="prefix__cls-5" data-name="Path 1915" transform="translate(-192.507 -134.532)"/>
        <path id="prefix__Path_1916" d="M656.16 380.314l2.282-4.564h3.992l.572 3.992z" class="prefix__cls-9" data-name="Path 1916" transform="translate(-209.142 -119.765)"/>
        <path id="prefix__Path_1917" d="M665.26 187.345l.906-5.5 4.135 3.509-1.165 2.357z" class="prefix__cls-5" data-name="Path 1917" transform="translate(-212.042 -57.959)"/>
        <path id="prefix__Path_1918" d="M668.25 97.743l-2.33-3.59 3.767-.743 1.942 2.991z" class="prefix__cls-9" data-name="Path 1918" transform="translate(-212.253 -29.773)"/>
        <path id="prefix__Path_1919" d="M314.89 411.676l-2.33-3.583 3.767-.743 1.942 2.991z" class="prefix__cls-9" data-name="Path 1919" transform="translate(-99.624 -129.837)"/>
        <path id="prefix__Path_1920" d="M615.14 148.488l5.123-3.788 1.765 4.782z" class="prefix__cls-4" data-name="Path 1920" transform="translate(-196.067 -46.121)"/>
        <path id="prefix__Path_1921" d="M667.53 317.825l5.13-3.795 1.765 4.782z" class="prefix__cls-4" data-name="Path 1921" transform="translate(-212.766 -100.093)"/>
        <path id="prefix__Path_1922" d="M652.76 20.744l4.789-1.764 2.909 2.732-2.316 3.3z" class="prefix__cls-4" data-name="Path 1922" transform="translate(-208.058 -6.05)"/>
        <path id="prefix__Path_1923" d="M31.22 405.018l.906-5.5 4.128 3.5-1.154 2.361z" class="prefix__cls-5" data-name="Path 1923" transform="translate(-9.951 -127.341)"/>
        <path id="prefix__Path_1924" d="M56.53 318.763l-2.33-3.59 3.767-.743 1.942 2.991z" class="prefix__cls-9" data-name="Path 1924" transform="translate(-17.276 -100.22)"/>
        <path id="prefix__Path_1925" d="M0 345.728l5.13-3.788 1.764 4.782z" class="prefix__cls-4" data-name="Path 1925" transform="translate(0 -108.989)"/>
        <path id="prefix__Path_1926" d="M11.23 230.364l4.789-1.764 2.909 2.739-2.316 3.3z" class="prefix__cls-4" data-name="Path 1926" transform="translate(-3.579 -72.863)"/>
        <path id="prefix__Path_1927" d="M550.057 59.105l-3.107-4.633 5.409-.272.77 2.514z" class="prefix__cls-5" data-name="Path 1927" transform="translate(-174.333 -17.276)"/>
        <path id="prefix__Path_1928" d="M368.617 207.288l-3.107-4.626 5.416-.272.763 2.514z" class="prefix__cls-5" data-name="Path 1928" transform="translate(-116.501 -64.509)"/>
        <path id="prefix__Path_1929" d="M348.007 352.805l-3.107-4.633 5.416-.272.763 2.514z" class="prefix__cls-5" data-name="Path 1929" transform="translate(-109.932 -110.888)"/>
        <path id="prefix__Path_1930" d="M583.569 12.962l-4.149-1.029 2.235-3.113 3.461.852z" class="prefix__cls-9" data-name="Path 1930" transform="translate(-184.682 -2.811)"/>
        <path id="prefix__Path_1931" d="M596.936 90.038l-5.975 2.241-.382-5.089z" class="prefix__cls-9" data-name="Path 1931" transform="translate(-188.239 -27.791)"/>
        <path id="prefix__Path_1932" d="M636.006 261.388l-5.968 2.241-.388-5.089z" class="prefix__cls-9" data-name="Path 1932" transform="translate(-200.692 -82.406)"/>
        <path id="prefix__Path_1933" d="M478.67 7.914l2.282-4.564h3.992l.572 3.992z" class="prefix__cls-4" data-name="Path 1933" transform="translate(-152.569 -1.068)"/>
        <path id="prefix__Path_1934" d="M351.7 284.314l2.275-4.564h3.992l.572 3.992z" class="prefix__cls-4" data-name="Path 1934" transform="translate(-112.1 -89.166)"/>
        <path id="prefix__Path_1935" d="M126.038 111.749l-5.028 2.418.5-5.4 2.6-.4z" class="prefix__cls-4" data-name="Path 1935" transform="translate(-38.57 -34.541)"/>
        <path id="prefix__Path_1936" d="M32.624 25.006l-1.6 3.965-2.774-2.657 1.335-3.3z" class="prefix__cls-5" data-name="Path 1936" transform="translate(-9.004 -7.334)"/>
        <path id="prefix__Path_1937" d="M234.954 235.036l-1.6 3.965-2.773-2.657 1.335-3.3z" class="prefix__cls-5" data-name="Path 1937" transform="translate(-73.494 -74.278)"/>
        <path id="prefix__Path_1938" d="M6.32 104.163l-6.05-2.016 2.9-4.2z" class="prefix__cls-4" data-name="Path 1938" transform="translate(-.086 -31.22)"/>
        <path id="prefix__Path_1939" d="M67.33 168.62l-4.19-2.9.565-3.958h4.033z" class="prefix__cls-9" data-name="Path 1939" transform="translate(-20.125 -51.559)"/>
        <path id="prefix__Path_1940" d="M478.39 226.28l1.71-5.13 5.137 3.42-1.71 3.992z" class="prefix__cls-9" data-name="Path 1940" transform="translate(-152.48 -70.488)"/>
        <path id="prefix__Path_1941" d="M415.97 75.139l1.458-8.039 5.845 2.923z" class="prefix__cls-5" data-name="Path 1941" transform="translate(-132.585 -21.387)"/>
        <path id="prefix__Path_1942" d="M390.76 20.194l2.282-4.564h3.992l.572 3.992z" class="prefix__cls-9" data-name="Path 1942" transform="translate(-124.549 -4.982)"/>
        <path id="prefix__Path_1943" d="M196.286 416.172l-4.156-1.022 2.241-3.12 3.461.852z" class="prefix__cls-5" data-name="Path 1943" transform="translate(-61.239 -131.329)"/>
        <path id="prefix__Path_1944" d="M125.09 389.838l1.145-6.268 4.558 2.275z" class="prefix__cls-4" data-name="Path 1944" transform="translate(-39.871 -122.258)"/>
        <path id="prefix__Path_1945" d="M237.28 360.5l2.282-4.558h3.992l.565 3.992z" class="prefix__cls-9" data-name="Path 1945" transform="translate(-75.63 -113.451)"/>
    </g>
</svg>
