<svg xmlns="http://www.w3.org/2000/svg" width="568" height="581" fill="none" viewBox="0 0 568 581">
    <path fill="#F89920" d="M44.036 545.04h50.85c5.847-8.638 11.284-20.703 9.411-34.23-1.371-9.963-6.076-16.315-14.346-27.146-21.473-28.106-54.961-51.551-62.728-45.015-1.462 1.233-1.645 3.199-1.736 4.478-4.25 51.231 9.503 85.095 9.503 85.095 3.38 8.317 6.076 13.344 9.046 16.772v.046z"/>
    <path fill="#F0596E" d="M515.176 533.829c-8.132 4.57-18.595 5.484-25.905 6.124-5.208.457-9.548.457-12.518.32-4.157-4.57-23.803-27.146-18.229-52.83 2.33-10.648 7.949-17.138 17.772-28.152 25.585-28.654 63.779-51.23 71.638-43.507 1.462 1.417 1.507 3.565 1.507 4.982.366 55.8-17.361 91.31-17.361 91.31-6.624 13.253-10.919 18.371-16.904 21.707v.046z"/>
    <path fill="#F0596E" d="M510.582 484.291c11.775-1.865 29.728-3.228 51.594-.084 1.034.134 2.506.403 3.405 1.571 4.734 6.334-15.071 31.334-37.947 46.732-8.814 5.924-13.949 9.324-21.774 9.917-6.704.517-12.781-1.18-17.996-3.754l22.701-54.34.017-.042z"/>
    <path fill="#F89920" d="M19.745 364.737l-1.782-.731L63.97 256.7l138.021-45.472 51.261-106.756 92.79-.96 11.011-57.172 76.663-43.735.959 1.645-75.932 43.324-11.147 57.812-93.156.959-51.078 106.437-.412.137-137.564 45.335-45.641 106.483z"/>
    <path fill="#F89920" d="M248.683 106.894c.822 2.833 3.792 4.478 6.624 3.656 2.833-.823 4.477-3.793 3.655-6.627-.822-2.833-3.792-4.478-6.625-3.656-2.832.823-4.477 3.793-3.654 6.627zM60.68 258.94c.823 2.833 3.793 4.478 6.625 3.656 2.833-.823 4.478-3.793 3.655-6.627-.822-2.833-3.792-4.478-6.624-3.656-2.833.823-4.478 3.793-3.655 6.627zM352.758 48.443c.823 2.833 3.792 4.478 6.625 3.656 2.832-.823 4.477-3.793 3.655-6.627-.823-2.833-3.792-4.479-6.625-3.656-2.832.823-4.477 3.793-3.655 6.627zM198.107 213.148c.639 2.148 2.878 3.427 5.071 2.787 2.147-.639 3.427-2.879 2.787-5.072-.64-2.148-2.878-3.428-5.071-2.788-2.148.64-3.427 2.879-2.787 5.073zM342.889 105.614c.64 2.148 2.879 3.428 5.072 2.788 2.147-.64 3.426-2.879 2.787-5.073-.64-2.148-2.879-3.427-5.072-2.788-2.147.64-3.426 2.88-2.787 5.073z"/>
    <path fill="#546BB1" d="M66.391 395.173l-1.142-1.508 95.166-73.715.137-.046 142.27-46.431 36.23-65.444.183-.091 51.398-41.222 53.728-47.94 41.484-70.242 1.644 1.005-41.621 70.471-.091.091-53.911 48.077-51.306 41.131-36.459 65.717-142.772 46.615-94.938 73.532z"/>
    <path fill="#546BB1" d="M334.666 210.177c.822 2.834 3.792 4.479 6.625 3.656 2.832-.822 4.477-3.793 3.655-6.626-.823-2.834-3.792-4.479-6.625-3.656-2.833.822-4.477 3.793-3.655 6.626zM155.71 322.281c.822 2.833 3.792 4.478 6.624 3.656 2.833-.823 4.477-3.793 3.655-6.627-.822-2.833-3.792-4.478-6.625-3.656-2.832.823-4.477 3.793-3.654 6.627zM439.975 120.878c.822 2.834 3.792 4.479 6.625 3.656 2.832-.822 4.477-3.793 3.655-6.626-.823-2.834-3.792-4.479-6.625-3.656-2.833.822-4.477 3.793-3.655 6.626zM299.533 275.392c.639 2.148 2.878 3.428 5.071 2.788 2.147-.64 3.427-2.879 2.787-5.073-.64-2.148-2.878-3.428-5.071-2.788-2.148.64-3.427 2.879-2.787 5.073zM387.297 168.59c.64 2.148 2.879 3.427 5.072 2.787 2.147-.639 3.426-2.879 2.787-5.072-.64-2.148-2.879-3.428-5.072-2.788-2.147.64-3.426 2.879-2.787 5.073zM489.545 60.416l-2.832-11.196-11.239 2.833-.457-1.874 13.066-3.29 3.29 13.07-1.828.457z"/>
    <path fill="#F89920" d="M433.213 15.355l-1.873-.274 1.782-11.425L421.7 1.874 421.974 0l13.295 2.057-2.056 13.298z"/>
    <path fill="#F0596E" d="M139.993 213.239h8.955v-9.14h-11.559v6.535c0 1.417 1.142 2.605 2.604 2.605z"/>
    <path fill="#2D415B" d="M119.023 297.557l-14.803 69.602c-.365 1.828-.411 3.656-.045 5.484l15.625 79.748h6.03l-7.766-82.49 22.158-53.241h7.538l9.046 58.451-18.457 56.897 5.436 2.605 26.91-56.303c.868-1.828 1.325-3.885 1.325-5.896v-74.812h-53.043l.046-.045z"/>
    <path fill="#546BB1" d="M114.134 455.133l5.665-2.742h6.031v6.763h-4.294l-1.737-1.828-5.665 1.828h-5.665v-2.696l5.665-1.325zM143.785 434.613l3.838 5.027 4.432 3.748-1.188 2.376-5.072-2.559-4.203-4.159-2.421.823-3.792-1.92 3.015-6.032 5.391 2.696z"/>
    <path fill="#FCD7CF" d="M230.225 261.727l4.843.046c1.69 0 3.335-.685 4.477-1.919l3.609-3.885c.229-.274 0-.64-.319-.548l-6.214 1.645c-.64.183-1.325-.046-1.782-.548-1.005-1.097-2.513-1.646-3.975-1.463l-2.421.32 1.782 6.398v-.046zM119.663 159.312l2.238-4.295c.777-1.509 2.148-2.605 3.792-3.062l5.117-1.371c.32-.092.594.319.32.548l-4.386 4.707c-.457.503-.594 1.188-.365 1.828.502 1.417.32 2.971-.549 4.205l-1.416 1.965-4.797-4.57.046.045z"/>
    <path fill="#546BB1" d="M117.378 305.28h54.642l3.107-55.892c0-10.328-8.361-18.691-18.686-18.691h-23.255c-10.325 0-18.686 8.363-18.686 18.691l2.833 55.892h.045z"/>
    <path fill="#FCD7CF" d="M148.126 220.643h-3.61c-2.604 0-4.706-2.103-4.706-4.708v-14.532h16.676v10.876c0 4.616-3.746 8.409-8.406 8.409l.046-.045z"/>
    <path fill="#FCD7CF" d="M143.282 216.073l7.767-1.783 1.736 16.727-4.066 8.591-9.548-8.591 4.111-14.944z"/>
    <path fill="#546BB1" d="M121.398 252.542l8.818-21.434-28.463-24.495 22.752-42.731-4.797-4.57-31.296 43.096c-2.421 3.702-1.964 8.592 1.051 11.791l31.935 38.388v-.045zM191.117 285.537l39.109-23.764-1.782-6.398-36.824 16.635-19.28-32.539-13.935 17.778 25.448 26.232c1.873 1.965 4.66 2.742 7.31 2.056h-.046z"/>
    <path fill="#F0596E" d="M143.329 202.591h7.904c3.974 0 7.218-3.245 7.218-7.221l-14.94.869-.228 6.352h.046z"/>
    <path fill="#F0596E" d="M146.161 205.379h9.229c3.289 0 5.939-2.651 5.939-5.941v-1.28h-10.965c-2.284 0-4.158 1.874-4.158 4.159v3.062h-.045z"/>
    <path fill="#F0596E" d="M137.389 205.379h11.559v-9.141h-5.071c-3.609 0-6.488 2.925-6.488 6.49v2.651z"/>
    <path fill="#FCD7CF" d="M138.805 210.177c0 1.051.868 1.874 1.873 1.874 1.051 0 1.874-.868 1.874-1.874 0-1.051-.869-1.874-1.874-1.874-1.05 0-1.873.869-1.873 1.874z"/>
    <path fill="#F89920" d="M29.868 507.564c-17.207 7.691-29.644 17.08-28.196 22.613.435 1.623 1.899 2.468 2.927 3.062 39.046 22.649 71.137 24.448 71.137 24.448 11.995.698 17.275-.316 22.032-3.164 2.08-1.226 3.974-2.771 5.716-4.509l-73.593-42.489-.023.039z"/>
    <path fill="#FCD7CF" d="M372.495 140.849l2.056-3.519c.822-1.188 2.147-1.965 3.609-2.148l4.523-.594c.274-.045.457.32.229.503l-4.249 3.519c-.457.366-.64.96-.503 1.508.274 1.234-.091 2.559-.959 3.519l-1.462 1.508-3.198-4.296h-.046z"/>
    <path fill="#F0596E" d="M293.593 170.875l19.052-9.735 1.188-.776 22.523 14.304c.503.228 1.097.091 1.462-.274l34.677-33.499 3.198 4.296-30.61 41.268c-2.239 3.199-6.442 4.341-10.006 2.787l-41.484-18.371z"/>
    <path fill="#F0596E" d="M315.249 164.477l-8.681 70.47h-31.341l-7.767-67.5c-.503-4.25 2.787-7.998 7.081-8.043l35.728-.457c3.015-.046 5.345 2.559 4.98 5.575v-.045z"/>
    <path fill="#FCD7CF" d="M287.928 290.382h-12.655l-18.915 88.293h5.848l25.722-88.293zM336.174 253.913l-1.599 88.293h5.893l8.361-88.293h-12.655z"/>
    <path fill="#F89920" d="M262.252 378.584h-5.894v6.581h4.203l-.822-2.605 8.041 2.605h5.528v-1.28l-11.056-5.301zM340.514 342.206h-5.939v6.627h4.203l-.777-2.605 8.041 2.605h5.528v-1.28l-11.056-5.347z"/>
    <path fill="#F0596E" d="M282.354 294.632l-14.939.777 5.162-83.13 36.733-.274 39.519 41.908c-13.843 23.947-38.834 39.302-66.475 40.719z"/>
    <path fill="#FCD7CF" d="M295.603 143.089l-7.629 1.736-3.93 14.442 7.219 8.18 6.031-8.363-1.691-15.995z"/>
    <path fill="#2D415B" d="M292.679 133.263c.457 2.331 2.696 3.885 5.026 3.428 2.33-.457 3.883-2.697 3.427-5.027-.457-2.331-2.696-3.885-5.026-3.428-2.33.457-3.883 2.696-3.427 5.027z"/>
    <path fill="#FCD7CF" d="M295.375 149.03l-4.98.868c-2.193.366-4.294-1.097-4.705-3.29l-2.559-14.579 16.082-2.833 2.01 11.425c.686 3.93-1.919 7.677-5.848 8.363v.046z"/>
    <path fill="#2D415B" d="M283.314 139.57l8.132-2.285c7.036-2.103 9.366-5.759 8.452-10.74-.32-1.782-2.421-2.879-4.706-2.468l-7.081 1.92c-3.884.731-6.579 3.838-6.031 6.9l1.279 6.673h-.045z"/>
    <path fill="#2D415B" d="M276.78 143.911c1.691 4.296 5.94 6.673 9.458 5.302 3.517-1.371 5.025-5.987 3.335-10.329-1.691-4.296-5.94-6.672-9.457-5.301-3.518 1.371-5.026 5.987-3.336 10.328z"/>
    <path fill="#FCD7CF" d="M290.898 137.696c.548.868.228 2.057-.64 2.559-.868.503-2.056.229-2.558-.64-.503-.868-.229-2.056.639-2.559.868-.503 2.056-.228 2.559.64zM237.444 251.399l-1.965 3.565c-.594 1.325-.594 2.833 0 4.204l1.828 4.205c.137.274.502.228.548-.092l.822-5.438c.092-.548.503-1.051 1.051-1.234 1.234-.411 2.148-1.371 2.513-2.605l.548-2.011-5.345-.548v-.046z"/>
    <path fill="#F0596E" d="M268.877 162.557l-31.022 35.921-.411 52.921 5.345.594 7.904-47.163 30.245-27.1-12.061-15.173z"/>
    <path fill="#2D415B" d="M456.879 160.226l-8.087 68.369 19.6 75.588h-5.848L434.538 229.6c-.228-.686-.411-1.371-.457-2.057l-1.736-49.539-3.335.229-29.88 51.778-9 74.218h-5.848l-.914-74.903c0-1.143.229-2.24.686-3.245l28.828-61.696 43.997-4.113v-.046z"/>
    <path fill="#F0596E" d="M451.625 310.673h5.482l5.483-1.737v-4.798l-5.483 2.65-5.482 1.28v2.605z"/>
    <path fill="#F0596E" d="M464.28 310.673h4.158v-6.535h-5.848v4.798l1.69 1.737zM373.363 310.673h5.482l5.483-1.737v-4.798l-5.483 2.65-5.482 1.28v2.605z"/>
    <path fill="#F0596E" d="M386.018 310.673h4.158v-6.535h-5.848v4.798l1.69 1.737z"/>
    <path fill="#FCD7CF" d="M361.713 128.967l-4.569 1.143c-1.599.411-2.969 1.462-3.746 2.879l-2.467 4.524c-.183.274.182.594.457.457l5.436-3.016c.549-.32 1.28-.274 1.782.091 1.188.823 2.741.96 4.066.412l2.193-.869-3.198-5.575.046-.046z"/>
    <path fill="#F89920" d="M456.879 160.226l1.142-3.107c2.422-6.673 3.792-13.665 3.975-20.794l1.325-52.784c.137-5.393-4.889-9.643-10.737-9.049l-27.092 2.696c-5.437.549-9.412 4.982-8.909 9.963l-3.655 77.143 43.997-4.113-.046.045z"/>
    <path fill="#FCD7CF" d="M427.959 69.054l11.239-1.097c1.233-.137 2.101-1.188 1.964-2.422l-1.553-15.721c-.228-2.468-2.421-4.25-4.889-4.022l-8.497.823c-2.467.228-4.249 2.422-4.021 4.89l1.371 13.984c.228 2.148 2.147 3.748 4.34 3.519l.046.046z"/>
    <path fill="#F0596E" d="M436.183 59.776l4.842-.502c.64-.046 1.097-.64 1.005-1.234l-.959-9.871c-.091-1.052-1.051-1.829-2.102-1.737l-4.066.411 1.28 12.933z"/>
    <path fill="#FCD7CF" d="M434.036 58.223c.091 1.096 1.188 1.919 2.421 1.828 1.234-.138 2.102-1.143 2.01-2.24-.091-1.097-1.188-1.92-2.421-1.828-1.234.137-2.102 1.143-2.01 2.24zM438.01 59.913l-6.533.64-2.421 16.407 5.117 6.627 9.046-8.044-5.209-15.63z"/>
    <path fill="#F0596E" d="M439.792 47.346c.137 1.462-.914 2.742-2.376 2.925-1.462.137-2.741-.914-2.878-2.377-.137-1.462.914-2.742 2.376-2.925 1.462-.137 2.741.914 2.878 2.377zM432.482 45.655c.183 1.965-1.234 3.702-3.198 3.884-1.965.183-3.701-1.233-3.884-3.199-.182-1.965 1.234-3.701 3.198-3.884 1.965-.183 3.701 1.234 3.884 3.199z"/>
    <path fill="#F0596E" d="M431.34 49.357c.137 1.462-.914 2.742-2.376 2.879-1.462.137-2.741-.914-2.924-2.377-.137-1.462.914-2.742 2.376-2.879 1.462-.137 2.741.914 2.924 2.377z"/>
    <path fill="#F0596E" d="M428.096 47.346c.228 2.24-1.416 4.25-3.655 4.479-2.239.228-4.249-1.417-4.477-3.657-.229-2.239 1.416-4.25 3.655-4.478 2.238-.229 4.249 1.416 4.477 3.656zM436.183 45.975c.182 1.645-1.051 3.153-2.696 3.336-1.644.183-3.152-1.051-3.335-2.696-.183-1.646 1.051-3.154 2.696-3.337 1.644-.182 3.152 1.052 3.335 2.697z"/>
    <path fill="#F0596E" d="M434.949 49.357c.137 1.462-.914 2.742-2.376 2.879-1.462.137-2.741-.914-2.878-2.377-.137-1.462.914-2.742 2.376-2.879 1.462-.137 2.741.914 2.924 2.377h-.046z"/>
    <path fill="#F0596E" d="M436.091 57.126l-1.644.183c-.96.091-1.828-.594-1.919-1.554l-.64-6.353 3.381-.32.822 8.09v-.046z"/>
    <path fill="#F89920" d="M364.911 134.543l-3.198-5.576 41.256-16.909 14.619-29.706 17.773 5.485-20.148 30.573c-1.28 2.331-3.518 3.976-6.122 4.433l-44.18 11.7z"/>
    <path fill="#FCD7CF" d="M391.227 138.016l-4.066 2.331c-1.416.822-3.153 1.005-4.706.502l-4.934-1.554c-.32-.091-.32-.548 0-.639l6.031-1.554c.639-.183 1.096-.686 1.233-1.28.32-1.416 1.325-2.605 2.65-3.107l2.193-.869 1.553 6.216.046-.046z"/>
    <path fill="#F89920" d="M391.226 138.016l-1.507-6.261 44.271-12.842 15.762-35.372h13.569l-16.128 46.112-55.967 8.363z"/>
    <path fill="#546BB1" d="M354.311 554.266c0 5.523 4.478 10 10 10h122.773c5.523 0 10-4.477 10-10V320.673c0-5.523-4.477-10-10-10H364.311c-5.522 0-10 4.477-10 10v233.593z"/>
    <path fill="#D3D2DF" d="M211.539 554.266c0 5.523 4.478 10 10 10h122.773c5.523 0 10-4.477 10-10V395.165c0-5.523-4.477-10-10-10H221.539c-5.522 0-10 4.477-10 10v159.101z"/>
    <path fill="#F1EFF4" d="M68.767 554.266c0 5.523 4.477 10 10 10h122.772c5.523 0 10-4.477 10-10v-84.609c0-5.523-4.477-10-10-10H78.767c-5.523 0-10 4.477-10 10v84.609z"/>
</svg>
