<svg xmlns="http://www.w3.org/2000/svg" width="22.231" height="20.027" viewBox="0 0 22.231 20.027">
    <path id="prefix__icons8_telegram_app" d="M22.347 2.985a2.71 2.71 0 0 0-.875.208c-.239.094-1.1.455-2.467 1.029l-5.113 2.147-10.433 4.39a2.665 2.665 0 0 0-.73.389A1.958 1.958 0 0 0 2 12.6a1.927 1.927 0 0 0 .554 1.307 2.489 2.489 0 0 0 .866.532c.867.345 3.457 1.381 4.073 1.628.219.655 1.158 3.461 1.381 4.166a3.3 3.3 0 0 0 .525 1.1 1.514 1.514 0 0 0 .391.356 1.289 1.289 0 0 0 .193.093c.009 0 .019 0 .028.009l-.026-.007c.019.008.037.019.056.026a.755.755 0 0 0 .1.019 1.508 1.508 0 0 0 1.42-.25l.024-.017 2.61-2.208 3.2 2.957a1.871 1.871 0 0 0 1.574.7 2.037 2.037 0 0 0 1.45-.64 2.1 2.1 0 0 0 .608-1.118L24.158 5.52l-.006.026a2.567 2.567 0 0 0 .011-1.255 1.8 1.8 0 0 0-.782-1.042 1.835 1.835 0 0 0-1.034-.264zm-.439 2.434c-.121.607-2.862 14.375-3.031 15.238l-4.616-4.27-3.12 2.638.859-3.379s5.961-6.034 6.321-6.385c.289-.281.35-.38.35-.478a.2.2 0 0 0-.221-.224 1.026 1.026 0 0 0-.428.2c-1.271.793-6.687 3.878-9.35 5.393-.16-.064-2.566-1.03-3.863-1.548l9.94-4.181 5.111-2.147c1.159-.488 1.761-.739 2.048-.858zm-3.064 15.4v.007c.002-.011-.001-.005 0-.011z" transform="translate(-2.004 -2.983)" style="fill:#fff"/>
</svg>
