<svg xmlns="http://www.w3.org/2000/svg" width="24.399" height="19.519" viewBox="0 0 24.399 19.519">
    <path id="prefix__icons8_twitter_squared" d="M26.4 4a16.053 16.053 0 0 1-3.983 1.557c-.033.009-.06.02-.091.028a5.487 5.487 0 0 0-9.345 3.9c0 .16-.013.454 0 .61a12.06 12.06 0 0 1-9.438-4.876A7.427 7.427 0 0 0 3.194 7.7c0 1.709 1.336 3.388 3.416 4.428a5 5 0 0 1-1.244.17 3.277 3.277 0 0 1-2.146-.753v.055c0 2.388 2.535 4.015 4.79 4.467a4.371 4.371 0 0 1-1.83.3c-.317 0-1.44-.145-1.74-.2.627 1.958 2.889 3.058 5.045 3.1-1.685 1.32-2.856 1.81-6.309 1.81H2a14.789 14.789 0 0 0 7.743 2.441c9.064 0 14.216-6.908 14.216-13.42 0-.1 0-.324-.006-.545 0-.022.006-.043.006-.065s-.01-.065-.01-.1c0-.166-.007-.321-.011-.4A10.024 10.024 0 0 0 26.4 6.439a9.846 9.846 0 0 1-2.83.776A7.389 7.389 0 0 0 26.4 4z" transform="translate(-2 -3.999)" style="fill:#fff"/>
</svg>
