<svg xmlns="http://www.w3.org/2000/svg" width="106" height="64" fill="none" viewBox="0 0 106 64">
    <path fill="#F89920" d="M105.576 3.305c-.538-1.303-1.566-2.338-2.861-2.879-.637-.273-1.321-.418-2.013-.426H74.209c-1.405 0-2.753.562-3.746 1.561-.994 1-1.552 2.356-1.552 3.77 0 1.414.558 2.77 1.552 3.77.993.999 2.341 1.56 3.746 1.56h13.723l-29.618 29.8-17.432-17.592c-.493-.5-1.079-.896-1.724-1.167-.646-.27-1.339-.41-2.038-.41-.7 0-1.392.14-2.038.41-.645.27-1.231.667-1.724 1.167L1.568 54.853c-.497.496-.892 1.086-1.16 1.735-.27.65-.408 1.347-.408 2.05 0 .704.138 1.4.407 2.05.27.65.664 1.24 1.16 1.735.493.5 1.079.896 1.725 1.167.645.27 1.338.41 2.037.41.7 0 1.392-.14 2.038-.41.646-.27 1.232-.667 1.724-1.167L37.12 34.17l17.432 17.592c.492.5 1.078.896 1.724 1.166.646.271 1.338.41 2.038.41.7 0 1.392-.139 2.038-.41.645-.27 1.231-.667 1.724-1.166l33.327-33.584v13.806c0 1.414.558 2.77 1.552 3.77s2.341 1.561 3.747 1.561c1.405 0 2.752-.561 3.746-1.561.994-1 1.552-2.356 1.552-3.77V5.332c-.008-.697-.152-1.385-.424-2.026z"/>
</svg>
