<svg xmlns="http://www.w3.org/2000/svg" width="71" height="77" fill="none" viewBox="0 0 71 77">
    <path fill="#F89920" d="M61.658 4.3c-2.477.002-4.852 1.004-6.604 2.785-1.751 1.78-2.736 4.196-2.738 6.715 0 1.357.291 2.645.8 3.819l-7.306 8.356c-2.482-1.742-5.426-2.675-8.442-2.675-2.765 0-5.32.82-7.544 2.15l-8.498-8.637-.086.088c.733-1.513 1.181-3.196 1.181-5.001 0-2.255-.657-4.459-1.89-6.334-1.231-1.874-2.982-3.335-5.03-4.198C13.452.505 11.198.279 9.023.719c-2.174.44-4.172 1.526-5.74 3.12C1.716 5.433.648 7.465.215 9.676c-.432 2.211-.21 4.504.638 6.587.849 2.083 2.286 3.863 4.13 5.116C6.825 22.63 8.992 23.3 11.21 23.3c1.774 0 3.426-.456 4.917-1.2l-.086.087 8.498 8.637c-1.373 2.318-2.105 4.97-2.119 7.676 0 3.789 1.42 7.216 3.68 9.884l-9.629 9.789c-1.08-.44-2.23-.668-3.393-.673-5.15 0-9.342 4.26-9.342 9.5s4.193 9.5 9.342 9.5c5.15 0 9.342-4.26 9.342-9.5 0-1.22-.247-2.379-.661-3.454L32.365 52.76c1.573.57 3.24.939 5.003.939 8.244 0 14.948-6.817 14.948-15.2 0-2.417-.61-4.67-1.6-6.703l7.911-9.056c.957.335 1.966.559 3.03.559 5.154 0 9.343-4.26 9.343-9.5s-4.189-9.5-9.342-9.5zm-24.29 41.8c-4.121 0-7.473-3.409-7.473-7.6s3.352-7.6 7.473-7.6c4.122 0 7.474 3.409 7.474 7.6s-3.352 7.6-7.474 7.6z"/>
</svg>
