<svg xmlns="http://www.w3.org/2000/svg" width="50" height="75" fill="none" viewBox="0 0 50 75">
    <path fill="#F89920" d="M32.143 39.286v-7.143L25 35.714l-7.143-3.571v7.143l-7.143 3.571 7.143 3.572v7.142L25 50l7.143 3.571V46.43l7.143-3.572-7.143-3.571zm0-39.286h-25c-1.895 0-3.711.753-5.05 2.092C.752 3.432 0 5.248 0 7.142v50c0 1.895.753 3.712 2.092 5.052 1.34 1.34 3.156 2.092 5.05 2.092h3.572v-7.143H7.143v-50H28.57v14.286h14.286v35.714h-3.571v7.143h3.571c1.895 0 3.711-.753 5.05-2.092 1.34-1.34 2.093-3.157 2.093-5.051V17.857L32.143 0zm0 39.286v-7.143L25 35.714l-7.143-3.571v7.143l-7.143 3.571 7.143 3.572v7.142L25 50l7.143 3.571V46.43l7.143-3.572-7.143-3.571zM17.857 75L25 71.429 32.143 75V57.143H17.857V75zm14.286-35.714v-7.143L25 35.714l-7.143-3.571v7.143l-7.143 3.571 7.143 3.572v7.142L25 50l7.143 3.571V46.43l7.143-3.572-7.143-3.571z"/>
</svg>
