<svg xmlns="http://www.w3.org/2000/svg" width="69" height="69" fill="none" viewBox="0 0 69 69">
    <path fill="#F89920" d="M34.5 0C15.448 0 0 15.448 0 34.5S15.448 69 34.5 69 69 53.552 69 34.5 53.552 0 34.5 0zm0 54.522c-1.702 0-3.08-1.378-3.08-3.08 0-1.702 1.378-3.08 3.08-3.08 1.702 0 3.08 1.378 3.08 3.08 0 1.702-1.378 3.08-3.08 3.08zm4.844-16.903c-.697.27-1.298.742-1.722 1.358-.425.615-.654 1.344-.658 2.092v1.748c0 .339-.277.616-.616.616h-3.696c-.34 0-.616-.277-.616-.616v-1.656c0-1.779.516-3.534 1.532-4.998.994-1.432 2.38-2.525 4.012-3.15 2.619-1.008 4.313-3.203 4.313-5.598 0-3.396-3.32-6.16-7.393-6.16-4.074 0-7.393 2.764-7.393 6.16V28c0 .34-.277.616-.616.616h-3.696c-.34 0-.616-.277-.616-.616v-.585c0-3.026 1.324-5.852 3.727-7.955 2.31-2.025 5.36-3.134 8.594-3.134 3.234 0 6.284 1.116 8.594 3.134 2.403 2.102 3.727 4.929 3.727 7.955 0 4.451-2.934 8.456-7.477 10.204z"/>
</svg>
