<svg xmlns="http://www.w3.org/2000/svg" width="610" height="514" fill="none" viewBox="0 0 610 514">
    <path fill="#F3F2F7" d="M609.01 513l-97.963-108.207c-6.253-6.906-14.301-11.943-23.249-14.548l-45.428-13.229c-9.041-2.633-16.889-8.318-22.205-16.086l-53.988-78.888c-4.025-5.882-10.271-9.874-17.302-11.059l-102.81-17.32c-5.522-.93-11.191.305-15.825 3.447l-95.959 65.077-67.076 130.169L.988 513H609.01z"/>
    <path fill="#D4D1E2" d="M232.882 255.318l20.472 78.505 79.47 34.722 53.682 31.364 55.944 80.388-106.632-71.358-111.852-27.6-24.29-103.501 33.206-22.52z"/>
    <path fill="#4A5BB3" d="M204.694 151.191h-48.796c0-13.467 10.923-24.384 24.398-24.384 13.474 0 24.398 10.917 24.398 24.384z"/>
    <path fill="#4A5BB3" d="M168.215 151.191h-27.566c0-7.608 6.171-13.776 13.783-13.776 7.613 0 13.783 6.168 13.783 13.776zM219.65 151.191h-34.673c0-9.569 7.762-17.326 17.337-17.326 9.574 0 17.336 7.757 17.336 17.326z"/>
    <path fill="#F89920" d="M504.474 79.452c0 7.06-5.726 12.782-12.789 12.782-7.064 0-12.79-5.723-12.79-12.782s5.726-12.781 12.79-12.781c7.063 0 12.789 5.722 12.789 12.781z"/>
    <path fill="#4A5BB3" d="M540.818 94.68c-3.859 0-7.594.52-11.15 1.477-.768-9.73-8.895-17.39-18.828-17.39-6.973 0-13.049 3.785-16.326 9.401-3.72-1.267-7.706-1.966-11.856-1.966-6.948 0-13.428 1.952-18.968 5.3-3.234-.739-6.593-1.148-10.051-1.148-16.948 0-31.701 9.372-39.369 23.21H576.33c-7.694-11.392-20.726-18.884-35.512-18.884z"/>
    <path fill="#1A304E" d="M318.572 78.676h-30.505l7.897-44.25c1.221-5.545 3.852-8.598 8.604-8.598h5.401c4.751 0 8.603 3.85 8.603 8.599v44.249z"/>
    <path fill="#FCD0CD" d="M261.933 319.395h6.688l32.413-96.486h-17.02l-22.081 96.486zM348.937 209.748l2.142 92.142h6.688l7.888-92.142h-16.718zM310.007 51.669h-5.251c-2.317 0-4.194-1.877-4.194-4.191v-15.34h16.937v12.044c0 4.135-3.354 7.487-7.492 7.487z"/>
    <path fill="#F89920" d="M365.655 209.751s-24.379 8.547-42.108 11.674c-17.729 3.127-42.064 3.127-42.064 3.127l-4.684-65.834-.801-7.16c-.632-5.659-.079-11.387 1.625-16.809l4.421-15.3-5.978-48.152c-.497-3.957 2.233-7.486 6.035-8.129.394-.079.823-.123 1.252-.123h45.902c4.421 0 7.84 3.866 7.298 8.252l-9.252 47.566 38.354 90.888z"/>
    <path fill="#1A304E" d="M318.276 33.465c0 2.31-4.139 4.182-9.246 4.182-5.106 0-9.245-1.873-9.245-4.182 0-2.31 4.139-4.184 9.245-4.184 5.107 0 9.246 1.873 9.246 4.184z"/>
    <path fill="#FCD0CD" d="M303.193 42.64c0 1.311-1.063 2.374-2.375 2.374s-2.375-1.063-2.375-2.374c0-1.31 1.063-2.374 2.375-2.374s2.375 1.063 2.375 2.374z"/>
    <path fill="#F89920" d="M331.959 78.768l-3.289-15.724 18.156-5.05-24.956-16.517.851-7.111 46.58 21.558c4.53 1.485 4.281 7.974-.351 9.107l-36.991 13.737z"/>
    <path fill="#FCD0CD" d="M322.721 34.366l-5.524-1.873c-1.77-.6-3.711-.434-5.353.457l-5.145 2.794c-.333.181-.222.685.156.708l7.061.444c.735.046 1.381.5 1.674 1.175.656 1.514 2.021 2.604 3.643 2.91l2.637.496.851-7.111z"/>
    <path fill="#F89920" d="M227.457 77.02l-4.475 2.432 28.222 32.37c2.518 2.888 7.05 2.752 9.391-.282l25.043-32.462-7.725-13.62-25.909 30.996-24.547-19.435z"/>
    <path fill="#EF3363" d="M357.743 301.89h-6.697v7.471h4.749l-.906-2.947 9.117 2.947h6.262v-1.45l-12.525-6.021zM268.631 319.394h-6.698v7.471h4.749l-.906-2.947 9.117 2.947h6.263v-1.449l-12.525-6.022z"/>
    <path fill="#1A304E" d="M328.729 316.756L214.593 38.19l2.653-1.085L331.382 315.67l-2.653 1.085z"/>
    <path fill="#FCD0CD" d="M222.982 79.452l-.295-.653c-1.453-3.215-1.735-6.837-.8-10.239.34-1.837 1.431-3.449 3.011-4.447l4.949-3.127c.321-.202.706.14.543.482l-3.056 6.377c-.318.663-.237 1.45.21 2.034 1.003 1.31 1.289 3.033.765 4.597l-.852 2.543-4.475 2.433z"/>
    <path fill="#fff" d="M296.379 63.045l-3.233 10.349 13.355-6.28 11.831 6.879-1.799-10.948h-20.154z"/>
    <path fill="#FCD0CD" d="M312.594 43.57l-9.081 2.074-4.738 17.407 3.661 2.025c3.23 1.786 7.201 1.55 10.197-.603l1.978-1.422-2.017-19.482z"/>
    <path fill="#fff" d="M306.599 113.919l-1.72-.029.762-43.716 1.72.03-.762 43.715zM302.518 77.596l-1.719-.035.046-2.292 1.719.035-.046 2.292zm-.185 9.166l-1.72-.035.047-2.291 1.719.034-.046 2.292zm-.185 9.166l-1.72-.035.047-2.291 1.719.034-.046 2.292zm-.186 9.166l-1.719-.034.046-2.292 1.72.035-.047 2.291zm-.16 7.899l-1.719-.034.021-1.025 1.719.035-.021 1.024z"/>
    <path fill="#EF3363" d="M197.007 71.292c-16.602 6.651-33.464 4.803-50.989 1.866-9.649-1.617-19.609 1.543-27.91 6.717-8.337 5.197-15.211 12.301-22.08 19.234-2.566 2.59-13.203 10.747-13.54 14.622l3.547-40.602L60.908 61.24C74.94 44.742 93.1 23.472 116.152 21.707c8.921-.683 17.787 1.389 26.667 2.47 11.051 1.346 20.393-.527 30.544-4.76 20.441-8.525 29.015-18.86 29.015-18.86l21.693 52.767c1.967 4.784-22.239 15.837-24.397 16.825-.889.406-1.777.786-2.667 1.143z"/>
    <path fill="#D4D1E2" d="M134.281 322.187l61.305 69.127-100.334 73.917L89.52 513H.989l66.216-60.644 67.076-130.169z"/>
    <path fill="#D4D1E2" d="M361.279 513l-120.973-53.499-44.72-68.187-108.934 72.771 56.275-15.08 184.525 64.069 33.827-.074z"/>
    <path fill="#EF3363" d="M495.373 322.622l-7.444-3.001 62.853-155.745 7.442 3.001-62.851 155.745z"/>
    <path fill="#EF3363" d="M491.513 332.187l-7.444-3.001 3.86-9.565 7.444 3.001-3.86 9.565zm-7.72 19.13l-7.444-3 3.86-9.565 7.444 3-3.86 9.565zm-7.72 19.131l-7.445-3 3.86-9.566 7.445 3.001-3.86 9.565zm-7.721 19.131l-7.444-3.001 3.861-9.565 7.443 3-3.86 9.566zm-7.72 19.13l-7.444-3 3.861-9.565 7.443 3-3.86 9.565zm-7.721 19.131l-7.443-3 3.86-9.566 7.444 3.001-3.861 9.565zM569.702 210.193l-17.085-40.149-40.171 17.071-3.141-7.382 47.56-20.211 20.222 47.532-7.385 3.139z"/>
    <path fill="#4A5BB3" d="M416.239 370.628l-7.443-3 61.363-152.058 7.443 3-61.363 152.058z"/>
    <path fill="#4A5BB3" d="M412.379 380.193l-7.444-3 3.861-9.565 7.443 3-3.86 9.565zm-7.72 19.131l-7.444-3 3.86-9.566 7.444 3.001-3.86 9.565zm-7.72 19.131l-7.444-3.001 3.86-9.565 7.444 3-3.86 9.566zm-7.72 19.13l-7.445-3 3.861-9.566 7.443 3.001-3.859 9.565zm-7.721 19.131l-7.443-3.001 3.86-9.565 7.443 3-3.86 9.566zm-7.508 18.605l-7.443-3 3.647-9.04 7.444 3-3.648 9.04zM485.337 250.153l-13.336-28.426-29.337 11.225-2.869-7.492 36.305-13.89 16.505 35.177-7.268 3.406z"/>
    <path fill="#F89920" d="M512.619 433.723l-7.444-3.001 47-116.468 7.448 3-47.004 116.469z"/>
    <path fill="#F89920" d="M508.759 443.288l-7.444-3 3.86-9.566 7.444 3.001-3.86 9.565zm-7.72 19.13l-7.444-3 3.86-9.565 7.444 3-3.86 9.565zm-7.72 19.131l-7.444-3 3.859-9.566 7.445 3.001-3.86 9.565zM566.629 350.35l-12.671-29.789-29.805 12.666-3.141-7.382 37.189-15.805 15.818 37.17-7.39 3.14z"/>
    <path fill="#1A304E" d="M203.433 335.843c-6.99 7.727-17.749 12.402-25.284 15.675-5.369 2.332-9.981 3.849-13.154 4.79-6.005-3.37-34.824-20.291-38.028-49.481-1.329-12.109 2.341-20.947 8.865-36.11 16.941-39.365 49.434-76.8 60.477-71.412 2.06 1.005 2.862 3.25 3.373 4.746 20.147 58.955 13.94 102.815 13.94 102.815-2.321 16.4-5.064 23.312-10.189 28.977zM212.153 390.007c-6.274-1.404-12.052-5.758-16.099-8.807-2.883-2.172-5.099-4.186-6.568-5.602-.013-4.246.325-24.847 15.032-35.431 6.101-4.391 11.962-5.105 22.09-6.209 26.29-2.865 56.266 3.201 56.726 10.762.085 1.411-.877 2.522-1.525 3.251-25.551 28.714-50.997 38.703-50.997 38.703-9.514 3.735-14.06 4.362-18.659 3.333z"/>
    <path fill="#1A304E" d="M145.587 398.394l-1.438-.943c9.285-14.13 16.435-29.668 21.252-46.185l1.652.482c-4.866 16.68-12.087 32.374-21.466 46.646z"/>
    <path fill="#4A5BB3" d="M193.026 420.838L84.705 444.996 47.29 277.425l108.322-24.157 37.413 167.57z"/>
    <path fill="#fff" d="M202.323 426.916L94.001 451.072 56.588 283.501l108.323-24.156 37.412 167.571z"/>
    <path fill="#D4D1E2" d="M164.766 334.337l-78.458 17.497-.643-2.88 78.458-17.496.643 2.879zM166.437 341.823L87.98 359.319l-.644-2.879 78.458-17.497.643 2.88zM128.41 357.557l-38.888 8.673-.643-2.88 38.888-8.672.643 2.879z"/>
    <path fill="#4A5BB3" d="M124.109 396.038l-26.607 5.933-3.857-17.275 26.608-5.934 3.856 17.276z"/>
    <path fill="#D4D1E2" d="M173.517 373.534l-43.663 9.737-.643-2.879 43.663-9.738.643 2.88zM175.188 381.019l-43.663 9.738-.643-2.879 43.663-9.738.643 2.879z"/>
    <path fill="#1A304E" d="M130.72 425.645l-26.607 5.934-3.858-17.275 26.607-5.934 3.858 17.275z"/>
    <path fill="#D4D1E2" d="M179.356 399.686l-43.664 9.738-.642-2.88 43.663-9.737.643 2.879zM181.027 407.172l-43.663 9.737-.643-2.878 43.663-9.738.643 2.879zM158.84 419.374l-19.933 4.446-.643-2.88 19.933-4.445.643 2.879z"/>
    <path fill="#EF3363" d="M162.194 322.82l-78.458 17.496-8.356-37.43 78.457-17.496 8.357 37.43z"/>
    <path fill="#F89920" d="M213.913 438.84c5.93 3.404 12.97 4.314 19.571 2.53 6.601-1.784 12.223-6.115 15.629-12.041 3.405-5.927 4.316-12.962 2.531-19.56-1.785-6.597-6.119-12.216-12.049-15.619-5.93-3.403-12.97-4.314-19.57-2.529-6.602 1.783-12.223 6.115-15.629 12.041-3.406 5.926-4.316 12.962-2.531 19.559 1.785 6.598 6.119 12.216 12.048 15.619zm-36.937-8.893c-3.57-13.194-1.749-27.266 5.062-39.118 6.812-11.853 18.055-20.516 31.257-24.083 13.202-3.568 27.281-1.748 39.141 5.059 11.859 6.807 20.527 18.044 24.097 31.238 3.57 13.195 1.748 27.266-5.062 39.119-6.811 11.852-18.055 20.515-31.257 24.083-13.202 3.568-27.282 1.747-39.141-5.06-11.859-6.807-20.528-18.044-24.097-31.238z"/>
    <path fill="#fff" d="M222.143 365.165c10.468-.939 21.055 1.337 30.293 6.64 11.859 6.807 20.527 18.044 24.097 31.238 3.57 13.195 1.748 27.266-5.062 39.119-6.811 11.852-18.055 20.515-31.257 24.083-13.202 3.568-27.282 1.747-39.141-5.06-11.859-6.807-20.528-18.044-24.097-31.238l24.889-6.726c1.785 6.598 6.119 12.216 12.049 15.619 5.929 3.404 12.969 4.314 19.57 2.53 6.601-1.784 12.223-6.115 15.629-12.041 3.405-5.927 4.316-12.962 2.531-19.56-1.785-6.597-6.119-12.216-12.049-15.619-4.619-2.651-9.912-3.789-15.146-3.32l-2.306-25.665z"/>
    <path fill="#EF3363" d="M263.134 379.971c6.361 6.328 11.015 14.264 13.399 23.072 3.57 13.195 1.748 27.266-5.062 39.119-6.811 11.852-18.055 20.515-31.257 24.083-13.202 3.568-27.282 1.747-39.141-5.06-11.859-6.807-20.528-18.044-24.097-31.238l24.889-6.726c1.785 6.598 6.119 12.216 12.048 15.619 5.93 3.404 12.97 4.314 19.571 2.53 6.601-1.784 12.223-6.115 15.629-12.041 3.405-5.927 4.316-12.962 2.531-19.56-1.192-4.404-3.52-8.372-6.7-11.536l18.19-18.262z"/>
    <path fill="#D4D1E2" d="M376.44 312.049h-27.503v-2.688h27.503v2.688zM285.296 329.553h-27.503v-2.688h27.503v2.688z"/>
</svg>
