<svg xmlns="http://www.w3.org/2000/svg" width="304" height="354" fill="none" viewBox="0 0 304 354">
    <g clip-path="url(#prefix__clip0)">
        <path fill="#F89920" d="M0 0H304V362H0z"/>
        <path fill="#fff" d="M135.366 319.144c0-16.608 2.976-29.616 8.928-39.024 6.048-9.408 16.032-14.112 29.952-14.112 13.92 0 23.856 4.704 29.808 14.112 6.048 9.408 9.072 22.416 9.072 39.024 0 16.704-3.024 29.808-9.072 39.312-5.952 9.504-15.888 14.256-29.808 14.256s-23.904-4.752-29.952-14.256c-5.952-9.504-8.928-22.608-8.928-39.312zm57.888 0c0-7.104-.48-13.056-1.44-17.856-.864-4.896-2.688-8.88-5.472-11.952-2.688-3.072-6.72-4.608-12.096-4.608s-9.456 1.536-12.24 4.608c-2.688 3.072-4.512 7.056-5.472 11.952-.864 4.8-1.296 10.752-1.296 17.856 0 7.296.432 13.44 1.296 18.432.864 4.896 2.688 8.88 5.472 11.952 2.784 2.976 6.864 4.464 12.24 4.464s9.456-1.488 12.24-4.464c2.784-3.072 4.608-7.056 5.472-11.952.864-4.992 1.296-11.136 1.296-18.432zm32.758-32.544v-18.576h34.704V373H239.98v-86.4h-13.968z" opacity=".2"/>
        <path fill="#fff" d="M86.651 35.512V61H78.66V35.512h7.992zm17.83 5.04c2.328 0 4.14.78 5.436 2.34 1.32 1.56 1.98 3.672 1.98 6.336V61h-7.956V50.236c0-.96-.264-1.716-.792-2.268-.504-.576-1.188-.864-2.052-.864-.888 0-1.584.288-2.088.864-.504.552-.756 1.308-.756 2.268V61H90.26V40.696h7.992v3.096c.624-.96 1.452-1.74 2.484-2.34 1.056-.6 2.304-.9 3.744-.9zm23.518 13.644V61h-3.024c-5.568 0-8.352-2.772-8.352-8.316v-5.328h-2.52v-6.66h2.52V35.8h7.992v4.896h3.312v6.66h-3.312v5.472c0 .48.108.828.324 1.044.24.216.624.324 1.152.324h1.908zm22.699-3.528c0 .552-.036 1.08-.108 1.584h-12.852c.12 1.752.852 2.628 2.196 2.628.864 0 1.488-.396 1.872-1.188h8.46c-.288 1.44-.9 2.736-1.836 3.888-.912 1.128-2.076 2.028-3.492 2.7-1.392.648-2.928.972-4.608.972-2.016 0-3.816-.42-5.4-1.26-1.56-.84-2.784-2.04-3.672-3.6-.864-1.584-1.296-3.432-1.296-5.544 0-2.112.432-3.948 1.296-5.508.888-1.584 2.112-2.796 3.672-3.636 1.584-.84 3.384-1.26 5.4-1.26 2.016 0 3.804.42 5.364 1.26 1.584.816 2.808 1.992 3.672 3.528.888 1.536 1.332 3.348 1.332 5.436zm-8.1-1.908c0-.672-.216-1.176-.648-1.512-.432-.36-.972-.54-1.62-.54-1.416 0-2.244.684-2.484 2.052h4.752zm17.936-8.316c1.32 0 2.46.276 3.42.828.96.528 1.692 1.26 2.196 2.196v-2.772h7.956V60.64c0 1.896-.348 3.624-1.044 5.184-.696 1.56-1.824 2.808-3.384 3.744-1.536.936-3.516 1.404-5.94 1.404-3.264 0-5.856-.768-7.776-2.304-1.896-1.512-2.976-3.576-3.24-6.192h7.848c.216 1.056 1.08 1.584 2.592 1.584.936 0 1.668-.24 2.196-.72.528-.48.792-1.38.792-2.7v-2.412c-.504.936-1.236 1.68-2.196 2.232-.96.528-2.1.792-3.42.792-1.584 0-3.012-.408-4.284-1.224-1.272-.84-2.28-2.04-3.024-3.6-.72-1.584-1.08-3.444-1.08-5.58s.36-3.984 1.08-5.544c.744-1.584 1.752-2.784 3.024-3.6 1.272-.84 2.7-1.26 4.284-1.26zm5.616 10.404c0-1.08-.276-1.92-.828-2.52-.552-.6-1.26-.9-2.124-.9-.864 0-1.572.3-2.124.9-.552.6-.828 1.44-.828 2.52s.276 1.92.828 2.52c.552.6 1.26.9 2.124.9.864 0 1.572-.3 2.124-.9.552-.6.828-1.44.828-2.52zm19.537-6.408c.816-1.176 1.812-2.112 2.988-2.808 1.176-.72 2.4-1.08 3.672-1.08v8.532h-2.268c-1.512 0-2.628.264-3.348.792-.696.528-1.044 1.464-1.044 2.808V61h-7.992V40.696h7.992v3.744zm7.732 6.408c0-2.136.36-3.984 1.08-5.544.744-1.584 1.752-2.784 3.024-3.6 1.272-.84 2.7-1.26 4.284-1.26 1.32 0 2.46.276 3.42.828.96.528 1.692 1.26 2.196 2.196v-2.772h7.956V61h-7.956v-2.772c-.504.936-1.236 1.68-2.196 2.232-.96.528-2.1.792-3.42.792-1.584 0-3.012-.408-4.284-1.224-1.272-.84-2.28-2.04-3.024-3.6-.72-1.584-1.08-3.444-1.08-5.58zm14.004 0c0-1.08-.276-1.92-.828-2.52-.552-.6-1.26-.9-2.124-.9-.864 0-1.572.3-2.124.9-.552.6-.828 1.44-.828 2.52s.276 1.92.828 2.52c.552.6 1.26.9 2.124.9.864 0 1.572-.3 2.124-.9.552-.6.828-1.44.828-2.52zm24.181 3.348V61h-3.024c-5.568 0-8.352-2.772-8.352-8.316v-5.328h-2.52v-6.66h2.52V35.8h7.992v4.896h3.312v6.66h-3.312v5.472c0 .48.108.828.324 1.044.24.216.624.324 1.152.324h1.908zm22.7-3.528c0 .552-.036 1.08-.108 1.584h-12.852c.12 1.752.852 2.628 2.196 2.628.864 0 1.488-.396 1.872-1.188h8.46c-.288 1.44-.9 2.736-1.836 3.888-.912 1.128-2.076 2.028-3.492 2.7-1.392.648-2.928.972-4.608.972-2.016 0-3.816-.42-5.4-1.26-1.56-.84-2.784-2.04-3.672-3.6-.864-1.584-1.296-3.432-1.296-5.544 0-2.112.432-3.948 1.296-5.508.888-1.584 2.112-2.796 3.672-3.636 1.584-.84 3.384-1.26 5.4-1.26 2.016 0 3.804.42 5.364 1.26 1.584.816 2.808 1.992 3.672 3.528.888 1.536 1.332 3.348 1.332 5.436zm-8.1-1.908c0-.672-.216-1.176-.648-1.512-.432-.36-.972-.54-1.62-.54-1.416 0-2.244.684-2.484 2.052h4.752zm9.547 2.088c0-2.136.36-3.984 1.08-5.544.744-1.584 1.752-2.784 3.024-3.6 1.272-.84 2.7-1.26 4.284-1.26 1.32 0 2.448.276 3.384.828.96.528 1.692 1.26 2.196 2.196V34.36h7.992V61h-7.992v-2.772c-.504.936-1.236 1.68-2.196 2.232-.936.528-2.064.792-3.384.792-1.584 0-3.012-.408-4.284-1.224-1.272-.84-2.28-2.04-3.024-3.6-.72-1.584-1.08-3.444-1.08-5.58zm14.004 0c0-1.08-.276-1.92-.828-2.52-.552-.6-1.26-.9-2.124-.9-.864 0-1.572.3-2.124.9-.552.6-.828 1.44-.828 2.52s.276 1.92.828 2.52c.552.6 1.26.9 2.124.9.864 0 1.572-.3 2.124-.9.552-.6.828-1.44.828-2.52zm-218.5 51.372c0-2.52.505-4.764 1.513-6.732 1.032-1.968 2.496-3.492 4.392-4.572 1.896-1.104 4.128-1.656 6.696-1.656 2.208 0 4.176.42 5.904 1.26 1.752.816 3.168 1.98 4.248 3.492 1.104 1.512 1.836 3.276 2.196 5.292H67.78c-.384-.84-.936-1.488-1.656-1.944-.696-.48-1.5-.72-2.412-.72-1.344 0-2.412.504-3.204 1.512-.768 1.008-1.152 2.364-1.152 4.068 0 1.704.384 3.06 1.152 4.068.792 1.008 1.86 1.512 3.204 1.512.912 0 1.716-.228 2.412-.684.72-.48 1.272-1.14 1.656-1.98h8.424c-.36 2.016-1.092 3.78-2.196 5.292-1.08 1.512-2.496 2.688-4.248 3.528-1.728.816-3.696 1.224-5.904 1.224-2.568 0-4.8-.54-6.696-1.62-1.896-1.104-3.36-2.64-4.392-4.608-1.008-1.968-1.512-4.212-1.512-6.732zm37.474 13.032c-2.04 0-3.876-.42-5.508-1.26-1.632-.84-2.916-2.04-3.852-3.6-.912-1.584-1.368-3.432-1.368-5.544 0-2.112.456-3.948 1.368-5.508.936-1.584 2.22-2.796 3.852-3.636 1.632-.84 3.468-1.26 5.508-1.26s3.876.42 5.508 1.26c1.632.84 2.904 2.052 3.816 3.636.936 1.56 1.404 3.396 1.404 5.508s-.468 3.96-1.404 5.544c-.912 1.56-2.184 2.76-3.816 3.6-1.632.84-3.468 1.26-5.508 1.26zm0-6.912c.744 0 1.368-.288 1.872-.864.504-.6.756-1.476.756-2.628 0-1.152-.252-2.016-.756-2.592-.504-.6-1.128-.9-1.872-.9-.744 0-1.368.3-1.872.9-.504.576-.756 1.44-.756 2.592 0 1.152.24 2.028.72 2.628.504.576 1.14.864 1.908.864zm40.347-13.788c2.592 0 4.596.78 6.012 2.34 1.44 1.56 2.16 3.672 2.16 6.336V115h-7.956v-10.764c0-.864-.264-1.536-.792-2.016-.504-.504-1.188-.756-2.052-.756-.888 0-1.584.252-2.088.756-.504.48-.756 1.152-.756 2.016V115h-7.956v-10.764c0-.864-.264-1.536-.792-2.016-.504-.504-1.188-.756-2.052-.756-.888 0-1.584.252-2.088.756-.504.48-.756 1.152-.756 2.016V115h-7.992V94.696h7.992v2.736c.576-.864 1.356-1.56 2.34-2.088 1.008-.528 2.184-.792 3.528-.792 1.464 0 2.76.324 3.888.972 1.128.624 2.028 1.512 2.7 2.664.744-1.056 1.692-1.92 2.844-2.592 1.152-.696 2.424-1.044 3.816-1.044zm38.742 0c2.592 0 4.596.78 6.012 2.34 1.44 1.56 2.16 3.672 2.16 6.336V115h-7.956v-10.764c0-.864-.264-1.536-.792-2.016-.504-.504-1.188-.756-2.052-.756-.888 0-1.584.252-2.088.756-.504.48-.756 1.152-.756 2.016V115h-7.956v-10.764c0-.864-.264-1.536-.792-2.016-.504-.504-1.188-.756-2.052-.756-.888 0-1.584.252-2.088.756-.504.48-.756 1.152-.756 2.016V115h-7.992V94.696h7.992v2.736c.576-.864 1.356-1.56 2.34-2.088 1.008-.528 2.184-.792 3.528-.792 1.464 0 2.76.324 3.888.972 1.128.624 2.028 1.512 2.7 2.664.744-1.056 1.692-1.92 2.844-2.592 1.152-.696 2.424-1.044 3.816-1.044zm33.126.144V115h-7.992v-3.096c-.624.96-1.464 1.74-2.52 2.34-1.032.6-2.268.9-3.708.9-2.328 0-4.152-.78-5.472-2.34-1.296-1.56-1.944-3.672-1.944-6.336V94.696h7.956v10.764c0 .96.252 1.728.756 2.304.528.552 1.224.828 2.088.828.888 0 1.584-.276 2.088-.828.504-.576.756-1.344.756-2.304V94.696h7.992zm17.83-.144c2.328 0 4.14.78 5.436 2.34 1.32 1.56 1.98 3.672 1.98 6.336V115h-7.956v-10.764c0-.96-.264-1.716-.792-2.268-.504-.576-1.188-.864-2.052-.864-.888 0-1.584.288-2.088.864-.504.552-.756 1.308-.756 2.268V115h-7.992V94.696h7.992v3.096c.624-.96 1.452-1.74 2.484-2.34 1.056-.6 2.304-.9 3.744-.9zm14.913-1.476c-1.392 0-2.508-.372-3.348-1.116-.84-.744-1.26-1.68-1.26-2.808 0-1.152.42-2.1 1.26-2.844.84-.768 1.956-1.152 3.348-1.152 1.368 0 2.472.384 3.312 1.152.84.744 1.26 1.692 1.26 2.844 0 1.128-.42 2.064-1.26 2.808-.84.744-1.944 1.116-3.312 1.116zm3.96 1.62V115h-7.992V94.696h7.992zm16.246 13.5V115h-3.024c-5.568 0-8.352-2.772-8.352-8.316v-5.328h-2.52v-6.66h2.52V89.8h7.992v4.896h3.312v6.66h-3.312v5.472c0 .48.108.828.324 1.044.24.216.624.324 1.152.324h1.908zm25.976-13.5l-12.996 30.024h-8.748l5.112-10.728-8.46-19.296h8.892l3.816 10.296 3.564-10.296h8.82zM72.296 154.872h-4.448L67.112 157H64.76l4.016-11.184h2.608L75.4 157h-2.368l-.736-2.128zm-.608-1.792l-1.616-4.672-1.616 4.672h3.232zm8.45-.512c0-.917.186-1.717.56-2.4.373-.693.89-1.227 1.551-1.6.662-.384 1.419-.576 2.272-.576 1.099 0 2.006.277 2.72.832.726.544 1.211 1.312 1.456 2.304h-2.416c-.128-.384-.346-.683-.656-.896-.298-.224-.672-.336-1.12-.336-.64 0-1.146.235-1.52.704-.373.459-.56 1.115-.56 1.968 0 .843.187 1.499.56 1.968.374.459.88.688 1.52.688.907 0 1.499-.405 1.776-1.216h2.416c-.245.96-.73 1.723-1.456 2.288-.725.565-1.632.848-2.72.848-.853 0-1.61-.187-2.272-.56-.661-.384-1.178-.917-1.552-1.6-.373-.693-.56-1.499-.56-2.416zm14.136 4.576c-.853 0-1.621-.187-2.304-.56-.682-.384-1.221-.923-1.616-1.616-.384-.693-.576-1.493-.576-2.4 0-.907.198-1.707.592-2.4.406-.693.955-1.227 1.648-1.6.694-.384 1.467-.576 2.32-.576.854 0 1.627.192 2.32.576.694.373 1.238.907 1.632 1.6.406.693.608 1.493.608 2.4 0 .907-.208 1.707-.624 2.4-.405.693-.96 1.232-1.664 1.616-.693.373-1.472.56-2.336.56zm0-1.952c.406 0 .784-.096 1.136-.288.363-.203.651-.501.864-.896.214-.395.32-.875.32-1.44 0-.843-.224-1.488-.672-1.936-.437-.459-.976-.688-1.616-.688-.64 0-1.178.229-1.616.688-.426.448-.64 1.093-.64 1.936s.208 1.493.624 1.952c.427.448.96.672 1.6.672zm17.276-7.184c1.088 0 1.962.336 2.624 1.008.672.661 1.008 1.589 1.008 2.784v5.2h-2.24v-4.896c0-.693-.176-1.221-.528-1.584-.352-.373-.832-.56-1.44-.56s-1.094.187-1.456.56c-.352.363-.528.891-.528 1.584V157h-2.24v-4.896c0-.693-.176-1.221-.528-1.584-.352-.373-.832-.56-1.44-.56-.619 0-1.11.187-1.472.56-.352.363-.528.891-.528 1.584V157h-2.24v-8.864h2.24v1.072c.288-.373.656-.667 1.104-.88.458-.213.96-.32 1.504-.32.693 0 1.312.149 1.856.448.544.288.965.704 1.264 1.248.288-.512.704-.923 1.248-1.232.554-.309 1.152-.464 1.792-.464zm7.997 1.408c.288-.405.683-.741 1.184-1.008.512-.277 1.093-.416 1.744-.416.757 0 1.44.187 2.048.56.619.373 1.104.907 1.456 1.6.363.683.544 1.477.544 2.384 0 .907-.181 1.712-.544 2.416-.352.693-.837 1.232-1.456 1.616-.608.384-1.291.576-2.048.576-.651 0-1.227-.133-1.728-.4-.491-.267-.891-.603-1.2-1.008v5.488h-2.24v-13.088h2.24v1.28zm4.688 3.12c0-.533-.112-.992-.336-1.376-.213-.395-.501-.693-.864-.896-.352-.203-.736-.304-1.152-.304-.405 0-.789.107-1.152.32-.352.203-.64.501-.864.896-.213.395-.32.859-.32 1.392 0 .533.107.997.32 1.392.224.395.512.699.864.912.363.203.747.304 1.152.304.416 0 .8-.107 1.152-.32.363-.213.651-.517.864-.912.224-.395.336-.864.336-1.408zm6.156-7.376V157h-2.24v-11.84h2.24zm10.453 7.216c0 .32-.021.608-.064.864h-6.48c.053.64.277 1.141.672 1.504s.88.544 1.456.544c.832 0 1.424-.357 1.776-1.072h2.416c-.256.853-.747 1.557-1.472 2.112-.725.544-1.616.816-2.672.816-.853 0-1.621-.187-2.304-.56-.672-.384-1.2-.923-1.584-1.616-.373-.693-.56-1.493-.56-2.4 0-.917.187-1.723.56-2.416.373-.693.896-1.227 1.568-1.6s1.445-.56 2.32-.56c.843 0 1.595.181 2.256.544.672.363 1.189.88 1.552 1.552.373.661.56 1.424.56 2.288zm-2.32-.64c-.011-.576-.219-1.035-.624-1.376-.405-.352-.901-.528-1.488-.528-.555 0-1.024.171-1.408.512-.373.331-.603.795-.688 1.392h4.208zm6.563-1.76v4.288c0 .299.069.517.208.656.149.128.395.192.736.192h1.04V157h-1.408c-1.888 0-2.832-.917-2.832-2.752v-4.272h-1.056v-1.84h1.056v-2.192h2.256v2.192h1.984v1.84h-1.984zm11.835 2.4c0 .32-.021.608-.064.864h-6.48c.053.64.277 1.141.672 1.504s.88.544 1.456.544c.832 0 1.424-.357 1.776-1.072h2.416c-.256.853-.747 1.557-1.472 2.112-.725.544-1.616.816-2.672.816-.853 0-1.621-.187-2.304-.56-.672-.384-1.2-.923-1.584-1.616-.373-.693-.56-1.493-.56-2.4 0-.917.187-1.723.56-2.416.373-.693.896-1.227 1.568-1.6s1.445-.56 2.32-.56c.843 0 1.595.181 2.256.544.672.363 1.189.88 1.552 1.552.373.661.56 1.424.56 2.288zm-2.32-.64c-.011-.576-.219-1.035-.624-1.376-.405-.352-.901-.528-1.488-.528-.555 0-1.024.171-1.408.512-.373.331-.603.795-.688 1.392h4.208zm16.008.64c0 .32-.022.608-.064.864h-6.48c.053.64.277 1.141.672 1.504.394.363.88.544 1.456.544.832 0 1.424-.357 1.776-1.072h2.416c-.256.853-.747 1.557-1.472 2.112-.726.544-1.616.816-2.672.816-.854 0-1.622-.187-2.304-.56-.672-.384-1.2-.923-1.584-1.616-.374-.693-.56-1.493-.56-2.4 0-.917.186-1.723.56-2.416.373-.693.896-1.227 1.568-1.6s1.445-.56 2.32-.56c.842 0 1.594.181 2.256.544.672.363 1.189.88 1.552 1.552.373.661.56 1.424.56 2.288zm-2.32-.64c-.011-.576-.219-1.035-.624-1.376-.406-.352-.902-.528-1.488-.528-.555 0-1.024.171-1.408.512-.374.331-.603.795-.688 1.392h4.208zm3.379.832c0-.917.186-1.717.56-2.4.373-.693.89-1.227 1.552-1.6.661-.384 1.418-.576 2.272-.576 1.098 0 2.005.277 2.72.832.725.544 1.21 1.312 1.456 2.304h-2.416c-.128-.384-.347-.683-.656-.896-.299-.224-.672-.336-1.12-.336-.64 0-1.147.235-1.52.704-.374.459-.56 1.115-.56 1.968 0 .843.186 1.499.56 1.968.373.459.88.688 1.52.688.906 0 1.498-.405 1.776-1.216h2.416c-.246.96-.731 1.723-1.456 2.288-.726.565-1.632.848-2.72.848-.854 0-1.611-.187-2.272-.56-.662-.384-1.179-.917-1.552-1.6-.374-.693-.56-1.499-.56-2.416zm14.137 4.576c-.854 0-1.622-.187-2.304-.56-.683-.384-1.222-.923-1.616-1.616-.384-.693-.576-1.493-.576-2.4 0-.907.197-1.707.592-2.4.405-.693.954-1.227 1.648-1.6.693-.384 1.466-.576 2.32-.576.853 0 1.626.192 2.32.576.693.373 1.237.907 1.632 1.6.405.693.608 1.493.608 2.4 0 .907-.208 1.707-.624 2.4-.406.693-.96 1.232-1.664 1.616-.694.373-1.472.56-2.336.56zm0-1.952c.405 0 .784-.096 1.136-.288.362-.203.65-.501.864-.896.213-.395.32-.875.32-1.44 0-.843-.224-1.488-.672-1.936-.438-.459-.976-.688-1.616-.688-.64 0-1.179.229-1.616.688-.427.448-.64 1.093-.64 1.936s.208 1.493.624 1.952c.426.448.96.672 1.6.672zm9.659 1.952c-.726 0-1.376-.128-1.952-.384-.576-.267-1.035-.624-1.376-1.072-.331-.448-.512-.944-.544-1.488h2.256c.042.341.208.624.496.848.298.224.666.336 1.104.336.426 0 .757-.085.992-.256.245-.171.368-.389.368-.656 0-.288-.15-.501-.448-.64-.288-.149-.752-.309-1.392-.48-.662-.16-1.206-.325-1.632-.496-.416-.171-.779-.432-1.088-.784-.299-.352-.448-.827-.448-1.424 0-.491.138-.939.416-1.344.288-.405.693-.725 1.216-.96.533-.235 1.157-.352 1.872-.352 1.056 0 1.898.267 2.528.8.629.523.976 1.232 1.04 2.128h-2.144c-.032-.352-.182-.629-.448-.832-.256-.213-.603-.32-1.04-.32-.406 0-.72.075-.944.224-.214.149-.32.357-.32.624 0 .299.149.528.448.688.298.149.762.304 1.392.464.64.16 1.168.325 1.584.496.416.171.773.437 1.072.8.309.352.469.821.48 1.408 0 .512-.144.971-.432 1.376-.278.405-.683.725-1.216.96-.523.224-1.136.336-1.84.336zm13.807-9.008l-5.488 13.056H201.4l1.92-4.416-3.552-8.64h2.512l2.288 6.192 2.32-6.192h2.384zm4.599 9.008c-.725 0-1.376-.128-1.952-.384-.576-.267-1.035-.624-1.376-1.072-.331-.448-.512-.944-.544-1.488h2.256c.043.341.208.624.496.848.299.224.667.336 1.104.336.427 0 .757-.085.992-.256.245-.171.368-.389.368-.656 0-.288-.149-.501-.448-.64-.288-.149-.752-.309-1.392-.48-.661-.16-1.205-.325-1.632-.496-.416-.171-.779-.432-1.088-.784-.299-.352-.448-.827-.448-1.424 0-.491.139-.939.416-1.344.288-.405.693-.725 1.216-.96.533-.235 1.157-.352 1.872-.352 1.056 0 1.899.267 2.528.8.629.523.976 1.232 1.04 2.128h-2.144c-.032-.352-.181-.629-.448-.832-.256-.213-.603-.32-1.04-.32-.405 0-.72.075-.944.224-.213.149-.32.357-.32.624 0 .299.149.528.448.688.299.149.763.304 1.392.464.64.16 1.168.325 1.584.496.416.171.773.437 1.072.8.309.352.469.821.48 1.408 0 .512-.144.971-.432 1.376-.277.405-.683.725-1.216.96-.523.224-1.136.336-1.84.336zm7.935-7.168v4.288c0 .299.069.517.208.656.149.128.394.192.736.192h1.04V157h-1.408c-1.888 0-2.832-.917-2.832-2.752v-4.272h-1.056v-1.84h1.056v-2.192h2.256v2.192h1.984v1.84h-1.984zm11.835 2.4c0 .32-.021.608-.064.864h-6.48c.053.64.277 1.141.672 1.504s.88.544 1.456.544c.832 0 1.424-.357 1.776-1.072h2.416c-.256.853-.747 1.557-1.472 2.112-.725.544-1.616.816-2.672.816-.853 0-1.621-.187-2.304-.56-.672-.384-1.2-.923-1.584-1.616-.373-.693-.56-1.493-.56-2.4 0-.917.187-1.723.56-2.416.373-.693.896-1.227 1.568-1.6s1.445-.56 2.32-.56c.843 0 1.595.181 2.256.544.672.363 1.189.88 1.552 1.552.373.661.56 1.424.56 2.288zm-2.32-.64c-.011-.576-.219-1.035-.624-1.376-.405-.352-.901-.528-1.488-.528-.555 0-1.024.171-1.408.512-.373.331-.603.795-.688 1.392h4.208zm14.963-3.728c1.088 0 1.963.336 2.624 1.008.672.661 1.008 1.589 1.008 2.784v5.2h-2.24v-4.896c0-.693-.176-1.221-.528-1.584-.352-.373-.832-.56-1.44-.56s-1.093.187-1.456.56c-.352.363-.528.891-.528 1.584V157h-2.24v-4.896c0-.693-.176-1.221-.528-1.584-.352-.373-.832-.56-1.44-.56-.619 0-1.109.187-1.472.56-.352.363-.528.891-.528 1.584V157h-2.24v-8.864h2.24v1.072c.288-.373.656-.667 1.104-.88.459-.213.96-.32 1.504-.32.693 0 1.312.149 1.856.448.544.288.965.704 1.264 1.248.288-.512.704-.923 1.248-1.232.555-.309 1.152-.464 1.792-.464zm8.206 6.64l-1.872 4.496h-1.44l1.04-4.496h2.272zm9.491-4.672h-1.552V157h-2.272v-7.024h-1.008v-1.84h1.008v-.448c0-1.088.309-1.888.928-2.4.618-.512 1.552-.752 2.8-.72v1.888c-.544-.011-.923.08-1.136.272-.214.192-.32.539-.32 1.04v.368h1.552v1.84zm5.387 7.168c-.853 0-1.621-.187-2.304-.56-.683-.384-1.221-.923-1.616-1.616-.384-.693-.576-1.493-.576-2.4 0-.907.197-1.707.592-2.4.405-.693.955-1.227 1.648-1.6.693-.384 1.467-.576 2.32-.576.853 0 1.627.192 2.32.576.693.373 1.237.907 1.632 1.6.405.693.608 1.493.608 2.4 0 .907-.208 1.707-.624 2.4-.405.693-.96 1.232-1.664 1.616-.693.373-1.472.56-2.336.56zm0-1.952c.405 0 .784-.096 1.136-.288.363-.203.651-.501.864-.896.213-.395.32-.875.32-1.44 0-.843-.224-1.488-.672-1.936-.437-.459-.976-.688-1.616-.688-.64 0-1.179.229-1.616.688-.427.448-.64 1.093-.64 1.936s.208 1.493.624 1.952c.427.448.96.672 1.6.672zm8.507-5.68c.288-.469.662-.837 1.12-1.104.47-.267 1.003-.4 1.6-.4v2.352h-.592c-.704 0-1.237.165-1.6.496-.352.331-.528.907-.528 1.728V157h-2.24v-8.864h2.24v1.376zM70 169.16V181h-2.24v-11.84H70zm10.453 7.216c0 .32-.021.608-.064.864h-6.48c.054.64.278 1.141.672 1.504.395.363.88.544 1.456.544.832 0 1.424-.357 1.776-1.072h2.416c-.256.853-.746 1.557-1.472 2.112-.725.544-1.616.816-2.672.816-.853 0-1.621-.187-2.304-.56-.672-.384-1.2-.923-1.584-1.616-.373-.693-.56-1.493-.56-2.4 0-.917.187-1.723.56-2.416.374-.693.896-1.227 1.568-1.6s1.446-.56 2.32-.56c.843 0 1.595.181 2.256.544.672.363 1.19.88 1.552 1.552.374.661.56 1.424.56 2.288zm-2.32-.64c-.01-.576-.218-1.035-.624-1.376-.405-.352-.901-.528-1.488-.528-.554 0-1.024.171-1.408.512-.373.331-.602.795-.688 1.392h4.208zm3.38.8c0-.896.175-1.691.527-2.384.363-.693.848-1.227 1.456-1.6.619-.373 1.307-.56 2.064-.56.662 0 1.238.133 1.728.4.502.267.902.603 1.2 1.008v-1.264h2.256V181h-2.256v-1.296c-.288.416-.688.763-1.2 1.04-.501.267-1.082.4-1.744.4-.746 0-1.429-.192-2.048-.576-.608-.384-1.093-.923-1.456-1.616-.352-.704-.528-1.509-.528-2.416zm6.975.032c0-.544-.106-1.008-.32-1.392-.213-.395-.501-.693-.864-.896-.362-.213-.752-.32-1.168-.32-.416 0-.8.101-1.152.304-.352.203-.64.501-.864.896-.213.384-.32.843-.32 1.376 0 .533.107 1.003.32 1.408.224.395.512.699.864.912.363.213.747.32 1.152.32.416 0 .806-.101 1.168-.304.363-.213.651-.512.864-.896.214-.395.32-.864.32-1.408zm6.684-3.056c.288-.469.662-.837 1.12-1.104.47-.267 1.003-.4 1.6-.4v2.352H97.3c-.704 0-1.237.165-1.6.496-.352.331-.528.907-.528 1.728V181h-2.24v-8.864h2.24v1.376zm9.141-1.504c1.056 0 1.909.336 2.56 1.008.651.661.976 1.589.976 2.784v5.2h-2.24v-4.896c0-.704-.176-1.243-.528-1.616-.352-.384-.832-.576-1.44-.576-.619 0-1.109.192-1.472.576-.352.373-.528.912-.528 1.616V181h-2.24v-8.864h2.24v1.104c.299-.384.677-.683 1.136-.896.469-.224.981-.336 1.536-.336zm6.802-.928c-.395 0-.725-.123-.992-.368-.256-.256-.384-.571-.384-.944s.128-.683.384-.928c.267-.256.597-.384.992-.384s.72.128.976.384c.267.245.4.555.4.928s-.133.688-.4.944c-.256.245-.581.368-.976.368zm1.104 1.056V181h-2.24v-8.864h2.24zm7.125-.128c1.056 0 1.909.336 2.56 1.008.651.661.976 1.589.976 2.784v5.2h-2.24v-4.896c0-.704-.176-1.243-.528-1.616-.352-.384-.832-.576-1.44-.576-.619 0-1.109.192-1.472.576-.352.373-.528.912-.528 1.616V181h-2.24v-8.864h2.24v1.104c.299-.384.677-.683 1.136-.896.469-.224.981-.336 1.536-.336zm9.138-.016c.662 0 1.243.133 1.744.4.502.256.896.592 1.184 1.008v-1.264h2.256v8.928c0 .821-.165 1.552-.496 2.192-.33.651-.826 1.163-1.488 1.536-.661.384-1.461.576-2.4.576-1.258 0-2.293-.293-3.104-.88-.8-.587-1.253-1.387-1.36-2.4h2.224c.118.405.368.725.752.96.395.245.87.368 1.424.368.651 0 1.179-.197 1.584-.592.406-.384.608-.971.608-1.76v-1.376c-.288.416-.688.763-1.2 1.04-.501.277-1.077.416-1.728.416-.746 0-1.429-.192-2.048-.576-.618-.384-1.109-.923-1.472-1.616-.352-.704-.528-1.509-.528-2.416 0-.896.176-1.691.528-2.384.363-.693.848-1.227 1.456-1.6.619-.373 1.307-.56 2.064-.56zm2.928 4.576c0-.544-.106-1.008-.32-1.392-.213-.395-.501-.693-.864-.896-.362-.213-.752-.32-1.168-.32-.416 0-.8.101-1.152.304-.352.203-.64.501-.864.896-.213.384-.32.843-.32 1.376 0 .533.107 1.003.32 1.408.224.395.512.699.864.912.363.213.747.32 1.152.32.416 0 .806-.101 1.168-.304.363-.213.651-.512.864-.896.214-.395.32-.864.32-1.408zm7.68-.032c0-.896.176-1.691.528-2.384.363-.693.849-1.227 1.457-1.6.618-.373 1.306-.56 2.064-.56.661 0 1.237.133 1.728.4.501.267.901.603 1.2 1.008v-1.264h2.256V181h-2.256v-1.296c-.288.416-.688.763-1.2 1.04-.502.267-1.083.4-1.744.4-.747 0-1.43-.192-2.048-.576-.608-.384-1.094-.923-1.457-1.616-.352-.704-.528-1.509-.528-2.416zm6.977.032c0-.544-.107-1.008-.32-1.392-.214-.395-.502-.693-.864-.896-.363-.213-.752-.32-1.168-.32-.416 0-.8.101-1.153.304-.351.203-.639.501-.863.896-.214.384-.32.843-.32 1.376 0 .533.106 1.003.32 1.408.224.395.512.699.863.912.363.213.747.32 1.153.32.416 0 .805-.101 1.168-.304.362-.213.65-.512.864-.896.213-.395.32-.864.32-1.408zm9.355-4.56c1.056 0 1.91.336 2.56 1.008.651.661.976 1.589.976 2.784v5.2h-2.24v-4.896c0-.704-.176-1.243-.528-1.616-.352-.384-.832-.576-1.44-.576-.618 0-1.109.192-1.472.576-.352.373-.528.912-.528 1.616V181h-2.24v-8.864h2.24v1.104c.299-.384.678-.683 1.136-.896.47-.224.982-.336 1.536-.336zm5.09 4.528c0-.896.176-1.691.528-2.384.363-.693.854-1.227 1.472-1.6.619-.373 1.307-.56 2.064-.56.576 0 1.126.128 1.648.384.523.245.939.576 1.248.992v-4.208h2.272V181h-2.272v-1.312c-.277.437-.666.789-1.168 1.056-.501.267-1.082.4-1.744.4-.746 0-1.429-.192-2.048-.576-.618-.384-1.109-.923-1.472-1.616-.352-.704-.528-1.509-.528-2.416zm6.976.032c0-.544-.106-1.008-.32-1.392-.213-.395-.501-.693-.864-.896-.362-.213-.752-.32-1.168-.32-.416 0-.8.101-1.152.304-.352.203-.64.501-.864.896-.213.384-.32.843-.32 1.376 0 .533.107 1.003.32 1.408.224.395.512.699.864.912.363.213.747.32 1.152.32.416 0 .806-.101 1.168-.304.363-.213.651-.512.864-.896.214-.395.32-.864.32-1.408zm13.249-4.56c.672 0 1.269.149 1.792.448.522.288.928.72 1.216 1.296.298.565.448 1.248.448 2.048v5.2h-2.24v-4.896c0-.704-.176-1.243-.528-1.616-.352-.384-.832-.576-1.44-.576-.619 0-1.11.192-1.472.576-.352.373-.528.912-.528 1.616V181h-2.24v-11.84h2.24v4.08c.288-.384.672-.683 1.152-.896.48-.224 1.013-.336 1.6-.336zm13.826 4.368c0 .32-.022.608-.064.864h-6.48c.053.64.277 1.141.672 1.504.394.363.88.544 1.456.544.832 0 1.424-.357 1.776-1.072h2.416c-.256.853-.747 1.557-1.472 2.112-.726.544-1.616.816-2.672.816-.854 0-1.622-.187-2.304-.56-.672-.384-1.2-.923-1.584-1.616-.374-.693-.56-1.493-.56-2.4 0-.917.186-1.723.56-2.416.373-.693.896-1.227 1.568-1.6s1.445-.56 2.32-.56c.842 0 1.594.181 2.256.544.672.363 1.189.88 1.552 1.552.373.661.56 1.424.56 2.288zm-2.32-.64c-.011-.576-.219-1.035-.624-1.376-.406-.352-.902-.528-1.488-.528-.555 0-1.024.171-1.408.512-.374.331-.603.795-.688 1.392h4.208zm6.195-6.576V181h-2.24v-11.84h2.24zm4.453 4.256c.288-.405.683-.741 1.184-1.008.512-.277 1.093-.416 1.744-.416.757 0 1.44.187 2.048.56.619.373 1.104.907 1.456 1.6.363.683.544 1.477.544 2.384 0 .907-.181 1.712-.544 2.416-.352.693-.837 1.232-1.456 1.616-.608.384-1.291.576-2.048.576-.651 0-1.227-.133-1.728-.4-.491-.267-.891-.603-1.2-1.008v5.488h-2.24v-13.088h2.24v1.28zm4.688 3.12c0-.533-.112-.992-.336-1.376-.213-.395-.501-.693-.864-.896-.352-.203-.736-.304-1.152-.304-.405 0-.789.107-1.152.32-.352.203-.64.501-.864.896-.213.395-.32.859-.32 1.392 0 .533.107.997.32 1.392.224.395.512.699.864.912.363.203.747.304 1.152.304.416 0 .8-.107 1.152-.32.363-.213.651-.517.864-.912.224-.395.336-.864.336-1.408zm5.052-5.456c-.395 0-.726-.123-.992-.368-.256-.256-.384-.571-.384-.944s.128-.683.384-.928c.266-.256.597-.384.992-.384.394 0 .72.128.976.384.266.245.4.555.4.928s-.134.688-.4.944c-.256.245-.582.368-.976.368zm1.104 1.056V181h-2.24v-8.864h2.24zm7.125-.128c1.056 0 1.909.336 2.56 1.008.65.661.976 1.589.976 2.784v5.2h-2.24v-4.896c0-.704-.176-1.243-.528-1.616-.352-.384-.832-.576-1.44-.576-.619 0-1.11.192-1.472.576-.352.373-.528.912-.528 1.616V181h-2.24v-8.864h2.24v1.104c.298-.384.677-.683 1.136-.896.469-.224.981-.336 1.536-.336zm9.138-.016c.661 0 1.243.133 1.744.4.501.256.896.592 1.184 1.008v-1.264h2.256v8.928c0 .821-.165 1.552-.496 2.192-.331.651-.827 1.163-1.488 1.536-.661.384-1.461.576-2.4.576-1.259 0-2.293-.293-3.104-.88-.8-.587-1.253-1.387-1.36-2.4h2.224c.117.405.368.725.752.96.395.245.869.368 1.424.368.651 0 1.179-.197 1.584-.592.405-.384.608-.971.608-1.76v-1.376c-.288.416-.688.763-1.2 1.04-.501.277-1.077.416-1.728.416-.747 0-1.429-.192-2.048-.576-.619-.384-1.109-.923-1.472-1.616-.352-.704-.528-1.509-.528-2.416 0-.896.176-1.691.528-2.384.363-.693.848-1.227 1.456-1.6.619-.373 1.307-.56 2.064-.56zm2.928 4.576c0-.544-.107-1.008-.32-1.392-.213-.395-.501-.693-.864-.896-.363-.213-.752-.32-1.168-.32-.416 0-.8.101-1.152.304-.352.203-.64.501-.864.896-.213.384-.32.843-.32 1.376 0 .533.107 1.003.32 1.408.224.395.512.699.864.912.363.213.747.32 1.152.32.416 0 .805-.101 1.168-.304.363-.213.651-.512.864-.896.213-.395.32-.864.32-1.408zm16.496-.192c0 .32-.021.608-.064.864h-6.48c.053.64.277 1.141.672 1.504s.88.544 1.456.544c.832 0 1.424-.357 1.776-1.072h2.416c-.256.853-.747 1.557-1.472 2.112-.725.544-1.616.816-2.672.816-.853 0-1.621-.187-2.304-.56-.672-.384-1.2-.923-1.584-1.616-.373-.693-.56-1.493-.56-2.4 0-.917.187-1.723.56-2.416.373-.693.896-1.227 1.568-1.6s1.445-.56 2.32-.56c.843 0 1.595.181 2.256.544.672.363 1.189.88 1.552 1.552.373.661.56 1.424.56 2.288zm-2.32-.64c-.011-.576-.219-1.035-.624-1.376-.405-.352-.901-.528-1.488-.528-.555 0-1.024.171-1.408.512-.373.331-.603.795-.688 1.392h4.208zm3.379.8c0-.896.176-1.691.528-2.384.363-.693.848-1.227 1.456-1.6.619-.373 1.307-.56 2.064-.56.661 0 1.237.133 1.728.4.501.267.901.603 1.2 1.008v-1.264h2.256V181h-2.256v-1.296c-.288.416-.688.763-1.2 1.04-.501.267-1.083.4-1.744.4-.747 0-1.429-.192-2.048-.576-.608-.384-1.093-.923-1.456-1.616-.352-.704-.528-1.509-.528-2.416zm6.976.032c0-.544-.107-1.008-.32-1.392-.213-.395-.501-.693-.864-.896-.363-.213-.752-.32-1.168-.32-.416 0-.8.101-1.152.304-.352.203-.64.501-.864.896-.213.384-.32.843-.32 1.376 0 .533.107 1.003.32 1.408.224.395.512.699.864.912.363.213.747.32 1.152.32.416 0 .805-.101 1.168-.304.363-.213.651-.512.864-.896.213-.395.32-.864.32-1.408zm3.868 0c0-.917.187-1.717.56-2.4.373-.693.891-1.227 1.552-1.6.661-.384 1.419-.576 2.272-.576 1.099 0 2.005.277 2.72.832.725.544 1.211 1.312 1.456 2.304h-2.416c-.128-.384-.347-.683-.656-.896-.299-.224-.672-.336-1.12-.336-.64 0-1.147.235-1.52.704-.373.459-.56 1.115-.56 1.968 0 .843.187 1.499.56 1.968.373.459.88.688 1.52.688.907 0 1.499-.405 1.776-1.216h2.416c-.245.96-.731 1.723-1.456 2.288-.725.565-1.632.848-2.72.848-.853 0-1.611-.187-2.272-.56-.661-.384-1.179-.917-1.552-1.6-.373-.693-.56-1.499-.56-2.416zm15.193-4.56c.672 0 1.269.149 1.792.448.523.288.928.72 1.216 1.296.299.565.448 1.248.448 2.048v5.2h-2.24v-4.896c0-.704-.176-1.243-.528-1.616-.352-.384-.832-.576-1.44-.576-.619 0-1.109.192-1.472.576-.352.373-.528.912-.528 1.616V181h-2.24v-11.84h2.24v4.08c.288-.384.672-.683 1.152-.896.48-.224 1.013-.336 1.6-.336zM82.29 205.144c-.853 0-1.621-.187-2.304-.56-.683-.384-1.221-.923-1.616-1.616-.384-.693-.576-1.493-.576-2.4 0-.907.197-1.707.592-2.4.405-.693.955-1.227 1.648-1.6.693-.384 1.467-.576 2.32-.576.853 0 1.627.192 2.32.576.693.373 1.237.907 1.632 1.6.405.693.608 1.493.608 2.4 0 .907-.208 1.707-.624 2.4-.405.693-.96 1.232-1.664 1.616-.693.373-1.472.56-2.336.56zm0-1.952c.405 0 .784-.096 1.136-.288.363-.203.65-.501.864-.896.213-.395.32-.875.32-1.44 0-.843-.224-1.488-.672-1.936-.437-.459-.976-.688-1.616-.688-.64 0-1.179.229-1.616.688-.427.448-.64 1.093-.64 1.936s.208 1.493.624 1.952c.427.448.96.672 1.6.672zm8.875-5.216v4.288c0 .299.07.517.208.656.15.128.395.192.736.192h1.04V205h-1.408c-1.888 0-2.832-.917-2.832-2.752v-4.272h-1.056v-1.84h1.056v-2.192h2.256v2.192h1.984v1.84h-1.984zm8.587-1.968c.672 0 1.27.149 1.792.448.523.288.928.72 1.216 1.296.299.565.448 1.248.448 2.048v5.2h-2.24v-4.896c0-.704-.176-1.243-.528-1.616-.352-.384-.832-.576-1.44-.576-.618 0-1.11.192-1.472.576-.352.373-.528.912-.528 1.616V205h-2.24v-11.84H97v4.08c.288-.384.672-.683 1.152-.896.48-.224 1.014-.336 1.6-.336zm13.826 4.368c0 .32-.021.608-.064.864h-6.48c.054.64.278 1.141.672 1.504.395.363.88.544 1.456.544.832 0 1.424-.357 1.776-1.072h2.416c-.256.853-.746 1.557-1.472 2.112-.725.544-1.616.816-2.672.816-.853 0-1.621-.187-2.304-.56-.672-.384-1.2-.923-1.584-1.616-.373-.693-.56-1.493-.56-2.4 0-.917.187-1.723.56-2.416.374-.693.896-1.227 1.568-1.6s1.446-.56 2.32-.56c.843 0 1.595.181 2.256.544.672.363 1.19.88 1.552 1.552.374.661.56 1.424.56 2.288zm-2.32-.64c-.01-.576-.218-1.035-.624-1.376-.405-.352-.901-.528-1.488-.528-.554 0-1.024.171-1.408.512-.373.331-.602.795-.688 1.392h4.208zm6.195-2.224c.288-.469.662-.837 1.12-1.104.47-.267 1.003-.4 1.6-.4v2.352h-.592c-.704 0-1.237.165-1.6.496-.352.331-.528.907-.528 1.728V205h-2.24v-8.864h2.24v1.376zm11.514-1.52c.661 0 1.242.133 1.744.4.501.256.896.592 1.184 1.008v-1.264h2.256v8.928c0 .821-.166 1.552-.496 2.192-.331.651-.827 1.163-1.488 1.536-.662.384-1.462.576-2.4.576-1.259 0-2.294-.293-3.104-.88-.8-.587-1.254-1.387-1.36-2.4h2.224c.117.405.368.725.752.96.394.245.869.368 1.424.368.65 0 1.178-.197 1.584-.592.405-.384.608-.971.608-1.76v-1.376c-.288.416-.688.763-1.2 1.04-.502.277-1.078.416-1.728.416-.747 0-1.43-.192-2.048-.576-.619-.384-1.11-.923-1.472-1.616-.352-.704-.528-1.509-.528-2.416 0-.896.176-1.691.528-2.384.362-.693.848-1.227 1.456-1.6.618-.373 1.306-.56 2.064-.56zm2.928 4.576c0-.544-.107-1.008-.32-1.392-.214-.395-.502-.693-.864-.896-.363-.213-.752-.32-1.168-.32-.416 0-.8.101-1.152.304-.352.203-.64.501-.864.896-.214.384-.32.843-.32 1.376 0 .533.106 1.003.32 1.408.224.395.512.699.864.912.362.213.746.32 1.152.32.416 0 .805-.101 1.168-.304.362-.213.65-.512.864-.896.213-.395.32-.864.32-1.408zm6.683-3.056c.288-.469.662-.837 1.12-1.104.47-.267 1.003-.4 1.6-.4v2.352h-.592c-.704 0-1.237.165-1.6.496-.352.331-.528.907-.528 1.728V205h-2.24v-8.864h2.24v1.376zm8.165 7.632c-.853 0-1.621-.187-2.304-.56-.683-.384-1.221-.923-1.616-1.616-.384-.693-.576-1.493-.576-2.4 0-.907.197-1.707.592-2.4.405-.693.955-1.227 1.648-1.6.693-.384 1.467-.576 2.32-.576.853 0 1.627.192 2.32.576.693.373 1.237.907 1.632 1.6.405.693.608 1.493.608 2.4 0 .907-.208 1.707-.624 2.4-.405.693-.96 1.232-1.664 1.616-.693.373-1.472.56-2.336.56zm0-1.952c.405 0 .784-.096 1.136-.288.363-.203.651-.501.864-.896.213-.395.32-.875.32-1.44 0-.843-.224-1.488-.672-1.936-.437-.459-.976-.688-1.616-.688-.64 0-1.179.229-1.616.688-.427.448-.64 1.093-.64 1.936s.208 1.493.624 1.952c.427.448.96.672 1.6.672zm18.555-7.056L162.706 205h-2.416l-1.616-6.192-1.616 6.192h-2.432l-2.608-8.864h2.272l1.568 6.752 1.696-6.752h2.368l1.664 6.736 1.568-6.736h2.144zm7.265 1.376c.288-.469.661-.837 1.12-1.104.469-.267 1.002-.4 1.6-.4v2.352h-.592c-.704 0-1.238.165-1.6.496-.352.331-.528.907-.528 1.728V205h-2.24v-8.864h2.24v1.376zm5.365-2.432c-.395 0-.726-.123-.992-.368-.256-.256-.384-.571-.384-.944s.128-.683.384-.928c.266-.256.597-.384.992-.384.394 0 .72.128.976.384.266.245.4.555.4.928s-.134.688-.4.944c-.256.245-.582.368-.976.368zm1.104 1.056V205h-2.24v-8.864h2.24zm5.685-.144c.661 0 1.242.133 1.744.4.501.256.896.592 1.184 1.008v-1.264h2.256v8.928c0 .821-.166 1.552-.496 2.192-.331.651-.827 1.163-1.488 1.536-.662.384-1.462.576-2.4.576-1.259 0-2.294-.293-3.104-.88-.8-.587-1.254-1.387-1.36-2.4h2.224c.117.405.368.725.752.96.394.245.869.368 1.424.368.65 0 1.178-.197 1.584-.592.405-.384.608-.971.608-1.76v-1.376c-.288.416-.688.763-1.2 1.04-.502.277-1.078.416-1.728.416-.747 0-1.43-.192-2.048-.576-.619-.384-1.11-.923-1.472-1.616-.352-.704-.528-1.509-.528-2.416 0-.896.176-1.691.528-2.384.362-.693.848-1.227 1.456-1.6.618-.373 1.306-.56 2.064-.56zm2.928 4.576c0-.544-.107-1.008-.32-1.392-.214-.395-.502-.693-.864-.896-.363-.213-.752-.32-1.168-.32-.416 0-.8.101-1.152.304-.352.203-.64.501-.864.896-.214.384-.32.843-.32 1.376 0 .533.106 1.003.32 1.408.224.395.512.699.864.912.362.213.746.32 1.152.32.416 0 .805-.101 1.168-.304.362-.213.65-.512.864-.896.213-.395.32-.864.32-1.408zm9.435-4.56c.672 0 1.27.149 1.792.448.523.288.928.72 1.216 1.296.299.565.448 1.248.448 2.048v5.2h-2.24v-4.896c0-.704-.176-1.243-.528-1.616-.352-.384-.832-.576-1.44-.576-.618 0-1.109.192-1.472.576-.352.373-.528.912-.528 1.616V205h-2.24v-11.84h2.24v4.08c.288-.384.672-.683 1.152-.896.48-.224 1.014-.336 1.6-.336zm8.195 1.968v4.288c0 .299.069.517.208.656.149.128.394.192.736.192h1.04V205h-1.408c-1.888 0-2.832-.917-2.832-2.752v-4.272h-1.056v-1.84h1.056v-2.192h2.256v2.192h1.984v1.84h-1.984zm11.471 0h-1.552V205h-2.272v-7.024h-1.008v-1.84h1.008v-.448c0-1.088.309-1.888.928-2.4s1.552-.752 2.8-.72v1.888c-.544-.011-.923.08-1.136.272-.213.192-.32.539-.32 1.04v.368h1.552v1.84zm3.692-.464c.288-.469.661-.837 1.12-1.104.469-.267 1.002-.4 1.6-.4v2.352h-.592c-.704 0-1.238.165-1.6.496-.352.331-.528.907-.528 1.728V205h-2.24v-8.864h2.24v1.376zm8.165 7.632c-.854 0-1.622-.187-2.304-.56-.683-.384-1.222-.923-1.616-1.616-.384-.693-.576-1.493-.576-2.4 0-.907.197-1.707.592-2.4.405-.693.954-1.227 1.648-1.6.693-.384 1.466-.576 2.32-.576.853 0 1.626.192 2.32.576.693.373 1.237.907 1.632 1.6.405.693.608 1.493.608 2.4 0 .907-.208 1.707-.625 2.4-.405.693-.959 1.232-1.663 1.616-.694.373-1.472.56-2.336.56zm0-1.952c.405 0 .784-.096 1.136-.288.362-.203.65-.501.864-.896.213-.395.32-.875.32-1.44 0-.843-.224-1.488-.672-1.936-.438-.459-.976-.688-1.616-.688-.64 0-1.179.229-1.616.688-.427.448-.64 1.093-.64 1.936s.208 1.493.624 1.952c.426.448.96.672 1.6.672zm17.275-7.184c1.088 0 1.962.336 2.624 1.008.672.661 1.008 1.589 1.008 2.784v5.2h-2.24v-4.896c0-.693-.176-1.221-.528-1.584-.352-.373-.832-.56-1.44-.56s-1.094.187-1.456.56c-.352.363-.528.891-.528 1.584V205h-2.24v-4.896c0-.693-.176-1.221-.528-1.584-.352-.373-.832-.56-1.44-.56-.619 0-1.11.187-1.472.56-.352.363-.528.891-.528 1.584V205h-2.24v-8.864h2.24v1.072c.288-.373.656-.667 1.104-.88.458-.213.96-.32 1.504-.32.693 0 1.312.149 1.856.448.544.288.965.704 1.264 1.248.288-.512.704-.923 1.248-1.232.554-.309 1.152-.464 1.792-.464zm12.178 1.968v4.288c0 .299.069.517.208.656.149.128.394.192.736.192h1.04V205h-1.408c-1.888 0-2.832-.917-2.832-2.752v-4.272h-1.056v-1.84h1.056v-2.192h2.256v2.192h1.984v1.84h-1.984zm8.587-1.968c.672 0 1.269.149 1.792.448.523.288.928.72 1.216 1.296.299.565.448 1.248.448 2.048v5.2h-2.24v-4.896c0-.704-.176-1.243-.528-1.616-.352-.384-.832-.576-1.44-.576-.619 0-1.109.192-1.472.576-.352.373-.528.912-.528 1.616V205h-2.24v-11.84h2.24v4.08c.288-.384.672-.683 1.152-.896.48-.224 1.013-.336 1.6-.336zm13.826 4.368c0 .32-.021.608-.064.864h-6.48c.053.64.277 1.141.672 1.504s.88.544 1.456.544c.832 0 1.424-.357 1.776-1.072h2.416c-.256.853-.747 1.557-1.472 2.112-.725.544-1.616.816-2.672.816-.853 0-1.621-.187-2.304-.56-.672-.384-1.2-.923-1.584-1.616-.373-.693-.56-1.493-.56-2.4 0-.917.187-1.723.56-2.416.373-.693.896-1.227 1.568-1.6s1.445-.56 2.32-.56c.843 0 1.595.181 2.256.544.672.363 1.189.88 1.552 1.552.373.661.56 1.424.56 2.288zm-2.32-.64c-.011-.576-.219-1.035-.624-1.376-.405-.352-.901-.528-1.488-.528-.555 0-1.024.171-1.408.512-.373.331-.603.795-.688 1.392h4.208zm-184.07 21.696c.287-.427.682-.773 1.183-1.04.512-.267 1.094-.4 1.744-.4.758 0 1.44.187 2.048.56.619.373 1.104.907 1.456 1.6.363.683.544 1.477.544 2.384 0 .907-.181 1.712-.544 2.416-.352.693-.837 1.232-1.456 1.616-.608.384-1.29.576-2.048.576-.661 0-1.242-.128-1.744-.384-.49-.267-.885-.608-1.184-1.024V229h-2.24v-11.84h2.24v4.272zm4.687 3.104c0-.533-.112-.992-.336-1.376-.213-.395-.501-.693-.864-.896-.352-.203-.736-.304-1.152-.304-.405 0-.789.107-1.152.32-.352.203-.64.501-.864.896-.213.395-.32.859-.32 1.392 0 .533.107.997.32 1.392.224.395.512.699.864.912.363.203.747.304 1.152.304.416 0 .8-.107 1.152-.32.363-.213.651-.517.864-.912.224-.395.336-.864.336-1.408zm12.156-.16c0 .32-.021.608-.064.864h-6.48c.053.64.277 1.141.672 1.504s.88.544 1.456.544c.832 0 1.424-.357 1.776-1.072h2.416c-.256.853-.747 1.557-1.472 2.112-.725.544-1.616.816-2.672.816-.853 0-1.621-.187-2.304-.56-.672-.384-1.2-.923-1.584-1.616-.373-.693-.56-1.493-.56-2.4 0-.917.187-1.723.56-2.416.373-.693.896-1.227 1.568-1.6s1.445-.56 2.32-.56c.843 0 1.595.181 2.256.544.672.363 1.189.88 1.552 1.552.373.661.56 1.424.56 2.288zm-2.32-.64c-.011-.576-.219-1.035-.624-1.376-.405-.352-.901-.528-1.488-.528-.555 0-1.024.171-1.408.512-.373.331-.603.795-.688 1.392h4.208zm7.427-3.744c.661 0 1.243.133 1.744.4.501.256.896.592 1.184 1.008v-1.264h2.256v8.928c0 .821-.165 1.552-.496 2.192-.331.651-.827 1.163-1.488 1.536-.661.384-1.461.576-2.4.576-1.259 0-2.293-.293-3.104-.88-.8-.587-1.253-1.387-1.36-2.4h2.224c.117.405.368.725.752.96.395.245.869.368 1.424.368.651 0 1.179-.197 1.584-.592.405-.384.608-.971.608-1.76v-1.376c-.288.416-.688.763-1.2 1.04-.501.277-1.077.416-1.728.416-.747 0-1.429-.192-2.048-.576-.619-.384-1.109-.923-1.472-1.616-.352-.704-.528-1.509-.528-2.416 0-.896.176-1.691.528-2.384.363-.693.848-1.227 1.456-1.6.619-.373 1.307-.56 2.064-.56zm2.928 4.576c0-.544-.107-1.008-.32-1.392-.213-.395-.501-.693-.864-.896-.363-.213-.752-.32-1.168-.32-.416 0-.8.101-1.152.304-.352.203-.64.501-.864.896-.213.384-.32.843-.32 1.376 0 .533.107 1.003.32 1.408.224.395.512.699.864.912.363.213.747.32 1.152.32.416 0 .805-.101 1.168-.304.363-.213.651-.512.864-.896.213-.395.32-.864.32-1.408zm5.58-5.488c-.395 0-.725-.123-.992-.368-.256-.256-.384-.571-.384-.944s.128-.683.384-.928c.267-.256.597-.384.992-.384s.72.128.976.384c.267.245.4.555.4.928s-.133.688-.4.944c-.256.245-.581.368-.976.368zm1.104 1.056V229h-2.24v-8.864h2.24zm7.125-.128c1.056 0 1.909.336 2.56 1.008.651.661.976 1.589.976 2.784v5.2h-2.24v-4.896c0-.704-.176-1.243-.528-1.616-.352-.384-.832-.576-1.44-.576-.619 0-1.109.192-1.472.576-.352.373-.528.912-.528 1.616V229h-2.24v-8.864h2.24v1.104c.299-.384.677-.683 1.136-.896.469-.224.981-.336 1.536-.336zm10.578 0c1.056 0 1.909.336 2.56 1.008.651.661.976 1.589.976 2.784v5.2h-2.24v-4.896c0-.704-.176-1.243-.528-1.616-.352-.384-.832-.576-1.44-.576-.619 0-1.109.192-1.472.576-.352.373-.528.912-.528 1.616V229h-2.24v-8.864h2.24v1.104c.299-.384.677-.683 1.136-.896.469-.224.981-.336 1.536-.336zm6.802-.928c-.394 0-.725-.123-.992-.368-.256-.256-.384-.571-.384-.944s.128-.683.384-.928c.267-.256.598-.384.992-.384.395 0 .72.128.976.384.267.245.4.555.4.928s-.133.688-.4.944c-.256.245-.581.368-.976.368zm1.104 1.056V229h-2.24v-8.864h2.24zm7.125-.128c1.056 0 1.91.336 2.56 1.008.651.661.976 1.589.976 2.784v5.2h-2.24v-4.896c0-.704-.176-1.243-.528-1.616-.352-.384-.832-.576-1.44-.576-.618 0-1.109.192-1.472.576-.352.373-.528.912-.528 1.616V229h-2.24v-8.864h2.24v1.104c.299-.384.678-.683 1.136-.896.47-.224.982-.336 1.536-.336zm9.139-.016c.661 0 1.242.133 1.744.4.501.256.896.592 1.184 1.008v-1.264h2.256v8.928c0 .821-.166 1.552-.496 2.192-.331.651-.827 1.163-1.488 1.536-.662.384-1.462.576-2.4.576-1.259 0-2.294-.293-3.104-.88-.8-.587-1.254-1.387-1.36-2.4h2.224c.117.405.368.725.752.96.394.245.869.368 1.424.368.65 0 1.178-.197 1.584-.592.405-.384.608-.971.608-1.76v-1.376c-.288.416-.688.763-1.2 1.04-.502.277-1.078.416-1.728.416-.747 0-1.43-.192-2.048-.576-.619-.384-1.11-.923-1.473-1.616-.352-.704-.528-1.509-.528-2.416 0-.896.176-1.691.528-2.384.363-.693.849-1.227 1.457-1.6.618-.373 1.306-.56 2.064-.56zm2.928 4.576c0-.544-.107-1.008-.32-1.392-.214-.395-.502-.693-.864-.896-.363-.213-.752-.32-1.168-.32-.416 0-.8.101-1.152.304-.352.203-.64.501-.864.896-.214.384-.32.843-.32 1.376 0 .533.106 1.003.32 1.408.224.395.512.699.864.912.362.213.746.32 1.152.32.416 0 .805-.101 1.168-.304.362-.213.65-.512.864-.896.213-.395.32-.864.32-1.408zm10.864-2.592v4.288c0 .299.069.517.208.656.149.128.394.192.736.192h1.04V229h-1.408c-1.888 0-2.832-.917-2.832-2.752v-4.272h-1.056v-1.84h1.056v-2.192h2.256v2.192h1.984v1.84h-1.984zm7.531 7.168c-.853 0-1.621-.187-2.304-.56-.683-.384-1.221-.923-1.616-1.616-.384-.693-.576-1.493-.576-2.4 0-.907.197-1.707.592-2.4.405-.693.955-1.227 1.648-1.6.693-.384 1.467-.576 2.32-.576.853 0 1.627.192 2.32.576.693.373 1.237.907 1.632 1.6.405.693.608 1.493.608 2.4 0 .907-.208 1.707-.624 2.4-.405.693-.96 1.232-1.664 1.616-.693.373-1.472.56-2.336.56zm0-1.952c.405 0 .784-.096 1.136-.288.363-.203.651-.501.864-.896.213-.395.32-.875.32-1.44 0-.843-.224-1.488-.672-1.936-.437-.459-.976-.688-1.616-.688-.64 0-1.179.229-1.616.688-.427.448-.64 1.093-.64 1.936s.208 1.493.624 1.952c.427.448.96.672 1.6.672zm12.32-5.76c.288-.427.682-.773 1.184-1.04.512-.267 1.093-.4 1.744-.4.757 0 1.44.187 2.048.56.618.373 1.104.907 1.456 1.6.362.683.544 1.477.544 2.384 0 .907-.182 1.712-.544 2.416-.352.693-.838 1.232-1.456 1.616-.608.384-1.291.576-2.048.576-.662 0-1.243-.128-1.744-.384-.491-.267-.886-.608-1.184-1.024V229h-2.24v-11.84h2.24v4.272zm4.688 3.104c0-.533-.112-.992-.336-1.376-.214-.395-.502-.693-.864-.896-.352-.203-.736-.304-1.152-.304-.406 0-.79.107-1.152.32-.352.203-.64.501-.864.896-.214.395-.32.859-.32 1.392 0 .533.106.997.32 1.392.224.395.512.699.864.912.362.203.746.304 1.152.304.416 0 .8-.107 1.152-.32.362-.213.65-.517.864-.912.224-.395.336-.864.336-1.408zm12.155-.16c0 .32-.021.608-.064.864h-6.48c.054.64.278 1.141.672 1.504.395.363.88.544 1.456.544.832 0 1.424-.357 1.776-1.072h2.416c-.256.853-.746 1.557-1.472 2.112-.725.544-1.616.816-2.672.816-.853 0-1.621-.187-2.304-.56-.672-.384-1.2-.923-1.584-1.616-.373-.693-.56-1.493-.56-2.4 0-.917.187-1.723.56-2.416.374-.693.896-1.227 1.568-1.6s1.446-.56 2.32-.56c.843 0 1.595.181 2.256.544.672.363 1.19.88 1.552 1.552.374.661.56 1.424.56 2.288zm-2.32-.64c-.01-.576-.218-1.035-.624-1.376-.405-.352-.901-.528-1.488-.528-.554 0-1.024.171-1.408.512-.373.331-.602.795-.688 1.392h4.208zm3.379.832c0-.917.187-1.717.56-2.4.374-.693.891-1.227 1.552-1.6.662-.384 1.419-.576 2.272-.576 1.099 0 2.006.277 2.72.832.726.544 1.211 1.312 1.456 2.304h-2.416c-.128-.384-.346-.683-.656-.896-.298-.224-.672-.336-1.12-.336-.64 0-1.146.235-1.52.704-.373.459-.56 1.115-.56 1.968 0 .843.187 1.499.56 1.968.374.459.88.688 1.52.688.907 0 1.499-.405 1.776-1.216h2.416c-.245.96-.73 1.723-1.456 2.288-.725.565-1.632.848-2.72.848-.853 0-1.61-.187-2.272-.56-.661-.384-1.178-.917-1.552-1.6-.373-.693-.56-1.499-.56-2.416zm14.137 4.576c-.853 0-1.621-.187-2.304-.56-.682-.384-1.221-.923-1.616-1.616-.384-.693-.576-1.493-.576-2.4 0-.907.198-1.707.592-2.4.406-.693.955-1.227 1.648-1.6.694-.384 1.467-.576 2.32-.576.854 0 1.627.192 2.32.576.694.373 1.238.907 1.632 1.6.406.693.608 1.493.608 2.4 0 .907-.208 1.707-.624 2.4-.405.693-.96 1.232-1.664 1.616-.693.373-1.472.56-2.336.56zm0-1.952c.406 0 .784-.096 1.136-.288.363-.203.651-.501.864-.896.214-.395.32-.875.32-1.44 0-.843-.224-1.488-.672-1.936-.437-.459-.976-.688-1.616-.688-.64 0-1.178.229-1.616.688-.426.448-.64 1.093-.64 1.936s.208 1.493.624 1.952c.427.448.96.672 1.6.672zm17.275-7.184c1.088 0 1.963.336 2.624 1.008.672.661 1.008 1.589 1.008 2.784v5.2h-2.24v-4.896c0-.693-.176-1.221-.528-1.584-.352-.373-.832-.56-1.44-.56s-1.093.187-1.456.56c-.352.363-.528.891-.528 1.584V229h-2.24v-4.896c0-.693-.176-1.221-.528-1.584-.352-.373-.832-.56-1.44-.56-.618 0-1.109.187-1.472.56-.352.363-.528.891-.528 1.584V229h-2.24v-8.864h2.24v1.072c.288-.373.656-.667 1.104-.88.459-.213.96-.32 1.504-.32.694 0 1.312.149 1.856.448.544.288.966.704 1.264 1.248.288-.512.704-.923 1.248-1.232.555-.309 1.152-.464 1.792-.464zm6.894-.928c-.395 0-.725-.123-.992-.368-.256-.256-.384-.571-.384-.944s.128-.683.384-.928c.267-.256.597-.384.992-.384s.72.128.976.384c.267.245.4.555.4.928s-.133.688-.4.944c-.256.245-.581.368-.976.368zm1.104 1.056V229h-2.24v-8.864h2.24zm7.125-.128c1.056 0 1.909.336 2.56 1.008.651.661.976 1.589.976 2.784v5.2h-2.24v-4.896c0-.704-.176-1.243-.528-1.616-.352-.384-.832-.576-1.44-.576-.619 0-1.109.192-1.472.576-.352.373-.528.912-.528 1.616V229h-2.24v-8.864h2.24v1.104c.299-.384.677-.683 1.136-.896.469-.224.981-.336 1.536-.336zm9.138-.016c.662 0 1.243.133 1.744.4.502.256.896.592 1.184 1.008v-1.264h2.256v8.928c0 .821-.165 1.552-.496 2.192-.33.651-.826 1.163-1.488 1.536-.661.384-1.461.576-2.4.576-1.258 0-2.293-.293-3.104-.88-.8-.587-1.253-1.387-1.36-2.4h2.224c.118.405.368.725.752.96.395.245.87.368 1.424.368.651 0 1.179-.197 1.584-.592.406-.384.608-.971.608-1.76v-1.376c-.288.416-.688.763-1.2 1.04-.501.277-1.077.416-1.728.416-.746 0-1.429-.192-2.048-.576-.618-.384-1.109-.923-1.472-1.616-.352-.704-.528-1.509-.528-2.416 0-.896.176-1.691.528-2.384.363-.693.848-1.227 1.456-1.6.619-.373 1.307-.56 2.064-.56zm2.928 4.576c0-.544-.106-1.008-.32-1.392-.213-.395-.501-.693-.864-.896-.362-.213-.752-.32-1.168-.32-.416 0-.8.101-1.152.304-.352.203-.64.501-.864.896-.213.384-.32.843-.32 1.376 0 .533.107 1.003.32 1.408.224.395.512.699.864.912.363.213.747.32 1.152.32.416 0 .806-.101 1.168-.304.363-.213.651-.512.864-.896.214-.395.32-.864.32-1.408zm-58.55 16.592V253h-2.24v-11.84h2.24zm10.453 7.216c0 .32-.022.608-.064.864h-6.48c.053.64.277 1.141.672 1.504.394.363.88.544 1.456.544.832 0 1.424-.357 1.776-1.072h2.416c-.256.853-.747 1.557-1.472 2.112-.726.544-1.616.816-2.672.816-.854 0-1.622-.187-2.304-.56-.672-.384-1.2-.923-1.584-1.616-.374-.693-.56-1.493-.56-2.4 0-.917.186-1.723.56-2.416.373-.693.896-1.227 1.568-1.6s1.445-.56 2.32-.56c.842 0 1.594.181 2.256.544.672.363 1.189.88 1.552 1.552.373.661.56 1.424.56 2.288zm-2.32-.64c-.011-.576-.219-1.035-.624-1.376-.406-.352-.902-.528-1.488-.528-.555 0-1.024.171-1.408.512-.374.331-.603.795-.688 1.392h4.208zm3.379.8c0-.896.176-1.691.528-2.384.362-.693.848-1.227 1.456-1.6.618-.373 1.306-.56 2.064-.56.661 0 1.237.133 1.728.4.501.267.901.603 1.2 1.008v-1.264h2.256V253h-2.256v-1.296c-.288.416-.688.763-1.2 1.04-.502.267-1.083.4-1.744.4-.747 0-1.43-.192-2.048-.576-.608-.384-1.094-.923-1.456-1.616-.352-.704-.528-1.509-.528-2.416zm6.976.032c0-.544-.107-1.008-.32-1.392-.214-.395-.502-.693-.864-.896-.363-.213-.752-.32-1.168-.32-.416 0-.8.101-1.152.304-.352.203-.64.501-.864.896-.214.384-.32.843-.32 1.376 0 .533.106 1.003.32 1.408.224.395.512.699.864.912.362.213.746.32 1.152.32.416 0 .805-.101 1.168-.304.362-.213.65-.512.864-.896.213-.395.32-.864.32-1.408zm3.867-.032c0-.896.176-1.691.528-2.384.363-.693.854-1.227 1.473-1.6.618-.373 1.306-.56 2.064-.56.576 0 1.125.128 1.648.384.522.245.938.576 1.248.992v-4.208h2.272V253h-2.272v-1.312c-.278.437-.667.789-1.168 1.056-.502.267-1.083.4-1.744.4-.747 0-1.43-.192-2.048-.576-.619-.384-1.11-.923-1.473-1.616-.352-.704-.528-1.509-.528-2.416zm6.977.032c0-.544-.107-1.008-.32-1.392-.214-.395-.502-.693-.864-.896-.363-.213-.752-.32-1.168-.32-.416 0-.8.101-1.152.304-.352.203-.64.501-.864.896-.214.384-.32.843-.32 1.376 0 .533.106 1.003.32 1.408.224.395.512.699.864.912.362.213.746.32 1.152.32.416 0 .805-.101 1.168-.304.362-.213.65-.512.864-.896.213-.395.32-.864.32-1.408zm12.683-.192c0 .32-.021.608-.064.864h-6.48c.054.64.278 1.141.672 1.504.395.363.88.544 1.456.544.832 0 1.424-.357 1.776-1.072h2.416c-.256.853-.746 1.557-1.472 2.112-.725.544-1.616.816-2.672.816-.853 0-1.621-.187-2.304-.56-.672-.384-1.2-.923-1.584-1.616-.373-.693-.56-1.493-.56-2.4 0-.917.187-1.723.56-2.416.374-.693.896-1.227 1.568-1.6s1.446-.56 2.32-.56c.843 0 1.595.181 2.256.544.672.363 1.19.88 1.552 1.552.374.661.56 1.424.56 2.288zm-2.32-.64c-.01-.576-.218-1.035-.624-1.376-.405-.352-.901-.528-1.488-.528-.554 0-1.024.171-1.408.512-.373.331-.602.795-.688 1.392h4.208zm6.195-2.224c.288-.469.662-.837 1.12-1.104.47-.267 1.003-.4 1.6-.4v2.352h-.592c-.704 0-1.237.165-1.6.496-.352.331-.528.907-.528 1.728V253h-2.24v-8.864H265v1.376zm7.621 7.632c-.725 0-1.376-.128-1.952-.384-.576-.267-1.035-.624-1.376-1.072-.331-.448-.512-.944-.544-1.488h2.256c.043.341.208.624.496.848.299.224.667.336 1.104.336.427 0 .757-.085.992-.256.245-.171.368-.389.368-.656 0-.288-.149-.501-.448-.64-.288-.149-.752-.309-1.392-.48-.661-.16-1.205-.325-1.632-.496-.416-.171-.779-.432-1.088-.784-.299-.352-.448-.827-.448-1.424 0-.491.139-.939.416-1.344.288-.405.693-.725 1.216-.96.533-.235 1.157-.352 1.872-.352 1.056 0 1.899.267 2.528.8.629.523.976 1.232 1.04 2.128h-2.144c-.032-.352-.181-.629-.448-.832-.256-.213-.603-.32-1.04-.32-.405 0-.72.075-.944.224-.213.149-.32.357-.32.624 0 .299.149.528.448.688.299.149.763.304 1.392.464.64.16 1.168.325 1.584.496.416.171.773.437 1.072.8.309.352.469.821.48 1.408 0 .512-.144.971-.432 1.376-.277.405-.683.725-1.216.96-.523.224-1.136.336-1.84.336zm6.319-.032c-.406 0-.742-.123-1.008-.368-.256-.256-.384-.571-.384-.944s.128-.683.384-.928c.266-.256.602-.384 1.008-.384.394 0 .72.128.976.384.256.245.384.555.384.928s-.128.688-.384.944c-.256.245-.582.368-.976.368z"/>
    </g>
    <defs>
        <clipPath id="prefix__clip0">
            <path fill="#fff" d="M0 0H304V354H0z"/>
        </clipPath>
    </defs>
</svg>
