<svg xmlns="http://www.w3.org/2000/svg" width="304" height="354" fill="none" viewBox="0 0 304 354">
    <g clip-path="url(#prefix__clip0)">
        <path fill="#DB4437" d="M0 0H304V362H0z"/>
        <path fill="#fff" d="M104.851 319.144c0-16.608 2.976-29.616 8.928-39.024 6.048-9.408 16.032-14.112 29.952-14.112 13.92 0 23.856 4.704 29.808 14.112 6.048 9.408 9.072 22.416 9.072 39.024 0 16.704-3.024 29.808-9.072 39.312-5.952 9.504-15.888 14.256-29.808 14.256s-23.904-4.752-29.952-14.256c-5.952-9.504-8.928-22.608-8.928-39.312zm57.888 0c0-7.104-.48-13.056-1.44-17.856-.864-4.896-2.688-8.88-5.472-11.952-2.688-3.072-6.72-4.608-12.096-4.608s-9.456 1.536-12.24 4.608c-2.688 3.072-4.512 7.056-5.472 11.952-.864 4.8-1.296 10.752-1.296 17.856 0 7.296.432 13.44 1.296 18.432.864 4.896 2.688 8.88 5.472 11.952 2.784 2.976 6.864 4.464 12.24 4.464s9.456-1.488 12.24-4.464c2.784-3.072 4.608-7.056 5.472-11.952.864-4.992 1.296-11.136 1.296-18.432zm41.542 31.104c9.216-7.68 16.56-14.064 22.031-19.152 5.473-5.184 10.033-10.56 13.681-16.128 3.648-5.568 5.472-11.04 5.472-16.416 0-4.896-1.152-8.736-3.456-11.52-2.304-2.784-5.856-4.176-10.656-4.176-4.8 0-8.496 1.632-11.088 4.896-2.592 3.168-3.936 7.536-4.032 13.104h-19.584c.384-11.52 3.792-20.256 10.224-26.208 6.528-5.952 14.784-8.928 24.768-8.928 10.944 0 19.344 2.928 25.2 8.784 5.856 5.76 8.784 13.392 8.784 22.896 0 7.488-2.016 14.64-6.048 21.456-4.032 6.816-8.64 12.768-13.824 17.856-5.184 4.992-11.952 11.04-20.304 18.144h42.48v16.704h-71.136v-14.976l7.488-6.336z" opacity=".2"/>
        <path fill="#fff" d="M214.868 53.932c1.536.36 2.724 1.104 3.564 2.232.864 1.104 1.296 2.388 1.296 3.852 0 2.232-.744 3.96-2.232 5.184-1.464 1.2-3.576 1.8-6.336 1.8h-13.356V41.512H210.8c2.592 0 4.632.564 6.12 1.692 1.488 1.128 2.232 2.772 2.232 4.932 0 1.488-.396 2.748-1.188 3.78-.768 1.008-1.8 1.68-3.096 2.016zm-9.072-2.484h3.096c.72 0 1.248-.144 1.584-.432.36-.288.54-.732.54-1.332 0-.624-.18-1.08-.54-1.368-.336-.312-.864-.468-1.584-.468h-3.096v3.6zm3.636 9.144c.72 0 1.248-.132 1.584-.396.36-.288.54-.744.54-1.368 0-1.224-.708-1.836-2.124-1.836h-3.636v3.6h3.636zm32.637-3.924c0 .552-.036 1.08-.108 1.584h-12.852c.12 1.752.852 2.628 2.196 2.628.864 0 1.488-.396 1.872-1.188h8.46c-.288 1.44-.9 2.736-1.836 3.888-.912 1.128-2.076 2.028-3.492 2.7-1.392.648-2.928.972-4.608.972-2.016 0-3.816-.42-5.4-1.26-1.56-.84-2.784-2.04-3.672-3.6-.864-1.584-1.296-3.432-1.296-5.544 0-2.112.432-3.948 1.296-5.508.888-1.584 2.112-2.796 3.672-3.636 1.584-.84 3.384-1.26 5.4-1.26 2.016 0 3.804.42 5.364 1.26 1.584.816 2.808 1.992 3.672 3.528.888 1.536 1.332 3.348 1.332 5.436zm-8.1-1.908c0-.672-.216-1.176-.648-1.512-.432-.36-.972-.54-1.62-.54-1.416 0-2.244.684-2.484 2.052h4.752zm15.665 2.088c0-2.136.36-3.984 1.08-5.544.744-1.584 1.752-2.784 3.024-3.6 1.272-.84 2.7-1.26 4.284-1.26 1.32 0 2.46.276 3.42.828.96.528 1.692 1.26 2.196 2.196v-2.772h7.956V67h-7.956v-2.772c-.504.936-1.236 1.68-2.196 2.232-.96.528-2.1.792-3.42.792-1.584 0-3.012-.408-4.284-1.224-1.272-.84-2.28-2.04-3.024-3.6-.72-1.584-1.08-3.444-1.08-5.58zm14.004 0c0-1.08-.276-1.92-.828-2.52-.552-.6-1.26-.9-2.124-.9-.864 0-1.572.3-2.124.9-.552.6-.828 1.44-.828 2.52s.276 1.92.828 2.52c.552.6 1.26.9 2.124.9.864 0 1.572-.3 2.124-.9.552-.6.828-1.44.828-2.52zm-108.783 46.104h7.704V109h-15.696V83.512h7.992v19.44zm29.874-4.284c0 .552-.036 1.08-.108 1.584h-12.852c.12 1.752.852 2.628 2.196 2.628.864 0 1.488-.396 1.872-1.188h8.46c-.288 1.44-.9 2.736-1.836 3.888-.912 1.128-2.076 2.028-3.492 2.7-1.392.648-2.928.972-4.608.972-2.016 0-3.816-.42-5.4-1.26-1.56-.84-2.784-2.04-3.672-3.6-.864-1.584-1.296-3.432-1.296-5.544 0-2.112.432-3.948 1.296-5.508.888-1.584 2.112-2.796 3.672-3.636 1.584-.84 3.384-1.26 5.4-1.26 2.016 0 3.804.42 5.364 1.26 1.584.816 2.808 1.992 3.672 3.528.888 1.536 1.332 3.348 1.332 5.436zm-8.1-1.908c0-.672-.216-1.176-.648-1.512-.432-.36-.972-.54-1.62-.54-1.416 0-2.244.684-2.484 2.052h4.752zm9.548 2.088c0-2.136.36-3.984 1.08-5.544.744-1.584 1.752-2.784 3.024-3.6 1.272-.84 2.7-1.26 4.284-1.26 1.32 0 2.46.276 3.42.828.96.528 1.692 1.26 2.196 2.196v-2.772h7.956V109h-7.956v-2.772c-.504.936-1.236 1.68-2.196 2.232-.96.528-2.1.792-3.42.792-1.584 0-3.012-.408-4.284-1.224-1.272-.84-2.28-2.04-3.024-3.6-.72-1.584-1.08-3.444-1.08-5.58zm14.004 0c0-1.08-.276-1.92-.828-2.52-.552-.6-1.26-.9-2.124-.9-.864 0-1.572.3-2.124.9-.552.6-.828 1.44-.828 2.52s.276 1.92.828 2.52c.552.6 1.26.9 2.124.9.864 0 1.572-.3 2.124-.9.552-.6.828-1.44.828-2.52zm10.465 0c0-2.136.36-3.984 1.08-5.544.744-1.584 1.752-2.784 3.024-3.6 1.272-.84 2.7-1.26 4.284-1.26 1.32 0 2.448.276 3.384.828.96.528 1.692 1.26 2.196 2.196V82.36h7.992V109h-7.992v-2.772c-.504.936-1.236 1.68-2.196 2.232-.936.528-2.064.792-3.384.792-1.584 0-3.012-.408-4.284-1.224-1.272-.84-2.28-2.04-3.024-3.6-.72-1.584-1.08-3.444-1.08-5.58zm14.004 0c0-1.08-.276-1.92-.828-2.52-.552-.6-1.26-.9-2.124-.9-.864 0-1.572.3-2.124.9-.552.6-.828 1.44-.828 2.52s.276 1.92.828 2.52c.552.6 1.26.9 2.124.9.864 0 1.572-.3 2.124-.9.552-.6.828-1.44.828-2.52zm31.201-.18c0 .552-.036 1.08-.108 1.584h-12.852c.12 1.752.852 2.628 2.196 2.628.864 0 1.488-.396 1.872-1.188h8.46c-.288 1.44-.9 2.736-1.836 3.888-.912 1.128-2.076 2.028-3.492 2.7-1.392.648-2.928.972-4.608.972-2.016 0-3.816-.42-5.4-1.26-1.56-.84-2.784-2.04-3.672-3.6-.864-1.584-1.296-3.432-1.296-5.544 0-2.112.432-3.948 1.296-5.508.888-1.584 2.112-2.796 3.672-3.636 1.584-.84 3.384-1.26 5.4-1.26 2.016 0 3.804.42 5.364 1.26 1.584.816 2.808 1.992 3.672 3.528.888 1.536 1.332 3.348 1.332 5.436zm-8.1-1.908c0-.672-.216-1.176-.648-1.512-.432-.36-.972-.54-1.62-.54-1.416 0-2.244.684-2.484 2.052h4.752zm18.619-4.32c.816-1.176 1.812-2.112 2.988-2.808 1.176-.72 2.4-1.08 3.672-1.08v8.532h-2.268c-1.512 0-2.628.264-3.348.792-.696.528-1.044 1.464-1.044 2.808V109h-7.992V88.696h7.992v3.744zM41.798 141.832v1.808h-2.976V153h-2.24v-9.36h-2.976v-1.808h8.192zm1.058 6.704c0-.896.176-1.691.528-2.384.363-.693.848-1.227 1.456-1.6.619-.373 1.307-.56 2.064-.56.661 0 1.237.133 1.728.4.502.267.901.603 1.2 1.008v-1.264h2.256V153h-2.256v-1.296c-.288.416-.688.763-1.2 1.04-.501.267-1.082.4-1.744.4-.746 0-1.43-.192-2.048-.576-.608-.384-1.093-.923-1.456-1.616-.352-.704-.528-1.509-.528-2.416zm6.976.032c0-.544-.107-1.008-.32-1.392-.213-.395-.501-.693-.864-.896-.363-.213-.752-.32-1.168-.32-.416 0-.8.101-1.152.304-.352.203-.64.501-.864.896-.213.384-.32.843-.32 1.376 0 .533.107 1.003.32 1.408.224.395.512.699.864.912.363.213.747.32 1.152.32.416 0 .806-.101 1.168-.304.363-.213.65-.512.864-.896.213-.395.32-.864.32-1.408zM59.524 153l-3.008-3.776V153h-2.24v-11.84h2.24v6.736l2.976-3.76h2.912l-3.904 4.448L62.436 153h-2.912zm12.336-4.624c0 .32-.022.608-.064.864h-6.48c.053.64.277 1.141.672 1.504.394.363.88.544 1.456.544.832 0 1.424-.357 1.776-1.072h2.416c-.256.853-.747 1.557-1.472 2.112-.726.544-1.616.816-2.672.816-.854 0-1.622-.187-2.304-.56-.672-.384-1.2-.923-1.584-1.616-.374-.693-.56-1.493-.56-2.4 0-.917.186-1.723.56-2.416.373-.693.896-1.227 1.568-1.6s1.445-.56 2.32-.56c.842 0 1.594.181 2.256.544.672.363 1.189.88 1.552 1.552.373.661.56 1.424.56 2.288zm-2.32-.64c-.011-.576-.219-1.035-.624-1.376-.406-.352-.902-.528-1.488-.528-.555 0-1.024.171-1.408.512-.374.331-.603.795-.688 1.392h4.208zm16.247-3.6L80.3 157.192h-2.384l1.92-4.416-3.552-8.64h2.512l2.288 6.192 2.32-6.192h2.384zm5.144 9.008c-.854 0-1.622-.187-2.304-.56-.683-.384-1.222-.923-1.616-1.616-.384-.693-.576-1.493-.576-2.4 0-.907.197-1.707.592-2.4.405-.693.954-1.227 1.648-1.6.693-.384 1.466-.576 2.32-.576.853 0 1.626.192 2.32.576.693.373 1.237.907 1.632 1.6.405.693.608 1.493.608 2.4 0 .907-.208 1.707-.624 2.4-.406.693-.96 1.232-1.664 1.616-.694.373-1.472.56-2.336.56zm0-1.952c.405 0 .784-.096 1.136-.288.362-.203.65-.501.864-.896.213-.395.32-.875.32-1.44 0-.843-.224-1.488-.672-1.936-.438-.459-.976-.688-1.616-.688-.64 0-1.179.229-1.616.688-.427.448-.64 1.093-.64 1.936s.208 1.493.624 1.952c.426.448.96.672 1.6.672zm14.635-7.056V153h-2.256v-1.12c-.288.384-.667.688-1.136.912-.459.213-.96.32-1.504.32-.694 0-1.307-.144-1.84-.432-.534-.299-.955-.731-1.264-1.296-.299-.576-.448-1.259-.448-2.048v-5.2h2.24v4.88c0 .704.176 1.248.528 1.632.352.373.832.56 1.44.56.618 0 1.104-.187 1.456-.56.352-.384.528-.928.528-1.632v-4.88h2.256zm4.45 1.376c.288-.469.661-.837 1.12-1.104.469-.267 1.003-.4 1.6-.4v2.352h-.592c-.704 0-1.237.165-1.6.496-.352.331-.528.907-.528 1.728V153h-2.24v-8.864h2.24v1.376zm10.281-4.352V153h-2.24v-11.84h2.24zm10.453 7.216c0 .32-.021.608-.064.864h-6.48c.054.64.278 1.141.672 1.504.395.363.88.544 1.456.544.832 0 1.424-.357 1.776-1.072h2.416c-.256.853-.746 1.557-1.472 2.112-.725.544-1.616.816-2.672.816-.853 0-1.621-.187-2.304-.56-.672-.384-1.2-.923-1.584-1.616-.373-.693-.56-1.493-.56-2.4 0-.917.187-1.723.56-2.416.374-.693.896-1.227 1.568-1.6s1.446-.56 2.32-.56c.843 0 1.595.181 2.256.544.672.363 1.19.88 1.552 1.552.374.661.56 1.424.56 2.288zm-2.32-.64c-.01-.576-.218-1.035-.624-1.376-.405-.352-.901-.528-1.488-.528-.554 0-1.024.171-1.408.512-.373.331-.602.795-.688 1.392h4.208zm3.379.8c0-.896.176-1.691.528-2.384.363-.693.848-1.227 1.456-1.6.619-.373 1.307-.56 2.064-.56.662 0 1.238.133 1.728.4.502.267.902.603 1.2 1.008v-1.264h2.256V153h-2.256v-1.296c-.288.416-.688.763-1.2 1.04-.501.267-1.082.4-1.744.4-.746 0-1.429-.192-2.048-.576-.608-.384-1.093-.923-1.456-1.616-.352-.704-.528-1.509-.528-2.416zm6.976.032c0-.544-.106-1.008-.32-1.392-.213-.395-.501-.693-.864-.896-.362-.213-.752-.32-1.168-.32-.416 0-.8.101-1.152.304-.352.203-.64.501-.864.896-.213.384-.32.843-.32 1.376 0 .533.107 1.003.32 1.408.224.395.512.699.864.912.363.213.747.32 1.152.32.416 0 .806-.101 1.168-.304.363-.213.651-.512.864-.896.214-.395.32-.864.32-1.408zm3.868-.032c0-.896.176-1.691.528-2.384.363-.693.853-1.227 1.472-1.6s1.307-.56 2.064-.56c.576 0 1.125.128 1.648.384.523.245.939.576 1.248.992v-4.208h2.272V153h-2.272v-1.312c-.277.437-.667.789-1.168 1.056-.501.267-1.083.4-1.744.4-.747 0-1.429-.192-2.048-.576-.619-.384-1.109-.923-1.472-1.616-.352-.704-.528-1.509-.528-2.416zm6.976.032c0-.544-.107-1.008-.32-1.392-.213-.395-.501-.693-.864-.896-.363-.213-.752-.32-1.168-.32-.416 0-.8.101-1.152.304-.352.203-.64.501-.864.896-.213.384-.32.843-.32 1.376 0 .533.107 1.003.32 1.408.224.395.512.699.864.912.363.213.747.32 1.152.32.416 0 .805-.101 1.168-.304.363-.213.651-.512.864-.896.213-.395.32-.864.32-1.408zm12.684-.192c0 .32-.022.608-.064.864h-6.48c.053.64.277 1.141.672 1.504.394.363.88.544 1.456.544.832 0 1.424-.357 1.776-1.072h2.416c-.256.853-.747 1.557-1.472 2.112-.726.544-1.616.816-2.672.816-.854 0-1.622-.187-2.304-.56-.672-.384-1.2-.923-1.584-1.616-.374-.693-.56-1.493-.56-2.4 0-.917.186-1.723.56-2.416.373-.693.896-1.227 1.568-1.6s1.445-.56 2.32-.56c.842 0 1.594.181 2.256.544.672.363 1.189.88 1.552 1.552.373.661.56 1.424.56 2.288zm-2.32-.64c-.011-.576-.219-1.035-.624-1.376-.406-.352-.902-.528-1.488-.528-.555 0-1.024.171-1.408.512-.374.331-.603.795-.688 1.392h4.208zm6.195-2.224c.288-.469.661-.837 1.12-1.104.469-.267 1.002-.4 1.6-.4v2.352h-.592c-.704 0-1.238.165-1.6.496-.352.331-.528.907-.528 1.728V153h-2.24v-8.864h2.24v1.376zm7.621 7.632c-.726 0-1.376-.128-1.952-.384-.576-.267-1.035-.624-1.376-1.072-.331-.448-.512-.944-.544-1.488h2.256c.042.341.208.624.496.848.298.224.666.336 1.104.336.426 0 .757-.085.992-.256.245-.171.368-.389.368-.656 0-.288-.15-.501-.448-.64-.288-.149-.752-.309-1.393-.48-.661-.16-1.205-.325-1.631-.496-.416-.171-.779-.432-1.088-.784-.299-.352-.448-.827-.448-1.424 0-.491.138-.939.416-1.344.288-.405.693-.725 1.216-.96.533-.235 1.157-.352 1.872-.352 1.056 0 1.898.267 2.528.8.629.523.976 1.232 1.04 2.128h-2.144c-.032-.352-.182-.629-.448-.832-.256-.213-.603-.32-1.04-.32-.406 0-.72.075-.944.224-.214.149-.32.357-.32.624 0 .299.149.528.448.688.298.149.762.304 1.392.464.64.16 1.168.325 1.584.496.416.171.773.437 1.072.8.309.352.469.821.48 1.408 0 .512-.144.971-.432 1.376-.278.405-.683.725-1.216.96-.523.224-1.136.336-1.84.336zm10.318-9.136c.672 0 1.27.149 1.792.448.523.288.928.72 1.216 1.296.299.565.448 1.248.448 2.048v5.2h-2.24v-4.896c0-.704-.176-1.243-.528-1.616-.352-.384-.832-.576-1.44-.576-.618 0-1.109.192-1.472.576-.352.373-.528.912-.528 1.616V153h-2.24v-11.84h2.24v4.08c.288-.384.672-.683 1.152-.896.48-.224 1.014-.336 1.6-.336zm6.722-.928c-.394 0-.725-.123-.992-.368-.256-.256-.384-.571-.384-.944s.128-.683.384-.928c.267-.256.598-.384.992-.384.395 0 .72.128.976.384.267.245.4.555.4.928s-.133.688-.4.944c-.256.245-.581.368-.976.368zm1.104 1.056V153h-2.24v-8.864h2.24zm4.454 1.28c.288-.405.682-.741 1.184-1.008.512-.277 1.093-.416 1.744-.416.757 0 1.44.187 2.048.56.618.373 1.104.907 1.456 1.6.362.683.544 1.477.544 2.384 0 .907-.182 1.712-.544 2.416-.352.693-.838 1.232-1.456 1.616-.608.384-1.291.576-2.048.576-.651 0-1.227-.133-1.728-.4-.491-.267-.891-.603-1.2-1.008v5.488h-2.24v-13.088h2.24v1.28zm4.688 3.12c0-.533-.112-.992-.336-1.376-.214-.395-.502-.693-.864-.896-.352-.203-.736-.304-1.152-.304-.406 0-.79.107-1.152.32-.352.203-.64.501-.864.896-.214.395-.32.859-.32 1.392 0 .533.106.997.32 1.392.224.395.512.699.864.912.362.203.746.304 1.152.304.416 0 .8-.107 1.152-.32.362-.213.65-.517.864-.912.224-.395.336-.864.336-1.408zm11.2-4.544c.661 0 1.242.133 1.744.4.501.256.896.592 1.184 1.008v-1.264h2.256v8.928c0 .821-.166 1.552-.496 2.192-.331.651-.827 1.163-1.488 1.536-.662.384-1.462.576-2.4.576-1.259 0-2.294-.293-3.104-.88-.8-.587-1.254-1.387-1.36-2.4h2.224c.117.405.368.725.752.96.394.245.869.368 1.424.368.65 0 1.178-.197 1.584-.592.405-.384.608-.971.608-1.76v-1.376c-.288.416-.688.763-1.2 1.04-.502.277-1.078.416-1.728.416-.747 0-1.43-.192-2.048-.576-.619-.384-1.11-.923-1.472-1.616-.352-.704-.528-1.509-.528-2.416 0-.896.176-1.691.528-2.384.362-.693.848-1.227 1.456-1.6.618-.373 1.306-.56 2.064-.56zm2.928 4.576c0-.544-.107-1.008-.32-1.392-.214-.395-.502-.693-.864-.896-.363-.213-.752-.32-1.168-.32-.416 0-.8.101-1.152.304-.352.203-.64.501-.864.896-.214.384-.32.843-.32 1.376 0 .533.106 1.003.32 1.408.224.395.512.699.864.912.362.213.746.32 1.152.32.416 0 .805-.101 1.168-.304.362-.213.65-.512.864-.896.213-.395.32-.864.32-1.408zm8.38 4.576c-.854 0-1.622-.187-2.304-.56-.683-.384-1.222-.923-1.616-1.616-.384-.693-.576-1.493-.576-2.4 0-.907.197-1.707.592-2.4.405-.693.954-1.227 1.648-1.6.693-.384 1.466-.576 2.32-.576.853 0 1.626.192 2.32.576.693.373 1.237.907 1.632 1.6.405.693.608 1.493.608 2.4 0 .907-.208 1.707-.625 2.4-.405.693-.959 1.232-1.663 1.616-.694.373-1.472.56-2.336.56zm0-1.952c.405 0 .784-.096 1.136-.288.362-.203.65-.501.864-.896.213-.395.32-.875.32-1.44 0-.843-.224-1.488-.672-1.936-.438-.459-.976-.688-1.616-.688-.64 0-1.179.229-1.616.688-.427.448-.64 1.093-.64 1.936s.208 1.493.624 1.952c.426.448.96.672 1.6.672zm5.691-2.656c0-.896.176-1.691.528-2.384.362-.693.848-1.227 1.456-1.6.618-.373 1.306-.56 2.064-.56.661 0 1.237.133 1.728.4.501.267.901.603 1.2 1.008v-1.264h2.256V153h-2.256v-1.296c-.288.416-.688.763-1.2 1.04-.502.267-1.083.4-1.744.4-.747 0-1.43-.192-2.048-.576-.608-.384-1.094-.923-1.456-1.616-.352-.704-.528-1.509-.528-2.416zm6.976.032c0-.544-.107-1.008-.32-1.392-.214-.395-.502-.693-.864-.896-.363-.213-.752-.32-1.168-.32-.416 0-.8.101-1.152.304-.352.203-.64.501-.864.896-.214.384-.32.843-.32 1.376 0 .533.106 1.003.32 1.408.224.395.512.699.864.912.362.213.746.32 1.152.32.416 0 .805-.101 1.168-.304.362-.213.65-.512.864-.896.213-.395.32-.864.32-1.408zm6.683-7.408V153h-2.24v-11.84h2.24zm5.606 11.984c-.726 0-1.376-.128-1.952-.384-.576-.267-1.035-.624-1.376-1.072-.331-.448-.512-.944-.544-1.488h2.256c.042.341.208.624.496.848.298.224.666.336 1.104.336.426 0 .757-.085.992-.256.245-.171.368-.389.368-.656 0-.288-.15-.501-.448-.64-.288-.149-.752-.309-1.393-.48-.661-.16-1.205-.325-1.631-.496-.416-.171-.779-.432-1.088-.784-.299-.352-.448-.827-.448-1.424 0-.491.138-.939.416-1.344.288-.405.693-.725 1.216-.96.533-.235 1.157-.352 1.872-.352 1.056 0 1.898.267 2.528.8.629.523.976 1.232 1.04 2.128h-2.144c-.032-.352-.182-.629-.448-.832-.256-.213-.603-.32-1.04-.32-.406 0-.72.075-.944.224-.214.149-.32.357-.32.624 0 .299.149.528.448.688.298.149.762.304 1.392.464.64.16 1.168.325 1.584.496.416.171.773.437 1.072.8.309.352.469.821.48 1.408 0 .512-.144.971-.432 1.376-.278.405-.683.725-1.216.96-.523.224-1.136.336-1.84.336zm11.747-7.168v4.288c0 .299.069.517.208.656.149.128.394.192.736.192h1.04V153h-1.408c-1.888 0-2.832-.917-2.832-2.752v-4.272h-1.056v-1.84h1.056v-2.192h2.256v2.192h1.984v1.84h-1.984zm7.531 7.168c-.853 0-1.621-.187-2.304-.56-.683-.384-1.221-.923-1.616-1.616-.384-.693-.576-1.493-.576-2.4 0-.907.197-1.707.592-2.4.405-.693.955-1.227 1.648-1.6.693-.384 1.467-.576 2.32-.576.853 0 1.627.192 2.32.576.693.373 1.237.907 1.632 1.6.405.693.608 1.493.608 2.4 0 .907-.208 1.707-.624 2.4-.405.693-.96 1.232-1.664 1.616-.693.373-1.472.56-2.336.56zm0-1.952c.405 0 .784-.096 1.136-.288.363-.203.651-.501.864-.896.213-.395.32-.875.32-1.44 0-.843-.224-1.488-.672-1.936-.437-.459-.976-.688-1.616-.688-.64 0-1.179.229-1.616.688-.427.448-.64 1.093-.64 1.936s.208 1.493.624 1.952c.427.448.96.672 1.6.672zM39.712 169.976v4.288c0 .299.07.517.208.656.15.128.395.192.736.192h1.04V177h-1.408c-1.888 0-2.832-.917-2.832-2.752v-4.272H36.4v-1.84h1.056v-2.192h2.256v2.192h1.984v1.84h-1.984zm8.587-1.968c.672 0 1.27.149 1.792.448.523.288.928.72 1.216 1.296.299.565.448 1.248.448 2.048v5.2h-2.24v-4.896c0-.704-.176-1.243-.528-1.616-.352-.384-.832-.576-1.44-.576-.618 0-1.11.192-1.472.576-.352.373-.528.912-.528 1.616V177h-2.24v-11.84h2.24v4.08c.288-.384.672-.683 1.152-.896.48-.224 1.014-.336 1.6-.336zm13.826 4.368c0 .32-.021.608-.064.864h-6.48c.054.64.278 1.141.672 1.504.395.363.88.544 1.456.544.832 0 1.424-.357 1.776-1.072h2.416c-.256.853-.746 1.557-1.472 2.112-.725.544-1.616.816-2.672.816-.853 0-1.621-.187-2.304-.56-.672-.384-1.2-.923-1.584-1.616-.373-.693-.56-1.493-.56-2.4 0-.917.187-1.723.56-2.416.374-.693.896-1.227 1.568-1.6s1.446-.56 2.32-.56c.843 0 1.595.181 2.256.544.672.363 1.19.88 1.552 1.552.374.661.56 1.424.56 2.288zm-2.32-.64c-.01-.576-.218-1.035-.624-1.376-.405-.352-.901-.528-1.488-.528-.554 0-1.024.171-1.408.512-.373.331-.602.795-.688 1.392h4.208zm12.68-3.728c1.056 0 1.91.336 2.56 1.008.65.661.976 1.589.976 2.784v5.2h-2.24v-4.896c0-.704-.176-1.243-.528-1.616-.352-.384-.832-.576-1.44-.576-.619 0-1.11.192-1.472.576-.352.373-.528.912-.528 1.616V177h-2.24v-8.864h2.24v1.104c.298-.384.677-.683 1.136-.896.47-.224.981-.336 1.536-.336zm13.906 4.368c0 .32-.022.608-.064.864h-6.48c.053.64.277 1.141.672 1.504.394.363.88.544 1.456.544.832 0 1.424-.357 1.776-1.072h2.416c-.256.853-.747 1.557-1.472 2.112-.725.544-1.616.816-2.672.816-.853 0-1.621-.187-2.304-.56-.672-.384-1.2-.923-1.584-1.616-.374-.693-.56-1.493-.56-2.4 0-.917.186-1.723.56-2.416.373-.693.896-1.227 1.568-1.6s1.445-.56 2.32-.56c.843 0 1.595.181 2.256.544.672.363 1.19.88 1.552 1.552.373.661.56 1.424.56 2.288zm-2.32-.64c-.01-.576-.219-1.035-.624-1.376-.406-.352-.901-.528-1.488-.528-.555 0-1.024.171-1.408.512-.374.331-.603.795-.688 1.392h4.208zM92.92 177l-1.823-2.752L89.482 177h-2.4l2.896-4.448-2.928-4.416h2.528l1.808 2.736 1.632-2.736h2.4l-2.912 4.416L95.45 177h-2.528zm6.353-7.024v4.288c0 .299.07.517.209.656.149.128.394.192.736.192h1.04V177H99.85c-1.887 0-2.831-.917-2.831-2.752v-4.272h-1.056v-1.84h1.056v-2.192h2.255v2.192h1.985v1.84h-1.984zm9.648-4.816V177h-2.24v-11.84h2.24zm10.453 7.216c0 .32-.021.608-.064.864h-6.48c.054.64.278 1.141.672 1.504.395.363.88.544 1.456.544.832 0 1.424-.357 1.776-1.072h2.416c-.256.853-.746 1.557-1.472 2.112-.725.544-1.616.816-2.672.816-.853 0-1.621-.187-2.304-.56-.672-.384-1.2-.923-1.584-1.616-.373-.693-.56-1.493-.56-2.4 0-.917.187-1.723.56-2.416.374-.693.896-1.227 1.568-1.6s1.446-.56 2.32-.56c.843 0 1.595.181 2.256.544.672.363 1.19.88 1.552 1.552.374.661.56 1.424.56 2.288zm-2.32-.64c-.01-.576-.218-1.035-.624-1.376-.405-.352-.901-.528-1.488-.528-.554 0-1.024.171-1.408.512-.373.331-.602.795-.688 1.392h4.208zm7.651 3.2l2.24-6.8h2.384L126.05 177h-2.72l-3.264-8.864h2.4l2.24 6.8zm14.122-2.56c0 .32-.021.608-.064.864h-6.48c.054.64.278 1.141.672 1.504.395.363.88.544 1.456.544.832 0 1.424-.357 1.776-1.072h2.416c-.256.853-.746 1.557-1.472 2.112-.725.544-1.616.816-2.672.816-.853 0-1.621-.187-2.304-.56-.672-.384-1.2-.923-1.584-1.616-.373-.693-.56-1.493-.56-2.4 0-.917.187-1.723.56-2.416.374-.693.896-1.227 1.568-1.6s1.446-.56 2.32-.56c.843 0 1.595.181 2.256.544.672.363 1.19.88 1.552 1.552.374.661.56 1.424.56 2.288zm-2.32-.64c-.01-.576-.218-1.035-.624-1.376-.405-.352-.901-.528-1.488-.528-.554 0-1.024.171-1.408.512-.373.331-.602.795-.688 1.392h4.208zm6.195-6.576V177h-2.24v-11.84h2.24zm8.266 4.272c.288-.427.683-.773 1.184-1.04.512-.267 1.093-.4 1.744-.4.757 0 1.44.187 2.048.56.619.373 1.104.907 1.456 1.6.363.683.544 1.477.544 2.384 0 .907-.181 1.712-.544 2.416-.352.693-.837 1.232-1.456 1.616-.608.384-1.291.576-2.048.576-.661 0-1.243-.128-1.744-.384-.491-.267-.885-.608-1.184-1.024V177h-2.24v-11.84h2.24v4.272zm4.688 3.104c0-.533-.112-.992-.336-1.376-.213-.395-.501-.693-.864-.896-.352-.203-.736-.304-1.152-.304-.405 0-.789.107-1.152.32-.352.203-.64.501-.864.896-.213.395-.32.859-.32 1.392 0 .533.107.997.32 1.392.224.395.512.699.864.912.363.203.747.304 1.152.304.416 0 .8-.107 1.152-.32.363-.213.651-.517.864-.912.224-.395.336-.864.336-1.408zm12.396-4.4l-5.488 13.056h-2.384l1.92-4.416-3.552-8.64h2.512l2.288 6.192 2.32-6.192h2.384zm4.444 4.432c0-.917.186-1.717.56-2.4.373-.693.89-1.227 1.552-1.6.661-.384 1.418-.576 2.272-.576 1.098 0 2.005.277 2.72.832.725.544 1.21 1.312 1.456 2.304h-2.416c-.128-.384-.347-.683-.656-.896-.299-.224-.672-.336-1.12-.336-.64 0-1.147.235-1.52.704-.374.459-.56 1.115-.56 1.968 0 .843.186 1.499.56 1.968.373.459.88.688 1.52.688.906 0 1.498-.405 1.776-1.216h2.416c-.246.96-.731 1.723-1.456 2.288-.726.565-1.632.848-2.72.848-.854 0-1.611-.187-2.272-.56-.662-.384-1.179-.917-1.552-1.6-.374-.693-.56-1.499-.56-2.416zm14.137 4.576c-.854 0-1.622-.187-2.304-.56-.683-.384-1.222-.923-1.616-1.616-.384-.693-.576-1.493-.576-2.4 0-.907.197-1.707.592-2.4.405-.693.954-1.227 1.648-1.6.693-.384 1.466-.576 2.32-.576.853 0 1.626.192 2.32.576.693.373 1.237.907 1.632 1.6.405.693.608 1.493.608 2.4 0 .907-.208 1.707-.624 2.4-.406.693-.96 1.232-1.664 1.616-.694.373-1.472.56-2.336.56zm0-1.952c.405 0 .784-.096 1.136-.288.362-.203.65-.501.864-.896.213-.395.32-.875.32-1.44 0-.843-.224-1.488-.672-1.936-.438-.459-.976-.688-1.616-.688-.64 0-1.179.229-1.616.688-.427.448-.64 1.093-.64 1.936s.208 1.493.624 1.952c.426.448.96.672 1.6.672zm11.179-7.184c1.056 0 1.909.336 2.56 1.008.651.661.976 1.589.976 2.784v5.2h-2.24v-4.896c0-.704-.176-1.243-.528-1.616-.352-.384-.832-.576-1.44-.576-.619 0-1.109.192-1.472.576-.352.373-.528.912-.528 1.616V177h-2.24v-8.864h2.24v1.104c.299-.384.677-.683 1.136-.896.469-.224.981-.336 1.536-.336zm8.274 1.968v4.288c0 .299.069.517.208.656.149.128.395.192.736.192h1.04V177h-1.408c-1.888 0-2.832-.917-2.832-2.752v-4.272h-1.056v-1.84h1.056v-2.192h2.256v2.192h1.984v1.84h-1.984zm5.835-.464c.288-.469.661-.837 1.12-1.104.469-.267 1.003-.4 1.6-.4v2.352h-.592c-.704 0-1.237.165-1.6.496-.352.331-.528.907-.528 1.728V177h-2.24v-8.864h2.24v1.376zm5.365-2.432c-.395 0-.725-.123-.992-.368-.256-.256-.384-.571-.384-.944s.128-.683.384-.928c.267-.256.597-.384.992-.384s.72.128.976.384c.267.245.4.555.4.928s-.133.688-.4.944c-.256.245-.581.368-.976.368zm1.104 1.056V177h-2.24v-8.864h2.24zm4.453 1.296c.288-.427.683-.773 1.184-1.04.512-.267 1.093-.4 1.744-.4.757 0 1.44.187 2.048.56.619.373 1.104.907 1.456 1.6.363.683.544 1.477.544 2.384 0 .907-.181 1.712-.544 2.416-.352.693-.837 1.232-1.456 1.616-.608.384-1.291.576-2.048.576-.661 0-1.243-.128-1.744-.384-.491-.267-.885-.608-1.184-1.024V177h-2.24v-11.84h2.24v4.272zm4.688 3.104c0-.533-.112-.992-.336-1.376-.213-.395-.501-.693-.864-.896-.352-.203-.736-.304-1.152-.304-.405 0-.789.107-1.152.32-.352.203-.64.501-.864.896-.213.395-.32.859-.32 1.392 0 .533.107.997.32 1.392.224.395.512.699.864.912.363.203.747.304 1.152.304.416 0 .8-.107 1.152-.32.363-.213.651-.517.864-.912.224-.395.336-.864.336-1.408zm12.284-4.4V177h-2.256v-1.12c-.288.384-.667.688-1.136.912-.459.213-.96.32-1.504.32-.694 0-1.307-.144-1.84-.432-.534-.299-.955-.731-1.264-1.296-.299-.576-.448-1.259-.448-2.048v-5.2h2.24v4.88c0 .704.176 1.248.528 1.632.352.373.832.56 1.44.56.618 0 1.104-.187 1.456-.56.352-.384.528-.928.528-1.632v-4.88h2.256zm4.818 1.84v4.288c0 .299.069.517.208.656.149.128.395.192.736.192h1.04V177h-1.408c-1.888 0-2.832-.917-2.832-2.752v-4.272h-1.056v-1.84h1.056v-2.192h2.256v2.192h1.984v1.84h-1.984zm4.731-2.896c-.395 0-.725-.123-.992-.368-.256-.256-.384-.571-.384-.944s.128-.683.384-.928c.267-.256.597-.384.992-.384s.72.128.976.384c.267.245.4.555.4.928s-.133.688-.4.944c-.256.245-.581.368-.976.368zm1.104 1.056V177h-2.24v-8.864h2.24zm7.125-.128c1.056 0 1.909.336 2.56 1.008.651.661.976 1.589.976 2.784v5.2h-2.24v-4.896c0-.704-.176-1.243-.528-1.616-.352-.384-.832-.576-1.44-.576-.619 0-1.109.192-1.472.576-.352.373-.528.912-.528 1.616V177h-2.24v-8.864h2.24v1.104c.299-.384.677-.683 1.136-.896.469-.224.981-.336 1.536-.336zm9.138-.016c.662 0 1.243.133 1.744.4.502.256.896.592 1.184 1.008v-1.264h2.256v8.928c0 .821-.165 1.552-.496 2.192-.33.651-.826 1.163-1.488 1.536-.661.384-1.461.576-2.4.576-1.258 0-2.293-.293-3.104-.88-.8-.587-1.253-1.387-1.36-2.4h2.224c.118.405.368.725.752.96.395.245.87.368 1.424.368.651 0 1.179-.197 1.584-.592.406-.384.608-.971.608-1.76v-1.376c-.288.416-.688.763-1.2 1.04-.501.277-1.077.416-1.728.416-.746 0-1.429-.192-2.048-.576-.618-.384-1.109-.923-1.472-1.616-.352-.704-.528-1.509-.528-2.416 0-.896.176-1.691.528-2.384.363-.693.848-1.227 1.456-1.6.619-.373 1.307-.56 2.064-.56zm2.928 4.576c0-.544-.106-1.008-.32-1.392-.213-.395-.501-.693-.864-.896-.362-.213-.752-.32-1.168-.32-.416 0-.8.101-1.152.304-.352.203-.64.501-.864.896-.213.384-.32.843-.32 1.376 0 .533.107 1.003.32 1.408.224.395.512.699.864.912.363.213.747.32 1.152.32.416 0 .806-.101 1.168-.304.363-.213.651-.512.864-.896.214-.395.32-.864.32-1.408zM72.884 193.976v4.288c0 .299.07.517.208.656.15.128.395.192.736.192h1.04V201H73.46c-1.888 0-2.832-.917-2.832-2.752v-4.272h-1.056v-1.84h1.056v-2.192h2.256v2.192h1.984v1.84h-1.984zm7.531 7.168c-.853 0-1.621-.187-2.304-.56-.683-.384-1.221-.923-1.616-1.616-.384-.693-.576-1.493-.576-2.4 0-.907.197-1.707.592-2.4.405-.693.955-1.227 1.648-1.6.693-.384 1.467-.576 2.32-.576.853 0 1.627.192 2.32.576.693.373 1.237.907 1.632 1.6.405.693.608 1.493.608 2.4 0 .907-.208 1.707-.624 2.4-.405.693-.96 1.232-1.664 1.616-.693.373-1.472.56-2.336.56zm0-1.952c.405 0 .784-.096 1.136-.288.363-.203.65-.501.864-.896.213-.395.32-.875.32-1.44 0-.843-.224-1.488-.672-1.936-.437-.459-.976-.688-1.616-.688-.64 0-1.179.229-1.616.688-.427.448-.64 1.093-.64 1.936s.208 1.493.624 1.952c.427.448.96.672 1.6.672zm18.32-2.816c0 .32-.022.608-.064.864h-6.48c.053.64.277 1.141.672 1.504.394.363.88.544 1.456.544.832 0 1.424-.357 1.776-1.072h2.416c-.256.853-.747 1.557-1.472 2.112-.726.544-1.616.816-2.672.816-.854 0-1.622-.187-2.304-.56-.672-.384-1.2-.923-1.584-1.616-.374-.693-.56-1.493-.56-2.4 0-.917.186-1.723.56-2.416.373-.693.896-1.227 1.568-1.6s1.445-.56 2.32-.56c.842 0 1.594.181 2.256.544.672.363 1.189.88 1.552 1.552.373.661.56 1.424.56 2.288zm-2.32-.64c-.011-.576-.219-1.035-.624-1.376-.406-.352-.902-.528-1.488-.528-.555 0-1.024.171-1.408.512-.374.331-.603.795-.688 1.392h4.208zm14.963-3.728c1.088 0 1.962.336 2.624 1.008.672.661 1.008 1.589 1.008 2.784v5.2h-2.24v-4.896c0-.693-.176-1.221-.528-1.584-.352-.373-.832-.56-1.44-.56s-1.094.187-1.456.56c-.352.363-.528.891-.528 1.584V201h-2.24v-4.896c0-.693-.176-1.221-.528-1.584-.352-.373-.832-.56-1.44-.56-.619 0-1.11.187-1.472.56-.352.363-.528.891-.528 1.584V201h-2.24v-8.864h2.24v1.072c.288-.373.656-.667 1.104-.88.458-.213.96-.32 1.504-.32.693 0 1.312.149 1.856.448.544.288.965.704 1.264 1.248.288-.512.704-.923 1.248-1.232.554-.309 1.152-.464 1.792-.464zm13.997 4.368c0 .32-.021.608-.064.864h-6.48c.054.64.278 1.141.672 1.504.395.363.88.544 1.456.544.832 0 1.424-.357 1.776-1.072h2.416c-.256.853-.746 1.557-1.472 2.112-.725.544-1.616.816-2.672.816-.853 0-1.621-.187-2.304-.56-.672-.384-1.2-.923-1.584-1.616-.373-.693-.56-1.493-.56-2.4 0-.917.187-1.723.56-2.416.374-.693.896-1.227 1.568-1.6s1.446-.56 2.32-.56c.843 0 1.595.181 2.256.544.672.363 1.19.88 1.552 1.552.374.661.56 1.424.56 2.288zm-2.32-.64c-.01-.576-.218-1.035-.624-1.376-.405-.352-.901-.528-1.488-.528-.554 0-1.024.171-1.408.512-.373.331-.602.795-.688 1.392h4.208zm6.195-2.224c.288-.469.662-.837 1.12-1.104.47-.267 1.003-.4 1.6-.4v2.352h-.592c-.704 0-1.237.165-1.6.496-.352.331-.528.907-.528 1.728V201h-2.24v-8.864h2.24v1.376zm7.701-1.52c.661 0 1.243.133 1.744.4.501.256.896.592 1.184 1.008v-1.264h2.256v8.928c0 .821-.165 1.552-.496 2.192-.331.651-.827 1.163-1.488 1.536-.661.384-1.461.576-2.4.576-1.259 0-2.293-.293-3.104-.88-.8-.587-1.253-1.387-1.36-2.4h2.224c.117.405.368.725.752.96.395.245.869.368 1.424.368.651 0 1.179-.197 1.584-.592.405-.384.608-.971.608-1.76v-1.376c-.288.416-.688.763-1.2 1.04-.501.277-1.077.416-1.728.416-.747 0-1.429-.192-2.048-.576-.619-.384-1.109-.923-1.472-1.616-.352-.704-.528-1.509-.528-2.416 0-.896.176-1.691.528-2.384.363-.693.848-1.227 1.456-1.6.619-.373 1.307-.56 2.064-.56zm2.928 4.576c0-.544-.107-1.008-.32-1.392-.213-.395-.501-.693-.864-.896-.363-.213-.752-.32-1.168-.32-.416 0-.8.101-1.152.304-.352.203-.64.501-.864.896-.213.384-.32.843-.32 1.376 0 .533.107 1.003.32 1.408.224.395.512.699.864.912.363.213.747.32 1.152.32.416 0 .805-.101 1.168-.304.363-.213.651-.512.864-.896.213-.395.32-.864.32-1.408zm12.684-.192c0 .32-.022.608-.064.864h-6.48c.053.64.277 1.141.672 1.504.394.363.88.544 1.456.544.832 0 1.424-.357 1.776-1.072h2.416c-.256.853-.747 1.557-1.472 2.112-.726.544-1.616.816-2.672.816-.854 0-1.622-.187-2.304-.56-.672-.384-1.2-.923-1.584-1.616-.374-.693-.56-1.493-.56-2.4 0-.917.186-1.723.56-2.416.373-.693.896-1.227 1.568-1.6s1.445-.56 2.32-.56c.842 0 1.594.181 2.256.544.672.363 1.189.88 1.552 1.552.373.661.56 1.424.56 2.288zm-2.32-.64c-.011-.576-.219-1.035-.624-1.376-.406-.352-.902-.528-1.488-.528-.555 0-1.024.171-1.408.512-.374.331-.603.795-.688 1.392h4.208zm6.563-1.76v4.288c0 .299.069.517.208.656.149.128.394.192.736.192h1.04V201h-1.408c-1.888 0-2.832-.917-2.832-2.752v-4.272h-1.056v-1.84h1.056v-2.192h2.256v2.192h1.984v1.84h-1.984zm11.835 2.4c0 .32-.021.608-.064.864h-6.48c.053.64.277 1.141.672 1.504s.88.544 1.456.544c.832 0 1.424-.357 1.776-1.072h2.416c-.256.853-.747 1.557-1.472 2.112-.725.544-1.616.816-2.672.816-.853 0-1.621-.187-2.304-.56-.672-.384-1.2-.923-1.584-1.616-.373-.693-.56-1.493-.56-2.4 0-.917.187-1.723.56-2.416.373-.693.896-1.227 1.568-1.6s1.445-.56 2.32-.56c.843 0 1.595.181 2.256.544.672.363 1.189.88 1.552 1.552.373.661.56 1.424.56 2.288zm-2.32-.64c-.011-.576-.219-1.035-.624-1.376-.405-.352-.901-.528-1.488-.528-.555 0-1.024.171-1.408.512-.373.331-.603.795-.688 1.392h4.208zm3.379.832c0-.917.187-1.717.56-2.4.373-.693.891-1.227 1.552-1.6.661-.384 1.419-.576 2.272-.576 1.099 0 2.005.277 2.72.832.725.544 1.211 1.312 1.456 2.304h-2.416c-.128-.384-.347-.683-.656-.896-.299-.224-.672-.336-1.12-.336-.64 0-1.147.235-1.52.704-.373.459-.56 1.115-.56 1.968 0 .843.187 1.499.56 1.968.373.459.88.688 1.52.688.907 0 1.499-.405 1.776-1.216h2.416c-.245.96-.731 1.723-1.456 2.288-.725.565-1.632.848-2.72.848-.853 0-1.611-.187-2.272-.56-.661-.384-1.179-.917-1.552-1.6-.373-.693-.56-1.499-.56-2.416zm15.193-4.56c.672 0 1.269.149 1.792.448.523.288.928.72 1.216 1.296.299.565.448 1.248.448 2.048v5.2h-2.24v-4.896c0-.704-.176-1.243-.528-1.616-.352-.384-.832-.576-1.44-.576-.619 0-1.109.192-1.472.576-.352.373-.528.912-.528 1.616V201h-2.24v-11.84h2.24v4.08c.288-.384.672-.683 1.152-.896.48-.224 1.013-.336 1.6-.336zm10.535-.928c-.395 0-.726-.123-.992-.368-.256-.256-.384-.571-.384-.944s.128-.683.384-.928c.266-.256.597-.384.992-.384.394 0 .72.128.976.384.266.245.4.555.4.928s-.134.688-.4.944c-.256.245-.582.368-.976.368zm1.104 1.056V201h-2.24v-8.864h2.24zm7.125-.128c1.056 0 1.909.336 2.56 1.008.65.661.976 1.589.976 2.784v5.2h-2.24v-4.896c0-.704-.176-1.243-.528-1.616-.352-.384-.832-.576-1.44-.576-.619 0-1.11.192-1.472.576-.352.373-.528.912-.528 1.616V201h-2.24v-8.864h2.24v1.104c.298-.384.677-.683 1.136-.896.469-.224.981-.336 1.536-.336zm6.802-.928c-.395 0-.726-.123-.992-.368-.256-.256-.384-.571-.384-.944s.128-.683.384-.928c.266-.256.597-.384.992-.384.394 0 .72.128.976.384.266.245.4.555.4.928s-.134.688-.4.944c-.256.245-.582.368-.976.368zm1.104 1.056V201h-2.24v-8.864h2.24zm4.821 1.84v4.288c0 .299.069.517.208.656.149.128.395.192.736.192h1.04V201h-1.408c-1.888 0-2.832-.917-2.832-2.752v-4.272h-1.056v-1.84h1.056v-2.192h2.256v2.192h1.984v1.84h-1.984zm4.731-2.896c-.395 0-.725-.123-.992-.368-.256-.256-.384-.571-.384-.944s.128-.683.384-.928c.267-.256.597-.384.992-.384s.72.128.976.384c.267.245.4.555.4.928s-.133.688-.4.944c-.256.245-.581.368-.976.368zm1.104 1.056V201h-2.24v-8.864h2.24zm1.637 4.4c0-.896.176-1.691.528-2.384.363-.693.848-1.227 1.456-1.6.619-.373 1.307-.56 2.064-.56.661 0 1.237.133 1.728.4.501.267.901.603 1.2 1.008v-1.264h2.256V201h-2.256v-1.296c-.288.416-.688.763-1.2 1.04-.501.267-1.083.4-1.744.4-.747 0-1.429-.192-2.048-.576-.608-.384-1.093-.923-1.456-1.616-.352-.704-.528-1.509-.528-2.416zm6.976.032c0-.544-.107-1.008-.32-1.392-.213-.395-.501-.693-.864-.896-.363-.213-.752-.32-1.168-.32-.416 0-.8.101-1.152.304-.352.203-.64.501-.864.896-.213.384-.32.843-.32 1.376 0 .533.107 1.003.32 1.408.224.395.512.699.864.912.363.213.747.32 1.152.32.416 0 .805-.101 1.168-.304.363-.213.651-.512.864-.896.213-.395.32-.864.32-1.408zm7.052-2.592v4.288c0 .299.069.517.208.656.149.128.395.192.736.192h1.04V201h-1.408c-1.888 0-2.832-.917-2.832-2.752v-4.272h-1.056v-1.84h1.056v-2.192h2.256v2.192h1.984v1.84h-1.984zm4.731-2.896c-.395 0-.725-.123-.992-.368-.256-.256-.384-.571-.384-.944s.128-.683.384-.928c.267-.256.597-.384.992-.384s.72.128.976.384c.267.245.4.555.4.928s-.133.688-.4.944c-.256.245-.581.368-.976.368zm1.104 1.056V201h-2.24v-8.864h2.24zm5.909 6.8l2.24-6.8h2.384l-3.28 8.864h-2.72l-3.264-8.864h2.4l2.24 6.8zm14.122-2.56c0 .32-.021.608-.064.864h-6.48c.054.64.278 1.141.672 1.504.395.363.88.544 1.456.544.832 0 1.424-.357 1.776-1.072h2.416c-.256.853-.746 1.557-1.472 2.112-.725.544-1.616.816-2.672.816-.853 0-1.621-.187-2.304-.56-.672-.384-1.2-.923-1.584-1.616-.373-.693-.56-1.493-.56-2.4 0-.917.187-1.723.56-2.416.374-.693.896-1.227 1.568-1.6s1.446-.56 2.32-.56c.843 0 1.595.181 2.256.544.672.363 1.19.88 1.552 1.552.374.661.56 1.424.56 2.288zm-2.32-.64c-.01-.576-.218-1.035-.624-1.376-.405-.352-.901-.528-1.488-.528-.554 0-1.024.171-1.408.512-.373.331-.602.795-.688 1.392h4.208zm7.347 5.408c-.725 0-1.376-.128-1.952-.384-.576-.267-1.034-.624-1.376-1.072-.33-.448-.512-.944-.544-1.488h2.256c.043.341.208.624.496.848.299.224.667.336 1.104.336.427 0 .758-.085.992-.256.246-.171.368-.389.368-.656 0-.288-.149-.501-.448-.64-.288-.149-.752-.309-1.392-.48-.661-.16-1.205-.325-1.632-.496-.416-.171-.778-.432-1.088-.784-.298-.352-.448-.827-.448-1.424 0-.491.139-.939.416-1.344.288-.405.694-.725 1.216-.96.534-.235 1.158-.352 1.872-.352 1.056 0 1.899.267 2.528.8.63.523.976 1.232 1.04 2.128h-2.144c-.032-.352-.181-.629-.448-.832-.256-.213-.602-.32-1.04-.32-.405 0-.72.075-.944.224-.213.149-.32.357-.32.624 0 .299.15.528.448.688.299.149.763.304 1.392.464.64.16 1.168.325 1.584.496.416.171.774.437 1.072.8.31.352.47.821.48 1.408 0 .512-.144.971-.432 1.376-.277.405-.682.725-1.216.96-.522.224-1.136.336-1.84.336zm-220.62 16.272c.288-.405.682-.741 1.184-1.008.511-.277 1.093-.416 1.743-.416.758 0 1.44.187 2.048.56.62.373 1.105.907 1.457 1.6.362.683.544 1.477.544 2.384 0 .907-.182 1.712-.544 2.416-.352.693-.838 1.232-1.456 1.616-.608.384-1.291.576-2.049.576-.65 0-1.226-.133-1.728-.4-.49-.267-.89-.603-1.2-1.008v5.488h-2.24v-13.088h2.24v1.28zm4.688 3.12c0-.533-.112-.992-.337-1.376-.213-.395-.5-.693-.864-.896-.352-.203-.736-.304-1.151-.304-.406 0-.79.107-1.153.32-.352.203-.64.501-.864.896-.213.395-.32.859-.32 1.392 0 .533.107.997.32 1.392.224.395.513.699.864.912.363.203.747.304 1.152.304.416 0 .8-.107 1.153-.32.362-.213.65-.517.863-.912.224-.395.336-.864.336-1.408zM59 213.16V225h-2.24v-11.84H59zm1.637 7.376c0-.896.176-1.691.528-2.384.363-.693.848-1.227 1.456-1.6.619-.373 1.307-.56 2.064-.56.662 0 1.238.133 1.728.4.502.267.902.603 1.2 1.008v-1.264h2.256V225h-2.256v-1.296c-.288.416-.688.763-1.2 1.04-.501.267-1.082.4-1.744.4-.746 0-1.429-.192-2.048-.576-.608-.384-1.093-.923-1.456-1.616-.352-.704-.528-1.509-.528-2.416zm6.976.032c0-.544-.106-1.008-.32-1.392-.213-.395-.501-.693-.864-.896-.362-.213-.752-.32-1.168-.32-.416 0-.8.101-1.152.304-.352.203-.64.501-.864.896-.213.384-.32.843-.32 1.376 0 .533.107 1.003.32 1.408.224.395.512.699.864.912.363.213.747.32 1.152.32.416 0 .806-.101 1.168-.304.363-.213.651-.512.864-.896.214-.395.32-.864.32-1.408zm9.356-4.56c1.056 0 1.91.336 2.56 1.008.65.661.976 1.589.976 2.784v5.2h-2.24v-4.896c0-.704-.176-1.243-.528-1.616-.352-.384-.832-.576-1.44-.576-.618 0-1.11.192-1.472.576-.352.373-.528.912-.528 1.616V225h-2.24v-8.864h2.24v1.104c.299-.384.678-.683 1.136-.896.47-.224.981-.336 1.536-.336zm10.578 0c1.056 0 1.91.336 2.56 1.008.65.661.976 1.589.976 2.784v5.2h-2.24v-4.896c0-.704-.176-1.243-.528-1.616-.352-.384-.832-.576-1.44-.576-.618 0-1.11.192-1.472.576-.352.373-.528.912-.528 1.616V225h-2.24v-8.864h2.24v1.104c.299-.384.678-.683 1.136-.896.47-.224.982-.336 1.536-.336zm13.906 4.368c0 .32-.021.608-.064.864h-6.48c.054.64.278 1.141.672 1.504.395.363.88.544 1.456.544.832 0 1.424-.357 1.776-1.072h2.416c-.256.853-.746 1.557-1.472 2.112-.725.544-1.616.816-2.672.816-.853 0-1.621-.187-2.304-.56-.672-.384-1.2-.923-1.584-1.616-.373-.693-.56-1.493-.56-2.4 0-.917.187-1.723.56-2.416.374-.693.896-1.227 1.568-1.6s1.446-.56 2.32-.56c.843 0 1.595.181 2.256.544.672.363 1.19.88 1.552 1.552.374.661.56 1.424.56 2.288zm-2.32-.64c-.01-.576-.218-1.035-.624-1.376-.405-.352-.901-.528-1.488-.528-.554 0-1.024.171-1.408.512-.373.331-.602.795-.688 1.392h4.208zm3.379.8c0-.896.176-1.691.528-2.384.363-.693.854-1.227 1.472-1.6.619-.373 1.307-.56 2.064-.56.576 0 1.126.128 1.648.384.523.245.939.576 1.248.992v-4.208h2.272V225h-2.272v-1.312c-.277.437-.666.789-1.168 1.056-.501.267-1.082.4-1.744.4-.746 0-1.429-.192-2.048-.576-.618-.384-1.109-.923-1.472-1.616-.352-.704-.528-1.509-.528-2.416zm6.976.032c0-.544-.106-1.008-.32-1.392-.213-.395-.501-.693-.864-.896-.362-.213-.752-.32-1.168-.32-.416 0-.8.101-1.152.304-.352.203-.64.501-.864.896-.213.384-.32.843-.32 1.376 0 .533.107 1.003.32 1.408.224.395.512.699.864.912.363.213.747.32 1.152.32.416 0 .806-.101 1.168-.304.363-.213.651-.512.864-.896.214-.395.32-.864.32-1.408zm7.681-.032c0-.896.176-1.691.528-2.384.362-.693.848-1.227 1.456-1.6.618-.373 1.306-.56 2.064-.56.661 0 1.237.133 1.728.4.501.267.901.603 1.2 1.008v-1.264h2.256V225h-2.256v-1.296c-.288.416-.688.763-1.2 1.04-.502.267-1.083.4-1.744.4-.747 0-1.43-.192-2.048-.576-.608-.384-1.094-.923-1.456-1.616-.352-.704-.528-1.509-.528-2.416zm6.976.032c0-.544-.107-1.008-.32-1.392-.214-.395-.502-.693-.864-.896-.363-.213-.752-.32-1.168-.32-.416 0-.8.101-1.152.304-.352.203-.64.501-.864.896-.214.384-.32.843-.32 1.376 0 .533.106 1.003.32 1.408.224.395.512.699.864.912.362.213.746.32 1.152.32.416 0 .805-.101 1.168-.304.362-.213.65-.512.864-.896.213-.395.32-.864.32-1.408zm3.867 0c0-.917.187-1.717.56-2.4.374-.693.891-1.227 1.552-1.6.662-.384 1.419-.576 2.272-.576 1.099 0 2.006.277 2.72.832.726.544 1.211 1.312 1.456 2.304h-2.416c-.128-.384-.346-.683-.656-.896-.298-.224-.672-.336-1.12-.336-.64 0-1.146.235-1.52.704-.373.459-.56 1.115-.56 1.968 0 .843.187 1.499.56 1.968.374.459.88.688 1.52.688.907 0 1.499-.405 1.776-1.216h2.416c-.245.96-.73 1.723-1.456 2.288-.725.565-1.632.848-2.72.848-.853 0-1.61-.187-2.272-.56-.661-.384-1.178-.917-1.552-1.6-.373-.693-.56-1.499-.56-2.416zm12.441-3.056c.288-.469.662-.837 1.12-1.104.47-.267 1.003-.4 1.6-.4v2.352h-.592c-.704 0-1.237.165-1.6.496-.352.331-.528.907-.528 1.728V225h-2.24v-8.864h2.24v1.376zm8.165 7.632c-.853 0-1.621-.187-2.304-.56-.683-.384-1.221-.923-1.616-1.616-.384-.693-.576-1.493-.576-2.4 0-.907.197-1.707.592-2.4.405-.693.955-1.227 1.648-1.6.693-.384 1.467-.576 2.32-.576.853 0 1.627.192 2.32.576.693.373 1.237.907 1.632 1.6.405.693.608 1.493.608 2.4 0 .907-.208 1.707-.624 2.4-.405.693-.96 1.232-1.664 1.616-.693.373-1.472.56-2.336.56zm0-1.952c.405 0 .784-.096 1.136-.288.363-.203.651-.501.864-.896.213-.395.32-.875.32-1.44 0-.843-.224-1.488-.672-1.936-.437-.459-.976-.688-1.616-.688-.64 0-1.179.229-1.616.688-.427.448-.64 1.093-.64 1.936s.208 1.493.624 1.952c.427.448.96.672 1.6.672zm9.659 1.952c-.725 0-1.376-.128-1.952-.384-.576-.267-1.034-.624-1.376-1.072-.33-.448-.512-.944-.544-1.488h2.256c.043.341.208.624.496.848.299.224.667.336 1.104.336.427 0 .758-.085.992-.256.246-.171.368-.389.368-.656 0-.288-.149-.501-.448-.64-.288-.149-.752-.309-1.392-.48-.661-.16-1.205-.325-1.632-.496-.416-.171-.778-.432-1.088-.784-.298-.352-.448-.827-.448-1.424 0-.491.139-.939.416-1.344.288-.405.694-.725 1.216-.96.534-.235 1.158-.352 1.872-.352 1.056 0 1.899.267 2.528.8.63.523.976 1.232 1.04 2.128h-2.144c-.032-.352-.181-.629-.448-.832-.256-.213-.602-.32-1.04-.32-.405 0-.72.075-.944.224-.213.149-.32.357-.32.624 0 .299.15.528.448.688.299.149.763.304 1.392.464.64.16 1.168.325 1.584.496.416.171.774.437 1.072.8.31.352.47.821.48 1.408 0 .512-.144.971-.432 1.376-.277.405-.682.725-1.216.96-.522.224-1.136.336-1.84.336zm8.719 0c-.725 0-1.376-.128-1.952-.384-.576-.267-1.035-.624-1.376-1.072-.331-.448-.512-.944-.544-1.488h2.256c.043.341.208.624.496.848.299.224.667.336 1.104.336.427 0 .757-.085.992-.256.245-.171.368-.389.368-.656 0-.288-.149-.501-.448-.64-.288-.149-.752-.309-1.392-.48-.661-.16-1.205-.325-1.632-.496-.416-.171-.779-.432-1.088-.784-.299-.352-.448-.827-.448-1.424 0-.491.139-.939.416-1.344.288-.405.693-.725 1.216-.96.533-.235 1.157-.352 1.872-.352 1.056 0 1.899.267 2.528.8.629.523.976 1.232 1.04 2.128h-2.144c-.032-.352-.181-.629-.448-.832-.256-.213-.603-.32-1.04-.32-.405 0-.72.075-.944.224-.213.149-.32.357-.32.624 0 .299.149.528.448.688.299.149.763.304 1.392.464.64.16 1.168.325 1.584.496.416.171.773.437 1.072.8.309.352.469.821.48 1.408 0 .512-.144.971-.432 1.376-.277.405-.683.725-1.216.96-.523.224-1.136.336-1.84.336zm11.747-7.168v4.288c0 .299.07.517.208.656.15.128.395.192.736.192h1.04V225h-1.408c-1.888 0-2.832-.917-2.832-2.752v-4.272h-1.056v-1.84h1.056v-2.192h2.256v2.192h1.984v1.84h-1.984zm8.587-1.968c.672 0 1.27.149 1.792.448.523.288.928.72 1.216 1.296.299.565.448 1.248.448 2.048v5.2h-2.24v-4.896c0-.704-.176-1.243-.528-1.616-.352-.384-.832-.576-1.44-.576-.618 0-1.109.192-1.472.576-.352.373-.528.912-.528 1.616V225h-2.24v-11.84h2.24v4.08c.288-.384.672-.683 1.152-.896.48-.224 1.014-.336 1.6-.336zm13.827 4.368c0 .32-.022.608-.064.864h-6.48c.053.64.277 1.141.672 1.504.394.363.88.544 1.456.544.832 0 1.424-.357 1.776-1.072h2.416c-.256.853-.747 1.557-1.472 2.112-.726.544-1.616.816-2.672.816-.854 0-1.622-.187-2.304-.56-.672-.384-1.2-.923-1.584-1.616-.374-.693-.561-1.493-.561-2.4 0-.917.187-1.723.561-2.416.373-.693.896-1.227 1.568-1.6s1.445-.56 2.32-.56c.842 0 1.594.181 2.256.544.672.363 1.189.88 1.552 1.552.373.661.56 1.424.56 2.288zm-2.32-.64c-.011-.576-.219-1.035-.624-1.376-.406-.352-.902-.528-1.488-.528-.555 0-1.024.171-1.408.512-.374.331-.603.795-.688 1.392h4.208zm7.191.832c0-.917.187-1.717.56-2.4.373-.693.891-1.227 1.552-1.6.661-.384 1.419-.576 2.272-.576 1.099 0 2.005.277 2.72.832.725.544 1.211 1.312 1.456 2.304h-2.416c-.128-.384-.347-.683-.656-.896-.299-.224-.672-.336-1.12-.336-.64 0-1.147.235-1.52.704-.373.459-.56 1.115-.56 1.968 0 .843.187 1.499.56 1.968.373.459.88.688 1.52.688.907 0 1.499-.405 1.776-1.216h2.416c-.245.96-.731 1.723-1.456 2.288-.725.565-1.632.848-2.72.848-.853 0-1.611-.187-2.272-.56-.661-.384-1.179-.917-1.552-1.6-.373-.693-.56-1.499-.56-2.416zm14.137 4.576c-.853 0-1.621-.187-2.304-.56-.683-.384-1.221-.923-1.616-1.616-.384-.693-.576-1.493-.576-2.4 0-.907.197-1.707.592-2.4.405-.693.955-1.227 1.648-1.6.693-.384 1.467-.576 2.32-.576.853 0 1.627.192 2.32.576.693.373 1.237.907 1.632 1.6.405.693.608 1.493.608 2.4 0 .907-.208 1.707-.624 2.4-.405.693-.96 1.232-1.664 1.616-.693.373-1.472.56-2.336.56zm0-1.952c.405 0 .784-.096 1.136-.288.363-.203.651-.501.864-.896.213-.395.32-.875.32-1.44 0-.843-.224-1.488-.672-1.936-.437-.459-.976-.688-1.616-.688-.64 0-1.179.229-1.616.688-.427.448-.64 1.093-.64 1.936s.208 1.493.624 1.952c.427.448.96.672 1.6.672zm14.635-7.056V225h-2.256v-1.12c-.288.384-.667.688-1.136.912-.459.213-.96.32-1.504.32-.693 0-1.307-.144-1.84-.432-.533-.299-.955-.731-1.264-1.296-.299-.576-.448-1.259-.448-2.048v-5.2h2.24v4.88c0 .704.176 1.248.528 1.632.352.373.832.56 1.44.56.619 0 1.104-.187 1.456-.56.352-.384.528-.928.528-1.632v-4.88h2.256zm7.122-.128c1.056 0 1.91.336 2.56 1.008.651.661.976 1.589.976 2.784v5.2h-2.24v-4.896c0-.704-.176-1.243-.528-1.616-.352-.384-.832-.576-1.44-.576-.618 0-1.109.192-1.472.576-.352.373-.528.912-.528 1.616V225h-2.24v-8.864h2.24v1.104c.299-.384.678-.683 1.136-.896.47-.224.982-.336 1.536-.336zm8.274 1.968v4.288c0 .299.07.517.208.656.15.128.395.192.736.192h1.04V225h-1.408c-1.888 0-2.832-.917-2.832-2.752v-4.272h-1.056v-1.84h1.056v-2.192h2.256v2.192h1.984v1.84h-1.984zm5.836-.464c.288-.469.661-.837 1.12-1.104.469-.267 1.002-.4 1.6-.4v2.352h-.592c-.704 0-1.238.165-1.6.496-.352.331-.528.907-.528 1.728V225h-2.24v-8.864h2.24v1.376zm12.708-1.376l-5.488 13.056h-2.384l1.92-4.416-3.552-8.64h2.512l2.288 6.192 2.32-6.192h2.384zm2.2 8.976c-.406 0-.742-.123-1.008-.368-.256-.256-.384-.571-.384-.944s.128-.683.384-.928c.266-.256.602-.384 1.008-.384.394 0 .72.128.976.384.256.245.384.555.384.928s-.128.688-.384.944c-.256.245-.582.368-.976.368z"/>
    </g>
    <defs>
        <clipPath id="prefix__clip0">
            <path fill="#fff" d="M0 0H304V354H0z"/>
        </clipPath>
    </defs>
</svg>
