<svg xmlns="http://www.w3.org/2000/svg" width="304" height="354" fill="none" viewBox="0 0 304 354">
    <g clip-path="url(#prefix__clip0)">
        <path fill="#45B14F" d="M0 0H304V362H0z"/>
        <path fill="#fff" d="M101.335 319.144c0-16.608 2.976-29.616 8.928-39.024 6.048-9.408 16.032-14.112 29.952-14.112 13.92 0 23.856 4.704 29.808 14.112 6.048 9.408 9.072 22.416 9.072 39.024 0 16.704-3.024 29.808-9.072 39.312-5.952 9.504-15.888 14.256-29.808 14.256s-23.904-4.752-29.952-14.256c-5.952-9.504-8.928-22.608-8.928-39.312zm57.888 0c0-7.104-.48-13.056-1.44-17.856-.864-4.896-2.688-8.88-5.472-11.952-2.688-3.072-6.72-4.608-12.096-4.608s-9.456 1.536-12.24 4.608c-2.688 3.072-4.512 7.056-5.472 11.952-.864 4.8-1.296 10.752-1.296 17.856 0 7.296.432 13.44 1.296 18.432.864 4.896 2.688 8.88 5.472 11.952 2.784 2.976 6.864 4.464 12.24 4.464s9.456-1.488 12.24-4.464c2.784-3.072 4.608-7.056 5.472-11.952.864-4.992 1.296-11.136 1.296-18.432zm35.494-23.472c.48-9.6 3.84-16.992 10.08-22.176 6.336-5.28 14.64-7.92 24.912-7.92 7.008 0 13.008 1.248 18 3.744 4.992 2.4 8.736 5.712 11.232 9.936 2.592 4.128 3.888 8.832 3.888 14.112 0 6.048-1.584 11.184-4.752 15.408-3.072 4.128-6.768 6.912-11.088 8.352v.576c5.568 1.728 9.888 4.8 12.96 9.216 3.168 4.416 4.752 10.08 4.752 16.992 0 5.76-1.344 10.896-4.032 15.408-2.592 4.512-6.48 8.064-11.664 10.656-5.088 2.496-11.232 3.744-18.432 3.744-10.848 0-19.68-2.736-26.496-8.208-6.816-5.472-10.416-13.536-10.8-24.192h19.584c.192 4.704 1.776 8.496 4.752 11.376 3.072 2.784 7.248 4.176 12.528 4.176 4.896 0 8.64-1.344 11.232-4.032 2.688-2.784 4.032-6.336 4.032-10.656 0-5.76-1.824-9.888-5.472-12.384-3.648-2.496-9.312-3.744-16.992-3.744h-4.176v-16.56h4.176c13.632 0 20.448-4.56 20.448-13.68 0-4.128-1.248-7.344-3.744-9.648-2.4-2.304-5.904-3.456-10.512-3.456-4.512 0-8.016 1.248-10.512 3.744-2.4 2.4-3.792 5.472-4.176 9.216h-19.728z" opacity=".2"/>
        <path fill="#fff" d="M254.803 66h-7.992l-8.46-12.816V66h-7.992V40.512h7.992l8.46 13.032V40.512h7.992V66zm13.258.252c-2.04 0-3.876-.42-5.508-1.26-1.632-.84-2.916-2.04-3.852-3.6-.912-1.584-1.368-3.432-1.368-5.544 0-2.112.456-3.948 1.368-5.508.936-1.584 2.22-2.796 3.852-3.636 1.632-.84 3.468-1.26 5.508-1.26s3.876.42 5.508 1.26c1.632.84 2.904 2.052 3.816 3.636.936 1.56 1.404 3.396 1.404 5.508s-.468 3.96-1.404 5.544c-.912 1.56-2.184 2.76-3.816 3.6-1.632.84-3.468 1.26-5.508 1.26zm0-6.912c.744 0 1.368-.288 1.872-.864.504-.6.756-1.476.756-2.628 0-1.152-.252-2.016-.756-2.592-.504-.6-1.128-.9-1.872-.9-.744 0-1.368.3-1.872.9-.504.576-.756 1.44-.756 2.592 0 1.152.24 2.028.72 2.628.504.576 1.14.864 1.908.864zM144.239 96.932c1.536.36 2.724 1.104 3.564 2.232.864 1.104 1.296 2.388 1.296 3.852 0 2.232-.744 3.96-2.232 5.184-1.464 1.2-3.576 1.8-6.336 1.8h-13.356V84.512h12.996c2.592 0 4.632.564 6.12 1.692 1.488 1.128 2.232 2.772 2.232 4.932 0 1.488-.396 2.748-1.188 3.78-.768 1.008-1.8 1.68-3.096 2.016zm-9.072-2.484h3.096c.72 0 1.248-.144 1.584-.432.36-.288.54-.732.54-1.332 0-.624-.18-1.08-.54-1.368-.336-.312-.864-.468-1.584-.468h-3.096v3.6zm3.636 9.144c.72 0 1.248-.132 1.584-.396.36-.288.54-.744.54-1.368 0-1.224-.708-1.836-2.124-1.836h-3.636v3.6h3.636zm11.901-3.744c0-2.136.36-3.984 1.08-5.544.744-1.584 1.752-2.784 3.024-3.6 1.272-.84 2.7-1.26 4.284-1.26 1.32 0 2.46.276 3.42.828.96.528 1.692 1.26 2.196 2.196v-2.772h7.956V110h-7.956v-2.772c-.504.936-1.236 1.68-2.196 2.232-.96.528-2.1.792-3.42.792-1.584 0-3.012-.408-4.284-1.224-1.272-.84-2.28-2.04-3.024-3.6-.72-1.584-1.08-3.444-1.08-5.58zm14.004 0c0-1.08-.276-1.92-.828-2.52-.552-.6-1.26-.9-2.124-.9-.864 0-1.572.3-2.124.9-.552.6-.828 1.44-.828 2.52s.276 1.92.828 2.52c.552.6 1.26.9 2.124.9.864 0 1.572-.3 2.124-.9.552-.6.828-1.44.828-2.52zm19.537-6.408c.816-1.176 1.812-2.112 2.988-2.808 1.176-.72 2.4-1.08 3.672-1.08v8.532h-2.268c-1.512 0-2.628.264-3.348.792-.696.528-1.044 1.464-1.044 2.808V110h-7.992V89.696h7.992v3.744zm16.805 0c.816-1.176 1.812-2.112 2.988-2.808 1.176-.72 2.4-1.08 3.672-1.08v8.532h-2.268c-1.512 0-2.628.264-3.348.792-.696.528-1.044 1.464-1.044 2.808V110h-7.992V89.696h7.992v3.744zm12.845-5.364c-1.392 0-2.508-.372-3.348-1.116-.84-.744-1.26-1.68-1.26-2.808 0-1.152.42-2.1 1.26-2.844.84-.768 1.956-1.152 3.348-1.152 1.368 0 2.472.384 3.312 1.152.84.744 1.26 1.692 1.26 2.844 0 1.128-.42 2.064-1.26 2.808-.84.744-1.944 1.116-3.312 1.116zm3.96 1.62V110h-7.992V89.696h7.992zm23.265 9.972c0 .552-.036 1.08-.108 1.584H228.16c.12 1.752.852 2.628 2.196 2.628.864 0 1.488-.396 1.872-1.188h8.46c-.288 1.44-.9 2.736-1.836 3.888-.912 1.128-2.076 2.028-3.492 2.7-1.392.648-2.928.972-4.608.972-2.016 0-3.816-.42-5.4-1.26-1.56-.84-2.784-2.04-3.672-3.6-.864-1.584-1.296-3.432-1.296-5.544 0-2.112.432-3.948 1.296-5.508.888-1.584 2.112-2.796 3.672-3.636 1.584-.84 3.384-1.26 5.4-1.26 2.016 0 3.804.42 5.364 1.26 1.584.816 2.808 1.992 3.672 3.528.888 1.536 1.332 3.348 1.332 5.436zm-8.1-1.908c0-.672-.216-1.176-.648-1.512-.432-.36-.972-.54-1.62-.54-1.416 0-2.244.684-2.484 2.052h4.752zm18.62-4.32c.816-1.176 1.812-2.112 2.988-2.808 1.176-.72 2.4-1.08 3.672-1.08v8.532h-2.268c-1.512 0-2.628.264-3.348.792-.696.528-1.044 1.464-1.044 2.808V110h-7.992V89.696h7.992v3.744zm17.848 16.812c-1.92 0-3.624-.312-5.112-.936-1.464-.624-2.628-1.488-3.492-2.592-.864-1.104-1.356-2.352-1.476-3.744h7.668c.096.6.348 1.044.756 1.332.432.288.972.432 1.62.432.408 0 .732-.084.972-.252.24-.192.36-.42.36-.684 0-.456-.252-.78-.756-.972-.504-.192-1.356-.408-2.556-.648-1.464-.288-2.676-.6-3.636-.936-.936-.336-1.764-.912-2.484-1.728-.696-.816-1.044-1.944-1.044-3.384 0-1.248.324-2.376.972-3.384.672-1.032 1.656-1.836 2.952-2.412 1.296-.6 2.868-.9 4.716-.9 2.736 0 4.872.672 6.408 2.016 1.56 1.344 2.496 3.096 2.808 5.256h-7.092c-.12-.552-.372-.972-.756-1.26-.384-.312-.9-.468-1.548-.468-.408 0-.72.084-.936.252-.216.144-.324.372-.324.684 0 .408.252.72.756.936.504.192 1.308.396 2.412.612 1.464.288 2.7.612 3.708.972s1.884.984 2.628 1.872c.744.864 1.116 2.064 1.116 3.6 0 1.2-.348 2.28-1.044 3.24-.696.96-1.704 1.716-3.024 2.268-1.296.552-2.82.828-4.572.828zM95.827 150.872h-4.448L90.643 153h-2.352l4.016-11.184h2.608L98.931 153h-2.368l-.736-2.128zm-.608-1.792l-1.616-4.672-1.616 4.672h3.232zm10.125-5.072c1.056 0 1.909.336 2.56 1.008.651.661.976 1.589.976 2.784v5.2h-2.24v-4.896c0-.704-.176-1.243-.528-1.616-.352-.384-.832-.576-1.44-.576-.619 0-1.109.192-1.472.576-.352.373-.528.912-.528 1.616V153h-2.24v-8.864h2.24v1.104c.299-.384.677-.683 1.136-.896.469-.224.981-.336 1.536-.336zm14.146.128l-5.488 13.056h-2.384l1.92-4.416-3.552-8.64h2.512l2.288 6.192 2.32-6.192h2.384zm5.144 9.008c-.854 0-1.622-.187-2.304-.56-.683-.384-1.222-.923-1.616-1.616-.384-.693-.576-1.493-.576-2.4 0-.907.197-1.707.592-2.4.405-.693.954-1.227 1.648-1.6.693-.384 1.466-.576 2.32-.576.853 0 1.626.192 2.32.576.693.373 1.237.907 1.632 1.6.405.693.608 1.493.608 2.4 0 .907-.208 1.707-.624 2.4-.406.693-.96 1.232-1.664 1.616-.694.373-1.472.56-2.336.56zm0-1.952c.405 0 .784-.096 1.136-.288.362-.203.65-.501.864-.896.213-.395.32-.875.32-1.44 0-.843-.224-1.488-.672-1.936-.438-.459-.976-.688-1.616-.688-.64 0-1.179.229-1.616.688-.427.448-.64 1.093-.64 1.936s.208 1.493.624 1.952c.426.448.96.672 1.6.672zm11.179-7.184c1.056 0 1.909.336 2.56 1.008.651.661.976 1.589.976 2.784v5.2h-2.24v-4.896c0-.704-.176-1.243-.528-1.616-.352-.384-.832-.576-1.44-.576-.619 0-1.109.192-1.472.576-.352.373-.528.912-.528 1.616V153h-2.24v-8.864h2.24v1.104c.299-.384.677-.683 1.136-.896.469-.224.981-.336 1.536-.336zm13.906 4.368c0 .32-.021.608-.064.864h-6.48c.053.64.277 1.141.672 1.504s.88.544 1.456.544c.832 0 1.424-.357 1.776-1.072h2.416c-.256.853-.747 1.557-1.472 2.112-.725.544-1.616.816-2.672.816-.853 0-1.621-.187-2.304-.56-.672-.384-1.2-.923-1.584-1.616-.373-.693-.56-1.493-.56-2.4 0-.917.187-1.723.56-2.416.373-.693.896-1.227 1.568-1.6s1.445-.56 2.32-.56c.843 0 1.595.181 2.256.544.672.363 1.189.88 1.552 1.552.373.661.56 1.424.56 2.288zm-2.32-.64c-.011-.576-.219-1.035-.624-1.376-.405-.352-.901-.528-1.488-.528-.555 0-1.024.171-1.408.512-.373.331-.603.795-.688 1.392h4.208zm7.191.832c0-.917.187-1.717.561-2.4.373-.693.89-1.227 1.552-1.6.661-.384 1.418-.576 2.272-.576 1.098 0 2.005.277 2.72.832.725.544 1.21 1.312 1.456 2.304h-2.416c-.128-.384-.347-.683-.656-.896-.299-.224-.672-.336-1.12-.336-.64 0-1.147.235-1.52.704-.374.459-.56 1.115-.56 1.968 0 .843.186 1.499.56 1.968.373.459.88.688 1.52.688.906 0 1.498-.405 1.776-1.216h2.416c-.246.96-.731 1.723-1.456 2.288-.726.565-1.632.848-2.72.848-.854 0-1.611-.187-2.272-.56-.662-.384-1.179-.917-1.552-1.6-.374-.693-.561-1.499-.561-2.416zm9.625-.032c0-.896.176-1.691.528-2.384.363-.693.849-1.227 1.457-1.6.618-.373 1.306-.56 2.064-.56.661 0 1.237.133 1.728.4.501.267.901.603 1.2 1.008v-1.264h2.256V153h-2.256v-1.296c-.288.416-.688.763-1.2 1.04-.502.267-1.083.4-1.744.4-.747 0-1.43-.192-2.048-.576-.608-.384-1.094-.923-1.457-1.616-.352-.704-.528-1.509-.528-2.416zm6.977.032c0-.544-.107-1.008-.32-1.392-.214-.395-.502-.693-.864-.896-.363-.213-.752-.32-1.168-.32-.416 0-.8.101-1.152.304-.352.203-.64.501-.864.896-.214.384-.32.843-.32 1.376 0 .533.106 1.003.32 1.408.224.395.512.699.864.912.362.213.746.32 1.152.32.416 0 .805-.101 1.168-.304.362-.213.65-.512.864-.896.213-.395.32-.864.32-1.408zm9.355-4.56c1.056 0 1.91.336 2.56 1.008.651.661.976 1.589.976 2.784v5.2h-2.24v-4.896c0-.704-.176-1.243-.528-1.616-.352-.384-.832-.576-1.44-.576-.618 0-1.109.192-1.472.576-.352.373-.528.912-.528 1.616V153h-2.24v-8.864h2.24v1.104c.299-.384.678-.683 1.136-.896.47-.224.982-.336 1.536-.336zm11.719 1.424c.288-.427.683-.773 1.184-1.04.512-.267 1.093-.4 1.744-.4.757 0 1.44.187 2.048.56.619.373 1.104.907 1.456 1.6.363.683.544 1.477.544 2.384 0 .907-.181 1.712-.544 2.416-.352.693-.837 1.232-1.456 1.616-.608.384-1.291.576-2.048.576-.661 0-1.243-.128-1.744-.384-.491-.267-.885-.608-1.184-1.024V153h-2.24v-11.84h2.24v4.272zm4.688 3.104c0-.533-.112-.992-.336-1.376-.213-.395-.501-.693-.864-.896-.352-.203-.736-.304-1.152-.304-.405 0-.789.107-1.152.32-.352.203-.64.501-.864.896-.213.395-.32.859-.32 1.392 0 .533.107.997.32 1.392.224.395.512.699.864.912.363.203.747.304 1.152.304.416 0 .8-.107 1.152-.32.363-.213.651-.517.864-.912.224-.395.336-.864.336-1.408zm12.156-.16c0 .32-.022.608-.064.864h-6.48c.053.64.277 1.141.672 1.504.394.363.88.544 1.456.544.832 0 1.424-.357 1.776-1.072h2.416c-.256.853-.747 1.557-1.472 2.112-.726.544-1.616.816-2.672.816-.854 0-1.622-.187-2.304-.56-.672-.384-1.2-.923-1.584-1.616-.374-.693-.56-1.493-.56-2.4 0-.917.186-1.723.56-2.416.373-.693.896-1.227 1.568-1.6s1.445-.56 2.32-.56c.842 0 1.594.181 2.256.544.672.363 1.189.88 1.552 1.552.373.661.56 1.424.56 2.288zm-2.32-.64c-.011-.576-.219-1.035-.624-1.376-.406-.352-.902-.528-1.488-.528-.555 0-1.024.171-1.408.512-.374.331-.603.795-.688 1.392h4.208zm7.191.8c0-.896.176-1.691.528-2.384.363-.693.848-1.227 1.456-1.6.619-.373 1.307-.56 2.064-.56.661 0 1.237.133 1.728.4.501.267.901.603 1.2 1.008v-1.264h2.256V153h-2.256v-1.296c-.288.416-.688.763-1.2 1.04-.501.267-1.083.4-1.744.4-.747 0-1.429-.192-2.048-.576-.608-.384-1.093-.923-1.456-1.616-.352-.704-.528-1.509-.528-2.416zm6.976.032c0-.544-.107-1.008-.32-1.392-.213-.395-.501-.693-.864-.896-.363-.213-.752-.32-1.168-.32-.416 0-.8.101-1.152.304-.352.203-.64.501-.864.896-.213.384-.32.843-.32 1.376 0 .533.107 1.003.32 1.408.224.395.512.699.864.912.363.213.747.32 1.152.32.416 0 .805-.101 1.168-.304.363-.213.651-.512.864-.896.213-.395.32-.864.32-1.408zm10.496-3.152c.288-.405.683-.741 1.184-1.008.512-.277 1.094-.416 1.744-.416.758 0 1.44.187 2.048.56.619.373 1.104.907 1.456 1.6.363.683.544 1.477.544 2.384 0 .907-.181 1.712-.544 2.416-.352.693-.837 1.232-1.456 1.616-.608.384-1.29.576-2.048.576-.65 0-1.226-.133-1.728-.4-.49-.267-.89-.603-1.2-1.008v5.488h-2.24v-13.088h2.24v1.28zm4.688 3.12c0-.533-.112-.992-.336-1.376-.213-.395-.501-.693-.864-.896-.352-.203-.736-.304-1.152-.304-.405 0-.789.107-1.152.32-.352.203-.64.501-.864.896-.213.395-.32.859-.32 1.392 0 .533.107.997.32 1.392.224.395.512.699.864.912.363.203.747.304 1.152.304.416 0 .8-.107 1.152-.32.363-.213.651-.517.864-.912.224-.395.336-.864.336-1.408zm3.34 0c0-.896.176-1.691.528-2.384.363-.693.848-1.227 1.456-1.6.619-.373 1.307-.56 2.064-.56.661 0 1.237.133 1.728.4.501.267.901.603 1.2 1.008v-1.264h2.256V153h-2.256v-1.296c-.288.416-.688.763-1.2 1.04-.501.267-1.083.4-1.744.4-.747 0-1.429-.192-2.048-.576-.608-.384-1.093-.923-1.456-1.616-.352-.704-.528-1.509-.528-2.416zm6.976.032c0-.544-.107-1.008-.32-1.392-.213-.395-.501-.693-.864-.896-.363-.213-.752-.32-1.168-.32-.416 0-.8.101-1.152.304-.352.203-.64.501-.864.896-.213.384-.32.843-.32 1.376 0 .533.107 1.003.32 1.408.224.395.512.699.864.912.363.213.747.32 1.152.32.416 0 .805-.101 1.168-.304.363-.213.651-.512.864-.896.213-.395.32-.864.32-1.408zm6.684-3.056c.288-.469.661-.837 1.12-1.104.469-.267 1.003-.4 1.6-.4v2.352h-.592c-.704 0-1.237.165-1.6.496-.352.331-.528.907-.528 1.728V153h-2.24v-8.864h2.24v1.376zm6.837.464v4.288c0 .299.069.517.208.656.149.128.394.192.736.192h1.04V153h-1.408c-1.888 0-2.832-.917-2.832-2.752v-4.272h-1.056v-1.84h1.056v-2.192h2.256v2.192h1.984v1.84h-1.984zm11.343 7.168c-.853 0-1.621-.187-2.304-.56-.682-.384-1.221-.923-1.616-1.616-.384-.693-.576-1.493-.576-2.4 0-.907.198-1.707.592-2.4.406-.693.955-1.227 1.648-1.6.694-.384 1.467-.576 2.32-.576.854 0 1.627.192 2.32.576.694.373 1.238.907 1.632 1.6.406.693.608 1.493.608 2.4 0 .907-.208 1.707-.624 2.4-.405.693-.96 1.232-1.664 1.616-.693.373-1.472.56-2.336.56zm0-1.952c.406 0 .784-.096 1.136-.288.363-.203.651-.501.864-.896.214-.395.32-.875.32-1.44 0-.843-.224-1.488-.672-1.936-.437-.459-.976-.688-1.616-.688-.64 0-1.178.229-1.616.688-.426.448-.64 1.093-.64 1.936s.208 1.493.624 1.952c.427.448.96.672 1.6.672zm10.331-5.216H280.1V153h-2.272v-7.024h-1.008v-1.84h1.008v-.448c0-1.088.31-1.888.928-2.4.619-.512 1.552-.752 2.8-.72v1.888c-.544-.011-.922.08-1.136.272-.213.192-.32.539-.32 1.04v.368h1.552v1.84zM76.064 175.112h5.024V177h-7.616v-1.728l4.992-7.552h-4.992v-1.888h7.616v1.728l-5.024 7.552zm7.923 2c-.406 0-.742-.123-1.008-.368-.256-.256-.384-.571-.384-.944s.128-.683.384-.928c.266-.256.602-.384 1.008-.384.394 0 .72.128.976.384.256.245.384.555.384.928s-.128.688-.384.944c-.256.245-.582.368-.976.368zm2.62-5.712c0-1.099.245-2.08.736-2.944.501-.875 1.178-1.552 2.032-2.032.864-.491 1.83-.736 2.896-.736 1.248 0 2.341.32 3.28.96.939.64 1.594 1.525 1.968 2.656h-2.576c-.256-.533-.619-.933-1.088-1.2-.459-.267-.992-.4-1.6-.4-.65 0-1.232.155-1.744.464-.501.299-.896.725-1.184 1.28-.278.555-.416 1.205-.416 1.952 0 .736.138 1.387.416 1.952.288.555.683.987 1.184 1.296.512.299 1.093.448 1.744.448.608 0 1.141-.133 1.6-.4.47-.277.832-.683 1.088-1.216h2.576c-.374 1.141-1.03 2.032-1.968 2.672-.928.629-2.022.944-3.28.944-1.067 0-2.032-.24-2.896-.72-.853-.491-1.53-1.168-2.032-2.032-.49-.864-.736-1.845-.736-2.944zm16.761 5.744c-.853 0-1.621-.187-2.304-.56-.683-.384-1.221-.923-1.616-1.616-.384-.693-.576-1.493-.576-2.4 0-.907.198-1.707.592-2.4.406-.693.955-1.227 1.648-1.6.693-.384 1.467-.576 2.32-.576.853 0 1.627.192 2.32.576.693.373 1.237.907 1.632 1.6.405.693.608 1.493.608 2.4 0 .907-.208 1.707-.624 2.4-.405.693-.96 1.232-1.664 1.616-.693.373-1.472.56-2.336.56zm0-1.952c.405 0 .784-.096 1.136-.288.363-.203.651-.501.864-.896.213-.395.32-.875.32-1.44 0-.843-.224-1.488-.672-1.936-.437-.459-.976-.688-1.616-.688-.64 0-1.179.229-1.616.688-.427.448-.64 1.093-.64 1.936s.208 1.493.624 1.952c.427.448.96.672 1.6.672zm17.275-7.184c1.088 0 1.963.336 2.624 1.008.672.661 1.008 1.589 1.008 2.784v5.2h-2.24v-4.896c0-.693-.176-1.221-.528-1.584-.352-.373-.832-.56-1.44-.56s-1.093.187-1.456.56c-.352.363-.528.891-.528 1.584V177h-2.24v-4.896c0-.693-.176-1.221-.528-1.584-.352-.373-.832-.56-1.44-.56-.618 0-1.109.187-1.472.56-.352.363-.528.891-.528 1.584V177h-2.24v-8.864h2.24v1.072c.288-.373.656-.667 1.104-.88.459-.213.96-.32 1.504-.32.694 0 1.312.149 1.856.448.544.288.966.704 1.264 1.248.288-.512.704-.923 1.248-1.232.555-.309 1.152-.464 1.792-.464zm16.766 0c1.088 0 1.963.336 2.624 1.008.672.661 1.008 1.589 1.008 2.784v5.2h-2.24v-4.896c0-.693-.176-1.221-.528-1.584-.352-.373-.832-.56-1.44-.56s-1.093.187-1.456.56c-.352.363-.528.891-.528 1.584V177h-2.24v-4.896c0-.693-.176-1.221-.528-1.584-.352-.373-.832-.56-1.44-.56-.619 0-1.109.187-1.472.56-.352.363-.528.891-.528 1.584V177h-2.24v-8.864h2.24v1.072c.288-.373.656-.667 1.104-.88.459-.213.96-.32 1.504-.32.693 0 1.312.149 1.856.448.544.288.965.704 1.264 1.248.288-.512.704-.923 1.248-1.232.555-.309 1.152-.464 1.792-.464zm14.126.128V177h-2.256v-1.12c-.288.384-.667.688-1.136.912-.459.213-.96.32-1.504.32-.694 0-1.307-.144-1.84-.432-.534-.299-.955-.731-1.264-1.296-.299-.576-.448-1.259-.448-2.048v-5.2h2.24v4.88c0 .704.176 1.248.528 1.632.352.373.832.56 1.44.56.618 0 1.104-.187 1.456-.56.352-.384.528-.928.528-1.632v-4.88h2.256zm7.122-.128c1.056 0 1.909.336 2.56 1.008.65.661.976 1.589.976 2.784v5.2h-2.24v-4.896c0-.704-.176-1.243-.528-1.616-.352-.384-.832-.576-1.44-.576-.619 0-1.11.192-1.472.576-.352.373-.528.912-.528 1.616V177h-2.24v-8.864h2.24v1.104c.298-.384.677-.683 1.136-.896.469-.224.981-.336 1.536-.336zm6.802-.928c-.395 0-.726-.123-.992-.368-.256-.256-.384-.571-.384-.944s.128-.683.384-.928c.266-.256.597-.384.992-.384.394 0 .72.128.976.384.266.245.4.555.4.928s-.134.688-.4.944c-.256.245-.582.368-.976.368zm1.104 1.056V177h-2.24v-8.864h2.24zm4.821 1.84v4.288c0 .299.069.517.208.656.149.128.395.192.736.192h1.04V177h-1.408c-1.888 0-2.832-.917-2.832-2.752v-4.272h-1.056v-1.84h1.056v-2.192h2.256v2.192h1.984v1.84h-1.984zm12.075-1.84l-5.488 13.056h-2.384l1.92-4.416-3.552-8.64h2.512l2.288 6.192 2.32-6.192h2.384zm2.2 8.976c-.406 0-.742-.123-1.008-.368-.256-.256-.384-.571-.384-.944s.128-.683.384-.928c.266-.256.602-.384 1.008-.384.394 0 .72.128.976.384.256.245.384.555.384.928s-.128.688-.384.944c-.256.245-.582.368-.976.368zm16.528-.112h-2.24l-5.072-7.664V177h-2.24v-11.184h2.24l5.072 7.68v-7.68h2.24V177zm6.15.144c-.853 0-1.621-.187-2.304-.56-.683-.384-1.221-.923-1.616-1.616-.384-.693-.576-1.493-.576-2.4 0-.907.197-1.707.592-2.4.405-.693.955-1.227 1.648-1.6.693-.384 1.467-.576 2.32-.576.853 0 1.627.192 2.32.576.693.373 1.237.907 1.632 1.6.405.693.608 1.493.608 2.4 0 .907-.208 1.707-.624 2.4-.405.693-.96 1.232-1.664 1.616-.693.373-1.472.56-2.336.56zm0-1.952c.405 0 .784-.096 1.136-.288.363-.203.651-.501.864-.896.213-.395.32-.875.32-1.44 0-.843-.224-1.488-.672-1.936-.437-.459-.976-.688-1.616-.688-.64 0-1.179.229-1.616.688-.427.448-.64 1.093-.64 1.936s.208 1.493.624 1.952c.427.448.96.672 1.6.672zm9.503-2.624c0-.917.187-1.717.561-2.4.373-.693.89-1.227 1.552-1.6.661-.384 1.418-.576 2.272-.576 1.098 0 2.005.277 2.72.832.725.544 1.21 1.312 1.456 2.304h-2.416c-.128-.384-.347-.683-.656-.896-.299-.224-.672-.336-1.12-.336-.64 0-1.147.235-1.52.704-.374.459-.56 1.115-.56 1.968 0 .843.186 1.499.56 1.968.373.459.88.688 1.52.688.906 0 1.498-.405 1.776-1.216h2.416c-.246.96-.731 1.723-1.456 2.288-.726.565-1.632.848-2.72.848-.854 0-1.611-.187-2.272-.56-.662-.384-1.179-.917-1.552-1.6-.374-.693-.561-1.499-.561-2.416zm14.138 4.576c-.854 0-1.622-.187-2.304-.56-.683-.384-1.222-.923-1.616-1.616-.384-.693-.576-1.493-.576-2.4 0-.907.197-1.707.592-2.4.405-.693.954-1.227 1.648-1.6.693-.384 1.466-.576 2.32-.576.853 0 1.626.192 2.32.576.693.373 1.237.907 1.632 1.6.405.693.608 1.493.608 2.4 0 .907-.208 1.707-.625 2.4-.405.693-.959 1.232-1.663 1.616-.694.373-1.472.56-2.336.56zm0-1.952c.405 0 .784-.096 1.136-.288.362-.203.65-.501.864-.896.213-.395.32-.875.32-1.44 0-.843-.224-1.488-.672-1.936-.438-.459-.976-.688-1.616-.688-.64 0-1.179.229-1.616.688-.427.448-.64 1.093-.64 1.936s.208 1.493.624 1.952c.426.448.96.672 1.6.672zm9.659 1.952c-.726 0-1.376-.128-1.952-.384-.576-.267-1.035-.624-1.376-1.072-.331-.448-.512-.944-.544-1.488h2.256c.042.341.208.624.496.848.298.224.666.336 1.104.336.426 0 .757-.085.992-.256.245-.171.368-.389.368-.656 0-.288-.15-.501-.448-.64-.288-.149-.752-.309-1.392-.48-.662-.16-1.206-.325-1.632-.496-.416-.171-.779-.432-1.088-.784-.299-.352-.448-.827-.448-1.424 0-.491.138-.939.416-1.344.288-.405.693-.725 1.216-.96.533-.235 1.157-.352 1.872-.352 1.056 0 1.898.267 2.528.8.629.523.976 1.232 1.04 2.128h-2.144c-.032-.352-.182-.629-.448-.832-.256-.213-.603-.32-1.04-.32-.406 0-.72.075-.944.224-.214.149-.32.357-.32.624 0 .299.149.528.448.688.298.149.762.304 1.392.464.64.16 1.168.325 1.584.496.416.171.773.437 1.072.8.309.352.469.821.48 1.408 0 .512-.144.971-.432 1.376-.278.405-.683.725-1.216.96-.523.224-1.136.336-1.84.336zm7.934-7.168v4.288c0 .299.07.517.208.656.15.128.395.192.736.192h1.04V177h-1.408c-1.888 0-2.832-.917-2.832-2.752v-4.272h-1.056v-1.84h1.056v-2.192h2.256v2.192h1.984v1.84h-1.984zm4.588 7.136c-.406 0-.742-.123-1.008-.368-.256-.256-.384-.571-.384-.944s.128-.683.384-.928c.266-.256.602-.384 1.008-.384.394 0 .72.128.976.384.256.245.384.555.384.928s-.128.688-.384.944c-.256.245-.582.368-.976.368zm16.528-.112h-2.24l-5.072-7.664V177h-2.24v-11.184h2.24l5.072 7.68v-7.68h2.24V177zm6.15.144c-.853 0-1.621-.187-2.304-.56-.683-.384-1.221-.923-1.616-1.616-.384-.693-.576-1.493-.576-2.4 0-.907.197-1.707.592-2.4.405-.693.955-1.227 1.648-1.6.693-.384 1.467-.576 2.32-.576.853 0 1.627.192 2.32.576.693.373 1.237.907 1.632 1.6.405.693.608 1.493.608 2.4 0 .907-.208 1.707-.624 2.4-.405.693-.96 1.232-1.664 1.616-.693.373-1.472.56-2.336.56zm0-1.952c.405 0 .784-.096 1.136-.288.363-.203.651-.501.864-.896.213-.395.32-.875.32-1.44 0-.843-.224-1.488-.672-1.936-.437-.459-.976-.688-1.616-.688-.64 0-1.179.229-1.616.688-.427.448-.64 1.093-.64 1.936s.208 1.493.624 1.952c.427.448.96.672 1.6.672zm-235.4 18.224c.289-.405.683-.741 1.185-1.008.512-.277 1.093-.416 1.744-.416.757 0 1.44.187 2.048.56.618.373 1.104.907 1.456 1.6.362.683.544 1.477.544 2.384 0 .907-.182 1.712-.544 2.416-.352.693-.838 1.232-1.456 1.616-.608.384-1.29.576-2.048.576-.65 0-1.227-.133-1.728-.4-.49-.267-.89-.603-1.2-1.008v5.488h-2.24v-13.088h2.24v1.28zm4.689 3.12c0-.533-.112-.992-.336-1.376-.214-.395-.502-.693-.864-.896-.352-.203-.736-.304-1.152-.304-.406 0-.79.107-1.152.32-.352.203-.64.501-.864.896-.214.395-.32.859-.32 1.392 0 .533.106.997.32 1.392.224.395.512.699.864.912.362.203.746.304 1.152.304.416 0 .8-.107 1.152-.32.362-.213.65-.517.864-.912.224-.395.336-.864.336-1.408zm6.156-3.024c.288-.469.66-.837 1.12-1.104.469-.267 1.002-.4 1.6-.4v2.352h-.593c-.703 0-1.237.165-1.6.496-.351.331-.527.907-.527 1.728V201h-2.24v-8.864h2.24v1.376zm12.468 2.864c0 .32-.021.608-.064.864h-6.48c.054.64.278 1.141.672 1.504.395.363.88.544 1.456.544.832 0 1.424-.357 1.776-1.072h2.416c-.256.853-.746 1.557-1.472 2.112-.725.544-1.616.816-2.672.816-.853 0-1.621-.187-2.304-.56-.672-.384-1.2-.923-1.584-1.616-.373-.693-.56-1.493-.56-2.4 0-.917.187-1.723.56-2.416.374-.693.896-1.227 1.568-1.6s1.446-.56 2.32-.56c.843 0 1.595.181 2.256.544.672.363 1.19.88 1.552 1.552.374.661.56 1.424.56 2.288zm-2.32-.64c-.01-.576-.218-1.035-.624-1.376-.405-.352-.901-.528-1.488-.528-.554 0-1.024.171-1.408.512-.373.331-.602.795-.688 1.392h4.208zm10.771-1.392v1.888h-6.784v-1.888h6.784zm4.752-.832c.288-.469.662-.837 1.12-1.104.47-.267 1.003-.4 1.6-.4v2.352h-.592c-.704 0-1.237.165-1.6.496-.352.331-.528.907-.528 1.728V201h-2.24v-8.864h2.24v1.376zm12.47 2.864c0 .32-.022.608-.065.864h-6.48c.053.64.278 1.141.672 1.504.395.363.88.544 1.456.544.832 0 1.424-.357 1.776-1.072h2.416c-.256.853-.746 1.557-1.472 2.112-.725.544-1.616.816-2.672.816-.853 0-1.621-.187-2.304-.56-.672-.384-1.2-.923-1.584-1.616-.373-.693-.56-1.493-.56-2.4 0-.917.187-1.723.56-2.416.374-.693.896-1.227 1.568-1.6s1.446-.56 2.32-.56c.843 0 1.595.181 2.256.544.672.363 1.19.88 1.552 1.552.374.661.56 1.424.56 2.288zm-2.32-.64c-.011-.576-.22-1.035-.625-1.376-.405-.352-.901-.528-1.488-.528-.554 0-1.024.171-1.408.512-.373.331-.602.795-.688 1.392h4.208zm3.378.816c0-.885.181-1.669.544-2.352.373-.693.875-1.232 1.504-1.616.63-.384 1.323-.576 2.08-.576.63 0 1.184.123 1.664.368.49.235.886.539 1.184.912v-1.152h2.256v13.088h-2.256v-5.44c-.298.384-.698.704-1.2.96-.501.256-1.067.384-1.696.384-.747 0-1.435-.192-2.064-.576-.618-.395-1.11-.939-1.472-1.632-.363-.693-.544-1.483-.544-2.368zm6.976.016c0-.544-.112-1.013-.336-1.408-.224-.395-.517-.693-.88-.896-.352-.203-.73-.304-1.136-.304-.395 0-.773.101-1.136.304-.352.203-.64.501-.864.896-.224.384-.336.848-.336 1.392 0 .544.112 1.019.336 1.424.224.395.512.693.864.896.363.203.742.304 1.136.304.405 0 .784-.101 1.136-.304.363-.203.656-.501.88-.896.224-.395.336-.864.336-1.408zm12.812-4.432V201h-2.256v-1.12c-.288.384-.667.688-1.136.912-.459.213-.96.32-1.504.32-.693 0-1.307-.144-1.84-.432-.533-.299-.955-.731-1.264-1.296-.299-.576-.448-1.259-.448-2.048v-5.2h2.24v4.88c0 .704.176 1.248.528 1.632.352.373.832.56 1.44.56.619 0 1.104-.187 1.456-.56.352-.384.528-.928.528-1.632v-4.88h2.256zm3.346-1.056c-.395 0-.725-.123-.992-.368-.256-.256-.384-.571-.384-.944s.128-.683.384-.928c.267-.256.597-.384.992-.384s.72.128.976.384c.267.245.4.555.4.928s-.133.688-.4.944c-.256.245-.581.368-.976.368zm1.104 1.056V201h-2.24v-8.864h2.24zm5.605 9.008c-.725 0-1.376-.128-1.952-.384-.576-.267-1.035-.624-1.376-1.072-.331-.448-.512-.944-.544-1.488h2.256c.043.341.208.624.496.848.299.224.667.336 1.104.336.427 0 .757-.085.992-.256.245-.171.368-.389.368-.656 0-.288-.149-.501-.448-.64-.288-.149-.752-.309-1.392-.48-.661-.16-1.205-.325-1.632-.496-.416-.171-.779-.432-1.088-.784-.299-.352-.448-.827-.448-1.424 0-.491.139-.939.416-1.344.288-.405.693-.725 1.216-.96.533-.235 1.157-.352 1.872-.352 1.056 0 1.899.267 2.528.8.629.523.976 1.232 1.04 2.128h-2.144c-.032-.352-.181-.629-.448-.832-.256-.213-.603-.32-1.04-.32-.405 0-.72.075-.944.224-.213.149-.32.357-.32.624 0 .299.149.528.448.688.299.149.763.304 1.392.464.64.16 1.168.325 1.584.496.416.171.773.437 1.072.8.309.352.469.821.48 1.408 0 .512-.144.971-.432 1.376-.277.405-.683.725-1.216.96-.523.224-1.136.336-1.84.336zm6.463-10.064c-.395 0-.725-.123-.992-.368-.256-.256-.384-.571-.384-.944s.128-.683.384-.928c.267-.256.597-.384.992-.384s.72.128.976.384c.267.245.4.555.4.928s-.133.688-.4.944c-.256.245-.581.368-.976.368zm1.104 1.056V201h-2.24v-8.864h2.24zm4.821 1.84v4.288c0 .299.069.517.208.656.149.128.395.192.736.192h1.04V201h-1.408c-1.888 0-2.832-.917-2.832-2.752v-4.272H130.4v-1.84h1.056v-2.192h2.256v2.192h1.984v1.84h-1.984zm11.835 2.4c0 .32-.021.608-.064.864h-6.48c.053.64.277 1.141.672 1.504s.88.544 1.456.544c.832 0 1.424-.357 1.776-1.072h2.416c-.256.853-.747 1.557-1.472 2.112-.725.544-1.616.816-2.672.816-.853 0-1.621-.187-2.304-.56-.672-.384-1.2-.923-1.584-1.616-.373-.693-.56-1.493-.56-2.4 0-.917.187-1.723.56-2.416.373-.693.896-1.227 1.568-1.6s1.445-.56 2.32-.56c.843 0 1.595.181 2.256.544.672.363 1.189.88 1.552 1.552.373.661.56 1.424.56 2.288zm-2.32-.64c-.011-.576-.219-1.035-.624-1.376-.405-.352-.901-.528-1.488-.528-.555 0-1.024.171-1.408.512-.373.331-.603.795-.688 1.392h4.208zM156.243 201l-3.008-3.776V201h-2.24v-11.84h2.24v6.736l2.976-3.76h2.912l-3.904 4.448 3.936 4.416h-2.912zm9.007-8.992c1.056 0 1.91.336 2.56 1.008.651.661.976 1.589.976 2.784v5.2h-2.24v-4.896c0-.704-.176-1.243-.528-1.616-.352-.384-.832-.576-1.44-.576-.618 0-1.109.192-1.472.576-.352.373-.528.912-.528 1.616V201h-2.24v-8.864h2.24v1.104c.299-.384.678-.683 1.136-.896.47-.224.982-.336 1.536-.336zm9.603 9.136c-.854 0-1.622-.187-2.304-.56-.683-.384-1.222-.923-1.616-1.616-.384-.693-.576-1.493-.576-2.4 0-.907.197-1.707.592-2.4.405-.693.954-1.227 1.648-1.6.693-.384 1.466-.576 2.32-.576.853 0 1.626.192 2.32.576.693.373 1.237.907 1.632 1.6.405.693.608 1.493.608 2.4 0 .907-.208 1.707-.625 2.4-.405.693-.959 1.232-1.663 1.616-.694.373-1.472.56-2.336.56zm0-1.952c.405 0 .784-.096 1.136-.288.362-.203.65-.501.864-.896.213-.395.32-.875.32-1.44 0-.843-.224-1.488-.672-1.936-.438-.459-.976-.688-1.616-.688-.64 0-1.179.229-1.616.688-.427.448-.64 1.093-.64 1.936s.208 1.493.624 1.952c.426.448.96.672 1.6.672zm18.555-7.056L190.816 201H188.4l-1.616-6.192-1.616 6.192h-2.432l-2.608-8.864h2.272l1.568 6.752 1.696-6.752h2.368l1.664 6.736 1.568-6.736h2.144zm3.452-2.976V201h-2.24v-11.84h2.24zm10.453 7.216c0 .32-.022.608-.064.864h-6.48c.053.64.277 1.141.672 1.504.394.363.88.544 1.456.544.832 0 1.424-.357 1.776-1.072h2.416c-.256.853-.747 1.557-1.472 2.112-.726.544-1.616.816-2.672.816-.854 0-1.622-.187-2.304-.56-.672-.384-1.2-.923-1.584-1.616-.374-.693-.56-1.493-.56-2.4 0-.917.186-1.723.56-2.416.373-.693.896-1.227 1.568-1.6s1.445-.56 2.32-.56c.842 0 1.594.181 2.256.544.672.363 1.189.88 1.552 1.552.373.661.56 1.424.56 2.288zm-2.32-.64c-.011-.576-.219-1.035-.624-1.376-.406-.352-.902-.528-1.488-.528-.555 0-1.024.171-1.408.512-.374.331-.603.795-.688 1.392h4.208zm3.379.8c0-.896.176-1.691.528-2.384.362-.693.853-1.227 1.472-1.6.618-.373 1.306-.56 2.064-.56.576 0 1.125.128 1.648.384.522.245.938.576 1.248.992v-4.208h2.272V201h-2.272v-1.312c-.278.437-.667.789-1.168 1.056-.502.267-1.083.4-1.744.4-.747 0-1.43-.192-2.048-.576-.619-.384-1.11-.923-1.472-1.616-.352-.704-.528-1.509-.528-2.416zm6.976.032c0-.544-.107-1.008-.32-1.392-.214-.395-.502-.693-.864-.896-.363-.213-.752-.32-1.168-.32-.416 0-.8.101-1.152.304-.352.203-.64.501-.864.896-.214.384-.32.843-.32 1.376 0 .533.106 1.003.32 1.408.224.395.512.699.864.912.362.213.746.32 1.152.32.416 0 .805-.101 1.168-.304.362-.213.65-.512.864-.896.213-.395.32-.864.32-1.408zm7.916-4.576c.661 0 1.242.133 1.744.4.501.256.896.592 1.184 1.008v-1.264h2.256v8.928c0 .821-.166 1.552-.496 2.192-.331.651-.827 1.163-1.488 1.536-.662.384-1.462.576-2.4.576-1.259 0-2.294-.293-3.104-.88-.8-.587-1.254-1.387-1.36-2.4h2.224c.117.405.368.725.752.96.394.245.869.368 1.424.368.65 0 1.178-.197 1.584-.592.405-.384.608-.971.608-1.76v-1.376c-.288.416-.688.763-1.2 1.04-.502.277-1.078.416-1.728.416-.747 0-1.43-.192-2.048-.576-.619-.384-1.11-.923-1.473-1.616-.352-.704-.528-1.509-.528-2.416 0-.896.176-1.691.528-2.384.363-.693.849-1.227 1.457-1.6.618-.373 1.306-.56 2.064-.56zm2.928 4.576c0-.544-.107-1.008-.32-1.392-.214-.395-.502-.693-.864-.896-.363-.213-.752-.32-1.168-.32-.416 0-.8.101-1.152.304-.352.203-.64.501-.864.896-.214.384-.32.843-.32 1.376 0 .533.106 1.003.32 1.408.224.395.512.699.864.912.362.213.746.32 1.152.32.416 0 .805-.101 1.168-.304.362-.213.65-.512.864-.896.213-.395.32-.864.32-1.408zm12.683-.192c0 .32-.021.608-.064.864h-6.48c.054.64.278 1.141.672 1.504.395.363.88.544 1.456.544.832 0 1.424-.357 1.776-1.072h2.416c-.256.853-.746 1.557-1.472 2.112-.725.544-1.616.816-2.672.816-.853 0-1.621-.187-2.304-.56-.672-.384-1.2-.923-1.584-1.616-.373-.693-.56-1.493-.56-2.4 0-.917.187-1.723.56-2.416.374-.693.896-1.227 1.568-1.6s1.446-.56 2.32-.56c.843 0 1.595.181 2.256.544.672.363 1.19.88 1.552 1.552.374.661.56 1.424.56 2.288zm-2.32-.64c-.01-.576-.218-1.035-.624-1.376-.405-.352-.901-.528-1.488-.528-.554 0-1.024.171-1.408.512-.373.331-.602.795-.688 1.392h4.208zm4.947 5.376c-.405 0-.741-.123-1.008-.368-.256-.256-.384-.571-.384-.944s.128-.683.384-.928c.267-.256.603-.384 1.008-.384.395 0 .72.128.976.384.256.245.384.555.384.928s-.128.688-.384.944c-.256.245-.581.368-.976.368zm13.489-11.28v7.84c0 1.088-.315 1.936-.944 2.544-.629.597-1.472.896-2.528.896-1.067 0-1.931-.309-2.592-.928-.651-.619-.976-1.483-.976-2.592h2.24c.011.48.123.853.336 1.12.224.267.544.4.96.4.405 0 .715-.128.928-.384.213-.256.32-.608.32-1.056v-7.84h2.256zm10.981 2.304V201h-2.256v-1.12c-.288.384-.667.688-1.136.912-.459.213-.96.32-1.504.32-.693 0-1.307-.144-1.84-.432-.533-.299-.955-.731-1.264-1.296-.299-.576-.448-1.259-.448-2.048v-5.2h2.24v4.88c0 .704.176 1.248.528 1.632.352.373.832.56 1.44.56.619 0 1.104-.187 1.456-.56.352-.384.528-.928.528-1.632v-4.88h2.256zm5.602 9.008c-.725 0-1.376-.128-1.952-.384-.576-.267-1.035-.624-1.376-1.072-.331-.448-.512-.944-.544-1.488h2.256c.043.341.208.624.496.848.299.224.667.336 1.104.336.427 0 .757-.085.992-.256.245-.171.368-.389.368-.656 0-.288-.149-.501-.448-.64-.288-.149-.752-.309-1.392-.48-.661-.16-1.205-.325-1.632-.496-.416-.171-.779-.432-1.088-.784-.299-.352-.448-.827-.448-1.424 0-.491.139-.939.416-1.344.288-.405.693-.725 1.216-.96.533-.235 1.157-.352 1.872-.352 1.056 0 1.899.267 2.528.8.629.523.976 1.232 1.04 2.128h-2.144c-.032-.352-.181-.629-.448-.832-.256-.213-.603-.32-1.04-.32-.405 0-.72.075-.944.224-.213.149-.32.357-.32.624 0 .299.149.528.448.688.299.149.763.304 1.392.464.64.16 1.168.325 1.584.496.416.171.773.437 1.072.8.309.352.469.821.48 1.408 0 .512-.144.971-.432 1.376-.277.405-.683.725-1.216.96-.523.224-1.136.336-1.84.336zm7.935-7.168v4.288c0 .299.069.517.208.656.149.128.395.192.736.192h1.04V201h-1.408c-1.888 0-2.832-.917-2.832-2.752v-4.272h-1.056v-1.84h1.056v-2.192h2.256v2.192h1.984v1.84h-1.984zm-181.403 26.56c0-.896.176-1.691.528-2.384.363-.693.848-1.227 1.456-1.6.619-.373 1.307-.56 2.064-.56.661 0 1.237.133 1.728.4.501.267.901.603 1.2 1.008v-1.264h2.256V225h-2.256v-1.296c-.288.416-.688.763-1.2 1.04-.501.267-1.083.4-1.744.4-.747 0-1.429-.192-2.048-.576-.608-.384-1.093-.923-1.456-1.616-.352-.704-.528-1.509-.528-2.416zm6.976.032c0-.544-.107-1.008-.32-1.392-.213-.395-.501-.693-.864-.896-.363-.213-.752-.32-1.168-.32-.416 0-.8.101-1.152.304-.352.203-.64.501-.864.896-.213.384-.32.843-.32 1.376 0 .533.107 1.003.32 1.408.224.395.512.699.864.912.363.213.747.32 1.152.32.416 0 .805-.101 1.168-.304.363-.213.651-.512.864-.896.213-.395.32-.864.32-1.408zm19.264-4.56c1.088 0 1.963.336 2.624 1.008.672.661 1.008 1.589 1.008 2.784v5.2h-2.24v-4.896c0-.693-.176-1.221-.528-1.584-.352-.373-.832-.56-1.44-.56s-1.093.187-1.456.56c-.352.363-.528.891-.528 1.584V225h-2.24v-4.896c0-.693-.176-1.221-.528-1.584-.352-.373-.832-.56-1.44-.56-.618 0-1.109.187-1.472.56-.352.363-.528.891-.528 1.584V225h-2.24v-8.864h2.24v1.072c.288-.373.656-.667 1.104-.88.459-.213.96-.32 1.504-.32.694 0 1.312.149 1.856.448.544.288.966.704 1.264 1.248.288-.512.704-.923 1.248-1.232.555-.309 1.152-.464 1.792-.464zm6.894-.928c-.395 0-.725-.123-.992-.368-.256-.256-.384-.571-.384-.944s.128-.683.384-.928c.267-.256.597-.384.992-.384s.72.128.976.384c.267.245.4.555.4.928s-.133.688-.4.944c-.256.245-.581.368-.976.368zm1.104 1.056V225h-2.24v-8.864h2.24zm7.125-.128c1.056 0 1.909.336 2.56 1.008.651.661.976 1.589.976 2.784v5.2h-2.24v-4.896c0-.704-.176-1.243-.528-1.616-.352-.384-.832-.576-1.44-.576-.619 0-1.109.192-1.472.576-.352.373-.528.912-.528 1.616V225h-2.24v-8.864h2.24v1.104c.299-.384.677-.683 1.136-.896.469-.224.981-.336 1.536-.336zm5.09 4.528c0-.896.176-1.691.528-2.384.363-.693.854-1.227 1.472-1.6.619-.373 1.307-.56 2.064-.56.576 0 1.126.128 1.648.384.523.245.939.576 1.248.992v-4.208h2.272V225h-2.272v-1.312c-.277.437-.666.789-1.168 1.056-.501.267-1.082.4-1.744.4-.746 0-1.429-.192-2.048-.576-.618-.384-1.109-.923-1.472-1.616-.352-.704-.528-1.509-.528-2.416zm6.976.032c0-.544-.106-1.008-.32-1.392-.213-.395-.501-.693-.864-.896-.362-.213-.752-.32-1.168-.32-.416 0-.8.101-1.152.304-.352.203-.64.501-.864.896-.213.384-.32.843-.32 1.376 0 .533.107 1.003.32 1.408.224.395.512.699.864.912.363.213.747.32 1.152.32.416 0 .806-.101 1.168-.304.363-.213.651-.512.864-.896.214-.395.32-.864.32-1.408zm7.836 4.576c-.725 0-1.376-.128-1.952-.384-.576-.267-1.035-.624-1.376-1.072-.331-.448-.512-.944-.544-1.488h2.256c.043.341.208.624.496.848.299.224.667.336 1.104.336.427 0 .757-.085.992-.256.245-.171.368-.389.368-.656 0-.288-.149-.501-.448-.64-.288-.149-.752-.309-1.392-.48-.661-.16-1.205-.325-1.632-.496-.416-.171-.779-.432-1.088-.784-.299-.352-.448-.827-.448-1.424 0-.491.139-.939.416-1.344.288-.405.693-.725 1.216-.96.533-.235 1.157-.352 1.872-.352 1.056 0 1.899.267 2.528.8.629.523.976 1.232 1.04 2.128h-2.144c-.032-.352-.181-.629-.448-.832-.256-.213-.603-.32-1.04-.32-.405 0-.72.075-.944.224-.213.149-.32.357-.32.624 0 .299.149.528.448.688.299.149.763.304 1.392.464.64.16 1.168.325 1.584.496.416.171.773.437 1.072.8.309.352.469.821.48 1.408 0 .512-.144.971-.432 1.376-.277.405-.683.725-1.216.96-.523.224-1.136.336-1.84.336zm13.567-4.768c0 .32-.022.608-.064.864h-6.48c.053.64.277 1.141.672 1.504.394.363.88.544 1.456.544.832 0 1.424-.357 1.776-1.072h2.416c-.256.853-.747 1.557-1.472 2.112-.726.544-1.616.816-2.672.816-.854 0-1.622-.187-2.304-.56-.672-.384-1.2-.923-1.584-1.616-.374-.693-.56-1.493-.56-2.4 0-.917.186-1.723.56-2.416.373-.693.896-1.227 1.568-1.6s1.445-.56 2.32-.56c.842 0 1.594.181 2.256.544.672.363 1.189.88 1.552 1.552.373.661.56 1.424.56 2.288zm-2.32-.64c-.011-.576-.219-1.035-.624-1.376-.406-.352-.902-.528-1.488-.528-.555 0-1.024.171-1.408.512-.374.331-.603.795-.688 1.392h4.208zm6.563-1.76v4.288c0 .299.069.517.208.656.149.128.394.192.736.192h1.04V225h-1.408c-1.888 0-2.832-.917-2.832-2.752v-4.272h-1.056v-1.84h1.056v-2.192h2.256v2.192h1.984v1.84h-1.984zm10.015 0v4.288c0 .299.07.517.208.656.15.128.395.192.736.192h1.04V225h-1.408c-1.888 0-2.832-.917-2.832-2.752v-4.272h-1.056v-1.84h1.056v-2.192h2.256v2.192h1.984v1.84h-1.984zm7.532 7.168c-.854 0-1.622-.187-2.304-.56-.683-.384-1.222-.923-1.616-1.616-.384-.693-.576-1.493-.576-2.4 0-.907.197-1.707.592-2.4.405-.693.954-1.227 1.648-1.6.693-.384 1.466-.576 2.32-.576.853 0 1.626.192 2.32.576.693.373 1.237.907 1.632 1.6.405.693.608 1.493.608 2.4 0 .907-.208 1.707-.625 2.4-.405.693-.959 1.232-1.663 1.616-.694.373-1.472.56-2.336.56zm0-1.952c.405 0 .784-.096 1.136-.288.362-.203.65-.501.864-.896.213-.395.32-.875.32-1.44 0-.843-.224-1.488-.672-1.936-.438-.459-.976-.688-1.616-.688-.64 0-1.179.229-1.616.688-.427.448-.64 1.093-.64 1.936s.208 1.493.624 1.952c.426.448.96.672 1.6.672zm12.319-10.032V225h-2.24v-11.84h2.24zm10.453 7.216c0 .32-.021.608-.064.864h-6.48c.054.64.278 1.141.672 1.504.395.363.88.544 1.456.544.832 0 1.424-.357 1.776-1.072h2.416c-.256.853-.746 1.557-1.472 2.112-.725.544-1.616.816-2.672.816-.853 0-1.621-.187-2.304-.56-.672-.384-1.2-.923-1.584-1.616-.373-.693-.56-1.493-.56-2.4 0-.917.187-1.723.56-2.416.374-.693.896-1.227 1.568-1.6s1.446-.56 2.32-.56c.843 0 1.595.181 2.256.544.672.363 1.19.88 1.552 1.552.374.661.56 1.424.56 2.288zm-2.32-.64c-.01-.576-.218-1.035-.624-1.376-.405-.352-.901-.528-1.488-.528-.554 0-1.024.171-1.408.512-.373.331-.602.795-.688 1.392h4.208zm3.379.8c0-.896.176-1.691.528-2.384.363-.693.848-1.227 1.456-1.6.619-.373 1.307-.56 2.064-.56.662 0 1.238.133 1.728.4.502.267.902.603 1.2 1.008v-1.264h2.256V225h-2.256v-1.296c-.288.416-.688.763-1.2 1.04-.501.267-1.082.4-1.744.4-.746 0-1.429-.192-2.048-.576-.608-.384-1.093-.923-1.456-1.616-.352-.704-.528-1.509-.528-2.416zm6.976.032c0-.544-.106-1.008-.32-1.392-.213-.395-.501-.693-.864-.896-.362-.213-.752-.32-1.168-.32-.416 0-.8.101-1.152.304-.352.203-.64.501-.864.896-.213.384-.32.843-.32 1.376 0 .533.107 1.003.32 1.408.224.395.512.699.864.912.363.213.747.32 1.152.32.416 0 .806-.101 1.168-.304.363-.213.651-.512.864-.896.214-.395.32-.864.32-1.408zm6.684-3.056c.288-.469.661-.837 1.12-1.104.469-.267 1.003-.4 1.6-.4v2.352h-.592c-.704 0-1.237.165-1.6.496-.352.331-.528.907-.528 1.728V225h-2.24v-8.864h2.24v1.376zm9.141-1.504c1.056 0 1.909.336 2.56 1.008.65.661.976 1.589.976 2.784v5.2h-2.24v-4.896c0-.704-.176-1.243-.528-1.616-.352-.384-.832-.576-1.44-.576-.619 0-1.11.192-1.472.576-.352.373-.528.912-.528 1.616V225h-2.24v-8.864h2.24v1.104c.298-.384.677-.683 1.136-.896.469-.224.981-.336 1.536-.336zm8.902 4.528c0-.896.176-1.691.528-2.384.363-.693.848-1.227 1.456-1.6.619-.373 1.307-.56 2.064-.56.662 0 1.238.133 1.728.4.502.267.902.603 1.2 1.008v-1.264h2.256V225h-2.256v-1.296c-.288.416-.688.763-1.2 1.04-.501.267-1.082.4-1.744.4-.746 0-1.429-.192-2.048-.576-.608-.384-1.093-.923-1.456-1.616-.352-.704-.528-1.509-.528-2.416zm6.976.032c0-.544-.106-1.008-.32-1.392-.213-.395-.501-.693-.864-.896-.362-.213-.752-.32-1.168-.32-.416 0-.8.101-1.152.304-.352.203-.64.501-.864.896-.213.384-.32.843-.32 1.376 0 .533.107 1.003.32 1.408.224.395.512.699.864.912.363.213.747.32 1.152.32.416 0 .806-.101 1.168-.304.363-.213.651-.512.864-.896.214-.395.32-.864.32-1.408zm9.356-4.56c1.056 0 1.909.336 2.56 1.008.651.661.976 1.589.976 2.784v5.2h-2.24v-4.896c0-.704-.176-1.243-.528-1.616-.352-.384-.832-.576-1.44-.576-.619 0-1.109.192-1.472.576-.352.373-.528.912-.528 1.616V225h-2.24v-8.864h2.24v1.104c.299-.384.677-.683 1.136-.896.469-.224.981-.336 1.536-.336zm5.09 4.528c0-.896.176-1.691.528-2.384.363-.693.854-1.227 1.472-1.6.619-.373 1.307-.56 2.064-.56.576 0 1.126.128 1.648.384.523.245.939.576 1.248.992v-4.208h2.272V225h-2.272v-1.312c-.277.437-.666.789-1.168 1.056-.501.267-1.082.4-1.744.4-.746 0-1.429-.192-2.048-.576-.618-.384-1.109-.923-1.472-1.616-.352-.704-.528-1.509-.528-2.416zm6.976.032c0-.544-.106-1.008-.32-1.392-.213-.395-.501-.693-.864-.896-.362-.213-.752-.32-1.168-.32-.416 0-.8.101-1.152.304-.352.203-.64.501-.864.896-.213.384-.32.843-.32 1.376 0 .533.107 1.003.32 1.408.224.395.512.699.864.912.363.213.747.32 1.152.32.416 0 .806-.101 1.168-.304.363-.213.651-.512.864-.896.214-.395.32-.864.32-1.408zm-85.32 24c0-.917.187-1.717.561-2.4.373-.693.89-1.227 1.552-1.6.661-.384 1.418-.576 2.272-.576 1.098 0 2.005.277 2.72.832.725.544 1.21 1.312 1.456 2.304h-2.416c-.128-.384-.347-.683-.656-.896-.299-.224-.672-.336-1.12-.336-.64 0-1.147.235-1.52.704-.374.459-.56 1.115-.56 1.968 0 .843.186 1.499.56 1.968.373.459.88.688 1.52.688.906 0 1.498-.405 1.776-1.216h2.416c-.246.96-.731 1.723-1.456 2.288-.726.565-1.632.848-2.72.848-.854 0-1.611-.187-2.272-.56-.662-.384-1.179-.917-1.552-1.6-.374-.693-.561-1.499-.561-2.416zm14.138 4.576c-.854 0-1.622-.187-2.304-.56-.683-.384-1.222-.923-1.616-1.616-.384-.693-.576-1.493-.576-2.4 0-.907.197-1.707.592-2.4.405-.693.954-1.227 1.648-1.6.693-.384 1.466-.576 2.32-.576.853 0 1.626.192 2.32.576.693.373 1.237.907 1.632 1.6.405.693.608 1.493.608 2.4 0 .907-.208 1.707-.625 2.4-.405.693-.959 1.232-1.663 1.616-.694.373-1.472.56-2.336.56zm0-1.952c.405 0 .784-.096 1.136-.288.362-.203.65-.501.864-.896.213-.395.32-.875.32-1.44 0-.843-.224-1.488-.672-1.936-.438-.459-.976-.688-1.616-.688-.64 0-1.179.229-1.616.688-.427.448-.64 1.093-.64 1.936s.208 1.493.624 1.952c.426.448.96.672 1.6.672zm11.179-7.184c1.056 0 1.909.336 2.56 1.008.65.661.976 1.589.976 2.784v5.2h-2.24v-4.896c0-.704-.176-1.243-.528-1.616-.352-.384-.832-.576-1.44-.576-.619 0-1.11.192-1.472.576-.352.373-.528.912-.528 1.616V249h-2.24v-8.864h2.24v1.104c.298-.384.677-.683 1.136-.896.469-.224.981-.336 1.536-.336zm8.274 1.968v4.288c0 .299.069.517.208.656.149.128.394.192.736.192h1.04V249h-1.408c-1.888 0-2.832-.917-2.832-2.752v-4.272h-1.056v-1.84h1.056v-2.192h2.256v2.192h1.984v1.84h-1.984zm5.835-.464c.288-.469.661-.837 1.12-1.104.469-.267 1.003-.4 1.6-.4v2.352h-.592c-.704 0-1.237.165-1.6.496-.352.331-.528.907-.528 1.728V249h-2.24v-8.864h2.24v1.376zm5.365-2.432c-.395 0-.726-.123-.992-.368-.256-.256-.384-.571-.384-.944s.128-.683.384-.928c.266-.256.597-.384.992-.384.394 0 .72.128.976.384.266.245.4.555.4.928s-.134.688-.4.944c-.256.245-.582.368-.976.368zm1.104 1.056V249h-2.24v-8.864h2.24zm4.453 1.296c.288-.427.682-.773 1.184-1.04.512-.267 1.093-.4 1.744-.4.757 0 1.44.187 2.048.56.618.373 1.104.907 1.456 1.6.362.683.544 1.477.544 2.384 0 .907-.182 1.712-.544 2.416-.352.693-.838 1.232-1.456 1.616-.608.384-1.291.576-2.048.576-.662 0-1.243-.128-1.744-.384-.491-.267-.886-.608-1.184-1.024V249h-2.24v-11.84h2.24v4.272zm4.688 3.104c0-.533-.112-.992-.336-1.376-.214-.395-.502-.693-.864-.896-.352-.203-.736-.304-1.152-.304-.406 0-.79.107-1.152.32-.352.203-.64.501-.864.896-.214.395-.32.859-.32 1.392 0 .533.106.997.32 1.392.224.395.512.699.864.912.362.203.746.304 1.152.304.416 0 .8-.107 1.152-.32.362-.213.65-.517.864-.912.224-.395.336-.864.336-1.408zm12.284-4.4V249h-2.256v-1.12c-.288.384-.667.688-1.136.912-.459.213-.96.32-1.504.32-.694 0-1.307-.144-1.84-.432-.534-.299-.955-.731-1.264-1.296-.299-.576-.448-1.259-.448-2.048v-5.2h2.24v4.88c0 .704.176 1.248.528 1.632.352.373.832.56 1.44.56.618 0 1.104-.187 1.456-.56.352-.384.528-.928.528-1.632v-4.88h2.256zm4.818 1.84v4.288c0 .299.069.517.208.656.149.128.394.192.736.192h1.04V249h-1.408c-1.888 0-2.832-.917-2.832-2.752v-4.272h-1.056v-1.84h1.056v-2.192h2.256v2.192h1.984v1.84h-1.984zm11.835 2.4c0 .32-.022.608-.064.864h-6.48c.053.64.277 1.141.672 1.504.394.363.88.544 1.456.544.832 0 1.424-.357 1.776-1.072h2.416c-.256.853-.747 1.557-1.472 2.112-.726.544-1.616.816-2.672.816-.854 0-1.622-.187-2.304-.56-.672-.384-1.2-.923-1.584-1.616-.374-.693-.56-1.493-.56-2.4 0-.917.186-1.723.56-2.416.373-.693.896-1.227 1.568-1.6s1.445-.56 2.32-.56c.842 0 1.594.181 2.256.544.672.363 1.189.88 1.552 1.552.373.661.56 1.424.56 2.288zm-2.32-.64c-.011-.576-.219-1.035-.624-1.376-.406-.352-.902-.528-1.488-.528-.555 0-1.024.171-1.408.512-.374.331-.603.795-.688 1.392h4.208zm4.947 5.376c-.406 0-.742-.123-1.008-.368-.256-.256-.384-.571-.384-.944s.128-.683.384-.928c.266-.256.602-.384 1.008-.384.394 0 .72.128.976.384.256.245.384.555.384.928s-.128.688-.384.944c-.256.245-.582.368-.976.368z"/>
    </g>
    <defs>
        <clipPath id="prefix__clip0">
            <path fill="#fff" d="M0 0H304V354H0z"/>
        </clipPath>
    </defs>
</svg>
