<svg xmlns="http://www.w3.org/2000/svg" width="304" height="354" fill="none" viewBox="0 0 304 354">
    <g clip-path="url(#prefix__clip0)">
        <path fill="#2BA4DC" d="M0 0H304V362H0z"/>
        <path fill="#fff" d="M92.335 319.144c0-16.608 2.976-29.616 8.928-39.024 6.048-9.408 16.032-14.112 29.952-14.112 13.92 0 23.856 4.704 29.808 14.112 6.048 9.408 9.072 22.416 9.072 39.024 0 16.704-3.024 29.808-9.072 39.312-5.952 9.504-15.888 14.256-29.808 14.256s-23.904-4.752-29.952-14.256c-5.952-9.504-8.928-22.608-8.928-39.312zm57.888 0c0-7.104-.48-13.056-1.44-17.856-.864-4.896-2.688-8.88-5.472-11.952-2.688-3.072-6.72-4.608-12.096-4.608s-9.456 1.536-12.24 4.608c-2.688 3.072-4.512 7.056-5.472 11.952-.864 4.8-1.296 10.752-1.296 17.856 0 7.296.432 13.44 1.296 18.432.864 4.896 2.688 8.88 5.472 11.952 2.784 2.976 6.864 4.464 12.24 4.464s9.456-1.488 12.24-4.464c2.784-3.072 4.608-7.056 5.472-11.952.864-4.992 1.296-11.136 1.296-18.432zm34.342 33.408v-15.84l47.088-67.392h23.472v65.664h12.672v17.568h-12.672V373h-20.16v-20.448h-50.4zm51.696-61.632l-29.52 44.064h29.52V290.92z" opacity=".2"/>
        <path fill="#fff" d="M161.44 67.252c-3.048 0-5.568-.708-7.56-2.124-1.968-1.44-3.036-3.54-3.204-6.3h8.496c.12 1.464.768 2.196 1.944 2.196.432 0 .792-.096 1.08-.288.312-.216.468-.54.468-.972 0-.6-.324-1.08-.972-1.44-.648-.384-1.656-.816-3.024-1.296-1.632-.576-2.988-1.14-4.068-1.692-1.056-.552-1.968-1.356-2.736-2.412-.768-1.056-1.14-2.412-1.116-4.068 0-1.656.42-3.06 1.26-4.212.864-1.176 2.028-2.064 3.492-2.664 1.488-.6 3.156-.9 5.004-.9 3.12 0 5.592.72 7.416 2.16 1.848 1.44 2.82 3.468 2.916 6.084h-8.604c-.024-.72-.204-1.236-.54-1.548-.336-.312-.744-.468-1.224-.468-.336 0-.612.12-.828.36-.216.216-.324.528-.324.936 0 .576.312 1.056.936 1.44.648.36 1.668.804 3.06 1.332 1.608.6 2.928 1.176 3.96 1.728 1.056.552 1.968 1.32 2.736 2.304.768.984 1.152 2.22 1.152 3.708 0 1.56-.384 2.964-1.152 4.212-.768 1.224-1.884 2.184-3.348 2.88-1.464.696-3.204 1.044-5.22 1.044zm25.164-7.056V67h-3.024c-5.568 0-8.352-2.772-8.352-8.316v-5.328h-2.52v-6.66h2.52V41.8h7.992v4.896h3.312v6.66h-3.312v5.472c0 .48.108.828.324 1.044.24.216.624.324 1.152.324h1.908zm1.964-3.348c0-2.136.36-3.984 1.08-5.544.744-1.584 1.752-2.784 3.024-3.6 1.272-.84 2.7-1.26 4.284-1.26 1.32 0 2.46.276 3.42.828.96.528 1.692 1.26 2.196 2.196v-2.772h7.956V67h-7.956v-2.772c-.504.936-1.236 1.68-2.196 2.232-.96.528-2.1.792-3.42.792-1.584 0-3.012-.408-4.284-1.224-1.272-.84-2.28-2.04-3.024-3.6-.72-1.584-1.08-3.444-1.08-5.58zm14.004 0c0-1.08-.276-1.92-.828-2.52-.552-.6-1.26-.9-2.124-.9-.864 0-1.572.3-2.124.9-.552.6-.828 1.44-.828 2.52s.276 1.92.828 2.52c.552.6 1.26.9 2.124.9.864 0 1.572-.3 2.124-.9.552-.6.828-1.44.828-2.52zm34.476-10.152L224.052 76.72h-8.748l5.112-10.728-8.46-19.296h8.892l3.816 10.296 3.564-10.296h8.82zm11.581-1.62c-1.392 0-2.508-.372-3.348-1.116-.84-.744-1.26-1.68-1.26-2.808 0-1.152.42-2.1 1.26-2.844.84-.768 1.956-1.152 3.348-1.152 1.368 0 2.472.384 3.312 1.152.84.744 1.26 1.692 1.26 2.844 0 1.128-.42 2.064-1.26 2.808-.84.744-1.944 1.116-3.312 1.116zm3.96 1.62V67h-7.992V46.696h7.992zm17.829-.144c2.328 0 4.14.78 5.436 2.34 1.32 1.56 1.98 3.672 1.98 6.336V67h-7.956V56.236c0-.96-.264-1.716-.792-2.268-.504-.576-1.188-.864-2.052-.864-.888 0-1.584.288-2.088.864-.504.552-.756 1.308-.756 2.268V67h-7.992V46.696h7.992v3.096c.624-.96 1.452-1.74 2.484-2.34 1.056-.6 2.304-.9 3.744-.9zm-158.029 55.644V109h-3.024c-5.568 0-8.352-2.772-8.352-8.316v-5.328h-2.52v-6.66h2.52V83.8h7.992v4.896h3.312v6.66h-3.312v5.472c0 .48.108.828.324 1.044.24.216.624.324 1.152.324h1.908zm17.264-13.644c2.328 0 4.14.78 5.436 2.34 1.32 1.56 1.98 3.672 1.98 6.336V109h-7.956V98.236c0-.96-.264-1.716-.792-2.268-.504-.576-1.188-.864-2.052-.864-.888 0-1.584.288-2.088.864-.504.552-.756 1.308-.756 2.268V109h-7.992V82.36h7.992v9.432c.624-.96 1.452-1.74 2.484-2.34 1.056-.6 2.304-.9 3.744-.9zm30.537 10.116c0 .552-.036 1.08-.108 1.584H147.23c.12 1.752.852 2.628 2.196 2.628.864 0 1.488-.396 1.872-1.188h8.46c-.288 1.44-.9 2.736-1.836 3.888-.912 1.128-2.076 2.028-3.492 2.7-1.392.648-2.928.972-4.608.972-2.016 0-3.816-.42-5.4-1.26-1.56-.84-2.784-2.04-3.672-3.6-.864-1.584-1.296-3.432-1.296-5.544 0-2.112.432-3.948 1.296-5.508.888-1.584 2.112-2.796 3.672-3.636 1.584-.84 3.384-1.26 5.4-1.26 2.016 0 3.804.42 5.364 1.26 1.584.816 2.808 1.992 3.672 3.528.888 1.536 1.332 3.348 1.332 5.436zm-8.1-1.908c0-.672-.216-1.176-.648-1.512-.432-.36-.972-.54-1.62-.54-1.416 0-2.244.684-2.484 2.052h4.752zm32.369-4.536c-.312-.504-.756-.888-1.332-1.152-.576-.288-1.272-.432-2.088-.432-1.536 0-2.724.504-3.564 1.512-.84.984-1.26 2.34-1.26 4.068 0 1.992.468 3.48 1.404 4.464.936.984 2.376 1.476 4.32 1.476 1.848 0 3.336-.744 4.464-2.232h-6.372v-5.652h12.996v7.992c-1.104 1.896-2.628 3.528-4.572 4.896-1.944 1.344-4.404 2.016-7.38 2.016-2.64 0-4.944-.54-6.912-1.62-1.944-1.104-3.444-2.64-4.5-4.608-1.032-1.968-1.548-4.212-1.548-6.732 0-2.52.516-4.764 1.548-6.732 1.056-1.968 2.556-3.492 4.5-4.572 1.944-1.104 4.224-1.656 6.84-1.656 3.336 0 6.048.804 8.136 2.412 2.112 1.608 3.36 3.792 3.744 6.552h-8.424zm10.366 6.624c0-2.136.36-3.984 1.08-5.544.744-1.584 1.752-2.784 3.024-3.6 1.272-.84 2.7-1.26 4.284-1.26 1.32 0 2.46.276 3.42.828.96.528 1.692 1.26 2.196 2.196v-2.772h7.956V109h-7.956v-2.772c-.504.936-1.236 1.68-2.196 2.232-.96.528-2.1.792-3.42.792-1.584 0-3.012-.408-4.284-1.224-1.272-.84-2.28-2.04-3.024-3.6-.72-1.584-1.08-3.444-1.08-5.58zm14.004 0c0-1.08-.276-1.92-.828-2.52-.552-.6-1.26-.9-2.124-.9-.864 0-1.572.3-2.124.9-.552.6-.828 1.44-.828 2.52s.276 1.92.828 2.52c.552.6 1.26.9 2.124.9.864 0 1.572-.3 2.124-.9.552-.6.828-1.44.828-2.52zm38.653-10.296c2.592 0 4.596.78 6.012 2.34 1.44 1.56 2.16 3.672 2.16 6.336V109h-7.956V98.236c0-.864-.264-1.536-.792-2.016-.504-.504-1.188-.756-2.052-.756-.888 0-1.584.252-2.088.756-.504.48-.756 1.152-.756 2.016V109h-7.956V98.236c0-.864-.264-1.536-.792-2.016-.504-.504-1.188-.756-2.052-.756-.888 0-1.584.252-2.088.756-.504.48-.756 1.152-.756 2.016V109h-7.992V88.696h7.992v2.736c.576-.864 1.356-1.56 2.34-2.088 1.008-.528 2.184-.792 3.528-.792 1.464 0 2.76.324 3.888.972 1.128.624 2.028 1.512 2.7 2.664.744-1.056 1.692-1.92 2.844-2.592 1.152-.696 2.424-1.044 3.816-1.044zm31.29 10.116c0 .552-.036 1.08-.108 1.584h-12.852c.12 1.752.852 2.628 2.196 2.628.864 0 1.488-.396 1.872-1.188h8.46c-.288 1.44-.9 2.736-1.836 3.888-.912 1.128-2.076 2.028-3.492 2.7-1.392.648-2.928.972-4.608.972-2.016 0-3.816-.42-5.4-1.26-1.56-.84-2.784-2.04-3.672-3.6-.864-1.584-1.296-3.432-1.296-5.544 0-2.112.432-3.948 1.296-5.508.888-1.584 2.112-2.796 3.672-3.636 1.584-.84 3.384-1.26 5.4-1.26 2.016 0 3.804.42 5.364 1.26 1.584.816 2.808 1.992 3.672 3.528.888 1.536 1.332 3.348 1.332 5.436zm-8.1-1.908c0-.672-.216-1.176-.648-1.512-.432-.36-.972-.54-1.62-.54-1.416 0-2.244.684-2.484 2.052h4.752zM104.836 145.832c1.173 0 2.203.229 3.088.688.896.459 1.584 1.115 2.064 1.968.491.843.736 1.824.736 2.944 0 1.12-.245 2.101-.736 2.944-.48.832-1.168 1.477-2.064 1.936-.885.459-1.915.688-3.088.688h-3.904v-11.168h3.904zm-.08 9.264c1.173 0 2.08-.32 2.72-.96.64-.64.96-1.541.96-2.704 0-1.163-.32-2.069-.96-2.72-.64-.661-1.547-.992-2.72-.992h-1.584v7.376h1.584zm8.781-8.016c-.395 0-.725-.123-.992-.368-.256-.256-.384-.571-.384-.944s.128-.683.384-.928c.267-.256.597-.384.992-.384s.72.128.976.384c.267.245.4.555.4.928s-.133.688-.4.944c-.256.245-.581.368-.976.368zm1.104 1.056V157h-2.24v-8.864h2.24zm5.605 9.008c-.725 0-1.376-.128-1.952-.384-.576-.267-1.035-.624-1.376-1.072-.331-.448-.512-.944-.544-1.488h2.256c.043.341.208.624.496.848.299.224.667.336 1.104.336.427 0 .757-.085.992-.256.245-.171.368-.389.368-.656 0-.288-.149-.501-.448-.64-.288-.149-.752-.309-1.392-.48-.661-.16-1.205-.325-1.632-.496-.416-.171-.779-.432-1.088-.784-.299-.352-.448-.827-.448-1.424 0-.491.139-.939.416-1.344.288-.405.693-.725 1.216-.96.533-.235 1.157-.352 1.872-.352 1.056 0 1.899.267 2.528.8.629.523.976 1.232 1.04 2.128h-2.144c-.032-.352-.181-.629-.448-.832-.256-.213-.603-.32-1.04-.32-.405 0-.72.075-.944.224-.213.149-.32.357-.32.624 0 .299.149.528.448.688.299.149.763.304 1.392.464.64.16 1.168.325 1.584.496.416.171.773.437 1.072.8.309.352.469.821.48 1.408 0 .512-.144.971-.432 1.376-.277.405-.683.725-1.216.96-.523.224-1.136.336-1.84.336zm4.751-4.576c0-.917.186-1.717.56-2.4.373-.693.89-1.227 1.552-1.6.661-.384 1.418-.576 2.272-.576 1.098 0 2.005.277 2.72.832.725.544 1.21 1.312 1.456 2.304h-2.416c-.128-.384-.347-.683-.656-.896-.299-.224-.672-.336-1.12-.336-.64 0-1.147.235-1.52.704-.374.459-.56 1.115-.56 1.968 0 .843.186 1.499.56 1.968.373.459.88.688 1.52.688.906 0 1.498-.405 1.776-1.216h2.416c-.246.96-.731 1.723-1.456 2.288-.726.565-1.632.848-2.72.848-.854 0-1.611-.187-2.272-.56-.662-.384-1.179-.917-1.552-1.6-.374-.693-.56-1.499-.56-2.416zm14.137 4.576c-.854 0-1.622-.187-2.304-.56-.683-.384-1.222-.923-1.616-1.616-.384-.693-.576-1.493-.576-2.4 0-.907.197-1.707.592-2.4.405-.693.954-1.227 1.648-1.6.693-.384 1.466-.576 2.32-.576.853 0 1.626.192 2.32.576.693.373 1.237.907 1.632 1.6.405.693.608 1.493.608 2.4 0 .907-.208 1.707-.624 2.4-.406.693-.96 1.232-1.664 1.616-.694.373-1.472.56-2.336.56zm0-1.952c.405 0 .784-.096 1.136-.288.362-.203.65-.501.864-.896.213-.395.32-.875.32-1.44 0-.843-.224-1.488-.672-1.936-.438-.459-.976-.688-1.616-.688-.64 0-1.179.229-1.616.688-.427.448-.64 1.093-.64 1.936s.208 1.493.624 1.952c.426.448.96.672 1.6.672zm9.963-.256l2.24-6.8h2.384l-3.28 8.864h-2.72l-3.264-8.864h2.4l2.24 6.8zm14.122-2.56c0 .32-.021.608-.064.864h-6.48c.053.64.277 1.141.672 1.504s.88.544 1.456.544c.832 0 1.424-.357 1.776-1.072h2.416c-.256.853-.747 1.557-1.472 2.112-.725.544-1.616.816-2.672.816-.853 0-1.621-.187-2.304-.56-.672-.384-1.2-.923-1.584-1.616-.373-.693-.56-1.493-.56-2.4 0-.917.187-1.723.56-2.416.373-.693.896-1.227 1.568-1.6s1.445-.56 2.32-.56c.843 0 1.595.181 2.256.544.672.363 1.189.88 1.552 1.552.373.661.56 1.424.56 2.288zm-2.32-.64c-.011-.576-.219-1.035-.624-1.376-.405-.352-.901-.528-1.488-.528-.555 0-1.024.171-1.408.512-.373.331-.603.795-.688 1.392h4.208zm6.195-2.224c.288-.469.661-.837 1.12-1.104.469-.267 1.003-.4 1.6-.4v2.352h-.592c-.704 0-1.237.165-1.6.496-.352.331-.528.907-.528 1.728V157h-2.24v-8.864h2.24v1.376zm10.281-4.352V157h-2.24v-11.84h2.24zm3.349 1.92c-.394 0-.725-.123-.992-.368-.256-.256-.384-.571-.384-.944s.128-.683.384-.928c.267-.256.598-.384.992-.384.395 0 .72.128.976.384.267.245.4.555.4.928s-.133.688-.4.944c-.256.245-.581.368-.976.368zm1.104 1.056V157h-2.24v-8.864h2.24zm6.278 1.84h-1.552V157h-2.272v-7.024h-1.008v-1.84h1.008v-.448c0-1.088.309-1.888.928-2.4.618-.512 1.552-.752 2.8-.72v1.888c-.544-.011-.923.08-1.136.272-.214.192-.32.539-.32 1.04v.368h1.552v1.84zm9.691 2.4c0 .32-.021.608-.064.864h-6.48c.053.64.277 1.141.672 1.504s.88.544 1.456.544c.832 0 1.424-.357 1.776-1.072h2.416c-.256.853-.747 1.557-1.472 2.112-.725.544-1.616.816-2.672.816-.853 0-1.621-.187-2.304-.56-.672-.384-1.2-.923-1.584-1.616-.373-.693-.56-1.493-.56-2.4 0-.917.187-1.723.56-2.416.373-.693.896-1.227 1.568-1.6s1.445-.56 2.32-.56c.843 0 1.595.181 2.256.544.672.363 1.189.88 1.552 1.552.373.661.56 1.424.56 2.288zm-2.32-.64c-.011-.576-.219-1.035-.624-1.376-.405-.352-.901-.528-1.488-.528-.555 0-1.024.171-1.408.512-.373.331-.603.795-.688 1.392h4.208zm10.771-1.392v1.888h-6.784v-1.888h6.784zm1.936 2.224c0-.917.187-1.717.56-2.4.374-.693.891-1.227 1.552-1.6.662-.384 1.419-.576 2.272-.576 1.099 0 2.006.277 2.72.832.726.544 1.211 1.312 1.456 2.304h-2.416c-.128-.384-.346-.683-.656-.896-.298-.224-.672-.336-1.12-.336-.64 0-1.146.235-1.52.704-.373.459-.56 1.115-.56 1.968 0 .843.187 1.499.56 1.968.374.459.88.688 1.52.688.907 0 1.499-.405 1.776-1.216h2.416c-.245.96-.73 1.723-1.456 2.288-.725.565-1.632.848-2.72.848-.853 0-1.61-.187-2.272-.56-.661-.384-1.178-.917-1.552-1.6-.373-.693-.56-1.499-.56-2.416zm15.193-4.56c.672 0 1.27.149 1.792.448.523.288.928.72 1.216 1.296.299.565.448 1.248.448 2.048v5.2h-2.24v-4.896c0-.704-.176-1.243-.528-1.616-.352-.384-.832-.576-1.44-.576-.618 0-1.109.192-1.472.576-.352.373-.528.912-.528 1.616V157h-2.24v-11.84h2.24v4.08c.288-.384.672-.683 1.152-.896.48-.224 1.014-.336 1.6-.336zm5.01 4.528c0-.896.176-1.691.528-2.384.363-.693.848-1.227 1.456-1.6.619-.373 1.307-.56 2.064-.56.662 0 1.238.133 1.728.4.502.267.902.603 1.2 1.008v-1.264h2.256V157h-2.256v-1.296c-.288.416-.688.763-1.2 1.04-.501.267-1.082.4-1.744.4-.746 0-1.429-.192-2.048-.576-.608-.384-1.093-.923-1.456-1.616-.352-.704-.528-1.509-.528-2.416zm6.976.032c0-.544-.106-1.008-.32-1.392-.213-.395-.501-.693-.864-.896-.362-.213-.752-.32-1.168-.32-.416 0-.8.101-1.152.304-.352.203-.64.501-.864.896-.213.384-.32.843-.32 1.376 0 .533.107 1.003.32 1.408.224.395.512.699.864.912.363.213.747.32 1.152.32.416 0 .806-.101 1.168-.304.363-.213.651-.512.864-.896.214-.395.32-.864.32-1.408zm9.356-4.56c1.056 0 1.909.336 2.56 1.008.651.661.976 1.589.976 2.784v5.2h-2.24v-4.896c0-.704-.176-1.243-.528-1.616-.352-.384-.832-.576-1.44-.576-.619 0-1.109.192-1.472.576-.352.373-.528.912-.528 1.616V157h-2.24v-8.864h2.24v1.104c.299-.384.677-.683 1.136-.896.469-.224.981-.336 1.536-.336zm9.138-.016c.662 0 1.243.133 1.744.4.502.256.896.592 1.184 1.008v-1.264h2.256v8.928c0 .821-.165 1.552-.496 2.192-.33.651-.826 1.163-1.488 1.536-.661.384-1.461.576-2.4.576-1.258 0-2.293-.293-3.104-.88-.8-.587-1.253-1.387-1.36-2.4h2.224c.118.405.368.725.752.96.395.245.87.368 1.424.368.651 0 1.179-.197 1.584-.592.406-.384.608-.971.608-1.76v-1.376c-.288.416-.688.763-1.2 1.04-.501.277-1.077.416-1.728.416-.746 0-1.429-.192-2.048-.576-.618-.384-1.109-.923-1.472-1.616-.352-.704-.528-1.509-.528-2.416 0-.896.176-1.691.528-2.384.363-.693.848-1.227 1.456-1.6.619-.373 1.307-.56 2.064-.56zm2.928 4.576c0-.544-.106-1.008-.32-1.392-.213-.395-.501-.693-.864-.896-.362-.213-.752-.32-1.168-.32-.416 0-.8.101-1.152.304-.352.203-.64.501-.864.896-.213.384-.32.843-.32 1.376 0 .533.107 1.003.32 1.408.224.395.512.699.864.912.363.213.747.32 1.152.32.416 0 .806-.101 1.168-.304.363-.213.651-.512.864-.896.214-.395.32-.864.32-1.408zm5.58-5.488c-.395 0-.725-.123-.992-.368-.256-.256-.384-.571-.384-.944s.128-.683.384-.928c.267-.256.597-.384.992-.384s.72.128.976.384c.267.245.4.555.4.928s-.133.688-.4.944c-.256.245-.581.368-.976.368zm1.104 1.056V157h-2.24v-8.864h2.24zm7.125-.128c1.056 0 1.909.336 2.56 1.008.651.661.976 1.589.976 2.784v5.2h-2.24v-4.896c0-.704-.176-1.243-.528-1.616-.352-.384-.832-.576-1.44-.576-.619 0-1.109.192-1.472.576-.352.373-.528.912-.528 1.616V157h-2.24v-8.864h2.24v1.104c.299-.384.677-.683 1.136-.896.469-.224.981-.336 1.536-.336zm9.138-.016c.662 0 1.243.133 1.744.4.502.256.896.592 1.184 1.008v-1.264h2.256v8.928c0 .821-.165 1.552-.496 2.192-.33.651-.826 1.163-1.488 1.536-.661.384-1.461.576-2.4.576-1.258 0-2.293-.293-3.104-.88-.8-.587-1.253-1.387-1.36-2.4h2.224c.118.405.368.725.752.96.395.245.87.368 1.424.368.651 0 1.179-.197 1.584-.592.406-.384.608-.971.608-1.76v-1.376c-.288.416-.688.763-1.2 1.04-.501.277-1.077.416-1.728.416-.746 0-1.429-.192-2.048-.576-.618-.384-1.109-.923-1.472-1.616-.352-.704-.528-1.509-.528-2.416 0-.896.176-1.691.528-2.384.363-.693.848-1.227 1.456-1.6.619-.373 1.307-.56 2.064-.56zm2.928 4.576c0-.544-.106-1.008-.32-1.392-.213-.395-.501-.693-.864-.896-.362-.213-.752-.32-1.168-.32-.416 0-.8.101-1.152.304-.352.203-.64.501-.864.896-.213.384-.32.843-.32 1.376 0 .533.107 1.003.32 1.408.224.395.512.699.864.912.363.213.747.32 1.152.32.416 0 .806-.101 1.168-.304.363-.213.651-.512.864-.896.214-.395.32-.864.32-1.408zM56.93 181.144c-.853 0-1.62-.187-2.303-.56-.683-.384-1.222-.923-1.616-1.616-.384-.693-.576-1.493-.576-2.4 0-.907.197-1.707.592-2.4.405-.693.954-1.227 1.648-1.6.693-.384 1.466-.576 2.32-.576.853 0 1.626.192 2.32.576.693.373 1.237.907 1.632 1.6.405.693.608 1.493.608 2.4 0 .907-.208 1.707-.624 2.4-.406.693-.96 1.232-1.664 1.616-.694.373-1.472.56-2.336.56zm0-1.952c.406 0 .785-.096 1.137-.288.362-.203.65-.501.864-.896.213-.395.32-.875.32-1.44 0-.843-.224-1.488-.672-1.936-.438-.459-.976-.688-1.616-.688-.64 0-1.179.229-1.616.688-.427.448-.64 1.093-.64 1.936s.208 1.493.624 1.952c.426.448.96.672 1.6.672zm8.508-5.776c.288-.405.682-.741 1.184-1.008.512-.277 1.093-.416 1.744-.416.757 0 1.44.187 2.048.56.618.373 1.104.907 1.456 1.6.362.683.544 1.477.544 2.384 0 .907-.182 1.712-.544 2.416-.352.693-.838 1.232-1.456 1.616-.608.384-1.29.576-2.048.576-.65 0-1.227-.133-1.728-.4-.49-.267-.89-.603-1.2-1.008v5.488h-2.24v-13.088h2.24v1.28zm4.688 3.12c0-.533-.112-.992-.336-1.376-.214-.395-.502-.693-.864-.896-.352-.203-.736-.304-1.152-.304-.406 0-.79.107-1.152.32-.352.203-.64.501-.864.896-.214.395-.32.859-.32 1.392 0 .533.106.997.32 1.392.224.395.512.699.864.912.362.203.746.304 1.152.304.416 0 .8-.107 1.152-.32.362-.213.65-.517.864-.912.224-.395.336-.864.336-1.408zm6.155-3.12c.288-.405.683-.741 1.184-1.008.513-.277 1.094-.416 1.745-.416.757 0 1.44.187 2.047.56.62.373 1.105.907 1.456 1.6.363.683.544 1.477.544 2.384 0 .907-.18 1.712-.544 2.416-.351.693-.837 1.232-1.456 1.616-.608.384-1.29.576-2.047.576-.651 0-1.227-.133-1.728-.4-.491-.267-.891-.603-1.2-1.008v5.488h-2.24v-13.088h2.24v1.28zm4.688 3.12c0-.533-.111-.992-.335-1.376-.214-.395-.502-.693-.865-.896-.352-.203-.736-.304-1.151-.304-.406 0-.79.107-1.152.32-.352.203-.64.501-.864.896-.214.395-.32.859-.32 1.392 0 .533.106.997.32 1.392.224.395.511.699.864.912.362.203.746.304 1.152.304.416 0 .8-.107 1.151-.32.363-.213.651-.517.864-.912.225-.395.337-.864.337-1.408zm7.852 4.608c-.853 0-1.621-.187-2.304-.56-.682-.384-1.221-.923-1.616-1.616-.384-.693-.576-1.493-.576-2.4 0-.907.198-1.707.592-2.4.406-.693.955-1.227 1.648-1.6.694-.384 1.467-.576 2.32-.576.854 0 1.627.192 2.32.576.694.373 1.238.907 1.632 1.6.406.693.608 1.493.608 2.4 0 .907-.208 1.707-.624 2.4-.405.693-.96 1.232-1.664 1.616-.693.373-1.472.56-2.336.56zm0-1.952c.406 0 .784-.096 1.136-.288.363-.203.65-.501.864-.896.214-.395.32-.875.32-1.44 0-.843-.224-1.488-.672-1.936-.437-.459-.976-.688-1.616-.688-.64 0-1.178.229-1.616.688-.426.448-.64 1.093-.64 1.936s.208 1.493.624 1.952c.427.448.96.672 1.6.672zm8.507-5.68c.288-.469.662-.837 1.12-1.104.47-.267 1.003-.4 1.6-.4v2.352h-.592c-.704 0-1.237.165-1.6.496-.352.331-.528.907-.528 1.728V181h-2.24v-8.864h2.24v1.376zm6.837.464v4.288c0 .299.069.517.208.656.149.128.395.192.736.192h1.04V181h-1.408c-1.888 0-2.832-.917-2.832-2.752v-4.272h-1.056v-1.84h1.056v-2.192h2.256v2.192h1.984v1.84h-1.984zm11.963-1.84V181h-2.256v-1.12c-.288.384-.666.688-1.136.912-.458.213-.96.32-1.504.32-.693 0-1.306-.144-1.84-.432-.533-.299-.954-.731-1.264-1.296-.298-.576-.448-1.259-.448-2.048v-5.2h2.24v4.88c0 .704.176 1.248.528 1.632.352.373.832.56 1.44.56.619 0 1.104-.187 1.456-.56.352-.384.528-.928.528-1.632v-4.88h2.256zm7.122-.128c1.056 0 1.91.336 2.56 1.008.651.661.976 1.589.976 2.784v5.2h-2.24v-4.896c0-.704-.176-1.243-.528-1.616-.352-.384-.832-.576-1.44-.576-.618 0-1.109.192-1.472.576-.352.373-.528.912-.528 1.616V181h-2.24v-8.864h2.24v1.104c.299-.384.678-.683 1.136-.896.47-.224.982-.336 1.536-.336zm6.803-.928c-.395 0-.726-.123-.992-.368-.256-.256-.384-.571-.384-.944s.128-.683.384-.928c.266-.256.597-.384.992-.384.394 0 .72.128.976.384.266.245.4.555.4.928s-.134.688-.4.944c-.256.245-.582.368-.976.368zm1.104 1.056V181h-2.24v-8.864h2.24zm4.821 1.84v4.288c0 .299.069.517.208.656.149.128.394.192.736.192h1.04V181h-1.408c-1.888 0-2.832-.917-2.832-2.752v-4.272h-1.056v-1.84h1.056v-2.192h2.256v2.192h1.984v1.84h-1.984zm4.731-2.896c-.395 0-.726-.123-.992-.368-.256-.256-.384-.571-.384-.944s.128-.683.384-.928c.266-.256.597-.384.992-.384.394 0 .72.128.976.384.266.245.4.555.4.928s-.134.688-.4.944c-.256.245-.582.368-.976.368zm1.104 1.056V181h-2.24v-8.864h2.24zm10.453 4.24c0 .32-.021.608-.064.864h-6.48c.053.64.277 1.141.672 1.504s.88.544 1.456.544c.832 0 1.424-.357 1.776-1.072h2.416c-.256.853-.747 1.557-1.472 2.112-.725.544-1.616.816-2.672.816-.853 0-1.621-.187-2.304-.56-.672-.384-1.2-.923-1.584-1.616-.373-.693-.56-1.493-.56-2.4 0-.917.187-1.723.56-2.416.373-.693.896-1.227 1.568-1.6s1.445-.56 2.32-.56c.843 0 1.595.181 2.256.544.672.363 1.189.88 1.552 1.552.373.661.56 1.424.56 2.288zm-2.32-.64c-.011-.576-.219-1.035-.624-1.376-.405-.352-.901-.528-1.488-.528-.555 0-1.024.171-1.408.512-.373.331-.603.795-.688 1.392h4.208zm7.347 5.408c-.725 0-1.376-.128-1.952-.384-.576-.267-1.035-.624-1.376-1.072-.331-.448-.512-.944-.544-1.488h2.256c.043.341.208.624.496.848.299.224.667.336 1.104.336.427 0 .757-.085.992-.256.245-.171.368-.389.368-.656 0-.288-.149-.501-.448-.64-.288-.149-.752-.309-1.392-.48-.661-.16-1.205-.325-1.632-.496-.416-.171-.779-.432-1.088-.784-.299-.352-.448-.827-.448-1.424 0-.491.139-.939.416-1.344.288-.405.693-.725 1.216-.96.533-.235 1.157-.352 1.872-.352 1.056 0 1.899.267 2.528.8.629.523.976 1.232 1.04 2.128h-2.144c-.032-.352-.181-.629-.448-.832-.256-.213-.603-.32-1.04-.32-.405 0-.72.075-.944.224-.213.149-.32.357-.32.624 0 .299.149.528.448.688.299.149.763.304 1.392.464.64.16 1.168.325 1.584.496.416.171.773.437 1.072.8.309.352.469.821.48 1.408 0 .512-.144.971-.432 1.376-.277.405-.683.725-1.216.96-.523.224-1.136.336-1.84.336zm8.563-4.608c0-.896.176-1.691.528-2.384.363-.693.848-1.227 1.456-1.6.619-.373 1.307-.56 2.064-.56.661 0 1.237.133 1.728.4.501.267.901.603 1.2 1.008v-1.264h2.256V181h-2.256v-1.296c-.288.416-.688.763-1.2 1.04-.501.267-1.083.4-1.744.4-.747 0-1.429-.192-2.048-.576-.608-.384-1.093-.923-1.456-1.616-.352-.704-.528-1.509-.528-2.416zm6.976.032c0-.544-.107-1.008-.32-1.392-.213-.395-.501-.693-.864-.896-.363-.213-.752-.32-1.168-.32-.416 0-.8.101-1.152.304-.352.203-.64.501-.864.896-.213.384-.32.843-.32 1.376 0 .533.107 1.003.32 1.408.224.395.512.699.864.912.363.213.747.32 1.152.32.416 0 .805-.101 1.168-.304.363-.213.651-.512.864-.896.213-.395.32-.864.32-1.408zm9.356-4.56c1.056 0 1.909.336 2.56 1.008.651.661.976 1.589.976 2.784v5.2h-2.24v-4.896c0-.704-.176-1.243-.528-1.616-.352-.384-.832-.576-1.44-.576-.619 0-1.109.192-1.472.576-.352.373-.528.912-.528 1.616V181h-2.24v-8.864h2.24v1.104c.299-.384.677-.683 1.136-.896.469-.224.981-.336 1.536-.336zm5.09 4.528c0-.896.176-1.691.528-2.384.363-.693.853-1.227 1.472-1.6s1.307-.56 2.064-.56c.576 0 1.125.128 1.648.384.523.245.939.576 1.248.992v-4.208h2.272V181h-2.272v-1.312c-.277.437-.667.789-1.168 1.056-.501.267-1.083.4-1.744.4-.747 0-1.429-.192-2.048-.576-.619-.384-1.109-.923-1.472-1.616-.352-.704-.528-1.509-.528-2.416zm6.976.032c0-.544-.107-1.008-.32-1.392-.213-.395-.501-.693-.864-.896-.363-.213-.752-.32-1.168-.32-.416 0-.8.101-1.152.304-.352.203-.64.501-.864.896-.213.384-.32.843-.32 1.376 0 .533.107 1.003.32 1.408.224.395.512.699.864.912.363.213.747.32 1.152.32.416 0 .805-.101 1.168-.304.363-.213.651-.512.864-.896.213-.395.32-.864.32-1.408zm10.496-3.056c.288-.469.662-.837 1.12-1.104.47-.267 1.003-.4 1.6-.4v2.352h-.592c-.704 0-1.237.165-1.6.496-.352.331-.528.907-.528 1.728V181h-2.24v-8.864h2.24v1.376zm12.469 2.864c0 .32-.021.608-.064.864h-6.48c.053.64.277 1.141.672 1.504s.88.544 1.456.544c.832 0 1.424-.357 1.776-1.072h2.416c-.256.853-.747 1.557-1.472 2.112-.725.544-1.616.816-2.672.816-.853 0-1.621-.187-2.304-.56-.672-.384-1.2-.923-1.584-1.616-.373-.693-.56-1.493-.56-2.4 0-.917.187-1.723.56-2.416.373-.693.896-1.227 1.568-1.6s1.445-.56 2.32-.56c.843 0 1.595.181 2.256.544.672.363 1.189.88 1.552 1.552.373.661.56 1.424.56 2.288zm-2.32-.64c-.011-.576-.219-1.035-.624-1.376-.405-.352-.901-.528-1.488-.528-.555 0-1.024.171-1.408.512-.373.331-.603.795-.688 1.392h4.208zm7.347 5.408c-.725 0-1.376-.128-1.952-.384-.576-.267-1.035-.624-1.376-1.072-.331-.448-.512-.944-.544-1.488h2.256c.043.341.208.624.496.848.299.224.667.336 1.104.336.427 0 .757-.085.992-.256.245-.171.368-.389.368-.656 0-.288-.149-.501-.448-.64-.288-.149-.752-.309-1.392-.48-.661-.16-1.205-.325-1.632-.496-.416-.171-.779-.432-1.088-.784-.299-.352-.448-.827-.448-1.424 0-.491.139-.939.416-1.344.288-.405.693-.725 1.216-.96.533-.235 1.157-.352 1.872-.352 1.056 0 1.899.267 2.528.8.629.523.976 1.232 1.04 2.128h-2.144c-.032-.352-.181-.629-.448-.832-.256-.213-.603-.32-1.04-.32-.405 0-.72.075-.944.224-.213.149-.32.357-.32.624 0 .299.149.528.448.688.299.149.763.304 1.392.464.64.16 1.168.325 1.584.496.416.171.773.437 1.072.8.309.352.469.821.48 1.408 0 .512-.144.971-.432 1.376-.277.405-.683.725-1.216.96-.523.224-1.136.336-1.84.336zm9.263 0c-.854 0-1.622-.187-2.304-.56-.683-.384-1.222-.923-1.616-1.616-.384-.693-.576-1.493-.576-2.4 0-.907.197-1.707.592-2.4.405-.693.954-1.227 1.648-1.6.693-.384 1.466-.576 2.32-.576.853 0 1.626.192 2.32.576.693.373 1.237.907 1.632 1.6.405.693.608 1.493.608 2.4 0 .907-.208 1.707-.624 2.4-.406.693-.96 1.232-1.664 1.616-.694.373-1.472.56-2.336.56zm0-1.952c.405 0 .784-.096 1.136-.288.362-.203.65-.501.864-.896.213-.395.32-.875.32-1.44 0-.843-.224-1.488-.672-1.936-.438-.459-.976-.688-1.616-.688-.64 0-1.179.229-1.616.688-.427.448-.64 1.093-.64 1.936s.208 1.493.624 1.952c.426.448.96.672 1.6.672zm14.635-7.056V181h-2.256v-1.12c-.288.384-.667.688-1.136.912-.459.213-.96.32-1.504.32-.693 0-1.307-.144-1.84-.432-.533-.299-.955-.731-1.264-1.296-.299-.576-.448-1.259-.448-2.048v-5.2h2.24v4.88c0 .704.176 1.248.528 1.632.352.373.832.56 1.44.56.619 0 1.104-.187 1.456-.56.352-.384.528-.928.528-1.632v-4.88h2.256zm4.45 1.376c.288-.469.661-.837 1.12-1.104.469-.267 1.003-.4 1.6-.4v2.352h-.592c-.704 0-1.237.165-1.6.496-.352.331-.528.907-.528 1.728V181h-2.24v-8.864h2.24v1.376zm3.653 3.056c0-.917.186-1.717.56-2.4.373-.693.89-1.227 1.552-1.6.661-.384 1.418-.576 2.272-.576 1.098 0 2.005.277 2.72.832.725.544 1.21 1.312 1.456 2.304h-2.416c-.128-.384-.347-.683-.656-.896-.299-.224-.672-.336-1.12-.336-.64 0-1.147.235-1.52.704-.374.459-.56 1.115-.56 1.968 0 .843.186 1.499.56 1.968.373.459.88.688 1.52.688.906 0 1.498-.405 1.776-1.216h2.416c-.246.96-.731 1.723-1.456 2.288-.726.565-1.632.848-2.72.848-.854 0-1.611-.187-2.272-.56-.662-.384-1.179-.917-1.552-1.6-.374-.693-.56-1.499-.56-2.416zm18.441-.192c0 .32-.022.608-.064.864h-6.48c.053.64.277 1.141.672 1.504.394.363.88.544 1.456.544.832 0 1.424-.357 1.776-1.072h2.416c-.256.853-.747 1.557-1.472 2.112-.726.544-1.616.816-2.672.816-.854 0-1.622-.187-2.304-.56-.672-.384-1.2-.923-1.584-1.616-.374-.693-.56-1.493-.56-2.4 0-.917.186-1.723.56-2.416.373-.693.896-1.227 1.568-1.6s1.445-.56 2.32-.56c.842 0 1.594.181 2.256.544.672.363 1.189.88 1.552 1.552.373.661.56 1.424.56 2.288zm-2.32-.64c-.011-.576-.219-1.035-.624-1.376-.406-.352-.902-.528-1.488-.528-.555 0-1.024.171-1.408.512-.374.331-.603.795-.688 1.392h4.208zm7.347 5.408c-.726 0-1.376-.128-1.952-.384-.576-.267-1.035-.624-1.376-1.072-.331-.448-.512-.944-.544-1.488h2.256c.042.341.208.624.496.848.298.224.666.336 1.104.336.426 0 .757-.085.992-.256.245-.171.368-.389.368-.656 0-.288-.15-.501-.448-.64-.288-.149-.752-.309-1.392-.48-.662-.16-1.206-.325-1.632-.496-.416-.171-.779-.432-1.088-.784-.299-.352-.448-.827-.448-1.424 0-.491.138-.939.416-1.344.288-.405.693-.725 1.216-.96.533-.235 1.157-.352 1.872-.352 1.056 0 1.898.267 2.528.8.629.523.976 1.232 1.04 2.128h-2.144c-.032-.352-.182-.629-.448-.832-.256-.213-.603-.32-1.04-.32-.406 0-.72.075-.944.224-.214.149-.32.357-.32.624 0 .299.149.528.448.688.298.149.762.304 1.392.464.64.16 1.168.325 1.584.496.416.171.773.437 1.072.8.309.352.469.821.48 1.408 0 .512-.144.971-.432 1.376-.278.405-.683.725-1.216.96-.523.224-1.136.336-1.84.336zm7.775-2.496l-1.872 4.496h-1.44l1.04-4.496h2.272zM39.372 200.536c0-.896.176-1.691.528-2.384.362-.693.848-1.227 1.456-1.6.618-.373 1.306-.56 2.064-.56.661 0 1.237.133 1.728.4.501.267.901.603 1.2 1.008v-1.264h2.256V205h-2.256v-1.296c-.288.416-.688.763-1.2 1.04-.502.267-1.083.4-1.744.4-.747 0-1.43-.192-2.048-.576-.608-.384-1.094-.923-1.456-1.616-.352-.704-.528-1.509-.528-2.416zm6.976.032c0-.544-.107-1.008-.32-1.392-.214-.395-.502-.693-.864-.896-.363-.213-.752-.32-1.168-.32-.416 0-.8.101-1.152.304-.352.203-.64.501-.864.896-.214.384-.32.843-.32 1.376 0 .533.106 1.003.32 1.408.224.395.512.699.864.912.362.213.746.32 1.152.32.416 0 .805-.101 1.168-.304.362-.213.65-.512.864-.896.213-.395.32-.864.32-1.408zm9.355-4.56c1.056 0 1.91.336 2.56 1.008.651.661.977 1.589.977 2.784v5.2H57v-4.896c0-.704-.176-1.243-.529-1.616-.351-.384-.831-.576-1.44-.576-.618 0-1.109.192-1.471.576-.352.373-.529.912-.529 1.616V205h-2.24v-8.864h2.24v1.104c.3-.384.678-.683 1.136-.896.47-.224.982-.336 1.536-.336zm5.09 4.528c0-.896.177-1.691.529-2.384.362-.693.853-1.227 1.472-1.6.618-.373 1.306-.56 2.064-.56.576 0 1.125.128 1.648.384.522.245.938.576 1.248.992v-4.208h2.272V205h-2.272v-1.312c-.278.437-.667.789-1.168 1.056-.502.267-1.083.4-1.744.4-.747 0-1.43-.192-2.048-.576-.619-.384-1.11-.923-1.472-1.616-.352-.704-.528-1.509-.528-2.416zm6.977.032c0-.544-.107-1.008-.32-1.392-.214-.395-.502-.693-.864-.896-.363-.213-.752-.32-1.168-.32-.416 0-.8.101-1.152.304-.352.203-.64.501-.864.896-.214.384-.32.843-.32 1.376 0 .533.106 1.003.32 1.408.224.395.512.699.864.912.362.213.746.32 1.152.32.416 0 .805-.101 1.168-.304.362-.213.65-.512.864-.896.213-.395.32-.864.32-1.408zm7.68 0c0-.917.186-1.717.56-2.4.373-.693.89-1.227 1.552-1.6.661-.384 1.419-.576 2.272-.576 1.099 0 2.005.277 2.72.832.725.544 1.21 1.312 1.456 2.304h-2.416c-.128-.384-.347-.683-.656-.896-.299-.224-.672-.336-1.12-.336-.64 0-1.147.235-1.52.704-.374.459-.56 1.115-.56 1.968 0 .843.186 1.499.56 1.968.373.459.88.688 1.52.688.907 0 1.499-.405 1.776-1.216h2.416c-.246.96-.73 1.723-1.456 2.288-.725.565-1.632.848-2.72.848-.853 0-1.61-.187-2.272-.56-.662-.384-1.179-.917-1.552-1.6-.374-.693-.56-1.499-.56-2.416zm14.137 4.576c-.853 0-1.621-.187-2.304-.56-.683-.384-1.222-.923-1.616-1.616-.384-.693-.576-1.493-.576-2.4 0-.907.197-1.707.592-2.4.405-.693.954-1.227 1.648-1.6.693-.384 1.466-.576 2.32-.576.853 0 1.627.192 2.32.576.693.373 1.237.907 1.632 1.6.405.693.608 1.493.608 2.4 0 .907-.208 1.707-.624 2.4-.406.693-.96 1.232-1.664 1.616-.694.373-1.472.56-2.336.56zm0-1.952c.405 0 .784-.096 1.136-.288.362-.203.65-.501.864-.896.213-.395.32-.875.32-1.44 0-.843-.224-1.488-.672-1.936-.438-.459-.976-.688-1.616-.688-.64 0-1.179.229-1.616.688-.427.448-.64 1.093-.64 1.936s.208 1.493.624 1.952c.427.448.96.672 1.6.672zm11.179-7.184c1.056 0 1.909.336 2.56 1.008.651.661.976 1.589.976 2.784v5.2h-2.24v-4.896c0-.704-.176-1.243-.528-1.616-.352-.384-.832-.576-1.44-.576-.619 0-1.11.192-1.472.576-.352.373-.528.912-.528 1.616V205h-2.24v-8.864h2.24v1.104c.299-.384.677-.683 1.136-.896.47-.224.981-.336 1.536-.336zm8.274 1.968v4.288c0 .299.069.517.208.656.149.128.395.192.736.192h1.04V205h-1.408c-1.888 0-2.832-.917-2.832-2.752v-4.272h-1.056v-1.84h1.056v-2.192h2.256v2.192h1.984v1.84h-1.984zm4.731-2.896c-.394 0-.725-.123-.992-.368-.256-.256-.384-.571-.384-.944s.128-.683.384-.928c.267-.256.598-.384.992-.384.395 0 .72.128.976.384.267.245.4.555.4.928s-.133.688-.4.944c-.256.245-.581.368-.976.368zm1.104 1.056V205h-2.24v-8.864h2.24zm7.125-.128c1.056 0 1.91.336 2.56 1.008.651.661.976 1.589.976 2.784v5.2h-2.24v-4.896c0-.704-.176-1.243-.528-1.616-.352-.384-.832-.576-1.44-.576-.618 0-1.109.192-1.472.576-.352.373-.528.912-.528 1.616V205h-2.24v-8.864h2.24v1.104c.299-.384.678-.683 1.136-.896.47-.224.982-.336 1.536-.336zm14.035.128V205h-2.256v-1.12c-.288.384-.667.688-1.136.912-.459.213-.96.32-1.504.32-.694 0-1.307-.144-1.84-.432-.534-.299-.955-.731-1.264-1.296-.299-.576-.448-1.259-.448-2.048v-5.2h2.24v4.88c0 .704.176 1.248.528 1.632.352.373.832.56 1.44.56.618 0 1.104-.187 1.456-.56.352-.384.528-.928.528-1.632v-4.88h2.256zm6.146 9.008c-.854 0-1.622-.187-2.304-.56-.683-.384-1.222-.923-1.616-1.616-.384-.693-.576-1.493-.576-2.4 0-.907.197-1.707.592-2.4.405-.693.954-1.227 1.648-1.6.693-.384 1.466-.576 2.32-.576.853 0 1.626.192 2.32.576.693.373 1.237.907 1.632 1.6.405.693.608 1.493.608 2.4 0 .907-.208 1.707-.624 2.4-.406.693-.96 1.232-1.664 1.616-.694.373-1.472.56-2.336.56zm0-1.952c.405 0 .784-.096 1.136-.288.362-.203.65-.501.864-.896.213-.395.32-.875.32-1.44 0-.843-.224-1.488-.672-1.936-.438-.459-.976-.688-1.616-.688-.64 0-1.179.229-1.616.688-.427.448-.64 1.093-.64 1.936s.208 1.493.624 1.952c.426.448.96.672 1.6.672zm14.635-7.056V205h-2.256v-1.12c-.288.384-.667.688-1.136.912-.459.213-.96.32-1.504.32-.694 0-1.307-.144-1.84-.432-.534-.299-.955-.731-1.264-1.296-.299-.576-.448-1.259-.448-2.048v-5.2h2.24v4.88c0 .704.176 1.248.528 1.632.352.373.832.56 1.44.56.618 0 1.104-.187 1.456-.56.352-.384.528-.928.528-1.632v-4.88h2.256zm5.602 9.008c-.725 0-1.376-.128-1.952-.384-.576-.267-1.035-.624-1.376-1.072-.331-.448-.512-.944-.544-1.488h2.256c.043.341.208.624.496.848.299.224.667.336 1.104.336.427 0 .757-.085.992-.256.245-.171.368-.389.368-.656 0-.288-.149-.501-.448-.64-.288-.149-.752-.309-1.392-.48-.661-.16-1.205-.325-1.632-.496-.416-.171-.779-.432-1.088-.784-.299-.352-.448-.827-.448-1.424 0-.491.139-.939.416-1.344.288-.405.693-.725 1.216-.96.533-.235 1.157-.352 1.872-.352 1.056 0 1.899.267 2.528.8.629.523.976 1.232 1.04 2.128h-2.144c-.032-.352-.181-.629-.448-.832-.256-.213-.603-.32-1.04-.32-.405 0-.72.075-.944.224-.213.149-.32.357-.32.624 0 .299.149.528.448.688.299.149.763.304 1.392.464.64.16 1.168.325 1.584.496.416.171.773.437 1.072.8.309.352.469.821.48 1.408 0 .512-.144.971-.432 1.376-.277.405-.683.725-1.216.96-.523.224-1.136.336-1.84.336zm7.567-11.984V205h-2.24v-11.84h2.24zm10.693 2.976l-5.488 13.056h-2.384l1.92-4.416-3.552-8.64h2.512l2.288 6.192 2.32-6.192h2.384zm13.26 4.24c0 .32-.022.608-.064.864h-6.48c.053.64.277 1.141.672 1.504.394.363.88.544 1.456.544.832 0 1.424-.357 1.776-1.072h2.416c-.256.853-.747 1.557-1.472 2.112-.726.544-1.616.816-2.672.816-.854 0-1.622-.187-2.304-.56-.672-.384-1.2-.923-1.584-1.616-.374-.693-.56-1.493-.56-2.4 0-.917.186-1.723.56-2.416.373-.693.896-1.227 1.568-1.6s1.445-.56 2.32-.56c.842 0 1.594.181 2.256.544.672.363 1.189.88 1.552 1.552.373.661.56 1.424.56 2.288zm-2.32-.64c-.011-.576-.219-1.035-.624-1.376-.406-.352-.902-.528-1.488-.528-.555 0-1.024.171-1.408.512-.374.331-.603.795-.688 1.392h4.208zm8.867-3.728c1.056 0 1.909.336 2.56 1.008.65.661.976 1.589.976 2.784v5.2h-2.24v-4.896c0-.704-.176-1.243-.528-1.616-.352-.384-.832-.576-1.44-.576-.619 0-1.11.192-1.472.576-.352.373-.528.912-.528 1.616V205h-2.24v-8.864h2.24v1.104c.298-.384.677-.683 1.136-.896.469-.224.981-.336 1.536-.336zm9.138-.016c.661 0 1.243.133 1.744.4.501.256.896.592 1.184 1.008v-1.264h2.256v8.928c0 .821-.165 1.552-.496 2.192-.331.651-.827 1.163-1.488 1.536-.661.384-1.461.576-2.4.576-1.259 0-2.293-.293-3.104-.88-.8-.587-1.253-1.387-1.36-2.4h2.224c.117.405.368.725.752.96.395.245.869.368 1.424.368.651 0 1.179-.197 1.584-.592.405-.384.608-.971.608-1.76v-1.376c-.288.416-.688.763-1.2 1.04-.501.277-1.077.416-1.728.416-.747 0-1.429-.192-2.048-.576-.619-.384-1.109-.923-1.472-1.616-.352-.704-.528-1.509-.528-2.416 0-.896.176-1.691.528-2.384.363-.693.848-1.227 1.456-1.6.619-.373 1.307-.56 2.064-.56zm2.928 4.576c0-.544-.107-1.008-.32-1.392-.213-.395-.501-.693-.864-.896-.363-.213-.752-.32-1.168-.32-.416 0-.8.101-1.152.304-.352.203-.64.501-.864.896-.213.384-.32.843-.32 1.376 0 .533.107 1.003.32 1.408.224.395.512.699.864.912.363.213.747.32 1.152.32.416 0 .805-.101 1.168-.304.363-.213.651-.512.864-.896.213-.395.32-.864.32-1.408zm3.868-.032c0-.896.176-1.691.528-2.384.362-.693.848-1.227 1.456-1.6.618-.373 1.306-.56 2.064-.56.661 0 1.237.133 1.728.4.501.267.901.603 1.2 1.008v-1.264h2.256V205h-2.256v-1.296c-.288.416-.688.763-1.2 1.04-.502.267-1.083.4-1.744.4-.747 0-1.43-.192-2.048-.576-.608-.384-1.094-.923-1.456-1.616-.352-.704-.528-1.509-.528-2.416zm6.976.032c0-.544-.107-1.008-.32-1.392-.214-.395-.502-.693-.864-.896-.363-.213-.752-.32-1.168-.32-.416 0-.8.101-1.152.304-.352.203-.64.501-.864.896-.214.384-.32.843-.32 1.376 0 .533.106 1.003.32 1.408.224.395.512.699.864.912.362.213.746.32 1.152.32.416 0 .805-.101 1.168-.304.362-.213.65-.512.864-.896.213-.395.32-.864.32-1.408zm7.915-4.576c.662 0 1.243.133 1.744.4.502.256.896.592 1.184 1.008v-1.264h2.256v8.928c0 .821-.165 1.552-.496 2.192-.33.651-.826 1.163-1.488 1.536-.661.384-1.461.576-2.4.576-1.258 0-2.293-.293-3.104-.88-.8-.587-1.253-1.387-1.36-2.4h2.224c.118.405.368.725.752.96.395.245.87.368 1.424.368.651 0 1.179-.197 1.584-.592.406-.384.608-.971.608-1.76v-1.376c-.288.416-.688.763-1.2 1.04-.501.277-1.077.416-1.728.416-.746 0-1.429-.192-2.048-.576-.618-.384-1.109-.923-1.472-1.616-.352-.704-.528-1.509-.528-2.416 0-.896.176-1.691.528-2.384.363-.693.848-1.227 1.456-1.6.619-.373 1.307-.56 2.064-.56zm2.928 4.576c0-.544-.106-1.008-.32-1.392-.213-.395-.501-.693-.864-.896-.362-.213-.752-.32-1.168-.32-.416 0-.8.101-1.152.304-.352.203-.64.501-.864.896-.213.384-.32.843-.32 1.376 0 .533.107 1.003.32 1.408.224.395.512.699.864.912.363.213.747.32 1.152.32.416 0 .806-.101 1.168-.304.363-.213.651-.512.864-.896.214-.395.32-.864.32-1.408zm12.684-.192c0 .32-.021.608-.064.864h-6.48c.053.64.277 1.141.672 1.504s.88.544 1.456.544c.832 0 1.424-.357 1.776-1.072h2.416c-.256.853-.747 1.557-1.472 2.112-.725.544-1.616.816-2.672.816-.853 0-1.621-.187-2.304-.56-.672-.384-1.2-.923-1.584-1.616-.373-.693-.56-1.493-.56-2.4 0-.917.187-1.723.56-2.416.373-.693.896-1.227 1.568-1.6s1.445-.56 2.32-.56c.843 0 1.595.181 2.256.544.672.363 1.189.88 1.552 1.552.373.661.56 1.424.56 2.288zm-2.32-.64c-.011-.576-.219-1.035-.624-1.376-.405-.352-.901-.528-1.488-.528-.555 0-1.024.171-1.408.512-.373.331-.603.795-.688 1.392h4.208zm20.056-3.6L262.066 205h-2.416l-1.616-6.192-1.616 6.192h-2.432l-2.608-8.864h2.272l1.568 6.752 1.696-6.752h2.368l1.664 6.736 1.568-6.736h2.144zm2.348-1.056c-.395 0-.726-.123-.992-.368-.256-.256-.384-.571-.384-.944s.128-.683.384-.928c.266-.256.597-.384.992-.384.394 0 .72.128.976.384.266.245.4.555.4.928s-.134.688-.4.944c-.256.245-.582.368-.976.368zm1.104 1.056V205h-2.24v-8.864h2.24zm4.821 1.84v4.288c0 .299.069.517.208.656.149.128.394.192.736.192h1.04V205h-1.408c-1.888 0-2.832-.917-2.832-2.752v-4.272h-1.056v-1.84h1.056v-2.192h2.256v2.192h1.984v1.84h-1.984zm8.587-1.968c.672 0 1.269.149 1.792.448.523.288.928.72 1.216 1.296.299.565.448 1.248.448 2.048v5.2h-2.24v-4.896c0-.704-.176-1.243-.528-1.616-.352-.384-.832-.576-1.44-.576-.619 0-1.109.192-1.472.576-.352.373-.528.912-.528 1.616V205h-2.24v-11.84h2.24v4.08c.288-.384.672-.683 1.152-.896.48-.224 1.013-.336 1.6-.336zM26.172 221.432c.288-.427.683-.773 1.184-1.04.512-.267 1.093-.4 1.744-.4.758 0 1.44.187 2.048.56.619.373 1.104.907 1.456 1.6.363.683.544 1.477.544 2.384 0 .907-.181 1.712-.544 2.416-.352.693-.837 1.232-1.456 1.616-.608.384-1.29.576-2.048.576-.661 0-1.242-.128-1.744-.384-.49-.267-.885-.608-1.184-1.024V229h-2.24v-11.84h2.24v4.272zm4.688 3.104c0-.533-.112-.992-.336-1.376-.213-.395-.501-.693-.864-.896-.352-.203-.736-.304-1.152-.304-.405 0-.79.107-1.152.32-.352.203-.64.501-.864.896-.213.395-.32.859-.32 1.392 0 .533.107.997.32 1.392.224.395.512.699.864.912.363.203.747.304 1.152.304.416 0 .8-.107 1.152-.32.363-.213.65-.517.864-.912.224-.395.336-.864.336-1.408zm3.34 0c0-.896.176-1.691.528-2.384.362-.693.848-1.227 1.456-1.6.619-.373 1.306-.56 2.064-.56.661 0 1.237.133 1.728.4.501.267.901.603 1.2 1.008v-1.264h2.256V229h-2.256v-1.296c-.288.416-.688.763-1.2 1.04-.502.267-1.083.4-1.744.4-.747 0-1.43-.192-2.048-.576-.608-.384-1.093-.923-1.456-1.616-.352-.704-.528-1.509-.528-2.416zm6.976.032c0-.544-.107-1.008-.32-1.392-.214-.395-.502-.693-.864-.896-.363-.213-.752-.32-1.168-.32-.416 0-.8.101-1.152.304-.352.203-.64.501-.864.896-.214.384-.32.843-.32 1.376 0 .533.106 1.003.32 1.408.224.395.512.699.864.912.363.213.747.32 1.152.32.416 0 .805-.101 1.168-.304.363-.213.65-.512.864-.896.213-.395.32-.864.32-1.408zm3.868 0c0-.917.186-1.717.56-2.4.373-.693.89-1.227 1.552-1.6.661-.384 1.418-.576 2.272-.576 1.098 0 2.005.277 2.72.832.725.544 1.21 1.312 1.456 2.304h-2.416c-.128-.384-.347-.683-.656-.896-.299-.224-.672-.336-1.12-.336-.64 0-1.147.235-1.52.704-.374.459-.56 1.115-.56 1.968 0 .843.186 1.499.56 1.968.373.459.88.688 1.52.688.906 0 1.498-.405 1.776-1.216h2.416c-.246.96-.731 1.723-1.456 2.288-.726.565-1.632.848-2.72.848-.854 0-1.611-.187-2.272-.56-.662-.384-1.179-.917-1.552-1.6-.374-.693-.56-1.499-.56-2.416zM60.493 229l-3.008-3.776V229h-2.24v-11.84h2.24v6.736l2.976-3.76h2.912l-3.904 4.448L63.405 229h-2.912zm10.911-6.656v1.888H64.62v-1.888h6.784zm5.12-.368v4.288c0 .299.07.517.209.656.149.128.394.192.736.192h1.04V229H77.1c-1.887 0-2.831-.917-2.831-2.752v-4.272h-1.056v-1.84h1.056v-2.192h2.255v2.192h1.984v1.84h-1.983zm7.532 7.168c-.854 0-1.622-.187-2.304-.56-.683-.384-1.222-.923-1.616-1.616-.384-.693-.576-1.493-.576-2.4 0-.907.197-1.707.592-2.4.405-.693.954-1.227 1.648-1.6.693-.384 1.466-.576 2.32-.576.853 0 1.626.192 2.32.576.693.373 1.237.907 1.632 1.6.405.693.608 1.493.608 2.4 0 .907-.208 1.707-.624 2.4-.406.693-.96 1.232-1.664 1.616-.694.373-1.472.56-2.336.56zm0-1.952c.405 0 .784-.096 1.136-.288.362-.203.65-.501.864-.896.213-.395.32-.875.32-1.44 0-.843-.224-1.488-.672-1.936-.438-.459-.976-.688-1.616-.688-.64 0-1.179.229-1.616.688-.427.448-.64 1.093-.64 1.936s.208 1.493.624 1.952c.426.448.96.672 1.6.672zm13.083-4.848v1.888h-6.784v-1.888h6.784zm4.752-.912c.288-.427.683-.773 1.184-1.04.512-.267 1.093-.4 1.744-.4.757 0 1.44.187 2.048.56.619.373 1.104.907 1.456 1.6.363.683.544 1.477.544 2.384 0 .907-.181 1.712-.544 2.416-.352.693-.837 1.232-1.456 1.616-.608.384-1.291.576-2.048.576-.661 0-1.243-.128-1.744-.384-.491-.267-.885-.608-1.184-1.024V229h-2.24v-11.84h2.24v4.272zm4.688 3.104c0-.533-.112-.992-.336-1.376-.213-.395-.501-.693-.864-.896-.352-.203-.736-.304-1.152-.304-.405 0-.789.107-1.152.32-.352.203-.64.501-.864.896-.213.395-.32.859-.32 1.392 0 .533.107.997.32 1.392.224.395.512.699.864.912.363.203.747.304 1.152.304.416 0 .8-.107 1.152-.32.363-.213.651-.517.864-.912.224-.395.336-.864.336-1.408zm3.34 0c0-.896.176-1.691.528-2.384.362-.693.848-1.227 1.456-1.6.618-.373 1.306-.56 2.064-.56.661 0 1.237.133 1.728.4.501.267.901.603 1.2 1.008v-1.264h2.256V229h-2.256v-1.296c-.288.416-.688.763-1.2 1.04-.502.267-1.083.4-1.744.4-.747 0-1.43-.192-2.048-.576-.608-.384-1.094-.923-1.456-1.616-.352-.704-.528-1.509-.528-2.416zm6.976.032c0-.544-.107-1.008-.32-1.392-.214-.395-.502-.693-.864-.896-.363-.213-.752-.32-1.168-.32-.416 0-.8.101-1.152.304-.352.203-.64.501-.864.896-.214.384-.32.843-.32 1.376 0 .533.106 1.003.32 1.408.224.395.512.699.864.912.362.213.746.32 1.152.32.416 0 .805-.101 1.168-.304.362-.213.65-.512.864-.896.213-.395.32-.864.32-1.408zm3.867 0c0-.917.187-1.717.56-2.4.374-.693.891-1.227 1.552-1.6.662-.384 1.419-.576 2.272-.576 1.099 0 2.006.277 2.72.832.726.544 1.211 1.312 1.456 2.304h-2.416c-.128-.384-.346-.683-.656-.896-.298-.224-.672-.336-1.12-.336-.64 0-1.146.235-1.52.704-.373.459-.56 1.115-.56 1.968 0 .843.187 1.499.56 1.968.374.459.88.688 1.52.688.907 0 1.499-.405 1.776-1.216h2.416c-.245.96-.73 1.723-1.456 2.288-.725.565-1.632.848-2.72.848-.853 0-1.61-.187-2.272-.56-.661-.384-1.178-.917-1.552-1.6-.373-.693-.56-1.499-.56-2.416zM136.211 229l-3.008-3.776V229h-2.24v-11.84h2.24v6.736l2.976-3.76h2.912l-3.904 4.448 3.936 4.416h-2.912zm9.045-9.92c-.395 0-.726-.123-.992-.368-.256-.256-.384-.571-.384-.944s.128-.683.384-.928c.266-.256.597-.384.992-.384.394 0 .72.128.976.384.266.245.4.555.4.928s-.134.688-.4.944c-.256.245-.582.368-.976.368zm1.104 1.056V229h-2.24v-8.864h2.24zm7.125-.128c1.056 0 1.909.336 2.56 1.008.65.661.976 1.589.976 2.784v5.2h-2.24v-4.896c0-.704-.176-1.243-.528-1.616-.352-.384-.832-.576-1.44-.576-.619 0-1.11.192-1.472.576-.352.373-.528.912-.528 1.616V229h-2.24v-8.864h2.24v1.104c.298-.384.677-.683 1.136-.896.469-.224.981-.336 1.536-.336zm9.058 9.136c-.725 0-1.376-.128-1.952-.384-.576-.267-1.035-.624-1.376-1.072-.331-.448-.512-.944-.544-1.488h2.256c.043.341.208.624.496.848.299.224.667.336 1.104.336.427 0 .757-.085.992-.256.245-.171.368-.389.368-.656 0-.288-.149-.501-.448-.64-.288-.149-.752-.309-1.392-.48-.661-.16-1.205-.325-1.632-.496-.416-.171-.779-.432-1.088-.784-.299-.352-.448-.827-.448-1.424 0-.491.139-.939.416-1.344.288-.405.693-.725 1.216-.96.533-.235 1.157-.352 1.872-.352 1.056 0 1.899.267 2.528.8.629.523.976 1.232 1.04 2.128h-2.144c-.032-.352-.181-.629-.448-.832-.256-.213-.603-.32-1.04-.32-.405 0-.72.075-.944.224-.213.149-.32.357-.32.624 0 .299.149.528.448.688.299.149.763.304 1.392.464.64.16 1.168.325 1.584.496.416.171.773.437 1.072.8.309.352.469.821.48 1.408 0 .512-.144.971-.432 1.376-.277.405-.683.725-1.216.96-.523.224-1.136.336-1.84.336zm6.463-10.064c-.395 0-.726-.123-.992-.368-.256-.256-.384-.571-.384-.944s.128-.683.384-.928c.266-.256.597-.384.992-.384.394 0 .72.128.976.384.266.245.4.555.4.928s-.134.688-.4.944c-.256.245-.582.368-.976.368zm1.104 1.056V229h-2.24v-8.864h2.24zm5.685-.144c.661 0 1.242.133 1.744.4.501.256.896.592 1.184 1.008v-1.264h2.256v8.928c0 .821-.166 1.552-.496 2.192-.331.651-.827 1.163-1.488 1.536-.662.384-1.462.576-2.4.576-1.259 0-2.294-.293-3.104-.88-.8-.587-1.254-1.387-1.36-2.4h2.224c.117.405.368.725.752.96.394.245.869.368 1.424.368.65 0 1.178-.197 1.584-.592.405-.384.608-.971.608-1.76v-1.376c-.288.416-.688.763-1.2 1.04-.502.277-1.078.416-1.728.416-.747 0-1.43-.192-2.048-.576-.619-.384-1.11-.923-1.472-1.616-.352-.704-.528-1.509-.528-2.416 0-.896.176-1.691.528-2.384.362-.693.848-1.227 1.456-1.6.618-.373 1.306-.56 2.064-.56zm2.928 4.576c0-.544-.107-1.008-.32-1.392-.214-.395-.502-.693-.864-.896-.363-.213-.752-.32-1.168-.32-.416 0-.8.101-1.152.304-.352.203-.64.501-.864.896-.214.384-.32.843-.32 1.376 0 .533.106 1.003.32 1.408.224.395.512.699.864.912.362.213.746.32 1.152.32.416 0 .805-.101 1.168-.304.362-.213.65-.512.864-.896.213-.395.32-.864.32-1.408zm9.436-4.56c.672 0 1.269.149 1.792.448.522.288.928.72 1.216 1.296.298.565.448 1.248.448 2.048v5.2h-2.24v-4.896c0-.704-.176-1.243-.528-1.616-.352-.384-.832-.576-1.44-.576-.619 0-1.11.192-1.472.576-.352.373-.528.912-.528 1.616V229h-2.24v-11.84h2.24v4.08c.288-.384.672-.683 1.152-.896.48-.224 1.013-.336 1.6-.336zm8.194 1.968v4.288c0 .299.069.517.208.656.149.128.394.192.736.192h1.04V229h-1.408c-1.888 0-2.832-.917-2.832-2.752v-4.272h-1.056v-1.84h1.056v-2.192h2.256v2.192h1.984v1.84h-1.984zm7.659 0h-1.552V229h-2.272v-7.024h-1.008v-1.84h1.008v-.448c0-1.088.309-1.888.928-2.4.618-.512 1.552-.752 2.8-.72v1.888c-.544-.011-.923.08-1.136.272-.214.192-.32.539-.32 1.04v.368h1.552v1.84zm9.819-1.84V229h-2.256v-1.12c-.288.384-.666.688-1.136.912-.458.213-.96.32-1.504.32-.693 0-1.306-.144-1.84-.432-.533-.299-.954-.731-1.264-1.296-.298-.576-.448-1.259-.448-2.048v-5.2h2.24v4.88c0 .704.176 1.248.528 1.632.352.373.832.56 1.44.56.619 0 1.104-.187 1.456-.56.352-.384.528-.928.528-1.632v-4.88h2.256zm4.451-2.976V229h-2.24v-11.84h2.24zm14.265 7.216c0 .32-.021.608-.064.864h-6.48c.053.64.277 1.141.672 1.504s.88.544 1.456.544c.832 0 1.424-.357 1.776-1.072h2.416c-.256.853-.747 1.557-1.472 2.112-.725.544-1.616.816-2.672.816-.853 0-1.621-.187-2.304-.56-.672-.384-1.2-.923-1.584-1.616-.373-.693-.56-1.493-.56-2.4 0-.917.187-1.723.56-2.416.373-.693.896-1.227 1.568-1.6s1.445-.56 2.32-.56c.843 0 1.595.181 2.256.544.672.363 1.189.88 1.552 1.552.373.661.56 1.424.56 2.288zm-2.32-.64c-.011-.576-.219-1.035-.624-1.376-.405-.352-.901-.528-1.488-.528-.555 0-1.024.171-1.408.512-.373.331-.603.795-.688 1.392h4.208zm7.651 3.2l2.24-6.8h2.384l-3.28 8.864h-2.72l-3.264-8.864h2.4l2.24 6.8zm14.122-2.56c0 .32-.021.608-.064.864h-6.48c.054.64.278 1.141.672 1.504.395.363.88.544 1.456.544.832 0 1.424-.357 1.776-1.072h2.416c-.256.853-.746 1.557-1.472 2.112-.725.544-1.616.816-2.672.816-.853 0-1.621-.187-2.304-.56-.672-.384-1.2-.923-1.584-1.616-.373-.693-.56-1.493-.56-2.4 0-.917.187-1.723.56-2.416.374-.693.896-1.227 1.568-1.6s1.446-.56 2.32-.56c.843 0 1.595.181 2.256.544.672.363 1.19.88 1.552 1.552.374.661.56 1.424.56 2.288zm-2.32-.64c-.01-.576-.218-1.035-.624-1.376-.405-.352-.901-.528-1.488-.528-.554 0-1.024.171-1.408.512-.373.331-.602.795-.688 1.392h4.208zm8.867-3.728c1.056 0 1.91.336 2.56 1.008.651.661.976 1.589.976 2.784v5.2h-2.24v-4.896c0-.704-.176-1.243-.528-1.616-.352-.384-.832-.576-1.44-.576-.618 0-1.109.192-1.472.576-.352.373-.528.912-.528 1.616V229h-2.24v-8.864h2.24v1.104c.299-.384.678-.683 1.136-.896.47-.224.982-.336 1.536-.336zm8.274 1.968v4.288c0 .299.07.517.208.656.15.128.395.192.736.192h1.04V229h-1.408c-1.888 0-2.832-.917-2.832-2.752v-4.272h-1.056v-1.84h1.056v-2.192h2.256v2.192h1.984v1.84h-1.984zm6.988 7.168c-.726 0-1.376-.128-1.952-.384-.576-.267-1.035-.624-1.376-1.072-.331-.448-.512-.944-.544-1.488h2.256c.042.341.208.624.496.848.298.224.666.336 1.104.336.426 0 .757-.085.992-.256.245-.171.368-.389.368-.656 0-.288-.15-.501-.448-.64-.288-.149-.752-.309-1.393-.48-.661-.16-1.205-.325-1.631-.496-.416-.171-.779-.432-1.088-.784-.299-.352-.448-.827-.448-1.424 0-.491.138-.939.416-1.344.288-.405.693-.725 1.216-.96.533-.235 1.157-.352 1.872-.352 1.056 0 1.898.267 2.528.8.629.523.976 1.232 1.04 2.128h-2.144c-.032-.352-.182-.629-.448-.832-.256-.213-.603-.32-1.04-.32-.406 0-.72.075-.944.224-.214.149-.32.357-.32.624 0 .299.149.528.448.688.298.149.762.304 1.392.464.64.16 1.168.325 1.584.496.416.171.773.437 1.072.8.309.352.469.821.48 1.408 0 .512-.144.971-.432 1.376-.278.405-.683.725-1.216.96-.523.224-1.136.336-1.84.336zm6.318-.032c-.405 0-.741-.123-1.008-.368-.256-.256-.384-.571-.384-.944s.128-.683.384-.928c.267-.256.603-.384 1.008-.384.395 0 .72.128.976.384.256.245.384.555.384.928s-.128.688-.384.944c-.256.245-.581.368-.976.368z"/>
    </g>
    <defs>
        <clipPath id="prefix__clip0">
            <path fill="#fff" d="M0 0H304V354H0z"/>
        </clipPath>
    </defs>
</svg>
