<svg xmlns="http://www.w3.org/2000/svg" width="24.399" height="19.518" viewBox="0 0 24.399 19.518">
    <path id="prefix__icons8_play_button" d="M25.889 6.667a3.057 3.057 0 0 0-2.157-2.157C21.829 4 14.2 4 14.2 4s-7.63 0-9.533.51A3.057 3.057 0 0 0 2.51 6.667 43.476 43.476 0 0 0 2 13.759a43.476 43.476 0 0 0 .51 7.092 3.057 3.057 0 0 0 2.157 2.157c1.9.51 9.533.51 9.533.51s7.63 0 9.533-.51a3.055 3.055 0 0 0 2.157-2.157 43.476 43.476 0 0 0 .51-7.092 43.476 43.476 0 0 0-.511-7.092zM11.76 17.984V9.533l7.32 4.226z" transform="translate(-2 -4)" style="fill:#fff"/>
</svg>
