<svg xmlns="http://www.w3.org/2000/svg" xmlns:xlink="http://www.w3.org/1999/xlink" width="505.247" height="442.367" viewBox="0 0 505.247 442.367"><defs><clipPath id="a"><path d="M313.993,321.97l47.474-4.91,4.857,21.851H289.31Z" transform="translate(-289.31 -317.06)" fill="none"/></clipPath><clipPath id="b"><path d="M207.063,253.447l47.461-4.9,4.87,21.838H182.38Z" transform="translate(-182.38 -248.55)" fill="none"/></clipPath></defs><path d="M43.5,434.043H304.843L263.219,22.54H1.88Z" transform="translate(0.608 7.345)" fill="#f5b640"/><path d="M52.484,434.043H313.836L272.212,22.54H10.86Z" transform="translate(3.513 7.345)" fill="#fff"/><path d="M407.374,378.3c12.957-20.832,19.3-43.676,21.083-68.107.834-11.422.318-23.2-3.971-33.815s-12.8-19.985-23.823-23.082c-15.075-4.209-32.624,5.6-36.939,20.647a135.684,135.684,0,0,0-9.265-40.658c-5.109-13.1-13.433-25.4-25.438-32.73-6.617-4.05-14.678-6.485-22.208-4.566-8.126,2.091-14.188,8.814-18.953,15.723a115,115,0,0,0-19.694,74.368c-6.26-4.99-15.776-5.043-22.9-1.39S233.148,295.365,230.713,303s-2.435,15.882-1.4,23.823c2.276,17.642,9.728,37.759,21.176,51.378" transform="translate(73.971 63.238)" fill="#fff"/><path d="M168.95,355.736h80.575L240.6,265.05H160.03Z" transform="translate(51.77 85.797)" fill="#c7e7e0"/><path d="M180.751,107.949s-24.127-20.2-23.519-23.069S170.362,90.9,170.362,90.9,157.55,79.824,159.072,77.813c1.893-2.541,14.559,8.735,14.559,8.735S162.58,74.636,164.009,72.8s14.109,9.159,14.109,9.159-10.985-11.647-9.265-13.831,20.554,12.348,20.554,12.348Z" transform="translate(50.861 22.019)" fill="#eac08e"/><path d="M189.7,43.939l14.956,10.707,2.647-3.732a9.264,9.264,0,0,0-2.144-12.851h0a9.264,9.264,0,0,0-12.838,2.144Z" transform="translate(61.368 11.82)" fill="#4db054"/><rect width="5.929" height="18.423" transform="matrix(0.581, -0.814, 0.814, 0.581, 247.609, 60.56)" fill="#fff"/><path d="M147.25,133.465,154.463,130l12.137-5.823,23.175-32.452h0l2.819-3.944,22.394-31.341-15-10.707L151.6,113.467l-2.74,12.547Z" transform="translate(47.636 14.847)" fill="#f5b640"/><path d="M147.25,116.927l7.213-3.468,12.137-5.823s-.185-6.922-7.623-6.035c0,0,0-5.863-7.372-4.672l-2.726,12.547Z" transform="translate(47.636 31.358)" fill="#fff"/><path d="M147.25,113.841l7.213-3.468-5.585-3.984Z" transform="translate(47.636 34.471)" fill="#2e2625"/><path d="M179.38,83.4h0l2.819-3.944L179.87,71.46Z" transform="translate(58.03 23.171)" fill="#2e2625"/><path d="M183.669,80.351s-4.222-11.263-1.946-12.044,13.129,15.128,13.129,15.128L175,107.827" transform="translate(56.613 22.142)" fill="#eac08e"/><path d="M195.785,79.73,172.2,100.985l3.679,3.137Z" transform="translate(55.707 25.846)" fill="#2e2625"/><path d="M280.048,56.992S261.016,68.9,251.8,63.821,246.749,7.93,246.749,7.93h36.873c.6,0,4.156,17.841,4.156,17.841s8.92.6,9.807,8.325-8.616,7.438-8.616,7.438L297.293,89.1H264.285l2.647-29.117" transform="translate(79.521 2.619)" fill="#eac08e"/><path d="M311.2,327.67l-.172-1.535a29.461,29.461,0,0,0-3.521-11.342,7.558,7.558,0,0,0-1.959-2.184,3.547,3.547,0,0,0-3.243-.5,3.613,3.613,0,0,0-2.091,3.454,7.159,7.159,0,0,0,1.191,3.468,21.177,21.177,0,0,0,8.431,7.941Zm-7.8-14.109a2.237,2.237,0,0,1,1.218.41,5.837,5.837,0,0,1,1.482,1.721,25.969,25.969,0,0,1,3.057,8.987,19.534,19.534,0,0,1-6.326-6.5,5.733,5.733,0,0,1-.966-2.647,1.959,1.959,0,0,1,1.032-1.866A1.324,1.324,0,0,1,303.4,313.562Z" transform="translate(97.117 100.959)" fill="#2e2625"/><path d="M307.721,325.808a18.524,18.524,0,0,0,3.084-.251l1.509-.265-1.046-1.125a26.376,26.376,0,0,0-8.6-6.207,6.617,6.617,0,0,0-2.647-.529,3.031,3.031,0,0,0-2.29,5.1,6.432,6.432,0,0,0,2.74,1.866,18.873,18.873,0,0,0,7.253,1.416Zm1.151-1.694a17.433,17.433,0,0,1-7.716-1.244,4.83,4.83,0,0,1-2.065-1.323,1.628,1.628,0,0,1-.265-1.773,1.654,1.654,0,0,1,1.323-.648,4.989,4.989,0,0,1,1.932.424,22.95,22.95,0,0,1,6.856,4.566Z" transform="translate(96.053 102.742)" fill="#2e2625"/><path d="M173.17,114.311s44.284,40.737,60.656,40.737c12.692,0,25.941-14.744,33.154-24.26,3.348-4.407,5.4-7.69,5.493-7.848h0l5.651,42.484h79.41l-2.713-13.354,8.457,12.811,32.955,49.909,33.895-21.414S360.26,74.156,352.531,65.236s-34.2-6.842-34.2-6.842c-22.9,24.379-29.117-.3-29.117-.3s-13.963-2.369-25.861,1.191c-6.154,1.853-14.929,15.551-21.97,28.336h0c-6.618,11.912-11.634,23.108-11.634,23.108l-32.108-26.47Z" transform="translate(56.021 18.595)" fill="#4db054"/><path d="M196.814,272.842h58.578l-10.112-79.7,18.873,2.647h0l38.5,5.387,35.735,162.341h59.716L352.868,140.2h-79.41s-65.474-11.051-79.675,0C177.8,152.721,196.814,272.842,196.814,272.842Z" transform="translate(60.62 43.819)" fill="#f5b640"/><path d="M245.4,181.437l38.5,5.387-1.482-7.134Z" transform="translate(79.387 58.183)" fill="#2e2625"/><path d="M303.92,94.77l8.537,45.224,8.457,12.8Z" transform="translate(98.318 30.712)" fill="#2e2625"/><path d="M244.05,119.471c3.348-4.407,5.4-7.69,5.493-7.848h0L246.9,92.3Z" transform="translate(78.95 29.913)" fill="#2e2625"/><path d="M372.138,161.19s17.364,21.8,16.173,24.485-11.594-8.629-11.594-8.629,10.217,13.5,8.325,15.167c-2.382,2.078-12.494-11.594-12.494-11.594s8.325,13.963,6.538,15.459-11.911-11.912-11.911-11.912,8.325,13.685,6.234,15.458-17.536-16.345-17.536-16.345,1.787,11.912-.6,12.189-9.847-17.444-9.847-17.444Z" transform="translate(111.747 52.199)" fill="#eac08e"/><path d="M358.714,307.74l7.61,34.186H289.31l24.683-16.941-3.428-17.245Z" transform="translate(93.592 99.608)" fill="#eac08e"/><path d="M313.993,321.97l47.474-4.91,4.857,21.851H289.31Z" transform="translate(93.592 102.623)" fill="#2e2625"/><path d="M353.519,307.74,306.694,314.4l-1.324-6.657Z" transform="translate(98.788 99.608)" fill="#2e2625"/><g transform="translate(382.902 419.683)" clip-path="url(#a)"><path d="M333.742,341.83a26.218,26.218,0,0,1,2.515-9.45,15.643,15.643,0,0,1,6.485-6.9,16.69,16.69,0,0,1,7.332-1.76V322.07a18.29,18.29,0,0,0-8.06,1.946,17.4,17.4,0,0,0-7.187,7.623,27.938,27.938,0,0,0-2.647,10.032Z" transform="translate(-275.441 -315.439)" fill="#fff"/></g><path d="M204.247,259.15l-.159-1.535a29.355,29.355,0,0,0-3.534-11.329,7.372,7.372,0,0,0-1.946-2.2,3.3,3.3,0,0,0-5.294,2.951,7.161,7.161,0,0,0,1.191,3.468,21.4,21.4,0,0,0,8.417,7.941Zm-7.8-14.109a2.2,2.2,0,0,1,1.218.41,5.691,5.691,0,0,1,1.5,1.721,26.246,26.246,0,0,1,3,8.934,19.574,19.574,0,0,1-6.34-6.5,5.52,5.52,0,0,1-.953-2.647,1.972,1.972,0,0,1,1.032-1.879,1.47,1.47,0,0,1,.543-.04Z" transform="translate(62.532 78.793)" fill="#2e2625"/><path d="M200.779,257.285a18.253,18.253,0,0,0,3.071-.251l1.522-.265-1.046-1.112a26.352,26.352,0,0,0-8.6-6.22,6.763,6.763,0,0,0-2.647-.516,3.2,3.2,0,0,0-2.647,1.416,3.269,3.269,0,0,0,.357,3.679,6.512,6.512,0,0,0,2.74,1.853,18.82,18.82,0,0,0,7.253,1.416Zm1.125-1.641a17.51,17.51,0,0,1-7.729-1.244,5.1,5.1,0,0,1-2.065-1.323,1.681,1.681,0,0,1-.251-1.787,1.6,1.6,0,0,1,1.324-.648,5.055,5.055,0,0,1,1.946.423,22.95,22.95,0,0,1,6.776,4.579Z" transform="translate(61.473 80.579)" fill="#2e2625"/><path d="M251.784,239.22l7.61,34.186H182.38l24.683-16.941-3.428-17.245Z" transform="translate(59 77.441)" fill="#eac08e"/><path d="M207.063,253.447l47.461-4.9,4.87,21.838H182.38Z" transform="translate(59 80.46)" fill="#2e2625"/><path d="M246.589,239.22l-46.825,6.657-1.324-6.657Z" transform="translate(64.196 77.441)" fill="#2e2625"/><g transform="translate(241.38 329.01)" clip-path="url(#b)"><path d="M226.815,273.277a26.47,26.47,0,0,1,2.5-9.45,15.789,15.789,0,0,1,6.485-6.9,16.557,16.557,0,0,1,7.332-1.747V253.53a18.291,18.291,0,0,0-8.06,1.932,17.4,17.4,0,0,0-7.187,7.623,28.006,28.006,0,0,0-2.647,10.032Z" transform="translate(-168.515 -246.939)" fill="#fff"/></g><path d="M215.85,103.338l2.978,2.382,8.656-25.491C220.919,92.181,215.85,103.338,215.85,103.338Z" transform="translate(69.828 26.008)" fill="#2e2625"/><path d="M345.45,178.038l29.713-12.957-3.031-3.891Z" transform="translate(111.753 52.199)" fill="#2e2625"/><rect width="1.654" height="86.279" transform="translate(395.485 323.035) rotate(-11.84)" fill="#2e2625"/><rect width="1.654" height="82.136" transform="translate(289.483 235.443) rotate(-8.11)" fill="#2e2625"/><rect width="52.728" height="1.654" transform="translate(402.675 390.155)" fill="#2e2625"/><rect width="51.484" height="1.654" transform="translate(262.636 300.978)" fill="#2e2625"/><path d="M317.709,190.162l1.615-.357-4.606-21.176h-.662c-7.743,0-13.844-21.467-15.538-29.739l-1.628.331a120.873,120.873,0,0,0,4.42,15.326c3.693,9.926,7.742,15.194,12.07,15.7Z" transform="translate(96.044 44.984)" fill="#2e2625"/><path d="M261.17,56.891,274.339,45.35a71.55,71.55,0,0,1-12.653,5.863Z" transform="translate(84.489 14.724)" fill="#2e2625"/><path d="M250.721,39.845l1.244-1.085c-1.575-1.826-2.991-4.354-2.475-5.069.979-1.323,3.428.318,3.454.344l1.6,1.138L251.9,18.06l-1.628.265,2.118,13.539a3.375,3.375,0,0,0-4.209.86c-.728,1.032-.49,2.541.768,4.619a18.7,18.7,0,0,0,1.773,2.5Z" transform="translate(80.154 5.896)" fill="#2e2625"/><path d="M255.479,41.619a4.976,4.976,0,0,0,4.7-5.069h-1.654a3.375,3.375,0,0,1-.887,2.329,3.322,3.322,0,0,1-2.276,1.059Z" transform="translate(82.609 11.877)" fill="#2e2625"/><path d="M257.75,23.948c0,1.39.463,2.528,1.046,2.528s1.032-1.138,1.032-2.528-.463-2.528-1.032-2.528S257.75,22.545,257.75,23.948Z" transform="translate(83.382 6.983)" fill="#2e2625"/><path d="M260.481,34.572a7.941,7.941,0,1,0-7.941-7.941,7.941,7.941,0,0,0,7.941,7.941Zm0-14.267a6.313,6.313,0,1,1-6.313,6.313A6.313,6.313,0,0,1,260.481,20.3Z" transform="translate(81.697 6.1)" fill="#2e2625"/><path d="M246.548,34.692c2.475,0,3.8-4.1,3.8-7.941s-1.323-7.941-3.8-7.941-3.8,4.1-3.8,7.941S244.087,34.692,246.548,34.692Zm0-14.281c.86,0,2.144,2.515,2.144,6.313s-1.324,6.313-2.144,6.313S244.4,30.51,244.4,26.725s1.323-6.34,2.144-6.34Z" transform="translate(78.53 6.139)" fill="#2e2625"/><rect width="6.988" height="1.654" transform="translate(328.056 30.375)" fill="#2e2625"/><rect width="18.211" height="1.654" transform="translate(349.189 30.39) rotate(-8.86)" fill="#2e2625"/><path d="M252.819,15.723a13.434,13.434,0,0,1-8.073,0,6.512,6.512,0,0,1-4.315-4.553,5.89,5.89,0,0,1,3.282-6.035,9.728,9.728,0,0,1,7.173-.344,26.641,26.641,0,0,1,6.538,2.779C256.1,5.228,257.6,2,260.072.781a11.554,11.554,0,0,1,7.941-.225A34.517,34.517,0,0,1,282.849,8.5s.887-5.651,4.46-5.056c5.016.834,3.56,30.917,0,31.764s-4.169-9.265-4.169-9.265c-6.168,0-11.911-4.8-13.844-10.667A24.233,24.233,0,0,1,257.279,20.9C253.587,21.4,251.032,18.7,252.819,15.723Z" transform="translate(77.765 0.04)" fill="#2e2625"/><path d="M278.612,29.062l1.641-.278-.4-2.4a3.057,3.057,0,0,1,1.813.357l.821-1.443a4.566,4.566,0,0,0-3.891-.278l-.609.238Z" transform="translate(89.93 8.049)" fill="#2e2625"/><path d="M207.65,129.6c4.05-5.7,8.907-8.907,14.439-9.542,10.231-1.178,19.455,6.869,19.548,6.948l1.1-1.244c-.4-.344-9.873-8.6-20.832-7.345-6.022.688-11.263,4.129-15.6,10.217Z" transform="translate(66.738 38.318)" fill="#2e2625"/><path d="M350.307,130.412l.119-1.654c-.146,0-14.559-1.125-19.76-10.138-2.925-5.1-2.369-11.832,1.654-20l-1.482-.741c-4.288,8.7-4.831,15.961-1.6,21.573,2.329,4.063,6.723,7.253,12.706,9.264a37.9,37.9,0,0,0,8.365,1.694Z" transform="translate(105.837 31.718)" fill="#2e2625"/><path d="M206.24,355.626h80.575l-8.92-90.686H197.32Z" transform="translate(63.833 85.762)" fill="#4db054"/><path d="M211.5,301.773h23.558l-2.607-26.523H208.89Z" transform="translate(67.576 89.097)" fill="#fff"/><path d="M198.759,142.84H89.65l1.443,14.585h109.1Z" transform="translate(29.002 46.262)" fill="#c7e7e0"/><path d="M87.58,121.76l1.429,14.519h93.638l-1.429-14.519Z" transform="translate(28.332 39.443)" fill="#c7e7e0"/><path d="M165.794,200.35H95.94l1.443,14.585h69.854Z" transform="translate(31.037 64.867)" fill="#c7e7e0"/><path d="M93.87,179.27,95.3,193.8H202.027L200.6,179.27Z" transform="translate(30.367 58.047)" fill="#c7e7e0"/><path d="M49.752,164.244H87.5L83.316,121.76H45.57Z" transform="translate(14.742 39.443)" fill="#4db054"/><path d="M55.812,221.754H93.559L89.376,179.27H51.63Z" transform="translate(16.702 58.047)" fill="#f5b640"/><rect width="49.367" height="1.654" transform="translate(217.531 408.327)" fill="#2e2625"/><rect width="21.997" height="1.654" transform="translate(308.283 372.169)" fill="#2e2625"/><rect width="21.997" height="1.654" transform="translate(309.17 381.089)" fill="#2e2625"/><path d="M77.873,106.734H40.14L44.309,64.25H82.055Z" transform="translate(12.985 20.838)" fill="#f5b640"/><path d="M53.1,104.9,45.7,78.075l1.6-.4L53.6,100.5A239.076,239.076,0,0,1,82.44,58.54l1.244,1.085a237.885,237.885,0,0,0-29.646,43.437Z" transform="translate(14.784 18.991)" fill="#2e2625"/><path d="M60.372,161.412,53,134.585l1.588-.437,6.3,22.817A239.793,239.793,0,0,1,89.727,115.05l1.323,1.085a237.291,237.291,0,0,0-29.713,43.437Z" transform="translate(17.146 37.272)" fill="#2e2625"/><path d="M153.082,85.36H83.81l1.429,14.545h69.272Z" transform="translate(27.113 27.667)" fill="#c7e7e0"/><path d="M81.74,64.25l1.429,14.559h87.7L169.435,64.25Z" transform="translate(26.443 20.838)" fill="#c7e7e0"/><path d="M358.31,229.764a9.49,9.49,0,0,1-8.576,3.084,8.206,8.206,0,0,1-4.248-14.175,9.159,9.159,0,0,1,8.259-2.091C360.269,218.17,362.916,224.536,358.31,229.764Z" transform="translate(110.897 70.036)" fill="#f5b640"/><path d="M140.988,253.2a13.367,13.367,0,0,1-12.163,4.368,12.15,12.15,0,0,1-9.476-8.6,11.991,11.991,0,0,1,3.454-11.488,12.984,12.984,0,0,1,11.713-2.978C143.846,236.747,147.552,245.787,140.988,253.2Z" transform="translate(38.506 75.798)" fill="#4db054"/><path d="M165.074,367.459c13.9-16.438,23.188-37.773,23.055-59.293a42.074,42.074,0,0,0-2.753-16.253c-2.171-5.1-6.115-9.635-11.316-11.514-7.134-2.581-15.339.291-21.017,5.294s-8.8,10.376-12.653,18.754c-.86-12.547-2.29-24.908-5.77-36.992s-9.834-23.717-19.853-31.367S90.786,225.407,79.232,230.4c-13.738,5.943-21.1,21.719-21.48,36.687a90.911,90.911,0,0,0,10.032,43.53,72.052,72.052,0,0,0-28.455-17.589,26.47,26.47,0,0,0-17.364.529c-5.387,2.263-8.934,7.782-10.072,13.526s-.172,11.7,1.324,17.351c4.235,15.511,15.472,32.24,27.277,43.159" transform="translate(3.686 73.797)" fill="#4db054"/><path d="M107.083,355.308a49.472,49.472,0,0,0,1.641-41.161,26.973,26.973,0,0,0-7.835-10.786,17.3,17.3,0,0,0-3.719-2.224A49.817,49.817,0,0,0,79.792,267.11l-1.072,1.324a48.109,48.109,0,0,1,16.729,32.121,13.884,13.884,0,0,0-7.517-.291,11,11,0,0,0-8.4,10.112,8.894,8.894,0,0,0,3.19,6.618,7.782,7.782,0,0,0,6.207,1.932,9.635,9.635,0,0,0,6.842-5.572,19.972,19.972,0,0,0,1.535-8.537c0-.6,0-1.2,0-1.8a15.884,15.884,0,0,1,2.647,1.641,25.293,25.293,0,0,1,7.332,10.151c5.215,11.978,4.566,28.31-1.575,39.705Zm-11.5-53.019c0,.834.066,1.681.066,2.528a18.529,18.529,0,0,1-1.323,7.822,7.941,7.941,0,0,1-5.651,4.619,6.075,6.075,0,0,1-4.87-1.549,7.2,7.2,0,0,1-2.647-5.413,9.265,9.265,0,0,1,7.2-8.484A12.415,12.415,0,0,1,95.581,302.289Z" transform="translate(25.466 86.464)" fill="#2e2625"/><path d="M89.635,276.351a8.59,8.59,0,0,1-7.782,2.793,7.756,7.756,0,0,1-6.062-5.506A7.637,7.637,0,0,1,78,266.293a8.259,8.259,0,0,1,7.491-1.906C91.461,265.83,93.83,271.6,89.635,276.351Z" transform="translate(24.451 85.508)" fill="#fff"/><path d="M101.007,347.15a73.626,73.626,0,0,0,27.211-53.191l-1.443-.609c-13.063,13.976-20.263,32.982-27.066,52.94Zm25.4-50.915a72.1,72.1,0,0,1-24.167,47.725c6.181-17.986,12.891-34.9,24.167-47.792Z" transform="translate(32.256 94.952)" fill="#2e2625"/><path d="M101.275,340.648l.953-1.323c-7.782-10.363-15.631-20.144-25.98-25.874l-1.178,1.019a45.581,45.581,0,0,0,26.205,26.179ZM77.624,316.256c8.272,5.2,14.969,13.156,21.494,21.732a44.139,44.139,0,0,1-21.494-21.732Z" transform="translate(24.285 101.455)" fill="#2e2625"/><path d="M284.912,343.646l1.429-.675c-2.2-14.373-4.778-28.191-11.978-39.321l-1.509.344A51.008,51.008,0,0,0,284.912,343.646Zm-10.667-37.058c5.612,9.7,8.047,21.388,10.006,33.617a49.578,49.578,0,0,1-10.006-33.59Z" transform="translate(88.144 98.284)" fill="#2e2625"/><path d="M284.967,349.567a75.731,75.731,0,0,0-5.691-65l-1.416.847a74.01,74.01,0,0,1,5.559,63.528Z" transform="translate(89.888 92.112)" fill="#2e2625"/><rect width="505.247" height="1.654" transform="translate(0 440.713)" fill="#2e2625"/></svg>