<svg xmlns="http://www.w3.org/2000/svg" id="Layer_2" width="577.829" height="430.61" data-name="Layer 2" viewBox="0 0 577.829 430.61">
    <defs>
        <style>
            .cls-1{fill:#ebebeb}.cls-2{fill:#f5f5f5}.cls-14,.cls-3,.cls-9{fill:#fff}.cls-4{fill:#e6e6e6}.cls-6{fill:#f0f0f0}.cls-7{fill:#407bff}.cls-14,.cls-8{opacity:.3}.cls-9{opacity:.5}.cls-10{fill:#263238}.cls-11{opacity:.2}.cls-12{fill:#ffc3bd}.cls-15{fill:#7f3e3b}
        </style>
    </defs>
    <g id="Background_Complete" data-name="Background Complete">
        <path id="Rectangle_480" d="M0 0H577.829V0.289H0z" class="cls-1" data-name="Rectangle 480" transform="translate(0 378.42)"/>
        <path id="Rectangle_481" d="M0 0H38.275V0.289H0z" class="cls-1" data-name="Rectangle 481" transform="translate(481.655 397.015)"/>
        <path id="Rectangle_482" d="M0 0H81.832V0.289H0z" class="cls-1" data-name="Rectangle 482" transform="translate(385.274 397.015)"/>
        <path id="Rectangle_483" d="M0 0H22.177V0.289H0z" class="cls-1" data-name="Rectangle 483" transform="translate(317.968 386.29)"/>
        <path id="Rectangle_484" d="M0 0H39.628V0.289H0z" class="cls-1" data-name="Rectangle 484" transform="translate(60.626 388.232)"/>
        <path id="Rectangle_485" d="M0 0H72.055V0.289H0z" class="cls-1" data-name="Rectangle 485" transform="translate(110.539 388.232)"/>
        <path id="Rectangle_486" d="M0 0H42.54V0.289H0z" class="cls-1" data-name="Rectangle 486" transform="translate(217.645 393.109)"/>
        <path id="Path_2361" d="M267.943 326.878H44.8a6.6 6.6 0 0 1-6.587-6.6V6.6A6.6 6.6 0 0 1 44.8 0h223.143a6.6 6.6 0 0 1 6.6 6.6v313.68a6.6 6.6 0 0 1-6.6 6.598zM44.8.289A6.31 6.31 0 0 0 38.5 6.6v313.68a6.31 6.31 0 0 0 6.3 6.31h223.143a6.321 6.321 0 0 0 6.31-6.31V6.6a6.321 6.321 0 0 0-6.31-6.31z" class="cls-1" data-name="Path 2361" transform="translate(5.948)"/>
        <path id="Path_2362" d="M484.257 326.878H261.1a6.61 6.61 0 0 1-6.6-6.6V6.6a6.61 6.61 0 0 1 6.6-6.6h223.157a6.6 6.6 0 0 1 6.576 6.6v313.68a6.6 6.6 0 0 1-6.576 6.598zM261.1.289a6.321 6.321 0 0 0-6.31 6.31v313.68a6.321 6.321 0 0 0 6.31 6.31h223.157a6.321 6.321 0 0 0 6.31-6.31V6.6a6.321 6.321 0 0 0-6.31-6.31z" class="cls-1" data-name="Path 2362" transform="translate(39.615)"/>
        <path id="Rectangle_487" d="M0 0H111.741V308.214H0z" class="cls-2" data-name="Rectangle 487" transform="translate(71.709 40.356)"/>
        <path id="Rectangle_488" d="M0 0H1.133V308.214H0z" class="cls-1" data-name="Rectangle 488" transform="rotate(180 92.291 174.285)"/>
        <path id="Rectangle_489" d="M0 0H90.176V284.697H0z" class="cls-3" data-name="Rectangle 489" transform="translate(82.491 52.12)"/>
        <path id="Rectangle_490" d="M0 0H263.594V195.849H0z" class="cls-4" data-name="Rectangle 490" transform="rotate(180 247.473 111.4)"/>
        <path id="Rectangle_491" d="M0 0H263.594V195.849H0z" class="cls-2" data-name="Rectangle 491" transform="rotate(180 245.433 111.4)"/>
        <path id="Rectangle_492" d="M0 0H179.404V248.952H0z" class="cls-3" data-name="Rectangle 492" transform="rotate(90 224.186 259.353)"/>
        <path id="Rectangle_493" d="M0 0H179.404V3.086H0z" class="cls-4" data-name="Rectangle 493" transform="rotate(90 101.247 136.414)"/>
        <path id="Rectangle_494" d="M0 0H257.539V11.048H0z" class="cls-2" data-name="Rectangle 494" transform="rotate(180 243.913 88.125)"/>
        <g id="Group_494" data-name="Group 494" opacity="0.4" transform="translate(219.09 18.283)">
            <path id="Rectangle_495" d="M0 0H24.881V62.949H0z" class="cls-4" data-name="Rectangle 495" transform="translate(0 .012)"/>
            <path id="Rectangle_496" d="M0 0H12.342V57.887H0z" class="cls-2" data-name="Rectangle 496" transform="rotate(180 18.612 28.944)"/>
            <path id="Rectangle_497" d="M0 0H24.881V62.949H0z" class="cls-4" data-name="Rectangle 497" transform="translate(37.224 .012)"/>
            <path id="Rectangle_498" d="M0 0H12.342V57.887H0z" class="cls-2" data-name="Rectangle 498" transform="rotate(180 37.224 28.944)"/>
            <path id="Rectangle_499" d="M0 0H24.881V62.949H0z" class="cls-4" data-name="Rectangle 499" transform="translate(74.448 .012)"/>
            <path id="Rectangle_500" d="M0 0H12.342V57.887H0z" class="cls-2" data-name="Rectangle 500" transform="rotate(180 55.836 28.944)"/>
            <path id="Rectangle_501" d="M0 0H24.881V62.949H0z" class="cls-4" data-name="Rectangle 501" transform="translate(111.671 .012)"/>
            <path id="Rectangle_502" d="M0 0H12.342V57.887H0z" class="cls-2" data-name="Rectangle 502" transform="rotate(180 74.448 28.944)"/>
            <path id="Rectangle_503" d="M0 0H24.881V62.949H0z" class="cls-4" data-name="Rectangle 503" transform="translate(148.895 .012)"/>
            <path id="Rectangle_504" d="M0 0H12.342V57.887H0z" class="cls-2" data-name="Rectangle 504" transform="rotate(180 93.06 28.944)"/>
            <path id="Rectangle_505" d="M0 0H24.881V62.949H0z" class="cls-4" data-name="Rectangle 505" transform="translate(186.119 .012)"/>
            <path id="Rectangle_506" d="M0 0H12.342V57.887H0z" class="cls-2" data-name="Rectangle 506" transform="rotate(180 111.671 28.944)"/>
            <path id="Rectangle_507" d="M0 0H24.881V62.949H0z" class="cls-4" data-name="Rectangle 507" transform="translate(223.343 .012)"/>
            <path id="Rectangle_508" d="M0 0H12.342V57.887H0z" class="cls-2" data-name="Rectangle 508" transform="rotate(180 130.283 28.944)"/>
            <path id="Rectangle_509" d="M0 0H24.881V62.949H0z" class="cls-4" data-name="Rectangle 509" transform="translate(260.566 .012)"/>
        </g>
        <path id="Rectangle_510" d="M0 0H30.845V114.872H0z" class="cls-4" data-name="Rectangle 510" transform="rotate(180 133.132 189.204)"/>
        <path id="Path_2363" d="M208.851 328.843h-5.131V318.5h10.516z" class="cls-6" data-name="Path 2363" transform="translate(31.711 49.577)"/>
        <path id="Rectangle_511" d="M0 0H30.845V114.872H0z" class="cls-4" data-name="Rectangle 511" transform="rotate(180 244.104 189.205)"/>
        <path id="Rectangle_512" d="M0 0H226.405V110.897H0z" class="cls-6" data-name="Rectangle 512" transform="rotate(180 230.918 187.222)"/>
        <path id="Rectangle_513" d="M0 0H218.443V30.417H0z" class="cls-4" data-name="Rectangle 513" transform="rotate(180 228.93 149.438)"/>
        <path id="Path_2364" d="M256.787 241.881h107.927c5 0 9.8-3.756 13.244-10.4H243.52c3.444 6.644 8.228 10.4 13.267 10.4z" class="cls-6" data-name="Path 2364" transform="translate(37.906 36.032)"/>
        <path id="Path_2365" d="M395.915 328.843h5.131V318.5H390.53z" class="cls-6" data-name="Path 2365" transform="translate(60.789 49.577)"/>
        <path id="Rectangle_514" d="M0 0H218.443V30.417H0z" class="cls-4" data-name="Rectangle 514" transform="rotate(180 228.93 167.102)"/>
        <path id="Path_2366" d="M256.787 272.451h107.927c5 0 9.8-3.756 13.244-10.4H243.52c3.444 6.649 8.228 10.4 13.267 10.4z" class="cls-6" data-name="Path 2366" transform="translate(37.906 40.79)"/>
        <path id="Rectangle_515" d="M0 0H218.443V30.417H0z" class="cls-4" data-name="Rectangle 515" transform="rotate(180 228.93 184.767)"/>
        <path id="Path_2367" d="M256.787 303.021h107.927c5 0 9.8-3.756 13.244-10.4H243.52c3.444 6.644 8.228 10.4 13.267 10.4z" class="cls-6" data-name="Path 2367" transform="translate(37.906 45.549)"/>
    </g>
    <g id="Shadow" transform="translate(64.844 404.446)">
        <ellipse id="_Path_" cx="224.071" cy="13.082" class="cls-2" data-name="&lt;Path&gt;" rx="224.071" ry="13.082"/>
    </g>
    <g id="Character_2" data-name="Character 2" transform="translate(289.986 148.843)">
        <path id="Path_2368" d="M371.2 362.849h-1.237a1.075 1.075 0 0 1-.982-1.005l-7.6-52.964h5.778l5.041 52.62a1.156 1.156 0 0 1-.994 1.352z" class="cls-7" data-name="Path 2368" transform="translate(-233.734 -100.763)"/>
        <path id="Path_2369" d="M371.2 362.849h-1.237a1.075 1.075 0 0 1-.982-1.005l-7.6-52.964h5.778l5.041 52.62a1.156 1.156 0 0 1-.994 1.352z" class="cls-8" data-name="Path 2369" transform="translate(-233.734 -100.763)"/>
        <path id="Path_2370" d="M384.923 362.849h-1.237a1.075 1.075 0 0 1-.982-1.005l-7.6-52.964h5.778l5.05 52.617a1.156 1.156 0 0 1-1.005 1.352z" class="cls-7" data-name="Path 2370" transform="translate(-231.598 -100.763)"/>
        <path id="Path_2371" d="M384.923 362.849h-1.237a1.075 1.075 0 0 1-.982-1.005l-7.6-52.964h5.778l5.05 52.617a1.156 1.156 0 0 1-1.005 1.352z" class="cls-8" data-name="Path 2371" transform="translate(-231.598 -100.763)"/>
        <path id="Path_2372" d="M307.3 362.849h1.237a1.075 1.075 0 0 0 .982-1.005l7.6-52.964h-5.778L306.3 361.5a1.156 1.156 0 0 0 .994 1.352z" class="cls-7" data-name="Path 2372" transform="translate(-242.31 -100.763)"/>
        <path id="Path_2373" d="M307.3 362.849h1.237a1.075 1.075 0 0 0 .982-1.005l7.6-52.964h-5.778L306.3 361.5a1.156 1.156 0 0 0 .994 1.352z" class="cls-8" data-name="Path 2373" transform="translate(-242.31 -100.763)"/>
        <path id="Path_2374" d="M293.576 362.849h1.237a1.075 1.075 0 0 0 .982-1.005l7.6-52.964h-5.778l-5.035 52.62a1.156 1.156 0 0 0 .994 1.352z" class="cls-7" data-name="Path 2374" transform="translate(-244.446 -100.763)"/>
        <path id="Path_2375" d="M293.576 362.849h1.237a1.075 1.075 0 0 0 .982-1.005l7.6-52.964h-5.778l-5.035 52.62a1.156 1.156 0 0 0 .994 1.352z" class="cls-8" data-name="Path 2375" transform="translate(-244.446 -100.763)"/>
        <path id="Path_2376" d="M276.445 260.338h38.923c6.934-23.98 31.758-42.9 57.205-42.9h12.643c26.58 0 43.823 20.721 38.391 46.284a51.809 51.809 0 0 1-4.958 13.5l-6.137 37.2c-.786 4.808-4.623 8.691-8.552 8.691H286.8c-3.929 0-7.766-3.883-8.552-8.691l-7.489-45.394c-.797-4.795 1.757-8.69 5.686-8.69z" class="cls-7" data-name="Path 2376" transform="translate(-247.862 -114.996)"/>
        <path id="Path_2377" d="M276.445 260.338h38.923c6.934-23.98 31.758-42.9 57.205-42.9h12.643c26.58 0 43.823 20.721 38.391 46.284a51.809 51.809 0 0 1-4.958 13.5l-6.137 37.2c-.786 4.808-4.623 8.691-8.552 8.691H286.8c-3.929 0-7.766-3.883-8.552-8.691l-7.489-45.394c-.797-4.795 1.757-8.69 5.686-8.69z" class="cls-9" data-name="Path 2377" transform="translate(-247.862 -114.996)"/>
        <path id="Path_2378" d="M269.768 344.1l9.638 4.426a.682.682 0 0 1 .37.878l-3.039 7.847a1.676 1.676 0 0 1-2.2.832c-3.328-1.595-4.842-2.531-9.083-4.472a113.437 113.437 0 0 1-12.967-7.512c-3.143-2.311-.832-5.432.728-4.738 7.05 3.109 11.557 3.386 14.827 2.589a2.727 2.727 0 0 1 1.726.15z" class="cls-10" data-name="Path 2378" transform="translate(-250.927 -95.722)"/>
        <path id="Path_2379" d="M335.688 241.48s-61.631.763-62.59 25.055c-1.364 34.924-6.518 92.9-6.518 92.9l10.4 4.623s18.213-58.176 18.86-85.449c17.335-4.311 61.909 0 67.144-14.18a46.677 46.677 0 0 0 1.976-22.951z" class="cls-7" data-name="Path 2379" transform="translate(-248.49 -111.254)"/>
        <path id="Path_2380" d="M335.688 241.48s-61.631.763-62.59 25.055c-1.364 34.924-6.518 92.9-6.518 92.9l10.4 4.623s18.213-58.176 18.86-85.449c17.335-4.311 61.909 0 67.144-14.18a46.677 46.677 0 0 0 1.976-22.951z" class="cls-11" data-name="Path 2380" transform="translate(-248.49 -111.254)"/>
        <path id="Path_2381" d="M346.347 187.349c-.543 2.242-1.086 4.264-1.7 6.368s-1.248 4.137-1.918 6.206c-1.352 4.114-2.843 8.205-4.553 12.25a100.132 100.132 0 0 1-5.952 12.03 58.383 58.383 0 0 1-3.906 5.894 33.146 33.146 0 0 1-5.374 5.674l-.173.139a2.8 2.8 0 0 1-.37.277 8.736 8.736 0 0 1-3.883 1.4 10.8 10.8 0 0 1-2.623 0 15.972 15.972 0 0 1-3.548-.855 36.539 36.539 0 0 1-5.166-2.311 85.057 85.057 0 0 1-8.587-5.455c-2.681-1.93-5.27-3.929-7.789-6s-4.935-4.207-7.327-6.506a3.525 3.525 0 0 1 4.16-5.628h.058c2.727 1.514 5.478 3.109 8.24 4.623s5.489 3.028 8.228 4.438 5.489 2.739 8.09 3.837a23.658 23.658 0 0 0 3.687 1.225 4.057 4.057 0 0 0 1.156.15h-.243a3.467 3.467 0 0 0-1.641.612l-.555.416a20.342 20.342 0 0 0 2.993-3.687 51.64 51.64 0 0 0 2.785-4.738A110.294 110.294 0 0 0 325.187 207c1.421-3.721 2.75-7.535 3.987-11.395s2.392-7.835 3.467-11.557v-.15a7.073 7.073 0 1 1 13.695 3.548z" class="cls-10" data-name="Path 2381" transform="translate(-246.032 -121.043)"/>
        <path id="Path_2382" d="M318.437 348.06h11.557a.74.74 0 0 1 .763.7l.566 9.153a1.814 1.814 0 0 1-1.8 1.826c-4.022-.069-5.952-.3-11.036-.3-3.12 0-9.43.324-13.752.324s-4.2-4.276-2.369-4.623c8.217-1.733 11.395-4.126 14.3-6.414a2.993 2.993 0 0 1 1.771-.666z" class="cls-10" data-name="Path 2382" transform="translate(-243.107 -94.664)"/>
        <path id="Path_2383" d="M348.1 241.482s-55.9 4.715-54.524 29c1.5 26.58 26.049 94.175 26.049 94.175h11.3s-9.673-61.909-13.082-88.986c15.763 0 52.305 2.97 57.552-11.245a46.585 46.585 0 0 0 1.965-22.951z" class="cls-7" data-name="Path 2383" transform="translate(-244.293 -111.256)"/>
        <path id="Path_2384" d="M288.584 207.97a18.8 18.8 0 0 0-3.143-3.86c-2.311 2.138-3.571 8.39-3.571 8.39l3.155.289s3.629-1.179 3.559-4.819z" class="cls-7" data-name="Path 2384" transform="translate(-246.11 -117.071)"/>
        <path id="Path_2385" d="M278.75 202.825l-3.594-1.56a2.08 2.08 0 0 0-2.635.832l-1.71 2.831a2.092 2.092 0 0 0 .289 2.531l4.935 5.154 8.228-.335a2.6 2.6 0 0 0 2.23-1.421l.947-1.857a2.577 2.577 0 0 0-.821-3.34c-2.669-1.772-7.869-2.835-7.869-2.835z" class="cls-12" data-name="Path 2385" transform="translate(-247.878 -117.543)"/>
        <path id="Path_2386" d="M326.189 185.361c-1.641 10.4-3.779 32.867.578 66.728l45.822-.428c-.277-23.471 3.4-45.51 6.992-67.028a6.4 6.4 0 0 0-5.443-7.408 170.266 170.266 0 0 0-39.558 0 9.835 9.835 0 0 0-8.39 8.136z" class="cls-10" data-name="Path 2386" transform="translate(-239.523 -121.436)"/>
        <path id="Path_2387" d="M376.717 181.625c1.352 3.34 2.427 6.541 3.536 9.846s2.057 6.622 2.97 9.985 1.71 6.784 2.311 10.285a84.6 84.6 0 0 1 1.4 10.84c.069.936.081 1.907.092 2.878v1.479a9 9 0 0 1-1.156 4.322 8.159 8.159 0 0 1-1.918 2.254 8.557 8.557 0 0 1-1.156.763 7.034 7.034 0 0 1-1.156.508 9.245 9.245 0 0 1-3.4.589 16.006 16.006 0 0 1-4.045-.624 35.92 35.92 0 0 1-5.593-2.219c-1.676-.82-3.247-1.687-4.784-2.589a126.64 126.64 0 0 1-16.954-12.134 3.5 3.5 0 1 1 3.779-5.882h.081c5.975 2.854 12.053 5.778 17.97 8.217 1.479.613 2.947 1.156 4.392 1.664a24.983 24.983 0 0 0 3.941 1.075c.532.081 1.005.081.948 0a1.745 1.745 0 0 0-.913.162 4.746 4.746 0 0 0-.532.243 4.626 4.626 0 0 0-.624.4 5 5 0 0 0-1.156 1.294 4.2 4.2 0 0 0-.6 1.884l-.058-1.04c-.069-.716-.127-1.433-.231-2.173a122.758 122.758 0 0 0-4.322-18.491c-1.849-6.206-3.975-12.539-6.137-18.56v-.058a7.1 7.1 0 0 1 13.313-4.923z" class="cls-10" data-name="Path 2387" transform="translate(-236.243 -121.293)"/>
        <path id="Path_2388" d="M359.5 157l-5.536 4.623-7.558 6.264a22.277 22.277 0 0 1 .485 3.051c.358 3.64-.439 6.992-4.865 8.691a5.859 5.859 0 0 0-3.652 3.583c-.6 1.93.1 4.079 6.183 4.079 8.933 0 13.591-3.964 15.347-5.929a1.56 1.56 0 0 0 .081-1.965c-3.526-5.062-1.931-16.18-.485-22.397z" class="cls-12" data-name="Path 2388" transform="translate(-237.342 -124.404)"/>
        <path id="Path_2389" d="M343.829 181.45a3.467 3.467 0 0 1 .774 1.572 6.344 6.344 0 0 1 1.676-1.572 5.986 5.986 0 0 1 3.2 3.756 16.8 16.8 0 0 1-4.808-1.791 8.089 8.089 0 0 1-3.213 1.005c.071-1.999 2.371-2.97 2.371-2.97z" class="cls-7" data-name="Path 2389" transform="translate(-236.835 -120.599)"/>
        <path id="Path_2390" d="M345.63 182.508a14.1 14.1 0 0 1 3.063 6.737s14.792-3.7 14.1-13.336a15.024 15.024 0 0 0-4.1-1.26s-3.182 5.779-13.063 7.859z" class="cls-7" data-name="Path 2390" transform="translate(-236.186 -121.657)"/>
        <path id="Path_2391" d="M344.411 182.438a15.613 15.613 0 0 0-3.259 6.738s-7.581-6.934-.2-13.255a19.761 19.761 0 0 1 3.918-.821s-4.909 3.987-.459 7.338z" class="cls-7" data-name="Path 2391" transform="translate(-237.416 -121.587)"/>
        <path id="Path_2392" d="M345.3 167.2a22.281 22.281 0 0 1 .485 3.051c2.82-.566 6.576-3.559 6.934-6.437a13.267 13.267 0 0 0 .1-2.878z" class="cls-11" data-name="Path 2392" transform="translate(-236.237 -123.791)"/>
        <path id="Path_2393" d="M338.8 139.842c-6.934 4.935-3.074 16.514 2.866 12.088s2.796-16.11-2.866-12.088z" class="cls-10" data-name="Path 2393" transform="translate(-237.826 -127.204)"/>
        <path id="Path_2394" d="M362.246 150.625c-1.93 8.864-2.6 14.134-7.835 18.178a11.788 11.788 0 0 1-19.068-8.483c-.693-8.251 2.577-21.357 11.892-23.864a11.926 11.926 0 0 1 15.012 14.168z" class="cls-12" data-name="Path 2394" transform="translate(-237.801 -127.679)"/>
        <path id="Path_2395" d="M358.256 145.211c-4.912-1.352-17.578 1.872-22.073-2.924-4.819-5.143 2.207-7.65 4.287-5.859-2.623-3-1.653-6.217 2.069-5.929 2.716.208 3.571 3.213 3.571 3.213s-.451-5.258 4.218-4.9c4.23.335 4.241 6.044 4.241 6.044s10.1-2.866 13.475 6.784c6.356-.139 6.217 13.244-6.576 18.005-5.188-2.611-5.431-11.745-3.212-14.434z" class="cls-10" data-name="Path 2395" transform="translate(-237.914 -128.795)"/>
        <path id="Path_2396" d="M362.533 142.607a1.283 1.283 0 0 1-.231-2.554 1.849 1.849 0 0 0 .751-.936 3.028 3.028 0 0 0 .139-2.4 1.283 1.283 0 1 1 2.311-1.075 5.651 5.651 0 0 1-.277 4.831 3.744 3.744 0 0 1-2.485 2.115z" class="cls-10" data-name="Path 2396" transform="translate(-233.766 -127.866)"/>
        <path id="Path_2397" d="M360.873 156.467a8.089 8.089 0 0 1-4.865 3.016c-2.508.439-3.271-1.861-2.161-4.1.994-2.011 3.467-4.623 5.778-4.091s2.728 3.222 1.248 5.175z" class="cls-12" data-name="Path 2397" transform="translate(-234.984 -125.304)"/>
        <path id="Path_2398" d="M345.716 149.56c-.116.716-.589 1.26-1.063 1.156s-.774-.693-.67-1.421.589-1.271 1.075-1.213.762.75.658 1.478z" class="cls-10" data-name="Path 2398" transform="translate(-236.445 -125.793)"/>
        <path id="Path_2399" d="M338.576 148.7c-.116.728-.589 1.271-1.063 1.213s-.774-.693-.67-1.421.589-1.271 1.075-1.213.774.695.658 1.421z" class="cls-10" data-name="Path 2399" transform="translate(-237.557 -125.918)"/>
        <path id="Path_2400" fill="#ed847e" d="M340.987 148.76a23.217 23.217 0 0 1-3.467 5.177 3.583 3.583 0 0 0 2.947.717z" data-name="Path 2400" transform="translate(-237.448 -125.687)"/>
        <path id="Path_2401" d="M343.134 157.394a6.391 6.391 0 0 0 4.623-1.884.231.231 0 0 0 0-.312.22.22 0 0 0-.3 0 6.067 6.067 0 0 1-5.073 1.7.215.215 0 1 0-.046.428 7.191 7.191 0 0 0 .8.069z" class="cls-10" data-name="Path 2401" transform="translate(-236.729 -124.694)"/>
        <path id="Path_2402" d="M348.861 146.022a.335.335 0 0 0 .185-.1.416.416 0 0 0 0-.6 4.126 4.126 0 0 0-3.617-1.433.433.433 0 0 0 .139.855 3.282 3.282 0 0 1 2.843 1.156.416.416 0 0 0 .45.122z" class="cls-10" data-name="Path 2402" transform="translate(-236.274 -126.45)"/>
        <path id="Path_2403" d="M335.831 145.569a.439.439 0 0 0 .393-.081 3.652 3.652 0 0 1 3.086-.844.428.428 0 1 0 .231-.821 4.449 4.449 0 0 0-3.86.994.439.439 0 0 0-.058.612.416.416 0 0 0 .208.14z" class="cls-10" data-name="Path 2403" transform="translate(-237.758 -126.471)"/>
        <path id="Path_2404" d="M350.232 202.489l-5.062-3.143a3.2 3.2 0 0 0-4.438 1.063l-.589.982a3.2 3.2 0 0 0 .324 3.767l3.467 4.01s3.039 7.084 6.564 5.212l2.681-4.623z" class="cls-12" data-name="Path 2404" transform="translate(-237.112 -117.889)"/>
        <path id="Path_2405" d="M354.3 210.454a21.737 21.737 0 0 0-2.646-4.7c-2.542 2.173-4.623 9.107-4.623 9.107l3.109.67a5.778 5.778 0 0 0 4.16-5.073z" class="cls-7" data-name="Path 2405" transform="translate(-235.968 -116.816)"/>
        <path id="Path_2406" d="M395.7 254.56h-60c-3.929 0-6.472 3.895-5.686 8.691l7.489 45.394c.8 4.808 4.623 8.691 8.563 8.691h42.2z" class="cls-7" data-name="Path 2406" transform="translate(-238.639 -109.218)"/>
        <path id="Path_2407" d="M395.7 254.56h-60c-3.929 0-6.472 3.895-5.686 8.691l7.489 45.394c.8 4.808 4.623 8.691 8.563 8.691h42.2z" class="cls-9" data-name="Path 2407" transform="translate(-238.639 -109.218)"/>
    </g>
    <g id="Table" transform="translate(141.892 267.57)">
        <path id="Path_2408" d="M147.433 378.445h1.733a1.156 1.156 0 0 0 1.156-1.156l9.5-143.209h-7.154l-6.356 143.013a1.156 1.156 0 0 0 1.121 1.352z" class="cls-7" data-name="Path 2408" transform="translate(-119.12 -231.133)"/>
        <path id="Path_2409" d="M147.433 378.445h1.733a1.156 1.156 0 0 0 1.156-1.156l9.5-143.209h-7.154l-6.356 143.013a1.156 1.156 0 0 0 1.121 1.352z" class="cls-14" data-name="Path 2409" transform="translate(-119.12 -231.133)"/>
        <path id="Path_2410" d="M130.433 378.445h1.733a1.156 1.156 0 0 0 1.156-1.156l9.5-143.209h-7.165l-6.345 143.013a1.156 1.156 0 0 0 1.121 1.352z" class="cls-7" data-name="Path 2410" transform="translate(-121.766 -231.133)"/>
        <path id="Path_2411" d="M130.433 378.445h1.733a1.156 1.156 0 0 0 1.156-1.156l9.5-143.209h-7.165l-6.345 143.013a1.156 1.156 0 0 0 1.121 1.352z" class="cls-14" data-name="Path 2411" transform="translate(-121.766 -231.133)"/>
        <path id="Path_2412" d="M341.6 378.439h-1.73a1.156 1.156 0 0 1-1.156-1.156L329.18 234.12h7.154l6.356 143.013a1.156 1.156 0 0 1-1.086 1.306z" class="cls-7" data-name="Path 2412" transform="translate(-90.652 -231.127)"/>
        <path id="Path_2413" d="M341.6 378.439h-1.73a1.156 1.156 0 0 1-1.156-1.156L329.18 234.12h7.154l6.356 143.013a1.156 1.156 0 0 1-1.086 1.306z" class="cls-14" data-name="Path 2413" transform="translate(-90.652 -231.127)"/>
        <path id="Path_2414" d="M358.6 378.439h-1.73a1.156 1.156 0 0 1-1.156-1.156L346.18 234.12h7.165l6.345 143.013a1.156 1.156 0 0 1-1.086 1.306z" class="cls-7" data-name="Path 2414" transform="translate(-88.006 -231.127)"/>
        <path id="Path_2415" d="M358.6 378.439h-1.73a1.156 1.156 0 0 1-1.156-1.156L346.18 234.12h7.165l6.345 143.013a1.156 1.156 0 0 1-1.086 1.306z" class="cls-14" data-name="Path 2415" transform="translate(-88.006 -231.127)"/>
        <path id="Rectangle_516" d="M0 0H278.86V2.947H0z" class="cls-7" data-name="Rectangle 516"/>
    </g>
    <g id="Character_1" data-name="Character 1" transform="translate(94.378 138.922)">
        <path id="Path_2416" d="M120.827 192.282l-2.635 19.38c-.832 6.449-1.7 12.92-2.311 19.265-.081.809-.139 1.583-.208 2.369l-.092 1.156a3.953 3.953 0 0 0-.173-1.156 1.16 1.16 0 0 0-.173-.4 1.616 1.616 0 0 0-.162-.254c-.208-.266-.231-.231-.173-.173a1.905 1.905 0 0 0 .393.324 10.864 10.864 0 0 0 1.525.9 60.42 60.42 0 0 0 8.494 3.143c6.056 1.849 12.423 3.467 18.71 4.981l-.716 5.524a141.782 141.782 0 0 1-20.051-1.976 57.5 57.5 0 0 1-10.239-2.774 20.8 20.8 0 0 1-2.854-1.341 11.313 11.313 0 0 1-1.618-1.086 9.049 9.049 0 0 1-1.844-1.964 7.638 7.638 0 0 1-.878-1.768 8.887 8.887 0 0 1-.277-1.156 11.556 11.556 0 0 1-.069-1.156v-1.283c0-.855 0-1.71.069-2.554.277-6.749.89-13.336 1.606-19.924s1.549-13.117 2.577-19.646z" class="cls-15" data-name="Path 2416" transform="translate(-77.959 -109.237)"/>
        <path id="Path_2417" d="M154.171 240.932l-4.241 3.868a3.294 3.294 0 0 1-3.64.532l-4.68-2.311s-6.934-.289-7.939-4.53l1.8-3.294 10.759-1.156a4.981 4.981 0 0 1 3.166.7l4.438 2.7a2.184 2.184 0 0 1 .335 3.479z" class="cls-15" data-name="Path 2417" transform="translate(-73.571 -102.496)"/>
        <path id="Path_2418" d="M129.817 157.61c1.156 6.645 2.034 18.791-2.727 23.113 0 0 11.557 6.079 19.219 16.688 8.09-6.449 1.329-16.075 1.329-16.075-7.327-1.976-6.934-7.442-5.536-12.539z" class="cls-15" data-name="Path 2418" transform="translate(-74.595 -114.389)"/>
        <path id="Path_2419" d="M152.153 182.956s-.612-5.64-3.687-8.425c-2.577-2.311-16.179-1.04-20.42-.566a2.369 2.369 0 0 0-1.849 1.317l-3.1 6.472z" class="cls-7" data-name="Path 2419" transform="translate(-75.216 -111.964)"/>
        <path id="Path_2420" fill="#fff" d="M152.153 182.956s-.612-5.64-3.687-8.425c-2.577-2.311-16.179-1.04-20.42-.566a2.369 2.369 0 0 0-1.849 1.317l-3.1 6.472z" data-name="Path 2420" opacity="0.8" transform="translate(-75.216 -111.964)"/>
        <path id="Path_2421" d="M117.018 179.106c-8.367 2.727-10.17 13.937-9.407 22.674l16.884 10.4s4.1-12.712 4.068-19.565c-.034-7.257-5.863-15.358-11.545-13.509z" class="cls-7" data-name="Path 2421" transform="translate(-77.652 -111.084)"/>
        <path id="Path_2422" d="M118.774 205.905a1.618 1.618 0 0 1-1.156-.451 1.686 1.686 0 0 1-.185-.243 1.063 1.063 0 0 1-.15-.277 2.117 2.117 0 0 1-.092-.289 1.328 1.328 0 0 1 0-.3 1.583 1.583 0 0 1 .462-1.156 1.618 1.618 0 0 1 2.219 0 1.583 1.583 0 0 1 .462 1.156 1.329 1.329 0 0 1 0 .3 1.156 1.156 0 0 1-.092.289 1.04 1.04 0 0 1-.139.277l-.2.243a1.572 1.572 0 0 1-1.129.451z" class="cls-3" data-name="Path 2422" transform="translate(-76.137 -107.363)"/>
        <path id="Path_2423" d="M116.912 205.477a1.572 1.572 0 0 1-1.005-1.41 1.549 1.549 0 0 1-1.7.254 1.583 1.583 0 0 1-.913-1.456 1.537 1.537 0 0 1-1.71.15 1.56 1.56 0 0 1-.821-1.5 1.572 1.572 0 0 1-1.722.058 1.572 1.572 0 0 1-.532-2.15 1.583 1.583 0 0 1 2.161-.532 1.618 1.618 0 0 1 .751 1.468 1.549 1.549 0 0 1 1.641-.1 1.583 1.583 0 0 1 .832 1.421 1.56 1.56 0 0 1 1.63-.2 1.572 1.572 0 0 1 .913 1.364 1.6 1.6 0 0 1 1.618-.289 1.572 1.572 0 0 1 .878 2.034 1.56 1.56 0 0 1-1.456.994 1.7 1.7 0 0 1-.566-.1z" class="cls-3" data-name="Path 2423" transform="translate(-77.522 -107.998)"/>
        <path id="Path_2424" d="M107.8 200.467h-.312a1.156 1.156 0 0 1-.289-.092 1.04 1.04 0 0 1-.277-.139l-.231-.2a1.224 1.224 0 0 1-.2-.231c0-.092-.1-.185-.15-.277a2.785 2.785 0 0 1-.092-.289 2.829 2.829 0 0 1 0-.312 2.438 2.438 0 0 1 0-.3 2.98 2.98 0 0 1 .092-.3 1.156 1.156 0 0 1 .15-.266 1.811 1.811 0 0 1 .2-.243l.231-.2a1.55 1.55 0 0 1 .277-.139l.289-.092a1.618 1.618 0 0 1 1.41.428 1.814 1.814 0 0 1 .2.243 1.975 1.975 0 0 1 .15.266 1.444 1.444 0 0 1 .081.3 1.259 1.259 0 0 1 0 .3 1.433 1.433 0 0 1 0 .312 1.352 1.352 0 0 1-.081.289c0 .092-.092.185-.15.277a1.225 1.225 0 0 1-.2.231 1.583 1.583 0 0 1-1.098.434z" class="cls-3" data-name="Path 2424" transform="translate(-77.84 -108.2)"/>
        <path id="Path_2425" d="M169.6 195.626c-.7 9.6-2.843 25.794-8.09 53.045l-45.232-1.341c1.156-16.7-.613-29.146-4.7-58.372a9.5 9.5 0 0 1 8.442-10.758c2.9-.3 6.206-.555 9.523-.613a144.457 144.457 0 0 1 20.548.613c2.2.266 4.472.612 6.645.982a15.532 15.532 0 0 1 12.864 16.444z" class="cls-7" data-name="Path 2425" transform="translate(-77.025 -111.299)"/>
        <path id="Path_2426" d="M149.7 147.234c.1.9.67 1.56 1.248 1.491s.971-.844.867-1.745-.67-1.549-1.248-1.479-.967.866-.867 1.733z" class="cls-10" data-name="Path 2426" transform="translate(-71.078 -116.275)"/>
        <path id="Path_2427" d="M150.23 145.708l2.069-.878s-.899 1.803-2.069.878z" class="cls-10" data-name="Path 2427" transform="translate(-70.993 -116.378)"/>
        <path id="Path_2428" fill="#630f0f" d="M150 148.22a24.1 24.1 0 0 0 3.86 5.316 3.9 3.9 0 0 1-3.109.982z" data-name="Path 2428" transform="translate(-71.029 -115.851)"/>
        <path id="Path_2429" d="M150.284 140.36a.52.52 0 0 0-.659-.763 5.235 5.235 0 0 0-3 3.756.532.532 0 0 0 .451.6.52.52 0 0 0 .589-.451 4.207 4.207 0 0 1 2.415-2.959.462.462 0 0 0 .208-.185z" class="cls-10" data-name="Path 2429" transform="translate(-71.556 -117.201)"/>
        <path id="Path_2430" d="M123.1 149.27c1.988 10.875 2.6 15.52 8.806 20.49 9.338 7.454 22.27 2.635 23.575-8.61 1.156-10.135-2.311-26.222-13.521-29.3a15.093 15.093 0 0 0-18.86 17.42z" class="cls-15" data-name="Path 2430" transform="translate(-75.26 -118.484)"/>
        <path id="Path_2431" d="M148.89 154.036c1.826 5.986 6.194 20.432-3.467 23.645-7.546 2.519-31.2 4.53-33.919-9.315-2.808-14.33 9.962-24.523 9.962-24.523s-10.124-8.3-3.64-17.335c8.355-11.661 28.371-5.062 34.3 3.167 5.79 8.008-3.236 24.361-3.236 24.361z" class="cls-10" data-name="Path 2431" transform="translate(-77.084 -120.21)"/>
        <path id="Path_2432" d="M130.956 176.551a33.784 33.784 0 0 1-12.707-2.482c-5.368-2.314-8.5-5.884-9.066-10.334-1.9-15.1 12.158-23.414 12.308-23.495l.555.971c-.139.081-13.556 8.02-11.753 22.385.647 5.085 4.923 7.939 8.4 9.442 6.865 2.958 15.729 2.935 17.878 1.364l.659.9c-1.085.821-3.442 1.249-6.274 1.249z" class="cls-10" data-name="Path 2432" transform="translate(-77.41 -117.093)"/>
        <path id="Path_2433" d="M116.344 138.986c-.127 1.93-1.722 4.623 4.969 5.582s16.006.9 17.924-.7 3.791-5.466-.208-5.12-22.465-3.067-22.685.238z" class="cls-7" data-name="Path 2433" transform="translate(-76.308 -117.514)"/>
        <path id="Path_2434" d="M140.7 151.8a8.667 8.667 0 0 0 5.131 4.183c2.912.855 4.415-1.745 3.64-4.519-.7-2.5-3.074-5.94-6.009-5.582s-4.062 3.388-2.762 5.918z" class="cls-15" data-name="Path 2434" transform="translate(-72.56 -116.218)"/>
        <path id="Path_2435" d="M202.339 352.245l10.725-.208-5.189-26.777-10.725.208z" class="cls-15" data-name="Path 2435" transform="translate(-63.69 -88.293)"/>
        <path id="Path_2436" d="M209.694 338.52c2.831 10.69 13.267 21.957 13.267 21.957l-14.885-3.777-6.506-9.245 1.156-2.438z" class="cls-15" data-name="Path 2436" transform="translate(-63.002 -86.229)"/>
        <path id="Path_2437" d="M199.451 343.113a22.63 22.63 0 0 0 .22 3.733c.636 4.426 2.577 16.179 2.577 16.179h1.017a104.781 104.781 0 0 1-.82-10.794c.139-2.912 2.011 2.23 4.276 5.143s6.345 5.547 12.943 5.778c7.72.243 10.805-.081 8.332-2.011s-7.743-3.19-7.743-3.19a23.494 23.494 0 0 1-10.4-8.714 27.413 27.413 0 0 0-9.58-8.3c-.649.072-.773 1.228-.822 2.176z" class="cls-10" data-name="Path 2437" transform="translate(-63.333 -85.852)"/>
        <path id="Path_2438" d="M236.006 320.149l13.683.416-15.313-22.755-9.476 8.1z" class="cls-15" data-name="Path 2438" transform="translate(-59.37 -92.566)"/>
        <path id="Path_2439" d="M237.32 308.77c9.95 4.623 25.875 3.721 25.875 3.721l-12.943 10.4-11.106-.821-1.156-2.462z" class="cls-15" data-name="Path 2439" transform="translate(-57.437 -90.86)"/>
        <path id="Path_2440" d="M235.663 320.379a22.892 22.892 0 0 0 2.878 2.392c3.629 2.519 13.44 9 13.44 9l.624-.786a104.586 104.586 0 0 1-8.425-6.737c-2.057-2.1 2.878 0 6.414.15s8-1.156 12.215-6.241c4.958-5.917 6.61-8.552 3.675-7.928s-7.119 3.906-7.119 3.906a20.871 20.871 0 0 1-12.839 2.23 23.922 23.922 0 0 0-12.007 1.872c-.301.563.474 1.463 1.144 2.142z" class="cls-10" data-name="Path 2440" transform="translate(-57.883 -90.646)"/>
        <path id="Path_2441" d="M145.422 238.82s73.223-10.863 80.781 7.939c13.2 32.659 31.815 70.079 31.815 70.079l-8.991 7.442s-31.927-29.56-43.28-62.404c-13.567 4.392-56.731 18.491-72.541 18.491-16.884 0-23.783-14.4-17.682-38.3a4.784 4.784 0 0 1 4.623-3.594c10.713.105 25.275.347 25.275.347z" class="cls-10" data-name="Path 2441" transform="translate(-76.736 -102.234)"/>
        <path id="Path_2442" d="M151.658 248.014s60.094-1.814 60.614 19.484c.832 35.213 10.759 85.669 10.759 85.669l-10.967 1.017s-17.924-40.136-22.664-74.563c-21.4 1.387-41.141.428-56.951.428-17.716 0-19.184-19.461-1.941-42.158 10.552.034 21.15 10.123 21.15 10.123z" class="cls-10" data-name="Path 2442" transform="translate(-75.957 -101.893)"/>
        <path id="Path_2443" d="M115.267 235.638L114 239.66c-.173.3.185.636.717.647l46.55 1.387c.4 0 .751-.173.786-.428l.5-4.01c0-.277-.312-.52-.763-.532l-45.8-1.364a.82.82 0 0 0-.723.278z" class="cls-3" data-name="Path 2443" transform="translate(-76.64 -102.287)"/>
        <path id="Path_2444" d="M120.5 240.971h-1.225c-.243 0-.428-.139-.4-.289l.728-5.247c0-.15.243-.277.485-.266h1.225c.243 0 .428.139.4.3l-.728 5.281c-.023.117-.243.233-.485.221z" class="cls-10" data-name="Path 2444" transform="translate(-75.875 -102.316)"/>
        <path id="Path_2445" d="M152.11 241.912h-1.225c-.243 0-.428-.139-.4-.289l.74-5.247c0-.15.231-.277.474-.266h1.225c.254 0 .428.139.416.3l-.74 5.235a.486.486 0 0 1-.49.267z" class="cls-10" data-name="Path 2445" transform="translate(-70.955 -102.17)"/>
        <path id="Path_2446" d="M136.31 241.441h-1.225c-.254 0-.428-.139-.4-.289l.728-5.247c0-.15.243-.277.485-.266h1.225c.243 0 .428.139.4.3l-.728 5.235c-.023.163-.243.279-.485.267z" class="cls-10" data-name="Path 2446" transform="translate(-73.414 -102.243)"/>
        <path id="Path_2447" d="M185.991 196.66h29.227a1.41 1.41 0 0 1 1.352 1.791l-10.933 37.5a1.4 1.4 0 0 1-1.341 1.005h-29.238a1.4 1.4 0 0 1-1.341-1.791l10.921-37.5a1.4 1.4 0 0 1 1.352-1.005z" class="cls-7" data-name="Path 2447" transform="translate(-67.346 -108.31)"/>
        <path id="Path_2448" fill="#e0e0e0" d="M186.3 197.85l28.418.67-11.218 35.363-28.418-.67z" data-name="Path 2448" transform="translate(-67.125 -108.125)"/>
        <path id="Path_2449" d="M185.438 197.55l28.418.116-10.528 35.583-28.418-.127z" class="cls-3" data-name="Path 2449" transform="translate(-67.152 -108.172)"/>
        <path id="Path_2450" d="M163.347 198.18c0 1.156.173 2.531.266 3.814s.266 2.623.439 3.918c.324 2.612.751 5.2 1.294 7.72a55.473 55.473 0 0 0 2.057 7.292 32.5 32.5 0 0 0 1.41 3.317c.254.543.532 1.04.809 1.537l.428.717a5.132 5.132 0 0 0 1.837 1.075 21.406 21.406 0 0 0 3.328.994 63.268 63.268 0 0 0 7.731 1.156c5.339.52 10.921.774 16.376.89l.555 5.536a104.6 104.6 0 0 1-17.231 1.941 61.01 61.01 0 0 1-9-.358 31.589 31.589 0 0 1-4.842-.982 14.365 14.365 0 0 1-5.524-2.855 9.639 9.639 0 0 1-1.456-1.572l-.74-1.04c-.474-.682-.936-1.375-1.329-2.08a35.523 35.523 0 0 1-2.184-4.276 56.522 56.522 0 0 1-2.982-8.737 76.273 76.273 0 0 1-1.722-8.829c-.2-1.479-.347-2.959-.474-4.438s-.208-2.912-.231-4.623z" class="cls-15" data-name="Path 2450" transform="translate(-70.693 -108.074)"/>
        <path id="Path_2451" d="M160.522 183.579c7.281 6.842 5.524 24.708 5.524 24.708l-13.937 2.438s-8.61-12.8-5.582-18.179c3.143-5.581 10.066-12.677 13.995-8.967z" class="cls-7" data-name="Path 2451" transform="translate(-71.67 -110.507)"/>
        <path id="Path_2452" d="M163.544 206.609a1.606 1.606 0 0 1-1.156-.462 1.386 1.386 0 0 1-.2-.243 1.926 1.926 0 0 1-.139-.266 2.31 2.31 0 0 1-.092-.3 2.431 2.431 0 0 1 0-.3 1.572 1.572 0 0 1 .451-1.156 2 2 0 0 1 .243-.2 1.156 1.156 0 0 1 .266-.139 1.491 1.491 0 0 1 .3-.092 1.572 1.572 0 0 1 1.872 1.537 1.259 1.259 0 0 1 0 .3 1.3 1.3 0 0 1-.092.3 1.157 1.157 0 0 1-.139.266 1.387 1.387 0 0 1-.2.243 1.583 1.583 0 0 1-1.114.512z" class="cls-3" data-name="Path 2452" transform="translate(-69.168 -107.257)"/>
        <path id="Path_2453" d="M152.371 207.326a1.572 1.572 0 0 1 1.433-1.7 1.549 1.549 0 0 1 1.468.74 1.6 1.6 0 0 1 1.26-1.063 1.6 1.6 0 0 1 1.514.659 1.549 1.549 0 0 1 1.156-1.156 1.56 1.56 0 0 1 1.549.566 1.572 1.572 0 0 1 1.156-1.156 1.56 1.56 0 0 1 1.918 1.156 1.572 1.572 0 0 1-1.156 1.918 1.583 1.583 0 0 1-1.629-.543 1.583 1.583 0 0 1-1.225 1.156 1.6 1.6 0 0 1-1.595-.647 1.56 1.56 0 0 1-1.283 1.156 1.572 1.572 0 0 1-1.56-.728 1.583 1.583 0 0 1-1.352 1.063h-.125a1.583 1.583 0 0 1-1.525-1.421z" class="cls-3" data-name="Path 2453" transform="translate(-70.661 -107.142)"/>
        <path id="Path_2454" d="M151.478 208.708a1.431 1.431 0 0 1-.312 0l-.289-.092a2.067 2.067 0 0 1-.277-.139l-.231-.2a1.006 1.006 0 0 1-.2-.243 1.979 1.979 0 0 1-.15-.266 1.446 1.446 0 0 1-.081-.3 1.259 1.259 0 0 1 0-.3 1.433 1.433 0 0 1 0-.312 1.352 1.352 0 0 1 .081-.289c0-.092.092-.185.15-.277a1.224 1.224 0 0 1 .2-.231l.231-.2a1.249 1.249 0 0 1 .277-.139 1.156 1.156 0 0 1 .289-.092 1.549 1.549 0 0 1 1.41.428 1.223 1.223 0 0 1 .2.231c.058.092.1.185.15.277a2.787 2.787 0 0 1 .092.289 2.834 2.834 0 0 1 0 .312 2.44 2.44 0 0 1 0 .3 2.984 2.984 0 0 1-.092.3 1.977 1.977 0 0 1-.15.266 1.294 1.294 0 0 1-.2.243 1.583 1.583 0 0 1-1.1.428z" class="cls-3" data-name="Path 2454" transform="translate(-71.04 -106.918)"/>
        <path id="Path_2455" d="M206.515 221.314l-4.854-.314a5.455 5.455 0 0 0-3.4.913l-8.864 5.963-.069 3.756c2.843 3.294 9.13.335 9.13.335l5.836-.185a2.311 2.311 0 0 0 2.115-1.525l2.115-5.778a2.311 2.311 0 0 0-2.011-3.167z" class="cls-15" data-name="Path 2455" transform="translate(-64.907 -104.523)"/>
        <path id="Path_2456" d="M117.728 371.133h1.306a1.156 1.156 0 0 0 1.04-1.063l8.09-55.98h-6.113l-5.328 55.61a1.213 1.213 0 0 0 1.005 1.433z" class="cls-7" data-name="Path 2456" transform="translate(-76.212 -90.031)"/>
        <path id="Path_2457" d="M117.728 371.133h1.306a1.156 1.156 0 0 0 1.04-1.063l8.09-55.98h-6.113l-5.328 55.61a1.213 1.213 0 0 0 1.005 1.433z" class="cls-8" data-name="Path 2457" transform="translate(-76.212 -90.031)"/>
        <path id="Path_2458" d="M103.228 371.133h1.306a1.156 1.156 0 0 0 1.04-1.063l8.09-55.98h-6.113l-5.328 55.61a1.213 1.213 0 0 0 1.005 1.433z" class="cls-7" data-name="Path 2458" transform="translate(-78.469 -90.031)"/>
        <path id="Path_2459" d="M103.228 371.133h1.306a1.156 1.156 0 0 0 1.04-1.063l8.09-55.98h-6.113l-5.328 55.61a1.213 1.213 0 0 0 1.005 1.433z" class="cls-8" data-name="Path 2459" transform="translate(-78.469 -90.031)"/>
        <path id="Path_2460" d="M185.3 371.133h-1.317a1.156 1.156 0 0 1-1.029-1.063l-8.09-55.98h6.1l5.328 55.61a1.213 1.213 0 0 1-.994 1.433z" class="cls-7" data-name="Path 2460" transform="translate(-67.159 -90.031)"/>
        <path id="Path_2461" d="M185.3 371.133h-1.317a1.156 1.156 0 0 1-1.029-1.063l-8.09-55.98h6.1l5.328 55.61a1.213 1.213 0 0 1-.994 1.433z" class="cls-8" data-name="Path 2461" transform="translate(-67.159 -90.031)"/>
        <path id="Path_2462" d="M199.8 371.133h-1.317a1.156 1.156 0 0 1-1.029-1.063l-8.09-55.98h6.1l5.328 55.61a1.213 1.213 0 0 1-.994 1.433z" class="cls-7" data-name="Path 2462" transform="translate(-64.902 -90.031)"/>
        <path id="Path_2463" d="M199.8 371.133h-1.317a1.156 1.156 0 0 1-1.029-1.063l-8.09-55.98h6.1l5.328 55.61a1.213 1.213 0 0 1-.994 1.433z" class="cls-8" data-name="Path 2463" transform="translate(-64.902 -90.031)"/>
        <path id="Path_2464" d="M238.274 262.788h-41.142c-7.3-25.355-33.514-45.348-60.464-45.348h-13.359c-28.152 0-46.319 21.9-40.587 48.931a55.473 55.473 0 0 0 5.235 14.249l6.495 39.292c.832 5.073 4.888 9.188 9.037 9.188H227.33c4.149 0 8.205-4.126 9.037-9.245l7.916-47.971c.844-4.984-1.849-9.096-6.009-9.096z" class="cls-7" data-name="Path 2464" transform="translate(-81.666 -105.076)"/>
        <path id="Path_2465" d="M238.274 262.788h-41.142c-7.3-25.355-33.514-45.348-60.464-45.348h-13.359c-28.152 0-46.319 21.9-40.587 48.931a55.473 55.473 0 0 0 5.235 14.249l6.495 39.292c.832 5.073 4.888 9.188 9.037 9.188H227.33c4.149 0 8.205-4.126 9.037-9.245l7.916-47.971c.844-4.984-1.849-9.096-6.009-9.096z" class="cls-9" data-name="Path 2465" transform="translate(-81.666 -105.076)"/>
    </g>
    <g id="Bubble_Speech" data-name="Bubble Speech" transform="translate(200.299 53.796)">
        <path id="Rectangle_517" d="M0 0H9.442V1.156H0z" class="cls-7" data-name="Rectangle 517" transform="translate(35.883 58.523)"/>
        <path id="Path_2466" d="M174.476 110.835h-1.156v-5.686a7.951 7.951 0 0 1 7.939-7.939h21.068v1.156h-21.068a6.784 6.784 0 0 0-6.784 6.784z" class="cls-7" data-name="Path 2466" transform="translate(-173.32 -38.664)"/>
        <path id="Path_2467" d="M180.715 100.69h105.361a3.883 3.883 0 0 1 3.883 3.883v41.315a3.883 3.883 0 0 1-3.883 3.883H180.715a3.9 3.9 0 0 1-3.895-3.895v-41.291a3.883 3.883 0 0 1 3.895-3.895z" class="cls-7" data-name="Path 2467" transform="translate(-172.775 -38.123)"/>
        <path id="Path_2468" d="M280.251 124.905h-95.4a2.612 2.612 0 0 1-2.612-2.612 2.623 2.623 0 0 1 2.612-2.623h95.4a2.623 2.623 0 0 1 2.612 2.623 2.612 2.612 0 0 1-2.612 2.612z" class="cls-3" data-name="Path 2468" transform="translate(-171.932 -35.168)"/>
        <path id="Path_2469" d="M259.831 134.3h-74.979a2.623 2.623 0 0 1-2.612-2.623 2.612 2.612 0 0 1 2.612-2.612h74.979a2.612 2.612 0 0 1 2.612 2.612 2.623 2.623 0 0 1-2.612 2.623z" class="cls-3" data-name="Path 2469" transform="translate(-171.932 -33.707)"/>
        <path id="Path_2470" d="M217.025 115.515h-32.173a2.612 2.612 0 0 1-2.612-2.612 2.623 2.623 0 0 1 2.612-2.623h32.173a2.623 2.623 0 0 1 2.612 2.623 2.612 2.612 0 0 1-2.612 2.612z" class="cls-3" data-name="Path 2470" transform="translate(-171.932 -36.63)"/>
        <path id="Path_2471" d="M253.925 115.515h-32.173a2.612 2.612 0 0 1-2.612-2.612 2.623 2.623 0 0 1 2.612-2.623h32.174a2.623 2.623 0 0 1 2.612 2.623 2.612 2.612 0 0 1-2.613 2.612z" class="cls-3" data-name="Path 2471" transform="translate(-166.188 -36.63)"/>
        <path id="Path_2472" d="M182.24 140.462v12.527a2.889 2.889 0 0 0 4.623 2.311l19.184-14.85z" class="cls-7" data-name="Path 2472" transform="translate(-171.932 -31.934)"/>
        <path id="Path_2473" d="M337.526 47.05H232.165a3.9 3.9 0 0 0-3.895 3.895v41.314a3.883 3.883 0 0 0 3.895 3.883h83.207l15.093 11.684a2.9 2.9 0 0 0 4.623-2.311v-9.373h2.369a3.883 3.883 0 0 0 3.895-3.883V50.945a3.9 3.9 0 0 0-3.826-3.895z" class="cls-3" data-name="Path 2473" transform="translate(-164.767 -46.472)"/>
        <path id="Path_2474" d="M332.334 109.094a3.467 3.467 0 0 1-2.126-.74l-14.932-11.591h-83.034a4.472 4.472 0 0 1-4.472-4.463V51.022a4.472 4.472 0 0 1 4.472-4.472H337.6a4.472 4.472 0 0 1 4.472 4.472v41.315a4.472 4.472 0 0 1-4.472 4.426h-1.791v8.806a3.606 3.606 0 0 1-3.479 3.525zM232.242 47.706a3.328 3.328 0 0 0-3.317 3.317v41.314a3.317 3.317 0 0 0 3.317 3.271h83.439l15.208 11.834a2.311 2.311 0 0 0 3.744-1.837v-10h2.947a3.317 3.317 0 0 0 3.32-3.305V51.022a3.328 3.328 0 0 0-3.317-3.317z" class="cls-7" data-name="Path 2474" transform="translate(-164.844 -46.55)"/>
        <path id="Path_2475" d="M275.635 71.258h49.948a2.612 2.612 0 0 0 2.612-2.612A2.612 2.612 0 0 0 325.582 66h-49.947A2.612 2.612 0 0 0 273 68.646a2.612 2.612 0 0 0 2.635 2.612z" class="cls-7" data-name="Path 2475" transform="translate(-157.804 -43.522)"/>
        <path id="Path_2476" d="M245.452 71.258h24.731a2.612 2.612 0 0 0 2.612-2.612A2.612 2.612 0 0 0 270.183 66h-24.731a2.612 2.612 0 0 0-2.612 2.612 2.612 2.612 0 0 0 2.612 2.646z" class="cls-7" data-name="Path 2476" transform="translate(-162.499 -43.522)"/>
        <rect id="Rectangle_518" width="80.214" height="5.224" class="cls-7" data-name="Rectangle 518" rx="2.26" transform="rotate(180 85.195 19.294)"/>
        <path id="Path_2477" d="M236.352 61.864h95.342a2.612 2.612 0 0 0 2.612-2.612 2.612 2.612 0 0 0-2.612-2.612h-95.342a2.612 2.612 0 0 0-2.612 2.612 2.612 2.612 0 0 0 2.612 2.612z" class="cls-7" data-name="Path 2477" transform="translate(-163.915 -44.979)"/>
    </g>
</svg>
