<svg xmlns="http://www.w3.org/2000/svg" id="z.learn" width="425.581" height="453.548" viewBox="0 0 425.581 453.548">
    <defs>
        <style>
            .cls-1{fill:#fcd5d1}.cls-2{fill:#e03c03}.cls-3{fill:#ff6224}.cls-5{fill:#20c3c5}.cls-6{fill:#fff}.cls-7{fill:#383873}.cls-8{fill:#86bfbc}.cls-9{fill:#b8e3e2}.cls-10{fill:#9fccc9}.cls-11,.cls-20{fill:none;stroke:#000;stroke-linecap:round;stroke-miterlimit:10;stroke-width:.82px}.cls-11,.cls-17{opacity:.15}.cls-13{fill:#ffad94}.cls-14,.cls-19{opacity:.25}.cls-15{fill:#0c2059}.cls-16{fill:#2e4780}.cls-18{fill:#169799}.cls-22{opacity:.53}
        </style>
    </defs>
    <g id="Layer_2" data-name="Layer 2">
        <g id="OBJECTS">
            <path id="Path_1649" d="M414.445 211.226c-28.675 42.921-89.845 175.612-74.8 224.919H120.19s-31.721-23.6-62.533-64.645c-5.6-7.467-11.175-15.51-16.505-24.082A301.835 301.835 0 0 1 25.188 318.4C10.881 288.655.688 254.208.282 216.138-1.154 84.282 112.92-38.241 268.171 11.2S443.1 168.244 414.445 211.226z" class="cls-1" data-name="Path 1649" transform="translate(.063 .001)"/>
            <path id="Path_1650" d="M247.734 383.964a1.5 1.5 0 0 1-1.228-.565L129.472 237.886A1.511 1.511 0 0 1 131.83 236l117.033 145.52a1.5 1.5 0 0 1-.233 2.112 1.534 1.534 0 0 1-.896.332z" class="cls-2" data-name="Path 1650" transform="translate(29.452 53.693)"/>
            <path id="Path_1651" d="M78.161 383.964a1.534 1.534 0 0 1-.946-.331 1.5 1.5 0 0 1-.233-2.112l117.046-145.526a1.5 1.5 0 0 1 2.112-.233 1.523 1.523 0 0 1 .233 2.125L79.339 383.4a1.5 1.5 0 0 1-1.178.564z" class="cls-3" data-name="Path 1651" transform="translate(17.482 53.693)"/>
            <path id="Path_1652" d="M195.194 383.964a1.449 1.449 0 0 1-1.228-.565L76.982 237.886A1.511 1.511 0 0 1 79.34 236l117.033 145.52a1.511 1.511 0 0 1-1.228 2.456z" class="cls-3" data-name="Path 1652" transform="translate(17.482 53.693)"/>
            <path id="Path_1653" d="M105.584 241.244H51.206a3.856 3.856 0 0 1-3.856-3.868 3.844 3.844 0 0 1 3.856-3.856h54.378a3.856 3.856 0 0 1 3.856 3.856 3.868 3.868 0 0 1-3.856 3.868z" class="cls-2" data-name="Path 1653" transform="translate(10.8 53.258)"/>
            <path id="Path_1654" d="M251.737 241.244H96.326a3.868 3.868 0 0 1-3.856-3.868 3.856 3.856 0 0 1 3.856-3.856h155.411z" class="cls-3" data-name="Path 1654" transform="translate(21.09 53.258)"/>
            <path id="Path_1655" d="M130.569 296.695a4.212 4.212 0 1 1-1.234-2.991 4.224 4.224 0 0 1 1.234 2.991z" class="cls-2" data-name="Path 1655" transform="translate(27.852 66.702)"/>
            <path id="Path_1656" fill="#ffc947" d="M183.069 296.695a4.212 4.212 0 1 1-1.234-2.991 4.224 4.224 0 0 1 1.234 2.991z" data-name="Path 1656" transform="translate(39.825 66.702)"/>
            <rect id="Rectangle_379" width="64.571" height="50.535" class="cls-5" data-name="Rectangle 379" rx="3.99" transform="translate(107.063 120.904)"/>
            <rect id="Rectangle_380" width="64.571" height="50.535" class="cls-3" data-name="Rectangle 380" rx="3.99" transform="translate(189.54 92.99)"/>
            <path id="Path_1657" d="M134.559 119.72H266.4a2.039 2.039 0 0 1 2.039 2.039v4.175H132.52v-4.175a2.039 2.039 0 0 1 2.039-2.039z" class="cls-6" data-name="Path 1657" transform="translate(30.223 27.305)"/>
            <path id="Path_1658" d="M132.52 124.77h135.921v68.673a3.8 3.8 0 0 1-3.795 3.795H136.315a3.8 3.8 0 0 1-3.795-3.795z" class="cls-7" data-name="Path 1658" transform="translate(30.223 28.456)"/>
            <path id="Path_1659" d="M238.254 122.417a.946.946 0 0 1-.946.958.958.958 0 1 1 0-1.9.946.946 0 0 1 .946.946z" class="cls-3" data-name="Path 1659" transform="translate(53.878 27.703)"/>
            <path id="Path_1660" d="M232.9 122.416a.958.958 0 1 1-.958-.946.958.958 0 0 1 .958.946z" class="cls-3" data-name="Path 1660" transform="translate(52.678 27.704)"/>
            <path id="Path_1661" d="M227.546 122.416a.958.958 0 1 1-.958-.946.958.958 0 0 1 .958.946z" class="cls-3" data-name="Path 1661" transform="translate(51.458 27.704)"/>
            <path id="Path_1662" d="M213.98 133.238H138.5a1.314 1.314 0 0 1-1.314-1.314 1.314 1.314 0 0 1 1.314-1.314h75.48a1.314 1.314 0 0 1 1.314 1.314 1.314 1.314 0 0 1-1.314 1.314z" class="cls-5" data-name="Path 1662" transform="translate(31.288 29.788)"/>
            <path id="Path_1663" d="M213.98 140.036H138.5a1.3 1.3 0 0 1-1.314-1.314 1.3 1.3 0 0 1 1.314-1.3h75.48a1.3 1.3 0 0 1 1.314 1.3 1.3 1.3 0 0 1-1.314 1.314z" class="cls-5" data-name="Path 1663" transform="translate(31.288 31.341)"/>
            <path id="Path_1664" d="M177.974 146.848H138.5a1.314 1.314 0 0 1-1.314-1.314 1.314 1.314 0 0 1 1.314-1.314h39.47a1.314 1.314 0 0 1 1.314 1.314 1.314 1.314 0 0 1-1.31 1.314z" class="cls-5" data-name="Path 1664" transform="translate(31.288 32.892)"/>
            <path id="Path_1665" d="M213.98 160.488H138.5a1.314 1.314 0 0 1-1.314-1.314 1.314 1.314 0 0 1 1.314-1.314h75.48a1.314 1.314 0 0 1 1.314 1.314 1.314 1.314 0 0 1-1.314 1.314z" class="cls-3" data-name="Path 1665" transform="translate(31.288 36.003)"/>
            <path id="Path_1666" d="M177.974 167.268H138.5a1.314 1.314 0 0 1-1.314-1.314 1.314 1.314 0 0 1 1.314-1.314h39.47a1.314 1.314 0 0 1 1.314 1.314 1.314 1.314 0 0 1-1.31 1.314z" class="cls-3" data-name="Path 1666" transform="translate(31.288 37.549)"/>
            <path id="Path_1667" d="M177.974 174.078H138.5a1.314 1.314 0 0 1-1.314-1.314 1.314 1.314 0 0 1 1.314-1.314h39.47a1.314 1.314 0 0 1 1.314 1.314 1.314 1.314 0 0 1-1.31 1.314z" class="cls-5" data-name="Path 1667" transform="translate(31.288 39.102)"/>
            <path id="Path_1668" d="M205.232 146.848h-28.368a1.314 1.314 0 0 1-1.314-1.314 1.314 1.314 0 0 1 1.314-1.314h28.368a1.314 1.314 0 0 1 1.314 1.314 1.314 1.314 0 0 1-1.314 1.314z" class="cls-6" data-name="Path 1668" transform="translate(40.037 32.892)"/>
            <path id="Path_1669" d="M234.361 131.5l-20.054 20.054a1.326 1.326 0 0 1-1.854 0 1.314 1.314 0 0 1 0-1.867l20.054-20.054a1.326 1.326 0 0 1 1.854 0 1.314 1.314 0 0 1 0 1.867z" class="cls-3" data-name="Path 1669" transform="translate(48.364 29.479)"/>
            <circle id="Ellipse_42" cx="11.826" cy="11.826" r="11.826" class="cls-3" data-name="Ellipse 42" transform="rotate(-76.66 260.124 -59.035)"/>
            <path id="Path_1670" d="M222.486 169.923a6.693 6.693 0 1 1-6.693-6.693 6.693 6.693 0 0 1 6.693 6.693z" class="cls-5" data-name="Path 1670" transform="translate(47.688 37.227)"/>
            <path id="Path_1671" d="M132.52 177.81v23.91l21.97-21.982" class="cls-7" data-name="Path 1671" transform="translate(30.223 40.553)"/>
            <path id="Path_1672" d="M113.47 202.54h48.23l17.422 33.56h-48.214z" class="cls-8" data-name="Path 1672" transform="translate(25.879 46.192)"/>
            <path id="Path_1673" d="M131.154 233.239l-14.43-27.791a.872.872 0 0 1 .774-1.228h41.754a.884.884 0 0 1 .774.467l14.442 27.791a.884.884 0 0 1-.786 1.228h-41.754a.909.909 0 0 1-.774-.467z" class="cls-6" data-name="Path 1673" transform="translate(26.604 46.576)"/>
            <path id="Rectangle_381" d="M0 0H39.052V4.482H0z" class="cls-9" data-name="Rectangle 381" transform="translate(156.787 282.295)"/>
            <path id="Path_1674" d="M194.362 229.87h-38.537a2.223 2.223 0 0 0-2.235 2.235 2.235 2.235 0 0 0 2.235 2.247h38.536a2.235 2.235 0 0 0 2.235-2.247 2.223 2.223 0 0 0-2.235-2.235z" class="cls-10" data-name="Path 1674" transform="translate(35.029 52.425)"/>
            <path id="Path_1675" d="M131.177 236.1l-17.438-33.56-.872.663a1.425 1.425 0 0 0-.405 1.817l18.716 35.614z" class="cls-9" data-name="Path 1675" transform="translate(25.61 46.192)"/>
            <path id="Rectangle_382" d="M0 0H4.298V0.749H0z" class="cls-10" data-name="Rectangle 382" transform="translate(170.038 284.383)"/>
            <path id="Rectangle_383" d="M0 0H4.298V0.749H0z" class="cls-10" data-name="Rectangle 383" transform="translate(175.442 284.383)"/>
            <path id="Rectangle_384" d="M0 0H4.298V0.749H0z" class="cls-10" data-name="Rectangle 384" transform="translate(180.857 284.383)"/>
            <path id="Path_1676" d="M215.32 285.911s-40 31.144-46.335 39.052c-2.456 3-6.57 8.24-10.881 13.619-7.1 8.842-14.626 18.04-15.523 18.261-1.425.368-13.435-8.768-13.791-10.746-.221-1.228 10.709-19.98 20.165-35.061 5.76-9.161 10.967-16.984 12.8-18.666 4.826-4.482 34.582-20.251 34.582-20.251z" class="cls-7" data-name="Path 1676" transform="translate(29.372 62.061)"/>
            <path id="Path_1677" d="M137.1 347.24s37.37-53.175 56.122-62.14" class="cls-11" data-name="Path 1677" transform="translate(31.268 65.021)"/>
            <path id="Path_1678" fill="#382424" d="M241.41 177.474c-.418.97-.9 1.977-1.437 3-2.935 5.588-.774 11.188-4.1 12.624a4.921 4.921 0 0 1-.675.209c-4.31.946-14.221-4.777-14.651-7.639s3.058-7.774 0-8.363-4.7 4.544-4.7 4.544c-2.456.258-3.4-3.954-7.528-3.954a7.233 7.233 0 0 0-1.707.221 12.281 12.281 0 0 0-4.728 2.6 13.354 13.354 0 0 0-1.228 1.228 8.167 8.167 0 0 1-3.5-6.889c.295-7.246 2.972-12.538 9.407-13.607.725-8.068 7.368-12.367 16.223-12.637 7.761-.246 8.928 6.742 9.112 8.474a19.489 19.489 0 0 0-2.284-8.474c3.893-.172 7.368 2.6 6.423 11.642.9-2.689 4.028-4.384 6.447-2.456-2.235 0-4.384 3.758-4.384 3.758a15.117 15.117 0 0 1 4.409 4.789c1.443 2.567.891 6.362-1.099 10.93z" data-name="Path 1678" transform="translate(44.962 33.938)"/>
            <path id="Path_1679" d="M234.115 187.812l-.115 1.326-.332 4.7s-7.16 6.14-11.224 0a.442.442 0 0 0-.086-.123c-1.228-1.867-2.456-2.53-3.426-2.64-2.247-.282-4.053 1.916-5.919-.454a45.623 45.623 0 0 1-8.167-17.795 7.235 7.235 0 0 1 1.707-.221c4.126 0 5.023 4.212 7.528 3.954 0 0 1.646-5.146 4.7-4.544s-.43 5.489 0 8.363c.2 1.228 2.272 3.119 4.912 4.691 3.058 1.842 6.877 3.291 9.309 3.009l.43-.061a4.914 4.914 0 0 0 .683-.205z" class="cls-13" data-name="Path 1679" transform="translate(46.719 39.221)"/>
            <path id="Path_1680" d="M232.42 193.81c-3.218 2.21-9.137 2.567-9.137 2.567l-4.826-.712s-2.026-2.935-1.081-4.568a5.526 5.526 0 0 1 1.228-1.289 34.962 34.962 0 0 1 5.551-3.561 18.041 18.041 0 0 1 6.14-2.174c4.164-.248 5.355 7.514 2.125 9.737z" class="cls-14" data-name="Path 1680" transform="translate(49.518 41.979)"/>
            <path id="Path_1681" d="M235.165 270.9c-7.2 1.388-22.424-2.861-29.719-6.14-2.149-.958-3.611-1.842-3.967-2.456-1.4-2.456 0-4.347 3.475-12.17q.589-1.326 1.228-2.874c2.346-5.539 2.358-17.352 2.346-27.533 0-8.719-.074-16.235 1.314-17.573 3.009-2.9 18-12.367 18-12.367l2.984 15.559s1.695 7.9 3.475 18.212c3.308 18.977 6.906 46.179.864 47.342z" class="cls-5" data-name="Path 1681" transform="translate(45.828 43.285)"/>
            <path id="Path_1682" d="M252.278 264.341c0 .725-7.16 17.438-13.177 19.833s-42.233-.246-42.233-.246l-17.917 11.765 3.758 35.282 2.6 24.561.086.8c-5.477 3.574-19.28 4.544-20.766 1.461-1.437-3.107-23.407-69.262-14.737-80.732s63.761-28.184 63.761-28.184a30.2 30.2 0 0 0 4.912 2.456 94.24 94.24 0 0 0 19.858 5.023c2.272.344 4.274.614 5.809.786 1.928.233 3.095.332 3.095.332s4.951 6.151 4.951 6.863z" class="cls-7" data-name="Path 1682" transform="translate(33.725 56.76)"/>
            <path id="Path_1683" d="M188.938 359.54h-46.58a2.751 2.751 0 0 1 .786-2.456c1.891-2.272 6.619-4.556 11.188-6.521 4.335-1.879 8.5-3.475 9.886-4.593 3.291-2.6 1.768-7.663 1.682-7.97.5 1.032 2.456 1.609 4.912 1.781 4.912.356 12.219-.872 15.854-3.242l-.086-.8c1.388 2.653 2.051 15.768 2.272 21.344.048 1.487.086 2.457.086 2.457z" class="cls-15" data-name="Path 1683" transform="translate(32.457 76.57)"/>
            <path id="Path_1684" d="M168.581 339.331c-.135 2.223-.454 5.821-1.105 6.791-.958 1.437-11.224 6.447-12.649 5.968a8.5 8.5 0 0 1-2.726-1.977c4.335-1.879 8.5-3.475 9.886-4.593 3.291-2.6 1.768-7.663 1.682-7.97.503 1.019 2.406 1.596 4.912 1.781z" class="cls-16" data-name="Path 1684" transform="translate(34.689 76.982)"/>
            <path id="Path_1685" d="M188.938 355.576h-46.58a2.751 2.751 0 0 1 .786-2.456h45.708c.048 1.486.086 2.456.086 2.456z" class="cls-16" data-name="Path 1685" transform="translate(32.457 80.533)"/>
            <path id="Path_1686" d="M147.22 343.11a107.194 107.194 0 0 1-6.607 14.27c-1.228 1.965-2.37 3.242-3.181 2.935-2.874-1.081-31.659-25.556-28.908-27.349a4.693 4.693 0 0 1 1.854-.54 55.633 55.633 0 0 1 10.5.43c3.291.332 6.361.712 7.958.712 4.053 0 4.593-1.228 4.593-1.228a7.086 7.086 0 0 0 1.989 2.456c3.582 3.404 10.734 8.584 11.802 8.314z" class="cls-15" data-name="Path 1686" transform="translate(24.709 75.794)"/>
            <path id="Path_1687" d="M133.124 334.821a13.337 13.337 0 0 1-13.717.688 2.726 2.726 0 0 1-.823-2.653c3.291.332 6.361.712 7.958.712 4.053 0 4.593-1.228 4.593-1.228a7.087 7.087 0 0 0 1.989 2.481z" class="cls-16" data-name="Path 1687" transform="translate(27.028 75.794)"/>
            <path id="Path_1688" d="M140.633 357.364c-1.228 1.965-2.37 3.242-3.181 2.935-2.874-1.081-31.659-25.556-28.908-27.349a4.691 4.691 0 0 1 1.854-.54z" class="cls-16" data-name="Path 1688" transform="translate(24.713 75.81)"/>
            <path id="Path_1689" d="M217.441 233.354c-2.247 3.132-6.288 7.921-9.6 7.442l-.405-.074c-6.337-1.118-43.571-10.451-45.34-10.807s-14.319-.467-13.607-1.781 7.884-5.489 9.824-5.391 9.444 2.284 16.959 2.039 27.226 0 27.226 0l.958-1.646 1.412-2.456c-.481 7.332 8.361 13.275 12.573 12.674z" class="cls-13" data-name="Path 1689" transform="translate(33.858 50.329)"/>
            <path id="Path_1690" d="M204.667 253.16s-1.719 9.137 4.974 12.182" class="cls-11" data-name="Path 1690" transform="translate(46.632 57.737)"/>
            <path id="Path_1691" d="M210.423 259.14s-44.211 18.86-46.36 24.721 11.249 69.3 11.249 69.3" class="cls-11" data-name="Path 1691" transform="translate(37.364 59.1)"/>
            <path id="Path_1692" d="M247.217 262.95c0 .725-7.16 17.438-13.177 19.833s-42.233-.246-42.233-.246L173.889 294.3l3.758 35.282s-7.577-40.293-7.577-42.921c0-2.26 50.043-16.64 63.233-31.684 5.158.811 8.9 1.118 8.9 1.118s5.014 6.143 5.014 6.855z" class="cls-17" data-name="Path 1692" transform="translate(38.787 58.152)"/>
            <path id="Path_1693" d="M215.84 230.829c-3.107 4.4-8.105 9.984-11.63 15.056q.589-1.326 1.228-2.874c2.346-5.539 2.358-17.352 2.346-27.533l10.721-7.1s2.357 15.34-2.665 22.451z" class="cls-14" data-name="Path 1693" transform="translate(46.573 47.524)"/>
            <path id="Path_1694" d="M208.927 236.788c-.454.418-.933.835-1.4 1.228a2.591 2.591 0 0 1-.553.123c-4.212.589-13.005-5.354-12.612-12.649a10.046 10.046 0 0 1 1.167-3.046c3.6-7.258 14.417-23.419 16.407-22.67 0 0 6.963 1.081 8.842 10.574 1.781 8.916-4.605 19.735-11.851 26.44z" class="cls-18" data-name="Path 1694" transform="translate(44.324 45.556)"/>
            <path id="Path_1695" d="M231.056 262.264c-1.535-.172-3.537-.442-5.809-.786a94.238 94.238 0 0 1-19.858-5.023c5.4-.184 16.972-3.746 18.421-30.235a131.26 131.26 0 0 0 2.923 15.351c1.72 6.987 3.402 14.356 4.323 20.693z" class="cls-14" data-name="Path 1695" transform="translate(46.842 51.593)"/>
            <path id="Path_1696" d="M225.742 184.838a19.649 19.649 0 0 0-1.314 1.719 34.959 34.959 0 0 0-5.551 3.561 3.991 3.991 0 0 0-2.518-1.474l4.765-6.005a25.616 25.616 0 0 0 4.618 2.199z" class="cls-14" data-name="Path 1696" transform="translate(49.344 41.654)"/>
            <path id="Path_1697" d="M207.248 233.354c-2.247 3.132-6.288 7.921-9.6 7.442l-.405-.074c-4.1-5.932-4.261-13.705-4.016-17.586l1.412-2.456c-.445 7.331 8.397 13.275 12.609 12.674z" class="cls-14" data-name="Path 1697" transform="translate(44.051 50.329)"/>
            <path id="Path_1698" d="M240.529 173.207c-.418.97-.9 1.977-1.437 3a20.19 20.19 0 0 0-1.891 7.749 11.96 11.96 0 0 0-1.461-1.007 26.1 26.1 0 0 0-6.546 5.342c-4.384-1.572-9.21-4.912-9.517-6.9-.43-2.874 3.058-7.774 0-8.363s-4.7 4.544-4.7 4.544c-2.456.258-3.4-3.954-7.528-3.954a7.231 7.231 0 0 0-1.707.221 12.281 12.281 0 0 0-4.728 2.6s4.642-6.521 11.937-5.207c0 0-1.068-2.026-5.968-1.793 10.267-3.34 16.837-2.026 19.993 1.67 2.574 3.043 8.624 6.826 13.553 2.098z" class="cls-14" data-name="Path 1698" transform="translate(45.843 38.205)"/>
            <path id="Path_1699" d="M256.859 312.567H221s28.43-8.363 28.43-64.731v-2.149c-.295-37.665-8.339-58.443-18.261-64.362a42.982 42.982 0 0 1 12.7-4.814 63.083 63.083 0 0 1 7.909-1.228c24.561-2.456 44.136 7.11 46.47 18s-12.014 119.284-41.389 119.284z" class="cls-9" data-name="Path 1699" transform="translate(50.402 39.887)"/>
            <path id="Path_1700" d="M260.36 246.578c0 56.368-28.454 64.792-28.454 64.792H173.18l2.456-1.732 15.474-9.972 31.045-2.149c1.67-6.926 6.214-7.16 13.14-7.884 4.028-.418 4.421-7.221 3.193-16.21a205.785 205.785 0 0 0-4.446-21.282 131.26 131.26 0 0 1-2.923-15.351A136.629 136.629 0 0 1 230 220.236a140.5 140.5 0 0 1 2.886-29.363c.147-.712.295-1.4.442-2.051v-.074a14.54 14.54 0 0 1 2.2-3.267 26.1 26.1 0 0 1 6.546-5.342 11.965 11.965 0 0 1 1.461 1.007c9.247 7.037 16.517 27.57 16.8 63.355.025.64.025 1.352.025 2.077z" class="cls-8" data-name="Path 1700" transform="translate(39.496 41.084)"/>
            <path id="Path_1701" d="M243.079 370.655h-42.294a1.523 1.523 0 0 1-.946-2.726l10.586-8.289a19.366 19.366 0 0 0 7.442-15.277V287h8.093v57.424a19.38 19.38 0 0 0 7.455 15.278l10.572 8.289a1.523 1.523 0 0 1-.909 2.665z" class="cls-9" data-name="Path 1701" transform="translate(45.442 65.454)"/>
            <g id="Group_43" class="cls-19" data-name="Group 43" transform="translate(298.284 217.22)">
                <path id="Path_1702" d="M261.21 176.88s.307.786.811 2.37" class="cls-20" data-name="Path 1702" transform="translate(-238.712 -176.88)"/>
                <path id="Path_1703" fill="none" stroke="#000" stroke-dasharray="4.15 4.15" stroke-linecap="round" stroke-miterlimit="10" stroke-width="0.82px" d="M266.914 182.79a196.213 196.213 0 0 1 4.777 25.21c3.856 29.658 0 71.3-25.851 97.667" data-name="Path 1703" transform="translate(-242.217 -175.532)"/>
                <path id="Path_1704" d="M244.732 284.32c-.6.577-1.228 1.154-1.842 1.707" class="cls-20" data-name="Path 1704" transform="translate(-242.89 -152.378)"/>
            </g>
            <path id="Path_1705" d="M222.507 287v15.682a57.483 57.483 0 0 1-8.117 3.426V287z" class="cls-17" data-name="Path 1705" transform="translate(48.894 65.454)"/>
            <path id="Path_1706" d="M243.167 279.509c-1.916 5.981-13.84 4.912-15.289 9.321-3.082 9.37-4.777 5.244-16.591 6.447-6.754.675-11.654 5.01-14.614 8.6H173.18l2.456-1.732 15.474-9.972 31.045-2.149c1.67-6.926 6.214-7.16 13.14-7.884 4.028-.418 4.421-7.221 3.193-16.21a205.789 205.789 0 0 0-4.446-21.282 131.266 131.266 0 0 1-2.923-15.351A136.619 136.619 0 0 1 230 212.74c4.583 23.947 14.579 62.349 13.167 66.769z" class="cls-17" data-name="Path 1706" transform="translate(39.496 48.519)"/>
            <path id="Path_1707" d="M249.454 247.486v-2.149c-.295-37.665-8.338-58.443-18.261-64.363a42.982 42.982 0 0 1 12.7-4.814c-1.646 2.358-3.353 5.907-2.542 9.7 1.437 6.693 17.672 32.494 11.47 73.806-4.495 29.817-3 45.328 1.682 52.549H221s28.454-8.362 28.454-64.729z" class="cls-17" data-name="Path 1707" transform="translate(50.402 40.176)"/>
            <path id="Path_1708" d="M81.71 211.042a17.562 17.562 0 0 1-.381 3.684H69.811A36.056 36.056 0 0 1 57.53 201.34c3.095 3.353 8.363 7.454 13.73 8.695 4.715 1.031 8.203.577 10.45 1.007z" class="cls-14" data-name="Path 1708" transform="translate(13.121 45.919)"/>
            <path id="Path_1709" d="M105.389 177.611c-1.228 4.667-7.184 13.73-12.575 23.444-5.895 10.6-11.163 21.945-9.1 29.154a15.866 15.866 0 0 1 .749 4.089c0 3.132-2.37 2.161-4.765.381a43.391 43.391 0 0 1-4.912-4.47l.184-13.975s-7.921-7.282-1.425-23.2c.418-1.007.884-2.051 1.425-3.132 8.953-18.1 22.375-37.087 9.665-42.466 17.573-1.104 23.48 20.351 20.754 30.175z" class="cls-5" data-name="Path 1709" transform="translate(16.19 33.616)"/>
            <g id="Group_44" class="cls-22" data-name="Group 44" transform="translate(91.467 181.017)">
                <path id="Path_1710" d="M83.85 147.4a13.054 13.054 0 0 1 7.97 5.735 16.888 16.888 0 0 1 1.228 2.21 20.956 20.956 0 0 1 .872 2.358 18.765 18.765 0 0 1 .577 2.456l.221 1.228.074 1.228a30.971 30.971 0 0 1-2.272 9.824c-1.228 3.144-2.456 6.214-3.917 9.272-2.788 6.14-5.809 12.084-8.461 18.212a81.945 81.945 0 0 0-3.512 9.358 31.683 31.683 0 0 0-1.056 4.826 10.635 10.635 0 0 0 .332 4.753.491.491 0 0 1-.307.639.5.5 0 0 1-.639-.307 11.568 11.568 0 0 1-.319-5.207 31.926 31.926 0 0 1 1.142-4.912 85.255 85.255 0 0 1 3.684-9.407c2.751-6.14 5.846-12.084 8.707-18.138 1.437-3.021 2.825-6.067 4.028-9.186a31.242 31.242 0 0 0 2.37-9.665v-1.228l-.2-1.228a18.326 18.326 0 0 0-.553-2.456 19.9 19.9 0 0 0-.835-2.358 16.433 16.433 0 0 0-1.228-2.2 13.005 13.005 0 0 0-7.906-5.807z" data-name="Path 1710" transform="translate(-74.48 -147.4)"/>
            </g>
            <path id="Path_1711" d="M95.15 195c-5.367 14.147 0 24.88-8.056 26.415-3.684.7-5.317-2.039-5.993-5.207a28.946 28.946 0 0 1-.27-8.13 27.251 27.251 0 0 1 4.249-6.938A16.984 16.984 0 0 1 95.15 195z" class="cls-18" data-name="Path 1711" transform="translate(18.397 44.473)"/>
            <path id="Path_1712" d="M82.215 217.1c0 3.291-.774 6.14-2.3 7.553a4.073 4.073 0 0 1-.442.393c-3.807 3.095-6.238-2.554-6.238-2.554s-10.131-5-15.167-15.142c-3.844-7.786-4.7-18.63 4.36-32.556 1.326 9.923 6.767 16.677 12.145 23.087l2 2.382a27.521 27.521 0 0 1 5.642 16.837z" class="cls-9" data-name="Path 1712" transform="translate(12.617 39.864)"/>
            <g id="Group_45" class="cls-22" data-name="Group 45" transform="translate(73.975 214.654)">
                <path id="Path_1713" d="M61.309 174.79a43.915 43.915 0 0 0-.688 12.98 28.012 28.012 0 0 0 3.979 12.281c2.247 3.684 5.379 6.767 8.216 10.095a24.782 24.782 0 0 1 3.684 5.489 13.042 13.042 0 0 1 1.228 6.582.516.516 0 0 1-.553.467.5.5 0 0 1-.454-.54A12.023 12.023 0 0 0 75.7 216a24.362 24.362 0 0 0-3.475-5.428c-2.739-3.34-5.846-6.5-8.068-10.3a28.43 28.43 0 0 1-3.793-12.472 44.039 44.039 0 0 1 .946-13.005z" data-name="Path 1713" transform="translate(-60.236 -174.79)"/>
            </g>
            <g id="Group_46" class="cls-19" data-name="Group 46" transform="translate(99.482 239.473)">
                <path id="Path_1714" d="M95.084 195c-1.547 1.781-2.972 3.684-4.347 5.563a63 63 0 0 0-3.819 5.907 37.088 37.088 0 0 0-4.912 12.956.479.479 0 0 1-.565.418.5.5 0 0 1-.43-.565 37.53 37.53 0 0 1 5.514-13.079 70.168 70.168 0 0 1 4.053-5.809A59.854 59.854 0 0 1 95.084 195z" data-name="Path 1714" transform="translate(-81.006 -195)"/>
            </g>
            <path id="Path_1715" d="M95.756 215.5l-3.451 21.11a1.891 1.891 0 0 1-1.842 1.535H69.058a1.891 1.891 0 0 1-1.854-1.535l-2.8-17.193-.639-3.979a1.891 1.891 0 0 1 1.854-2.223h28.246a1.879 1.879 0 0 1 1.891 2.284z" class="cls-9" data-name="Path 1715" transform="translate(14.537 48.628)"/>
            <path id="Path_1716" d="M99.61 220.047h-38.5l1.019-5.76a2.542 2.542 0 0 1 2.456-2.088h31.537a2.53 2.53 0 0 1 2.456 2.088z" class="cls-8" data-name="Path 1716" transform="translate(13.938 48.395)"/>
            <path id="Path_1717" d="M83.035 210.415a28.957 28.957 0 0 0 .246 8.093h-5.035a17.56 17.56 0 0 0 .381-3.684A27.521 27.521 0 0 0 72.989 198L71 195.666a31.93 31.93 0 0 1 2.554-11.126c.295 5.072 1.547 13.9 6.607 14.835 3.856.7 8.867-3.119 12.686-6.816-2.026 3.684-3.967 7.368-5.563 10.967a27.251 27.251 0 0 0-4.249 6.889z" class="cls-14" data-name="Path 1717" transform="translate(16.193 42.087)"/>
            <path id="Path_1718" d="M81.707 236.925H68.923a1.891 1.891 0 0 1-1.854-1.535l-2.739-16.8h11.053a31.757 31.757 0 0 0 .233 10.144 15.068 15.068 0 0 0 6.091 8.191z" class="cls-14" data-name="Path 1718" transform="translate(14.672 49.853)"/>
            <rect id="Rectangle_385" width="64.571" height="50.535" class="cls-7" data-name="Rectangle 385" rx="3.99" transform="translate(133.565 62.375)"/>
            <path id="Path_1719" d="M177.68 56.879a2.321 2.321 0 0 0 2.542-2.6 29.829 29.829 0 0 0-.222-3.171 31.939 31.939 0 0 1-.233-3.279 4.311 4.311 0 0 1 4.7-4.765h.442v1.928h-.553c-1.572 0-2.2 1.118-2.2 2.8a22.728 22.728 0 0 0 .221 2.837c.074.97.184 1.854.184 2.751 0 2.91-.97 3.917-2.567 4.36v.074c1.6.491 2.6 1.5 2.567 4.433 0 .933-.111 1.867-.184 2.8a23.907 23.907 0 0 0-.221 2.874c0 1.67.553 2.825 2.235 2.825h.516v1.94h-.479c-2.456 0-4.667-1.228-4.667-4.765A32.65 32.65 0 0 1 180 64.6a31.925 31.925 0 0 0 .221-3.205 2.37 2.37 0 0 0-2.542-2.653z" class="cls-7" data-name="Path 1719" transform="translate(40.523 9.818)"/>
            <path id="Path_1720" d="M209.963 58.746a2.358 2.358 0 0 0-2.53 2.665 31.952 31.952 0 0 0 .221 3.205 32.659 32.659 0 0 1 .221 3.316c0 3.537-2.2 4.765-4.654 4.765h-.491v-1.953h.528c1.67-.184 2.235-1.154 2.235-2.825 0-1.007-.111-1.94-.184-2.874a23.885 23.885 0 0 1-.221-2.8c0-2.935.958-3.942 2.567-4.433v-.086c-1.609-.442-2.6-1.449-2.567-4.36a24.358 24.358 0 0 1 .221-2.751c.074-.9.184-1.83.184-2.837 0-1.682-.639-2.6-2.2-2.8h-.565v-1.914h.454a4.311 4.311 0 0 1 4.691 4.765 31.922 31.922 0 0 1-.221 3.279 29.836 29.836 0 0 0-.221 3.168 2.309 2.309 0 0 0 2.53 2.6z" class="cls-7" data-name="Path 1720" transform="translate(46.235 9.818)"/>
            <path id="Path_1721" d="M240.305 87.415a15.142 15.142 0 0 0-18.065 23.615l-2.272-.27a.507.507 0 1 0-.123 1.007l3.463.405a.516.516 0 0 0 .381-.1.5.5 0 0 0 .184-.344l.393-3.353a.491.491 0 0 0-.43-.553.5.5 0 0 0-.565.442l-.258 2.137a14.147 14.147 0 0 1 16.85-22.101.516.516 0 0 0 .675-.233.5.5 0 0 0-.233-.651z" class="cls-3" data-name="Path 1721" transform="translate(49.812 19.575)"/>
            <path id="Path_1722" d="M225.658 114.368a15.142 15.142 0 0 0 18.065-23.616l2.272.27a.5.5 0 1 0 .123-.995l-3.463-.418a.491.491 0 0 0-.368.111.54.54 0 0 0-.2.368l-.393 3.353a.5.5 0 1 0 .995.123l.258-2.137a14.147 14.147 0 0 1-16.824 21.995.5.5 0 0 0-.442.9z" class="cls-3" data-name="Path 1722" transform="translate(51.418 20.437)"/>
            <path id="Path_1723" d="M352.533 133.865h-90.974a3.009 3.009 0 0 1-3.009-3.009 3.009 3.009 0 0 1 3.009-3h90.962a3 3 0 0 1 3 3 3.009 3.009 0 0 1-2.984 3.009z" class="cls-3" data-name="Path 1723" transform="translate(58.965 29.161)"/>
            <path id="Path_1724" d="M320.051 144.485h-58.492a3.009 3.009 0 0 1-3.009-3 3.009 3.009 0 0 1 3.009-3.009h58.48a3.009 3.009 0 0 1 3 3.009 3 3 0 0 1-2.988 3z" class="cls-5" data-name="Path 1724" transform="translate(58.965 31.583)"/>
            <path id="Path_1725" d="M320.051 155.9h-58.492a3.009 3.009 0 0 1-3.009-3 3.009 3.009 0 0 1 3.009-3.009h58.48a3.009 3.009 0 0 1 3 3.009 3 3 0 0 1-2.984 3z" class="cls-5" data-name="Path 1725" transform="translate(58.965 34.185)"/>
            <path id="Path_1726" d="M81.765 93.245H34.559a3.009 3.009 0 0 1-3.009-3.009 3.009 3.009 0 0 1 3.009-3h47.206a3 3 0 0 1 3 3 3.009 3.009 0 0 1-3 3.009z" class="cls-5" data-name="Path 1726" transform="translate(7.197 19.897)"/>
            <path id="Path_1727" d="M63.922 103.865H34.559a3.009 3.009 0 0 1-3.009-3 3.009 3.009 0 0 1 3.009-3.009h29.363a3.009 3.009 0 0 1 3 3.009 3 3 0 0 1-3 3z" class="cls-3" data-name="Path 1727" transform="translate(7.197 22.319)"/>
            <path id="Path_1728" d="M63.922 115.275H34.559a3.009 3.009 0 0 1-3.009-3 3.009 3.009 0 0 1 3.009-3.009h29.363a3.009 3.009 0 0 1 3 3.009 3 3 0 0 1-3 3z" class="cls-3" data-name="Path 1728" transform="translate(7.197 24.921)"/>
            <path id="Path_1729" d="M309.232 280.926a146.128 146.128 0 0 1-10.144 22.731c-12.71 23.235-27.484 38.008-28.037 59.671a129.646 129.646 0 0 1-.9-43.657c2.051-13.054 6.718-27.017 16.259-38.745 26.551-32.654 22.609-62.336 22.609-62.336s13.317 24.352.213 62.336z" class="cls-18" data-name="Path 1729" transform="translate(61.286 49.853)"/>
            <g id="Group_47" class="cls-19" data-name="Group 47" transform="translate(339 268.467)">
                <path id="Path_1730" d="M276.284 337.916a33.5 33.5 0 0 1 0-7.995 49.46 49.46 0 0 1 1.412-7.8 74.29 74.29 0 0 1 5.649-14.737c1.142-2.382 2.518-4.642 3.856-6.9l4.274-6.607a92.723 92.723 0 0 0 6.951-13.988 137.177 137.177 0 0 0 4.974-14.872c1.388-5.035 2.53-10.156 3.426-15.314a141.226 141.226 0 0 0 1.879-15.584 76 76 0 0 0 .123-7.847 34.726 34.726 0 0 0-.368-3.905 12.1 12.1 0 0 0-1.068-3.758 12.132 12.132 0 0 1 1.13 3.684 34.708 34.708 0 0 1 .43 3.918 76.273 76.273 0 0 1 0 7.86 131.025 131.025 0 0 1-1.719 15.719c-.835 5.182-1.928 10.328-3.267 15.4a136.821 136.821 0 0 1-4.826 15.007 93.485 93.485 0 0 1-6.877 14.209l-4.237 6.619c-1.314 2.247-2.665 4.482-3.782 6.84a72.945 72.945 0 0 0-5.539 14.552 56.2 56.2 0 0 0-1.4 7.651 33.664 33.664 0 0 0 0 7.7.516.516 0 0 1-.43.565.5.5 0 0 1-.589-.418z" data-name="Path 1730" transform="translate(-276.045 -218.61)"/>
            </g>
            <path id="Path_1731" d="M299.089 287.86c-12.71 23.235-27.484 38.008-28.037 59.671a129.648 129.648 0 0 1-.9-43.657c8.248-3.365 19.788-8.854 28.937-16.014z" class="cls-14" data-name="Path 1731" transform="translate(61.286 65.65)"/>
            <path id="Path_1732" d="M279.49 374.049s-9.3-15.879 12.686-35.466 39.163-45.5 35.822-66.462c-21.012 24.426-76.9 59.045-61.145 101.929z" class="cls-5" data-name="Path 1732" transform="translate(60.229 62.061)"/>
            <g id="Group_48" class="cls-19" data-name="Group 48" transform="translate(330.862 334.181)">
                <path id="Path_1733" d="M326.783 272.12a71.5 71.5 0 0 1-7.933 12.968 112.457 112.457 0 0 1-10.009 11.482 150.8 150.8 0 0 1-11.347 10.156 74.822 74.822 0 0 0-10.475 10.942 82.28 82.28 0 0 0-14.049 26.686 58.37 58.37 0 0 0-2.567 14.86 34.1 34.1 0 0 0 2.456 14.675.5.5 0 1 1-.921.405 34.852 34.852 0 0 1-2.456-15.117 59.043 59.043 0 0 1 2.714-15.044 82.736 82.736 0 0 1 14.43-26.723 75.126 75.126 0 0 1 10.623-10.93 150.442 150.442 0 0 0 11.421-10.046 112.3 112.3 0 0 0 10.082-11.372 70.969 70.969 0 0 0 8.031-12.942z" data-name="Path 1733" transform="translate(-269.418 -272.12)"/>
            </g>
            <path id="Path_1734" d="M23.091 268.262S11.621 257.86 5.53 231.69c35.11 29.768 43.707 56.282 43.707 56.282z" class="cls-18" data-name="Path 1734" transform="translate(1.262 52.84)"/>
            <g id="Group_49" class="cls-19" data-name="Group 49" transform="translate(6.792 284.53)">
                <path id="Path_1735" d="M5.53 231.69q7.37 10.475 14.307 21.21c2.321 3.574 4.605 7.184 6.8 10.844a113.326 113.326 0 0 1 6.14 11.274.516.516 0 0 1-.258.675.5.5 0 0 1-.663-.258 110.39 110.39 0 0 0-5.846-11.286q-3.205-5.526-6.582-10.954-6.763-10.882-13.898-21.505z" data-name="Path 1735" transform="translate(-5.53 -231.69)"/>
            </g>
            <path id="Path_1736" d="M49.786 281.816c-6.312-5.686-15.658-11.323-24.561-17.389C13.4 256.346 2.37 247.479.332 236.66c-4.642 39.065 40.8 56.663 40.8 56.663l.1.123 16.493 24.082s6.748-22.449-7.939-35.712z" class="cls-5" data-name="Path 1736" transform="translate(.001 53.974)"/>
            <g id="Group_50" class="cls-19" data-name="Group 50" transform="translate(.333 290.634)">
                <path id="Path_1737" d="M.27 236.66a30.112 30.112 0 0 0 3.13 12.526 38.192 38.192 0 0 0 7.589 10.463 63.289 63.289 0 0 0 10.291 7.909c3.684 2.37 7.368 4.654 10.917 7.1 7.172 4.912 14.037 10.561 18.838 17.93a45.119 45.119 0 0 1 7.135 24.942.516.516 0 0 1-.5.5.5.5 0 0 1-.5-.5 44.21 44.21 0 0 0-6.754-24.561c-4.654-7.368-11.4-13.005-18.495-17.93-3.561-2.456-7.233-4.8-10.844-7.209a64.272 64.272 0 0 1-10.258-8.03 38.585 38.585 0 0 1-7.54-10.6A30.431 30.431 0 0 1 .27 236.66z" data-name="Path 1737" transform="translate(-.27 -236.66)"/>
            </g>
            <path id="Path_1738" d="M362.321 372.558H56.977a8.707 8.707 0 0 1-8.707-8.719 8.707 8.707 0 0 1 8.707-8.719h305.344a8.719 8.719 0 0 1 8.719 8.719 8.719 8.719 0 0 1-8.719 8.719z" class="cls-1" data-name="Path 1738" transform="translate(11.01 80.989)"/>
            <path id="Path_1739" d="M166.63 82.56v12.281H174V97.3h-4.912v2.456h12.281V97.3h-4.912v-2.459h7.368V82.56zm2.456 2.456h12.281v7.368h-12.281zm19.649 9.824a2.395 2.395 0 0 0-2.456 2.456v17.193a2.395 2.395 0 0 0 2.456 2.456h9.824a2.395 2.395 0 0 0 2.456-2.456V97.3a2.393 2.393 0 0 0-2.456-2.456zm0 2.456h9.824v17.193h-9.824zm-13.509 4.912a1.228 1.228 0 1 0 1.228 1.228 1.228 1.228 0 0 0-1.228-1.227zm0 3.684a1.228 1.228 0 1 0 1.228 1.228 1.228 1.228 0 0 0-1.228-1.227zm0 3.684a1.228 1.228 0 1 0 1.228 1.228 1.228 1.228 0 0 0-1.228-1.227zm3.684 0a1.228 1.228 0 1 0 1.228 1.228 1.228 1.228 0 0 0-1.227-1.227zm3.684 0a1.228 1.228 0 1 0 1.228 1.228 1.228 1.228 0 0 0-1.227-1.227zm9.824 1.228v2.456h2.456v-2.456z" class="cls-6" data-name="Path 1739" transform="translate(38.002 18.83)"/>
            <path id="Path_1740" d="M112.252 105.31a6.14 6.14 0 0 0-5.7 3.586c-2.886.639-5.084 3.881-5.084 7.639a9.947 9.947 0 0 0 .688 3.512h3.684a2.1 2.1 0 1 1 0 1.4h-3.44a4.519 4.519 0 0 0-.909 2.812 5.1 5.1 0 0 0 3.242 4.568 4.016 4.016 0 0 0 .074 3.684 4.912 4.912 0 0 0 3.881 2.26 4.531 4.531 0 0 0 4.286 2.825c1.228 0 2.554-.565 2.554-3.267v-9.358h-4.212v2.935a2.1 2.1 0 1 1-1.4 0v-4.335h5.612v-5.625h-4.212v-3.5h-1.535a2.088 2.088 0 0 1-1.965 1.4 2.112 2.112 0 1 1 0-4.212 2.088 2.088 0 0 1 1.965 1.4h2.947v3.512h2.8v-7.589c-.021-3.401-1.249-3.647-3.276-3.647zm7.909 0c-2.014 0-3.254.246-3.254 3.684v4.077h5.747a2.1 2.1 0 1 1 0 1.412h-5.8v14.737h2.935a2.1 2.1 0 1 1 0 1.4h-2.935v3.746c0 2.7 1.388 3.267 2.554 3.267a4.531 4.531 0 0 0 4.286-2.825 4.912 4.912 0 0 0 3.881-2.26 3.685 3.685 0 0 0 .479-1.67 4.507 4.507 0 0 0-.6-2.075.724.724 0 0 1 0-.282v-2.812h-6.325v-3.684a2.112 2.112 0 1 1 1.412 0v2.235h6.312v3.905a4.826 4.826 0 0 0 2.1-3.905 4.667 4.667 0 0 0-1.13-3.107 10.93 10.93 0 0 0 1.13-4.618c0-3.758-2.2-7-5.084-7.639a6.067 6.067 0 0 0-5.71-3.586zm-12.367 7.712a.712.712 0 1 0 .7.712.712.712 0 0 0-.7-.712zm16.837 0a.712.712 0 1 0 .7.712.7.7 0 0 0-.7-.712zm-2.861 6.325a.7.7 0 0 0-.7.7.712.712 0 1 0 .7-.7zm-14.024.7a.676.676 0 1 0 .049 0zm2.8 9.124a.7.7 0 0 0-.7.7.712.712 0 0 0 .7.7.7.7 0 0 0 .7-.7.688.688 0 0 0-.651-.7zm11.224 0a.7.7 0 0 0-.7.7.712.712 0 1 0 .7-.7z" class="cls-6" data-name="Path 1740" transform="translate(23.142 24.018)"/>
            <path id="Path_1741" d="M140.981 56.563a3.664 3.664 0 0 0-2.1 6.681l-1.523 5.588h-.058a4.912 4.912 0 0 0-3 1.032l-4.568-3.549a3.807 3.807 0 0 0 .2-1.228 3.684 3.684 0 1 0-1.695 3.107l4.556 3.647a4.827 4.827 0 0 0-.405 1.94 4.912 4.912 0 0 0 .835 2.739l-4.36 4.912a3.6 3.6 0 0 0-1.388-.282 3.684 3.684 0 1 0 3.684 3.684 3.585 3.585 0 0 0-.466-1.768l4.359-4.913a4.918 4.918 0 0 0 4.482 0l4.36 4.912a3.684 3.684 0 1 0 3.23-1.916 3.6 3.6 0 0 0-1.388.282l-4.36-4.912a4.912 4.912 0 0 0 .835-2.739l5.563-1.523a3.684 3.684 0 1 0-.639-2.37l-5.612 1.437a5.023 5.023 0 0 0-1.83-1.83l1.523-5.575a3.687 3.687 0 0 0-.27-7.368z" class="cls-6" data-name="Path 1741" transform="translate(27.952 12.898)"/>
            <path id="Path_1742" d="M194.414 48.46a8.3 8.3 0 1 0 8.289 8.3 8.3 8.3 0 0 0-8.289-8.3zm-.7 3.463h1.386v1.388c1.228 0 2.051.675 2.051 1.719a1.486 1.486 0 0 1-1.228 1.474v.086a1.646 1.646 0 0 1 1.584 1.658c0 1.228-.909 1.965-2.382 1.977V61.6h-1.412v-1.424h-1.719v-6.865h1.719zm-.27 2.456v1.756h1.13c.786 0 1.228-.319 1.228-.872s-.393-.884-1.081-.884zm0 2.739v1.952h1.228c.835 0 1.228-.344 1.228-.995s-.467-.958-1.314-.958z" class="cls-3" data-name="Path 1742" transform="translate(42.443 11.053)"/>
        </g>
    </g>
</svg>
